G75*
%MOIN*%
%OFA0B0*%
%FSLAX25Y25*%
%IPPOS*%
%LPD*%
%AMOC8*
5,1,8,0,0,1.08239X$1,22.5*
%
%ADD10C,0.00000*%
%ADD11C,0.06000*%
%ADD12C,0.04362*%
%ADD13C,0.00100*%
%ADD14R,0.06500X0.06500*%
%ADD15C,0.06500*%
%ADD16R,0.06000X0.06000*%
%ADD17C,0.06000*%
%ADD18R,0.05150X0.05150*%
%ADD19C,0.05150*%
%ADD20C,0.05200*%
%ADD21R,0.06600X0.06600*%
%ADD22C,0.06600*%
%ADD23R,0.06693X0.06693*%
%ADD24C,0.06693*%
%ADD25C,0.04000*%
%ADD26R,0.09843X0.09843*%
%ADD27C,0.00600*%
%ADD28C,0.02978*%
D10*
X0001000Y0008593D02*
X0001000Y0422293D01*
X0700921Y0427293D01*
X0700921Y0008593D01*
X0001000Y0008593D01*
X0024740Y0024754D02*
X0024742Y0024838D01*
X0024748Y0024921D01*
X0024758Y0025004D01*
X0024772Y0025087D01*
X0024789Y0025169D01*
X0024811Y0025250D01*
X0024836Y0025329D01*
X0024865Y0025408D01*
X0024898Y0025485D01*
X0024934Y0025560D01*
X0024974Y0025634D01*
X0025017Y0025706D01*
X0025064Y0025775D01*
X0025114Y0025842D01*
X0025167Y0025907D01*
X0025223Y0025969D01*
X0025281Y0026029D01*
X0025343Y0026086D01*
X0025407Y0026139D01*
X0025474Y0026190D01*
X0025543Y0026237D01*
X0025614Y0026282D01*
X0025687Y0026322D01*
X0025762Y0026359D01*
X0025839Y0026393D01*
X0025917Y0026423D01*
X0025996Y0026449D01*
X0026077Y0026472D01*
X0026159Y0026490D01*
X0026241Y0026505D01*
X0026324Y0026516D01*
X0026407Y0026523D01*
X0026491Y0026526D01*
X0026575Y0026525D01*
X0026658Y0026520D01*
X0026742Y0026511D01*
X0026824Y0026498D01*
X0026906Y0026482D01*
X0026987Y0026461D01*
X0027068Y0026437D01*
X0027146Y0026409D01*
X0027224Y0026377D01*
X0027300Y0026341D01*
X0027374Y0026302D01*
X0027446Y0026260D01*
X0027516Y0026214D01*
X0027584Y0026165D01*
X0027649Y0026113D01*
X0027712Y0026058D01*
X0027772Y0026000D01*
X0027830Y0025939D01*
X0027884Y0025875D01*
X0027936Y0025809D01*
X0027984Y0025741D01*
X0028029Y0025670D01*
X0028070Y0025597D01*
X0028109Y0025523D01*
X0028143Y0025447D01*
X0028174Y0025369D01*
X0028201Y0025290D01*
X0028225Y0025209D01*
X0028244Y0025128D01*
X0028260Y0025046D01*
X0028272Y0024963D01*
X0028280Y0024879D01*
X0028284Y0024796D01*
X0028284Y0024712D01*
X0028280Y0024629D01*
X0028272Y0024545D01*
X0028260Y0024462D01*
X0028244Y0024380D01*
X0028225Y0024299D01*
X0028201Y0024218D01*
X0028174Y0024139D01*
X0028143Y0024061D01*
X0028109Y0023985D01*
X0028070Y0023911D01*
X0028029Y0023838D01*
X0027984Y0023767D01*
X0027936Y0023699D01*
X0027884Y0023633D01*
X0027830Y0023569D01*
X0027772Y0023508D01*
X0027712Y0023450D01*
X0027649Y0023395D01*
X0027584Y0023343D01*
X0027516Y0023294D01*
X0027446Y0023248D01*
X0027374Y0023206D01*
X0027300Y0023167D01*
X0027224Y0023131D01*
X0027146Y0023099D01*
X0027068Y0023071D01*
X0026987Y0023047D01*
X0026906Y0023026D01*
X0026824Y0023010D01*
X0026742Y0022997D01*
X0026658Y0022988D01*
X0026575Y0022983D01*
X0026491Y0022982D01*
X0026407Y0022985D01*
X0026324Y0022992D01*
X0026241Y0023003D01*
X0026159Y0023018D01*
X0026077Y0023036D01*
X0025996Y0023059D01*
X0025917Y0023085D01*
X0025839Y0023115D01*
X0025762Y0023149D01*
X0025687Y0023186D01*
X0025614Y0023226D01*
X0025543Y0023271D01*
X0025474Y0023318D01*
X0025407Y0023369D01*
X0025343Y0023422D01*
X0025281Y0023479D01*
X0025223Y0023539D01*
X0025167Y0023601D01*
X0025114Y0023666D01*
X0025064Y0023733D01*
X0025017Y0023802D01*
X0024974Y0023874D01*
X0024934Y0023948D01*
X0024898Y0024023D01*
X0024865Y0024100D01*
X0024836Y0024179D01*
X0024811Y0024258D01*
X0024789Y0024339D01*
X0024772Y0024421D01*
X0024758Y0024504D01*
X0024748Y0024587D01*
X0024742Y0024670D01*
X0024740Y0024754D01*
X0056236Y0024754D02*
X0056238Y0024838D01*
X0056244Y0024921D01*
X0056254Y0025004D01*
X0056268Y0025087D01*
X0056285Y0025169D01*
X0056307Y0025250D01*
X0056332Y0025329D01*
X0056361Y0025408D01*
X0056394Y0025485D01*
X0056430Y0025560D01*
X0056470Y0025634D01*
X0056513Y0025706D01*
X0056560Y0025775D01*
X0056610Y0025842D01*
X0056663Y0025907D01*
X0056719Y0025969D01*
X0056777Y0026029D01*
X0056839Y0026086D01*
X0056903Y0026139D01*
X0056970Y0026190D01*
X0057039Y0026237D01*
X0057110Y0026282D01*
X0057183Y0026322D01*
X0057258Y0026359D01*
X0057335Y0026393D01*
X0057413Y0026423D01*
X0057492Y0026449D01*
X0057573Y0026472D01*
X0057655Y0026490D01*
X0057737Y0026505D01*
X0057820Y0026516D01*
X0057903Y0026523D01*
X0057987Y0026526D01*
X0058071Y0026525D01*
X0058154Y0026520D01*
X0058238Y0026511D01*
X0058320Y0026498D01*
X0058402Y0026482D01*
X0058483Y0026461D01*
X0058564Y0026437D01*
X0058642Y0026409D01*
X0058720Y0026377D01*
X0058796Y0026341D01*
X0058870Y0026302D01*
X0058942Y0026260D01*
X0059012Y0026214D01*
X0059080Y0026165D01*
X0059145Y0026113D01*
X0059208Y0026058D01*
X0059268Y0026000D01*
X0059326Y0025939D01*
X0059380Y0025875D01*
X0059432Y0025809D01*
X0059480Y0025741D01*
X0059525Y0025670D01*
X0059566Y0025597D01*
X0059605Y0025523D01*
X0059639Y0025447D01*
X0059670Y0025369D01*
X0059697Y0025290D01*
X0059721Y0025209D01*
X0059740Y0025128D01*
X0059756Y0025046D01*
X0059768Y0024963D01*
X0059776Y0024879D01*
X0059780Y0024796D01*
X0059780Y0024712D01*
X0059776Y0024629D01*
X0059768Y0024545D01*
X0059756Y0024462D01*
X0059740Y0024380D01*
X0059721Y0024299D01*
X0059697Y0024218D01*
X0059670Y0024139D01*
X0059639Y0024061D01*
X0059605Y0023985D01*
X0059566Y0023911D01*
X0059525Y0023838D01*
X0059480Y0023767D01*
X0059432Y0023699D01*
X0059380Y0023633D01*
X0059326Y0023569D01*
X0059268Y0023508D01*
X0059208Y0023450D01*
X0059145Y0023395D01*
X0059080Y0023343D01*
X0059012Y0023294D01*
X0058942Y0023248D01*
X0058870Y0023206D01*
X0058796Y0023167D01*
X0058720Y0023131D01*
X0058642Y0023099D01*
X0058564Y0023071D01*
X0058483Y0023047D01*
X0058402Y0023026D01*
X0058320Y0023010D01*
X0058238Y0022997D01*
X0058154Y0022988D01*
X0058071Y0022983D01*
X0057987Y0022982D01*
X0057903Y0022985D01*
X0057820Y0022992D01*
X0057737Y0023003D01*
X0057655Y0023018D01*
X0057573Y0023036D01*
X0057492Y0023059D01*
X0057413Y0023085D01*
X0057335Y0023115D01*
X0057258Y0023149D01*
X0057183Y0023186D01*
X0057110Y0023226D01*
X0057039Y0023271D01*
X0056970Y0023318D01*
X0056903Y0023369D01*
X0056839Y0023422D01*
X0056777Y0023479D01*
X0056719Y0023539D01*
X0056663Y0023601D01*
X0056610Y0023666D01*
X0056560Y0023733D01*
X0056513Y0023802D01*
X0056470Y0023874D01*
X0056430Y0023948D01*
X0056394Y0024023D01*
X0056361Y0024100D01*
X0056332Y0024179D01*
X0056307Y0024258D01*
X0056285Y0024339D01*
X0056268Y0024421D01*
X0056254Y0024504D01*
X0056244Y0024587D01*
X0056238Y0024670D01*
X0056236Y0024754D01*
X0157000Y0081093D02*
X0157002Y0081254D01*
X0157008Y0081414D01*
X0157018Y0081575D01*
X0157032Y0081735D01*
X0157050Y0081895D01*
X0157071Y0082054D01*
X0157097Y0082213D01*
X0157127Y0082371D01*
X0157160Y0082528D01*
X0157198Y0082685D01*
X0157239Y0082840D01*
X0157284Y0082994D01*
X0157333Y0083147D01*
X0157386Y0083299D01*
X0157442Y0083450D01*
X0157503Y0083599D01*
X0157566Y0083747D01*
X0157634Y0083893D01*
X0157705Y0084037D01*
X0157779Y0084179D01*
X0157857Y0084320D01*
X0157939Y0084458D01*
X0158024Y0084595D01*
X0158112Y0084729D01*
X0158204Y0084861D01*
X0158299Y0084991D01*
X0158397Y0085119D01*
X0158498Y0085244D01*
X0158602Y0085366D01*
X0158709Y0085486D01*
X0158819Y0085603D01*
X0158932Y0085718D01*
X0159048Y0085829D01*
X0159167Y0085938D01*
X0159288Y0086043D01*
X0159412Y0086146D01*
X0159538Y0086246D01*
X0159666Y0086342D01*
X0159797Y0086435D01*
X0159931Y0086525D01*
X0160066Y0086612D01*
X0160204Y0086695D01*
X0160343Y0086775D01*
X0160485Y0086851D01*
X0160628Y0086924D01*
X0160773Y0086993D01*
X0160920Y0087059D01*
X0161068Y0087121D01*
X0161218Y0087179D01*
X0161369Y0087234D01*
X0161522Y0087285D01*
X0161676Y0087332D01*
X0161831Y0087375D01*
X0161987Y0087414D01*
X0162143Y0087450D01*
X0162301Y0087481D01*
X0162459Y0087509D01*
X0162618Y0087533D01*
X0162778Y0087553D01*
X0162938Y0087569D01*
X0163098Y0087581D01*
X0163259Y0087589D01*
X0163420Y0087593D01*
X0163580Y0087593D01*
X0163741Y0087589D01*
X0163902Y0087581D01*
X0164062Y0087569D01*
X0164222Y0087553D01*
X0164382Y0087533D01*
X0164541Y0087509D01*
X0164699Y0087481D01*
X0164857Y0087450D01*
X0165013Y0087414D01*
X0165169Y0087375D01*
X0165324Y0087332D01*
X0165478Y0087285D01*
X0165631Y0087234D01*
X0165782Y0087179D01*
X0165932Y0087121D01*
X0166080Y0087059D01*
X0166227Y0086993D01*
X0166372Y0086924D01*
X0166515Y0086851D01*
X0166657Y0086775D01*
X0166796Y0086695D01*
X0166934Y0086612D01*
X0167069Y0086525D01*
X0167203Y0086435D01*
X0167334Y0086342D01*
X0167462Y0086246D01*
X0167588Y0086146D01*
X0167712Y0086043D01*
X0167833Y0085938D01*
X0167952Y0085829D01*
X0168068Y0085718D01*
X0168181Y0085603D01*
X0168291Y0085486D01*
X0168398Y0085366D01*
X0168502Y0085244D01*
X0168603Y0085119D01*
X0168701Y0084991D01*
X0168796Y0084861D01*
X0168888Y0084729D01*
X0168976Y0084595D01*
X0169061Y0084458D01*
X0169143Y0084320D01*
X0169221Y0084179D01*
X0169295Y0084037D01*
X0169366Y0083893D01*
X0169434Y0083747D01*
X0169497Y0083599D01*
X0169558Y0083450D01*
X0169614Y0083299D01*
X0169667Y0083147D01*
X0169716Y0082994D01*
X0169761Y0082840D01*
X0169802Y0082685D01*
X0169840Y0082528D01*
X0169873Y0082371D01*
X0169903Y0082213D01*
X0169929Y0082054D01*
X0169950Y0081895D01*
X0169968Y0081735D01*
X0169982Y0081575D01*
X0169992Y0081414D01*
X0169998Y0081254D01*
X0170000Y0081093D01*
X0169998Y0080932D01*
X0169992Y0080772D01*
X0169982Y0080611D01*
X0169968Y0080451D01*
X0169950Y0080291D01*
X0169929Y0080132D01*
X0169903Y0079973D01*
X0169873Y0079815D01*
X0169840Y0079658D01*
X0169802Y0079501D01*
X0169761Y0079346D01*
X0169716Y0079192D01*
X0169667Y0079039D01*
X0169614Y0078887D01*
X0169558Y0078736D01*
X0169497Y0078587D01*
X0169434Y0078439D01*
X0169366Y0078293D01*
X0169295Y0078149D01*
X0169221Y0078007D01*
X0169143Y0077866D01*
X0169061Y0077728D01*
X0168976Y0077591D01*
X0168888Y0077457D01*
X0168796Y0077325D01*
X0168701Y0077195D01*
X0168603Y0077067D01*
X0168502Y0076942D01*
X0168398Y0076820D01*
X0168291Y0076700D01*
X0168181Y0076583D01*
X0168068Y0076468D01*
X0167952Y0076357D01*
X0167833Y0076248D01*
X0167712Y0076143D01*
X0167588Y0076040D01*
X0167462Y0075940D01*
X0167334Y0075844D01*
X0167203Y0075751D01*
X0167069Y0075661D01*
X0166934Y0075574D01*
X0166796Y0075491D01*
X0166657Y0075411D01*
X0166515Y0075335D01*
X0166372Y0075262D01*
X0166227Y0075193D01*
X0166080Y0075127D01*
X0165932Y0075065D01*
X0165782Y0075007D01*
X0165631Y0074952D01*
X0165478Y0074901D01*
X0165324Y0074854D01*
X0165169Y0074811D01*
X0165013Y0074772D01*
X0164857Y0074736D01*
X0164699Y0074705D01*
X0164541Y0074677D01*
X0164382Y0074653D01*
X0164222Y0074633D01*
X0164062Y0074617D01*
X0163902Y0074605D01*
X0163741Y0074597D01*
X0163580Y0074593D01*
X0163420Y0074593D01*
X0163259Y0074597D01*
X0163098Y0074605D01*
X0162938Y0074617D01*
X0162778Y0074633D01*
X0162618Y0074653D01*
X0162459Y0074677D01*
X0162301Y0074705D01*
X0162143Y0074736D01*
X0161987Y0074772D01*
X0161831Y0074811D01*
X0161676Y0074854D01*
X0161522Y0074901D01*
X0161369Y0074952D01*
X0161218Y0075007D01*
X0161068Y0075065D01*
X0160920Y0075127D01*
X0160773Y0075193D01*
X0160628Y0075262D01*
X0160485Y0075335D01*
X0160343Y0075411D01*
X0160204Y0075491D01*
X0160066Y0075574D01*
X0159931Y0075661D01*
X0159797Y0075751D01*
X0159666Y0075844D01*
X0159538Y0075940D01*
X0159412Y0076040D01*
X0159288Y0076143D01*
X0159167Y0076248D01*
X0159048Y0076357D01*
X0158932Y0076468D01*
X0158819Y0076583D01*
X0158709Y0076700D01*
X0158602Y0076820D01*
X0158498Y0076942D01*
X0158397Y0077067D01*
X0158299Y0077195D01*
X0158204Y0077325D01*
X0158112Y0077457D01*
X0158024Y0077591D01*
X0157939Y0077728D01*
X0157857Y0077866D01*
X0157779Y0078007D01*
X0157705Y0078149D01*
X0157634Y0078293D01*
X0157566Y0078439D01*
X0157503Y0078587D01*
X0157442Y0078736D01*
X0157386Y0078887D01*
X0157333Y0079039D01*
X0157284Y0079192D01*
X0157239Y0079346D01*
X0157198Y0079501D01*
X0157160Y0079658D01*
X0157127Y0079815D01*
X0157097Y0079973D01*
X0157071Y0080132D01*
X0157050Y0080291D01*
X0157032Y0080451D01*
X0157018Y0080611D01*
X0157008Y0080772D01*
X0157002Y0080932D01*
X0157000Y0081093D01*
X0361867Y0127234D02*
X0361869Y0127381D01*
X0361875Y0127527D01*
X0361885Y0127673D01*
X0361899Y0127819D01*
X0361917Y0127965D01*
X0361938Y0128110D01*
X0361964Y0128254D01*
X0361994Y0128398D01*
X0362027Y0128540D01*
X0362064Y0128682D01*
X0362105Y0128823D01*
X0362150Y0128962D01*
X0362199Y0129101D01*
X0362251Y0129238D01*
X0362308Y0129373D01*
X0362367Y0129507D01*
X0362431Y0129639D01*
X0362498Y0129769D01*
X0362568Y0129898D01*
X0362642Y0130025D01*
X0362719Y0130149D01*
X0362800Y0130272D01*
X0362884Y0130392D01*
X0362971Y0130510D01*
X0363061Y0130625D01*
X0363154Y0130738D01*
X0363251Y0130849D01*
X0363350Y0130957D01*
X0363452Y0131062D01*
X0363557Y0131164D01*
X0363665Y0131263D01*
X0363776Y0131360D01*
X0363889Y0131453D01*
X0364004Y0131543D01*
X0364122Y0131630D01*
X0364242Y0131714D01*
X0364365Y0131795D01*
X0364489Y0131872D01*
X0364616Y0131946D01*
X0364745Y0132016D01*
X0364875Y0132083D01*
X0365007Y0132147D01*
X0365141Y0132206D01*
X0365276Y0132263D01*
X0365413Y0132315D01*
X0365552Y0132364D01*
X0365691Y0132409D01*
X0365832Y0132450D01*
X0365974Y0132487D01*
X0366116Y0132520D01*
X0366260Y0132550D01*
X0366404Y0132576D01*
X0366549Y0132597D01*
X0366695Y0132615D01*
X0366841Y0132629D01*
X0366987Y0132639D01*
X0367133Y0132645D01*
X0367280Y0132647D01*
X0367427Y0132645D01*
X0367573Y0132639D01*
X0367719Y0132629D01*
X0367865Y0132615D01*
X0368011Y0132597D01*
X0368156Y0132576D01*
X0368300Y0132550D01*
X0368444Y0132520D01*
X0368586Y0132487D01*
X0368728Y0132450D01*
X0368869Y0132409D01*
X0369008Y0132364D01*
X0369147Y0132315D01*
X0369284Y0132263D01*
X0369419Y0132206D01*
X0369553Y0132147D01*
X0369685Y0132083D01*
X0369815Y0132016D01*
X0369944Y0131946D01*
X0370071Y0131872D01*
X0370195Y0131795D01*
X0370318Y0131714D01*
X0370438Y0131630D01*
X0370556Y0131543D01*
X0370671Y0131453D01*
X0370784Y0131360D01*
X0370895Y0131263D01*
X0371003Y0131164D01*
X0371108Y0131062D01*
X0371210Y0130957D01*
X0371309Y0130849D01*
X0371406Y0130738D01*
X0371499Y0130625D01*
X0371589Y0130510D01*
X0371676Y0130392D01*
X0371760Y0130272D01*
X0371841Y0130149D01*
X0371918Y0130025D01*
X0371992Y0129898D01*
X0372062Y0129769D01*
X0372129Y0129639D01*
X0372193Y0129507D01*
X0372252Y0129373D01*
X0372309Y0129238D01*
X0372361Y0129101D01*
X0372410Y0128962D01*
X0372455Y0128823D01*
X0372496Y0128682D01*
X0372533Y0128540D01*
X0372566Y0128398D01*
X0372596Y0128254D01*
X0372622Y0128110D01*
X0372643Y0127965D01*
X0372661Y0127819D01*
X0372675Y0127673D01*
X0372685Y0127527D01*
X0372691Y0127381D01*
X0372693Y0127234D01*
X0372691Y0127087D01*
X0372685Y0126941D01*
X0372675Y0126795D01*
X0372661Y0126649D01*
X0372643Y0126503D01*
X0372622Y0126358D01*
X0372596Y0126214D01*
X0372566Y0126070D01*
X0372533Y0125928D01*
X0372496Y0125786D01*
X0372455Y0125645D01*
X0372410Y0125506D01*
X0372361Y0125367D01*
X0372309Y0125230D01*
X0372252Y0125095D01*
X0372193Y0124961D01*
X0372129Y0124829D01*
X0372062Y0124699D01*
X0371992Y0124570D01*
X0371918Y0124443D01*
X0371841Y0124319D01*
X0371760Y0124196D01*
X0371676Y0124076D01*
X0371589Y0123958D01*
X0371499Y0123843D01*
X0371406Y0123730D01*
X0371309Y0123619D01*
X0371210Y0123511D01*
X0371108Y0123406D01*
X0371003Y0123304D01*
X0370895Y0123205D01*
X0370784Y0123108D01*
X0370671Y0123015D01*
X0370556Y0122925D01*
X0370438Y0122838D01*
X0370318Y0122754D01*
X0370195Y0122673D01*
X0370071Y0122596D01*
X0369944Y0122522D01*
X0369815Y0122452D01*
X0369685Y0122385D01*
X0369553Y0122321D01*
X0369419Y0122262D01*
X0369284Y0122205D01*
X0369147Y0122153D01*
X0369008Y0122104D01*
X0368869Y0122059D01*
X0368728Y0122018D01*
X0368586Y0121981D01*
X0368444Y0121948D01*
X0368300Y0121918D01*
X0368156Y0121892D01*
X0368011Y0121871D01*
X0367865Y0121853D01*
X0367719Y0121839D01*
X0367573Y0121829D01*
X0367427Y0121823D01*
X0367280Y0121821D01*
X0367133Y0121823D01*
X0366987Y0121829D01*
X0366841Y0121839D01*
X0366695Y0121853D01*
X0366549Y0121871D01*
X0366404Y0121892D01*
X0366260Y0121918D01*
X0366116Y0121948D01*
X0365974Y0121981D01*
X0365832Y0122018D01*
X0365691Y0122059D01*
X0365552Y0122104D01*
X0365413Y0122153D01*
X0365276Y0122205D01*
X0365141Y0122262D01*
X0365007Y0122321D01*
X0364875Y0122385D01*
X0364745Y0122452D01*
X0364616Y0122522D01*
X0364489Y0122596D01*
X0364365Y0122673D01*
X0364242Y0122754D01*
X0364122Y0122838D01*
X0364004Y0122925D01*
X0363889Y0123015D01*
X0363776Y0123108D01*
X0363665Y0123205D01*
X0363557Y0123304D01*
X0363452Y0123406D01*
X0363350Y0123511D01*
X0363251Y0123619D01*
X0363154Y0123730D01*
X0363061Y0123843D01*
X0362971Y0123958D01*
X0362884Y0124076D01*
X0362800Y0124196D01*
X0362719Y0124319D01*
X0362642Y0124443D01*
X0362568Y0124570D01*
X0362498Y0124699D01*
X0362431Y0124829D01*
X0362367Y0124961D01*
X0362308Y0125095D01*
X0362251Y0125230D01*
X0362199Y0125367D01*
X0362150Y0125506D01*
X0362105Y0125645D01*
X0362064Y0125786D01*
X0362027Y0125928D01*
X0361994Y0126070D01*
X0361964Y0126214D01*
X0361938Y0126358D01*
X0361917Y0126503D01*
X0361899Y0126649D01*
X0361885Y0126795D01*
X0361875Y0126941D01*
X0361869Y0127087D01*
X0361867Y0127234D01*
X0405594Y0091093D02*
X0405596Y0091246D01*
X0405602Y0091400D01*
X0405612Y0091553D01*
X0405626Y0091705D01*
X0405644Y0091858D01*
X0405666Y0092009D01*
X0405691Y0092160D01*
X0405721Y0092311D01*
X0405755Y0092461D01*
X0405792Y0092609D01*
X0405833Y0092757D01*
X0405878Y0092903D01*
X0405927Y0093049D01*
X0405980Y0093193D01*
X0406036Y0093335D01*
X0406096Y0093476D01*
X0406160Y0093616D01*
X0406227Y0093754D01*
X0406298Y0093890D01*
X0406373Y0094024D01*
X0406450Y0094156D01*
X0406532Y0094286D01*
X0406616Y0094414D01*
X0406704Y0094540D01*
X0406795Y0094663D01*
X0406889Y0094784D01*
X0406987Y0094902D01*
X0407087Y0095018D01*
X0407191Y0095131D01*
X0407297Y0095242D01*
X0407406Y0095350D01*
X0407518Y0095455D01*
X0407632Y0095556D01*
X0407750Y0095655D01*
X0407869Y0095751D01*
X0407991Y0095844D01*
X0408116Y0095933D01*
X0408243Y0096020D01*
X0408372Y0096102D01*
X0408503Y0096182D01*
X0408636Y0096258D01*
X0408771Y0096331D01*
X0408908Y0096400D01*
X0409047Y0096465D01*
X0409187Y0096527D01*
X0409329Y0096585D01*
X0409472Y0096640D01*
X0409617Y0096691D01*
X0409763Y0096738D01*
X0409910Y0096781D01*
X0410058Y0096820D01*
X0410207Y0096856D01*
X0410357Y0096887D01*
X0410508Y0096915D01*
X0410659Y0096939D01*
X0410812Y0096959D01*
X0410964Y0096975D01*
X0411117Y0096987D01*
X0411270Y0096995D01*
X0411423Y0096999D01*
X0411577Y0096999D01*
X0411730Y0096995D01*
X0411883Y0096987D01*
X0412036Y0096975D01*
X0412188Y0096959D01*
X0412341Y0096939D01*
X0412492Y0096915D01*
X0412643Y0096887D01*
X0412793Y0096856D01*
X0412942Y0096820D01*
X0413090Y0096781D01*
X0413237Y0096738D01*
X0413383Y0096691D01*
X0413528Y0096640D01*
X0413671Y0096585D01*
X0413813Y0096527D01*
X0413953Y0096465D01*
X0414092Y0096400D01*
X0414229Y0096331D01*
X0414364Y0096258D01*
X0414497Y0096182D01*
X0414628Y0096102D01*
X0414757Y0096020D01*
X0414884Y0095933D01*
X0415009Y0095844D01*
X0415131Y0095751D01*
X0415250Y0095655D01*
X0415368Y0095556D01*
X0415482Y0095455D01*
X0415594Y0095350D01*
X0415703Y0095242D01*
X0415809Y0095131D01*
X0415913Y0095018D01*
X0416013Y0094902D01*
X0416111Y0094784D01*
X0416205Y0094663D01*
X0416296Y0094540D01*
X0416384Y0094414D01*
X0416468Y0094286D01*
X0416550Y0094156D01*
X0416627Y0094024D01*
X0416702Y0093890D01*
X0416773Y0093754D01*
X0416840Y0093616D01*
X0416904Y0093476D01*
X0416964Y0093335D01*
X0417020Y0093193D01*
X0417073Y0093049D01*
X0417122Y0092903D01*
X0417167Y0092757D01*
X0417208Y0092609D01*
X0417245Y0092461D01*
X0417279Y0092311D01*
X0417309Y0092160D01*
X0417334Y0092009D01*
X0417356Y0091858D01*
X0417374Y0091705D01*
X0417388Y0091553D01*
X0417398Y0091400D01*
X0417404Y0091246D01*
X0417406Y0091093D01*
X0417404Y0090940D01*
X0417398Y0090786D01*
X0417388Y0090633D01*
X0417374Y0090481D01*
X0417356Y0090328D01*
X0417334Y0090177D01*
X0417309Y0090026D01*
X0417279Y0089875D01*
X0417245Y0089725D01*
X0417208Y0089577D01*
X0417167Y0089429D01*
X0417122Y0089283D01*
X0417073Y0089137D01*
X0417020Y0088993D01*
X0416964Y0088851D01*
X0416904Y0088710D01*
X0416840Y0088570D01*
X0416773Y0088432D01*
X0416702Y0088296D01*
X0416627Y0088162D01*
X0416550Y0088030D01*
X0416468Y0087900D01*
X0416384Y0087772D01*
X0416296Y0087646D01*
X0416205Y0087523D01*
X0416111Y0087402D01*
X0416013Y0087284D01*
X0415913Y0087168D01*
X0415809Y0087055D01*
X0415703Y0086944D01*
X0415594Y0086836D01*
X0415482Y0086731D01*
X0415368Y0086630D01*
X0415250Y0086531D01*
X0415131Y0086435D01*
X0415009Y0086342D01*
X0414884Y0086253D01*
X0414757Y0086166D01*
X0414628Y0086084D01*
X0414497Y0086004D01*
X0414364Y0085928D01*
X0414229Y0085855D01*
X0414092Y0085786D01*
X0413953Y0085721D01*
X0413813Y0085659D01*
X0413671Y0085601D01*
X0413528Y0085546D01*
X0413383Y0085495D01*
X0413237Y0085448D01*
X0413090Y0085405D01*
X0412942Y0085366D01*
X0412793Y0085330D01*
X0412643Y0085299D01*
X0412492Y0085271D01*
X0412341Y0085247D01*
X0412188Y0085227D01*
X0412036Y0085211D01*
X0411883Y0085199D01*
X0411730Y0085191D01*
X0411577Y0085187D01*
X0411423Y0085187D01*
X0411270Y0085191D01*
X0411117Y0085199D01*
X0410964Y0085211D01*
X0410812Y0085227D01*
X0410659Y0085247D01*
X0410508Y0085271D01*
X0410357Y0085299D01*
X0410207Y0085330D01*
X0410058Y0085366D01*
X0409910Y0085405D01*
X0409763Y0085448D01*
X0409617Y0085495D01*
X0409472Y0085546D01*
X0409329Y0085601D01*
X0409187Y0085659D01*
X0409047Y0085721D01*
X0408908Y0085786D01*
X0408771Y0085855D01*
X0408636Y0085928D01*
X0408503Y0086004D01*
X0408372Y0086084D01*
X0408243Y0086166D01*
X0408116Y0086253D01*
X0407991Y0086342D01*
X0407869Y0086435D01*
X0407750Y0086531D01*
X0407632Y0086630D01*
X0407518Y0086731D01*
X0407406Y0086836D01*
X0407297Y0086944D01*
X0407191Y0087055D01*
X0407087Y0087168D01*
X0406987Y0087284D01*
X0406889Y0087402D01*
X0406795Y0087523D01*
X0406704Y0087646D01*
X0406616Y0087772D01*
X0406532Y0087900D01*
X0406450Y0088030D01*
X0406373Y0088162D01*
X0406298Y0088296D01*
X0406227Y0088432D01*
X0406160Y0088570D01*
X0406096Y0088710D01*
X0406036Y0088851D01*
X0405980Y0088993D01*
X0405927Y0089137D01*
X0405878Y0089283D01*
X0405833Y0089429D01*
X0405792Y0089577D01*
X0405755Y0089725D01*
X0405721Y0089875D01*
X0405691Y0090026D01*
X0405666Y0090177D01*
X0405644Y0090328D01*
X0405626Y0090481D01*
X0405612Y0090633D01*
X0405602Y0090786D01*
X0405596Y0090940D01*
X0405594Y0091093D01*
X0361867Y0024872D02*
X0361869Y0025019D01*
X0361875Y0025165D01*
X0361885Y0025311D01*
X0361899Y0025457D01*
X0361917Y0025603D01*
X0361938Y0025748D01*
X0361964Y0025892D01*
X0361994Y0026036D01*
X0362027Y0026178D01*
X0362064Y0026320D01*
X0362105Y0026461D01*
X0362150Y0026600D01*
X0362199Y0026739D01*
X0362251Y0026876D01*
X0362308Y0027011D01*
X0362367Y0027145D01*
X0362431Y0027277D01*
X0362498Y0027407D01*
X0362568Y0027536D01*
X0362642Y0027663D01*
X0362719Y0027787D01*
X0362800Y0027910D01*
X0362884Y0028030D01*
X0362971Y0028148D01*
X0363061Y0028263D01*
X0363154Y0028376D01*
X0363251Y0028487D01*
X0363350Y0028595D01*
X0363452Y0028700D01*
X0363557Y0028802D01*
X0363665Y0028901D01*
X0363776Y0028998D01*
X0363889Y0029091D01*
X0364004Y0029181D01*
X0364122Y0029268D01*
X0364242Y0029352D01*
X0364365Y0029433D01*
X0364489Y0029510D01*
X0364616Y0029584D01*
X0364745Y0029654D01*
X0364875Y0029721D01*
X0365007Y0029785D01*
X0365141Y0029844D01*
X0365276Y0029901D01*
X0365413Y0029953D01*
X0365552Y0030002D01*
X0365691Y0030047D01*
X0365832Y0030088D01*
X0365974Y0030125D01*
X0366116Y0030158D01*
X0366260Y0030188D01*
X0366404Y0030214D01*
X0366549Y0030235D01*
X0366695Y0030253D01*
X0366841Y0030267D01*
X0366987Y0030277D01*
X0367133Y0030283D01*
X0367280Y0030285D01*
X0367427Y0030283D01*
X0367573Y0030277D01*
X0367719Y0030267D01*
X0367865Y0030253D01*
X0368011Y0030235D01*
X0368156Y0030214D01*
X0368300Y0030188D01*
X0368444Y0030158D01*
X0368586Y0030125D01*
X0368728Y0030088D01*
X0368869Y0030047D01*
X0369008Y0030002D01*
X0369147Y0029953D01*
X0369284Y0029901D01*
X0369419Y0029844D01*
X0369553Y0029785D01*
X0369685Y0029721D01*
X0369815Y0029654D01*
X0369944Y0029584D01*
X0370071Y0029510D01*
X0370195Y0029433D01*
X0370318Y0029352D01*
X0370438Y0029268D01*
X0370556Y0029181D01*
X0370671Y0029091D01*
X0370784Y0028998D01*
X0370895Y0028901D01*
X0371003Y0028802D01*
X0371108Y0028700D01*
X0371210Y0028595D01*
X0371309Y0028487D01*
X0371406Y0028376D01*
X0371499Y0028263D01*
X0371589Y0028148D01*
X0371676Y0028030D01*
X0371760Y0027910D01*
X0371841Y0027787D01*
X0371918Y0027663D01*
X0371992Y0027536D01*
X0372062Y0027407D01*
X0372129Y0027277D01*
X0372193Y0027145D01*
X0372252Y0027011D01*
X0372309Y0026876D01*
X0372361Y0026739D01*
X0372410Y0026600D01*
X0372455Y0026461D01*
X0372496Y0026320D01*
X0372533Y0026178D01*
X0372566Y0026036D01*
X0372596Y0025892D01*
X0372622Y0025748D01*
X0372643Y0025603D01*
X0372661Y0025457D01*
X0372675Y0025311D01*
X0372685Y0025165D01*
X0372691Y0025019D01*
X0372693Y0024872D01*
X0372691Y0024725D01*
X0372685Y0024579D01*
X0372675Y0024433D01*
X0372661Y0024287D01*
X0372643Y0024141D01*
X0372622Y0023996D01*
X0372596Y0023852D01*
X0372566Y0023708D01*
X0372533Y0023566D01*
X0372496Y0023424D01*
X0372455Y0023283D01*
X0372410Y0023144D01*
X0372361Y0023005D01*
X0372309Y0022868D01*
X0372252Y0022733D01*
X0372193Y0022599D01*
X0372129Y0022467D01*
X0372062Y0022337D01*
X0371992Y0022208D01*
X0371918Y0022081D01*
X0371841Y0021957D01*
X0371760Y0021834D01*
X0371676Y0021714D01*
X0371589Y0021596D01*
X0371499Y0021481D01*
X0371406Y0021368D01*
X0371309Y0021257D01*
X0371210Y0021149D01*
X0371108Y0021044D01*
X0371003Y0020942D01*
X0370895Y0020843D01*
X0370784Y0020746D01*
X0370671Y0020653D01*
X0370556Y0020563D01*
X0370438Y0020476D01*
X0370318Y0020392D01*
X0370195Y0020311D01*
X0370071Y0020234D01*
X0369944Y0020160D01*
X0369815Y0020090D01*
X0369685Y0020023D01*
X0369553Y0019959D01*
X0369419Y0019900D01*
X0369284Y0019843D01*
X0369147Y0019791D01*
X0369008Y0019742D01*
X0368869Y0019697D01*
X0368728Y0019656D01*
X0368586Y0019619D01*
X0368444Y0019586D01*
X0368300Y0019556D01*
X0368156Y0019530D01*
X0368011Y0019509D01*
X0367865Y0019491D01*
X0367719Y0019477D01*
X0367573Y0019467D01*
X0367427Y0019461D01*
X0367280Y0019459D01*
X0367133Y0019461D01*
X0366987Y0019467D01*
X0366841Y0019477D01*
X0366695Y0019491D01*
X0366549Y0019509D01*
X0366404Y0019530D01*
X0366260Y0019556D01*
X0366116Y0019586D01*
X0365974Y0019619D01*
X0365832Y0019656D01*
X0365691Y0019697D01*
X0365552Y0019742D01*
X0365413Y0019791D01*
X0365276Y0019843D01*
X0365141Y0019900D01*
X0365007Y0019959D01*
X0364875Y0020023D01*
X0364745Y0020090D01*
X0364616Y0020160D01*
X0364489Y0020234D01*
X0364365Y0020311D01*
X0364242Y0020392D01*
X0364122Y0020476D01*
X0364004Y0020563D01*
X0363889Y0020653D01*
X0363776Y0020746D01*
X0363665Y0020843D01*
X0363557Y0020942D01*
X0363452Y0021044D01*
X0363350Y0021149D01*
X0363251Y0021257D01*
X0363154Y0021368D01*
X0363061Y0021481D01*
X0362971Y0021596D01*
X0362884Y0021714D01*
X0362800Y0021834D01*
X0362719Y0021957D01*
X0362642Y0022081D01*
X0362568Y0022208D01*
X0362498Y0022337D01*
X0362431Y0022467D01*
X0362367Y0022599D01*
X0362308Y0022733D01*
X0362251Y0022868D01*
X0362199Y0023005D01*
X0362150Y0023144D01*
X0362105Y0023283D01*
X0362064Y0023424D01*
X0362027Y0023566D01*
X0361994Y0023708D01*
X0361964Y0023852D01*
X0361938Y0023996D01*
X0361917Y0024141D01*
X0361899Y0024287D01*
X0361885Y0024433D01*
X0361875Y0024579D01*
X0361869Y0024725D01*
X0361867Y0024872D01*
X0522594Y0031093D02*
X0522596Y0031246D01*
X0522602Y0031400D01*
X0522612Y0031553D01*
X0522626Y0031705D01*
X0522644Y0031858D01*
X0522666Y0032009D01*
X0522691Y0032160D01*
X0522721Y0032311D01*
X0522755Y0032461D01*
X0522792Y0032609D01*
X0522833Y0032757D01*
X0522878Y0032903D01*
X0522927Y0033049D01*
X0522980Y0033193D01*
X0523036Y0033335D01*
X0523096Y0033476D01*
X0523160Y0033616D01*
X0523227Y0033754D01*
X0523298Y0033890D01*
X0523373Y0034024D01*
X0523450Y0034156D01*
X0523532Y0034286D01*
X0523616Y0034414D01*
X0523704Y0034540D01*
X0523795Y0034663D01*
X0523889Y0034784D01*
X0523987Y0034902D01*
X0524087Y0035018D01*
X0524191Y0035131D01*
X0524297Y0035242D01*
X0524406Y0035350D01*
X0524518Y0035455D01*
X0524632Y0035556D01*
X0524750Y0035655D01*
X0524869Y0035751D01*
X0524991Y0035844D01*
X0525116Y0035933D01*
X0525243Y0036020D01*
X0525372Y0036102D01*
X0525503Y0036182D01*
X0525636Y0036258D01*
X0525771Y0036331D01*
X0525908Y0036400D01*
X0526047Y0036465D01*
X0526187Y0036527D01*
X0526329Y0036585D01*
X0526472Y0036640D01*
X0526617Y0036691D01*
X0526763Y0036738D01*
X0526910Y0036781D01*
X0527058Y0036820D01*
X0527207Y0036856D01*
X0527357Y0036887D01*
X0527508Y0036915D01*
X0527659Y0036939D01*
X0527812Y0036959D01*
X0527964Y0036975D01*
X0528117Y0036987D01*
X0528270Y0036995D01*
X0528423Y0036999D01*
X0528577Y0036999D01*
X0528730Y0036995D01*
X0528883Y0036987D01*
X0529036Y0036975D01*
X0529188Y0036959D01*
X0529341Y0036939D01*
X0529492Y0036915D01*
X0529643Y0036887D01*
X0529793Y0036856D01*
X0529942Y0036820D01*
X0530090Y0036781D01*
X0530237Y0036738D01*
X0530383Y0036691D01*
X0530528Y0036640D01*
X0530671Y0036585D01*
X0530813Y0036527D01*
X0530953Y0036465D01*
X0531092Y0036400D01*
X0531229Y0036331D01*
X0531364Y0036258D01*
X0531497Y0036182D01*
X0531628Y0036102D01*
X0531757Y0036020D01*
X0531884Y0035933D01*
X0532009Y0035844D01*
X0532131Y0035751D01*
X0532250Y0035655D01*
X0532368Y0035556D01*
X0532482Y0035455D01*
X0532594Y0035350D01*
X0532703Y0035242D01*
X0532809Y0035131D01*
X0532913Y0035018D01*
X0533013Y0034902D01*
X0533111Y0034784D01*
X0533205Y0034663D01*
X0533296Y0034540D01*
X0533384Y0034414D01*
X0533468Y0034286D01*
X0533550Y0034156D01*
X0533627Y0034024D01*
X0533702Y0033890D01*
X0533773Y0033754D01*
X0533840Y0033616D01*
X0533904Y0033476D01*
X0533964Y0033335D01*
X0534020Y0033193D01*
X0534073Y0033049D01*
X0534122Y0032903D01*
X0534167Y0032757D01*
X0534208Y0032609D01*
X0534245Y0032461D01*
X0534279Y0032311D01*
X0534309Y0032160D01*
X0534334Y0032009D01*
X0534356Y0031858D01*
X0534374Y0031705D01*
X0534388Y0031553D01*
X0534398Y0031400D01*
X0534404Y0031246D01*
X0534406Y0031093D01*
X0534404Y0030940D01*
X0534398Y0030786D01*
X0534388Y0030633D01*
X0534374Y0030481D01*
X0534356Y0030328D01*
X0534334Y0030177D01*
X0534309Y0030026D01*
X0534279Y0029875D01*
X0534245Y0029725D01*
X0534208Y0029577D01*
X0534167Y0029429D01*
X0534122Y0029283D01*
X0534073Y0029137D01*
X0534020Y0028993D01*
X0533964Y0028851D01*
X0533904Y0028710D01*
X0533840Y0028570D01*
X0533773Y0028432D01*
X0533702Y0028296D01*
X0533627Y0028162D01*
X0533550Y0028030D01*
X0533468Y0027900D01*
X0533384Y0027772D01*
X0533296Y0027646D01*
X0533205Y0027523D01*
X0533111Y0027402D01*
X0533013Y0027284D01*
X0532913Y0027168D01*
X0532809Y0027055D01*
X0532703Y0026944D01*
X0532594Y0026836D01*
X0532482Y0026731D01*
X0532368Y0026630D01*
X0532250Y0026531D01*
X0532131Y0026435D01*
X0532009Y0026342D01*
X0531884Y0026253D01*
X0531757Y0026166D01*
X0531628Y0026084D01*
X0531497Y0026004D01*
X0531364Y0025928D01*
X0531229Y0025855D01*
X0531092Y0025786D01*
X0530953Y0025721D01*
X0530813Y0025659D01*
X0530671Y0025601D01*
X0530528Y0025546D01*
X0530383Y0025495D01*
X0530237Y0025448D01*
X0530090Y0025405D01*
X0529942Y0025366D01*
X0529793Y0025330D01*
X0529643Y0025299D01*
X0529492Y0025271D01*
X0529341Y0025247D01*
X0529188Y0025227D01*
X0529036Y0025211D01*
X0528883Y0025199D01*
X0528730Y0025191D01*
X0528577Y0025187D01*
X0528423Y0025187D01*
X0528270Y0025191D01*
X0528117Y0025199D01*
X0527964Y0025211D01*
X0527812Y0025227D01*
X0527659Y0025247D01*
X0527508Y0025271D01*
X0527357Y0025299D01*
X0527207Y0025330D01*
X0527058Y0025366D01*
X0526910Y0025405D01*
X0526763Y0025448D01*
X0526617Y0025495D01*
X0526472Y0025546D01*
X0526329Y0025601D01*
X0526187Y0025659D01*
X0526047Y0025721D01*
X0525908Y0025786D01*
X0525771Y0025855D01*
X0525636Y0025928D01*
X0525503Y0026004D01*
X0525372Y0026084D01*
X0525243Y0026166D01*
X0525116Y0026253D01*
X0524991Y0026342D01*
X0524869Y0026435D01*
X0524750Y0026531D01*
X0524632Y0026630D01*
X0524518Y0026731D01*
X0524406Y0026836D01*
X0524297Y0026944D01*
X0524191Y0027055D01*
X0524087Y0027168D01*
X0523987Y0027284D01*
X0523889Y0027402D01*
X0523795Y0027523D01*
X0523704Y0027646D01*
X0523616Y0027772D01*
X0523532Y0027900D01*
X0523450Y0028030D01*
X0523373Y0028162D01*
X0523298Y0028296D01*
X0523227Y0028432D01*
X0523160Y0028570D01*
X0523096Y0028710D01*
X0523036Y0028851D01*
X0522980Y0028993D01*
X0522927Y0029137D01*
X0522878Y0029283D01*
X0522833Y0029429D01*
X0522792Y0029577D01*
X0522755Y0029725D01*
X0522721Y0029875D01*
X0522691Y0030026D01*
X0522666Y0030177D01*
X0522644Y0030328D01*
X0522626Y0030481D01*
X0522612Y0030633D01*
X0522602Y0030786D01*
X0522596Y0030940D01*
X0522594Y0031093D01*
X0590213Y0024872D02*
X0590215Y0025019D01*
X0590221Y0025165D01*
X0590231Y0025311D01*
X0590245Y0025457D01*
X0590263Y0025603D01*
X0590284Y0025748D01*
X0590310Y0025892D01*
X0590340Y0026036D01*
X0590373Y0026178D01*
X0590410Y0026320D01*
X0590451Y0026461D01*
X0590496Y0026600D01*
X0590545Y0026739D01*
X0590597Y0026876D01*
X0590654Y0027011D01*
X0590713Y0027145D01*
X0590777Y0027277D01*
X0590844Y0027407D01*
X0590914Y0027536D01*
X0590988Y0027663D01*
X0591065Y0027787D01*
X0591146Y0027910D01*
X0591230Y0028030D01*
X0591317Y0028148D01*
X0591407Y0028263D01*
X0591500Y0028376D01*
X0591597Y0028487D01*
X0591696Y0028595D01*
X0591798Y0028700D01*
X0591903Y0028802D01*
X0592011Y0028901D01*
X0592122Y0028998D01*
X0592235Y0029091D01*
X0592350Y0029181D01*
X0592468Y0029268D01*
X0592588Y0029352D01*
X0592711Y0029433D01*
X0592835Y0029510D01*
X0592962Y0029584D01*
X0593091Y0029654D01*
X0593221Y0029721D01*
X0593353Y0029785D01*
X0593487Y0029844D01*
X0593622Y0029901D01*
X0593759Y0029953D01*
X0593898Y0030002D01*
X0594037Y0030047D01*
X0594178Y0030088D01*
X0594320Y0030125D01*
X0594462Y0030158D01*
X0594606Y0030188D01*
X0594750Y0030214D01*
X0594895Y0030235D01*
X0595041Y0030253D01*
X0595187Y0030267D01*
X0595333Y0030277D01*
X0595479Y0030283D01*
X0595626Y0030285D01*
X0595773Y0030283D01*
X0595919Y0030277D01*
X0596065Y0030267D01*
X0596211Y0030253D01*
X0596357Y0030235D01*
X0596502Y0030214D01*
X0596646Y0030188D01*
X0596790Y0030158D01*
X0596932Y0030125D01*
X0597074Y0030088D01*
X0597215Y0030047D01*
X0597354Y0030002D01*
X0597493Y0029953D01*
X0597630Y0029901D01*
X0597765Y0029844D01*
X0597899Y0029785D01*
X0598031Y0029721D01*
X0598161Y0029654D01*
X0598290Y0029584D01*
X0598417Y0029510D01*
X0598541Y0029433D01*
X0598664Y0029352D01*
X0598784Y0029268D01*
X0598902Y0029181D01*
X0599017Y0029091D01*
X0599130Y0028998D01*
X0599241Y0028901D01*
X0599349Y0028802D01*
X0599454Y0028700D01*
X0599556Y0028595D01*
X0599655Y0028487D01*
X0599752Y0028376D01*
X0599845Y0028263D01*
X0599935Y0028148D01*
X0600022Y0028030D01*
X0600106Y0027910D01*
X0600187Y0027787D01*
X0600264Y0027663D01*
X0600338Y0027536D01*
X0600408Y0027407D01*
X0600475Y0027277D01*
X0600539Y0027145D01*
X0600598Y0027011D01*
X0600655Y0026876D01*
X0600707Y0026739D01*
X0600756Y0026600D01*
X0600801Y0026461D01*
X0600842Y0026320D01*
X0600879Y0026178D01*
X0600912Y0026036D01*
X0600942Y0025892D01*
X0600968Y0025748D01*
X0600989Y0025603D01*
X0601007Y0025457D01*
X0601021Y0025311D01*
X0601031Y0025165D01*
X0601037Y0025019D01*
X0601039Y0024872D01*
X0601037Y0024725D01*
X0601031Y0024579D01*
X0601021Y0024433D01*
X0601007Y0024287D01*
X0600989Y0024141D01*
X0600968Y0023996D01*
X0600942Y0023852D01*
X0600912Y0023708D01*
X0600879Y0023566D01*
X0600842Y0023424D01*
X0600801Y0023283D01*
X0600756Y0023144D01*
X0600707Y0023005D01*
X0600655Y0022868D01*
X0600598Y0022733D01*
X0600539Y0022599D01*
X0600475Y0022467D01*
X0600408Y0022337D01*
X0600338Y0022208D01*
X0600264Y0022081D01*
X0600187Y0021957D01*
X0600106Y0021834D01*
X0600022Y0021714D01*
X0599935Y0021596D01*
X0599845Y0021481D01*
X0599752Y0021368D01*
X0599655Y0021257D01*
X0599556Y0021149D01*
X0599454Y0021044D01*
X0599349Y0020942D01*
X0599241Y0020843D01*
X0599130Y0020746D01*
X0599017Y0020653D01*
X0598902Y0020563D01*
X0598784Y0020476D01*
X0598664Y0020392D01*
X0598541Y0020311D01*
X0598417Y0020234D01*
X0598290Y0020160D01*
X0598161Y0020090D01*
X0598031Y0020023D01*
X0597899Y0019959D01*
X0597765Y0019900D01*
X0597630Y0019843D01*
X0597493Y0019791D01*
X0597354Y0019742D01*
X0597215Y0019697D01*
X0597074Y0019656D01*
X0596932Y0019619D01*
X0596790Y0019586D01*
X0596646Y0019556D01*
X0596502Y0019530D01*
X0596357Y0019509D01*
X0596211Y0019491D01*
X0596065Y0019477D01*
X0595919Y0019467D01*
X0595773Y0019461D01*
X0595626Y0019459D01*
X0595479Y0019461D01*
X0595333Y0019467D01*
X0595187Y0019477D01*
X0595041Y0019491D01*
X0594895Y0019509D01*
X0594750Y0019530D01*
X0594606Y0019556D01*
X0594462Y0019586D01*
X0594320Y0019619D01*
X0594178Y0019656D01*
X0594037Y0019697D01*
X0593898Y0019742D01*
X0593759Y0019791D01*
X0593622Y0019843D01*
X0593487Y0019900D01*
X0593353Y0019959D01*
X0593221Y0020023D01*
X0593091Y0020090D01*
X0592962Y0020160D01*
X0592835Y0020234D01*
X0592711Y0020311D01*
X0592588Y0020392D01*
X0592468Y0020476D01*
X0592350Y0020563D01*
X0592235Y0020653D01*
X0592122Y0020746D01*
X0592011Y0020843D01*
X0591903Y0020942D01*
X0591798Y0021044D01*
X0591696Y0021149D01*
X0591597Y0021257D01*
X0591500Y0021368D01*
X0591407Y0021481D01*
X0591317Y0021596D01*
X0591230Y0021714D01*
X0591146Y0021834D01*
X0591065Y0021957D01*
X0590988Y0022081D01*
X0590914Y0022208D01*
X0590844Y0022337D01*
X0590777Y0022467D01*
X0590713Y0022599D01*
X0590654Y0022733D01*
X0590597Y0022868D01*
X0590545Y0023005D01*
X0590496Y0023144D01*
X0590451Y0023283D01*
X0590410Y0023424D01*
X0590373Y0023566D01*
X0590340Y0023708D01*
X0590310Y0023852D01*
X0590284Y0023996D01*
X0590263Y0024141D01*
X0590245Y0024287D01*
X0590231Y0024433D01*
X0590221Y0024579D01*
X0590215Y0024725D01*
X0590213Y0024872D01*
X0590213Y0127234D02*
X0590215Y0127381D01*
X0590221Y0127527D01*
X0590231Y0127673D01*
X0590245Y0127819D01*
X0590263Y0127965D01*
X0590284Y0128110D01*
X0590310Y0128254D01*
X0590340Y0128398D01*
X0590373Y0128540D01*
X0590410Y0128682D01*
X0590451Y0128823D01*
X0590496Y0128962D01*
X0590545Y0129101D01*
X0590597Y0129238D01*
X0590654Y0129373D01*
X0590713Y0129507D01*
X0590777Y0129639D01*
X0590844Y0129769D01*
X0590914Y0129898D01*
X0590988Y0130025D01*
X0591065Y0130149D01*
X0591146Y0130272D01*
X0591230Y0130392D01*
X0591317Y0130510D01*
X0591407Y0130625D01*
X0591500Y0130738D01*
X0591597Y0130849D01*
X0591696Y0130957D01*
X0591798Y0131062D01*
X0591903Y0131164D01*
X0592011Y0131263D01*
X0592122Y0131360D01*
X0592235Y0131453D01*
X0592350Y0131543D01*
X0592468Y0131630D01*
X0592588Y0131714D01*
X0592711Y0131795D01*
X0592835Y0131872D01*
X0592962Y0131946D01*
X0593091Y0132016D01*
X0593221Y0132083D01*
X0593353Y0132147D01*
X0593487Y0132206D01*
X0593622Y0132263D01*
X0593759Y0132315D01*
X0593898Y0132364D01*
X0594037Y0132409D01*
X0594178Y0132450D01*
X0594320Y0132487D01*
X0594462Y0132520D01*
X0594606Y0132550D01*
X0594750Y0132576D01*
X0594895Y0132597D01*
X0595041Y0132615D01*
X0595187Y0132629D01*
X0595333Y0132639D01*
X0595479Y0132645D01*
X0595626Y0132647D01*
X0595773Y0132645D01*
X0595919Y0132639D01*
X0596065Y0132629D01*
X0596211Y0132615D01*
X0596357Y0132597D01*
X0596502Y0132576D01*
X0596646Y0132550D01*
X0596790Y0132520D01*
X0596932Y0132487D01*
X0597074Y0132450D01*
X0597215Y0132409D01*
X0597354Y0132364D01*
X0597493Y0132315D01*
X0597630Y0132263D01*
X0597765Y0132206D01*
X0597899Y0132147D01*
X0598031Y0132083D01*
X0598161Y0132016D01*
X0598290Y0131946D01*
X0598417Y0131872D01*
X0598541Y0131795D01*
X0598664Y0131714D01*
X0598784Y0131630D01*
X0598902Y0131543D01*
X0599017Y0131453D01*
X0599130Y0131360D01*
X0599241Y0131263D01*
X0599349Y0131164D01*
X0599454Y0131062D01*
X0599556Y0130957D01*
X0599655Y0130849D01*
X0599752Y0130738D01*
X0599845Y0130625D01*
X0599935Y0130510D01*
X0600022Y0130392D01*
X0600106Y0130272D01*
X0600187Y0130149D01*
X0600264Y0130025D01*
X0600338Y0129898D01*
X0600408Y0129769D01*
X0600475Y0129639D01*
X0600539Y0129507D01*
X0600598Y0129373D01*
X0600655Y0129238D01*
X0600707Y0129101D01*
X0600756Y0128962D01*
X0600801Y0128823D01*
X0600842Y0128682D01*
X0600879Y0128540D01*
X0600912Y0128398D01*
X0600942Y0128254D01*
X0600968Y0128110D01*
X0600989Y0127965D01*
X0601007Y0127819D01*
X0601021Y0127673D01*
X0601031Y0127527D01*
X0601037Y0127381D01*
X0601039Y0127234D01*
X0601037Y0127087D01*
X0601031Y0126941D01*
X0601021Y0126795D01*
X0601007Y0126649D01*
X0600989Y0126503D01*
X0600968Y0126358D01*
X0600942Y0126214D01*
X0600912Y0126070D01*
X0600879Y0125928D01*
X0600842Y0125786D01*
X0600801Y0125645D01*
X0600756Y0125506D01*
X0600707Y0125367D01*
X0600655Y0125230D01*
X0600598Y0125095D01*
X0600539Y0124961D01*
X0600475Y0124829D01*
X0600408Y0124699D01*
X0600338Y0124570D01*
X0600264Y0124443D01*
X0600187Y0124319D01*
X0600106Y0124196D01*
X0600022Y0124076D01*
X0599935Y0123958D01*
X0599845Y0123843D01*
X0599752Y0123730D01*
X0599655Y0123619D01*
X0599556Y0123511D01*
X0599454Y0123406D01*
X0599349Y0123304D01*
X0599241Y0123205D01*
X0599130Y0123108D01*
X0599017Y0123015D01*
X0598902Y0122925D01*
X0598784Y0122838D01*
X0598664Y0122754D01*
X0598541Y0122673D01*
X0598417Y0122596D01*
X0598290Y0122522D01*
X0598161Y0122452D01*
X0598031Y0122385D01*
X0597899Y0122321D01*
X0597765Y0122262D01*
X0597630Y0122205D01*
X0597493Y0122153D01*
X0597354Y0122104D01*
X0597215Y0122059D01*
X0597074Y0122018D01*
X0596932Y0121981D01*
X0596790Y0121948D01*
X0596646Y0121918D01*
X0596502Y0121892D01*
X0596357Y0121871D01*
X0596211Y0121853D01*
X0596065Y0121839D01*
X0595919Y0121829D01*
X0595773Y0121823D01*
X0595626Y0121821D01*
X0595479Y0121823D01*
X0595333Y0121829D01*
X0595187Y0121839D01*
X0595041Y0121853D01*
X0594895Y0121871D01*
X0594750Y0121892D01*
X0594606Y0121918D01*
X0594462Y0121948D01*
X0594320Y0121981D01*
X0594178Y0122018D01*
X0594037Y0122059D01*
X0593898Y0122104D01*
X0593759Y0122153D01*
X0593622Y0122205D01*
X0593487Y0122262D01*
X0593353Y0122321D01*
X0593221Y0122385D01*
X0593091Y0122452D01*
X0592962Y0122522D01*
X0592835Y0122596D01*
X0592711Y0122673D01*
X0592588Y0122754D01*
X0592468Y0122838D01*
X0592350Y0122925D01*
X0592235Y0123015D01*
X0592122Y0123108D01*
X0592011Y0123205D01*
X0591903Y0123304D01*
X0591798Y0123406D01*
X0591696Y0123511D01*
X0591597Y0123619D01*
X0591500Y0123730D01*
X0591407Y0123843D01*
X0591317Y0123958D01*
X0591230Y0124076D01*
X0591146Y0124196D01*
X0591065Y0124319D01*
X0590988Y0124443D01*
X0590914Y0124570D01*
X0590844Y0124699D01*
X0590777Y0124829D01*
X0590713Y0124961D01*
X0590654Y0125095D01*
X0590597Y0125230D01*
X0590545Y0125367D01*
X0590496Y0125506D01*
X0590451Y0125645D01*
X0590410Y0125786D01*
X0590373Y0125928D01*
X0590340Y0126070D01*
X0590310Y0126214D01*
X0590284Y0126358D01*
X0590263Y0126503D01*
X0590245Y0126649D01*
X0590231Y0126795D01*
X0590221Y0126941D01*
X0590215Y0127087D01*
X0590213Y0127234D01*
X0590213Y0217785D02*
X0590215Y0217932D01*
X0590221Y0218078D01*
X0590231Y0218224D01*
X0590245Y0218370D01*
X0590263Y0218516D01*
X0590284Y0218661D01*
X0590310Y0218805D01*
X0590340Y0218949D01*
X0590373Y0219091D01*
X0590410Y0219233D01*
X0590451Y0219374D01*
X0590496Y0219513D01*
X0590545Y0219652D01*
X0590597Y0219789D01*
X0590654Y0219924D01*
X0590713Y0220058D01*
X0590777Y0220190D01*
X0590844Y0220320D01*
X0590914Y0220449D01*
X0590988Y0220576D01*
X0591065Y0220700D01*
X0591146Y0220823D01*
X0591230Y0220943D01*
X0591317Y0221061D01*
X0591407Y0221176D01*
X0591500Y0221289D01*
X0591597Y0221400D01*
X0591696Y0221508D01*
X0591798Y0221613D01*
X0591903Y0221715D01*
X0592011Y0221814D01*
X0592122Y0221911D01*
X0592235Y0222004D01*
X0592350Y0222094D01*
X0592468Y0222181D01*
X0592588Y0222265D01*
X0592711Y0222346D01*
X0592835Y0222423D01*
X0592962Y0222497D01*
X0593091Y0222567D01*
X0593221Y0222634D01*
X0593353Y0222698D01*
X0593487Y0222757D01*
X0593622Y0222814D01*
X0593759Y0222866D01*
X0593898Y0222915D01*
X0594037Y0222960D01*
X0594178Y0223001D01*
X0594320Y0223038D01*
X0594462Y0223071D01*
X0594606Y0223101D01*
X0594750Y0223127D01*
X0594895Y0223148D01*
X0595041Y0223166D01*
X0595187Y0223180D01*
X0595333Y0223190D01*
X0595479Y0223196D01*
X0595626Y0223198D01*
X0595773Y0223196D01*
X0595919Y0223190D01*
X0596065Y0223180D01*
X0596211Y0223166D01*
X0596357Y0223148D01*
X0596502Y0223127D01*
X0596646Y0223101D01*
X0596790Y0223071D01*
X0596932Y0223038D01*
X0597074Y0223001D01*
X0597215Y0222960D01*
X0597354Y0222915D01*
X0597493Y0222866D01*
X0597630Y0222814D01*
X0597765Y0222757D01*
X0597899Y0222698D01*
X0598031Y0222634D01*
X0598161Y0222567D01*
X0598290Y0222497D01*
X0598417Y0222423D01*
X0598541Y0222346D01*
X0598664Y0222265D01*
X0598784Y0222181D01*
X0598902Y0222094D01*
X0599017Y0222004D01*
X0599130Y0221911D01*
X0599241Y0221814D01*
X0599349Y0221715D01*
X0599454Y0221613D01*
X0599556Y0221508D01*
X0599655Y0221400D01*
X0599752Y0221289D01*
X0599845Y0221176D01*
X0599935Y0221061D01*
X0600022Y0220943D01*
X0600106Y0220823D01*
X0600187Y0220700D01*
X0600264Y0220576D01*
X0600338Y0220449D01*
X0600408Y0220320D01*
X0600475Y0220190D01*
X0600539Y0220058D01*
X0600598Y0219924D01*
X0600655Y0219789D01*
X0600707Y0219652D01*
X0600756Y0219513D01*
X0600801Y0219374D01*
X0600842Y0219233D01*
X0600879Y0219091D01*
X0600912Y0218949D01*
X0600942Y0218805D01*
X0600968Y0218661D01*
X0600989Y0218516D01*
X0601007Y0218370D01*
X0601021Y0218224D01*
X0601031Y0218078D01*
X0601037Y0217932D01*
X0601039Y0217785D01*
X0601037Y0217638D01*
X0601031Y0217492D01*
X0601021Y0217346D01*
X0601007Y0217200D01*
X0600989Y0217054D01*
X0600968Y0216909D01*
X0600942Y0216765D01*
X0600912Y0216621D01*
X0600879Y0216479D01*
X0600842Y0216337D01*
X0600801Y0216196D01*
X0600756Y0216057D01*
X0600707Y0215918D01*
X0600655Y0215781D01*
X0600598Y0215646D01*
X0600539Y0215512D01*
X0600475Y0215380D01*
X0600408Y0215250D01*
X0600338Y0215121D01*
X0600264Y0214994D01*
X0600187Y0214870D01*
X0600106Y0214747D01*
X0600022Y0214627D01*
X0599935Y0214509D01*
X0599845Y0214394D01*
X0599752Y0214281D01*
X0599655Y0214170D01*
X0599556Y0214062D01*
X0599454Y0213957D01*
X0599349Y0213855D01*
X0599241Y0213756D01*
X0599130Y0213659D01*
X0599017Y0213566D01*
X0598902Y0213476D01*
X0598784Y0213389D01*
X0598664Y0213305D01*
X0598541Y0213224D01*
X0598417Y0213147D01*
X0598290Y0213073D01*
X0598161Y0213003D01*
X0598031Y0212936D01*
X0597899Y0212872D01*
X0597765Y0212813D01*
X0597630Y0212756D01*
X0597493Y0212704D01*
X0597354Y0212655D01*
X0597215Y0212610D01*
X0597074Y0212569D01*
X0596932Y0212532D01*
X0596790Y0212499D01*
X0596646Y0212469D01*
X0596502Y0212443D01*
X0596357Y0212422D01*
X0596211Y0212404D01*
X0596065Y0212390D01*
X0595919Y0212380D01*
X0595773Y0212374D01*
X0595626Y0212372D01*
X0595479Y0212374D01*
X0595333Y0212380D01*
X0595187Y0212390D01*
X0595041Y0212404D01*
X0594895Y0212422D01*
X0594750Y0212443D01*
X0594606Y0212469D01*
X0594462Y0212499D01*
X0594320Y0212532D01*
X0594178Y0212569D01*
X0594037Y0212610D01*
X0593898Y0212655D01*
X0593759Y0212704D01*
X0593622Y0212756D01*
X0593487Y0212813D01*
X0593353Y0212872D01*
X0593221Y0212936D01*
X0593091Y0213003D01*
X0592962Y0213073D01*
X0592835Y0213147D01*
X0592711Y0213224D01*
X0592588Y0213305D01*
X0592468Y0213389D01*
X0592350Y0213476D01*
X0592235Y0213566D01*
X0592122Y0213659D01*
X0592011Y0213756D01*
X0591903Y0213855D01*
X0591798Y0213957D01*
X0591696Y0214062D01*
X0591597Y0214170D01*
X0591500Y0214281D01*
X0591407Y0214394D01*
X0591317Y0214509D01*
X0591230Y0214627D01*
X0591146Y0214747D01*
X0591065Y0214870D01*
X0590988Y0214994D01*
X0590914Y0215121D01*
X0590844Y0215250D01*
X0590777Y0215380D01*
X0590713Y0215512D01*
X0590654Y0215646D01*
X0590597Y0215781D01*
X0590545Y0215918D01*
X0590496Y0216057D01*
X0590451Y0216196D01*
X0590410Y0216337D01*
X0590373Y0216479D01*
X0590340Y0216621D01*
X0590310Y0216765D01*
X0590284Y0216909D01*
X0590263Y0217054D01*
X0590245Y0217200D01*
X0590231Y0217346D01*
X0590221Y0217492D01*
X0590215Y0217638D01*
X0590213Y0217785D01*
X0361867Y0217785D02*
X0361869Y0217932D01*
X0361875Y0218078D01*
X0361885Y0218224D01*
X0361899Y0218370D01*
X0361917Y0218516D01*
X0361938Y0218661D01*
X0361964Y0218805D01*
X0361994Y0218949D01*
X0362027Y0219091D01*
X0362064Y0219233D01*
X0362105Y0219374D01*
X0362150Y0219513D01*
X0362199Y0219652D01*
X0362251Y0219789D01*
X0362308Y0219924D01*
X0362367Y0220058D01*
X0362431Y0220190D01*
X0362498Y0220320D01*
X0362568Y0220449D01*
X0362642Y0220576D01*
X0362719Y0220700D01*
X0362800Y0220823D01*
X0362884Y0220943D01*
X0362971Y0221061D01*
X0363061Y0221176D01*
X0363154Y0221289D01*
X0363251Y0221400D01*
X0363350Y0221508D01*
X0363452Y0221613D01*
X0363557Y0221715D01*
X0363665Y0221814D01*
X0363776Y0221911D01*
X0363889Y0222004D01*
X0364004Y0222094D01*
X0364122Y0222181D01*
X0364242Y0222265D01*
X0364365Y0222346D01*
X0364489Y0222423D01*
X0364616Y0222497D01*
X0364745Y0222567D01*
X0364875Y0222634D01*
X0365007Y0222698D01*
X0365141Y0222757D01*
X0365276Y0222814D01*
X0365413Y0222866D01*
X0365552Y0222915D01*
X0365691Y0222960D01*
X0365832Y0223001D01*
X0365974Y0223038D01*
X0366116Y0223071D01*
X0366260Y0223101D01*
X0366404Y0223127D01*
X0366549Y0223148D01*
X0366695Y0223166D01*
X0366841Y0223180D01*
X0366987Y0223190D01*
X0367133Y0223196D01*
X0367280Y0223198D01*
X0367427Y0223196D01*
X0367573Y0223190D01*
X0367719Y0223180D01*
X0367865Y0223166D01*
X0368011Y0223148D01*
X0368156Y0223127D01*
X0368300Y0223101D01*
X0368444Y0223071D01*
X0368586Y0223038D01*
X0368728Y0223001D01*
X0368869Y0222960D01*
X0369008Y0222915D01*
X0369147Y0222866D01*
X0369284Y0222814D01*
X0369419Y0222757D01*
X0369553Y0222698D01*
X0369685Y0222634D01*
X0369815Y0222567D01*
X0369944Y0222497D01*
X0370071Y0222423D01*
X0370195Y0222346D01*
X0370318Y0222265D01*
X0370438Y0222181D01*
X0370556Y0222094D01*
X0370671Y0222004D01*
X0370784Y0221911D01*
X0370895Y0221814D01*
X0371003Y0221715D01*
X0371108Y0221613D01*
X0371210Y0221508D01*
X0371309Y0221400D01*
X0371406Y0221289D01*
X0371499Y0221176D01*
X0371589Y0221061D01*
X0371676Y0220943D01*
X0371760Y0220823D01*
X0371841Y0220700D01*
X0371918Y0220576D01*
X0371992Y0220449D01*
X0372062Y0220320D01*
X0372129Y0220190D01*
X0372193Y0220058D01*
X0372252Y0219924D01*
X0372309Y0219789D01*
X0372361Y0219652D01*
X0372410Y0219513D01*
X0372455Y0219374D01*
X0372496Y0219233D01*
X0372533Y0219091D01*
X0372566Y0218949D01*
X0372596Y0218805D01*
X0372622Y0218661D01*
X0372643Y0218516D01*
X0372661Y0218370D01*
X0372675Y0218224D01*
X0372685Y0218078D01*
X0372691Y0217932D01*
X0372693Y0217785D01*
X0372691Y0217638D01*
X0372685Y0217492D01*
X0372675Y0217346D01*
X0372661Y0217200D01*
X0372643Y0217054D01*
X0372622Y0216909D01*
X0372596Y0216765D01*
X0372566Y0216621D01*
X0372533Y0216479D01*
X0372496Y0216337D01*
X0372455Y0216196D01*
X0372410Y0216057D01*
X0372361Y0215918D01*
X0372309Y0215781D01*
X0372252Y0215646D01*
X0372193Y0215512D01*
X0372129Y0215380D01*
X0372062Y0215250D01*
X0371992Y0215121D01*
X0371918Y0214994D01*
X0371841Y0214870D01*
X0371760Y0214747D01*
X0371676Y0214627D01*
X0371589Y0214509D01*
X0371499Y0214394D01*
X0371406Y0214281D01*
X0371309Y0214170D01*
X0371210Y0214062D01*
X0371108Y0213957D01*
X0371003Y0213855D01*
X0370895Y0213756D01*
X0370784Y0213659D01*
X0370671Y0213566D01*
X0370556Y0213476D01*
X0370438Y0213389D01*
X0370318Y0213305D01*
X0370195Y0213224D01*
X0370071Y0213147D01*
X0369944Y0213073D01*
X0369815Y0213003D01*
X0369685Y0212936D01*
X0369553Y0212872D01*
X0369419Y0212813D01*
X0369284Y0212756D01*
X0369147Y0212704D01*
X0369008Y0212655D01*
X0368869Y0212610D01*
X0368728Y0212569D01*
X0368586Y0212532D01*
X0368444Y0212499D01*
X0368300Y0212469D01*
X0368156Y0212443D01*
X0368011Y0212422D01*
X0367865Y0212404D01*
X0367719Y0212390D01*
X0367573Y0212380D01*
X0367427Y0212374D01*
X0367280Y0212372D01*
X0367133Y0212374D01*
X0366987Y0212380D01*
X0366841Y0212390D01*
X0366695Y0212404D01*
X0366549Y0212422D01*
X0366404Y0212443D01*
X0366260Y0212469D01*
X0366116Y0212499D01*
X0365974Y0212532D01*
X0365832Y0212569D01*
X0365691Y0212610D01*
X0365552Y0212655D01*
X0365413Y0212704D01*
X0365276Y0212756D01*
X0365141Y0212813D01*
X0365007Y0212872D01*
X0364875Y0212936D01*
X0364745Y0213003D01*
X0364616Y0213073D01*
X0364489Y0213147D01*
X0364365Y0213224D01*
X0364242Y0213305D01*
X0364122Y0213389D01*
X0364004Y0213476D01*
X0363889Y0213566D01*
X0363776Y0213659D01*
X0363665Y0213756D01*
X0363557Y0213855D01*
X0363452Y0213957D01*
X0363350Y0214062D01*
X0363251Y0214170D01*
X0363154Y0214281D01*
X0363061Y0214394D01*
X0362971Y0214509D01*
X0362884Y0214627D01*
X0362800Y0214747D01*
X0362719Y0214870D01*
X0362642Y0214994D01*
X0362568Y0215121D01*
X0362498Y0215250D01*
X0362431Y0215380D01*
X0362367Y0215512D01*
X0362308Y0215646D01*
X0362251Y0215781D01*
X0362199Y0215918D01*
X0362150Y0216057D01*
X0362105Y0216196D01*
X0362064Y0216337D01*
X0362027Y0216479D01*
X0361994Y0216621D01*
X0361964Y0216765D01*
X0361938Y0216909D01*
X0361917Y0217054D01*
X0361899Y0217200D01*
X0361885Y0217346D01*
X0361875Y0217492D01*
X0361869Y0217638D01*
X0361867Y0217785D01*
D11*
X0337500Y0171593D02*
X0337500Y0165593D01*
X0284500Y0165593D02*
X0284500Y0171593D01*
X0183250Y0054093D02*
X0183250Y0048093D01*
X0170750Y0048093D02*
X0170750Y0054093D01*
X0149750Y0054093D02*
X0149750Y0048093D01*
D12*
X0206000Y0021093D03*
X0226000Y0021093D03*
X0083500Y0118593D03*
X0083500Y0128593D03*
X0083500Y0138593D03*
X0083500Y0148593D03*
X0083500Y0158593D03*
X0083500Y0168593D03*
X0083500Y0178593D03*
X0083500Y0188593D03*
X0083500Y0198593D03*
X0083500Y0208593D03*
X0083500Y0218593D03*
X0083500Y0228593D03*
X0083500Y0238593D03*
X0083500Y0248593D03*
X0013500Y0248593D03*
X0013500Y0238593D03*
X0013500Y0228593D03*
X0013500Y0218593D03*
X0013500Y0208593D03*
X0013500Y0198593D03*
X0013500Y0188593D03*
X0013500Y0178593D03*
X0013500Y0168593D03*
X0013500Y0158593D03*
X0013500Y0148593D03*
X0013500Y0138593D03*
X0013500Y0128593D03*
X0013500Y0118593D03*
D13*
X0165238Y0029990D02*
X0165238Y0024478D01*
X0165239Y0024478D02*
X0165241Y0024424D01*
X0165246Y0024371D01*
X0165255Y0024318D01*
X0165268Y0024266D01*
X0165284Y0024214D01*
X0165304Y0024164D01*
X0165327Y0024116D01*
X0165354Y0024069D01*
X0165383Y0024024D01*
X0165416Y0023981D01*
X0165451Y0023941D01*
X0165489Y0023903D01*
X0165529Y0023868D01*
X0165572Y0023835D01*
X0165617Y0023806D01*
X0165664Y0023779D01*
X0165712Y0023756D01*
X0165762Y0023736D01*
X0165814Y0023720D01*
X0165866Y0023707D01*
X0165919Y0023698D01*
X0165972Y0023693D01*
X0166026Y0023691D01*
X0171537Y0023691D01*
X0171591Y0023693D01*
X0171644Y0023698D01*
X0171697Y0023707D01*
X0171749Y0023720D01*
X0171801Y0023736D01*
X0171851Y0023756D01*
X0171899Y0023779D01*
X0171946Y0023806D01*
X0171991Y0023835D01*
X0172034Y0023868D01*
X0172074Y0023903D01*
X0172112Y0023941D01*
X0172147Y0023981D01*
X0172180Y0024024D01*
X0172209Y0024069D01*
X0172236Y0024116D01*
X0172259Y0024164D01*
X0172279Y0024214D01*
X0172295Y0024266D01*
X0172308Y0024318D01*
X0172317Y0024371D01*
X0172322Y0024424D01*
X0172324Y0024478D01*
X0172325Y0024478D02*
X0172325Y0029990D01*
X0172324Y0029990D02*
X0172322Y0030044D01*
X0172317Y0030097D01*
X0172308Y0030150D01*
X0172295Y0030202D01*
X0172279Y0030254D01*
X0172259Y0030304D01*
X0172236Y0030352D01*
X0172209Y0030399D01*
X0172180Y0030444D01*
X0172147Y0030487D01*
X0172112Y0030527D01*
X0172074Y0030565D01*
X0172034Y0030600D01*
X0171991Y0030633D01*
X0171946Y0030662D01*
X0171899Y0030689D01*
X0171851Y0030712D01*
X0171801Y0030732D01*
X0171749Y0030748D01*
X0171697Y0030761D01*
X0171644Y0030770D01*
X0171591Y0030775D01*
X0171537Y0030777D01*
X0171537Y0030778D02*
X0166026Y0030778D01*
X0166026Y0030777D02*
X0165972Y0030775D01*
X0165919Y0030770D01*
X0165866Y0030761D01*
X0165814Y0030748D01*
X0165762Y0030732D01*
X0165712Y0030712D01*
X0165664Y0030689D01*
X0165617Y0030662D01*
X0165572Y0030633D01*
X0165529Y0030600D01*
X0165489Y0030565D01*
X0165451Y0030527D01*
X0165416Y0030487D01*
X0165383Y0030444D01*
X0165354Y0030399D01*
X0165327Y0030352D01*
X0165304Y0030304D01*
X0165284Y0030254D01*
X0165268Y0030202D01*
X0165255Y0030150D01*
X0165246Y0030097D01*
X0165241Y0030044D01*
X0165239Y0029990D01*
D14*
X0448500Y0243593D03*
X0431000Y0246093D03*
X0431000Y0278593D03*
X0596000Y0273593D03*
X0596000Y0258593D03*
X0608500Y0261093D03*
D15*
X0618500Y0261093D03*
X0628500Y0261093D03*
X0628500Y0271093D03*
X0618500Y0271093D03*
X0608500Y0271093D03*
X0586000Y0273593D03*
X0576000Y0273593D03*
X0566000Y0273593D03*
X0556000Y0273593D03*
X0546000Y0273593D03*
X0536000Y0273593D03*
X0526000Y0273593D03*
X0516000Y0273593D03*
X0506000Y0273593D03*
X0496000Y0273593D03*
X0486000Y0273593D03*
X0476000Y0273593D03*
X0466000Y0273593D03*
X0456000Y0273593D03*
X0446000Y0273593D03*
X0431000Y0268593D03*
X0446000Y0258593D03*
X0456000Y0258593D03*
X0466000Y0258593D03*
X0476000Y0258593D03*
X0486000Y0258593D03*
X0496000Y0258593D03*
X0506000Y0258593D03*
X0516000Y0258593D03*
X0526000Y0258593D03*
X0536000Y0258593D03*
X0546000Y0258593D03*
X0556000Y0258593D03*
X0566000Y0258593D03*
X0576000Y0258593D03*
X0586000Y0258593D03*
X0458500Y0243593D03*
X0431000Y0256093D03*
D16*
X0386453Y0212785D03*
X0372398Y0173297D03*
D17*
X0362398Y0173297D03*
X0396400Y0212793D03*
X0406400Y0212793D03*
X0416400Y0212793D03*
X0426400Y0212793D03*
X0436400Y0212793D03*
X0446400Y0212793D03*
X0456400Y0212793D03*
X0466400Y0212793D03*
X0476400Y0212793D03*
X0486400Y0212793D03*
X0496400Y0212793D03*
X0506400Y0212793D03*
X0516400Y0212793D03*
X0526400Y0212793D03*
X0536400Y0212793D03*
X0546400Y0212793D03*
X0556400Y0212793D03*
X0566400Y0212793D03*
X0576400Y0212793D03*
X0576400Y0222793D03*
X0566400Y0222793D03*
X0556400Y0222793D03*
X0546400Y0222793D03*
X0536400Y0222793D03*
X0526400Y0222793D03*
X0516400Y0222793D03*
X0506400Y0222793D03*
X0496400Y0222793D03*
X0486400Y0222793D03*
X0476400Y0222793D03*
X0466400Y0222793D03*
X0456400Y0222793D03*
X0446400Y0222793D03*
X0436400Y0222793D03*
X0426400Y0222793D03*
X0416400Y0222793D03*
X0406400Y0222793D03*
X0396400Y0222793D03*
X0386400Y0222793D03*
X0256000Y0263593D03*
X0246000Y0263593D03*
X0236000Y0263593D03*
X0226000Y0263593D03*
X0216000Y0263593D03*
X0190843Y0263593D03*
X0180843Y0263593D03*
X0170843Y0263593D03*
X0160843Y0263593D03*
X0150843Y0263593D03*
X0140843Y0263593D03*
X0130843Y0263593D03*
X0131000Y0218593D03*
X0141000Y0218593D03*
X0151000Y0218593D03*
X0161000Y0218593D03*
X0171000Y0218593D03*
X0201000Y0218593D03*
X0211000Y0218593D03*
X0221000Y0218593D03*
X0231000Y0218593D03*
X0241000Y0218593D03*
X0237594Y0311093D03*
X0227594Y0311093D03*
X0217594Y0311093D03*
X0207594Y0311093D03*
X0197594Y0311093D03*
X0169187Y0311093D03*
X0159187Y0311093D03*
X0149187Y0311093D03*
X0139187Y0311093D03*
X0129187Y0311093D03*
X0119187Y0311093D03*
X0109187Y0311093D03*
X0080781Y0311093D03*
X0070781Y0311093D03*
X0060781Y0311093D03*
X0050781Y0311093D03*
X0040781Y0311093D03*
X0030781Y0311093D03*
X0020781Y0311093D03*
X0021000Y0354664D03*
X0031000Y0354664D03*
X0041000Y0354664D03*
X0051000Y0354664D03*
X0061000Y0354664D03*
X0090722Y0354664D03*
X0100722Y0354664D03*
X0110722Y0354664D03*
X0120722Y0354664D03*
X0130722Y0354664D03*
X0160444Y0354664D03*
X0170444Y0354664D03*
X0180444Y0354664D03*
X0190444Y0354664D03*
X0200444Y0354664D03*
X0230167Y0354664D03*
X0240167Y0354664D03*
X0250167Y0354664D03*
X0260167Y0354664D03*
X0270167Y0354664D03*
X0299889Y0354664D03*
X0309889Y0354664D03*
X0319889Y0354664D03*
X0329889Y0354664D03*
X0339889Y0354664D03*
X0369611Y0354664D03*
X0379611Y0354664D03*
X0389611Y0354664D03*
X0399611Y0354664D03*
X0409611Y0354664D03*
X0439333Y0354664D03*
X0449333Y0354664D03*
X0459333Y0354664D03*
X0469333Y0354664D03*
X0479333Y0354664D03*
X0509056Y0354664D03*
X0519056Y0354664D03*
X0529056Y0354664D03*
X0539056Y0354664D03*
X0549056Y0354664D03*
X0578778Y0354664D03*
X0588778Y0354664D03*
X0598778Y0354664D03*
X0608778Y0354664D03*
X0618778Y0354664D03*
X0648500Y0354664D03*
X0658500Y0354664D03*
X0668500Y0354664D03*
X0678500Y0354664D03*
X0688500Y0354664D03*
X0686000Y0311093D03*
X0676000Y0311093D03*
X0666000Y0311093D03*
X0656000Y0311093D03*
X0646000Y0311093D03*
X0617425Y0311093D03*
X0607425Y0311093D03*
X0597425Y0311093D03*
X0587425Y0311093D03*
X0577425Y0311093D03*
X0548849Y0311093D03*
X0538849Y0311093D03*
X0528849Y0311093D03*
X0518849Y0311093D03*
X0508849Y0311093D03*
X0480274Y0311093D03*
X0470274Y0311093D03*
X0460274Y0311093D03*
X0450274Y0311093D03*
X0440274Y0311093D03*
X0411699Y0311093D03*
X0401699Y0311093D03*
X0391699Y0311093D03*
X0381699Y0311093D03*
X0371699Y0311093D03*
X0346000Y0311093D03*
X0336000Y0311093D03*
X0326000Y0311093D03*
X0316000Y0311093D03*
X0306000Y0311093D03*
X0296000Y0311093D03*
X0286000Y0311093D03*
X0257594Y0311093D03*
X0247594Y0311093D03*
X0244616Y0398593D03*
X0234616Y0398593D03*
X0224616Y0398593D03*
X0214616Y0398593D03*
X0204616Y0398593D03*
X0194616Y0398593D03*
X0167808Y0398593D03*
X0157808Y0398593D03*
X0147808Y0398593D03*
X0137808Y0398593D03*
X0127808Y0398593D03*
X0117808Y0398593D03*
X0107808Y0398593D03*
X0081000Y0398593D03*
X0071000Y0398593D03*
X0061000Y0398593D03*
X0051000Y0398593D03*
X0041000Y0398593D03*
X0031000Y0398593D03*
X0021000Y0398593D03*
X0254616Y0398593D03*
X0281425Y0398593D03*
X0291425Y0398593D03*
X0301425Y0398593D03*
X0311425Y0398593D03*
X0321425Y0398593D03*
X0331425Y0398593D03*
X0341425Y0398593D03*
X0368233Y0398593D03*
X0378233Y0398593D03*
X0388233Y0398593D03*
X0398233Y0398593D03*
X0408233Y0398593D03*
X0418233Y0398593D03*
X0428233Y0398593D03*
X0455041Y0398593D03*
X0465041Y0398593D03*
X0475041Y0398593D03*
X0485041Y0398593D03*
X0495041Y0398593D03*
X0505041Y0398593D03*
X0515041Y0398593D03*
X0541849Y0398593D03*
X0551849Y0398593D03*
X0561849Y0398593D03*
X0571849Y0398593D03*
X0581849Y0398593D03*
X0591849Y0398593D03*
X0601849Y0398593D03*
X0628657Y0398593D03*
X0638657Y0398593D03*
X0648657Y0398593D03*
X0658657Y0398593D03*
X0668657Y0398593D03*
X0678657Y0398593D03*
X0688657Y0398593D03*
D18*
X0653500Y0266093D03*
X0276000Y0156093D03*
X0268500Y0183593D03*
X0213500Y0153593D03*
X0208500Y0183593D03*
X0146000Y0183593D03*
X0146000Y0158593D03*
X0146000Y0133593D03*
X0223500Y0121093D03*
D19*
X0173500Y0121093D03*
X0163500Y0153593D03*
X0158500Y0183593D03*
X0218500Y0183593D03*
X0226000Y0156093D03*
X0096000Y0158593D03*
X0096000Y0183593D03*
X0096000Y0133593D03*
X0096453Y0034341D03*
X0115547Y0034341D03*
X0263953Y0034341D03*
X0283047Y0034341D03*
X0663500Y0266093D03*
X0673500Y0266093D03*
X0683500Y0266093D03*
D20*
X0211100Y0090468D02*
X0205900Y0090468D01*
X0205900Y0081093D02*
X0211100Y0081093D01*
X0211100Y0071717D02*
X0205900Y0071717D01*
D21*
X0536000Y0196093D03*
D22*
X0536000Y0186093D03*
X0536000Y0176093D03*
X0536000Y0166093D03*
X0536000Y0156093D03*
X0536000Y0146093D03*
X0536000Y0136093D03*
X0536000Y0126093D03*
X0566000Y0126093D03*
X0566000Y0136093D03*
X0566000Y0146093D03*
X0566000Y0156093D03*
X0566000Y0166093D03*
X0566000Y0176093D03*
X0566000Y0186093D03*
X0566000Y0196093D03*
D23*
X0281000Y0248593D03*
D24*
X0291000Y0248593D03*
X0301000Y0248593D03*
X0311000Y0248593D03*
X0321000Y0248593D03*
X0331000Y0248593D03*
X0341000Y0248593D03*
X0351000Y0248593D03*
X0361000Y0248593D03*
X0371000Y0248593D03*
X0381000Y0248593D03*
X0391000Y0248593D03*
X0401000Y0248593D03*
X0411000Y0248593D03*
X0411000Y0278593D03*
X0401000Y0278593D03*
X0391000Y0278593D03*
X0381000Y0278593D03*
X0371000Y0278593D03*
X0361000Y0278593D03*
X0351000Y0278593D03*
X0341000Y0278593D03*
X0331000Y0278593D03*
X0321000Y0278593D03*
X0311000Y0278593D03*
X0301000Y0278593D03*
X0291000Y0278593D03*
X0281000Y0278593D03*
D25*
X0287772Y0025593D02*
X0287772Y0021593D01*
X0259228Y0021593D02*
X0259228Y0025593D01*
X0120272Y0025593D02*
X0120272Y0021593D01*
X0091728Y0021593D02*
X0091728Y0025593D01*
D26*
X0390500Y0027093D03*
X0390500Y0095093D03*
X0546500Y0095093D03*
X0546500Y0027093D03*
D27*
X0547250Y0027343D01*
X0547250Y0036093D01*
X0548500Y0037343D01*
X0532250Y0053593D01*
X0532250Y0108593D01*
X0542250Y0108593D01*
X0542250Y0186093D01*
X0537250Y0191093D01*
X0529750Y0191093D01*
X0529750Y0199843D01*
X0531000Y0201093D01*
X0531000Y0214843D01*
X0527250Y0218593D01*
X0527250Y0222343D01*
X0526400Y0222793D01*
X0526000Y0223593D01*
X0526000Y0227343D01*
X0504750Y0227343D01*
X0502250Y0224843D01*
X0502250Y0217343D01*
X0506000Y0213593D01*
X0506400Y0212793D01*
X0506000Y0212343D01*
X0506000Y0184843D01*
X0503500Y0182343D01*
X0503500Y0174843D01*
X0506000Y0172343D01*
X0499750Y0173593D02*
X0493500Y0179843D01*
X0487250Y0177343D02*
X0487250Y0191093D01*
X0483500Y0189843D02*
X0482250Y0188593D01*
X0482250Y0169843D01*
X0483500Y0168593D01*
X0483500Y0068593D01*
X0477250Y0068593D01*
X0476000Y0069843D01*
X0476000Y0124843D01*
X0459750Y0141093D01*
X0456000Y0139843D02*
X0456000Y0174843D01*
X0458500Y0173593D02*
X0458500Y0184843D01*
X0452250Y0182343D02*
X0461000Y0191093D01*
X0461000Y0217343D01*
X0454750Y0217343D01*
X0452250Y0214843D01*
X0452250Y0212343D01*
X0444750Y0204843D01*
X0444750Y0187343D01*
X0436000Y0187343D01*
X0442250Y0189843D02*
X0442250Y0224843D01*
X0443500Y0226093D01*
X0443500Y0247343D01*
X0451000Y0254843D01*
X0451000Y0281093D01*
X0453500Y0283593D01*
X0449750Y0289843D02*
X0459750Y0299843D01*
X0459750Y0311093D01*
X0460274Y0311093D01*
X0464750Y0309843D02*
X0461000Y0306093D01*
X0461000Y0257343D01*
X0463500Y0254843D01*
X0463500Y0242343D01*
X0462250Y0241093D01*
X0462250Y0173593D01*
X0459750Y0171093D01*
X0458500Y0173593D02*
X0457250Y0172343D01*
X0457250Y0127343D01*
X0453500Y0127343D02*
X0452250Y0128593D01*
X0452250Y0182343D01*
X0449750Y0178593D02*
X0449750Y0138593D01*
X0444750Y0138593D02*
X0451000Y0132343D01*
X0451000Y0126093D01*
X0454750Y0122343D01*
X0458500Y0122343D01*
X0462250Y0122343D02*
X0462250Y0127343D01*
X0462250Y0122343D02*
X0454750Y0114843D01*
X0446000Y0119843D02*
X0439750Y0126093D01*
X0439750Y0137343D01*
X0438500Y0138593D01*
X0442250Y0136093D02*
X0449750Y0128593D01*
X0449750Y0097343D01*
X0474750Y0072343D01*
X0474750Y0067343D01*
X0471000Y0067343D02*
X0471000Y0073593D01*
X0431000Y0113593D01*
X0426000Y0121093D02*
X0417250Y0129843D01*
X0417250Y0149843D01*
X0419750Y0146093D02*
X0419750Y0138593D01*
X0431000Y0133593D02*
X0431000Y0156093D01*
X0433500Y0161093D02*
X0422250Y0161093D01*
X0422250Y0158593D01*
X0419750Y0159843D02*
X0419750Y0146093D01*
X0409750Y0149843D02*
X0409750Y0183593D01*
X0417250Y0187343D02*
X0417250Y0204843D01*
X0421000Y0208593D01*
X0421000Y0224843D01*
X0419750Y0226093D01*
X0419750Y0284843D01*
X0416000Y0286093D02*
X0414750Y0287343D01*
X0414750Y0308593D01*
X0412250Y0311093D01*
X0411699Y0311093D01*
X0411000Y0311093D01*
X0409750Y0312343D01*
X0409750Y0353593D01*
X0409611Y0354664D01*
X0409750Y0354843D01*
X0409750Y0381093D01*
X0427250Y0398593D01*
X0428233Y0398593D01*
X0428500Y0398593D01*
X0428500Y0387343D01*
X0456000Y0387343D01*
X0457250Y0388593D01*
X0457250Y0391093D01*
X0462250Y0391093D01*
X0463500Y0389843D01*
X0463500Y0369843D01*
X0478500Y0354843D01*
X0479333Y0354664D01*
X0479750Y0353593D01*
X0479750Y0311093D01*
X0480274Y0311093D01*
X0484750Y0309843D02*
X0484750Y0378593D01*
X0468500Y0394843D01*
X0471000Y0396093D02*
X0473500Y0393593D01*
X0481000Y0393593D01*
X0481000Y0401093D01*
X0483500Y0403593D01*
X0504750Y0403593D01*
X0507250Y0406093D01*
X0504750Y0403593D02*
X0504750Y0399843D01*
X0505041Y0398593D01*
X0504750Y0398593D01*
X0497250Y0391093D01*
X0497250Y0321093D01*
X0491000Y0314843D01*
X0491000Y0257343D01*
X0492250Y0256093D01*
X0492250Y0217343D01*
X0496000Y0213593D01*
X0496400Y0212793D01*
X0491000Y0206093D02*
X0498500Y0198593D01*
X0498500Y0184843D01*
X0494750Y0186093D02*
X0494750Y0198593D01*
X0491000Y0202343D01*
X0491000Y0206093D02*
X0491000Y0224843D01*
X0484750Y0231093D01*
X0498500Y0231093D02*
X0498500Y0224843D01*
X0497250Y0223593D01*
X0496400Y0222793D01*
X0506400Y0222793D02*
X0507250Y0222343D01*
X0512250Y0217343D01*
X0512250Y0182343D01*
X0519750Y0186093D02*
X0519750Y0191093D01*
X0522250Y0193593D01*
X0522250Y0217343D01*
X0521000Y0214843D02*
X0521000Y0211093D01*
X0517250Y0207343D01*
X0517250Y0109843D01*
X0526000Y0101093D01*
X0529750Y0101093D02*
X0529750Y0137343D01*
X0536000Y0143593D01*
X0536000Y0146093D01*
X0541000Y0151093D02*
X0536000Y0156093D01*
X0541000Y0151093D02*
X0541000Y0117343D01*
X0534750Y0111093D01*
X0532250Y0108593D02*
X0532250Y0122343D01*
X0536000Y0126093D01*
X0531000Y0131093D02*
X0536000Y0136093D01*
X0531000Y0131093D02*
X0531000Y0098593D01*
X0522250Y0089843D01*
X0522250Y0093593D02*
X0529750Y0101093D01*
X0534750Y0094843D02*
X0534750Y0091093D01*
X0534750Y0094843D02*
X0543500Y0103593D01*
X0543500Y0148593D01*
X0556000Y0161093D01*
X0566000Y0166093D02*
X0571000Y0161093D01*
X0571000Y0144843D01*
X0569750Y0143593D01*
X0569750Y0141093D01*
X0564750Y0141093D01*
X0559750Y0146093D01*
X0559750Y0174843D01*
X0552250Y0182343D01*
X0552250Y0233593D01*
X0551000Y0231093D02*
X0551000Y0179843D01*
X0529750Y0186093D02*
X0529750Y0149843D01*
X0529750Y0141093D01*
X0513500Y0141093D02*
X0513500Y0172343D01*
X0519750Y0174843D02*
X0522250Y0177343D01*
X0522250Y0189843D01*
X0524750Y0186093D02*
X0524750Y0123593D01*
X0527250Y0122343D02*
X0527250Y0172343D01*
X0511000Y0158593D02*
X0511000Y0142343D01*
X0509750Y0141093D01*
X0498500Y0147343D02*
X0497250Y0146093D01*
X0498500Y0147343D02*
X0498500Y0171093D01*
X0497250Y0172343D01*
X0499750Y0173593D02*
X0499750Y0113593D01*
X0512250Y0101093D01*
X0512250Y0104843D02*
X0512250Y0126093D01*
X0513500Y0127343D01*
X0509750Y0117343D02*
X0501000Y0126093D01*
X0501000Y0279843D01*
X0496000Y0273593D02*
X0496000Y0258593D01*
X0486000Y0258593D02*
X0486000Y0273593D01*
X0487250Y0274843D01*
X0487250Y0314843D01*
X0492250Y0319843D01*
X0499750Y0312343D02*
X0499750Y0344843D01*
X0509750Y0347343D02*
X0509750Y0353593D01*
X0509056Y0354664D01*
X0513500Y0351093D02*
X0513500Y0359843D01*
X0523500Y0359843D01*
X0528500Y0354843D01*
X0529056Y0354664D01*
X0533500Y0364843D02*
X0533500Y0343593D01*
X0526000Y0336093D01*
X0514750Y0324843D01*
X0514750Y0301093D01*
X0512250Y0306093D02*
X0513500Y0307343D01*
X0513500Y0328593D01*
X0506000Y0336093D01*
X0504750Y0337343D01*
X0504750Y0384843D01*
X0499750Y0383593D02*
X0499750Y0356093D01*
X0509750Y0347343D02*
X0511000Y0346093D01*
X0533500Y0364843D02*
X0549750Y0381093D01*
X0547250Y0387343D02*
X0559750Y0374843D01*
X0559750Y0276093D01*
X0561000Y0274843D01*
X0561000Y0151093D01*
X0566000Y0146093D01*
X0561000Y0141093D02*
X0553500Y0133593D01*
X0553500Y0083593D01*
X0546500Y0095093D02*
X0546000Y0094843D01*
X0534750Y0083593D01*
X0534750Y0082343D01*
X0571000Y0063593D02*
X0548500Y0041093D01*
X0548500Y0037343D02*
X0576000Y0064843D01*
X0578500Y0063593D02*
X0571000Y0056093D01*
X0571000Y0063593D02*
X0571000Y0134843D01*
X0572250Y0136093D01*
X0567250Y0136093D02*
X0572250Y0141093D01*
X0572250Y0236093D01*
X0571000Y0237343D01*
X0571000Y0274843D01*
X0561000Y0284843D01*
X0561000Y0308593D01*
X0562250Y0309843D01*
X0562250Y0398593D01*
X0561849Y0398593D01*
X0567250Y0397343D02*
X0567250Y0411093D01*
X0566000Y0412343D01*
X0301000Y0412343D01*
X0301000Y0404843D01*
X0297250Y0401093D01*
X0297250Y0393593D01*
X0334750Y0356093D01*
X0334750Y0311093D01*
X0336000Y0311093D01*
X0341000Y0314843D02*
X0341000Y0353593D01*
X0339889Y0354664D01*
X0341000Y0354843D01*
X0341000Y0398593D01*
X0341425Y0398593D01*
X0331425Y0398593D02*
X0331000Y0399843D01*
X0324750Y0406093D01*
X0311000Y0408593D02*
X0351000Y0408593D01*
X0351000Y0284843D01*
X0346000Y0279843D01*
X0346000Y0172343D01*
X0351000Y0167343D01*
X0351000Y0102343D01*
X0353500Y0122343D02*
X0379750Y0096093D01*
X0379750Y0048593D01*
X0386000Y0058593D02*
X0386000Y0091093D01*
X0389750Y0094843D01*
X0390500Y0095093D01*
X0374750Y0104843D02*
X0356000Y0123593D01*
X0356000Y0302343D01*
X0358500Y0304843D01*
X0367250Y0314843D02*
X0367250Y0282343D01*
X0371000Y0278593D01*
X0371000Y0248593D01*
X0376000Y0247343D02*
X0376000Y0314843D01*
X0376000Y0317343D02*
X0378500Y0317343D01*
X0378500Y0313593D01*
X0377250Y0312343D01*
X0377250Y0301093D01*
X0378500Y0301093D01*
X0377250Y0301093D02*
X0377250Y0288593D01*
X0386000Y0279843D01*
X0386000Y0223593D01*
X0386400Y0222793D01*
X0386000Y0222343D01*
X0382250Y0218593D01*
X0382250Y0208593D01*
X0386000Y0204843D01*
X0386000Y0186093D01*
X0386000Y0169843D01*
X0388500Y0169843D01*
X0386000Y0169843D02*
X0386000Y0147343D01*
X0389750Y0143593D01*
X0397250Y0149843D02*
X0398500Y0148593D01*
X0398500Y0117343D01*
X0397250Y0116093D01*
X0397250Y0018593D01*
X0571000Y0018593D01*
X0622250Y0069843D01*
X0622250Y0079843D01*
X0637250Y0094843D01*
X0637250Y0264843D01*
X0633500Y0259843D02*
X0631000Y0257343D01*
X0631000Y0194843D01*
X0627250Y0191093D01*
X0628500Y0187343D02*
X0628500Y0183593D01*
X0627250Y0182343D01*
X0627250Y0157343D01*
X0626000Y0156093D01*
X0622250Y0156093D02*
X0622250Y0197343D01*
X0619750Y0197343D01*
X0622250Y0197343D02*
X0622250Y0257343D01*
X0618500Y0261093D01*
X0618500Y0271093D01*
X0618500Y0311093D01*
X0617425Y0311093D01*
X0618500Y0311093D02*
X0618500Y0353593D01*
X0618778Y0354664D01*
X0618500Y0354843D01*
X0604750Y0368593D01*
X0604750Y0396093D01*
X0602250Y0398593D01*
X0601849Y0398593D01*
X0594750Y0402343D02*
X0594750Y0406093D01*
X0594750Y0402343D02*
X0592250Y0399843D01*
X0591849Y0398593D01*
X0606000Y0407343D02*
X0598500Y0414843D01*
X0132250Y0414843D01*
X0132250Y0362343D01*
X0126000Y0356093D01*
X0126000Y0313593D01*
X0128500Y0311093D01*
X0129187Y0311093D01*
X0119750Y0311093D02*
X0119750Y0307343D01*
X0126000Y0301093D01*
X0119750Y0311093D02*
X0119187Y0311093D01*
X0109750Y0311093D02*
X0109750Y0304843D01*
X0111000Y0303593D01*
X0097250Y0302343D02*
X0109750Y0289843D01*
X0109750Y0201093D01*
X0122250Y0188593D01*
X0129750Y0194843D02*
X0129750Y0149843D01*
X0146000Y0133593D01*
X0159750Y0134843D02*
X0159750Y0154843D01*
X0132250Y0182343D01*
X0136000Y0193593D02*
X0146000Y0183593D01*
X0144750Y0192343D02*
X0151000Y0192343D01*
X0151000Y0218593D01*
X0148500Y0223593D02*
X0148500Y0258593D01*
X0156000Y0253593D02*
X0157250Y0252343D01*
X0157250Y0226093D01*
X0156000Y0224843D01*
X0156000Y0209843D01*
X0146000Y0211093D02*
X0146000Y0221093D01*
X0148500Y0223593D01*
X0146000Y0224843D02*
X0146000Y0269843D01*
X0140843Y0263593D02*
X0139750Y0263593D01*
X0139750Y0254843D01*
X0137250Y0252343D01*
X0136000Y0249843D02*
X0126000Y0259843D01*
X0126000Y0264843D01*
X0119750Y0271093D01*
X0119750Y0286093D01*
X0122250Y0288593D01*
X0118500Y0289843D02*
X0114750Y0293593D01*
X0114750Y0332343D01*
X0116000Y0333593D01*
X0116000Y0364843D01*
X0116000Y0371093D01*
X0126000Y0381093D01*
X0122250Y0389843D02*
X0118500Y0393593D01*
X0118500Y0398593D01*
X0117808Y0398593D01*
X0108500Y0398593D02*
X0107808Y0398593D01*
X0108500Y0398593D02*
X0108500Y0392343D01*
X0111000Y0389843D01*
X0127808Y0398593D02*
X0128500Y0399843D01*
X0129750Y0401093D01*
X0129750Y0411093D01*
X0151000Y0406093D02*
X0157250Y0399843D01*
X0157808Y0398593D01*
X0158500Y0399843D01*
X0158500Y0403593D01*
X0206000Y0403593D01*
X0209750Y0399843D01*
X0209750Y0393593D01*
X0238500Y0393593D01*
X0243500Y0398593D01*
X0244616Y0398593D01*
X0254616Y0398593D02*
X0254750Y0398593D01*
X0254750Y0383593D01*
X0214750Y0383593D01*
X0214750Y0353593D01*
X0201000Y0353593D01*
X0200444Y0354664D01*
X0199750Y0354843D01*
X0199750Y0367343D01*
X0168500Y0398593D01*
X0167808Y0398593D01*
X0171000Y0411093D02*
X0277250Y0411093D01*
X0277250Y0341093D01*
X0281000Y0337343D01*
X0281000Y0284843D01*
X0286000Y0279843D01*
X0286000Y0188593D01*
X0284750Y0187343D01*
X0284750Y0184843D01*
X0304750Y0164843D01*
X0304750Y0126093D01*
X0301000Y0126093D02*
X0301000Y0166093D01*
X0276000Y0191093D01*
X0276000Y0279843D01*
X0278500Y0282343D01*
X0278500Y0337343D01*
X0276000Y0339843D01*
X0276000Y0403593D01*
X0223500Y0403593D01*
X0219750Y0399843D01*
X0214750Y0399843D01*
X0214616Y0398593D01*
X0204750Y0398593D02*
X0204750Y0394843D01*
X0213500Y0386093D01*
X0198500Y0389843D02*
X0194750Y0393593D01*
X0194750Y0398593D01*
X0194616Y0398593D01*
X0204616Y0398593D02*
X0204750Y0398593D01*
X0229750Y0381093D02*
X0254750Y0356093D01*
X0254750Y0338593D01*
X0248500Y0338593D01*
X0254750Y0338593D02*
X0262250Y0338593D01*
X0262250Y0298593D01*
X0262250Y0229843D01*
X0259750Y0227343D01*
X0249750Y0209843D02*
X0241000Y0218593D01*
X0236000Y0217343D02*
X0236000Y0241093D01*
X0238500Y0243593D01*
X0238500Y0254843D01*
X0231000Y0262343D01*
X0231000Y0308593D01*
X0228500Y0311093D01*
X0227594Y0311093D01*
X0237594Y0311093D02*
X0238500Y0311093D01*
X0241000Y0308593D01*
X0241000Y0261093D01*
X0243500Y0258593D01*
X0236000Y0248593D02*
X0211000Y0223593D01*
X0211000Y0218593D01*
X0221000Y0218593D02*
X0221000Y0186093D01*
X0222250Y0184843D01*
X0222250Y0181093D01*
X0218500Y0177343D01*
X0218500Y0073593D01*
X0216000Y0072343D02*
X0216000Y0151093D01*
X0213500Y0153593D01*
X0216000Y0159843D02*
X0194750Y0181093D01*
X0194750Y0284843D01*
X0173500Y0306093D01*
X0169750Y0306093D02*
X0169750Y0311093D01*
X0169187Y0311093D01*
X0168500Y0311093D01*
X0163500Y0316093D01*
X0163500Y0317343D01*
X0199750Y0353593D01*
X0200444Y0354664D01*
X0193500Y0343593D02*
X0193500Y0292343D01*
X0197250Y0288593D01*
X0196000Y0287343D01*
X0196000Y0199843D01*
X0208500Y0187343D01*
X0218500Y0187343D01*
X0218500Y0183593D01*
X0223500Y0179843D02*
X0222250Y0178593D01*
X0222250Y0122343D01*
X0223500Y0121093D01*
X0221000Y0113593D02*
X0221000Y0079843D01*
X0241000Y0059843D01*
X0241000Y0058593D01*
X0246000Y0058593D01*
X0242250Y0068593D02*
X0257250Y0053593D01*
X0249750Y0067343D02*
X0246000Y0071093D01*
X0242250Y0068593D02*
X0242250Y0211093D01*
X0236000Y0217343D01*
X0231000Y0218593D02*
X0226000Y0213593D01*
X0226000Y0178593D01*
X0223500Y0179843D02*
X0223500Y0197343D01*
X0224750Y0198593D01*
X0224750Y0216093D01*
X0226000Y0217343D01*
X0226000Y0234843D01*
X0236000Y0244843D01*
X0226000Y0263593D02*
X0223500Y0263593D01*
X0206000Y0246093D01*
X0206000Y0203593D01*
X0201000Y0198593D01*
X0192250Y0191093D02*
X0192250Y0093593D01*
X0191000Y0092343D01*
X0178500Y0101093D02*
X0178500Y0157343D01*
X0176000Y0159843D01*
X0176000Y0212343D01*
X0177250Y0213593D01*
X0177250Y0237343D01*
X0164750Y0249843D01*
X0164750Y0266093D01*
X0157250Y0273593D01*
X0157250Y0307343D01*
X0153500Y0311093D01*
X0153500Y0312343D01*
X0149750Y0316093D01*
X0139750Y0316093D01*
X0139750Y0311093D01*
X0139187Y0311093D01*
X0148500Y0311093D02*
X0149187Y0311093D01*
X0148500Y0311093D02*
X0148500Y0287343D01*
X0154750Y0281093D01*
X0154750Y0227343D01*
X0163500Y0222343D02*
X0166000Y0219843D01*
X0166000Y0161093D01*
X0158500Y0158593D02*
X0158500Y0183593D01*
X0158500Y0192343D01*
X0153500Y0197343D01*
X0148500Y0194843D02*
X0141000Y0202343D01*
X0141000Y0218593D01*
X0146000Y0211093D02*
X0143500Y0208593D01*
X0136000Y0193593D02*
X0136000Y0249843D01*
X0127250Y0244843D02*
X0126000Y0243593D01*
X0126000Y0102343D01*
X0142250Y0086093D01*
X0124750Y0094843D02*
X0124750Y0053593D01*
X0123500Y0052343D01*
X0126000Y0048593D02*
X0124750Y0047343D01*
X0116000Y0047343D01*
X0116000Y0081093D01*
X0113500Y0086093D02*
X0113500Y0042343D01*
X0138500Y0017343D01*
X0226000Y0017343D01*
X0226000Y0021093D01*
X0226000Y0031093D01*
X0233500Y0026093D02*
X0272250Y0064843D01*
X0272250Y0142343D01*
X0274750Y0146093D02*
X0269750Y0151093D01*
X0269750Y0163593D01*
X0276000Y0156093D02*
X0278500Y0153593D01*
X0278500Y0089843D01*
X0284750Y0083593D01*
X0284750Y0054843D01*
X0278500Y0048593D01*
X0278500Y0013593D01*
X0606000Y0013593D01*
X0687250Y0094843D01*
X0687250Y0279843D01*
X0686000Y0281093D01*
X0677250Y0274843D02*
X0677250Y0092343D01*
X0599750Y0014843D01*
X0382250Y0014843D01*
X0382250Y0129843D01*
X0379750Y0132343D01*
X0379750Y0149843D01*
X0358500Y0142343D02*
X0357250Y0143593D01*
X0357250Y0202343D01*
X0361000Y0206093D01*
X0371000Y0204843D02*
X0371000Y0196093D01*
X0359750Y0188593D02*
X0368500Y0179843D01*
X0377250Y0179843D02*
X0377250Y0246093D01*
X0376000Y0247343D01*
X0381000Y0248593D02*
X0381000Y0278593D01*
X0384750Y0284843D02*
X0391000Y0278593D01*
X0391000Y0248593D01*
X0401000Y0248593D02*
X0401000Y0278593D01*
X0407250Y0282343D02*
X0411000Y0278593D01*
X0411000Y0248593D01*
X0406000Y0247343D02*
X0406000Y0301093D01*
X0397250Y0309843D01*
X0397250Y0352343D01*
X0398500Y0353593D01*
X0399611Y0354664D01*
X0396000Y0347343D02*
X0389750Y0353593D01*
X0389611Y0354664D01*
X0396000Y0347343D02*
X0396000Y0236093D01*
X0392250Y0232343D01*
X0392250Y0217343D01*
X0396000Y0213593D01*
X0396400Y0212793D01*
X0397250Y0212343D01*
X0397250Y0173593D01*
X0399750Y0171093D01*
X0399750Y0063593D01*
X0403500Y0061093D02*
X0428500Y0086093D01*
X0428500Y0127343D01*
X0436000Y0134843D01*
X0436000Y0148593D01*
X0441000Y0153593D02*
X0433500Y0161093D01*
X0442250Y0159843D02*
X0442250Y0136093D01*
X0441000Y0133593D02*
X0441000Y0153593D01*
X0442250Y0159843D02*
X0443500Y0161093D01*
X0433500Y0181093D02*
X0422250Y0169843D01*
X0422250Y0173593D02*
X0422250Y0187343D01*
X0422250Y0193593D01*
X0433500Y0204843D01*
X0436000Y0203593D02*
X0436000Y0207343D01*
X0432250Y0211093D01*
X0432250Y0224843D01*
X0438500Y0231093D01*
X0438500Y0303593D01*
X0439750Y0304843D01*
X0437250Y0308593D02*
X0436000Y0309843D01*
X0436000Y0316093D01*
X0437250Y0308593D02*
X0437250Y0243593D01*
X0433500Y0239843D01*
X0431000Y0246093D02*
X0431000Y0229843D01*
X0432250Y0228593D01*
X0426000Y0223593D02*
X0426400Y0222793D01*
X0426000Y0223593D02*
X0424750Y0224843D01*
X0424750Y0287343D01*
X0423500Y0289843D02*
X0427250Y0289843D01*
X0427250Y0283593D01*
X0426000Y0282343D01*
X0426000Y0251093D01*
X0431000Y0246093D01*
X0431000Y0256093D02*
X0436000Y0261093D01*
X0436000Y0287343D01*
X0414750Y0308593D01*
X0407250Y0311093D02*
X0407250Y0282343D01*
X0416000Y0286093D02*
X0416000Y0232343D01*
X0407250Y0223593D01*
X0406400Y0222793D01*
X0407250Y0222343D01*
X0407250Y0218593D01*
X0411000Y0214843D01*
X0411000Y0207343D01*
X0409750Y0206093D01*
X0414750Y0211093D02*
X0414750Y0107343D01*
X0419750Y0102343D01*
X0418500Y0099843D02*
X0426000Y0099843D01*
X0418500Y0099843D02*
X0412250Y0106093D01*
X0412250Y0217343D01*
X0411000Y0218593D01*
X0416400Y0222793D02*
X0417250Y0223593D01*
X0417250Y0288593D01*
X0422250Y0288593D02*
X0423500Y0289843D01*
X0422250Y0288593D02*
X0422250Y0269843D01*
X0422250Y0262343D02*
X0422250Y0206093D01*
X0423500Y0203593D02*
X0426000Y0201093D01*
X0423500Y0203593D02*
X0419750Y0199843D01*
X0419750Y0159843D01*
X0418500Y0158593D01*
X0406000Y0148593D02*
X0406000Y0212343D01*
X0406400Y0212793D01*
X0406000Y0213593D01*
X0402250Y0217343D01*
X0402250Y0243593D01*
X0406000Y0247343D01*
X0391000Y0234843D02*
X0391000Y0173593D01*
X0397250Y0167343D01*
X0401000Y0173593D02*
X0401000Y0152343D01*
X0403500Y0149843D01*
X0406000Y0148593D02*
X0401000Y0143593D01*
X0401000Y0107343D01*
X0402250Y0107343D01*
X0401000Y0107343D02*
X0401000Y0069843D01*
X0402250Y0068593D01*
X0377250Y0072343D02*
X0357250Y0052343D01*
X0352250Y0049843D02*
X0339750Y0062343D01*
X0339750Y0072343D01*
X0332250Y0079843D01*
X0301000Y0079843D01*
X0301000Y0101093D01*
X0288500Y0113593D01*
X0288500Y0176093D01*
X0271000Y0193593D01*
X0271000Y0298593D01*
X0276000Y0301093D02*
X0276000Y0336093D01*
X0272250Y0338593D02*
X0262250Y0338593D01*
X0268500Y0336093D02*
X0268500Y0183593D01*
X0264750Y0179843D02*
X0264750Y0243593D01*
X0281000Y0248593D02*
X0281000Y0278593D01*
X0291000Y0278593D02*
X0291000Y0248593D01*
X0301000Y0248593D02*
X0301000Y0263593D01*
X0301000Y0278593D01*
X0306000Y0279843D02*
X0306000Y0239843D01*
X0316000Y0234843D02*
X0287250Y0206093D01*
X0287250Y0186093D01*
X0307250Y0194843D02*
X0307250Y0101093D01*
X0322250Y0086093D01*
X0322250Y0093593D02*
X0333500Y0082343D01*
X0329750Y0082343D02*
X0313500Y0098593D01*
X0313500Y0221093D01*
X0311000Y0226093D02*
X0311000Y0141093D01*
X0309750Y0139843D01*
X0276000Y0148593D02*
X0276000Y0036093D01*
X0269750Y0029843D01*
X0274750Y0029843D02*
X0263500Y0018593D01*
X0229750Y0018593D01*
X0229750Y0058593D01*
X0216000Y0072343D01*
X0208500Y0071717D02*
X0208500Y0058593D01*
X0217250Y0049843D01*
X0214750Y0056093D02*
X0214750Y0083593D01*
X0208500Y0089843D01*
X0208500Y0090468D01*
X0208500Y0081093D02*
X0204750Y0077343D01*
X0204750Y0076093D01*
X0187250Y0058593D01*
X0171000Y0058593D01*
X0171000Y0051093D01*
X0170750Y0051093D01*
X0183250Y0051093D02*
X0183500Y0051093D01*
X0183500Y0043593D01*
X0206000Y0021093D01*
X0262250Y0013593D02*
X0064750Y0013593D01*
X0064750Y0287343D01*
X0041000Y0311093D01*
X0040781Y0311093D01*
X0060781Y0311093D02*
X0061000Y0311093D01*
X0061000Y0316093D01*
X0072250Y0316093D01*
X0074750Y0313593D01*
X0074750Y0308593D01*
X0072250Y0306093D01*
X0072250Y0144843D01*
X0087250Y0129843D01*
X0087250Y0049843D01*
X0119750Y0017343D01*
X0107250Y0039843D02*
X0111000Y0043593D01*
X0111000Y0067343D01*
X0107250Y0067343D02*
X0107250Y0043593D01*
X0103500Y0039843D01*
X0092250Y0052343D02*
X0096000Y0056093D01*
X0096000Y0087343D01*
X0093500Y0089843D01*
X0104750Y0094843D02*
X0113500Y0086093D01*
X0124750Y0094843D02*
X0124750Y0259843D01*
X0121000Y0263593D01*
X0122250Y0272343D02*
X0122250Y0273593D01*
X0146000Y0297343D01*
X0151000Y0288593D02*
X0156000Y0283593D01*
X0156000Y0253593D01*
X0163500Y0261093D02*
X0163500Y0222343D01*
X0161000Y0218593D02*
X0161000Y0192343D01*
X0181000Y0178593D02*
X0181000Y0263593D01*
X0180843Y0263593D01*
X0184750Y0263593D02*
X0184750Y0267343D01*
X0179750Y0272343D01*
X0171000Y0263593D01*
X0170843Y0263593D01*
X0166000Y0261093D02*
X0178500Y0248593D01*
X0178500Y0161093D01*
X0182250Y0158593D02*
X0184750Y0161093D01*
X0184750Y0254843D01*
X0187250Y0261093D02*
X0184750Y0263593D01*
X0187250Y0261093D02*
X0187250Y0224843D01*
X0201000Y0218593D02*
X0201000Y0247343D01*
X0191000Y0263593D02*
X0190843Y0263593D01*
X0191000Y0263593D02*
X0191000Y0284843D01*
X0169750Y0306093D01*
X0162250Y0306093D02*
X0188500Y0279843D01*
X0188500Y0273593D01*
X0166000Y0268593D02*
X0166000Y0261093D01*
X0163500Y0261093D02*
X0161000Y0263593D01*
X0160843Y0263593D01*
X0166000Y0268593D02*
X0162250Y0272343D01*
X0167250Y0256093D02*
X0167250Y0251093D01*
X0168500Y0249843D01*
X0122250Y0228593D02*
X0122250Y0223593D01*
X0121000Y0222343D01*
X0118500Y0217343D02*
X0118500Y0289843D01*
X0109750Y0311093D02*
X0109187Y0311093D01*
X0088500Y0314843D02*
X0088500Y0223593D01*
X0083500Y0218593D01*
X0079750Y0229843D02*
X0087250Y0237343D01*
X0087250Y0312343D01*
X0086000Y0313593D01*
X0086000Y0361093D01*
X0083500Y0363593D02*
X0084750Y0364843D01*
X0086000Y0364843D01*
X0086000Y0403593D01*
X0079750Y0403593D01*
X0076000Y0399843D01*
X0076000Y0381093D01*
X0041000Y0381093D01*
X0061000Y0354843D02*
X0081000Y0374843D01*
X0081000Y0398593D01*
X0077250Y0406093D02*
X0071000Y0399843D01*
X0071000Y0398593D01*
X0086000Y0364843D02*
X0116000Y0364843D01*
X0130722Y0354664D02*
X0131000Y0353593D01*
X0131000Y0348593D01*
X0163500Y0316093D01*
X0197594Y0311093D02*
X0198500Y0311093D01*
X0198500Y0308593D01*
X0204750Y0302343D01*
X0208500Y0303593D02*
X0208500Y0311093D01*
X0207594Y0311093D01*
X0208500Y0303593D02*
X0223500Y0288593D01*
X0247594Y0311093D02*
X0248500Y0311093D01*
X0251000Y0308593D01*
X0251000Y0201093D01*
X0253500Y0198593D01*
X0252250Y0196093D02*
X0256000Y0196093D01*
X0256000Y0263593D01*
X0257250Y0264843D01*
X0257250Y0311093D01*
X0257594Y0311093D01*
X0257250Y0311093D02*
X0214750Y0353593D01*
X0178500Y0346093D02*
X0171000Y0353593D01*
X0170444Y0354664D01*
X0161000Y0353593D02*
X0161000Y0351093D01*
X0166000Y0346093D01*
X0161000Y0353593D02*
X0160444Y0354664D01*
X0118500Y0336093D02*
X0116000Y0333593D01*
X0109750Y0344843D02*
X0101000Y0353593D01*
X0100722Y0354664D01*
X0091000Y0353593D02*
X0090722Y0354664D01*
X0091000Y0353593D02*
X0091000Y0343593D01*
X0083500Y0352343D02*
X0083500Y0363593D01*
X0094750Y0361093D02*
X0094750Y0197343D01*
X0083500Y0198593D02*
X0079750Y0202343D01*
X0079750Y0229843D01*
X0074750Y0231093D02*
X0074750Y0174843D01*
X0074750Y0152343D01*
X0088500Y0138593D01*
X0088500Y0067343D01*
X0093500Y0062343D01*
X0084750Y0067343D02*
X0084750Y0028593D01*
X0082250Y0026093D01*
X0086000Y0018593D02*
X0071000Y0033593D01*
X0071000Y0311093D01*
X0070781Y0311093D01*
X0066000Y0313593D02*
X0066000Y0193593D01*
X0068500Y0191093D01*
X0091000Y0188593D02*
X0096000Y0183593D01*
X0096000Y0158593D01*
X0096000Y0133593D01*
X0103500Y0112343D02*
X0112250Y0103593D01*
X0103500Y0112343D02*
X0103500Y0234843D01*
X0106000Y0237343D01*
X0106000Y0233593D02*
X0106000Y0176093D01*
X0122250Y0159843D01*
X0087250Y0157343D02*
X0084750Y0154843D01*
X0077250Y0154843D01*
X0077250Y0302343D01*
X0076000Y0303593D01*
X0076000Y0316093D01*
X0079750Y0316093D02*
X0079750Y0311093D01*
X0080781Y0311093D01*
X0081000Y0311093D01*
X0081000Y0303593D01*
X0079750Y0302343D01*
X0079750Y0242343D01*
X0083500Y0238593D01*
X0091000Y0231093D02*
X0091000Y0188593D01*
X0083500Y0168593D02*
X0087250Y0164843D01*
X0087250Y0157343D01*
X0083500Y0158593D02*
X0078500Y0163593D01*
X0078500Y0304843D01*
X0079750Y0316093D02*
X0064750Y0331093D01*
X0064750Y0349843D01*
X0061000Y0353593D01*
X0061000Y0354664D01*
X0061000Y0354843D01*
X0067250Y0336093D02*
X0083500Y0352343D01*
X0254750Y0369843D02*
X0254750Y0383593D01*
X0254750Y0369843D02*
X0269750Y0354843D01*
X0270167Y0354664D01*
X0279750Y0349843D02*
X0287250Y0357343D01*
X0287250Y0401093D01*
X0299750Y0413593D01*
X0597250Y0413593D01*
X0597250Y0372343D01*
X0613500Y0356093D01*
X0613500Y0299843D01*
X0597425Y0311093D02*
X0597250Y0311093D01*
X0594750Y0313593D01*
X0594750Y0354843D01*
X0588500Y0361093D01*
X0589750Y0363593D02*
X0568500Y0363593D01*
X0568500Y0356093D01*
X0568500Y0348593D02*
X0568500Y0304843D01*
X0591000Y0282343D01*
X0591000Y0257343D01*
X0584750Y0251093D01*
X0584750Y0211093D01*
X0594750Y0201093D01*
X0587250Y0201093D02*
X0583500Y0197343D01*
X0583500Y0132343D01*
X0582250Y0131093D01*
X0582250Y0051093D01*
X0579750Y0048593D01*
X0583500Y0048593D02*
X0583500Y0129843D01*
X0584750Y0131093D01*
X0584750Y0193593D01*
X0587250Y0196093D01*
X0576000Y0186093D02*
X0574750Y0184843D01*
X0574750Y0086093D01*
X0586000Y0088593D02*
X0606000Y0108593D01*
X0606000Y0193593D01*
X0619750Y0207343D01*
X0619750Y0209843D01*
X0609750Y0204843D02*
X0607250Y0207343D01*
X0607250Y0246093D01*
X0603500Y0249843D01*
X0603500Y0361093D01*
X0567250Y0397343D01*
X0559750Y0389843D02*
X0552250Y0397343D01*
X0552250Y0398593D01*
X0551849Y0398593D01*
X0542250Y0398593D02*
X0542250Y0391093D01*
X0543500Y0389843D01*
X0547250Y0387343D02*
X0547250Y0408593D01*
X0484750Y0408593D01*
X0476000Y0399843D01*
X0475041Y0398593D01*
X0471000Y0396093D02*
X0471000Y0403593D01*
X0427250Y0403593D01*
X0423500Y0399843D01*
X0418500Y0399843D01*
X0418233Y0398593D01*
X0417250Y0398593D01*
X0417250Y0393593D01*
X0396000Y0393593D01*
X0393500Y0396093D01*
X0393500Y0399843D02*
X0403500Y0409843D01*
X0566000Y0409843D01*
X0566000Y0338593D01*
X0567250Y0337343D01*
X0567250Y0288593D01*
X0581000Y0274843D01*
X0581000Y0246093D01*
X0582250Y0244843D01*
X0582250Y0169843D01*
X0577250Y0164843D01*
X0581000Y0162343D02*
X0582250Y0161093D01*
X0582250Y0133593D01*
X0581000Y0132343D01*
X0581000Y0058593D01*
X0571000Y0048593D01*
X0564750Y0046093D02*
X0579750Y0061093D01*
X0579750Y0133593D01*
X0581000Y0134843D01*
X0581000Y0156093D01*
X0579750Y0157343D01*
X0592250Y0171093D02*
X0592250Y0178593D01*
X0603500Y0189843D01*
X0603500Y0198593D01*
X0606000Y0201093D01*
X0606000Y0204843D02*
X0609750Y0201093D01*
X0604750Y0196093D01*
X0604750Y0186093D01*
X0594750Y0176093D01*
X0589750Y0179843D02*
X0593500Y0183593D01*
X0609750Y0172343D02*
X0617250Y0164843D01*
X0617250Y0158593D01*
X0622250Y0156093D02*
X0632250Y0146093D01*
X0634750Y0158593D02*
X0632250Y0161093D01*
X0632250Y0256093D01*
X0634750Y0258593D01*
X0634750Y0363593D01*
X0633500Y0361093D02*
X0606000Y0388593D01*
X0606000Y0407343D01*
X0628657Y0398593D02*
X0629750Y0398593D01*
X0629750Y0393593D01*
X0633500Y0389843D01*
X0638657Y0398593D02*
X0639750Y0398593D01*
X0648500Y0389843D01*
X0648657Y0398593D02*
X0649750Y0399843D01*
X0654750Y0404843D01*
X0693500Y0404843D01*
X0693500Y0123593D01*
X0689750Y0119843D01*
X0668500Y0097343D02*
X0668500Y0303593D01*
X0676000Y0311093D01*
X0677250Y0316093D02*
X0666000Y0316093D01*
X0666000Y0311093D01*
X0661000Y0309843D02*
X0661000Y0318593D01*
X0661000Y0309843D02*
X0667250Y0303593D01*
X0667250Y0171093D01*
X0664750Y0168593D01*
X0664750Y0172343D02*
X0659750Y0177343D01*
X0659750Y0232343D01*
X0657250Y0231093D02*
X0657250Y0246093D01*
X0658500Y0247343D01*
X0651000Y0251093D02*
X0651000Y0227343D01*
X0657250Y0221093D01*
X0657250Y0168593D01*
X0664750Y0161093D01*
X0664750Y0164843D02*
X0658500Y0171093D01*
X0658500Y0229843D01*
X0657250Y0231093D01*
X0653500Y0228593D02*
X0653500Y0266093D01*
X0651000Y0268593D01*
X0651000Y0291093D01*
X0651000Y0312343D01*
X0643500Y0319843D01*
X0643500Y0326093D01*
X0638500Y0321093D01*
X0638500Y0318593D01*
X0639750Y0317343D01*
X0639750Y0301093D01*
X0637250Y0298593D01*
X0637250Y0284843D01*
X0639750Y0282343D01*
X0639750Y0099843D01*
X0648500Y0096093D02*
X0652250Y0099843D01*
X0652250Y0143593D01*
X0664750Y0157343D02*
X0656000Y0166093D01*
X0656000Y0219843D01*
X0648500Y0227343D01*
X0648500Y0254843D01*
X0644750Y0257343D02*
X0644750Y0191093D01*
X0652250Y0183593D01*
X0654750Y0178593D02*
X0654750Y0209843D01*
X0647250Y0217343D01*
X0662250Y0217343D02*
X0662250Y0184843D01*
X0664750Y0182343D01*
X0672250Y0181093D02*
X0674750Y0178593D01*
X0672250Y0181093D02*
X0672250Y0229843D01*
X0664750Y0234843D02*
X0663500Y0236093D01*
X0663500Y0266093D01*
X0677250Y0274843D02*
X0672250Y0279843D01*
X0683500Y0266093D02*
X0683500Y0308593D01*
X0686000Y0311093D01*
X0686000Y0352343D01*
X0687250Y0353593D01*
X0688500Y0354664D01*
X0688500Y0354843D01*
X0688500Y0398593D01*
X0688657Y0398593D01*
X0643500Y0377343D02*
X0643500Y0346093D01*
X0643500Y0326093D01*
X0641000Y0319843D02*
X0641000Y0309843D01*
X0642250Y0308593D01*
X0642250Y0183593D01*
X0652250Y0173593D01*
X0653500Y0177343D02*
X0654750Y0178593D01*
X0627250Y0182343D02*
X0626000Y0181093D01*
X0619750Y0178593D02*
X0619750Y0083593D01*
X0609750Y0073593D01*
X0607250Y0068593D02*
X0582250Y0043593D01*
X0584750Y0028593D02*
X0626000Y0069843D01*
X0642250Y0069843D01*
X0642250Y0071093D01*
X0668500Y0097343D01*
X0669750Y0094843D02*
X0669750Y0298593D01*
X0681000Y0309843D01*
X0681000Y0312343D01*
X0677250Y0316093D01*
X0646000Y0311093D02*
X0646000Y0303593D01*
X0644750Y0302343D01*
X0637250Y0302343D02*
X0637250Y0336093D01*
X0659750Y0346093D02*
X0667250Y0353593D01*
X0668500Y0354664D01*
X0633500Y0361093D02*
X0633500Y0259843D01*
X0628500Y0261093D02*
X0628500Y0271093D01*
X0623500Y0274843D02*
X0623500Y0163593D01*
X0624750Y0162343D01*
X0603500Y0159843D02*
X0592250Y0171093D01*
X0619750Y0178593D02*
X0619750Y0191093D01*
X0634750Y0201093D02*
X0634750Y0234843D01*
X0653500Y0228593D02*
X0654750Y0227343D01*
X0606000Y0244843D02*
X0606000Y0204843D01*
X0581000Y0219843D02*
X0581000Y0243593D01*
X0573500Y0251093D01*
X0576000Y0258593D02*
X0576000Y0273593D01*
X0586000Y0273593D02*
X0586000Y0258593D01*
X0596000Y0258593D02*
X0596000Y0273593D01*
X0608500Y0271093D02*
X0608500Y0261093D01*
X0608500Y0251093D01*
X0607250Y0249843D01*
X0602250Y0248593D02*
X0606000Y0244843D01*
X0602250Y0248593D02*
X0602250Y0351093D01*
X0599750Y0353593D01*
X0598778Y0354664D01*
X0598500Y0354843D01*
X0589750Y0363593D01*
X0564750Y0336093D02*
X0563500Y0334843D01*
X0563500Y0307343D01*
X0563500Y0302343D01*
X0574750Y0302343D02*
X0577250Y0304843D01*
X0577250Y0311093D01*
X0577425Y0311093D01*
X0587250Y0311093D02*
X0587425Y0311093D01*
X0587250Y0311093D02*
X0587250Y0302343D01*
X0584750Y0299843D01*
X0548849Y0311093D02*
X0548500Y0311093D01*
X0548500Y0353593D01*
X0549056Y0354664D01*
X0514750Y0398593D02*
X0499750Y0383593D01*
X0486000Y0398593D02*
X0485041Y0398593D01*
X0486000Y0398593D02*
X0486000Y0308593D01*
X0481000Y0303593D01*
X0481000Y0221093D01*
X0479750Y0219843D01*
X0479750Y0216093D01*
X0477250Y0213593D01*
X0476400Y0212793D01*
X0478500Y0208593D02*
X0482250Y0212343D01*
X0482250Y0218593D01*
X0472250Y0218593D02*
X0472250Y0256093D01*
X0471000Y0257343D01*
X0471000Y0296093D01*
X0484750Y0309843D01*
X0470274Y0311093D02*
X0469750Y0311093D01*
X0469750Y0288593D01*
X0468500Y0287343D01*
X0453500Y0302343D02*
X0454750Y0303593D01*
X0454750Y0333593D01*
X0454750Y0382343D01*
X0461000Y0388593D01*
X0454750Y0389843D02*
X0454750Y0398593D01*
X0455041Y0398593D01*
X0465041Y0398593D02*
X0466000Y0398593D01*
X0466000Y0393593D01*
X0469750Y0389843D01*
X0514750Y0398593D02*
X0515041Y0398593D01*
X0541849Y0398593D02*
X0542250Y0398593D01*
X0464750Y0358593D02*
X0464750Y0309843D01*
X0466000Y0312343D02*
X0466000Y0273593D01*
X0466000Y0258593D01*
X0456000Y0258593D02*
X0456000Y0273593D01*
X0446000Y0273593D02*
X0446000Y0258593D01*
X0446000Y0273593D02*
X0444750Y0274843D01*
X0444750Y0356093D01*
X0452250Y0363593D01*
X0449333Y0354664D02*
X0449750Y0353593D01*
X0449750Y0347343D01*
X0452250Y0344843D01*
X0439750Y0344843D02*
X0439750Y0353593D01*
X0439333Y0354664D01*
X0429750Y0336093D02*
X0429750Y0302343D01*
X0407250Y0311093D02*
X0399750Y0318593D01*
X0386000Y0312343D02*
X0386000Y0303593D01*
X0384750Y0302343D01*
X0384750Y0284843D01*
X0361000Y0278593D02*
X0361000Y0248593D01*
X0351000Y0248593D02*
X0351000Y0278593D01*
X0361000Y0278593D02*
X0361000Y0317343D01*
X0361000Y0321093D02*
X0367250Y0314843D01*
X0376000Y0317343D02*
X0354750Y0338593D01*
X0354750Y0381093D01*
X0354750Y0388593D02*
X0367250Y0376093D01*
X0367250Y0377343D01*
X0376000Y0386093D01*
X0371000Y0389843D02*
X0368500Y0392343D01*
X0368500Y0398593D01*
X0368233Y0398593D01*
X0378233Y0398593D02*
X0378500Y0398593D01*
X0378500Y0393593D01*
X0382250Y0389843D01*
X0388233Y0398593D02*
X0388500Y0399843D01*
X0393500Y0399843D01*
X0367250Y0376093D02*
X0374750Y0368593D01*
X0374750Y0348593D01*
X0387250Y0336093D01*
X0387250Y0301093D01*
X0386000Y0312343D02*
X0364750Y0333593D01*
X0364750Y0357343D01*
X0357250Y0364843D01*
X0369611Y0354664D02*
X0369750Y0353593D01*
X0369750Y0346093D01*
X0371000Y0344843D01*
X0379750Y0353593D02*
X0379611Y0354664D01*
X0379750Y0353593D02*
X0388500Y0344843D01*
X0344750Y0311093D02*
X0341000Y0314843D01*
X0344750Y0311093D02*
X0346000Y0311093D01*
X0326000Y0311093D02*
X0326000Y0311093D01*
X0326000Y0348593D01*
X0322250Y0347343D02*
X0316000Y0341093D01*
X0316000Y0311093D01*
X0316000Y0311093D01*
X0306000Y0311093D02*
X0306000Y0311093D01*
X0326000Y0291093D01*
X0326000Y0247343D01*
X0323500Y0244843D01*
X0323500Y0096093D01*
X0342250Y0077343D01*
X0337250Y0071093D02*
X0337250Y0041093D01*
X0333500Y0037343D01*
X0331000Y0019843D02*
X0351000Y0039843D01*
X0351000Y0043593D02*
X0324750Y0017343D01*
X0316000Y0018593D02*
X0316000Y0053593D01*
X0323500Y0061093D01*
X0304750Y0061093D02*
X0304750Y0051093D01*
X0289750Y0036093D01*
X0277250Y0028593D02*
X0262250Y0013593D01*
X0263500Y0028593D02*
X0274750Y0039843D01*
X0274750Y0146093D01*
X0244750Y0154843D02*
X0244750Y0093593D01*
X0269750Y0068593D01*
X0267250Y0074843D02*
X0267250Y0078593D01*
X0268500Y0079843D01*
X0267250Y0081093D01*
X0267250Y0177343D01*
X0264750Y0179843D01*
X0284500Y0168593D02*
X0284750Y0168593D01*
X0284750Y0089843D01*
X0303500Y0071093D01*
X0302250Y0076093D02*
X0298500Y0079843D01*
X0298500Y0099843D01*
X0308500Y0096093D02*
X0308500Y0088593D01*
X0311000Y0086093D01*
X0344750Y0061093D02*
X0344750Y0152343D01*
X0332250Y0164843D01*
X0332250Y0203593D01*
X0329750Y0196093D02*
X0329750Y0247343D01*
X0331000Y0248593D01*
X0331000Y0278593D01*
X0336000Y0279843D02*
X0331000Y0284843D01*
X0331000Y0347343D01*
X0324750Y0353593D01*
X0324750Y0363593D01*
X0296000Y0392343D01*
X0296000Y0406093D01*
X0298500Y0408593D01*
X0302250Y0399843D02*
X0311000Y0408593D01*
X0302250Y0399843D02*
X0301425Y0398593D01*
X0292250Y0398593D02*
X0291425Y0398593D01*
X0292250Y0398593D02*
X0292250Y0392343D01*
X0298500Y0386093D01*
X0283500Y0389843D02*
X0282250Y0391093D01*
X0282250Y0398593D01*
X0281425Y0398593D01*
X0289750Y0362343D02*
X0291000Y0361093D01*
X0291000Y0294843D01*
X0306000Y0279843D01*
X0311000Y0278593D02*
X0311000Y0248593D01*
X0321000Y0248593D02*
X0321000Y0278593D01*
X0316000Y0282343D02*
X0317250Y0283593D01*
X0316000Y0282343D02*
X0316000Y0234843D01*
X0341000Y0248593D02*
X0341000Y0278593D01*
X0336000Y0279843D02*
X0336000Y0179843D01*
X0348500Y0167343D01*
X0348500Y0131093D01*
X0353500Y0122343D02*
X0353500Y0149843D01*
X0382250Y0132343D02*
X0382250Y0174843D01*
X0377250Y0179843D01*
X0381000Y0179843D02*
X0383500Y0182343D01*
X0383500Y0196093D01*
X0414750Y0211093D02*
X0416000Y0212343D01*
X0416400Y0212793D01*
X0426000Y0212343D02*
X0426000Y0206093D01*
X0423500Y0203593D01*
X0426000Y0212343D02*
X0426400Y0212793D01*
X0436400Y0212793D02*
X0437250Y0213593D01*
X0441000Y0217343D01*
X0441000Y0231093D01*
X0447250Y0232343D02*
X0447250Y0223593D01*
X0446400Y0222793D01*
X0452250Y0218593D02*
X0452250Y0228593D01*
X0459750Y0236093D01*
X0458500Y0243593D02*
X0447250Y0232343D01*
X0452250Y0218593D02*
X0447250Y0213593D01*
X0446400Y0212793D01*
X0456000Y0212343D02*
X0446000Y0202343D01*
X0446000Y0179843D01*
X0433500Y0181093D02*
X0433500Y0201093D01*
X0436000Y0203593D01*
X0456000Y0212343D02*
X0456400Y0212793D01*
X0471000Y0209843D02*
X0471000Y0206093D01*
X0469750Y0204843D01*
X0469750Y0176093D01*
X0471000Y0176093D01*
X0469750Y0176093D02*
X0469750Y0158593D01*
X0469750Y0138593D01*
X0473500Y0134843D01*
X0489750Y0141093D02*
X0489750Y0167343D01*
X0488500Y0168593D01*
X0484750Y0171093D02*
X0484750Y0186093D01*
X0476000Y0182343D02*
X0476000Y0204843D01*
X0478500Y0208593D02*
X0478500Y0071093D01*
X0481000Y0076093D02*
X0481000Y0198593D01*
X0488500Y0206093D01*
X0508500Y0188593D02*
X0508500Y0152343D01*
X0496000Y0161093D02*
X0492250Y0157343D01*
X0476000Y0158593D02*
X0476000Y0182343D01*
X0516000Y0212343D02*
X0516400Y0212793D01*
X0516000Y0212343D02*
X0516000Y0058593D01*
X0539750Y0034843D01*
X0539750Y0022343D01*
X0541000Y0021093D01*
X0571000Y0021093D01*
X0571000Y0028593D01*
X0621000Y0078593D01*
X0621000Y0082343D01*
X0628500Y0089843D01*
X0633500Y0088593D02*
X0633500Y0081093D01*
X0628500Y0076093D01*
X0628500Y0072343D01*
X0634750Y0059843D02*
X0669750Y0094843D01*
X0656000Y0088593D02*
X0633500Y0088593D01*
X0607250Y0068593D02*
X0607250Y0119843D01*
X0608500Y0121093D01*
X0587250Y0106093D02*
X0587250Y0099843D01*
X0588500Y0098593D01*
X0567250Y0136093D02*
X0566000Y0136093D01*
X0578500Y0138593D02*
X0578500Y0063593D01*
X0584750Y0028593D02*
X0584750Y0017343D01*
X0388500Y0017343D01*
X0383500Y0022343D01*
X0383500Y0112343D01*
X0384750Y0113593D01*
X0396000Y0118593D02*
X0382250Y0132343D01*
X0441000Y0133593D02*
X0447250Y0127343D01*
X0454750Y0138593D02*
X0456000Y0139843D01*
X0486000Y0121093D02*
X0492250Y0127343D01*
X0524750Y0119843D02*
X0527250Y0122343D01*
X0641000Y0113593D02*
X0642250Y0112343D01*
X0641000Y0113593D02*
X0641000Y0284843D01*
X0639750Y0286093D01*
X0644750Y0286093D02*
X0644750Y0272343D01*
X0569750Y0234843D02*
X0566000Y0238593D01*
X0566000Y0258593D01*
X0566000Y0273593D01*
X0556000Y0273593D02*
X0556000Y0258593D01*
X0556000Y0237343D01*
X0558500Y0234843D01*
X0558500Y0231093D02*
X0546000Y0243593D01*
X0546000Y0258593D01*
X0546000Y0273593D01*
X0551000Y0268593D02*
X0548500Y0266093D01*
X0551000Y0268593D02*
X0551000Y0279843D01*
X0548500Y0282343D01*
X0536000Y0273593D02*
X0536000Y0258593D01*
X0531000Y0257343D02*
X0531000Y0281093D01*
X0499750Y0312343D01*
X0518849Y0311093D02*
X0519750Y0311093D01*
X0519750Y0303593D01*
X0521000Y0302343D01*
X0473500Y0319843D02*
X0466000Y0312343D01*
X0454750Y0333593D02*
X0452250Y0336093D01*
X0476000Y0273593D02*
X0476000Y0258593D01*
X0506000Y0258593D02*
X0506000Y0273593D01*
X0516000Y0273593D02*
X0516000Y0258593D01*
X0521000Y0257343D02*
X0521000Y0268593D01*
X0526000Y0273593D02*
X0526000Y0258593D01*
X0521000Y0257343D02*
X0532250Y0246093D01*
X0532250Y0221093D01*
X0534750Y0218593D01*
X0534750Y0214843D01*
X0536000Y0213593D01*
X0536400Y0212793D01*
X0542250Y0211093D02*
X0542250Y0228593D01*
X0543500Y0229843D01*
X0543500Y0244843D01*
X0531000Y0257343D01*
X0511000Y0257343D02*
X0511000Y0262343D01*
X0511000Y0257343D02*
X0531000Y0237343D01*
X0531000Y0218593D01*
X0532250Y0217343D01*
X0542250Y0211093D02*
X0546000Y0207343D01*
X0541000Y0201093D02*
X0536000Y0196093D01*
X0541000Y0201093D02*
X0541000Y0224843D01*
X0534750Y0231093D01*
X0528500Y0228593D02*
X0509750Y0247343D01*
X0509750Y0253593D01*
X0546000Y0236093D02*
X0551000Y0231093D01*
X0562250Y0238593D02*
X0562250Y0199843D01*
X0566000Y0196093D01*
X0579750Y0218593D02*
X0581000Y0219843D01*
X0562250Y0238593D02*
X0563500Y0239843D01*
X0521000Y0214843D02*
X0517250Y0218593D01*
X0517250Y0222343D01*
X0516400Y0222793D01*
X0341000Y0248593D02*
X0341000Y0189843D01*
X0338500Y0187343D01*
X0329750Y0196093D02*
X0326000Y0192343D01*
X0252250Y0196093D02*
X0249750Y0198593D01*
X0249750Y0209843D01*
X0239750Y0181093D02*
X0239750Y0147343D01*
X0224750Y0132343D01*
X0237250Y0153593D02*
X0228500Y0162343D01*
X0228500Y0183593D01*
X0188500Y0191093D02*
X0188500Y0157343D01*
X0181000Y0149843D01*
X0163500Y0153593D02*
X0158500Y0158593D01*
X0168500Y0108593D02*
X0168500Y0208593D01*
X0174750Y0214843D01*
X0121000Y0214843D02*
X0118500Y0217343D01*
X0043500Y0232343D02*
X0043500Y0127343D01*
X0042250Y0126093D01*
X0037250Y0114843D02*
X0013500Y0138593D01*
X0013500Y0158593D02*
X0041000Y0186093D01*
X0041000Y0241093D01*
X0013500Y0228593D02*
X0009750Y0224843D01*
X0009750Y0112343D01*
X0062250Y0059843D01*
X0126000Y0066093D02*
X0126000Y0048593D01*
X0126000Y0066093D02*
X0168500Y0108593D01*
X0178500Y0101093D02*
X0202250Y0077343D01*
X0277250Y0051093D02*
X0277250Y0028593D01*
X0284750Y0018593D02*
X0316000Y0018593D01*
X0344750Y0061093D02*
X0359750Y0046093D01*
X0282250Y0056093D02*
X0277250Y0051093D01*
X0299750Y0342343D02*
X0299750Y0353593D01*
X0299889Y0354664D01*
X0639750Y0381093D02*
X0643500Y0377343D01*
D28*
X0639750Y0381093D03*
X0633500Y0389843D03*
X0648500Y0389843D03*
X0634750Y0363593D03*
X0643500Y0346093D03*
X0637250Y0336093D03*
X0659750Y0346093D03*
X0661000Y0318593D03*
X0641000Y0319843D03*
X0637250Y0302343D03*
X0644750Y0302343D03*
X0651000Y0291093D03*
X0644750Y0286093D03*
X0639750Y0286093D03*
X0623500Y0274843D03*
X0637250Y0264843D03*
X0644750Y0257343D03*
X0648500Y0254843D03*
X0651000Y0251093D03*
X0658500Y0247343D03*
X0664750Y0234843D03*
X0659750Y0232343D03*
X0654750Y0227343D03*
X0634750Y0234843D03*
X0647250Y0217343D03*
X0662250Y0217343D03*
X0672250Y0229843D03*
X0634750Y0201093D03*
X0627250Y0191093D03*
X0628500Y0187343D03*
X0626000Y0181093D03*
X0619750Y0178593D03*
X0609750Y0172343D03*
X0594750Y0176093D03*
X0589750Y0179843D03*
X0593500Y0183593D03*
X0576000Y0186093D03*
X0587250Y0196093D03*
X0587250Y0201093D03*
X0594750Y0201093D03*
X0606000Y0201093D03*
X0609750Y0201093D03*
X0609750Y0204843D03*
X0619750Y0209843D03*
X0619750Y0197343D03*
X0619750Y0191093D03*
X0652250Y0183593D03*
X0653500Y0177343D03*
X0652250Y0173593D03*
X0664750Y0172343D03*
X0664750Y0168593D03*
X0664750Y0164843D03*
X0664750Y0161093D03*
X0664750Y0157343D03*
X0652250Y0143593D03*
X0632250Y0146093D03*
X0626000Y0156093D03*
X0624750Y0162343D03*
X0617250Y0158593D03*
X0603500Y0159843D03*
X0581000Y0162343D03*
X0577250Y0164843D03*
X0579750Y0157343D03*
X0556000Y0161093D03*
X0529750Y0149843D03*
X0529750Y0141093D03*
X0513500Y0141093D03*
X0509750Y0141093D03*
X0497250Y0146093D03*
X0489750Y0141093D03*
X0473500Y0134843D03*
X0462250Y0127343D03*
X0457250Y0127343D03*
X0453500Y0127343D03*
X0447250Y0127343D03*
X0458500Y0122343D03*
X0454750Y0114843D03*
X0446000Y0119843D03*
X0431000Y0113593D03*
X0426000Y0121093D03*
X0431000Y0133593D03*
X0438500Y0138593D03*
X0444750Y0138593D03*
X0449750Y0138593D03*
X0454750Y0138593D03*
X0459750Y0141093D03*
X0436000Y0148593D03*
X0431000Y0156093D03*
X0422250Y0158593D03*
X0418500Y0158593D03*
X0422250Y0169843D03*
X0422250Y0173593D03*
X0409750Y0183593D03*
X0417250Y0187343D03*
X0422250Y0187343D03*
X0436000Y0187343D03*
X0442250Y0189843D03*
X0458500Y0184843D03*
X0449750Y0178593D03*
X0446000Y0179843D03*
X0456000Y0174843D03*
X0459750Y0171093D03*
X0471000Y0176093D03*
X0476000Y0182343D03*
X0484750Y0186093D03*
X0483500Y0189843D03*
X0487250Y0191093D03*
X0494750Y0186093D03*
X0498500Y0184843D03*
X0503500Y0182343D03*
X0512250Y0182343D03*
X0519750Y0186093D03*
X0522250Y0189843D03*
X0524750Y0186093D03*
X0529750Y0186093D03*
X0551000Y0179843D03*
X0527250Y0172343D03*
X0519750Y0174843D03*
X0513500Y0172343D03*
X0506000Y0172343D03*
X0497250Y0172343D03*
X0493500Y0179843D03*
X0487250Y0177343D03*
X0484750Y0171093D03*
X0488500Y0168593D03*
X0496000Y0161093D03*
X0492250Y0157343D03*
X0508500Y0152343D03*
X0511000Y0158593D03*
X0476000Y0158593D03*
X0469750Y0158593D03*
X0443500Y0161093D03*
X0419750Y0146093D03*
X0417250Y0149843D03*
X0409750Y0149843D03*
X0403500Y0149843D03*
X0397250Y0149843D03*
X0389750Y0143593D03*
X0379750Y0149843D03*
X0358500Y0142343D03*
X0353500Y0149843D03*
X0348500Y0131093D03*
X0309750Y0139843D03*
X0304750Y0126093D03*
X0301000Y0126093D03*
X0272250Y0142343D03*
X0276000Y0148593D03*
X0269750Y0163593D03*
X0244750Y0154843D03*
X0237250Y0153593D03*
X0216000Y0159843D03*
X0226000Y0178593D03*
X0228500Y0183593D03*
X0239750Y0181093D03*
X0253500Y0198593D03*
X0223500Y0197343D03*
X0201000Y0198593D03*
X0192250Y0191093D03*
X0188500Y0191093D03*
X0181000Y0178593D03*
X0161000Y0192343D03*
X0153500Y0197343D03*
X0148500Y0194843D03*
X0144750Y0192343D03*
X0129750Y0194843D03*
X0122250Y0188593D03*
X0132250Y0182343D03*
X0122250Y0159843D03*
X0166000Y0161093D03*
X0178500Y0161093D03*
X0182250Y0158593D03*
X0181000Y0149843D03*
X0159750Y0134843D03*
X0112250Y0103593D03*
X0104750Y0094843D03*
X0093500Y0089843D03*
X0116000Y0081093D03*
X0111000Y0067343D03*
X0107250Y0067343D03*
X0093500Y0062343D03*
X0084750Y0067343D03*
X0092250Y0052343D03*
X0103500Y0039843D03*
X0107250Y0039843D03*
X0123500Y0052343D03*
X0082250Y0026093D03*
X0086000Y0018593D03*
X0119750Y0017343D03*
X0062250Y0059843D03*
X0124750Y0094843D03*
X0142250Y0086093D03*
X0191000Y0092343D03*
X0202250Y0077343D03*
X0218500Y0073593D03*
X0214750Y0056093D03*
X0217250Y0049843D03*
X0241000Y0059843D03*
X0246000Y0058593D03*
X0257250Y0053593D03*
X0249750Y0067343D03*
X0246000Y0071093D03*
X0267250Y0074843D03*
X0268500Y0079843D03*
X0269750Y0068593D03*
X0282250Y0056093D03*
X0304750Y0061093D03*
X0303500Y0071093D03*
X0302250Y0076093D03*
X0311000Y0086093D03*
X0308500Y0096093D03*
X0298500Y0099843D03*
X0322250Y0093593D03*
X0322250Y0086093D03*
X0329750Y0082343D03*
X0333500Y0082343D03*
X0342250Y0077343D03*
X0337250Y0071093D03*
X0323500Y0061093D03*
X0352250Y0049843D03*
X0357250Y0052343D03*
X0359750Y0046093D03*
X0351000Y0043593D03*
X0351000Y0039843D03*
X0333500Y0037343D03*
X0331000Y0019843D03*
X0324750Y0017343D03*
X0289750Y0036093D03*
X0274750Y0029843D03*
X0269750Y0029843D03*
X0263500Y0028593D03*
X0284750Y0018593D03*
X0233500Y0026093D03*
X0226000Y0031093D03*
X0351000Y0102343D03*
X0374750Y0104843D03*
X0384750Y0113593D03*
X0396000Y0118593D03*
X0402250Y0107343D03*
X0419750Y0102343D03*
X0426000Y0099843D03*
X0402250Y0068593D03*
X0399750Y0063593D03*
X0403500Y0061093D03*
X0386000Y0058593D03*
X0379750Y0048593D03*
X0377250Y0072343D03*
X0471000Y0067343D03*
X0474750Y0067343D03*
X0478500Y0071093D03*
X0481000Y0076093D03*
X0512250Y0101093D03*
X0512250Y0104843D03*
X0526000Y0101093D03*
X0522250Y0093593D03*
X0522250Y0089843D03*
X0534750Y0091093D03*
X0534750Y0082343D03*
X0553500Y0083593D03*
X0574750Y0086093D03*
X0586000Y0088593D03*
X0588500Y0098593D03*
X0587250Y0106093D03*
X0608500Y0121093D03*
X0578500Y0138593D03*
X0572250Y0136093D03*
X0561000Y0141093D03*
X0524750Y0123593D03*
X0524750Y0119843D03*
X0534750Y0111093D03*
X0509750Y0117343D03*
X0513500Y0127343D03*
X0492250Y0127343D03*
X0486000Y0121093D03*
X0419750Y0138593D03*
X0397250Y0167343D03*
X0401000Y0173593D03*
X0388500Y0169843D03*
X0381000Y0179843D03*
X0386000Y0186093D03*
X0383500Y0196093D03*
X0371000Y0196093D03*
X0359750Y0188593D03*
X0368500Y0179843D03*
X0338500Y0187343D03*
X0326000Y0192343D03*
X0307250Y0194843D03*
X0287250Y0186093D03*
X0332250Y0203593D03*
X0313500Y0221093D03*
X0311000Y0226093D03*
X0306000Y0239843D03*
X0301000Y0263593D03*
X0317250Y0283593D03*
X0276000Y0301093D03*
X0271000Y0298593D03*
X0262250Y0298593D03*
X0223500Y0288593D03*
X0204750Y0302343D03*
X0197250Y0288593D03*
X0188500Y0273593D03*
X0179750Y0272343D03*
X0162250Y0272343D03*
X0146000Y0269843D03*
X0148500Y0258593D03*
X0157250Y0252343D03*
X0167250Y0256093D03*
X0168500Y0249843D03*
X0184750Y0254843D03*
X0201000Y0247343D03*
X0187250Y0224843D03*
X0174750Y0214843D03*
X0156000Y0209843D03*
X0143500Y0208593D03*
X0121000Y0214843D03*
X0121000Y0222343D03*
X0122250Y0228593D03*
X0106000Y0233593D03*
X0106000Y0237343D03*
X0091000Y0231093D03*
X0074750Y0231093D03*
X0043500Y0232343D03*
X0041000Y0241093D03*
X0094750Y0197343D03*
X0068500Y0191093D03*
X0074750Y0174843D03*
X0042250Y0126093D03*
X0037250Y0114843D03*
X0221000Y0113593D03*
X0224750Y0132343D03*
X0361000Y0206093D03*
X0371000Y0204843D03*
X0409750Y0206093D03*
X0422250Y0206093D03*
X0426000Y0206093D03*
X0433500Y0204843D03*
X0426000Y0201093D03*
X0411000Y0218593D03*
X0432250Y0228593D03*
X0441000Y0231093D03*
X0433500Y0239843D03*
X0459750Y0236093D03*
X0472250Y0218593D03*
X0482250Y0218593D03*
X0484750Y0231093D03*
X0498500Y0231093D03*
X0522250Y0217343D03*
X0532250Y0217343D03*
X0546000Y0207343D03*
X0529750Y0199843D03*
X0508500Y0188593D03*
X0491000Y0202343D03*
X0488500Y0206093D03*
X0476000Y0204843D03*
X0469750Y0204843D03*
X0471000Y0209843D03*
X0528500Y0228593D03*
X0534750Y0231093D03*
X0546000Y0236093D03*
X0552250Y0233593D03*
X0558500Y0234843D03*
X0558500Y0231093D03*
X0563500Y0239843D03*
X0569750Y0234843D03*
X0579750Y0218593D03*
X0573500Y0251093D03*
X0548500Y0266093D03*
X0548500Y0282343D03*
X0521000Y0268593D03*
X0511000Y0262343D03*
X0509750Y0253593D03*
X0501000Y0279843D03*
X0514750Y0301093D03*
X0512250Y0306093D03*
X0521000Y0302343D03*
X0492250Y0319843D03*
X0473500Y0319843D03*
X0453500Y0302343D03*
X0439750Y0304843D03*
X0429750Y0302343D03*
X0436000Y0316093D03*
X0429750Y0336093D03*
X0439750Y0344843D03*
X0452250Y0344843D03*
X0452250Y0336093D03*
X0464750Y0358593D03*
X0452250Y0363593D03*
X0461000Y0388593D03*
X0454750Y0389843D03*
X0468500Y0394843D03*
X0469750Y0389843D03*
X0504750Y0384843D03*
X0507250Y0406093D03*
X0543500Y0389843D03*
X0549750Y0381093D03*
X0559750Y0389843D03*
X0594750Y0406093D03*
X0588500Y0361093D03*
X0568500Y0356093D03*
X0568500Y0348593D03*
X0564750Y0336093D03*
X0526000Y0336093D03*
X0511000Y0346093D03*
X0513500Y0351093D03*
X0499750Y0344843D03*
X0506000Y0336093D03*
X0499750Y0356093D03*
X0563500Y0307343D03*
X0563500Y0302343D03*
X0574750Y0302343D03*
X0584750Y0299843D03*
X0613500Y0299843D03*
X0644750Y0272343D03*
X0672250Y0279843D03*
X0686000Y0281093D03*
X0607250Y0249843D03*
X0664750Y0182343D03*
X0674750Y0178593D03*
X0634750Y0158593D03*
X0689750Y0119843D03*
X0648500Y0096093D03*
X0639750Y0099843D03*
X0642250Y0112343D03*
X0628500Y0089843D03*
X0633500Y0081093D03*
X0628500Y0072343D03*
X0634750Y0059843D03*
X0609750Y0073593D03*
X0576000Y0064843D03*
X0571000Y0056093D03*
X0571000Y0048593D03*
X0564750Y0046093D03*
X0579750Y0048593D03*
X0583500Y0048593D03*
X0582250Y0043593D03*
X0548500Y0041093D03*
X0656000Y0088593D03*
X0391000Y0234843D03*
X0422250Y0262343D03*
X0422250Y0269843D03*
X0419750Y0284843D03*
X0417250Y0288593D03*
X0424750Y0287343D03*
X0449750Y0289843D03*
X0453500Y0283593D03*
X0468500Y0287343D03*
X0399750Y0318593D03*
X0376000Y0314843D03*
X0361000Y0317343D03*
X0361000Y0321093D03*
X0358500Y0304843D03*
X0378500Y0301093D03*
X0387250Y0301093D03*
X0387250Y0336093D03*
X0388500Y0344843D03*
X0371000Y0344843D03*
X0354750Y0338593D03*
X0326000Y0348593D03*
X0322250Y0347343D03*
X0299750Y0342343D03*
X0279750Y0349843D03*
X0272250Y0338593D03*
X0268500Y0336093D03*
X0276000Y0336093D03*
X0248500Y0338593D03*
X0289750Y0362343D03*
X0298500Y0386093D03*
X0283500Y0389843D03*
X0298500Y0408593D03*
X0324750Y0406093D03*
X0354750Y0388593D03*
X0354750Y0381093D03*
X0357250Y0364843D03*
X0376000Y0386093D03*
X0371000Y0389843D03*
X0382250Y0389843D03*
X0393500Y0396093D03*
X0229750Y0381093D03*
X0213500Y0386093D03*
X0198500Y0389843D03*
X0171000Y0411093D03*
X0151000Y0406093D03*
X0129750Y0411093D03*
X0122250Y0389843D03*
X0111000Y0389843D03*
X0126000Y0381093D03*
X0094750Y0361093D03*
X0086000Y0361093D03*
X0091000Y0343593D03*
X0109750Y0344843D03*
X0118500Y0336093D03*
X0088500Y0314843D03*
X0076000Y0316093D03*
X0066000Y0313593D03*
X0078500Y0304843D03*
X0097250Y0302343D03*
X0111000Y0303593D03*
X0126000Y0301093D03*
X0122250Y0288593D03*
X0118500Y0289843D03*
X0122250Y0272343D03*
X0121000Y0263593D03*
X0137250Y0252343D03*
X0127250Y0244843D03*
X0154750Y0227343D03*
X0146000Y0224843D03*
X0236000Y0244843D03*
X0236000Y0248593D03*
X0243500Y0258593D03*
X0264750Y0243593D03*
X0259750Y0227343D03*
X0151000Y0288593D03*
X0146000Y0297343D03*
X0162250Y0306093D03*
X0173500Y0306093D03*
X0178500Y0346093D03*
X0166000Y0346093D03*
X0193500Y0343593D03*
X0077250Y0406093D03*
X0041000Y0381093D03*
X0067250Y0336093D03*
M02*
