%
M48
M72
T01C0.01378
T02C0.02000
T03C0.02362
T04C0.02500
T05C0.03150
T06C0.03200
T07C0.03500
T08C0.03543
T09C0.03937
T10C0.04000
T11C0.04400
T12C0.05906
T13C0.10827
T14C0.11811
T15C0.13000
%
T01
X82250Y26093
X86000Y18593
X103500Y39843
X107250Y39843
X92250Y52343
X93500Y62343
X84750Y67343
X107250Y67343
X111000Y67343
X116000Y81093
X93500Y89843
X104750Y94843
X112250Y103593
X124750Y94843
X142250Y86093
X191000Y92343
X202250Y77343
X218500Y73593
X214750Y56093
X217250Y49843
X241000Y59843
X246000Y58593
X257250Y53593
X249750Y67343
X246000Y71093
X267250Y74843
X268500Y79843
X269750Y68593
X282250Y56093
X304750Y61093
X303500Y71093
X302250Y76093
X311000Y86093
X308500Y96093
X298500Y99843
X322250Y93593
X322250Y86093
X329750Y82343
X333500Y82343
X342250Y77343
X337250Y71093
X323500Y61093
X352250Y49843
X357250Y52343
X359750Y46093
X351000Y43593
X351000Y39843
X333500Y37343
X331000Y19843
X324750Y17343
X289750Y36093
X274750Y29843
X269750Y29843
X263500Y28593
X284750Y18593
X233500Y26093
X226000Y31093
X119750Y17343
X123500Y52343
X62250Y59843
X37250Y114843
X42250Y126093
X74750Y174843
X68500Y191093
X94750Y197343
X122250Y188593
X129750Y194843
X144750Y192343
X148500Y194843
X153500Y197343
X161000Y192343
X181000Y178593
X188500Y191093
X192250Y191093
X201000Y198593
X223500Y197343
X228500Y183593
X226000Y178593
X239750Y181093
X253500Y198593
X287250Y186093
X307250Y194843
X326000Y192343
X338500Y187343
X359750Y188593
X371000Y196093
X371000Y204843
X361000Y206093
X332250Y203593
X313500Y221093
X311000Y226093
X306000Y239843
X301000Y263593
X317250Y283593
X276000Y301093
X271000Y298593
X262250Y298593
X223500Y288593
X204750Y302343
X197250Y288593
X188500Y273593
X179750Y272343
X162250Y272343
X146000Y269843
X148500Y258593
X157250Y252343
X167250Y256093
X168500Y249843
X184750Y254843
X201000Y247343
X187250Y224843
X174750Y214843
X156000Y209843
X143500Y208593
X121000Y214843
X121000Y222343
X122250Y228593
X106000Y233593
X106000Y237343
X91000Y231093
X74750Y231093
X43500Y232343
X41000Y241093
X121000Y263593
X122250Y272343
X122250Y288593
X118500Y289843
X126000Y301093
X111000Y303593
X97250Y302343
X88500Y314843
X76000Y316093
X66000Y313593
X78500Y304843
X67250Y336093
X91000Y343593
X109750Y344843
X118500Y336093
X94750Y361093
X86000Y361093
X126000Y381093
X122250Y389843
X111000Y389843
X129750Y411093
X151000Y406093
X171000Y411093
X198500Y389843
X213500Y386093
X229750Y381093
X279750Y349843
X272250Y338593
X268500Y336093
X276000Y336093
X299750Y342343
X322250Y347343
X326000Y348593
X354750Y338593
X371000Y344843
X387250Y336093
X388500Y344843
X357250Y364843
X354750Y381093
X354750Y388593
X371000Y389843
X376000Y386093
X382250Y389843
X393500Y396093
X452250Y363593
X464750Y358593
X452250Y344843
X439750Y344843
X429750Y336093
X452250Y336093
X473500Y319843
X492250Y319843
X512250Y306093
X514750Y301093
X521000Y302343
X501000Y279843
X521000Y268593
X511000Y262343
X509750Y253593
X546000Y236093
X552250Y233593
X558500Y234843
X558500Y231093
X563500Y239843
X569750Y234843
X579750Y218593
X609750Y204843
X609750Y201093
X606000Y201093
X594750Y201093
X587250Y201093
X587250Y196093
X576000Y186093
X589750Y179843
X593500Y183593
X594750Y176093
X609750Y172343
X619750Y178593
X626000Y181093
X628500Y187343
X627250Y191093
X619750Y191093
X619750Y197343
X619750Y209843
X634750Y201093
X647250Y217343
X662250Y217343
X654750Y227343
X659750Y232343
X664750Y234843
X672250Y229843
X658500Y247343
X651000Y251093
X648500Y254843
X644750Y257343
X637250Y264843
X644750Y272343
X644750Y286093
X639750Y286093
X651000Y291093
X644750Y302343
X637250Y302343
X613500Y299843
X584750Y299843
X574750Y302343
X563500Y302343
X563500Y307343
X548500Y282343
X548500Y266093
X573500Y251093
X607250Y249843
X634750Y234843
X623500Y274843
X672250Y279843
X686000Y281093
X661000Y318593
X641000Y319843
X637250Y336093
X643500Y346093
X659750Y346093
X634750Y363593
X639750Y381093
X633500Y389843
X648500Y389843
X594750Y406093
X559750Y389843
X549750Y381093
X543500Y389843
X507250Y406093
X504750Y384843
X469750Y389843
X468500Y394843
X454750Y389843
X461000Y388593
X499750Y356093
X513500Y351093
X511000Y346093
X499750Y344843
X506000Y336093
X526000Y336093
X564750Y336093
X568500Y348593
X568500Y356093
X588500Y361093
X468500Y287343
X453500Y283593
X449750Y289843
X453500Y302343
X439750Y304843
X429750Y302343
X436000Y316093
X399750Y318593
X376000Y314843
X361000Y317343
X361000Y321093
X358500Y304843
X378500Y301093
X387250Y301093
X417250Y288593
X419750Y284843
X424750Y287343
X422250Y269843
X422250Y262343
X433500Y239843
X432250Y228593
X441000Y231093
X459750Y236093
X472250Y218593
X482250Y218593
X484750Y231093
X498500Y231093
X522250Y217343
X532250Y217343
X546000Y207343
X529750Y199843
X522250Y189843
X519750Y186093
X524750Y186093
X529750Y186093
X551000Y179843
X527250Y172343
X519750Y174843
X513500Y172343
X506000Y172343
X497250Y172343
X493500Y179843
X487250Y177343
X484750Y171093
X488500Y168593
X496000Y161093
X492250Y157343
X497250Y146093
X489750Y141093
X473500Y134843
X462250Y127343
X457250Y127343
X453500Y127343
X447250Y127343
X458500Y122343
X454750Y114843
X446000Y119843
X431000Y113593
X426000Y121093
X431000Y133593
X438500Y138593
X444750Y138593
X449750Y138593
X454750Y138593
X459750Y141093
X436000Y148593
X431000Y156093
X422250Y158593
X418500Y158593
X422250Y169843
X422250Y173593
X409750Y183593
X417250Y187343
X422250Y187343
X436000Y187343
X442250Y189843
X458500Y184843
X449750Y178593
X446000Y179843
X456000Y174843
X459750Y171093
X471000Y176093
X476000Y182343
X484750Y186093
X483500Y189843
X487250Y191093
X494750Y186093
X498500Y184843
X503500Y182343
X512250Y182343
X508500Y188593
X491000Y202343
X488500Y206093
X476000Y204843
X469750Y204843
X471000Y209843
X433500Y204843
X426000Y206093
X422250Y206093
X409750Y206093
X426000Y201093
X411000Y218593
X391000Y234843
X383500Y196093
X386000Y186093
X381000Y179843
X368500Y179843
X388500Y169843
X397250Y167343
X401000Y173593
X403500Y149843
X397250Y149843
X389750Y143593
X379750Y149843
X358500Y142343
X353500Y149843
X348500Y131093
X384750Y113593
X396000Y118593
X402250Y107343
X419750Y102343
X426000Y99843
X374750Y104843
X351000Y102343
X377250Y72343
X386000Y58593
X379750Y48593
X399750Y63593
X403500Y61093
X402250Y68593
X471000Y67343
X474750Y67343
X478500Y71093
X481000Y76093
X512250Y101093
X512250Y104843
X526000Y101093
X522250Y93593
X522250Y89843
X534750Y91093
X534750Y82343
X553500Y83593
X574750Y86093
X586000Y88593
X588500Y98593
X587250Y106093
X608500Y121093
X578500Y138593
X572250Y136093
X561000Y141093
X579750Y157343
X581000Y162343
X577250Y164843
X556000Y161093
X529750Y149843
X529750Y141093
X513500Y141093
X509750Y141093
X508500Y152343
X511000Y158593
X476000Y158593
X469750Y158593
X443500Y161093
X419750Y146093
X417250Y149843
X409750Y149843
X419750Y138593
X486000Y121093
X492250Y127343
X509750Y117343
X513500Y127343
X524750Y123593
X524750Y119843
X534750Y111093
X576000Y64843
X571000Y56093
X571000Y48593
X564750Y46093
X579750Y48593
X583500Y48593
X582250Y43593
X548500Y41093
X609750Y73593
X628500Y72343
X633500Y81093
X628500Y89843
X639750Y99843
X648500Y96093
X656000Y88593
X642250Y112343
X689750Y119843
X652250Y143593
X664750Y157343
X664750Y161093
X664750Y164843
X664750Y168593
X664750Y172343
X674750Y178593
X664750Y182343
X653500Y177343
X652250Y173593
X652250Y183593
X634750Y158593
X626000Y156093
X624750Y162343
X617250Y158593
X603500Y159843
X632250Y146093
X534750Y231093
X528500Y228593
X309750Y139843
X304750Y126093
X301000Y126093
X272250Y142343
X276000Y148593
X269750Y163593
X244750Y154843
X237250Y153593
X216000Y159843
X182250Y158593
X178500Y161093
X166000Y161093
X181000Y149843
X159750Y134843
X122250Y159843
X132250Y182343
X146000Y224843
X154750Y227343
X127250Y244843
X137250Y252343
X151000Y288593
X146000Y297343
X162250Y306093
X173500Y306093
X178500Y346093
X166000Y346093
X193500Y343593
X248500Y338593
X289750Y362343
X298500Y386093
X283500Y389843
X298500Y408593
X324750Y406093
X77250Y406093
X41000Y381093
X243500Y258593
X236000Y248593
X236000Y244843
X264750Y243593
X259750Y227343
X224750Y132343
X221000Y113593
X634750Y59843
T02
X91728Y23593
X120272Y23593
X259228Y23593
X287772Y23593
T03
X83500Y118593
X83500Y128593
X83500Y138593
X83500Y148593
X83500Y158593
X83500Y168593
X83500Y178593
X83500Y188593
X83500Y198593
X83500Y208593
X83500Y218593
X83500Y228593
X83500Y238593
X83500Y248593
X13500Y248593
X13500Y238593
X13500Y228593
X13500Y218593
X13500Y208593
X13500Y198593
X13500Y188593
X13500Y178593
X13500Y168593
X13500Y158593
X13500Y148593
X13500Y138593
X13500Y128593
X13500Y118593
X206000Y21093
X226000Y21093
T04
X337500Y168593
X284500Y168593
T05
X96453Y34341
X115547Y34341
X173500Y121093
X146000Y133593
X163500Y153593
X146000Y158593
X146000Y183593
X158500Y183593
X208500Y183593
X218500Y183593
X226000Y156093
X213500Y153593
X223500Y121093
X276000Y156093
X268500Y183593
X283047Y34341
X263953Y34341
X96000Y133593
X96000Y158593
X96000Y183593
X653500Y266093
X663500Y266093
X673500Y266093
X683500Y266093
T06
X208500Y71717
X208500Y81093
X208500Y90468
X149750Y51093
X170750Y51093
X183250Y51093
T07
X431000Y246093
X431000Y256093
X446000Y258593
X456000Y258593
X466000Y258593
X476000Y258593
X486000Y258593
X496000Y258593
X506000Y258593
X516000Y258593
X526000Y258593
X536000Y258593
X546000Y258593
X556000Y258593
X566000Y258593
X576000Y258593
X586000Y258593
X596000Y258593
X608500Y261093
X618500Y261093
X628500Y261093
X628500Y271093
X618500Y271093
X608500Y271093
X596000Y273593
X586000Y273593
X576000Y273593
X566000Y273593
X556000Y273593
X546000Y273593
X536000Y273593
X526000Y273593
X516000Y273593
X506000Y273593
X496000Y273593
X486000Y273593
X476000Y273593
X466000Y273593
X456000Y273593
X446000Y273593
X431000Y278593
X431000Y268593
X448500Y243593
X458500Y243593
T08
X26512Y24754
X58008Y24754
T09
X361000Y248593
X351000Y248593
X341000Y248593
X331000Y248593
X321000Y248593
X311000Y248593
X301000Y248593
X291000Y248593
X281000Y248593
X281000Y278593
X291000Y278593
X301000Y278593
X311000Y278593
X321000Y278593
X331000Y278593
X341000Y278593
X351000Y278593
X361000Y278593
X371000Y278593
X381000Y278593
X391000Y278593
X401000Y278593
X411000Y278593
X411000Y248593
X401000Y248593
X391000Y248593
X381000Y248593
X371000Y248593
T10
X362398Y173297
X372398Y173297
X386453Y212785
X396400Y212793
X406400Y212793
X416400Y212793
X426400Y212793
X436400Y212793
X446400Y212793
X456400Y212793
X466400Y212793
X476400Y212793
X486400Y212793
X496400Y212793
X506400Y212793
X516400Y212793
X526400Y212793
X536400Y212793
X546400Y212793
X556400Y212793
X566400Y212793
X576400Y212793
X576400Y222793
X566400Y222793
X556400Y222793
X546400Y222793
X536400Y222793
X526400Y222793
X516400Y222793
X506400Y222793
X496400Y222793
X486400Y222793
X476400Y222793
X466400Y222793
X456400Y222793
X446400Y222793
X436400Y222793
X426400Y222793
X416400Y222793
X406400Y222793
X396400Y222793
X386400Y222793
X256000Y263593
X246000Y263593
X236000Y263593
X226000Y263593
X216000Y263593
X190843Y263593
X180843Y263593
X170843Y263593
X160843Y263593
X150843Y263593
X140843Y263593
X130843Y263593
X131000Y218593
X141000Y218593
X151000Y218593
X161000Y218593
X171000Y218593
X201000Y218593
X211000Y218593
X221000Y218593
X231000Y218593
X241000Y218593
X237594Y311093
X227594Y311093
X217594Y311093
X207594Y311093
X197594Y311093
X169187Y311093
X159187Y311093
X149187Y311093
X139187Y311093
X129187Y311093
X119187Y311093
X109187Y311093
X80781Y311093
X70781Y311093
X60781Y311093
X50781Y311093
X40781Y311093
X30781Y311093
X20781Y311093
X21000Y354664
X31000Y354664
X41000Y354664
X51000Y354664
X61000Y354664
X90722Y354664
X100722Y354664
X110722Y354664
X120722Y354664
X130722Y354664
X160444Y354664
X170444Y354664
X180444Y354664
X190444Y354664
X200444Y354664
X230167Y354664
X240167Y354664
X250167Y354664
X260167Y354664
X270167Y354664
X299889Y354664
X309889Y354664
X319889Y354664
X329889Y354664
X339889Y354664
X369611Y354664
X379611Y354664
X389611Y354664
X399611Y354664
X409611Y354664
X439333Y354664
X449333Y354664
X459333Y354664
X469333Y354664
X479333Y354664
X509056Y354664
X519056Y354664
X529056Y354664
X539056Y354664
X549056Y354664
X578778Y354664
X588778Y354664
X598778Y354664
X608778Y354664
X618778Y354664
X648500Y354664
X658500Y354664
X668500Y354664
X678500Y354664
X688500Y354664
X686000Y311093
X676000Y311093
X666000Y311093
X656000Y311093
X646000Y311093
X617425Y311093
X607425Y311093
X597425Y311093
X587425Y311093
X577425Y311093
X548849Y311093
X538849Y311093
X528849Y311093
X518849Y311093
X508849Y311093
X480274Y311093
X470274Y311093
X460274Y311093
X450274Y311093
X440274Y311093
X411699Y311093
X401699Y311093
X391699Y311093
X381699Y311093
X371699Y311093
X346000Y311093
X336000Y311093
X326000Y311093
X316000Y311093
X306000Y311093
X296000Y311093
X286000Y311093
X257594Y311093
X247594Y311093
X244616Y398593
X234616Y398593
X224616Y398593
X214616Y398593
X204616Y398593
X194616Y398593
X167808Y398593
X157808Y398593
X147808Y398593
X137808Y398593
X127808Y398593
X117808Y398593
X107808Y398593
X81000Y398593
X71000Y398593
X61000Y398593
X51000Y398593
X41000Y398593
X31000Y398593
X21000Y398593
X254616Y398593
X281425Y398593
X291425Y398593
X301425Y398593
X311425Y398593
X321425Y398593
X331425Y398593
X341425Y398593
X368233Y398593
X378233Y398593
X388233Y398593
X398233Y398593
X408233Y398593
X418233Y398593
X428233Y398593
X455041Y398593
X465041Y398593
X475041Y398593
X485041Y398593
X495041Y398593
X505041Y398593
X515041Y398593
X541849Y398593
X551849Y398593
X561849Y398593
X571849Y398593
X581849Y398593
X591849Y398593
X601849Y398593
X628657Y398593
X638657Y398593
X648657Y398593
X658657Y398593
X668657Y398593
X678657Y398593
X688657Y398593
T11
X536000Y196093
X536000Y186093
X536000Y176093
X536000Y166093
X536000Y156093
X536000Y146093
X536000Y136093
X536000Y126093
X566000Y126093
X566000Y136093
X566000Y146093
X566000Y156093
X566000Y166093
X566000Y176093
X566000Y186093
X566000Y196093
T12
X390500Y27093
X390500Y95093
X546500Y95093
X546500Y27093
T13
X367280Y24872
X367280Y127234
X367280Y217785
X595626Y217785
X595626Y127234
X595626Y24872
T14
X411500Y91093
X528500Y31093
T15
X163500Y81093
M30
