<?xml version="1.0" encoding="UTF-8" standalone="no"?>
<!-- Created with Inkscape (http://www.inkscape.org/) -->

<svg
   xmlns:dc="http://purl.org/dc/elements/1.1/"
   xmlns:cc="http://creativecommons.org/ns#"
   xmlns:rdf="http://www.w3.org/1999/02/22-rdf-syntax-ns#"
   xmlns:svg="http://www.w3.org/2000/svg"
   xmlns="http://www.w3.org/2000/svg"
   xmlns:sodipodi="http://sodipodi.sourceforge.net/DTD/sodipodi-0.dtd"
   xmlns:inkscape="http://www.inkscape.org/namespaces/inkscape"
   width="278.49252mm"
   height="100mm"
   viewBox="0 0 278.49252 100"
   version="1.1"
   id="svg8"
   inkscape:version="0.92.2 (5c3e80d, 2017-08-06)"
   sodipodi:docname="Flattened PiSEB.svg">
  <sodipodi:namedview
     id="base"
     pagecolor="#ffffff"
     bordercolor="#666666"
     borderopacity="1.0"
     inkscape:pageopacity="0.0"
     inkscape:pageshadow="2"
     inkscape:zoom="0.49497475"
     inkscape:cx="659.39486"
     inkscape:cy="247.20858"
     inkscape:document-units="mm"
     inkscape:current-layer="layer1"
     showgrid="false"
     fit-margin-top="0"
     fit-margin-left="0"
     fit-margin-right="0"
     fit-margin-bottom="0"
     inkscape:window-width="1920"
     inkscape:window-height="1017"
     inkscape:window-x="-8"
     inkscape:window-y="-8"
     inkscape:window-maximized="1" />
  <defs
     id="defs2" />
  <metadata
     id="metadata5">
    <rdf:RDF>
      <cc:Work
         rdf:about="">
        <dc:format>image/svg+xml</dc:format>
        <dc:type
           rdf:resource="http://purl.org/dc/dcmitype/StillImage" />
        <dc:title></dc:title>
      </cc:Work>
    </rdf:RDF>
  </metadata>
  <g
     transform="translate(-71.995445,43.90122)"
     id="layer1"
     inkscape:groupmode="layer"
     inkscape:label="Layer 1">
    <path
       style="fill:#000000;stroke-width:6.94427681"
       d="m 271.7793,216.57422 -10.00586,12.27734 -9.76172,12.4668 -9.77149,12.45508 -10.04101,12.24609 -10.55274,11.80859 -11.27343,11.10938 -12.17383,10.12305 -13.13477,8.82422 -13.04492,9.52539 -13.57226,8.77539 -13.64258,8.66992 -13.39063,9.04687 -12.56836,10.14454 -9.09179,13.11132 13.91601,-7.09179 13.51172,-7.83985 13.17969,-8.38281 12.95117,-8.74414 12.82227,-8.91992 12.8164,-8.9336 12.92383,-8.77343 13.14062,-8.44141 -4.27734,15.98047 -4.07812,16.03125 -2.26758,16.375 1.26562,16.44726 10.75586,8.15039 13.60742,-0.27148 12.75391,-5.10937 11.82422,-7.05079 11.29101,-7.88086 11.24415,-7.95507 8.16601,-9.32813 -7.1582,-3.86719 -11.32227,5.07618 -10.03906,7.27148 -14.2832,8.71484 -13.3125,-4.7207 0.80078,-16.63672 4.2832,-16.21093 5.58789,-15.81446 6.48828,-15.4707 6.71875,-12.12305 7.67969,-11.57031 7.6543,-11.57617 7.12304,-11.91407 5.03907,-12.86914 z"
       transform="matrix(0.26458333,0,0,0.26458333,71.995445,-43.90122)"
       id="path3762" />
    <path
       style="fill:#000000;stroke-width:6.94427681"
       d="m 291.68359,169.56836 -10.51171,10.52734 -0.50586,3.82227 14.49804,1.99805 7.47461,-11.67579 z"
       transform="matrix(0.26458333,0,0,0.26458333,71.995445,-43.90122)"
       id="path3760" />
    <path
       style="fill:#000000;stroke-width:6.94427681"
       d="m 189.29688,55.033203 -10.34571,14.748047 -9.85547,15.083984 -9.41992,15.357426 -9.04883,15.58593 -8.74023,15.75586 -8.49805,15.88477 -8.32812,15.97656 -8.22852,16.02734 -8.19922,16.04493 -8.23633,16.02148 -8.349605,15.96289 -8.529297,15.8711 -8.779297,15.73242 -9.099609,15.55468 -9.480469,15.32032 -9.923828,15.03711 -10.423828,14.69336 -10.972656,14.29297 -11.908203,14.11523 -7.7285161,9.68555 3.7890625,8.00976 11.3417966,-4.78711 8.988281,-8.49804 13.21875,-12.31836 12.355469,-13.17579 11.507813,-13.92773 10.697265,-14.5625 9.947266,-15.08398 9.277344,-15.50782 8.697261,-15.83398 8.21875,-16.0957 7.83399,-16.2793 7.55273,-16.41406 7.37696,-16.49805 7.29882,-16.5332 7.32422,-16.52344 7.44922,-16.45898 7.68164,-16.35547 8.02344,-16.19141 9.09961,-15.273438 9.78906,-14.873046 8.25,-15.730469 z"
       transform="matrix(0.26458333,0,0,0.26458333,71.995445,-43.90122)"
       id="path3758" />
    <path
       style="fill:#000000;stroke-width:6.94427681"
       d="m 705.16602,15.939453 -15.34766,0.857422 -15.19922,2.308594 -14.92187,3.708984 -14.51172,5.064453 -13.99024,6.38086 -13.33008,7.658203 -12.53906,8.90039 -11.59179,10.097657 -10.49024,11.234375 13.66602,-4.34375 13.04687,-5.990235 12.6543,-6.791015 12.59375,-6.886719 12.88672,-6.31836 13.45898,-4.972656 14.07813,-2.708984 16.59705,1.344137 -4.07362,12.235941 -4.35351,12.662109 -5.57617,12.1875 -6.05078,11.964844 -6.0625,11.958985 -5.73829,12.117192 -6.58203,14.30664 -6.70117,14.2539 -6.78906,14.2168 -6.83399,14.1875 -6.84179,14.18555 -6.8086,14.20507 -6.72656,14.24414 -6.60156,14.29883 -7.61133,17.29102 -8.06445,17.07812 -8.5586,16.83399 -9.09179,16.55859 -9.65821,16.23438 -10.26172,15.85742 -10.89648,15.42773 -11.56055,14.9336 -8.64062,8.18554 -7.80469,8.95508 15.80859,-2.84961 15.76954,-3.05078 15.83398,-2.66797 15.96875,-1.73437 16.05469,-0.21094 15.92773,1.93359 14.50977,4.44727 14.98047,2.43945 15.16601,0.43946 15.11328,-1.45899 14.83789,-3.20312 14.41016,-4.76368 13.88281,-6.15234 13.26563,-7.38477 11.04101,-8.25195 -6.55664,-5.18359 -13.7207,1.44922 -13.76953,0.72461 -14.48633,-0.67969 -14.5,-0.31446 -14.50195,-0.24218 -14.5,-0.43946 -14.47657,-0.91601 -14.40234,-1.69336 -14.22852,-2.79492 -13.86914,-4.23047 9.47071,-14.66602 8.72461,-15.12695 8.20898,-15.4082 7.94336,-15.54688 7.93164,-15.55664 8.16406,-15.42773 8.65039,-15.16407 9.3711,-14.73242 17.6289,-3.64062 17.92579,-1.93946 17.89453,-2.19726 17.53515,-4.08594 15.74805,-8.53515 9.25586,-15.14454 -14.20313,1.76368 -14.3125,0.29687 -14.28515,-0.90234 -14.20508,-1.8086 -14.10742,-2.42968 -14.05078,-2.78321 7.88086,-17.15234 7.88086,-17.15039 7.88085,-17.15235 7.88086,-17.150386 7.88086,-17.150391 7.88086,-17.150391 4.13868,-9.185546 9.79492,-2.345704 10.20117,1.53711 10.23437,1.267578 18.8711,0.568359 18.87695,-0.154297 18.82813,-1.347656 18.57812,-3.28125 17.54883,-6.789062 12.86914,-13.386719 -16.62305,-2.246094 -16.69726,-1.560547 -16.74024,-1.029296 -16.75976,-0.652344 -16.76953,-0.431641 -16.77344,-0.365234 -16.76758,-0.453125 -16.75977,-0.69336 z"
       transform="matrix(0.26458333,0,0,0.26458333,71.995445,-43.90122)"
       id="path3756" />
    <path
       style="fill:#000000;stroke-width:6.94427681"
       d="m 218.39062,10.962891 -17.50781,3.439453 -16.50976,6.955078 -15.75586,8.544922 -15.18555,9.523437 -14.7168,10.232422 -14.29882,10.796875 -13.91211,11.302734 -13.521488,11.769532 -13.105469,12.226562 -12.636719,12.708984 -12.078125,13.24219 -11.353515,13.86523 -10.441406,14.38086 -6.84961,16.54688 -2.974609,17.55273 13.791015,-1.67773 7.869141,-14.44922 8.669922,-13.98438 9.394531,-13.5039 10.052734,-13.02539 10.636719,-12.55469 11.158203,-12.0957 L 110.72852,91.105469 122.75,79.865234 135.12109,69.017578 147.80273,58.53125 l 12.98438,-9.779297 13.62109,-8.869141 14.32422,-7.685546 15.06836,-6.072266 15.78125,-3.810547 16.21094,-0.652344 15.84961,3.388672 14.32617,7.578125 9.38867,12.351563 5.43164,14.533203 1.38867,15.466797 -1.875,15.435547 -4.26171,14.958984 -6.01563,14.35742 -7.36523,13.71094 -8.49805,13.04297 -7.94727,12.94531 -10.05273,11.40039 -11.7168,9.68359 -12.90429,8.05079 -13.67383,6.65429 -14.15821,5.55469 -14.45117,4.76758 -14.5957,4.29101 14.32422,5.14063 16.04101,-2.23047 16.14258,-3.2832 15.53125,-5.50391 14.71094,-7.42383 13.76562,-9.05859 12.74219,-10.45117 11.65235,-11.6543 10.48437,-12.71289 9.20313,-13.67578 7.73046,-14.55469 5.94532,-15.36719 2.83007,-15.095699 -0.0937,-15.357422 -3.05665,-15.044922 -5.99023,-14.138672 -8.77344,-12.59375 -11.24414,-10.455078 -13.1875,-7.857422 -14.49414,-5.085937 -15.17187,-2.417969 z"
       transform="matrix(0.26458333,0,0,0.26458333,71.995445,-43.90122)"
       id="path3776" />
    <path
       style="fill:#000000;stroke-width:6.94427681"
       d="m 946.33594,13.382812 -17.8125,2.978516 -16.87305,6.501953 -15.98828,8.478516 -15.48633,9.361328 -15.46289,9.412109 -15.92773,8.583985 -13.05078,7.697265 -12.37696,8.728516 -11.61133,9.732422 -10.7207,10.701172 -9.70508,11.634766 -8.53515,12.51367 -7.21485,13.32031 -5.73633,14.01758 -4.12109,14.57617 -2.40625,14.95118 -2.66016,14.90234 9.44922,10.60742 15.10547,-0.77148 14.10742,-5.73828 12.0293,-9.30274 5.2168,-13.77539 -2.32617,-14.6582 0.70312,-14.83985 3.23242,-14.5039 5.25,-13.9043 6.875,-13.17969 8.22266,-12.388669 9.40234,-11.519531 10.5,-10.527344 9.1836,-5.90625 8.92187,-6.326172 9.2168,-5.865234 5.74805,2.636719 -7.24415,16.367187 -7.14062,16.414063 -7.05273,16.447261 -6.9961,16.47461 -6.95898,16.49024 -6.94336,16.49609 -6.95508,16.49219 -6.98828,16.47852 -7.04102,16.45312 -7.12109,16.41797 -7.22266,16.375 -7.34765,16.31836 -7.4961,16.25195 -7.66406,16.17578 -6.13477,13.35742 -6.99804,12.9336 -7.81836,12.44922 -8.59571,11.92187 -9.33007,11.36133 -10.01563,10.76758 -10.64648,10.13476 -11.23047,9.48438 15.69726,0.41406 13.92579,-9.49609 14.04882,-9.3086 16.25586,-3.0664 15.78321,-0.01 15.54882,2.8418 15.18946,4.40234 15.07617,4.78516 15.28711,4.0293 15.67383,1.96875 15.70312,-1.49805 14.73828,-5.59961 14.4375,-6.05859 14.31446,-6.34375 14.0957,-6.82618 13.74414,-7.49609 13.23828,-8.36328 12.50977,-9.41406 11.50976,-10.60743 10.19339,-11.87695 6.9824,-17.54101 4.5137,-18.32813 2.0566,-18.76953 -0.5,-18.86914 -3.2461,-18.59375 -6.2305,-17.81055 -9.4003,-16.35351 -12.52544,-14.0918 -9.58203,-13.46094 15.47461,-10.48828 15.16606,-8.73242 13.8125,-10.74024 11.914,-12.812496 9.2422,-14.83789 5.707,-16.513672 1.5957,-17.398438 -1.3496,-14.474609 -7.4648,-12.298828 -13.0527,-6.158203 -14.5293,-0.886719 -14.4395,2.021484 -14.09765,3.763672 -13.70508,5 -13.26172,6.09375 -10.42383,4.992188 c 8.2e-4,0.01109 0.003,0.0221 0.004,0.0332 0.0227,0.336075 0,0.673047 0,1.009766 v 1.136718 4.544922 4.023438 l 3.4414,-2.19336 14.14454,-5.089844 14.95703,-0.638671 13.08984,6.873047 6.08207,13.560546 0.1836,15.019532 -3.36723,16.25 -7.33399,14.894537 -10.52539,12.85742 -12.60937,10.83789 -13.8418,9.23437 -14.5332,8.10938 -14.88672,7.43945 -14.98633,7.23828 -16.80078,7.8086 3.28516,4.95508 14.02148,-0.23438 13.93164,1.55469 13.45703,3.88476 12.10352,7.00586 9.10937,10.56641 4.75196,13.13476 3.31445,16.41797 2.14258,16.60547 0.70703,16.72461 -1.13281,16.70313 -3.54493,16.35156 -6.63476,15.33984 -10.17774,13.24024 -13.35937,10.01172 -14.44141,6.81054 -15.92968,1.46289 -15.83594,-2.53515 -15.33594,-4.73828 -12.02344,-4.58985 -12.62695,-2.53711 -12.83594,-1.13281 -12.88672,-0.13672 -12.88086,0.59961 -12.83984,1.11719 10.25,-14.15235 9.50195,-14.66406 8.81836,-15.08594 8.22071,-15.42578 7.70703,-15.68164 7.30273,-15.88086 6.99805,-16.01367 6.80273,-16.10156 6.70899,-16.13477 6.72461,-16.13086 6.84961,-16.07812 7.07812,-15.97852 7.41211,-15.82226 7.85156,-15.61719 8.38672,-15.332034 9.00586,-14.972656 7.1875,-13.166015 10.59961,-10.65625 9.24219,-5.888672 v -4.023438 -4.544922 -1.136718 c 0,-0.336719 0.0227,-0.673691 0,-1.009766 -7e-4,-0.01111 -0.003,-0.02211 -0.004,-0.0332 l -0.49023,0.234375 -13.49462,3.511988 4.76415,-18.271754 z"
       transform="matrix(0.26458333,0,0,0.26458333,71.995445,-43.90122)"
       id="path3774" />
    <path
       style="fill:#000000;stroke-width:6.94427681"
       d="m 560.39062,13.384812 -16.54101,0.289062 -16.3125,2.78125 -15.8457,4.785156 -15.29688,6.34961 -14.73047,7.568359 -14.20117,8.521485 -13.85547,8.035156 -13.39062,8.787109 -12.66407,9.792969 -11.54101,11.09375 -9.74414,12.683594 -6.92774,14.406258 -2.94726,15.69336 1.49219,15.90039 7.01562,13.00781 9.2207,11.5625 10.68946,10.23047 11.44922,9.37304 11.64257,9.14063 11.31055,9.54297 10.39844,10.52734 8.79101,11.88281 8.97266,11.09766 6.68359,12.61133 4.25196,13.63086 1.82031,14.16015 -0.5332,14.26954 -2.79102,14.00585 -4.96484,13.38477 -7.05469,12.41602 -11.19336,10.91992 -14.29687,6.31445 -15.58985,1.50586 -15.56836,-1.96289 -15.14258,-4.14844 -14.70898,-5.51367 -14.375,-6.3418 -14.20313,-6.72461 -12.16796,-5.63672 -13.33008,-1.49023 -13.27735,2.07227 -12.76757,4.25 -12.38868,5.28125 -12.32812,5.41992 14.00586,7.3125 14.04297,7.24023 14.20703,6.90821 14.48633,6.30468 14.84179,5.41211 15.21875,4.22071 16.98438,3.625 17.19531,2.03515 15.67578,-4.44922 15.44531,-5.21093 15.13086,-6.06055 14.70508,-7.01758 14.13281,-8.09766 13.36914,-9.31445 12.33008,-10.64844 10.95703,-12.04882 9.21485,-13.42774 7.13281,-14.63086 3.68555,-14.16211 1.21289,-14.58008 -1.23047,-14.57812 -3.53516,-14.19727 -5.63867,-13.50781 -7.52148,-12.55273 -9.19727,-11.38282 -10.67773,-10.00781 -9.85157,-10.54687 -10.50976,-9.89453 -10.72656,-9.65625 -10.57618,-9.82813 -10.01953,-10.39062 -8.9375,-11.32032 -7.18945,-12.5 -4.7207,-13.615235 8.55664,-15.882813 11.95117,-13.533203 14.3418,-10.984375 16.09375,-8.203125 17.35156,-4.984375 18.01562,-1.015625 13.96289,6.185547 15.18555,2.271484 15.36133,-0.234375 15.0293,-3.08789 12.13867,-8.835938 -2.81446,-14.322265 -15.53906,-5.658204 z"
       transform="matrix(0.26458333,0,0,0.26458333,71.995445,-43.90122)"
       id="path3718" />
  </g>
</svg>
