%
M48
M72
T01C0.01378
T02C0.02000
T03C0.02500
T04C0.03150
T05C0.03200
T06C0.03500
T07C0.03543
T08C0.03600
T09C0.03937
T10C0.04000
T11C0.10827
T12C0.11811
T13C0.13000
T14C0.25000
%
T01
X17539Y49500
X33539Y57500
X18539Y89500
X65039Y74000
X77539Y77500
X97539Y82500
X103039Y83000
X109539Y78500
X126039Y79000
X114039Y84000
X106039Y96000
X101039Y103000
X89039Y130016
X73539Y137500
X68039Y128000
X110539Y138500
X132902Y141863
X141539Y159500
X141539Y169500
X141539Y179500
X141539Y189500
X136539Y212500
X147539Y212500
X136539Y227500
X159539Y228500
X122539Y239500
X82439Y244200
X73439Y235200
X67539Y224500
X76539Y211500
X90539Y216500
X97539Y159500
X179539Y129500
X176539Y120500
X172539Y115000
X206039Y107000
X171039Y97000
X175039Y74500
X175039Y69500
X149539Y56500
X144300Y59000
X140539Y43500
X140539Y24500
X161539Y20500
X196039Y30500
X201539Y20500
X210039Y18500
X217539Y25500
X226039Y31500
X247539Y31050
X251539Y33500
X251539Y42500
X264539Y44000
X264539Y40500
X269539Y44500
X270539Y48000
X283039Y51500
X290350Y51311
X305039Y48500
X304539Y44500
X318789Y41250
X336539Y27500
X360850Y35811
X366539Y43500
X362539Y52000
X362539Y57500
X377639Y68800
X354539Y77000
X355539Y93000
X401539Y85500
X417539Y83500
X427539Y90500
X452039Y96500
X464539Y75500
X514539Y70500
X536039Y90500
X542539Y104500
X550539Y106500
X564539Y101000
X574539Y101000
X603539Y122500
X574539Y138500
X542039Y149640
X558039Y178000
X529539Y181000
X524539Y178500
X519123Y187139
X534039Y198000
X507539Y204500
X495539Y197500
X486539Y187139
X474166Y181000
X454539Y183500
X450745Y191239
X437539Y187139
X430539Y191239
X474039Y218000
X467539Y223500
X493539Y223500
X548539Y227500
X584539Y199500
X591539Y200500
X595539Y165500
X627539Y146000
X701039Y169500
X711539Y169500
X819539Y197500
X779539Y236500
X739539Y241500
X717039Y226500
X699539Y227500
X699539Y234500
X688539Y236500
X690539Y244500
X687539Y250000
X670539Y244500
X668539Y228500
X609039Y253000
X619539Y263500
X594539Y249500
X544539Y273500
X553178Y279500
X534039Y267500
X528539Y274500
X505539Y262500
X474539Y279500
X476539Y288500
X514539Y290500
X534539Y298500
X546539Y297000
X584539Y290500
X585539Y332700
X565539Y352500
X527539Y361500
X509039Y370000
X458539Y383500
X455539Y370500
X400539Y366800
X400439Y359000
X400539Y351500
X378539Y352000
X375539Y340500
X344039Y341500
X321539Y349500
X293539Y349500
X271039Y347000
X271039Y342000
X271039Y352000
X248539Y337000
X248039Y332000
X250539Y327000
X246539Y315500
X257539Y315000
X263039Y313000
X269039Y313000
X253247Y306000
X302039Y331500
X367439Y359100
X375539Y366500
X367039Y379500
X400539Y376800
X477539Y419500
X517539Y420500
X633539Y406500
X886539Y192500
X813139Y93786
X777039Y94000
X716039Y103000
X626039Y94500
X626039Y89500
X626039Y86000
X622539Y68500
X618539Y65500
X539539Y17500
X493539Y17500
X461039Y16000
X425539Y19500
X387539Y20500
X409539Y34500
X402539Y70500
X336539Y60500
X315539Y57500
X295139Y70500
X281039Y72500
X287539Y64500
X258039Y61500
X251539Y60500
X233539Y61500
X229539Y60500
X231539Y66389
X211039Y74500
X204539Y74500
X224539Y79500
X203539Y61500
X264539Y34500
X267039Y23500
X275539Y18000
X289539Y29500
X288539Y36500
X283539Y87000
X292539Y90000
X303428Y90000
X271039Y98000
X271039Y101500
X269039Y128000
X209539Y129000
X259483Y162500
X251539Y193500
X237539Y198500
X244539Y220500
X237539Y234500
X270039Y273500
X343539Y257000
X346539Y279500
X423139Y304698
X473039Y310500
X492539Y320500
X495539Y310500
X427539Y334500
X321539Y366500
X321539Y376500
X328039Y387500
X328039Y403500
X337539Y409500
X293539Y366500
X270539Y367500
X225539Y366500
X223539Y377500
X177539Y365500
X132539Y372500
X118539Y350500
X162456Y336500
X176539Y311500
X232539Y342500
X59539Y275500
X27539Y374500
X429639Y234500
X328039Y205500
X441539Y150302
X406539Y119500
X450539Y117500
X504539Y105500
X853539Y70500
X78539Y23500
X78539Y42500
T02
X351868Y19300
X380411Y19300
T03
X540039Y43500
X487039Y43500
T04
X46539Y254500
X46539Y244500
X46539Y234500
X46539Y224500
X46539Y214500
X46539Y204500
X46539Y194500
X46539Y184500
X46539Y174500
X46539Y164500
X46539Y154500
X46539Y144500
X46539Y134500
X46539Y124500
X116539Y124500
X116539Y134500
X116539Y144500
X116539Y154500
X116539Y164500
X116539Y174500
X116539Y184500
X116539Y194500
X116539Y204500
X116539Y214500
X116539Y224500
X116539Y234500
X116539Y244500
X116539Y254500
X472039Y167500
X472039Y157500
X472039Y147500
X472039Y137500
X375687Y30048
X356592Y30048
T05
X491539Y419500
X503539Y419500
X855539Y168750
X855539Y156250
X855539Y135250
X869164Y115500
X878539Y115500
X887915Y115500
X412539Y20500
X400539Y20500
X187439Y20500
X175439Y20500
X18539Y63500
X18539Y75500
T06
X19539Y122500
X29539Y122500
X29539Y150500
X19539Y150500
X172939Y148500
X172939Y158500
X172939Y168500
X172939Y178500
X172939Y188500
X172939Y198500
X172939Y208500
X172939Y218500
X172939Y228500
X172939Y238500
X172939Y248500
X172939Y258500
X172939Y268500
X172939Y278500
X172939Y288500
X172939Y298500
X205089Y298400
X205089Y288400
X205089Y278400
X205089Y268400
X205089Y258400
X205089Y248400
X205089Y238400
X205089Y228400
X205089Y218400
X205089Y208400
X205089Y198400
X205089Y188400
X205089Y178400
X205089Y168400
X205089Y158400
X205089Y148400
X564539Y35500
X574539Y35500
X584539Y35500
X594539Y35500
X604539Y35500
X614539Y35500
X624539Y35500
X634539Y35500
X644539Y35500
X654539Y35500
X664539Y35500
X674539Y35500
X684539Y35500
X694539Y35500
X704539Y35500
X714539Y35500
X714539Y22000
X704539Y22000
X694539Y22000
X684539Y22000
X674539Y22000
X664539Y22000
X654539Y22000
X644539Y22000
X634539Y22000
X624539Y22000
X614539Y22000
X604539Y22000
X594539Y22000
X584539Y22000
X574539Y22000
X564539Y22000
X566539Y157500
X576539Y157500
X586539Y157500
X596539Y157500
X606539Y157500
X616539Y157500
X626539Y157500
X636539Y157500
X646539Y157500
X656539Y157500
X666539Y157500
X676539Y157500
X686539Y157500
X696539Y157500
X706539Y157500
X716539Y157500
X716539Y178500
X706539Y178500
X696539Y178500
X686539Y178500
X676539Y178500
X666539Y178500
X656539Y178500
X646539Y178500
X636539Y178500
X626539Y178500
X616539Y178500
X606539Y178500
X596539Y178500
X586539Y178500
X576539Y178500
X566539Y178500
X242039Y397000
X242039Y387000
X242039Y377000
X242039Y367000
T07
X121642Y31972
X90146Y31972
T08
X454539Y419500
X464539Y419500
X61539Y39500
X61539Y49500
T09
X736539Y178500
X804539Y178500
X804539Y22500
X736539Y22500
T10
X66039Y366500
X66039Y356500
X66039Y346500
X66039Y336500
X66039Y326500
X103039Y326500
X103039Y336500
X103039Y346500
X103039Y356500
X103039Y366500
X154039Y366500
X154039Y356500
X154039Y346500
X154039Y336500
X154039Y326500
X208039Y326500
X208039Y336500
X208039Y346500
X208039Y356500
X208039Y366500
X208039Y376500
X208039Y386500
X280539Y386500
X280539Y376500
X280539Y366500
X280539Y356500
X280539Y346500
X280539Y336500
X280539Y326500
X311539Y326500
X311539Y336500
X311539Y346500
X311539Y356500
X311539Y366500
X311539Y376500
X311539Y386500
X356539Y386500
X356539Y376500
X356539Y366500
X356539Y356500
X356539Y346500
X356539Y336500
X356539Y326500
X390539Y326500
X390539Y336500
X390539Y346500
X390539Y356500
X390539Y366500
X390539Y376500
X390539Y386500
X519539Y365500
X519539Y355500
X519539Y345500
X519539Y335500
X519539Y325500
X519539Y315500
X519539Y305500
X519539Y268500
X519539Y258500
X519539Y248500
X519539Y238500
X519539Y228500
X519539Y218500
X519539Y208500
X588557Y209426
X598557Y209426
X608557Y209426
X618557Y209426
X628557Y209426
X638557Y209426
X648557Y209426
X658557Y209426
X668557Y209426
X678557Y209426
X678557Y219426
X668557Y219426
X658557Y219426
X648557Y219426
X638557Y219426
X628557Y219426
X618557Y219426
X608557Y219426
X598557Y219426
X588610Y219433
X574555Y258921
X564555Y258921
X446539Y258500
X446539Y248500
X446539Y238500
X446539Y228500
X446539Y218500
X446539Y208500
X390539Y210500
X390539Y200500
X390539Y190500
X390539Y180500
X356539Y180500
X356539Y190500
X356539Y200500
X356539Y210500
X356539Y220500
X390539Y220500
X390539Y254500
X390539Y264500
X390539Y274500
X390539Y284500
X390539Y294500
X356539Y294500
X356539Y284500
X356539Y274500
X356539Y264500
X356539Y254500
X311539Y254500
X311539Y264500
X311539Y274500
X311539Y284500
X311539Y294500
X280539Y294500
X280539Y284500
X280539Y274500
X280539Y264500
X280539Y254500
X227539Y254500
X227539Y264500
X227539Y274500
X227539Y284500
X227539Y294500
X280539Y220500
X280539Y210500
X280539Y200500
X280539Y190500
X280539Y180500
X311539Y180500
X311539Y190500
X311539Y200500
X311539Y210500
X311539Y220500
X446539Y268500
X447539Y305500
X447539Y315500
X447539Y325500
X447539Y335500
X447539Y345500
X447539Y355500
X447539Y365500
X688557Y219426
X698557Y219426
X708557Y219426
X718557Y219426
X728557Y219426
X738557Y219426
X748557Y219426
X758557Y219426
X768557Y219426
X778557Y219426
X778557Y209426
X768557Y209426
X758557Y209426
X748557Y209426
X738557Y209426
X728557Y209426
X718557Y209426
X708557Y209426
X698557Y209426
X688557Y209426
X390539Y104500
X390539Y114500
X390539Y124500
X390539Y134500
X390539Y144500
X356539Y144500
X356539Y134500
X356539Y124500
X356539Y114500
X356539Y104500
X311539Y104500
X311539Y114500
X311539Y124500
X311539Y134500
X311539Y144500
X280539Y144500
X280539Y134500
X280539Y124500
X280539Y114500
X280539Y104500
X233888Y104517
X233888Y114517
X233888Y124517
X233888Y134517
X233888Y144517
T11
X569437Y407346
X569437Y304984
X569437Y214433
X797783Y214433
X797783Y304984
X797783Y407346
T12
X29799Y407201
X423500Y407201
X800539Y157500
X876256Y33185
X740539Y40500
X443185Y33185
X29799Y33185
X797516Y407201
T13
X878539Y70500
T14
X31280Y309819
M30
