G75*
%MOIN*%
%OFA0B0*%
%FSLAX25Y25*%
%IPPOS*%
%LPD*%
%AMOC8*
5,1,8,0,0,1.08239X$1,22.5*
%
%ADD10C,0.00000*%
%ADD11C,0.25400*%
%ADD12C,0.06400*%
%ADD13C,0.30400*%
%ADD14R,0.05400X0.05400*%
%ADD15C,0.00975*%
%ADD16C,0.01100*%
%ADD17R,0.11199X0.08900*%
%ADD18C,0.00850*%
%ADD19C,0.00414*%
%ADD20R,0.07400X0.05400*%
%ADD21R,0.05400X0.07400*%
%ADD22C,0.00100*%
%ADD23R,0.03156X0.06699*%
%ADD24R,0.05912X0.06699*%
%ADD25R,0.05912X0.09061*%
%ADD26R,0.07487X0.05912*%
%ADD27C,0.03943*%
%ADD28R,0.06900X0.06900*%
%ADD29C,0.06900*%
%ADD30C,0.11227*%
%ADD31R,0.06400X0.06400*%
%ADD32C,0.06400*%
%ADD33R,0.04900X0.04400*%
%ADD34C,0.01184*%
%ADD35C,0.10400*%
%ADD36R,0.08200X0.02600*%
%ADD37C,0.05600*%
%ADD38C,0.13400*%
%ADD39R,0.42920X0.41384*%
%ADD40R,0.04600X0.08900*%
%ADD41R,0.06306X0.01778*%
%ADD42R,0.02600X0.09400*%
%ADD43R,0.07100X0.02500*%
%ADD44R,0.05600X0.02600*%
%ADD45R,0.08200X0.02500*%
%ADD46R,0.06306X0.01975*%
%ADD47C,0.05550*%
%ADD48R,0.01975X0.06306*%
%ADD49C,0.00071*%
%ADD50C,0.03940*%
%ADD51R,0.01975X0.05715*%
%ADD52C,0.04400*%
%ADD53R,0.08400X0.07400*%
%ADD54R,0.05550X0.05550*%
%ADD55R,0.10243X0.10243*%
%ADD56C,0.12211*%
%ADD57R,0.06900X0.02100*%
%ADD58R,0.04400X0.04900*%
%ADD59R,0.03156X0.07487*%
%ADD60R,0.04400X0.03156*%
%ADD61C,0.03600*%
%ADD62R,0.07487X0.03156*%
%ADD63R,0.03156X0.04400*%
%ADD64R,0.04731X0.04337*%
%ADD65C,0.06000*%
%ADD66R,0.04337X0.04731*%
D10*
X0010114Y0013500D02*
X0010114Y0426886D01*
X0813264Y0426886D01*
X0813264Y0344209D01*
X0829012Y0344209D01*
X0829012Y0206413D01*
X0895941Y0206413D01*
X0895941Y0013500D01*
X0010114Y0013500D01*
X0023893Y0033185D02*
X0023895Y0033338D01*
X0023901Y0033492D01*
X0023911Y0033645D01*
X0023925Y0033797D01*
X0023943Y0033950D01*
X0023965Y0034101D01*
X0023990Y0034252D01*
X0024020Y0034403D01*
X0024054Y0034553D01*
X0024091Y0034701D01*
X0024132Y0034849D01*
X0024177Y0034995D01*
X0024226Y0035141D01*
X0024279Y0035285D01*
X0024335Y0035427D01*
X0024395Y0035568D01*
X0024459Y0035708D01*
X0024526Y0035846D01*
X0024597Y0035982D01*
X0024672Y0036116D01*
X0024749Y0036248D01*
X0024831Y0036378D01*
X0024915Y0036506D01*
X0025003Y0036632D01*
X0025094Y0036755D01*
X0025188Y0036876D01*
X0025286Y0036994D01*
X0025386Y0037110D01*
X0025490Y0037223D01*
X0025596Y0037334D01*
X0025705Y0037442D01*
X0025817Y0037547D01*
X0025931Y0037648D01*
X0026049Y0037747D01*
X0026168Y0037843D01*
X0026290Y0037936D01*
X0026415Y0038025D01*
X0026542Y0038112D01*
X0026671Y0038194D01*
X0026802Y0038274D01*
X0026935Y0038350D01*
X0027070Y0038423D01*
X0027207Y0038492D01*
X0027346Y0038557D01*
X0027486Y0038619D01*
X0027628Y0038677D01*
X0027771Y0038732D01*
X0027916Y0038783D01*
X0028062Y0038830D01*
X0028209Y0038873D01*
X0028357Y0038912D01*
X0028506Y0038948D01*
X0028656Y0038979D01*
X0028807Y0039007D01*
X0028958Y0039031D01*
X0029111Y0039051D01*
X0029263Y0039067D01*
X0029416Y0039079D01*
X0029569Y0039087D01*
X0029722Y0039091D01*
X0029876Y0039091D01*
X0030029Y0039087D01*
X0030182Y0039079D01*
X0030335Y0039067D01*
X0030487Y0039051D01*
X0030640Y0039031D01*
X0030791Y0039007D01*
X0030942Y0038979D01*
X0031092Y0038948D01*
X0031241Y0038912D01*
X0031389Y0038873D01*
X0031536Y0038830D01*
X0031682Y0038783D01*
X0031827Y0038732D01*
X0031970Y0038677D01*
X0032112Y0038619D01*
X0032252Y0038557D01*
X0032391Y0038492D01*
X0032528Y0038423D01*
X0032663Y0038350D01*
X0032796Y0038274D01*
X0032927Y0038194D01*
X0033056Y0038112D01*
X0033183Y0038025D01*
X0033308Y0037936D01*
X0033430Y0037843D01*
X0033549Y0037747D01*
X0033667Y0037648D01*
X0033781Y0037547D01*
X0033893Y0037442D01*
X0034002Y0037334D01*
X0034108Y0037223D01*
X0034212Y0037110D01*
X0034312Y0036994D01*
X0034410Y0036876D01*
X0034504Y0036755D01*
X0034595Y0036632D01*
X0034683Y0036506D01*
X0034767Y0036378D01*
X0034849Y0036248D01*
X0034926Y0036116D01*
X0035001Y0035982D01*
X0035072Y0035846D01*
X0035139Y0035708D01*
X0035203Y0035568D01*
X0035263Y0035427D01*
X0035319Y0035285D01*
X0035372Y0035141D01*
X0035421Y0034995D01*
X0035466Y0034849D01*
X0035507Y0034701D01*
X0035544Y0034553D01*
X0035578Y0034403D01*
X0035608Y0034252D01*
X0035633Y0034101D01*
X0035655Y0033950D01*
X0035673Y0033797D01*
X0035687Y0033645D01*
X0035697Y0033492D01*
X0035703Y0033338D01*
X0035705Y0033185D01*
X0035703Y0033032D01*
X0035697Y0032878D01*
X0035687Y0032725D01*
X0035673Y0032573D01*
X0035655Y0032420D01*
X0035633Y0032269D01*
X0035608Y0032118D01*
X0035578Y0031967D01*
X0035544Y0031817D01*
X0035507Y0031669D01*
X0035466Y0031521D01*
X0035421Y0031375D01*
X0035372Y0031229D01*
X0035319Y0031085D01*
X0035263Y0030943D01*
X0035203Y0030802D01*
X0035139Y0030662D01*
X0035072Y0030524D01*
X0035001Y0030388D01*
X0034926Y0030254D01*
X0034849Y0030122D01*
X0034767Y0029992D01*
X0034683Y0029864D01*
X0034595Y0029738D01*
X0034504Y0029615D01*
X0034410Y0029494D01*
X0034312Y0029376D01*
X0034212Y0029260D01*
X0034108Y0029147D01*
X0034002Y0029036D01*
X0033893Y0028928D01*
X0033781Y0028823D01*
X0033667Y0028722D01*
X0033549Y0028623D01*
X0033430Y0028527D01*
X0033308Y0028434D01*
X0033183Y0028345D01*
X0033056Y0028258D01*
X0032927Y0028176D01*
X0032796Y0028096D01*
X0032663Y0028020D01*
X0032528Y0027947D01*
X0032391Y0027878D01*
X0032252Y0027813D01*
X0032112Y0027751D01*
X0031970Y0027693D01*
X0031827Y0027638D01*
X0031682Y0027587D01*
X0031536Y0027540D01*
X0031389Y0027497D01*
X0031241Y0027458D01*
X0031092Y0027422D01*
X0030942Y0027391D01*
X0030791Y0027363D01*
X0030640Y0027339D01*
X0030487Y0027319D01*
X0030335Y0027303D01*
X0030182Y0027291D01*
X0030029Y0027283D01*
X0029876Y0027279D01*
X0029722Y0027279D01*
X0029569Y0027283D01*
X0029416Y0027291D01*
X0029263Y0027303D01*
X0029111Y0027319D01*
X0028958Y0027339D01*
X0028807Y0027363D01*
X0028656Y0027391D01*
X0028506Y0027422D01*
X0028357Y0027458D01*
X0028209Y0027497D01*
X0028062Y0027540D01*
X0027916Y0027587D01*
X0027771Y0027638D01*
X0027628Y0027693D01*
X0027486Y0027751D01*
X0027346Y0027813D01*
X0027207Y0027878D01*
X0027070Y0027947D01*
X0026935Y0028020D01*
X0026802Y0028096D01*
X0026671Y0028176D01*
X0026542Y0028258D01*
X0026415Y0028345D01*
X0026290Y0028434D01*
X0026168Y0028527D01*
X0026049Y0028623D01*
X0025931Y0028722D01*
X0025817Y0028823D01*
X0025705Y0028928D01*
X0025596Y0029036D01*
X0025490Y0029147D01*
X0025386Y0029260D01*
X0025286Y0029376D01*
X0025188Y0029494D01*
X0025094Y0029615D01*
X0025003Y0029738D01*
X0024915Y0029864D01*
X0024831Y0029992D01*
X0024749Y0030122D01*
X0024672Y0030254D01*
X0024597Y0030388D01*
X0024526Y0030524D01*
X0024459Y0030662D01*
X0024395Y0030802D01*
X0024335Y0030943D01*
X0024279Y0031085D01*
X0024226Y0031229D01*
X0024177Y0031375D01*
X0024132Y0031521D01*
X0024091Y0031669D01*
X0024054Y0031817D01*
X0024020Y0031967D01*
X0023990Y0032118D01*
X0023965Y0032269D01*
X0023943Y0032420D01*
X0023925Y0032573D01*
X0023911Y0032725D01*
X0023901Y0032878D01*
X0023895Y0033032D01*
X0023893Y0033185D01*
X0016939Y0063500D02*
X0016941Y0063580D01*
X0016947Y0063659D01*
X0016957Y0063738D01*
X0016971Y0063817D01*
X0016988Y0063895D01*
X0017010Y0063972D01*
X0017035Y0064047D01*
X0017065Y0064121D01*
X0017097Y0064194D01*
X0017134Y0064265D01*
X0017174Y0064334D01*
X0017217Y0064401D01*
X0017264Y0064466D01*
X0017313Y0064528D01*
X0017366Y0064588D01*
X0017422Y0064645D01*
X0017480Y0064700D01*
X0017541Y0064751D01*
X0017605Y0064799D01*
X0017671Y0064844D01*
X0017739Y0064886D01*
X0017809Y0064924D01*
X0017881Y0064958D01*
X0017954Y0064989D01*
X0018029Y0065017D01*
X0018106Y0065040D01*
X0018183Y0065060D01*
X0018261Y0065076D01*
X0018340Y0065088D01*
X0018419Y0065096D01*
X0018499Y0065100D01*
X0018579Y0065100D01*
X0018659Y0065096D01*
X0018738Y0065088D01*
X0018817Y0065076D01*
X0018895Y0065060D01*
X0018972Y0065040D01*
X0019049Y0065017D01*
X0019124Y0064989D01*
X0019197Y0064958D01*
X0019269Y0064924D01*
X0019339Y0064886D01*
X0019407Y0064844D01*
X0019473Y0064799D01*
X0019537Y0064751D01*
X0019598Y0064700D01*
X0019656Y0064645D01*
X0019712Y0064588D01*
X0019765Y0064528D01*
X0019814Y0064466D01*
X0019861Y0064401D01*
X0019904Y0064334D01*
X0019944Y0064265D01*
X0019981Y0064194D01*
X0020013Y0064121D01*
X0020043Y0064047D01*
X0020068Y0063972D01*
X0020090Y0063895D01*
X0020107Y0063817D01*
X0020121Y0063738D01*
X0020131Y0063659D01*
X0020137Y0063580D01*
X0020139Y0063500D01*
X0020137Y0063420D01*
X0020131Y0063341D01*
X0020121Y0063262D01*
X0020107Y0063183D01*
X0020090Y0063105D01*
X0020068Y0063028D01*
X0020043Y0062953D01*
X0020013Y0062879D01*
X0019981Y0062806D01*
X0019944Y0062735D01*
X0019904Y0062666D01*
X0019861Y0062599D01*
X0019814Y0062534D01*
X0019765Y0062472D01*
X0019712Y0062412D01*
X0019656Y0062355D01*
X0019598Y0062300D01*
X0019537Y0062249D01*
X0019473Y0062201D01*
X0019407Y0062156D01*
X0019339Y0062114D01*
X0019269Y0062076D01*
X0019197Y0062042D01*
X0019124Y0062011D01*
X0019049Y0061983D01*
X0018972Y0061960D01*
X0018895Y0061940D01*
X0018817Y0061924D01*
X0018738Y0061912D01*
X0018659Y0061904D01*
X0018579Y0061900D01*
X0018499Y0061900D01*
X0018419Y0061904D01*
X0018340Y0061912D01*
X0018261Y0061924D01*
X0018183Y0061940D01*
X0018106Y0061960D01*
X0018029Y0061983D01*
X0017954Y0062011D01*
X0017881Y0062042D01*
X0017809Y0062076D01*
X0017739Y0062114D01*
X0017671Y0062156D01*
X0017605Y0062201D01*
X0017541Y0062249D01*
X0017480Y0062300D01*
X0017422Y0062355D01*
X0017366Y0062412D01*
X0017313Y0062472D01*
X0017264Y0062534D01*
X0017217Y0062599D01*
X0017174Y0062666D01*
X0017134Y0062735D01*
X0017097Y0062806D01*
X0017065Y0062879D01*
X0017035Y0062953D01*
X0017010Y0063028D01*
X0016988Y0063105D01*
X0016971Y0063183D01*
X0016957Y0063262D01*
X0016947Y0063341D01*
X0016941Y0063420D01*
X0016939Y0063500D01*
X0016939Y0075500D02*
X0016941Y0075580D01*
X0016947Y0075659D01*
X0016957Y0075738D01*
X0016971Y0075817D01*
X0016988Y0075895D01*
X0017010Y0075972D01*
X0017035Y0076047D01*
X0017065Y0076121D01*
X0017097Y0076194D01*
X0017134Y0076265D01*
X0017174Y0076334D01*
X0017217Y0076401D01*
X0017264Y0076466D01*
X0017313Y0076528D01*
X0017366Y0076588D01*
X0017422Y0076645D01*
X0017480Y0076700D01*
X0017541Y0076751D01*
X0017605Y0076799D01*
X0017671Y0076844D01*
X0017739Y0076886D01*
X0017809Y0076924D01*
X0017881Y0076958D01*
X0017954Y0076989D01*
X0018029Y0077017D01*
X0018106Y0077040D01*
X0018183Y0077060D01*
X0018261Y0077076D01*
X0018340Y0077088D01*
X0018419Y0077096D01*
X0018499Y0077100D01*
X0018579Y0077100D01*
X0018659Y0077096D01*
X0018738Y0077088D01*
X0018817Y0077076D01*
X0018895Y0077060D01*
X0018972Y0077040D01*
X0019049Y0077017D01*
X0019124Y0076989D01*
X0019197Y0076958D01*
X0019269Y0076924D01*
X0019339Y0076886D01*
X0019407Y0076844D01*
X0019473Y0076799D01*
X0019537Y0076751D01*
X0019598Y0076700D01*
X0019656Y0076645D01*
X0019712Y0076588D01*
X0019765Y0076528D01*
X0019814Y0076466D01*
X0019861Y0076401D01*
X0019904Y0076334D01*
X0019944Y0076265D01*
X0019981Y0076194D01*
X0020013Y0076121D01*
X0020043Y0076047D01*
X0020068Y0075972D01*
X0020090Y0075895D01*
X0020107Y0075817D01*
X0020121Y0075738D01*
X0020131Y0075659D01*
X0020137Y0075580D01*
X0020139Y0075500D01*
X0020137Y0075420D01*
X0020131Y0075341D01*
X0020121Y0075262D01*
X0020107Y0075183D01*
X0020090Y0075105D01*
X0020068Y0075028D01*
X0020043Y0074953D01*
X0020013Y0074879D01*
X0019981Y0074806D01*
X0019944Y0074735D01*
X0019904Y0074666D01*
X0019861Y0074599D01*
X0019814Y0074534D01*
X0019765Y0074472D01*
X0019712Y0074412D01*
X0019656Y0074355D01*
X0019598Y0074300D01*
X0019537Y0074249D01*
X0019473Y0074201D01*
X0019407Y0074156D01*
X0019339Y0074114D01*
X0019269Y0074076D01*
X0019197Y0074042D01*
X0019124Y0074011D01*
X0019049Y0073983D01*
X0018972Y0073960D01*
X0018895Y0073940D01*
X0018817Y0073924D01*
X0018738Y0073912D01*
X0018659Y0073904D01*
X0018579Y0073900D01*
X0018499Y0073900D01*
X0018419Y0073904D01*
X0018340Y0073912D01*
X0018261Y0073924D01*
X0018183Y0073940D01*
X0018106Y0073960D01*
X0018029Y0073983D01*
X0017954Y0074011D01*
X0017881Y0074042D01*
X0017809Y0074076D01*
X0017739Y0074114D01*
X0017671Y0074156D01*
X0017605Y0074201D01*
X0017541Y0074249D01*
X0017480Y0074300D01*
X0017422Y0074355D01*
X0017366Y0074412D01*
X0017313Y0074472D01*
X0017264Y0074534D01*
X0017217Y0074599D01*
X0017174Y0074666D01*
X0017134Y0074735D01*
X0017097Y0074806D01*
X0017065Y0074879D01*
X0017035Y0074953D01*
X0017010Y0075028D01*
X0016988Y0075105D01*
X0016971Y0075183D01*
X0016957Y0075262D01*
X0016947Y0075341D01*
X0016941Y0075420D01*
X0016939Y0075500D01*
X0088374Y0031972D02*
X0088376Y0032056D01*
X0088382Y0032139D01*
X0088392Y0032222D01*
X0088406Y0032305D01*
X0088423Y0032387D01*
X0088445Y0032468D01*
X0088470Y0032547D01*
X0088499Y0032626D01*
X0088532Y0032703D01*
X0088568Y0032778D01*
X0088608Y0032852D01*
X0088651Y0032924D01*
X0088698Y0032993D01*
X0088748Y0033060D01*
X0088801Y0033125D01*
X0088857Y0033187D01*
X0088915Y0033247D01*
X0088977Y0033304D01*
X0089041Y0033357D01*
X0089108Y0033408D01*
X0089177Y0033455D01*
X0089248Y0033500D01*
X0089321Y0033540D01*
X0089396Y0033577D01*
X0089473Y0033611D01*
X0089551Y0033641D01*
X0089630Y0033667D01*
X0089711Y0033690D01*
X0089793Y0033708D01*
X0089875Y0033723D01*
X0089958Y0033734D01*
X0090041Y0033741D01*
X0090125Y0033744D01*
X0090209Y0033743D01*
X0090292Y0033738D01*
X0090376Y0033729D01*
X0090458Y0033716D01*
X0090540Y0033700D01*
X0090621Y0033679D01*
X0090702Y0033655D01*
X0090780Y0033627D01*
X0090858Y0033595D01*
X0090934Y0033559D01*
X0091008Y0033520D01*
X0091080Y0033478D01*
X0091150Y0033432D01*
X0091218Y0033383D01*
X0091283Y0033331D01*
X0091346Y0033276D01*
X0091406Y0033218D01*
X0091464Y0033157D01*
X0091518Y0033093D01*
X0091570Y0033027D01*
X0091618Y0032959D01*
X0091663Y0032888D01*
X0091704Y0032815D01*
X0091743Y0032741D01*
X0091777Y0032665D01*
X0091808Y0032587D01*
X0091835Y0032508D01*
X0091859Y0032427D01*
X0091878Y0032346D01*
X0091894Y0032264D01*
X0091906Y0032181D01*
X0091914Y0032097D01*
X0091918Y0032014D01*
X0091918Y0031930D01*
X0091914Y0031847D01*
X0091906Y0031763D01*
X0091894Y0031680D01*
X0091878Y0031598D01*
X0091859Y0031517D01*
X0091835Y0031436D01*
X0091808Y0031357D01*
X0091777Y0031279D01*
X0091743Y0031203D01*
X0091704Y0031129D01*
X0091663Y0031056D01*
X0091618Y0030985D01*
X0091570Y0030917D01*
X0091518Y0030851D01*
X0091464Y0030787D01*
X0091406Y0030726D01*
X0091346Y0030668D01*
X0091283Y0030613D01*
X0091218Y0030561D01*
X0091150Y0030512D01*
X0091080Y0030466D01*
X0091008Y0030424D01*
X0090934Y0030385D01*
X0090858Y0030349D01*
X0090780Y0030317D01*
X0090702Y0030289D01*
X0090621Y0030265D01*
X0090540Y0030244D01*
X0090458Y0030228D01*
X0090376Y0030215D01*
X0090292Y0030206D01*
X0090209Y0030201D01*
X0090125Y0030200D01*
X0090041Y0030203D01*
X0089958Y0030210D01*
X0089875Y0030221D01*
X0089793Y0030236D01*
X0089711Y0030254D01*
X0089630Y0030277D01*
X0089551Y0030303D01*
X0089473Y0030333D01*
X0089396Y0030367D01*
X0089321Y0030404D01*
X0089248Y0030444D01*
X0089177Y0030489D01*
X0089108Y0030536D01*
X0089041Y0030587D01*
X0088977Y0030640D01*
X0088915Y0030697D01*
X0088857Y0030757D01*
X0088801Y0030819D01*
X0088748Y0030884D01*
X0088698Y0030951D01*
X0088651Y0031020D01*
X0088608Y0031092D01*
X0088568Y0031166D01*
X0088532Y0031241D01*
X0088499Y0031318D01*
X0088470Y0031397D01*
X0088445Y0031476D01*
X0088423Y0031557D01*
X0088406Y0031639D01*
X0088392Y0031722D01*
X0088382Y0031805D01*
X0088376Y0031888D01*
X0088374Y0031972D01*
X0119870Y0031972D02*
X0119872Y0032056D01*
X0119878Y0032139D01*
X0119888Y0032222D01*
X0119902Y0032305D01*
X0119919Y0032387D01*
X0119941Y0032468D01*
X0119966Y0032547D01*
X0119995Y0032626D01*
X0120028Y0032703D01*
X0120064Y0032778D01*
X0120104Y0032852D01*
X0120147Y0032924D01*
X0120194Y0032993D01*
X0120244Y0033060D01*
X0120297Y0033125D01*
X0120353Y0033187D01*
X0120411Y0033247D01*
X0120473Y0033304D01*
X0120537Y0033357D01*
X0120604Y0033408D01*
X0120673Y0033455D01*
X0120744Y0033500D01*
X0120817Y0033540D01*
X0120892Y0033577D01*
X0120969Y0033611D01*
X0121047Y0033641D01*
X0121126Y0033667D01*
X0121207Y0033690D01*
X0121289Y0033708D01*
X0121371Y0033723D01*
X0121454Y0033734D01*
X0121537Y0033741D01*
X0121621Y0033744D01*
X0121705Y0033743D01*
X0121788Y0033738D01*
X0121872Y0033729D01*
X0121954Y0033716D01*
X0122036Y0033700D01*
X0122117Y0033679D01*
X0122198Y0033655D01*
X0122276Y0033627D01*
X0122354Y0033595D01*
X0122430Y0033559D01*
X0122504Y0033520D01*
X0122576Y0033478D01*
X0122646Y0033432D01*
X0122714Y0033383D01*
X0122779Y0033331D01*
X0122842Y0033276D01*
X0122902Y0033218D01*
X0122960Y0033157D01*
X0123014Y0033093D01*
X0123066Y0033027D01*
X0123114Y0032959D01*
X0123159Y0032888D01*
X0123200Y0032815D01*
X0123239Y0032741D01*
X0123273Y0032665D01*
X0123304Y0032587D01*
X0123331Y0032508D01*
X0123355Y0032427D01*
X0123374Y0032346D01*
X0123390Y0032264D01*
X0123402Y0032181D01*
X0123410Y0032097D01*
X0123414Y0032014D01*
X0123414Y0031930D01*
X0123410Y0031847D01*
X0123402Y0031763D01*
X0123390Y0031680D01*
X0123374Y0031598D01*
X0123355Y0031517D01*
X0123331Y0031436D01*
X0123304Y0031357D01*
X0123273Y0031279D01*
X0123239Y0031203D01*
X0123200Y0031129D01*
X0123159Y0031056D01*
X0123114Y0030985D01*
X0123066Y0030917D01*
X0123014Y0030851D01*
X0122960Y0030787D01*
X0122902Y0030726D01*
X0122842Y0030668D01*
X0122779Y0030613D01*
X0122714Y0030561D01*
X0122646Y0030512D01*
X0122576Y0030466D01*
X0122504Y0030424D01*
X0122430Y0030385D01*
X0122354Y0030349D01*
X0122276Y0030317D01*
X0122198Y0030289D01*
X0122117Y0030265D01*
X0122036Y0030244D01*
X0121954Y0030228D01*
X0121872Y0030215D01*
X0121788Y0030206D01*
X0121705Y0030201D01*
X0121621Y0030200D01*
X0121537Y0030203D01*
X0121454Y0030210D01*
X0121371Y0030221D01*
X0121289Y0030236D01*
X0121207Y0030254D01*
X0121126Y0030277D01*
X0121047Y0030303D01*
X0120969Y0030333D01*
X0120892Y0030367D01*
X0120817Y0030404D01*
X0120744Y0030444D01*
X0120673Y0030489D01*
X0120604Y0030536D01*
X0120537Y0030587D01*
X0120473Y0030640D01*
X0120411Y0030697D01*
X0120353Y0030757D01*
X0120297Y0030819D01*
X0120244Y0030884D01*
X0120194Y0030951D01*
X0120147Y0031020D01*
X0120104Y0031092D01*
X0120064Y0031166D01*
X0120028Y0031241D01*
X0119995Y0031318D01*
X0119966Y0031397D01*
X0119941Y0031476D01*
X0119919Y0031557D01*
X0119902Y0031639D01*
X0119888Y0031722D01*
X0119878Y0031805D01*
X0119872Y0031888D01*
X0119870Y0031972D01*
X0173839Y0020500D02*
X0173841Y0020580D01*
X0173847Y0020659D01*
X0173857Y0020738D01*
X0173871Y0020817D01*
X0173888Y0020895D01*
X0173910Y0020972D01*
X0173935Y0021047D01*
X0173965Y0021121D01*
X0173997Y0021194D01*
X0174034Y0021265D01*
X0174074Y0021334D01*
X0174117Y0021401D01*
X0174164Y0021466D01*
X0174213Y0021528D01*
X0174266Y0021588D01*
X0174322Y0021645D01*
X0174380Y0021700D01*
X0174441Y0021751D01*
X0174505Y0021799D01*
X0174571Y0021844D01*
X0174639Y0021886D01*
X0174709Y0021924D01*
X0174781Y0021958D01*
X0174854Y0021989D01*
X0174929Y0022017D01*
X0175006Y0022040D01*
X0175083Y0022060D01*
X0175161Y0022076D01*
X0175240Y0022088D01*
X0175319Y0022096D01*
X0175399Y0022100D01*
X0175479Y0022100D01*
X0175559Y0022096D01*
X0175638Y0022088D01*
X0175717Y0022076D01*
X0175795Y0022060D01*
X0175872Y0022040D01*
X0175949Y0022017D01*
X0176024Y0021989D01*
X0176097Y0021958D01*
X0176169Y0021924D01*
X0176239Y0021886D01*
X0176307Y0021844D01*
X0176373Y0021799D01*
X0176437Y0021751D01*
X0176498Y0021700D01*
X0176556Y0021645D01*
X0176612Y0021588D01*
X0176665Y0021528D01*
X0176714Y0021466D01*
X0176761Y0021401D01*
X0176804Y0021334D01*
X0176844Y0021265D01*
X0176881Y0021194D01*
X0176913Y0021121D01*
X0176943Y0021047D01*
X0176968Y0020972D01*
X0176990Y0020895D01*
X0177007Y0020817D01*
X0177021Y0020738D01*
X0177031Y0020659D01*
X0177037Y0020580D01*
X0177039Y0020500D01*
X0177037Y0020420D01*
X0177031Y0020341D01*
X0177021Y0020262D01*
X0177007Y0020183D01*
X0176990Y0020105D01*
X0176968Y0020028D01*
X0176943Y0019953D01*
X0176913Y0019879D01*
X0176881Y0019806D01*
X0176844Y0019735D01*
X0176804Y0019666D01*
X0176761Y0019599D01*
X0176714Y0019534D01*
X0176665Y0019472D01*
X0176612Y0019412D01*
X0176556Y0019355D01*
X0176498Y0019300D01*
X0176437Y0019249D01*
X0176373Y0019201D01*
X0176307Y0019156D01*
X0176239Y0019114D01*
X0176169Y0019076D01*
X0176097Y0019042D01*
X0176024Y0019011D01*
X0175949Y0018983D01*
X0175872Y0018960D01*
X0175795Y0018940D01*
X0175717Y0018924D01*
X0175638Y0018912D01*
X0175559Y0018904D01*
X0175479Y0018900D01*
X0175399Y0018900D01*
X0175319Y0018904D01*
X0175240Y0018912D01*
X0175161Y0018924D01*
X0175083Y0018940D01*
X0175006Y0018960D01*
X0174929Y0018983D01*
X0174854Y0019011D01*
X0174781Y0019042D01*
X0174709Y0019076D01*
X0174639Y0019114D01*
X0174571Y0019156D01*
X0174505Y0019201D01*
X0174441Y0019249D01*
X0174380Y0019300D01*
X0174322Y0019355D01*
X0174266Y0019412D01*
X0174213Y0019472D01*
X0174164Y0019534D01*
X0174117Y0019599D01*
X0174074Y0019666D01*
X0174034Y0019735D01*
X0173997Y0019806D01*
X0173965Y0019879D01*
X0173935Y0019953D01*
X0173910Y0020028D01*
X0173888Y0020105D01*
X0173871Y0020183D01*
X0173857Y0020262D01*
X0173847Y0020341D01*
X0173841Y0020420D01*
X0173839Y0020500D01*
X0185839Y0020500D02*
X0185841Y0020580D01*
X0185847Y0020659D01*
X0185857Y0020738D01*
X0185871Y0020817D01*
X0185888Y0020895D01*
X0185910Y0020972D01*
X0185935Y0021047D01*
X0185965Y0021121D01*
X0185997Y0021194D01*
X0186034Y0021265D01*
X0186074Y0021334D01*
X0186117Y0021401D01*
X0186164Y0021466D01*
X0186213Y0021528D01*
X0186266Y0021588D01*
X0186322Y0021645D01*
X0186380Y0021700D01*
X0186441Y0021751D01*
X0186505Y0021799D01*
X0186571Y0021844D01*
X0186639Y0021886D01*
X0186709Y0021924D01*
X0186781Y0021958D01*
X0186854Y0021989D01*
X0186929Y0022017D01*
X0187006Y0022040D01*
X0187083Y0022060D01*
X0187161Y0022076D01*
X0187240Y0022088D01*
X0187319Y0022096D01*
X0187399Y0022100D01*
X0187479Y0022100D01*
X0187559Y0022096D01*
X0187638Y0022088D01*
X0187717Y0022076D01*
X0187795Y0022060D01*
X0187872Y0022040D01*
X0187949Y0022017D01*
X0188024Y0021989D01*
X0188097Y0021958D01*
X0188169Y0021924D01*
X0188239Y0021886D01*
X0188307Y0021844D01*
X0188373Y0021799D01*
X0188437Y0021751D01*
X0188498Y0021700D01*
X0188556Y0021645D01*
X0188612Y0021588D01*
X0188665Y0021528D01*
X0188714Y0021466D01*
X0188761Y0021401D01*
X0188804Y0021334D01*
X0188844Y0021265D01*
X0188881Y0021194D01*
X0188913Y0021121D01*
X0188943Y0021047D01*
X0188968Y0020972D01*
X0188990Y0020895D01*
X0189007Y0020817D01*
X0189021Y0020738D01*
X0189031Y0020659D01*
X0189037Y0020580D01*
X0189039Y0020500D01*
X0189037Y0020420D01*
X0189031Y0020341D01*
X0189021Y0020262D01*
X0189007Y0020183D01*
X0188990Y0020105D01*
X0188968Y0020028D01*
X0188943Y0019953D01*
X0188913Y0019879D01*
X0188881Y0019806D01*
X0188844Y0019735D01*
X0188804Y0019666D01*
X0188761Y0019599D01*
X0188714Y0019534D01*
X0188665Y0019472D01*
X0188612Y0019412D01*
X0188556Y0019355D01*
X0188498Y0019300D01*
X0188437Y0019249D01*
X0188373Y0019201D01*
X0188307Y0019156D01*
X0188239Y0019114D01*
X0188169Y0019076D01*
X0188097Y0019042D01*
X0188024Y0019011D01*
X0187949Y0018983D01*
X0187872Y0018960D01*
X0187795Y0018940D01*
X0187717Y0018924D01*
X0187638Y0018912D01*
X0187559Y0018904D01*
X0187479Y0018900D01*
X0187399Y0018900D01*
X0187319Y0018904D01*
X0187240Y0018912D01*
X0187161Y0018924D01*
X0187083Y0018940D01*
X0187006Y0018960D01*
X0186929Y0018983D01*
X0186854Y0019011D01*
X0186781Y0019042D01*
X0186709Y0019076D01*
X0186639Y0019114D01*
X0186571Y0019156D01*
X0186505Y0019201D01*
X0186441Y0019249D01*
X0186380Y0019300D01*
X0186322Y0019355D01*
X0186266Y0019412D01*
X0186213Y0019472D01*
X0186164Y0019534D01*
X0186117Y0019599D01*
X0186074Y0019666D01*
X0186034Y0019735D01*
X0185997Y0019806D01*
X0185965Y0019879D01*
X0185935Y0019953D01*
X0185910Y0020028D01*
X0185888Y0020105D01*
X0185871Y0020183D01*
X0185857Y0020262D01*
X0185847Y0020341D01*
X0185841Y0020420D01*
X0185839Y0020500D01*
X0398939Y0020500D02*
X0398941Y0020580D01*
X0398947Y0020659D01*
X0398957Y0020738D01*
X0398971Y0020817D01*
X0398988Y0020895D01*
X0399010Y0020972D01*
X0399035Y0021047D01*
X0399065Y0021121D01*
X0399097Y0021194D01*
X0399134Y0021265D01*
X0399174Y0021334D01*
X0399217Y0021401D01*
X0399264Y0021466D01*
X0399313Y0021528D01*
X0399366Y0021588D01*
X0399422Y0021645D01*
X0399480Y0021700D01*
X0399541Y0021751D01*
X0399605Y0021799D01*
X0399671Y0021844D01*
X0399739Y0021886D01*
X0399809Y0021924D01*
X0399881Y0021958D01*
X0399954Y0021989D01*
X0400029Y0022017D01*
X0400106Y0022040D01*
X0400183Y0022060D01*
X0400261Y0022076D01*
X0400340Y0022088D01*
X0400419Y0022096D01*
X0400499Y0022100D01*
X0400579Y0022100D01*
X0400659Y0022096D01*
X0400738Y0022088D01*
X0400817Y0022076D01*
X0400895Y0022060D01*
X0400972Y0022040D01*
X0401049Y0022017D01*
X0401124Y0021989D01*
X0401197Y0021958D01*
X0401269Y0021924D01*
X0401339Y0021886D01*
X0401407Y0021844D01*
X0401473Y0021799D01*
X0401537Y0021751D01*
X0401598Y0021700D01*
X0401656Y0021645D01*
X0401712Y0021588D01*
X0401765Y0021528D01*
X0401814Y0021466D01*
X0401861Y0021401D01*
X0401904Y0021334D01*
X0401944Y0021265D01*
X0401981Y0021194D01*
X0402013Y0021121D01*
X0402043Y0021047D01*
X0402068Y0020972D01*
X0402090Y0020895D01*
X0402107Y0020817D01*
X0402121Y0020738D01*
X0402131Y0020659D01*
X0402137Y0020580D01*
X0402139Y0020500D01*
X0402137Y0020420D01*
X0402131Y0020341D01*
X0402121Y0020262D01*
X0402107Y0020183D01*
X0402090Y0020105D01*
X0402068Y0020028D01*
X0402043Y0019953D01*
X0402013Y0019879D01*
X0401981Y0019806D01*
X0401944Y0019735D01*
X0401904Y0019666D01*
X0401861Y0019599D01*
X0401814Y0019534D01*
X0401765Y0019472D01*
X0401712Y0019412D01*
X0401656Y0019355D01*
X0401598Y0019300D01*
X0401537Y0019249D01*
X0401473Y0019201D01*
X0401407Y0019156D01*
X0401339Y0019114D01*
X0401269Y0019076D01*
X0401197Y0019042D01*
X0401124Y0019011D01*
X0401049Y0018983D01*
X0400972Y0018960D01*
X0400895Y0018940D01*
X0400817Y0018924D01*
X0400738Y0018912D01*
X0400659Y0018904D01*
X0400579Y0018900D01*
X0400499Y0018900D01*
X0400419Y0018904D01*
X0400340Y0018912D01*
X0400261Y0018924D01*
X0400183Y0018940D01*
X0400106Y0018960D01*
X0400029Y0018983D01*
X0399954Y0019011D01*
X0399881Y0019042D01*
X0399809Y0019076D01*
X0399739Y0019114D01*
X0399671Y0019156D01*
X0399605Y0019201D01*
X0399541Y0019249D01*
X0399480Y0019300D01*
X0399422Y0019355D01*
X0399366Y0019412D01*
X0399313Y0019472D01*
X0399264Y0019534D01*
X0399217Y0019599D01*
X0399174Y0019666D01*
X0399134Y0019735D01*
X0399097Y0019806D01*
X0399065Y0019879D01*
X0399035Y0019953D01*
X0399010Y0020028D01*
X0398988Y0020105D01*
X0398971Y0020183D01*
X0398957Y0020262D01*
X0398947Y0020341D01*
X0398941Y0020420D01*
X0398939Y0020500D01*
X0410939Y0020500D02*
X0410941Y0020580D01*
X0410947Y0020659D01*
X0410957Y0020738D01*
X0410971Y0020817D01*
X0410988Y0020895D01*
X0411010Y0020972D01*
X0411035Y0021047D01*
X0411065Y0021121D01*
X0411097Y0021194D01*
X0411134Y0021265D01*
X0411174Y0021334D01*
X0411217Y0021401D01*
X0411264Y0021466D01*
X0411313Y0021528D01*
X0411366Y0021588D01*
X0411422Y0021645D01*
X0411480Y0021700D01*
X0411541Y0021751D01*
X0411605Y0021799D01*
X0411671Y0021844D01*
X0411739Y0021886D01*
X0411809Y0021924D01*
X0411881Y0021958D01*
X0411954Y0021989D01*
X0412029Y0022017D01*
X0412106Y0022040D01*
X0412183Y0022060D01*
X0412261Y0022076D01*
X0412340Y0022088D01*
X0412419Y0022096D01*
X0412499Y0022100D01*
X0412579Y0022100D01*
X0412659Y0022096D01*
X0412738Y0022088D01*
X0412817Y0022076D01*
X0412895Y0022060D01*
X0412972Y0022040D01*
X0413049Y0022017D01*
X0413124Y0021989D01*
X0413197Y0021958D01*
X0413269Y0021924D01*
X0413339Y0021886D01*
X0413407Y0021844D01*
X0413473Y0021799D01*
X0413537Y0021751D01*
X0413598Y0021700D01*
X0413656Y0021645D01*
X0413712Y0021588D01*
X0413765Y0021528D01*
X0413814Y0021466D01*
X0413861Y0021401D01*
X0413904Y0021334D01*
X0413944Y0021265D01*
X0413981Y0021194D01*
X0414013Y0021121D01*
X0414043Y0021047D01*
X0414068Y0020972D01*
X0414090Y0020895D01*
X0414107Y0020817D01*
X0414121Y0020738D01*
X0414131Y0020659D01*
X0414137Y0020580D01*
X0414139Y0020500D01*
X0414137Y0020420D01*
X0414131Y0020341D01*
X0414121Y0020262D01*
X0414107Y0020183D01*
X0414090Y0020105D01*
X0414068Y0020028D01*
X0414043Y0019953D01*
X0414013Y0019879D01*
X0413981Y0019806D01*
X0413944Y0019735D01*
X0413904Y0019666D01*
X0413861Y0019599D01*
X0413814Y0019534D01*
X0413765Y0019472D01*
X0413712Y0019412D01*
X0413656Y0019355D01*
X0413598Y0019300D01*
X0413537Y0019249D01*
X0413473Y0019201D01*
X0413407Y0019156D01*
X0413339Y0019114D01*
X0413269Y0019076D01*
X0413197Y0019042D01*
X0413124Y0019011D01*
X0413049Y0018983D01*
X0412972Y0018960D01*
X0412895Y0018940D01*
X0412817Y0018924D01*
X0412738Y0018912D01*
X0412659Y0018904D01*
X0412579Y0018900D01*
X0412499Y0018900D01*
X0412419Y0018904D01*
X0412340Y0018912D01*
X0412261Y0018924D01*
X0412183Y0018940D01*
X0412106Y0018960D01*
X0412029Y0018983D01*
X0411954Y0019011D01*
X0411881Y0019042D01*
X0411809Y0019076D01*
X0411739Y0019114D01*
X0411671Y0019156D01*
X0411605Y0019201D01*
X0411541Y0019249D01*
X0411480Y0019300D01*
X0411422Y0019355D01*
X0411366Y0019412D01*
X0411313Y0019472D01*
X0411264Y0019534D01*
X0411217Y0019599D01*
X0411174Y0019666D01*
X0411134Y0019735D01*
X0411097Y0019806D01*
X0411065Y0019879D01*
X0411035Y0019953D01*
X0411010Y0020028D01*
X0410988Y0020105D01*
X0410971Y0020183D01*
X0410957Y0020262D01*
X0410947Y0020341D01*
X0410941Y0020420D01*
X0410939Y0020500D01*
X0437279Y0033185D02*
X0437281Y0033338D01*
X0437287Y0033492D01*
X0437297Y0033645D01*
X0437311Y0033797D01*
X0437329Y0033950D01*
X0437351Y0034101D01*
X0437376Y0034252D01*
X0437406Y0034403D01*
X0437440Y0034553D01*
X0437477Y0034701D01*
X0437518Y0034849D01*
X0437563Y0034995D01*
X0437612Y0035141D01*
X0437665Y0035285D01*
X0437721Y0035427D01*
X0437781Y0035568D01*
X0437845Y0035708D01*
X0437912Y0035846D01*
X0437983Y0035982D01*
X0438058Y0036116D01*
X0438135Y0036248D01*
X0438217Y0036378D01*
X0438301Y0036506D01*
X0438389Y0036632D01*
X0438480Y0036755D01*
X0438574Y0036876D01*
X0438672Y0036994D01*
X0438772Y0037110D01*
X0438876Y0037223D01*
X0438982Y0037334D01*
X0439091Y0037442D01*
X0439203Y0037547D01*
X0439317Y0037648D01*
X0439435Y0037747D01*
X0439554Y0037843D01*
X0439676Y0037936D01*
X0439801Y0038025D01*
X0439928Y0038112D01*
X0440057Y0038194D01*
X0440188Y0038274D01*
X0440321Y0038350D01*
X0440456Y0038423D01*
X0440593Y0038492D01*
X0440732Y0038557D01*
X0440872Y0038619D01*
X0441014Y0038677D01*
X0441157Y0038732D01*
X0441302Y0038783D01*
X0441448Y0038830D01*
X0441595Y0038873D01*
X0441743Y0038912D01*
X0441892Y0038948D01*
X0442042Y0038979D01*
X0442193Y0039007D01*
X0442344Y0039031D01*
X0442497Y0039051D01*
X0442649Y0039067D01*
X0442802Y0039079D01*
X0442955Y0039087D01*
X0443108Y0039091D01*
X0443262Y0039091D01*
X0443415Y0039087D01*
X0443568Y0039079D01*
X0443721Y0039067D01*
X0443873Y0039051D01*
X0444026Y0039031D01*
X0444177Y0039007D01*
X0444328Y0038979D01*
X0444478Y0038948D01*
X0444627Y0038912D01*
X0444775Y0038873D01*
X0444922Y0038830D01*
X0445068Y0038783D01*
X0445213Y0038732D01*
X0445356Y0038677D01*
X0445498Y0038619D01*
X0445638Y0038557D01*
X0445777Y0038492D01*
X0445914Y0038423D01*
X0446049Y0038350D01*
X0446182Y0038274D01*
X0446313Y0038194D01*
X0446442Y0038112D01*
X0446569Y0038025D01*
X0446694Y0037936D01*
X0446816Y0037843D01*
X0446935Y0037747D01*
X0447053Y0037648D01*
X0447167Y0037547D01*
X0447279Y0037442D01*
X0447388Y0037334D01*
X0447494Y0037223D01*
X0447598Y0037110D01*
X0447698Y0036994D01*
X0447796Y0036876D01*
X0447890Y0036755D01*
X0447981Y0036632D01*
X0448069Y0036506D01*
X0448153Y0036378D01*
X0448235Y0036248D01*
X0448312Y0036116D01*
X0448387Y0035982D01*
X0448458Y0035846D01*
X0448525Y0035708D01*
X0448589Y0035568D01*
X0448649Y0035427D01*
X0448705Y0035285D01*
X0448758Y0035141D01*
X0448807Y0034995D01*
X0448852Y0034849D01*
X0448893Y0034701D01*
X0448930Y0034553D01*
X0448964Y0034403D01*
X0448994Y0034252D01*
X0449019Y0034101D01*
X0449041Y0033950D01*
X0449059Y0033797D01*
X0449073Y0033645D01*
X0449083Y0033492D01*
X0449089Y0033338D01*
X0449091Y0033185D01*
X0449089Y0033032D01*
X0449083Y0032878D01*
X0449073Y0032725D01*
X0449059Y0032573D01*
X0449041Y0032420D01*
X0449019Y0032269D01*
X0448994Y0032118D01*
X0448964Y0031967D01*
X0448930Y0031817D01*
X0448893Y0031669D01*
X0448852Y0031521D01*
X0448807Y0031375D01*
X0448758Y0031229D01*
X0448705Y0031085D01*
X0448649Y0030943D01*
X0448589Y0030802D01*
X0448525Y0030662D01*
X0448458Y0030524D01*
X0448387Y0030388D01*
X0448312Y0030254D01*
X0448235Y0030122D01*
X0448153Y0029992D01*
X0448069Y0029864D01*
X0447981Y0029738D01*
X0447890Y0029615D01*
X0447796Y0029494D01*
X0447698Y0029376D01*
X0447598Y0029260D01*
X0447494Y0029147D01*
X0447388Y0029036D01*
X0447279Y0028928D01*
X0447167Y0028823D01*
X0447053Y0028722D01*
X0446935Y0028623D01*
X0446816Y0028527D01*
X0446694Y0028434D01*
X0446569Y0028345D01*
X0446442Y0028258D01*
X0446313Y0028176D01*
X0446182Y0028096D01*
X0446049Y0028020D01*
X0445914Y0027947D01*
X0445777Y0027878D01*
X0445638Y0027813D01*
X0445498Y0027751D01*
X0445356Y0027693D01*
X0445213Y0027638D01*
X0445068Y0027587D01*
X0444922Y0027540D01*
X0444775Y0027497D01*
X0444627Y0027458D01*
X0444478Y0027422D01*
X0444328Y0027391D01*
X0444177Y0027363D01*
X0444026Y0027339D01*
X0443873Y0027319D01*
X0443721Y0027303D01*
X0443568Y0027291D01*
X0443415Y0027283D01*
X0443262Y0027279D01*
X0443108Y0027279D01*
X0442955Y0027283D01*
X0442802Y0027291D01*
X0442649Y0027303D01*
X0442497Y0027319D01*
X0442344Y0027339D01*
X0442193Y0027363D01*
X0442042Y0027391D01*
X0441892Y0027422D01*
X0441743Y0027458D01*
X0441595Y0027497D01*
X0441448Y0027540D01*
X0441302Y0027587D01*
X0441157Y0027638D01*
X0441014Y0027693D01*
X0440872Y0027751D01*
X0440732Y0027813D01*
X0440593Y0027878D01*
X0440456Y0027947D01*
X0440321Y0028020D01*
X0440188Y0028096D01*
X0440057Y0028176D01*
X0439928Y0028258D01*
X0439801Y0028345D01*
X0439676Y0028434D01*
X0439554Y0028527D01*
X0439435Y0028623D01*
X0439317Y0028722D01*
X0439203Y0028823D01*
X0439091Y0028928D01*
X0438982Y0029036D01*
X0438876Y0029147D01*
X0438772Y0029260D01*
X0438672Y0029376D01*
X0438574Y0029494D01*
X0438480Y0029615D01*
X0438389Y0029738D01*
X0438301Y0029864D01*
X0438217Y0029992D01*
X0438135Y0030122D01*
X0438058Y0030254D01*
X0437983Y0030388D01*
X0437912Y0030524D01*
X0437845Y0030662D01*
X0437781Y0030802D01*
X0437721Y0030943D01*
X0437665Y0031085D01*
X0437612Y0031229D01*
X0437563Y0031375D01*
X0437518Y0031521D01*
X0437477Y0031669D01*
X0437440Y0031817D01*
X0437406Y0031967D01*
X0437376Y0032118D01*
X0437351Y0032269D01*
X0437329Y0032420D01*
X0437311Y0032573D01*
X0437297Y0032725D01*
X0437287Y0032878D01*
X0437281Y0033032D01*
X0437279Y0033185D01*
X0734633Y0040500D02*
X0734635Y0040653D01*
X0734641Y0040807D01*
X0734651Y0040960D01*
X0734665Y0041112D01*
X0734683Y0041265D01*
X0734705Y0041416D01*
X0734730Y0041567D01*
X0734760Y0041718D01*
X0734794Y0041868D01*
X0734831Y0042016D01*
X0734872Y0042164D01*
X0734917Y0042310D01*
X0734966Y0042456D01*
X0735019Y0042600D01*
X0735075Y0042742D01*
X0735135Y0042883D01*
X0735199Y0043023D01*
X0735266Y0043161D01*
X0735337Y0043297D01*
X0735412Y0043431D01*
X0735489Y0043563D01*
X0735571Y0043693D01*
X0735655Y0043821D01*
X0735743Y0043947D01*
X0735834Y0044070D01*
X0735928Y0044191D01*
X0736026Y0044309D01*
X0736126Y0044425D01*
X0736230Y0044538D01*
X0736336Y0044649D01*
X0736445Y0044757D01*
X0736557Y0044862D01*
X0736671Y0044963D01*
X0736789Y0045062D01*
X0736908Y0045158D01*
X0737030Y0045251D01*
X0737155Y0045340D01*
X0737282Y0045427D01*
X0737411Y0045509D01*
X0737542Y0045589D01*
X0737675Y0045665D01*
X0737810Y0045738D01*
X0737947Y0045807D01*
X0738086Y0045872D01*
X0738226Y0045934D01*
X0738368Y0045992D01*
X0738511Y0046047D01*
X0738656Y0046098D01*
X0738802Y0046145D01*
X0738949Y0046188D01*
X0739097Y0046227D01*
X0739246Y0046263D01*
X0739396Y0046294D01*
X0739547Y0046322D01*
X0739698Y0046346D01*
X0739851Y0046366D01*
X0740003Y0046382D01*
X0740156Y0046394D01*
X0740309Y0046402D01*
X0740462Y0046406D01*
X0740616Y0046406D01*
X0740769Y0046402D01*
X0740922Y0046394D01*
X0741075Y0046382D01*
X0741227Y0046366D01*
X0741380Y0046346D01*
X0741531Y0046322D01*
X0741682Y0046294D01*
X0741832Y0046263D01*
X0741981Y0046227D01*
X0742129Y0046188D01*
X0742276Y0046145D01*
X0742422Y0046098D01*
X0742567Y0046047D01*
X0742710Y0045992D01*
X0742852Y0045934D01*
X0742992Y0045872D01*
X0743131Y0045807D01*
X0743268Y0045738D01*
X0743403Y0045665D01*
X0743536Y0045589D01*
X0743667Y0045509D01*
X0743796Y0045427D01*
X0743923Y0045340D01*
X0744048Y0045251D01*
X0744170Y0045158D01*
X0744289Y0045062D01*
X0744407Y0044963D01*
X0744521Y0044862D01*
X0744633Y0044757D01*
X0744742Y0044649D01*
X0744848Y0044538D01*
X0744952Y0044425D01*
X0745052Y0044309D01*
X0745150Y0044191D01*
X0745244Y0044070D01*
X0745335Y0043947D01*
X0745423Y0043821D01*
X0745507Y0043693D01*
X0745589Y0043563D01*
X0745666Y0043431D01*
X0745741Y0043297D01*
X0745812Y0043161D01*
X0745879Y0043023D01*
X0745943Y0042883D01*
X0746003Y0042742D01*
X0746059Y0042600D01*
X0746112Y0042456D01*
X0746161Y0042310D01*
X0746206Y0042164D01*
X0746247Y0042016D01*
X0746284Y0041868D01*
X0746318Y0041718D01*
X0746348Y0041567D01*
X0746373Y0041416D01*
X0746395Y0041265D01*
X0746413Y0041112D01*
X0746427Y0040960D01*
X0746437Y0040807D01*
X0746443Y0040653D01*
X0746445Y0040500D01*
X0746443Y0040347D01*
X0746437Y0040193D01*
X0746427Y0040040D01*
X0746413Y0039888D01*
X0746395Y0039735D01*
X0746373Y0039584D01*
X0746348Y0039433D01*
X0746318Y0039282D01*
X0746284Y0039132D01*
X0746247Y0038984D01*
X0746206Y0038836D01*
X0746161Y0038690D01*
X0746112Y0038544D01*
X0746059Y0038400D01*
X0746003Y0038258D01*
X0745943Y0038117D01*
X0745879Y0037977D01*
X0745812Y0037839D01*
X0745741Y0037703D01*
X0745666Y0037569D01*
X0745589Y0037437D01*
X0745507Y0037307D01*
X0745423Y0037179D01*
X0745335Y0037053D01*
X0745244Y0036930D01*
X0745150Y0036809D01*
X0745052Y0036691D01*
X0744952Y0036575D01*
X0744848Y0036462D01*
X0744742Y0036351D01*
X0744633Y0036243D01*
X0744521Y0036138D01*
X0744407Y0036037D01*
X0744289Y0035938D01*
X0744170Y0035842D01*
X0744048Y0035749D01*
X0743923Y0035660D01*
X0743796Y0035573D01*
X0743667Y0035491D01*
X0743536Y0035411D01*
X0743403Y0035335D01*
X0743268Y0035262D01*
X0743131Y0035193D01*
X0742992Y0035128D01*
X0742852Y0035066D01*
X0742710Y0035008D01*
X0742567Y0034953D01*
X0742422Y0034902D01*
X0742276Y0034855D01*
X0742129Y0034812D01*
X0741981Y0034773D01*
X0741832Y0034737D01*
X0741682Y0034706D01*
X0741531Y0034678D01*
X0741380Y0034654D01*
X0741227Y0034634D01*
X0741075Y0034618D01*
X0740922Y0034606D01*
X0740769Y0034598D01*
X0740616Y0034594D01*
X0740462Y0034594D01*
X0740309Y0034598D01*
X0740156Y0034606D01*
X0740003Y0034618D01*
X0739851Y0034634D01*
X0739698Y0034654D01*
X0739547Y0034678D01*
X0739396Y0034706D01*
X0739246Y0034737D01*
X0739097Y0034773D01*
X0738949Y0034812D01*
X0738802Y0034855D01*
X0738656Y0034902D01*
X0738511Y0034953D01*
X0738368Y0035008D01*
X0738226Y0035066D01*
X0738086Y0035128D01*
X0737947Y0035193D01*
X0737810Y0035262D01*
X0737675Y0035335D01*
X0737542Y0035411D01*
X0737411Y0035491D01*
X0737282Y0035573D01*
X0737155Y0035660D01*
X0737030Y0035749D01*
X0736908Y0035842D01*
X0736789Y0035938D01*
X0736671Y0036037D01*
X0736557Y0036138D01*
X0736445Y0036243D01*
X0736336Y0036351D01*
X0736230Y0036462D01*
X0736126Y0036575D01*
X0736026Y0036691D01*
X0735928Y0036809D01*
X0735834Y0036930D01*
X0735743Y0037053D01*
X0735655Y0037179D01*
X0735571Y0037307D01*
X0735489Y0037437D01*
X0735412Y0037569D01*
X0735337Y0037703D01*
X0735266Y0037839D01*
X0735199Y0037977D01*
X0735135Y0038117D01*
X0735075Y0038258D01*
X0735019Y0038400D01*
X0734966Y0038544D01*
X0734917Y0038690D01*
X0734872Y0038836D01*
X0734831Y0038984D01*
X0734794Y0039132D01*
X0734760Y0039282D01*
X0734730Y0039433D01*
X0734705Y0039584D01*
X0734683Y0039735D01*
X0734665Y0039888D01*
X0734651Y0040040D01*
X0734641Y0040193D01*
X0734635Y0040347D01*
X0734633Y0040500D01*
X0870350Y0033185D02*
X0870352Y0033338D01*
X0870358Y0033492D01*
X0870368Y0033645D01*
X0870382Y0033797D01*
X0870400Y0033950D01*
X0870422Y0034101D01*
X0870447Y0034252D01*
X0870477Y0034403D01*
X0870511Y0034553D01*
X0870548Y0034701D01*
X0870589Y0034849D01*
X0870634Y0034995D01*
X0870683Y0035141D01*
X0870736Y0035285D01*
X0870792Y0035427D01*
X0870852Y0035568D01*
X0870916Y0035708D01*
X0870983Y0035846D01*
X0871054Y0035982D01*
X0871129Y0036116D01*
X0871206Y0036248D01*
X0871288Y0036378D01*
X0871372Y0036506D01*
X0871460Y0036632D01*
X0871551Y0036755D01*
X0871645Y0036876D01*
X0871743Y0036994D01*
X0871843Y0037110D01*
X0871947Y0037223D01*
X0872053Y0037334D01*
X0872162Y0037442D01*
X0872274Y0037547D01*
X0872388Y0037648D01*
X0872506Y0037747D01*
X0872625Y0037843D01*
X0872747Y0037936D01*
X0872872Y0038025D01*
X0872999Y0038112D01*
X0873128Y0038194D01*
X0873259Y0038274D01*
X0873392Y0038350D01*
X0873527Y0038423D01*
X0873664Y0038492D01*
X0873803Y0038557D01*
X0873943Y0038619D01*
X0874085Y0038677D01*
X0874228Y0038732D01*
X0874373Y0038783D01*
X0874519Y0038830D01*
X0874666Y0038873D01*
X0874814Y0038912D01*
X0874963Y0038948D01*
X0875113Y0038979D01*
X0875264Y0039007D01*
X0875415Y0039031D01*
X0875568Y0039051D01*
X0875720Y0039067D01*
X0875873Y0039079D01*
X0876026Y0039087D01*
X0876179Y0039091D01*
X0876333Y0039091D01*
X0876486Y0039087D01*
X0876639Y0039079D01*
X0876792Y0039067D01*
X0876944Y0039051D01*
X0877097Y0039031D01*
X0877248Y0039007D01*
X0877399Y0038979D01*
X0877549Y0038948D01*
X0877698Y0038912D01*
X0877846Y0038873D01*
X0877993Y0038830D01*
X0878139Y0038783D01*
X0878284Y0038732D01*
X0878427Y0038677D01*
X0878569Y0038619D01*
X0878709Y0038557D01*
X0878848Y0038492D01*
X0878985Y0038423D01*
X0879120Y0038350D01*
X0879253Y0038274D01*
X0879384Y0038194D01*
X0879513Y0038112D01*
X0879640Y0038025D01*
X0879765Y0037936D01*
X0879887Y0037843D01*
X0880006Y0037747D01*
X0880124Y0037648D01*
X0880238Y0037547D01*
X0880350Y0037442D01*
X0880459Y0037334D01*
X0880565Y0037223D01*
X0880669Y0037110D01*
X0880769Y0036994D01*
X0880867Y0036876D01*
X0880961Y0036755D01*
X0881052Y0036632D01*
X0881140Y0036506D01*
X0881224Y0036378D01*
X0881306Y0036248D01*
X0881383Y0036116D01*
X0881458Y0035982D01*
X0881529Y0035846D01*
X0881596Y0035708D01*
X0881660Y0035568D01*
X0881720Y0035427D01*
X0881776Y0035285D01*
X0881829Y0035141D01*
X0881878Y0034995D01*
X0881923Y0034849D01*
X0881964Y0034701D01*
X0882001Y0034553D01*
X0882035Y0034403D01*
X0882065Y0034252D01*
X0882090Y0034101D01*
X0882112Y0033950D01*
X0882130Y0033797D01*
X0882144Y0033645D01*
X0882154Y0033492D01*
X0882160Y0033338D01*
X0882162Y0033185D01*
X0882160Y0033032D01*
X0882154Y0032878D01*
X0882144Y0032725D01*
X0882130Y0032573D01*
X0882112Y0032420D01*
X0882090Y0032269D01*
X0882065Y0032118D01*
X0882035Y0031967D01*
X0882001Y0031817D01*
X0881964Y0031669D01*
X0881923Y0031521D01*
X0881878Y0031375D01*
X0881829Y0031229D01*
X0881776Y0031085D01*
X0881720Y0030943D01*
X0881660Y0030802D01*
X0881596Y0030662D01*
X0881529Y0030524D01*
X0881458Y0030388D01*
X0881383Y0030254D01*
X0881306Y0030122D01*
X0881224Y0029992D01*
X0881140Y0029864D01*
X0881052Y0029738D01*
X0880961Y0029615D01*
X0880867Y0029494D01*
X0880769Y0029376D01*
X0880669Y0029260D01*
X0880565Y0029147D01*
X0880459Y0029036D01*
X0880350Y0028928D01*
X0880238Y0028823D01*
X0880124Y0028722D01*
X0880006Y0028623D01*
X0879887Y0028527D01*
X0879765Y0028434D01*
X0879640Y0028345D01*
X0879513Y0028258D01*
X0879384Y0028176D01*
X0879253Y0028096D01*
X0879120Y0028020D01*
X0878985Y0027947D01*
X0878848Y0027878D01*
X0878709Y0027813D01*
X0878569Y0027751D01*
X0878427Y0027693D01*
X0878284Y0027638D01*
X0878139Y0027587D01*
X0877993Y0027540D01*
X0877846Y0027497D01*
X0877698Y0027458D01*
X0877549Y0027422D01*
X0877399Y0027391D01*
X0877248Y0027363D01*
X0877097Y0027339D01*
X0876944Y0027319D01*
X0876792Y0027303D01*
X0876639Y0027291D01*
X0876486Y0027283D01*
X0876333Y0027279D01*
X0876179Y0027279D01*
X0876026Y0027283D01*
X0875873Y0027291D01*
X0875720Y0027303D01*
X0875568Y0027319D01*
X0875415Y0027339D01*
X0875264Y0027363D01*
X0875113Y0027391D01*
X0874963Y0027422D01*
X0874814Y0027458D01*
X0874666Y0027497D01*
X0874519Y0027540D01*
X0874373Y0027587D01*
X0874228Y0027638D01*
X0874085Y0027693D01*
X0873943Y0027751D01*
X0873803Y0027813D01*
X0873664Y0027878D01*
X0873527Y0027947D01*
X0873392Y0028020D01*
X0873259Y0028096D01*
X0873128Y0028176D01*
X0872999Y0028258D01*
X0872872Y0028345D01*
X0872747Y0028434D01*
X0872625Y0028527D01*
X0872506Y0028623D01*
X0872388Y0028722D01*
X0872274Y0028823D01*
X0872162Y0028928D01*
X0872053Y0029036D01*
X0871947Y0029147D01*
X0871843Y0029260D01*
X0871743Y0029376D01*
X0871645Y0029494D01*
X0871551Y0029615D01*
X0871460Y0029738D01*
X0871372Y0029864D01*
X0871288Y0029992D01*
X0871206Y0030122D01*
X0871129Y0030254D01*
X0871054Y0030388D01*
X0870983Y0030524D01*
X0870916Y0030662D01*
X0870852Y0030802D01*
X0870792Y0030943D01*
X0870736Y0031085D01*
X0870683Y0031229D01*
X0870634Y0031375D01*
X0870589Y0031521D01*
X0870548Y0031669D01*
X0870511Y0031817D01*
X0870477Y0031967D01*
X0870447Y0032118D01*
X0870422Y0032269D01*
X0870400Y0032420D01*
X0870382Y0032573D01*
X0870368Y0032725D01*
X0870358Y0032878D01*
X0870352Y0033032D01*
X0870350Y0033185D01*
X0872039Y0070500D02*
X0872041Y0070661D01*
X0872047Y0070821D01*
X0872057Y0070982D01*
X0872071Y0071142D01*
X0872089Y0071302D01*
X0872110Y0071461D01*
X0872136Y0071620D01*
X0872166Y0071778D01*
X0872199Y0071935D01*
X0872237Y0072092D01*
X0872278Y0072247D01*
X0872323Y0072401D01*
X0872372Y0072554D01*
X0872425Y0072706D01*
X0872481Y0072857D01*
X0872542Y0073006D01*
X0872605Y0073154D01*
X0872673Y0073300D01*
X0872744Y0073444D01*
X0872818Y0073586D01*
X0872896Y0073727D01*
X0872978Y0073865D01*
X0873063Y0074002D01*
X0873151Y0074136D01*
X0873243Y0074268D01*
X0873338Y0074398D01*
X0873436Y0074526D01*
X0873537Y0074651D01*
X0873641Y0074773D01*
X0873748Y0074893D01*
X0873858Y0075010D01*
X0873971Y0075125D01*
X0874087Y0075236D01*
X0874206Y0075345D01*
X0874327Y0075450D01*
X0874451Y0075553D01*
X0874577Y0075653D01*
X0874705Y0075749D01*
X0874836Y0075842D01*
X0874970Y0075932D01*
X0875105Y0076019D01*
X0875243Y0076102D01*
X0875382Y0076182D01*
X0875524Y0076258D01*
X0875667Y0076331D01*
X0875812Y0076400D01*
X0875959Y0076466D01*
X0876107Y0076528D01*
X0876257Y0076586D01*
X0876408Y0076641D01*
X0876561Y0076692D01*
X0876715Y0076739D01*
X0876870Y0076782D01*
X0877026Y0076821D01*
X0877182Y0076857D01*
X0877340Y0076888D01*
X0877498Y0076916D01*
X0877657Y0076940D01*
X0877817Y0076960D01*
X0877977Y0076976D01*
X0878137Y0076988D01*
X0878298Y0076996D01*
X0878459Y0077000D01*
X0878619Y0077000D01*
X0878780Y0076996D01*
X0878941Y0076988D01*
X0879101Y0076976D01*
X0879261Y0076960D01*
X0879421Y0076940D01*
X0879580Y0076916D01*
X0879738Y0076888D01*
X0879896Y0076857D01*
X0880052Y0076821D01*
X0880208Y0076782D01*
X0880363Y0076739D01*
X0880517Y0076692D01*
X0880670Y0076641D01*
X0880821Y0076586D01*
X0880971Y0076528D01*
X0881119Y0076466D01*
X0881266Y0076400D01*
X0881411Y0076331D01*
X0881554Y0076258D01*
X0881696Y0076182D01*
X0881835Y0076102D01*
X0881973Y0076019D01*
X0882108Y0075932D01*
X0882242Y0075842D01*
X0882373Y0075749D01*
X0882501Y0075653D01*
X0882627Y0075553D01*
X0882751Y0075450D01*
X0882872Y0075345D01*
X0882991Y0075236D01*
X0883107Y0075125D01*
X0883220Y0075010D01*
X0883330Y0074893D01*
X0883437Y0074773D01*
X0883541Y0074651D01*
X0883642Y0074526D01*
X0883740Y0074398D01*
X0883835Y0074268D01*
X0883927Y0074136D01*
X0884015Y0074002D01*
X0884100Y0073865D01*
X0884182Y0073727D01*
X0884260Y0073586D01*
X0884334Y0073444D01*
X0884405Y0073300D01*
X0884473Y0073154D01*
X0884536Y0073006D01*
X0884597Y0072857D01*
X0884653Y0072706D01*
X0884706Y0072554D01*
X0884755Y0072401D01*
X0884800Y0072247D01*
X0884841Y0072092D01*
X0884879Y0071935D01*
X0884912Y0071778D01*
X0884942Y0071620D01*
X0884968Y0071461D01*
X0884989Y0071302D01*
X0885007Y0071142D01*
X0885021Y0070982D01*
X0885031Y0070821D01*
X0885037Y0070661D01*
X0885039Y0070500D01*
X0885037Y0070339D01*
X0885031Y0070179D01*
X0885021Y0070018D01*
X0885007Y0069858D01*
X0884989Y0069698D01*
X0884968Y0069539D01*
X0884942Y0069380D01*
X0884912Y0069222D01*
X0884879Y0069065D01*
X0884841Y0068908D01*
X0884800Y0068753D01*
X0884755Y0068599D01*
X0884706Y0068446D01*
X0884653Y0068294D01*
X0884597Y0068143D01*
X0884536Y0067994D01*
X0884473Y0067846D01*
X0884405Y0067700D01*
X0884334Y0067556D01*
X0884260Y0067414D01*
X0884182Y0067273D01*
X0884100Y0067135D01*
X0884015Y0066998D01*
X0883927Y0066864D01*
X0883835Y0066732D01*
X0883740Y0066602D01*
X0883642Y0066474D01*
X0883541Y0066349D01*
X0883437Y0066227D01*
X0883330Y0066107D01*
X0883220Y0065990D01*
X0883107Y0065875D01*
X0882991Y0065764D01*
X0882872Y0065655D01*
X0882751Y0065550D01*
X0882627Y0065447D01*
X0882501Y0065347D01*
X0882373Y0065251D01*
X0882242Y0065158D01*
X0882108Y0065068D01*
X0881973Y0064981D01*
X0881835Y0064898D01*
X0881696Y0064818D01*
X0881554Y0064742D01*
X0881411Y0064669D01*
X0881266Y0064600D01*
X0881119Y0064534D01*
X0880971Y0064472D01*
X0880821Y0064414D01*
X0880670Y0064359D01*
X0880517Y0064308D01*
X0880363Y0064261D01*
X0880208Y0064218D01*
X0880052Y0064179D01*
X0879896Y0064143D01*
X0879738Y0064112D01*
X0879580Y0064084D01*
X0879421Y0064060D01*
X0879261Y0064040D01*
X0879101Y0064024D01*
X0878941Y0064012D01*
X0878780Y0064004D01*
X0878619Y0064000D01*
X0878459Y0064000D01*
X0878298Y0064004D01*
X0878137Y0064012D01*
X0877977Y0064024D01*
X0877817Y0064040D01*
X0877657Y0064060D01*
X0877498Y0064084D01*
X0877340Y0064112D01*
X0877182Y0064143D01*
X0877026Y0064179D01*
X0876870Y0064218D01*
X0876715Y0064261D01*
X0876561Y0064308D01*
X0876408Y0064359D01*
X0876257Y0064414D01*
X0876107Y0064472D01*
X0875959Y0064534D01*
X0875812Y0064600D01*
X0875667Y0064669D01*
X0875524Y0064742D01*
X0875382Y0064818D01*
X0875243Y0064898D01*
X0875105Y0064981D01*
X0874970Y0065068D01*
X0874836Y0065158D01*
X0874705Y0065251D01*
X0874577Y0065347D01*
X0874451Y0065447D01*
X0874327Y0065550D01*
X0874206Y0065655D01*
X0874087Y0065764D01*
X0873971Y0065875D01*
X0873858Y0065990D01*
X0873748Y0066107D01*
X0873641Y0066227D01*
X0873537Y0066349D01*
X0873436Y0066474D01*
X0873338Y0066602D01*
X0873243Y0066732D01*
X0873151Y0066864D01*
X0873063Y0066998D01*
X0872978Y0067135D01*
X0872896Y0067273D01*
X0872818Y0067414D01*
X0872744Y0067556D01*
X0872673Y0067700D01*
X0872605Y0067846D01*
X0872542Y0067994D01*
X0872481Y0068143D01*
X0872425Y0068294D01*
X0872372Y0068446D01*
X0872323Y0068599D01*
X0872278Y0068753D01*
X0872237Y0068908D01*
X0872199Y0069065D01*
X0872166Y0069222D01*
X0872136Y0069380D01*
X0872110Y0069539D01*
X0872089Y0069698D01*
X0872071Y0069858D01*
X0872057Y0070018D01*
X0872047Y0070179D01*
X0872041Y0070339D01*
X0872039Y0070500D01*
X0794633Y0157500D02*
X0794635Y0157653D01*
X0794641Y0157807D01*
X0794651Y0157960D01*
X0794665Y0158112D01*
X0794683Y0158265D01*
X0794705Y0158416D01*
X0794730Y0158567D01*
X0794760Y0158718D01*
X0794794Y0158868D01*
X0794831Y0159016D01*
X0794872Y0159164D01*
X0794917Y0159310D01*
X0794966Y0159456D01*
X0795019Y0159600D01*
X0795075Y0159742D01*
X0795135Y0159883D01*
X0795199Y0160023D01*
X0795266Y0160161D01*
X0795337Y0160297D01*
X0795412Y0160431D01*
X0795489Y0160563D01*
X0795571Y0160693D01*
X0795655Y0160821D01*
X0795743Y0160947D01*
X0795834Y0161070D01*
X0795928Y0161191D01*
X0796026Y0161309D01*
X0796126Y0161425D01*
X0796230Y0161538D01*
X0796336Y0161649D01*
X0796445Y0161757D01*
X0796557Y0161862D01*
X0796671Y0161963D01*
X0796789Y0162062D01*
X0796908Y0162158D01*
X0797030Y0162251D01*
X0797155Y0162340D01*
X0797282Y0162427D01*
X0797411Y0162509D01*
X0797542Y0162589D01*
X0797675Y0162665D01*
X0797810Y0162738D01*
X0797947Y0162807D01*
X0798086Y0162872D01*
X0798226Y0162934D01*
X0798368Y0162992D01*
X0798511Y0163047D01*
X0798656Y0163098D01*
X0798802Y0163145D01*
X0798949Y0163188D01*
X0799097Y0163227D01*
X0799246Y0163263D01*
X0799396Y0163294D01*
X0799547Y0163322D01*
X0799698Y0163346D01*
X0799851Y0163366D01*
X0800003Y0163382D01*
X0800156Y0163394D01*
X0800309Y0163402D01*
X0800462Y0163406D01*
X0800616Y0163406D01*
X0800769Y0163402D01*
X0800922Y0163394D01*
X0801075Y0163382D01*
X0801227Y0163366D01*
X0801380Y0163346D01*
X0801531Y0163322D01*
X0801682Y0163294D01*
X0801832Y0163263D01*
X0801981Y0163227D01*
X0802129Y0163188D01*
X0802276Y0163145D01*
X0802422Y0163098D01*
X0802567Y0163047D01*
X0802710Y0162992D01*
X0802852Y0162934D01*
X0802992Y0162872D01*
X0803131Y0162807D01*
X0803268Y0162738D01*
X0803403Y0162665D01*
X0803536Y0162589D01*
X0803667Y0162509D01*
X0803796Y0162427D01*
X0803923Y0162340D01*
X0804048Y0162251D01*
X0804170Y0162158D01*
X0804289Y0162062D01*
X0804407Y0161963D01*
X0804521Y0161862D01*
X0804633Y0161757D01*
X0804742Y0161649D01*
X0804848Y0161538D01*
X0804952Y0161425D01*
X0805052Y0161309D01*
X0805150Y0161191D01*
X0805244Y0161070D01*
X0805335Y0160947D01*
X0805423Y0160821D01*
X0805507Y0160693D01*
X0805589Y0160563D01*
X0805666Y0160431D01*
X0805741Y0160297D01*
X0805812Y0160161D01*
X0805879Y0160023D01*
X0805943Y0159883D01*
X0806003Y0159742D01*
X0806059Y0159600D01*
X0806112Y0159456D01*
X0806161Y0159310D01*
X0806206Y0159164D01*
X0806247Y0159016D01*
X0806284Y0158868D01*
X0806318Y0158718D01*
X0806348Y0158567D01*
X0806373Y0158416D01*
X0806395Y0158265D01*
X0806413Y0158112D01*
X0806427Y0157960D01*
X0806437Y0157807D01*
X0806443Y0157653D01*
X0806445Y0157500D01*
X0806443Y0157347D01*
X0806437Y0157193D01*
X0806427Y0157040D01*
X0806413Y0156888D01*
X0806395Y0156735D01*
X0806373Y0156584D01*
X0806348Y0156433D01*
X0806318Y0156282D01*
X0806284Y0156132D01*
X0806247Y0155984D01*
X0806206Y0155836D01*
X0806161Y0155690D01*
X0806112Y0155544D01*
X0806059Y0155400D01*
X0806003Y0155258D01*
X0805943Y0155117D01*
X0805879Y0154977D01*
X0805812Y0154839D01*
X0805741Y0154703D01*
X0805666Y0154569D01*
X0805589Y0154437D01*
X0805507Y0154307D01*
X0805423Y0154179D01*
X0805335Y0154053D01*
X0805244Y0153930D01*
X0805150Y0153809D01*
X0805052Y0153691D01*
X0804952Y0153575D01*
X0804848Y0153462D01*
X0804742Y0153351D01*
X0804633Y0153243D01*
X0804521Y0153138D01*
X0804407Y0153037D01*
X0804289Y0152938D01*
X0804170Y0152842D01*
X0804048Y0152749D01*
X0803923Y0152660D01*
X0803796Y0152573D01*
X0803667Y0152491D01*
X0803536Y0152411D01*
X0803403Y0152335D01*
X0803268Y0152262D01*
X0803131Y0152193D01*
X0802992Y0152128D01*
X0802852Y0152066D01*
X0802710Y0152008D01*
X0802567Y0151953D01*
X0802422Y0151902D01*
X0802276Y0151855D01*
X0802129Y0151812D01*
X0801981Y0151773D01*
X0801832Y0151737D01*
X0801682Y0151706D01*
X0801531Y0151678D01*
X0801380Y0151654D01*
X0801227Y0151634D01*
X0801075Y0151618D01*
X0800922Y0151606D01*
X0800769Y0151598D01*
X0800616Y0151594D01*
X0800462Y0151594D01*
X0800309Y0151598D01*
X0800156Y0151606D01*
X0800003Y0151618D01*
X0799851Y0151634D01*
X0799698Y0151654D01*
X0799547Y0151678D01*
X0799396Y0151706D01*
X0799246Y0151737D01*
X0799097Y0151773D01*
X0798949Y0151812D01*
X0798802Y0151855D01*
X0798656Y0151902D01*
X0798511Y0151953D01*
X0798368Y0152008D01*
X0798226Y0152066D01*
X0798086Y0152128D01*
X0797947Y0152193D01*
X0797810Y0152262D01*
X0797675Y0152335D01*
X0797542Y0152411D01*
X0797411Y0152491D01*
X0797282Y0152573D01*
X0797155Y0152660D01*
X0797030Y0152749D01*
X0796908Y0152842D01*
X0796789Y0152938D01*
X0796671Y0153037D01*
X0796557Y0153138D01*
X0796445Y0153243D01*
X0796336Y0153351D01*
X0796230Y0153462D01*
X0796126Y0153575D01*
X0796026Y0153691D01*
X0795928Y0153809D01*
X0795834Y0153930D01*
X0795743Y0154053D01*
X0795655Y0154179D01*
X0795571Y0154307D01*
X0795489Y0154437D01*
X0795412Y0154569D01*
X0795337Y0154703D01*
X0795266Y0154839D01*
X0795199Y0154977D01*
X0795135Y0155117D01*
X0795075Y0155258D01*
X0795019Y0155400D01*
X0794966Y0155544D01*
X0794917Y0155690D01*
X0794872Y0155836D01*
X0794831Y0155984D01*
X0794794Y0156132D01*
X0794760Y0156282D01*
X0794730Y0156433D01*
X0794705Y0156584D01*
X0794683Y0156735D01*
X0794665Y0156888D01*
X0794651Y0157040D01*
X0794641Y0157193D01*
X0794635Y0157347D01*
X0794633Y0157500D01*
X0792370Y0214433D02*
X0792372Y0214580D01*
X0792378Y0214726D01*
X0792388Y0214872D01*
X0792402Y0215018D01*
X0792420Y0215164D01*
X0792441Y0215309D01*
X0792467Y0215453D01*
X0792497Y0215597D01*
X0792530Y0215739D01*
X0792567Y0215881D01*
X0792608Y0216022D01*
X0792653Y0216161D01*
X0792702Y0216300D01*
X0792754Y0216437D01*
X0792811Y0216572D01*
X0792870Y0216706D01*
X0792934Y0216838D01*
X0793001Y0216968D01*
X0793071Y0217097D01*
X0793145Y0217224D01*
X0793222Y0217348D01*
X0793303Y0217471D01*
X0793387Y0217591D01*
X0793474Y0217709D01*
X0793564Y0217824D01*
X0793657Y0217937D01*
X0793754Y0218048D01*
X0793853Y0218156D01*
X0793955Y0218261D01*
X0794060Y0218363D01*
X0794168Y0218462D01*
X0794279Y0218559D01*
X0794392Y0218652D01*
X0794507Y0218742D01*
X0794625Y0218829D01*
X0794745Y0218913D01*
X0794868Y0218994D01*
X0794992Y0219071D01*
X0795119Y0219145D01*
X0795248Y0219215D01*
X0795378Y0219282D01*
X0795510Y0219346D01*
X0795644Y0219405D01*
X0795779Y0219462D01*
X0795916Y0219514D01*
X0796055Y0219563D01*
X0796194Y0219608D01*
X0796335Y0219649D01*
X0796477Y0219686D01*
X0796619Y0219719D01*
X0796763Y0219749D01*
X0796907Y0219775D01*
X0797052Y0219796D01*
X0797198Y0219814D01*
X0797344Y0219828D01*
X0797490Y0219838D01*
X0797636Y0219844D01*
X0797783Y0219846D01*
X0797930Y0219844D01*
X0798076Y0219838D01*
X0798222Y0219828D01*
X0798368Y0219814D01*
X0798514Y0219796D01*
X0798659Y0219775D01*
X0798803Y0219749D01*
X0798947Y0219719D01*
X0799089Y0219686D01*
X0799231Y0219649D01*
X0799372Y0219608D01*
X0799511Y0219563D01*
X0799650Y0219514D01*
X0799787Y0219462D01*
X0799922Y0219405D01*
X0800056Y0219346D01*
X0800188Y0219282D01*
X0800318Y0219215D01*
X0800447Y0219145D01*
X0800574Y0219071D01*
X0800698Y0218994D01*
X0800821Y0218913D01*
X0800941Y0218829D01*
X0801059Y0218742D01*
X0801174Y0218652D01*
X0801287Y0218559D01*
X0801398Y0218462D01*
X0801506Y0218363D01*
X0801611Y0218261D01*
X0801713Y0218156D01*
X0801812Y0218048D01*
X0801909Y0217937D01*
X0802002Y0217824D01*
X0802092Y0217709D01*
X0802179Y0217591D01*
X0802263Y0217471D01*
X0802344Y0217348D01*
X0802421Y0217224D01*
X0802495Y0217097D01*
X0802565Y0216968D01*
X0802632Y0216838D01*
X0802696Y0216706D01*
X0802755Y0216572D01*
X0802812Y0216437D01*
X0802864Y0216300D01*
X0802913Y0216161D01*
X0802958Y0216022D01*
X0802999Y0215881D01*
X0803036Y0215739D01*
X0803069Y0215597D01*
X0803099Y0215453D01*
X0803125Y0215309D01*
X0803146Y0215164D01*
X0803164Y0215018D01*
X0803178Y0214872D01*
X0803188Y0214726D01*
X0803194Y0214580D01*
X0803196Y0214433D01*
X0803194Y0214286D01*
X0803188Y0214140D01*
X0803178Y0213994D01*
X0803164Y0213848D01*
X0803146Y0213702D01*
X0803125Y0213557D01*
X0803099Y0213413D01*
X0803069Y0213269D01*
X0803036Y0213127D01*
X0802999Y0212985D01*
X0802958Y0212844D01*
X0802913Y0212705D01*
X0802864Y0212566D01*
X0802812Y0212429D01*
X0802755Y0212294D01*
X0802696Y0212160D01*
X0802632Y0212028D01*
X0802565Y0211898D01*
X0802495Y0211769D01*
X0802421Y0211642D01*
X0802344Y0211518D01*
X0802263Y0211395D01*
X0802179Y0211275D01*
X0802092Y0211157D01*
X0802002Y0211042D01*
X0801909Y0210929D01*
X0801812Y0210818D01*
X0801713Y0210710D01*
X0801611Y0210605D01*
X0801506Y0210503D01*
X0801398Y0210404D01*
X0801287Y0210307D01*
X0801174Y0210214D01*
X0801059Y0210124D01*
X0800941Y0210037D01*
X0800821Y0209953D01*
X0800698Y0209872D01*
X0800574Y0209795D01*
X0800447Y0209721D01*
X0800318Y0209651D01*
X0800188Y0209584D01*
X0800056Y0209520D01*
X0799922Y0209461D01*
X0799787Y0209404D01*
X0799650Y0209352D01*
X0799511Y0209303D01*
X0799372Y0209258D01*
X0799231Y0209217D01*
X0799089Y0209180D01*
X0798947Y0209147D01*
X0798803Y0209117D01*
X0798659Y0209091D01*
X0798514Y0209070D01*
X0798368Y0209052D01*
X0798222Y0209038D01*
X0798076Y0209028D01*
X0797930Y0209022D01*
X0797783Y0209020D01*
X0797636Y0209022D01*
X0797490Y0209028D01*
X0797344Y0209038D01*
X0797198Y0209052D01*
X0797052Y0209070D01*
X0796907Y0209091D01*
X0796763Y0209117D01*
X0796619Y0209147D01*
X0796477Y0209180D01*
X0796335Y0209217D01*
X0796194Y0209258D01*
X0796055Y0209303D01*
X0795916Y0209352D01*
X0795779Y0209404D01*
X0795644Y0209461D01*
X0795510Y0209520D01*
X0795378Y0209584D01*
X0795248Y0209651D01*
X0795119Y0209721D01*
X0794992Y0209795D01*
X0794868Y0209872D01*
X0794745Y0209953D01*
X0794625Y0210037D01*
X0794507Y0210124D01*
X0794392Y0210214D01*
X0794279Y0210307D01*
X0794168Y0210404D01*
X0794060Y0210503D01*
X0793955Y0210605D01*
X0793853Y0210710D01*
X0793754Y0210818D01*
X0793657Y0210929D01*
X0793564Y0211042D01*
X0793474Y0211157D01*
X0793387Y0211275D01*
X0793303Y0211395D01*
X0793222Y0211518D01*
X0793145Y0211642D01*
X0793071Y0211769D01*
X0793001Y0211898D01*
X0792934Y0212028D01*
X0792870Y0212160D01*
X0792811Y0212294D01*
X0792754Y0212429D01*
X0792702Y0212566D01*
X0792653Y0212705D01*
X0792608Y0212844D01*
X0792567Y0212985D01*
X0792530Y0213127D01*
X0792497Y0213269D01*
X0792467Y0213413D01*
X0792441Y0213557D01*
X0792420Y0213702D01*
X0792402Y0213848D01*
X0792388Y0213994D01*
X0792378Y0214140D01*
X0792372Y0214286D01*
X0792370Y0214433D01*
X0792370Y0304984D02*
X0792372Y0305131D01*
X0792378Y0305277D01*
X0792388Y0305423D01*
X0792402Y0305569D01*
X0792420Y0305715D01*
X0792441Y0305860D01*
X0792467Y0306004D01*
X0792497Y0306148D01*
X0792530Y0306290D01*
X0792567Y0306432D01*
X0792608Y0306573D01*
X0792653Y0306712D01*
X0792702Y0306851D01*
X0792754Y0306988D01*
X0792811Y0307123D01*
X0792870Y0307257D01*
X0792934Y0307389D01*
X0793001Y0307519D01*
X0793071Y0307648D01*
X0793145Y0307775D01*
X0793222Y0307899D01*
X0793303Y0308022D01*
X0793387Y0308142D01*
X0793474Y0308260D01*
X0793564Y0308375D01*
X0793657Y0308488D01*
X0793754Y0308599D01*
X0793853Y0308707D01*
X0793955Y0308812D01*
X0794060Y0308914D01*
X0794168Y0309013D01*
X0794279Y0309110D01*
X0794392Y0309203D01*
X0794507Y0309293D01*
X0794625Y0309380D01*
X0794745Y0309464D01*
X0794868Y0309545D01*
X0794992Y0309622D01*
X0795119Y0309696D01*
X0795248Y0309766D01*
X0795378Y0309833D01*
X0795510Y0309897D01*
X0795644Y0309956D01*
X0795779Y0310013D01*
X0795916Y0310065D01*
X0796055Y0310114D01*
X0796194Y0310159D01*
X0796335Y0310200D01*
X0796477Y0310237D01*
X0796619Y0310270D01*
X0796763Y0310300D01*
X0796907Y0310326D01*
X0797052Y0310347D01*
X0797198Y0310365D01*
X0797344Y0310379D01*
X0797490Y0310389D01*
X0797636Y0310395D01*
X0797783Y0310397D01*
X0797930Y0310395D01*
X0798076Y0310389D01*
X0798222Y0310379D01*
X0798368Y0310365D01*
X0798514Y0310347D01*
X0798659Y0310326D01*
X0798803Y0310300D01*
X0798947Y0310270D01*
X0799089Y0310237D01*
X0799231Y0310200D01*
X0799372Y0310159D01*
X0799511Y0310114D01*
X0799650Y0310065D01*
X0799787Y0310013D01*
X0799922Y0309956D01*
X0800056Y0309897D01*
X0800188Y0309833D01*
X0800318Y0309766D01*
X0800447Y0309696D01*
X0800574Y0309622D01*
X0800698Y0309545D01*
X0800821Y0309464D01*
X0800941Y0309380D01*
X0801059Y0309293D01*
X0801174Y0309203D01*
X0801287Y0309110D01*
X0801398Y0309013D01*
X0801506Y0308914D01*
X0801611Y0308812D01*
X0801713Y0308707D01*
X0801812Y0308599D01*
X0801909Y0308488D01*
X0802002Y0308375D01*
X0802092Y0308260D01*
X0802179Y0308142D01*
X0802263Y0308022D01*
X0802344Y0307899D01*
X0802421Y0307775D01*
X0802495Y0307648D01*
X0802565Y0307519D01*
X0802632Y0307389D01*
X0802696Y0307257D01*
X0802755Y0307123D01*
X0802812Y0306988D01*
X0802864Y0306851D01*
X0802913Y0306712D01*
X0802958Y0306573D01*
X0802999Y0306432D01*
X0803036Y0306290D01*
X0803069Y0306148D01*
X0803099Y0306004D01*
X0803125Y0305860D01*
X0803146Y0305715D01*
X0803164Y0305569D01*
X0803178Y0305423D01*
X0803188Y0305277D01*
X0803194Y0305131D01*
X0803196Y0304984D01*
X0803194Y0304837D01*
X0803188Y0304691D01*
X0803178Y0304545D01*
X0803164Y0304399D01*
X0803146Y0304253D01*
X0803125Y0304108D01*
X0803099Y0303964D01*
X0803069Y0303820D01*
X0803036Y0303678D01*
X0802999Y0303536D01*
X0802958Y0303395D01*
X0802913Y0303256D01*
X0802864Y0303117D01*
X0802812Y0302980D01*
X0802755Y0302845D01*
X0802696Y0302711D01*
X0802632Y0302579D01*
X0802565Y0302449D01*
X0802495Y0302320D01*
X0802421Y0302193D01*
X0802344Y0302069D01*
X0802263Y0301946D01*
X0802179Y0301826D01*
X0802092Y0301708D01*
X0802002Y0301593D01*
X0801909Y0301480D01*
X0801812Y0301369D01*
X0801713Y0301261D01*
X0801611Y0301156D01*
X0801506Y0301054D01*
X0801398Y0300955D01*
X0801287Y0300858D01*
X0801174Y0300765D01*
X0801059Y0300675D01*
X0800941Y0300588D01*
X0800821Y0300504D01*
X0800698Y0300423D01*
X0800574Y0300346D01*
X0800447Y0300272D01*
X0800318Y0300202D01*
X0800188Y0300135D01*
X0800056Y0300071D01*
X0799922Y0300012D01*
X0799787Y0299955D01*
X0799650Y0299903D01*
X0799511Y0299854D01*
X0799372Y0299809D01*
X0799231Y0299768D01*
X0799089Y0299731D01*
X0798947Y0299698D01*
X0798803Y0299668D01*
X0798659Y0299642D01*
X0798514Y0299621D01*
X0798368Y0299603D01*
X0798222Y0299589D01*
X0798076Y0299579D01*
X0797930Y0299573D01*
X0797783Y0299571D01*
X0797636Y0299573D01*
X0797490Y0299579D01*
X0797344Y0299589D01*
X0797198Y0299603D01*
X0797052Y0299621D01*
X0796907Y0299642D01*
X0796763Y0299668D01*
X0796619Y0299698D01*
X0796477Y0299731D01*
X0796335Y0299768D01*
X0796194Y0299809D01*
X0796055Y0299854D01*
X0795916Y0299903D01*
X0795779Y0299955D01*
X0795644Y0300012D01*
X0795510Y0300071D01*
X0795378Y0300135D01*
X0795248Y0300202D01*
X0795119Y0300272D01*
X0794992Y0300346D01*
X0794868Y0300423D01*
X0794745Y0300504D01*
X0794625Y0300588D01*
X0794507Y0300675D01*
X0794392Y0300765D01*
X0794279Y0300858D01*
X0794168Y0300955D01*
X0794060Y0301054D01*
X0793955Y0301156D01*
X0793853Y0301261D01*
X0793754Y0301369D01*
X0793657Y0301480D01*
X0793564Y0301593D01*
X0793474Y0301708D01*
X0793387Y0301826D01*
X0793303Y0301946D01*
X0793222Y0302069D01*
X0793145Y0302193D01*
X0793071Y0302320D01*
X0793001Y0302449D01*
X0792934Y0302579D01*
X0792870Y0302711D01*
X0792811Y0302845D01*
X0792754Y0302980D01*
X0792702Y0303117D01*
X0792653Y0303256D01*
X0792608Y0303395D01*
X0792567Y0303536D01*
X0792530Y0303678D01*
X0792497Y0303820D01*
X0792467Y0303964D01*
X0792441Y0304108D01*
X0792420Y0304253D01*
X0792402Y0304399D01*
X0792388Y0304545D01*
X0792378Y0304691D01*
X0792372Y0304837D01*
X0792370Y0304984D01*
X0791610Y0407201D02*
X0791612Y0407354D01*
X0791618Y0407508D01*
X0791628Y0407661D01*
X0791642Y0407813D01*
X0791660Y0407966D01*
X0791682Y0408117D01*
X0791707Y0408268D01*
X0791737Y0408419D01*
X0791771Y0408569D01*
X0791808Y0408717D01*
X0791849Y0408865D01*
X0791894Y0409011D01*
X0791943Y0409157D01*
X0791996Y0409301D01*
X0792052Y0409443D01*
X0792112Y0409584D01*
X0792176Y0409724D01*
X0792243Y0409862D01*
X0792314Y0409998D01*
X0792389Y0410132D01*
X0792466Y0410264D01*
X0792548Y0410394D01*
X0792632Y0410522D01*
X0792720Y0410648D01*
X0792811Y0410771D01*
X0792905Y0410892D01*
X0793003Y0411010D01*
X0793103Y0411126D01*
X0793207Y0411239D01*
X0793313Y0411350D01*
X0793422Y0411458D01*
X0793534Y0411563D01*
X0793648Y0411664D01*
X0793766Y0411763D01*
X0793885Y0411859D01*
X0794007Y0411952D01*
X0794132Y0412041D01*
X0794259Y0412128D01*
X0794388Y0412210D01*
X0794519Y0412290D01*
X0794652Y0412366D01*
X0794787Y0412439D01*
X0794924Y0412508D01*
X0795063Y0412573D01*
X0795203Y0412635D01*
X0795345Y0412693D01*
X0795488Y0412748D01*
X0795633Y0412799D01*
X0795779Y0412846D01*
X0795926Y0412889D01*
X0796074Y0412928D01*
X0796223Y0412964D01*
X0796373Y0412995D01*
X0796524Y0413023D01*
X0796675Y0413047D01*
X0796828Y0413067D01*
X0796980Y0413083D01*
X0797133Y0413095D01*
X0797286Y0413103D01*
X0797439Y0413107D01*
X0797593Y0413107D01*
X0797746Y0413103D01*
X0797899Y0413095D01*
X0798052Y0413083D01*
X0798204Y0413067D01*
X0798357Y0413047D01*
X0798508Y0413023D01*
X0798659Y0412995D01*
X0798809Y0412964D01*
X0798958Y0412928D01*
X0799106Y0412889D01*
X0799253Y0412846D01*
X0799399Y0412799D01*
X0799544Y0412748D01*
X0799687Y0412693D01*
X0799829Y0412635D01*
X0799969Y0412573D01*
X0800108Y0412508D01*
X0800245Y0412439D01*
X0800380Y0412366D01*
X0800513Y0412290D01*
X0800644Y0412210D01*
X0800773Y0412128D01*
X0800900Y0412041D01*
X0801025Y0411952D01*
X0801147Y0411859D01*
X0801266Y0411763D01*
X0801384Y0411664D01*
X0801498Y0411563D01*
X0801610Y0411458D01*
X0801719Y0411350D01*
X0801825Y0411239D01*
X0801929Y0411126D01*
X0802029Y0411010D01*
X0802127Y0410892D01*
X0802221Y0410771D01*
X0802312Y0410648D01*
X0802400Y0410522D01*
X0802484Y0410394D01*
X0802566Y0410264D01*
X0802643Y0410132D01*
X0802718Y0409998D01*
X0802789Y0409862D01*
X0802856Y0409724D01*
X0802920Y0409584D01*
X0802980Y0409443D01*
X0803036Y0409301D01*
X0803089Y0409157D01*
X0803138Y0409011D01*
X0803183Y0408865D01*
X0803224Y0408717D01*
X0803261Y0408569D01*
X0803295Y0408419D01*
X0803325Y0408268D01*
X0803350Y0408117D01*
X0803372Y0407966D01*
X0803390Y0407813D01*
X0803404Y0407661D01*
X0803414Y0407508D01*
X0803420Y0407354D01*
X0803422Y0407201D01*
X0803420Y0407048D01*
X0803414Y0406894D01*
X0803404Y0406741D01*
X0803390Y0406589D01*
X0803372Y0406436D01*
X0803350Y0406285D01*
X0803325Y0406134D01*
X0803295Y0405983D01*
X0803261Y0405833D01*
X0803224Y0405685D01*
X0803183Y0405537D01*
X0803138Y0405391D01*
X0803089Y0405245D01*
X0803036Y0405101D01*
X0802980Y0404959D01*
X0802920Y0404818D01*
X0802856Y0404678D01*
X0802789Y0404540D01*
X0802718Y0404404D01*
X0802643Y0404270D01*
X0802566Y0404138D01*
X0802484Y0404008D01*
X0802400Y0403880D01*
X0802312Y0403754D01*
X0802221Y0403631D01*
X0802127Y0403510D01*
X0802029Y0403392D01*
X0801929Y0403276D01*
X0801825Y0403163D01*
X0801719Y0403052D01*
X0801610Y0402944D01*
X0801498Y0402839D01*
X0801384Y0402738D01*
X0801266Y0402639D01*
X0801147Y0402543D01*
X0801025Y0402450D01*
X0800900Y0402361D01*
X0800773Y0402274D01*
X0800644Y0402192D01*
X0800513Y0402112D01*
X0800380Y0402036D01*
X0800245Y0401963D01*
X0800108Y0401894D01*
X0799969Y0401829D01*
X0799829Y0401767D01*
X0799687Y0401709D01*
X0799544Y0401654D01*
X0799399Y0401603D01*
X0799253Y0401556D01*
X0799106Y0401513D01*
X0798958Y0401474D01*
X0798809Y0401438D01*
X0798659Y0401407D01*
X0798508Y0401379D01*
X0798357Y0401355D01*
X0798204Y0401335D01*
X0798052Y0401319D01*
X0797899Y0401307D01*
X0797746Y0401299D01*
X0797593Y0401295D01*
X0797439Y0401295D01*
X0797286Y0401299D01*
X0797133Y0401307D01*
X0796980Y0401319D01*
X0796828Y0401335D01*
X0796675Y0401355D01*
X0796524Y0401379D01*
X0796373Y0401407D01*
X0796223Y0401438D01*
X0796074Y0401474D01*
X0795926Y0401513D01*
X0795779Y0401556D01*
X0795633Y0401603D01*
X0795488Y0401654D01*
X0795345Y0401709D01*
X0795203Y0401767D01*
X0795063Y0401829D01*
X0794924Y0401894D01*
X0794787Y0401963D01*
X0794652Y0402036D01*
X0794519Y0402112D01*
X0794388Y0402192D01*
X0794259Y0402274D01*
X0794132Y0402361D01*
X0794007Y0402450D01*
X0793885Y0402543D01*
X0793766Y0402639D01*
X0793648Y0402738D01*
X0793534Y0402839D01*
X0793422Y0402944D01*
X0793313Y0403052D01*
X0793207Y0403163D01*
X0793103Y0403276D01*
X0793003Y0403392D01*
X0792905Y0403510D01*
X0792811Y0403631D01*
X0792720Y0403754D01*
X0792632Y0403880D01*
X0792548Y0404008D01*
X0792466Y0404138D01*
X0792389Y0404270D01*
X0792314Y0404404D01*
X0792243Y0404540D01*
X0792176Y0404678D01*
X0792112Y0404818D01*
X0792052Y0404959D01*
X0791996Y0405101D01*
X0791943Y0405245D01*
X0791894Y0405391D01*
X0791849Y0405537D01*
X0791808Y0405685D01*
X0791771Y0405833D01*
X0791737Y0405983D01*
X0791707Y0406134D01*
X0791682Y0406285D01*
X0791660Y0406436D01*
X0791642Y0406589D01*
X0791628Y0406741D01*
X0791618Y0406894D01*
X0791612Y0407048D01*
X0791610Y0407201D01*
X0792370Y0407346D02*
X0792372Y0407493D01*
X0792378Y0407639D01*
X0792388Y0407785D01*
X0792402Y0407931D01*
X0792420Y0408077D01*
X0792441Y0408222D01*
X0792467Y0408366D01*
X0792497Y0408510D01*
X0792530Y0408652D01*
X0792567Y0408794D01*
X0792608Y0408935D01*
X0792653Y0409074D01*
X0792702Y0409213D01*
X0792754Y0409350D01*
X0792811Y0409485D01*
X0792870Y0409619D01*
X0792934Y0409751D01*
X0793001Y0409881D01*
X0793071Y0410010D01*
X0793145Y0410137D01*
X0793222Y0410261D01*
X0793303Y0410384D01*
X0793387Y0410504D01*
X0793474Y0410622D01*
X0793564Y0410737D01*
X0793657Y0410850D01*
X0793754Y0410961D01*
X0793853Y0411069D01*
X0793955Y0411174D01*
X0794060Y0411276D01*
X0794168Y0411375D01*
X0794279Y0411472D01*
X0794392Y0411565D01*
X0794507Y0411655D01*
X0794625Y0411742D01*
X0794745Y0411826D01*
X0794868Y0411907D01*
X0794992Y0411984D01*
X0795119Y0412058D01*
X0795248Y0412128D01*
X0795378Y0412195D01*
X0795510Y0412259D01*
X0795644Y0412318D01*
X0795779Y0412375D01*
X0795916Y0412427D01*
X0796055Y0412476D01*
X0796194Y0412521D01*
X0796335Y0412562D01*
X0796477Y0412599D01*
X0796619Y0412632D01*
X0796763Y0412662D01*
X0796907Y0412688D01*
X0797052Y0412709D01*
X0797198Y0412727D01*
X0797344Y0412741D01*
X0797490Y0412751D01*
X0797636Y0412757D01*
X0797783Y0412759D01*
X0797930Y0412757D01*
X0798076Y0412751D01*
X0798222Y0412741D01*
X0798368Y0412727D01*
X0798514Y0412709D01*
X0798659Y0412688D01*
X0798803Y0412662D01*
X0798947Y0412632D01*
X0799089Y0412599D01*
X0799231Y0412562D01*
X0799372Y0412521D01*
X0799511Y0412476D01*
X0799650Y0412427D01*
X0799787Y0412375D01*
X0799922Y0412318D01*
X0800056Y0412259D01*
X0800188Y0412195D01*
X0800318Y0412128D01*
X0800447Y0412058D01*
X0800574Y0411984D01*
X0800698Y0411907D01*
X0800821Y0411826D01*
X0800941Y0411742D01*
X0801059Y0411655D01*
X0801174Y0411565D01*
X0801287Y0411472D01*
X0801398Y0411375D01*
X0801506Y0411276D01*
X0801611Y0411174D01*
X0801713Y0411069D01*
X0801812Y0410961D01*
X0801909Y0410850D01*
X0802002Y0410737D01*
X0802092Y0410622D01*
X0802179Y0410504D01*
X0802263Y0410384D01*
X0802344Y0410261D01*
X0802421Y0410137D01*
X0802495Y0410010D01*
X0802565Y0409881D01*
X0802632Y0409751D01*
X0802696Y0409619D01*
X0802755Y0409485D01*
X0802812Y0409350D01*
X0802864Y0409213D01*
X0802913Y0409074D01*
X0802958Y0408935D01*
X0802999Y0408794D01*
X0803036Y0408652D01*
X0803069Y0408510D01*
X0803099Y0408366D01*
X0803125Y0408222D01*
X0803146Y0408077D01*
X0803164Y0407931D01*
X0803178Y0407785D01*
X0803188Y0407639D01*
X0803194Y0407493D01*
X0803196Y0407346D01*
X0803194Y0407199D01*
X0803188Y0407053D01*
X0803178Y0406907D01*
X0803164Y0406761D01*
X0803146Y0406615D01*
X0803125Y0406470D01*
X0803099Y0406326D01*
X0803069Y0406182D01*
X0803036Y0406040D01*
X0802999Y0405898D01*
X0802958Y0405757D01*
X0802913Y0405618D01*
X0802864Y0405479D01*
X0802812Y0405342D01*
X0802755Y0405207D01*
X0802696Y0405073D01*
X0802632Y0404941D01*
X0802565Y0404811D01*
X0802495Y0404682D01*
X0802421Y0404555D01*
X0802344Y0404431D01*
X0802263Y0404308D01*
X0802179Y0404188D01*
X0802092Y0404070D01*
X0802002Y0403955D01*
X0801909Y0403842D01*
X0801812Y0403731D01*
X0801713Y0403623D01*
X0801611Y0403518D01*
X0801506Y0403416D01*
X0801398Y0403317D01*
X0801287Y0403220D01*
X0801174Y0403127D01*
X0801059Y0403037D01*
X0800941Y0402950D01*
X0800821Y0402866D01*
X0800698Y0402785D01*
X0800574Y0402708D01*
X0800447Y0402634D01*
X0800318Y0402564D01*
X0800188Y0402497D01*
X0800056Y0402433D01*
X0799922Y0402374D01*
X0799787Y0402317D01*
X0799650Y0402265D01*
X0799511Y0402216D01*
X0799372Y0402171D01*
X0799231Y0402130D01*
X0799089Y0402093D01*
X0798947Y0402060D01*
X0798803Y0402030D01*
X0798659Y0402004D01*
X0798514Y0401983D01*
X0798368Y0401965D01*
X0798222Y0401951D01*
X0798076Y0401941D01*
X0797930Y0401935D01*
X0797783Y0401933D01*
X0797636Y0401935D01*
X0797490Y0401941D01*
X0797344Y0401951D01*
X0797198Y0401965D01*
X0797052Y0401983D01*
X0796907Y0402004D01*
X0796763Y0402030D01*
X0796619Y0402060D01*
X0796477Y0402093D01*
X0796335Y0402130D01*
X0796194Y0402171D01*
X0796055Y0402216D01*
X0795916Y0402265D01*
X0795779Y0402317D01*
X0795644Y0402374D01*
X0795510Y0402433D01*
X0795378Y0402497D01*
X0795248Y0402564D01*
X0795119Y0402634D01*
X0794992Y0402708D01*
X0794868Y0402785D01*
X0794745Y0402866D01*
X0794625Y0402950D01*
X0794507Y0403037D01*
X0794392Y0403127D01*
X0794279Y0403220D01*
X0794168Y0403317D01*
X0794060Y0403416D01*
X0793955Y0403518D01*
X0793853Y0403623D01*
X0793754Y0403731D01*
X0793657Y0403842D01*
X0793564Y0403955D01*
X0793474Y0404070D01*
X0793387Y0404188D01*
X0793303Y0404308D01*
X0793222Y0404431D01*
X0793145Y0404555D01*
X0793071Y0404682D01*
X0793001Y0404811D01*
X0792934Y0404941D01*
X0792870Y0405073D01*
X0792811Y0405207D01*
X0792754Y0405342D01*
X0792702Y0405479D01*
X0792653Y0405618D01*
X0792608Y0405757D01*
X0792567Y0405898D01*
X0792530Y0406040D01*
X0792497Y0406182D01*
X0792467Y0406326D01*
X0792441Y0406470D01*
X0792420Y0406615D01*
X0792402Y0406761D01*
X0792388Y0406907D01*
X0792378Y0407053D01*
X0792372Y0407199D01*
X0792370Y0407346D01*
X0564024Y0407346D02*
X0564026Y0407493D01*
X0564032Y0407639D01*
X0564042Y0407785D01*
X0564056Y0407931D01*
X0564074Y0408077D01*
X0564095Y0408222D01*
X0564121Y0408366D01*
X0564151Y0408510D01*
X0564184Y0408652D01*
X0564221Y0408794D01*
X0564262Y0408935D01*
X0564307Y0409074D01*
X0564356Y0409213D01*
X0564408Y0409350D01*
X0564465Y0409485D01*
X0564524Y0409619D01*
X0564588Y0409751D01*
X0564655Y0409881D01*
X0564725Y0410010D01*
X0564799Y0410137D01*
X0564876Y0410261D01*
X0564957Y0410384D01*
X0565041Y0410504D01*
X0565128Y0410622D01*
X0565218Y0410737D01*
X0565311Y0410850D01*
X0565408Y0410961D01*
X0565507Y0411069D01*
X0565609Y0411174D01*
X0565714Y0411276D01*
X0565822Y0411375D01*
X0565933Y0411472D01*
X0566046Y0411565D01*
X0566161Y0411655D01*
X0566279Y0411742D01*
X0566399Y0411826D01*
X0566522Y0411907D01*
X0566646Y0411984D01*
X0566773Y0412058D01*
X0566902Y0412128D01*
X0567032Y0412195D01*
X0567164Y0412259D01*
X0567298Y0412318D01*
X0567433Y0412375D01*
X0567570Y0412427D01*
X0567709Y0412476D01*
X0567848Y0412521D01*
X0567989Y0412562D01*
X0568131Y0412599D01*
X0568273Y0412632D01*
X0568417Y0412662D01*
X0568561Y0412688D01*
X0568706Y0412709D01*
X0568852Y0412727D01*
X0568998Y0412741D01*
X0569144Y0412751D01*
X0569290Y0412757D01*
X0569437Y0412759D01*
X0569584Y0412757D01*
X0569730Y0412751D01*
X0569876Y0412741D01*
X0570022Y0412727D01*
X0570168Y0412709D01*
X0570313Y0412688D01*
X0570457Y0412662D01*
X0570601Y0412632D01*
X0570743Y0412599D01*
X0570885Y0412562D01*
X0571026Y0412521D01*
X0571165Y0412476D01*
X0571304Y0412427D01*
X0571441Y0412375D01*
X0571576Y0412318D01*
X0571710Y0412259D01*
X0571842Y0412195D01*
X0571972Y0412128D01*
X0572101Y0412058D01*
X0572228Y0411984D01*
X0572352Y0411907D01*
X0572475Y0411826D01*
X0572595Y0411742D01*
X0572713Y0411655D01*
X0572828Y0411565D01*
X0572941Y0411472D01*
X0573052Y0411375D01*
X0573160Y0411276D01*
X0573265Y0411174D01*
X0573367Y0411069D01*
X0573466Y0410961D01*
X0573563Y0410850D01*
X0573656Y0410737D01*
X0573746Y0410622D01*
X0573833Y0410504D01*
X0573917Y0410384D01*
X0573998Y0410261D01*
X0574075Y0410137D01*
X0574149Y0410010D01*
X0574219Y0409881D01*
X0574286Y0409751D01*
X0574350Y0409619D01*
X0574409Y0409485D01*
X0574466Y0409350D01*
X0574518Y0409213D01*
X0574567Y0409074D01*
X0574612Y0408935D01*
X0574653Y0408794D01*
X0574690Y0408652D01*
X0574723Y0408510D01*
X0574753Y0408366D01*
X0574779Y0408222D01*
X0574800Y0408077D01*
X0574818Y0407931D01*
X0574832Y0407785D01*
X0574842Y0407639D01*
X0574848Y0407493D01*
X0574850Y0407346D01*
X0574848Y0407199D01*
X0574842Y0407053D01*
X0574832Y0406907D01*
X0574818Y0406761D01*
X0574800Y0406615D01*
X0574779Y0406470D01*
X0574753Y0406326D01*
X0574723Y0406182D01*
X0574690Y0406040D01*
X0574653Y0405898D01*
X0574612Y0405757D01*
X0574567Y0405618D01*
X0574518Y0405479D01*
X0574466Y0405342D01*
X0574409Y0405207D01*
X0574350Y0405073D01*
X0574286Y0404941D01*
X0574219Y0404811D01*
X0574149Y0404682D01*
X0574075Y0404555D01*
X0573998Y0404431D01*
X0573917Y0404308D01*
X0573833Y0404188D01*
X0573746Y0404070D01*
X0573656Y0403955D01*
X0573563Y0403842D01*
X0573466Y0403731D01*
X0573367Y0403623D01*
X0573265Y0403518D01*
X0573160Y0403416D01*
X0573052Y0403317D01*
X0572941Y0403220D01*
X0572828Y0403127D01*
X0572713Y0403037D01*
X0572595Y0402950D01*
X0572475Y0402866D01*
X0572352Y0402785D01*
X0572228Y0402708D01*
X0572101Y0402634D01*
X0571972Y0402564D01*
X0571842Y0402497D01*
X0571710Y0402433D01*
X0571576Y0402374D01*
X0571441Y0402317D01*
X0571304Y0402265D01*
X0571165Y0402216D01*
X0571026Y0402171D01*
X0570885Y0402130D01*
X0570743Y0402093D01*
X0570601Y0402060D01*
X0570457Y0402030D01*
X0570313Y0402004D01*
X0570168Y0401983D01*
X0570022Y0401965D01*
X0569876Y0401951D01*
X0569730Y0401941D01*
X0569584Y0401935D01*
X0569437Y0401933D01*
X0569290Y0401935D01*
X0569144Y0401941D01*
X0568998Y0401951D01*
X0568852Y0401965D01*
X0568706Y0401983D01*
X0568561Y0402004D01*
X0568417Y0402030D01*
X0568273Y0402060D01*
X0568131Y0402093D01*
X0567989Y0402130D01*
X0567848Y0402171D01*
X0567709Y0402216D01*
X0567570Y0402265D01*
X0567433Y0402317D01*
X0567298Y0402374D01*
X0567164Y0402433D01*
X0567032Y0402497D01*
X0566902Y0402564D01*
X0566773Y0402634D01*
X0566646Y0402708D01*
X0566522Y0402785D01*
X0566399Y0402866D01*
X0566279Y0402950D01*
X0566161Y0403037D01*
X0566046Y0403127D01*
X0565933Y0403220D01*
X0565822Y0403317D01*
X0565714Y0403416D01*
X0565609Y0403518D01*
X0565507Y0403623D01*
X0565408Y0403731D01*
X0565311Y0403842D01*
X0565218Y0403955D01*
X0565128Y0404070D01*
X0565041Y0404188D01*
X0564957Y0404308D01*
X0564876Y0404431D01*
X0564799Y0404555D01*
X0564725Y0404682D01*
X0564655Y0404811D01*
X0564588Y0404941D01*
X0564524Y0405073D01*
X0564465Y0405207D01*
X0564408Y0405342D01*
X0564356Y0405479D01*
X0564307Y0405618D01*
X0564262Y0405757D01*
X0564221Y0405898D01*
X0564184Y0406040D01*
X0564151Y0406182D01*
X0564121Y0406326D01*
X0564095Y0406470D01*
X0564074Y0406615D01*
X0564056Y0406761D01*
X0564042Y0406907D01*
X0564032Y0407053D01*
X0564026Y0407199D01*
X0564024Y0407346D01*
X0501939Y0419500D02*
X0501941Y0419580D01*
X0501947Y0419659D01*
X0501957Y0419738D01*
X0501971Y0419817D01*
X0501988Y0419895D01*
X0502010Y0419972D01*
X0502035Y0420047D01*
X0502065Y0420121D01*
X0502097Y0420194D01*
X0502134Y0420265D01*
X0502174Y0420334D01*
X0502217Y0420401D01*
X0502264Y0420466D01*
X0502313Y0420528D01*
X0502366Y0420588D01*
X0502422Y0420645D01*
X0502480Y0420700D01*
X0502541Y0420751D01*
X0502605Y0420799D01*
X0502671Y0420844D01*
X0502739Y0420886D01*
X0502809Y0420924D01*
X0502881Y0420958D01*
X0502954Y0420989D01*
X0503029Y0421017D01*
X0503106Y0421040D01*
X0503183Y0421060D01*
X0503261Y0421076D01*
X0503340Y0421088D01*
X0503419Y0421096D01*
X0503499Y0421100D01*
X0503579Y0421100D01*
X0503659Y0421096D01*
X0503738Y0421088D01*
X0503817Y0421076D01*
X0503895Y0421060D01*
X0503972Y0421040D01*
X0504049Y0421017D01*
X0504124Y0420989D01*
X0504197Y0420958D01*
X0504269Y0420924D01*
X0504339Y0420886D01*
X0504407Y0420844D01*
X0504473Y0420799D01*
X0504537Y0420751D01*
X0504598Y0420700D01*
X0504656Y0420645D01*
X0504712Y0420588D01*
X0504765Y0420528D01*
X0504814Y0420466D01*
X0504861Y0420401D01*
X0504904Y0420334D01*
X0504944Y0420265D01*
X0504981Y0420194D01*
X0505013Y0420121D01*
X0505043Y0420047D01*
X0505068Y0419972D01*
X0505090Y0419895D01*
X0505107Y0419817D01*
X0505121Y0419738D01*
X0505131Y0419659D01*
X0505137Y0419580D01*
X0505139Y0419500D01*
X0505137Y0419420D01*
X0505131Y0419341D01*
X0505121Y0419262D01*
X0505107Y0419183D01*
X0505090Y0419105D01*
X0505068Y0419028D01*
X0505043Y0418953D01*
X0505013Y0418879D01*
X0504981Y0418806D01*
X0504944Y0418735D01*
X0504904Y0418666D01*
X0504861Y0418599D01*
X0504814Y0418534D01*
X0504765Y0418472D01*
X0504712Y0418412D01*
X0504656Y0418355D01*
X0504598Y0418300D01*
X0504537Y0418249D01*
X0504473Y0418201D01*
X0504407Y0418156D01*
X0504339Y0418114D01*
X0504269Y0418076D01*
X0504197Y0418042D01*
X0504124Y0418011D01*
X0504049Y0417983D01*
X0503972Y0417960D01*
X0503895Y0417940D01*
X0503817Y0417924D01*
X0503738Y0417912D01*
X0503659Y0417904D01*
X0503579Y0417900D01*
X0503499Y0417900D01*
X0503419Y0417904D01*
X0503340Y0417912D01*
X0503261Y0417924D01*
X0503183Y0417940D01*
X0503106Y0417960D01*
X0503029Y0417983D01*
X0502954Y0418011D01*
X0502881Y0418042D01*
X0502809Y0418076D01*
X0502739Y0418114D01*
X0502671Y0418156D01*
X0502605Y0418201D01*
X0502541Y0418249D01*
X0502480Y0418300D01*
X0502422Y0418355D01*
X0502366Y0418412D01*
X0502313Y0418472D01*
X0502264Y0418534D01*
X0502217Y0418599D01*
X0502174Y0418666D01*
X0502134Y0418735D01*
X0502097Y0418806D01*
X0502065Y0418879D01*
X0502035Y0418953D01*
X0502010Y0419028D01*
X0501988Y0419105D01*
X0501971Y0419183D01*
X0501957Y0419262D01*
X0501947Y0419341D01*
X0501941Y0419420D01*
X0501939Y0419500D01*
X0489939Y0419500D02*
X0489941Y0419580D01*
X0489947Y0419659D01*
X0489957Y0419738D01*
X0489971Y0419817D01*
X0489988Y0419895D01*
X0490010Y0419972D01*
X0490035Y0420047D01*
X0490065Y0420121D01*
X0490097Y0420194D01*
X0490134Y0420265D01*
X0490174Y0420334D01*
X0490217Y0420401D01*
X0490264Y0420466D01*
X0490313Y0420528D01*
X0490366Y0420588D01*
X0490422Y0420645D01*
X0490480Y0420700D01*
X0490541Y0420751D01*
X0490605Y0420799D01*
X0490671Y0420844D01*
X0490739Y0420886D01*
X0490809Y0420924D01*
X0490881Y0420958D01*
X0490954Y0420989D01*
X0491029Y0421017D01*
X0491106Y0421040D01*
X0491183Y0421060D01*
X0491261Y0421076D01*
X0491340Y0421088D01*
X0491419Y0421096D01*
X0491499Y0421100D01*
X0491579Y0421100D01*
X0491659Y0421096D01*
X0491738Y0421088D01*
X0491817Y0421076D01*
X0491895Y0421060D01*
X0491972Y0421040D01*
X0492049Y0421017D01*
X0492124Y0420989D01*
X0492197Y0420958D01*
X0492269Y0420924D01*
X0492339Y0420886D01*
X0492407Y0420844D01*
X0492473Y0420799D01*
X0492537Y0420751D01*
X0492598Y0420700D01*
X0492656Y0420645D01*
X0492712Y0420588D01*
X0492765Y0420528D01*
X0492814Y0420466D01*
X0492861Y0420401D01*
X0492904Y0420334D01*
X0492944Y0420265D01*
X0492981Y0420194D01*
X0493013Y0420121D01*
X0493043Y0420047D01*
X0493068Y0419972D01*
X0493090Y0419895D01*
X0493107Y0419817D01*
X0493121Y0419738D01*
X0493131Y0419659D01*
X0493137Y0419580D01*
X0493139Y0419500D01*
X0493137Y0419420D01*
X0493131Y0419341D01*
X0493121Y0419262D01*
X0493107Y0419183D01*
X0493090Y0419105D01*
X0493068Y0419028D01*
X0493043Y0418953D01*
X0493013Y0418879D01*
X0492981Y0418806D01*
X0492944Y0418735D01*
X0492904Y0418666D01*
X0492861Y0418599D01*
X0492814Y0418534D01*
X0492765Y0418472D01*
X0492712Y0418412D01*
X0492656Y0418355D01*
X0492598Y0418300D01*
X0492537Y0418249D01*
X0492473Y0418201D01*
X0492407Y0418156D01*
X0492339Y0418114D01*
X0492269Y0418076D01*
X0492197Y0418042D01*
X0492124Y0418011D01*
X0492049Y0417983D01*
X0491972Y0417960D01*
X0491895Y0417940D01*
X0491817Y0417924D01*
X0491738Y0417912D01*
X0491659Y0417904D01*
X0491579Y0417900D01*
X0491499Y0417900D01*
X0491419Y0417904D01*
X0491340Y0417912D01*
X0491261Y0417924D01*
X0491183Y0417940D01*
X0491106Y0417960D01*
X0491029Y0417983D01*
X0490954Y0418011D01*
X0490881Y0418042D01*
X0490809Y0418076D01*
X0490739Y0418114D01*
X0490671Y0418156D01*
X0490605Y0418201D01*
X0490541Y0418249D01*
X0490480Y0418300D01*
X0490422Y0418355D01*
X0490366Y0418412D01*
X0490313Y0418472D01*
X0490264Y0418534D01*
X0490217Y0418599D01*
X0490174Y0418666D01*
X0490134Y0418735D01*
X0490097Y0418806D01*
X0490065Y0418879D01*
X0490035Y0418953D01*
X0490010Y0419028D01*
X0489988Y0419105D01*
X0489971Y0419183D01*
X0489957Y0419262D01*
X0489947Y0419341D01*
X0489941Y0419420D01*
X0489939Y0419500D01*
X0417594Y0407201D02*
X0417596Y0407354D01*
X0417602Y0407508D01*
X0417612Y0407661D01*
X0417626Y0407813D01*
X0417644Y0407966D01*
X0417666Y0408117D01*
X0417691Y0408268D01*
X0417721Y0408419D01*
X0417755Y0408569D01*
X0417792Y0408717D01*
X0417833Y0408865D01*
X0417878Y0409011D01*
X0417927Y0409157D01*
X0417980Y0409301D01*
X0418036Y0409443D01*
X0418096Y0409584D01*
X0418160Y0409724D01*
X0418227Y0409862D01*
X0418298Y0409998D01*
X0418373Y0410132D01*
X0418450Y0410264D01*
X0418532Y0410394D01*
X0418616Y0410522D01*
X0418704Y0410648D01*
X0418795Y0410771D01*
X0418889Y0410892D01*
X0418987Y0411010D01*
X0419087Y0411126D01*
X0419191Y0411239D01*
X0419297Y0411350D01*
X0419406Y0411458D01*
X0419518Y0411563D01*
X0419632Y0411664D01*
X0419750Y0411763D01*
X0419869Y0411859D01*
X0419991Y0411952D01*
X0420116Y0412041D01*
X0420243Y0412128D01*
X0420372Y0412210D01*
X0420503Y0412290D01*
X0420636Y0412366D01*
X0420771Y0412439D01*
X0420908Y0412508D01*
X0421047Y0412573D01*
X0421187Y0412635D01*
X0421329Y0412693D01*
X0421472Y0412748D01*
X0421617Y0412799D01*
X0421763Y0412846D01*
X0421910Y0412889D01*
X0422058Y0412928D01*
X0422207Y0412964D01*
X0422357Y0412995D01*
X0422508Y0413023D01*
X0422659Y0413047D01*
X0422812Y0413067D01*
X0422964Y0413083D01*
X0423117Y0413095D01*
X0423270Y0413103D01*
X0423423Y0413107D01*
X0423577Y0413107D01*
X0423730Y0413103D01*
X0423883Y0413095D01*
X0424036Y0413083D01*
X0424188Y0413067D01*
X0424341Y0413047D01*
X0424492Y0413023D01*
X0424643Y0412995D01*
X0424793Y0412964D01*
X0424942Y0412928D01*
X0425090Y0412889D01*
X0425237Y0412846D01*
X0425383Y0412799D01*
X0425528Y0412748D01*
X0425671Y0412693D01*
X0425813Y0412635D01*
X0425953Y0412573D01*
X0426092Y0412508D01*
X0426229Y0412439D01*
X0426364Y0412366D01*
X0426497Y0412290D01*
X0426628Y0412210D01*
X0426757Y0412128D01*
X0426884Y0412041D01*
X0427009Y0411952D01*
X0427131Y0411859D01*
X0427250Y0411763D01*
X0427368Y0411664D01*
X0427482Y0411563D01*
X0427594Y0411458D01*
X0427703Y0411350D01*
X0427809Y0411239D01*
X0427913Y0411126D01*
X0428013Y0411010D01*
X0428111Y0410892D01*
X0428205Y0410771D01*
X0428296Y0410648D01*
X0428384Y0410522D01*
X0428468Y0410394D01*
X0428550Y0410264D01*
X0428627Y0410132D01*
X0428702Y0409998D01*
X0428773Y0409862D01*
X0428840Y0409724D01*
X0428904Y0409584D01*
X0428964Y0409443D01*
X0429020Y0409301D01*
X0429073Y0409157D01*
X0429122Y0409011D01*
X0429167Y0408865D01*
X0429208Y0408717D01*
X0429245Y0408569D01*
X0429279Y0408419D01*
X0429309Y0408268D01*
X0429334Y0408117D01*
X0429356Y0407966D01*
X0429374Y0407813D01*
X0429388Y0407661D01*
X0429398Y0407508D01*
X0429404Y0407354D01*
X0429406Y0407201D01*
X0429404Y0407048D01*
X0429398Y0406894D01*
X0429388Y0406741D01*
X0429374Y0406589D01*
X0429356Y0406436D01*
X0429334Y0406285D01*
X0429309Y0406134D01*
X0429279Y0405983D01*
X0429245Y0405833D01*
X0429208Y0405685D01*
X0429167Y0405537D01*
X0429122Y0405391D01*
X0429073Y0405245D01*
X0429020Y0405101D01*
X0428964Y0404959D01*
X0428904Y0404818D01*
X0428840Y0404678D01*
X0428773Y0404540D01*
X0428702Y0404404D01*
X0428627Y0404270D01*
X0428550Y0404138D01*
X0428468Y0404008D01*
X0428384Y0403880D01*
X0428296Y0403754D01*
X0428205Y0403631D01*
X0428111Y0403510D01*
X0428013Y0403392D01*
X0427913Y0403276D01*
X0427809Y0403163D01*
X0427703Y0403052D01*
X0427594Y0402944D01*
X0427482Y0402839D01*
X0427368Y0402738D01*
X0427250Y0402639D01*
X0427131Y0402543D01*
X0427009Y0402450D01*
X0426884Y0402361D01*
X0426757Y0402274D01*
X0426628Y0402192D01*
X0426497Y0402112D01*
X0426364Y0402036D01*
X0426229Y0401963D01*
X0426092Y0401894D01*
X0425953Y0401829D01*
X0425813Y0401767D01*
X0425671Y0401709D01*
X0425528Y0401654D01*
X0425383Y0401603D01*
X0425237Y0401556D01*
X0425090Y0401513D01*
X0424942Y0401474D01*
X0424793Y0401438D01*
X0424643Y0401407D01*
X0424492Y0401379D01*
X0424341Y0401355D01*
X0424188Y0401335D01*
X0424036Y0401319D01*
X0423883Y0401307D01*
X0423730Y0401299D01*
X0423577Y0401295D01*
X0423423Y0401295D01*
X0423270Y0401299D01*
X0423117Y0401307D01*
X0422964Y0401319D01*
X0422812Y0401335D01*
X0422659Y0401355D01*
X0422508Y0401379D01*
X0422357Y0401407D01*
X0422207Y0401438D01*
X0422058Y0401474D01*
X0421910Y0401513D01*
X0421763Y0401556D01*
X0421617Y0401603D01*
X0421472Y0401654D01*
X0421329Y0401709D01*
X0421187Y0401767D01*
X0421047Y0401829D01*
X0420908Y0401894D01*
X0420771Y0401963D01*
X0420636Y0402036D01*
X0420503Y0402112D01*
X0420372Y0402192D01*
X0420243Y0402274D01*
X0420116Y0402361D01*
X0419991Y0402450D01*
X0419869Y0402543D01*
X0419750Y0402639D01*
X0419632Y0402738D01*
X0419518Y0402839D01*
X0419406Y0402944D01*
X0419297Y0403052D01*
X0419191Y0403163D01*
X0419087Y0403276D01*
X0418987Y0403392D01*
X0418889Y0403510D01*
X0418795Y0403631D01*
X0418704Y0403754D01*
X0418616Y0403880D01*
X0418532Y0404008D01*
X0418450Y0404138D01*
X0418373Y0404270D01*
X0418298Y0404404D01*
X0418227Y0404540D01*
X0418160Y0404678D01*
X0418096Y0404818D01*
X0418036Y0404959D01*
X0417980Y0405101D01*
X0417927Y0405245D01*
X0417878Y0405391D01*
X0417833Y0405537D01*
X0417792Y0405685D01*
X0417755Y0405833D01*
X0417721Y0405983D01*
X0417691Y0406134D01*
X0417666Y0406285D01*
X0417644Y0406436D01*
X0417626Y0406589D01*
X0417612Y0406741D01*
X0417602Y0406894D01*
X0417596Y0407048D01*
X0417594Y0407201D01*
X0564024Y0304984D02*
X0564026Y0305131D01*
X0564032Y0305277D01*
X0564042Y0305423D01*
X0564056Y0305569D01*
X0564074Y0305715D01*
X0564095Y0305860D01*
X0564121Y0306004D01*
X0564151Y0306148D01*
X0564184Y0306290D01*
X0564221Y0306432D01*
X0564262Y0306573D01*
X0564307Y0306712D01*
X0564356Y0306851D01*
X0564408Y0306988D01*
X0564465Y0307123D01*
X0564524Y0307257D01*
X0564588Y0307389D01*
X0564655Y0307519D01*
X0564725Y0307648D01*
X0564799Y0307775D01*
X0564876Y0307899D01*
X0564957Y0308022D01*
X0565041Y0308142D01*
X0565128Y0308260D01*
X0565218Y0308375D01*
X0565311Y0308488D01*
X0565408Y0308599D01*
X0565507Y0308707D01*
X0565609Y0308812D01*
X0565714Y0308914D01*
X0565822Y0309013D01*
X0565933Y0309110D01*
X0566046Y0309203D01*
X0566161Y0309293D01*
X0566279Y0309380D01*
X0566399Y0309464D01*
X0566522Y0309545D01*
X0566646Y0309622D01*
X0566773Y0309696D01*
X0566902Y0309766D01*
X0567032Y0309833D01*
X0567164Y0309897D01*
X0567298Y0309956D01*
X0567433Y0310013D01*
X0567570Y0310065D01*
X0567709Y0310114D01*
X0567848Y0310159D01*
X0567989Y0310200D01*
X0568131Y0310237D01*
X0568273Y0310270D01*
X0568417Y0310300D01*
X0568561Y0310326D01*
X0568706Y0310347D01*
X0568852Y0310365D01*
X0568998Y0310379D01*
X0569144Y0310389D01*
X0569290Y0310395D01*
X0569437Y0310397D01*
X0569584Y0310395D01*
X0569730Y0310389D01*
X0569876Y0310379D01*
X0570022Y0310365D01*
X0570168Y0310347D01*
X0570313Y0310326D01*
X0570457Y0310300D01*
X0570601Y0310270D01*
X0570743Y0310237D01*
X0570885Y0310200D01*
X0571026Y0310159D01*
X0571165Y0310114D01*
X0571304Y0310065D01*
X0571441Y0310013D01*
X0571576Y0309956D01*
X0571710Y0309897D01*
X0571842Y0309833D01*
X0571972Y0309766D01*
X0572101Y0309696D01*
X0572228Y0309622D01*
X0572352Y0309545D01*
X0572475Y0309464D01*
X0572595Y0309380D01*
X0572713Y0309293D01*
X0572828Y0309203D01*
X0572941Y0309110D01*
X0573052Y0309013D01*
X0573160Y0308914D01*
X0573265Y0308812D01*
X0573367Y0308707D01*
X0573466Y0308599D01*
X0573563Y0308488D01*
X0573656Y0308375D01*
X0573746Y0308260D01*
X0573833Y0308142D01*
X0573917Y0308022D01*
X0573998Y0307899D01*
X0574075Y0307775D01*
X0574149Y0307648D01*
X0574219Y0307519D01*
X0574286Y0307389D01*
X0574350Y0307257D01*
X0574409Y0307123D01*
X0574466Y0306988D01*
X0574518Y0306851D01*
X0574567Y0306712D01*
X0574612Y0306573D01*
X0574653Y0306432D01*
X0574690Y0306290D01*
X0574723Y0306148D01*
X0574753Y0306004D01*
X0574779Y0305860D01*
X0574800Y0305715D01*
X0574818Y0305569D01*
X0574832Y0305423D01*
X0574842Y0305277D01*
X0574848Y0305131D01*
X0574850Y0304984D01*
X0574848Y0304837D01*
X0574842Y0304691D01*
X0574832Y0304545D01*
X0574818Y0304399D01*
X0574800Y0304253D01*
X0574779Y0304108D01*
X0574753Y0303964D01*
X0574723Y0303820D01*
X0574690Y0303678D01*
X0574653Y0303536D01*
X0574612Y0303395D01*
X0574567Y0303256D01*
X0574518Y0303117D01*
X0574466Y0302980D01*
X0574409Y0302845D01*
X0574350Y0302711D01*
X0574286Y0302579D01*
X0574219Y0302449D01*
X0574149Y0302320D01*
X0574075Y0302193D01*
X0573998Y0302069D01*
X0573917Y0301946D01*
X0573833Y0301826D01*
X0573746Y0301708D01*
X0573656Y0301593D01*
X0573563Y0301480D01*
X0573466Y0301369D01*
X0573367Y0301261D01*
X0573265Y0301156D01*
X0573160Y0301054D01*
X0573052Y0300955D01*
X0572941Y0300858D01*
X0572828Y0300765D01*
X0572713Y0300675D01*
X0572595Y0300588D01*
X0572475Y0300504D01*
X0572352Y0300423D01*
X0572228Y0300346D01*
X0572101Y0300272D01*
X0571972Y0300202D01*
X0571842Y0300135D01*
X0571710Y0300071D01*
X0571576Y0300012D01*
X0571441Y0299955D01*
X0571304Y0299903D01*
X0571165Y0299854D01*
X0571026Y0299809D01*
X0570885Y0299768D01*
X0570743Y0299731D01*
X0570601Y0299698D01*
X0570457Y0299668D01*
X0570313Y0299642D01*
X0570168Y0299621D01*
X0570022Y0299603D01*
X0569876Y0299589D01*
X0569730Y0299579D01*
X0569584Y0299573D01*
X0569437Y0299571D01*
X0569290Y0299573D01*
X0569144Y0299579D01*
X0568998Y0299589D01*
X0568852Y0299603D01*
X0568706Y0299621D01*
X0568561Y0299642D01*
X0568417Y0299668D01*
X0568273Y0299698D01*
X0568131Y0299731D01*
X0567989Y0299768D01*
X0567848Y0299809D01*
X0567709Y0299854D01*
X0567570Y0299903D01*
X0567433Y0299955D01*
X0567298Y0300012D01*
X0567164Y0300071D01*
X0567032Y0300135D01*
X0566902Y0300202D01*
X0566773Y0300272D01*
X0566646Y0300346D01*
X0566522Y0300423D01*
X0566399Y0300504D01*
X0566279Y0300588D01*
X0566161Y0300675D01*
X0566046Y0300765D01*
X0565933Y0300858D01*
X0565822Y0300955D01*
X0565714Y0301054D01*
X0565609Y0301156D01*
X0565507Y0301261D01*
X0565408Y0301369D01*
X0565311Y0301480D01*
X0565218Y0301593D01*
X0565128Y0301708D01*
X0565041Y0301826D01*
X0564957Y0301946D01*
X0564876Y0302069D01*
X0564799Y0302193D01*
X0564725Y0302320D01*
X0564655Y0302449D01*
X0564588Y0302579D01*
X0564524Y0302711D01*
X0564465Y0302845D01*
X0564408Y0302980D01*
X0564356Y0303117D01*
X0564307Y0303256D01*
X0564262Y0303395D01*
X0564221Y0303536D01*
X0564184Y0303678D01*
X0564151Y0303820D01*
X0564121Y0303964D01*
X0564095Y0304108D01*
X0564074Y0304253D01*
X0564056Y0304399D01*
X0564042Y0304545D01*
X0564032Y0304691D01*
X0564026Y0304837D01*
X0564024Y0304984D01*
X0564024Y0214433D02*
X0564026Y0214580D01*
X0564032Y0214726D01*
X0564042Y0214872D01*
X0564056Y0215018D01*
X0564074Y0215164D01*
X0564095Y0215309D01*
X0564121Y0215453D01*
X0564151Y0215597D01*
X0564184Y0215739D01*
X0564221Y0215881D01*
X0564262Y0216022D01*
X0564307Y0216161D01*
X0564356Y0216300D01*
X0564408Y0216437D01*
X0564465Y0216572D01*
X0564524Y0216706D01*
X0564588Y0216838D01*
X0564655Y0216968D01*
X0564725Y0217097D01*
X0564799Y0217224D01*
X0564876Y0217348D01*
X0564957Y0217471D01*
X0565041Y0217591D01*
X0565128Y0217709D01*
X0565218Y0217824D01*
X0565311Y0217937D01*
X0565408Y0218048D01*
X0565507Y0218156D01*
X0565609Y0218261D01*
X0565714Y0218363D01*
X0565822Y0218462D01*
X0565933Y0218559D01*
X0566046Y0218652D01*
X0566161Y0218742D01*
X0566279Y0218829D01*
X0566399Y0218913D01*
X0566522Y0218994D01*
X0566646Y0219071D01*
X0566773Y0219145D01*
X0566902Y0219215D01*
X0567032Y0219282D01*
X0567164Y0219346D01*
X0567298Y0219405D01*
X0567433Y0219462D01*
X0567570Y0219514D01*
X0567709Y0219563D01*
X0567848Y0219608D01*
X0567989Y0219649D01*
X0568131Y0219686D01*
X0568273Y0219719D01*
X0568417Y0219749D01*
X0568561Y0219775D01*
X0568706Y0219796D01*
X0568852Y0219814D01*
X0568998Y0219828D01*
X0569144Y0219838D01*
X0569290Y0219844D01*
X0569437Y0219846D01*
X0569584Y0219844D01*
X0569730Y0219838D01*
X0569876Y0219828D01*
X0570022Y0219814D01*
X0570168Y0219796D01*
X0570313Y0219775D01*
X0570457Y0219749D01*
X0570601Y0219719D01*
X0570743Y0219686D01*
X0570885Y0219649D01*
X0571026Y0219608D01*
X0571165Y0219563D01*
X0571304Y0219514D01*
X0571441Y0219462D01*
X0571576Y0219405D01*
X0571710Y0219346D01*
X0571842Y0219282D01*
X0571972Y0219215D01*
X0572101Y0219145D01*
X0572228Y0219071D01*
X0572352Y0218994D01*
X0572475Y0218913D01*
X0572595Y0218829D01*
X0572713Y0218742D01*
X0572828Y0218652D01*
X0572941Y0218559D01*
X0573052Y0218462D01*
X0573160Y0218363D01*
X0573265Y0218261D01*
X0573367Y0218156D01*
X0573466Y0218048D01*
X0573563Y0217937D01*
X0573656Y0217824D01*
X0573746Y0217709D01*
X0573833Y0217591D01*
X0573917Y0217471D01*
X0573998Y0217348D01*
X0574075Y0217224D01*
X0574149Y0217097D01*
X0574219Y0216968D01*
X0574286Y0216838D01*
X0574350Y0216706D01*
X0574409Y0216572D01*
X0574466Y0216437D01*
X0574518Y0216300D01*
X0574567Y0216161D01*
X0574612Y0216022D01*
X0574653Y0215881D01*
X0574690Y0215739D01*
X0574723Y0215597D01*
X0574753Y0215453D01*
X0574779Y0215309D01*
X0574800Y0215164D01*
X0574818Y0215018D01*
X0574832Y0214872D01*
X0574842Y0214726D01*
X0574848Y0214580D01*
X0574850Y0214433D01*
X0574848Y0214286D01*
X0574842Y0214140D01*
X0574832Y0213994D01*
X0574818Y0213848D01*
X0574800Y0213702D01*
X0574779Y0213557D01*
X0574753Y0213413D01*
X0574723Y0213269D01*
X0574690Y0213127D01*
X0574653Y0212985D01*
X0574612Y0212844D01*
X0574567Y0212705D01*
X0574518Y0212566D01*
X0574466Y0212429D01*
X0574409Y0212294D01*
X0574350Y0212160D01*
X0574286Y0212028D01*
X0574219Y0211898D01*
X0574149Y0211769D01*
X0574075Y0211642D01*
X0573998Y0211518D01*
X0573917Y0211395D01*
X0573833Y0211275D01*
X0573746Y0211157D01*
X0573656Y0211042D01*
X0573563Y0210929D01*
X0573466Y0210818D01*
X0573367Y0210710D01*
X0573265Y0210605D01*
X0573160Y0210503D01*
X0573052Y0210404D01*
X0572941Y0210307D01*
X0572828Y0210214D01*
X0572713Y0210124D01*
X0572595Y0210037D01*
X0572475Y0209953D01*
X0572352Y0209872D01*
X0572228Y0209795D01*
X0572101Y0209721D01*
X0571972Y0209651D01*
X0571842Y0209584D01*
X0571710Y0209520D01*
X0571576Y0209461D01*
X0571441Y0209404D01*
X0571304Y0209352D01*
X0571165Y0209303D01*
X0571026Y0209258D01*
X0570885Y0209217D01*
X0570743Y0209180D01*
X0570601Y0209147D01*
X0570457Y0209117D01*
X0570313Y0209091D01*
X0570168Y0209070D01*
X0570022Y0209052D01*
X0569876Y0209038D01*
X0569730Y0209028D01*
X0569584Y0209022D01*
X0569437Y0209020D01*
X0569290Y0209022D01*
X0569144Y0209028D01*
X0568998Y0209038D01*
X0568852Y0209052D01*
X0568706Y0209070D01*
X0568561Y0209091D01*
X0568417Y0209117D01*
X0568273Y0209147D01*
X0568131Y0209180D01*
X0567989Y0209217D01*
X0567848Y0209258D01*
X0567709Y0209303D01*
X0567570Y0209352D01*
X0567433Y0209404D01*
X0567298Y0209461D01*
X0567164Y0209520D01*
X0567032Y0209584D01*
X0566902Y0209651D01*
X0566773Y0209721D01*
X0566646Y0209795D01*
X0566522Y0209872D01*
X0566399Y0209953D01*
X0566279Y0210037D01*
X0566161Y0210124D01*
X0566046Y0210214D01*
X0565933Y0210307D01*
X0565822Y0210404D01*
X0565714Y0210503D01*
X0565609Y0210605D01*
X0565507Y0210710D01*
X0565408Y0210818D01*
X0565311Y0210929D01*
X0565218Y0211042D01*
X0565128Y0211157D01*
X0565041Y0211275D01*
X0564957Y0211395D01*
X0564876Y0211518D01*
X0564799Y0211642D01*
X0564725Y0211769D01*
X0564655Y0211898D01*
X0564588Y0212028D01*
X0564524Y0212160D01*
X0564465Y0212294D01*
X0564408Y0212429D01*
X0564356Y0212566D01*
X0564307Y0212705D01*
X0564262Y0212844D01*
X0564221Y0212985D01*
X0564184Y0213127D01*
X0564151Y0213269D01*
X0564121Y0213413D01*
X0564095Y0213557D01*
X0564074Y0213702D01*
X0564056Y0213848D01*
X0564042Y0213994D01*
X0564032Y0214140D01*
X0564026Y0214286D01*
X0564024Y0214433D01*
X0018780Y0309819D02*
X0018784Y0310126D01*
X0018795Y0310432D01*
X0018814Y0310739D01*
X0018840Y0311044D01*
X0018874Y0311349D01*
X0018915Y0311653D01*
X0018964Y0311956D01*
X0019020Y0312258D01*
X0019084Y0312558D01*
X0019155Y0312856D01*
X0019233Y0313153D01*
X0019318Y0313448D01*
X0019411Y0313740D01*
X0019511Y0314030D01*
X0019618Y0314318D01*
X0019732Y0314603D01*
X0019852Y0314885D01*
X0019980Y0315163D01*
X0020115Y0315439D01*
X0020256Y0315711D01*
X0020404Y0315980D01*
X0020558Y0316245D01*
X0020719Y0316506D01*
X0020887Y0316764D01*
X0021060Y0317017D01*
X0021240Y0317265D01*
X0021426Y0317509D01*
X0021617Y0317749D01*
X0021815Y0317984D01*
X0022018Y0318213D01*
X0022227Y0318438D01*
X0022441Y0318658D01*
X0022661Y0318872D01*
X0022886Y0319081D01*
X0023115Y0319284D01*
X0023350Y0319482D01*
X0023590Y0319673D01*
X0023834Y0319859D01*
X0024082Y0320039D01*
X0024335Y0320212D01*
X0024593Y0320380D01*
X0024854Y0320541D01*
X0025119Y0320695D01*
X0025388Y0320843D01*
X0025660Y0320984D01*
X0025936Y0321119D01*
X0026214Y0321247D01*
X0026496Y0321367D01*
X0026781Y0321481D01*
X0027069Y0321588D01*
X0027359Y0321688D01*
X0027651Y0321781D01*
X0027946Y0321866D01*
X0028243Y0321944D01*
X0028541Y0322015D01*
X0028841Y0322079D01*
X0029143Y0322135D01*
X0029446Y0322184D01*
X0029750Y0322225D01*
X0030055Y0322259D01*
X0030360Y0322285D01*
X0030667Y0322304D01*
X0030973Y0322315D01*
X0031280Y0322319D01*
X0031587Y0322315D01*
X0031893Y0322304D01*
X0032200Y0322285D01*
X0032505Y0322259D01*
X0032810Y0322225D01*
X0033114Y0322184D01*
X0033417Y0322135D01*
X0033719Y0322079D01*
X0034019Y0322015D01*
X0034317Y0321944D01*
X0034614Y0321866D01*
X0034909Y0321781D01*
X0035201Y0321688D01*
X0035491Y0321588D01*
X0035779Y0321481D01*
X0036064Y0321367D01*
X0036346Y0321247D01*
X0036624Y0321119D01*
X0036900Y0320984D01*
X0037172Y0320843D01*
X0037441Y0320695D01*
X0037706Y0320541D01*
X0037967Y0320380D01*
X0038225Y0320212D01*
X0038478Y0320039D01*
X0038726Y0319859D01*
X0038970Y0319673D01*
X0039210Y0319482D01*
X0039445Y0319284D01*
X0039674Y0319081D01*
X0039899Y0318872D01*
X0040119Y0318658D01*
X0040333Y0318438D01*
X0040542Y0318213D01*
X0040745Y0317984D01*
X0040943Y0317749D01*
X0041134Y0317509D01*
X0041320Y0317265D01*
X0041500Y0317017D01*
X0041673Y0316764D01*
X0041841Y0316506D01*
X0042002Y0316245D01*
X0042156Y0315980D01*
X0042304Y0315711D01*
X0042445Y0315439D01*
X0042580Y0315163D01*
X0042708Y0314885D01*
X0042828Y0314603D01*
X0042942Y0314318D01*
X0043049Y0314030D01*
X0043149Y0313740D01*
X0043242Y0313448D01*
X0043327Y0313153D01*
X0043405Y0312856D01*
X0043476Y0312558D01*
X0043540Y0312258D01*
X0043596Y0311956D01*
X0043645Y0311653D01*
X0043686Y0311349D01*
X0043720Y0311044D01*
X0043746Y0310739D01*
X0043765Y0310432D01*
X0043776Y0310126D01*
X0043780Y0309819D01*
X0043776Y0309512D01*
X0043765Y0309206D01*
X0043746Y0308899D01*
X0043720Y0308594D01*
X0043686Y0308289D01*
X0043645Y0307985D01*
X0043596Y0307682D01*
X0043540Y0307380D01*
X0043476Y0307080D01*
X0043405Y0306782D01*
X0043327Y0306485D01*
X0043242Y0306190D01*
X0043149Y0305898D01*
X0043049Y0305608D01*
X0042942Y0305320D01*
X0042828Y0305035D01*
X0042708Y0304753D01*
X0042580Y0304475D01*
X0042445Y0304199D01*
X0042304Y0303927D01*
X0042156Y0303658D01*
X0042002Y0303393D01*
X0041841Y0303132D01*
X0041673Y0302874D01*
X0041500Y0302621D01*
X0041320Y0302373D01*
X0041134Y0302129D01*
X0040943Y0301889D01*
X0040745Y0301654D01*
X0040542Y0301425D01*
X0040333Y0301200D01*
X0040119Y0300980D01*
X0039899Y0300766D01*
X0039674Y0300557D01*
X0039445Y0300354D01*
X0039210Y0300156D01*
X0038970Y0299965D01*
X0038726Y0299779D01*
X0038478Y0299599D01*
X0038225Y0299426D01*
X0037967Y0299258D01*
X0037706Y0299097D01*
X0037441Y0298943D01*
X0037172Y0298795D01*
X0036900Y0298654D01*
X0036624Y0298519D01*
X0036346Y0298391D01*
X0036064Y0298271D01*
X0035779Y0298157D01*
X0035491Y0298050D01*
X0035201Y0297950D01*
X0034909Y0297857D01*
X0034614Y0297772D01*
X0034317Y0297694D01*
X0034019Y0297623D01*
X0033719Y0297559D01*
X0033417Y0297503D01*
X0033114Y0297454D01*
X0032810Y0297413D01*
X0032505Y0297379D01*
X0032200Y0297353D01*
X0031893Y0297334D01*
X0031587Y0297323D01*
X0031280Y0297319D01*
X0030973Y0297323D01*
X0030667Y0297334D01*
X0030360Y0297353D01*
X0030055Y0297379D01*
X0029750Y0297413D01*
X0029446Y0297454D01*
X0029143Y0297503D01*
X0028841Y0297559D01*
X0028541Y0297623D01*
X0028243Y0297694D01*
X0027946Y0297772D01*
X0027651Y0297857D01*
X0027359Y0297950D01*
X0027069Y0298050D01*
X0026781Y0298157D01*
X0026496Y0298271D01*
X0026214Y0298391D01*
X0025936Y0298519D01*
X0025660Y0298654D01*
X0025388Y0298795D01*
X0025119Y0298943D01*
X0024854Y0299097D01*
X0024593Y0299258D01*
X0024335Y0299426D01*
X0024082Y0299599D01*
X0023834Y0299779D01*
X0023590Y0299965D01*
X0023350Y0300156D01*
X0023115Y0300354D01*
X0022886Y0300557D01*
X0022661Y0300766D01*
X0022441Y0300980D01*
X0022227Y0301200D01*
X0022018Y0301425D01*
X0021815Y0301654D01*
X0021617Y0301889D01*
X0021426Y0302129D01*
X0021240Y0302373D01*
X0021060Y0302621D01*
X0020887Y0302874D01*
X0020719Y0303132D01*
X0020558Y0303393D01*
X0020404Y0303658D01*
X0020256Y0303927D01*
X0020115Y0304199D01*
X0019980Y0304475D01*
X0019852Y0304753D01*
X0019732Y0305035D01*
X0019618Y0305320D01*
X0019511Y0305608D01*
X0019411Y0305898D01*
X0019318Y0306190D01*
X0019233Y0306485D01*
X0019155Y0306782D01*
X0019084Y0307080D01*
X0019020Y0307380D01*
X0018964Y0307682D01*
X0018915Y0307985D01*
X0018874Y0308289D01*
X0018840Y0308594D01*
X0018814Y0308899D01*
X0018795Y0309206D01*
X0018784Y0309512D01*
X0018780Y0309819D01*
X0023893Y0407201D02*
X0023895Y0407354D01*
X0023901Y0407508D01*
X0023911Y0407661D01*
X0023925Y0407813D01*
X0023943Y0407966D01*
X0023965Y0408117D01*
X0023990Y0408268D01*
X0024020Y0408419D01*
X0024054Y0408569D01*
X0024091Y0408717D01*
X0024132Y0408865D01*
X0024177Y0409011D01*
X0024226Y0409157D01*
X0024279Y0409301D01*
X0024335Y0409443D01*
X0024395Y0409584D01*
X0024459Y0409724D01*
X0024526Y0409862D01*
X0024597Y0409998D01*
X0024672Y0410132D01*
X0024749Y0410264D01*
X0024831Y0410394D01*
X0024915Y0410522D01*
X0025003Y0410648D01*
X0025094Y0410771D01*
X0025188Y0410892D01*
X0025286Y0411010D01*
X0025386Y0411126D01*
X0025490Y0411239D01*
X0025596Y0411350D01*
X0025705Y0411458D01*
X0025817Y0411563D01*
X0025931Y0411664D01*
X0026049Y0411763D01*
X0026168Y0411859D01*
X0026290Y0411952D01*
X0026415Y0412041D01*
X0026542Y0412128D01*
X0026671Y0412210D01*
X0026802Y0412290D01*
X0026935Y0412366D01*
X0027070Y0412439D01*
X0027207Y0412508D01*
X0027346Y0412573D01*
X0027486Y0412635D01*
X0027628Y0412693D01*
X0027771Y0412748D01*
X0027916Y0412799D01*
X0028062Y0412846D01*
X0028209Y0412889D01*
X0028357Y0412928D01*
X0028506Y0412964D01*
X0028656Y0412995D01*
X0028807Y0413023D01*
X0028958Y0413047D01*
X0029111Y0413067D01*
X0029263Y0413083D01*
X0029416Y0413095D01*
X0029569Y0413103D01*
X0029722Y0413107D01*
X0029876Y0413107D01*
X0030029Y0413103D01*
X0030182Y0413095D01*
X0030335Y0413083D01*
X0030487Y0413067D01*
X0030640Y0413047D01*
X0030791Y0413023D01*
X0030942Y0412995D01*
X0031092Y0412964D01*
X0031241Y0412928D01*
X0031389Y0412889D01*
X0031536Y0412846D01*
X0031682Y0412799D01*
X0031827Y0412748D01*
X0031970Y0412693D01*
X0032112Y0412635D01*
X0032252Y0412573D01*
X0032391Y0412508D01*
X0032528Y0412439D01*
X0032663Y0412366D01*
X0032796Y0412290D01*
X0032927Y0412210D01*
X0033056Y0412128D01*
X0033183Y0412041D01*
X0033308Y0411952D01*
X0033430Y0411859D01*
X0033549Y0411763D01*
X0033667Y0411664D01*
X0033781Y0411563D01*
X0033893Y0411458D01*
X0034002Y0411350D01*
X0034108Y0411239D01*
X0034212Y0411126D01*
X0034312Y0411010D01*
X0034410Y0410892D01*
X0034504Y0410771D01*
X0034595Y0410648D01*
X0034683Y0410522D01*
X0034767Y0410394D01*
X0034849Y0410264D01*
X0034926Y0410132D01*
X0035001Y0409998D01*
X0035072Y0409862D01*
X0035139Y0409724D01*
X0035203Y0409584D01*
X0035263Y0409443D01*
X0035319Y0409301D01*
X0035372Y0409157D01*
X0035421Y0409011D01*
X0035466Y0408865D01*
X0035507Y0408717D01*
X0035544Y0408569D01*
X0035578Y0408419D01*
X0035608Y0408268D01*
X0035633Y0408117D01*
X0035655Y0407966D01*
X0035673Y0407813D01*
X0035687Y0407661D01*
X0035697Y0407508D01*
X0035703Y0407354D01*
X0035705Y0407201D01*
X0035703Y0407048D01*
X0035697Y0406894D01*
X0035687Y0406741D01*
X0035673Y0406589D01*
X0035655Y0406436D01*
X0035633Y0406285D01*
X0035608Y0406134D01*
X0035578Y0405983D01*
X0035544Y0405833D01*
X0035507Y0405685D01*
X0035466Y0405537D01*
X0035421Y0405391D01*
X0035372Y0405245D01*
X0035319Y0405101D01*
X0035263Y0404959D01*
X0035203Y0404818D01*
X0035139Y0404678D01*
X0035072Y0404540D01*
X0035001Y0404404D01*
X0034926Y0404270D01*
X0034849Y0404138D01*
X0034767Y0404008D01*
X0034683Y0403880D01*
X0034595Y0403754D01*
X0034504Y0403631D01*
X0034410Y0403510D01*
X0034312Y0403392D01*
X0034212Y0403276D01*
X0034108Y0403163D01*
X0034002Y0403052D01*
X0033893Y0402944D01*
X0033781Y0402839D01*
X0033667Y0402738D01*
X0033549Y0402639D01*
X0033430Y0402543D01*
X0033308Y0402450D01*
X0033183Y0402361D01*
X0033056Y0402274D01*
X0032927Y0402192D01*
X0032796Y0402112D01*
X0032663Y0402036D01*
X0032528Y0401963D01*
X0032391Y0401894D01*
X0032252Y0401829D01*
X0032112Y0401767D01*
X0031970Y0401709D01*
X0031827Y0401654D01*
X0031682Y0401603D01*
X0031536Y0401556D01*
X0031389Y0401513D01*
X0031241Y0401474D01*
X0031092Y0401438D01*
X0030942Y0401407D01*
X0030791Y0401379D01*
X0030640Y0401355D01*
X0030487Y0401335D01*
X0030335Y0401319D01*
X0030182Y0401307D01*
X0030029Y0401299D01*
X0029876Y0401295D01*
X0029722Y0401295D01*
X0029569Y0401299D01*
X0029416Y0401307D01*
X0029263Y0401319D01*
X0029111Y0401335D01*
X0028958Y0401355D01*
X0028807Y0401379D01*
X0028656Y0401407D01*
X0028506Y0401438D01*
X0028357Y0401474D01*
X0028209Y0401513D01*
X0028062Y0401556D01*
X0027916Y0401603D01*
X0027771Y0401654D01*
X0027628Y0401709D01*
X0027486Y0401767D01*
X0027346Y0401829D01*
X0027207Y0401894D01*
X0027070Y0401963D01*
X0026935Y0402036D01*
X0026802Y0402112D01*
X0026671Y0402192D01*
X0026542Y0402274D01*
X0026415Y0402361D01*
X0026290Y0402450D01*
X0026168Y0402543D01*
X0026049Y0402639D01*
X0025931Y0402738D01*
X0025817Y0402839D01*
X0025705Y0402944D01*
X0025596Y0403052D01*
X0025490Y0403163D01*
X0025386Y0403276D01*
X0025286Y0403392D01*
X0025188Y0403510D01*
X0025094Y0403631D01*
X0025003Y0403754D01*
X0024915Y0403880D01*
X0024831Y0404008D01*
X0024749Y0404138D01*
X0024672Y0404270D01*
X0024597Y0404404D01*
X0024526Y0404540D01*
X0024459Y0404678D01*
X0024395Y0404818D01*
X0024335Y0404959D01*
X0024279Y0405101D01*
X0024226Y0405245D01*
X0024177Y0405391D01*
X0024132Y0405537D01*
X0024091Y0405685D01*
X0024054Y0405833D01*
X0024020Y0405983D01*
X0023990Y0406134D01*
X0023965Y0406285D01*
X0023943Y0406436D01*
X0023925Y0406589D01*
X0023911Y0406741D01*
X0023901Y0406894D01*
X0023895Y0407048D01*
X0023893Y0407201D01*
D11*
X0031280Y0309819D03*
D12*
X0487039Y0046500D02*
X0487039Y0040500D01*
X0540039Y0040500D02*
X0540039Y0046500D01*
X0852539Y0135250D02*
X0858539Y0135250D01*
X0858539Y0156250D02*
X0852539Y0156250D01*
X0852539Y0168750D02*
X0858539Y0168750D01*
D13*
X0513539Y0043500D03*
D14*
X0354039Y0044500D03*
X0344039Y0044500D03*
X0247039Y0024000D03*
X0237039Y0024000D03*
X0229539Y0018500D03*
X0219539Y0018500D03*
X0212039Y0034000D03*
X0202039Y0034000D03*
X0167539Y0060000D03*
X0157539Y0060000D03*
X0340539Y0098500D03*
X0340539Y0108500D03*
X0492539Y0204500D03*
X0502539Y0204500D03*
X0501539Y0301500D03*
X0491539Y0301500D03*
X0817539Y0080500D03*
X0817539Y0070500D03*
X0840539Y0082500D03*
X0850539Y0082500D03*
D15*
X0834002Y0081037D02*
X0831076Y0081037D01*
X0831076Y0083963D01*
X0834002Y0083963D01*
X0834002Y0081037D01*
X0834002Y0082011D02*
X0831076Y0082011D01*
X0831076Y0082985D02*
X0834002Y0082985D01*
X0834002Y0083959D02*
X0831076Y0083959D01*
X0828002Y0081037D02*
X0825076Y0081037D01*
X0825076Y0083963D01*
X0828002Y0083963D01*
X0828002Y0081037D01*
X0828002Y0082011D02*
X0825076Y0082011D01*
X0825076Y0082985D02*
X0828002Y0082985D01*
X0828002Y0083959D02*
X0825076Y0083959D01*
X0825076Y0091037D02*
X0828002Y0091037D01*
X0825076Y0091037D02*
X0825076Y0093963D01*
X0828002Y0093963D01*
X0828002Y0091037D01*
X0828002Y0092011D02*
X0825076Y0092011D01*
X0825076Y0092985D02*
X0828002Y0092985D01*
X0828002Y0093959D02*
X0825076Y0093959D01*
X0831076Y0091037D02*
X0834002Y0091037D01*
X0831076Y0091037D02*
X0831076Y0093963D01*
X0834002Y0093963D01*
X0834002Y0091037D01*
X0834002Y0092011D02*
X0831076Y0092011D01*
X0831076Y0092985D02*
X0834002Y0092985D01*
X0834002Y0093959D02*
X0831076Y0093959D01*
X0819002Y0105037D02*
X0819002Y0107963D01*
X0819002Y0105037D02*
X0816076Y0105037D01*
X0816076Y0107963D01*
X0819002Y0107963D01*
X0819002Y0106011D02*
X0816076Y0106011D01*
X0816076Y0106985D02*
X0819002Y0106985D01*
X0819002Y0107959D02*
X0816076Y0107959D01*
X0819002Y0111037D02*
X0819002Y0113963D01*
X0819002Y0111037D02*
X0816076Y0111037D01*
X0816076Y0113963D01*
X0819002Y0113963D01*
X0819002Y0112011D02*
X0816076Y0112011D01*
X0816076Y0112985D02*
X0819002Y0112985D01*
X0819002Y0113959D02*
X0816076Y0113959D01*
X0828076Y0190963D02*
X0831002Y0190963D01*
X0831002Y0188037D01*
X0828076Y0188037D01*
X0828076Y0190963D01*
X0828076Y0189011D02*
X0831002Y0189011D01*
X0831002Y0189985D02*
X0828076Y0189985D01*
X0828076Y0190959D02*
X0831002Y0190959D01*
X0834076Y0190963D02*
X0837002Y0190963D01*
X0837002Y0188037D01*
X0834076Y0188037D01*
X0834076Y0190963D01*
X0834076Y0189011D02*
X0837002Y0189011D01*
X0837002Y0189985D02*
X0834076Y0189985D01*
X0834076Y0190959D02*
X0837002Y0190959D01*
X0860076Y0188037D02*
X0863002Y0188037D01*
X0860076Y0188037D02*
X0860076Y0190963D01*
X0863002Y0190963D01*
X0863002Y0188037D01*
X0863002Y0189011D02*
X0860076Y0189011D01*
X0860076Y0189985D02*
X0863002Y0189985D01*
X0863002Y0190959D02*
X0860076Y0190959D01*
X0866076Y0188037D02*
X0869002Y0188037D01*
X0866076Y0188037D02*
X0866076Y0190963D01*
X0869002Y0190963D01*
X0869002Y0188037D01*
X0869002Y0189011D02*
X0866076Y0189011D01*
X0866076Y0189985D02*
X0869002Y0189985D01*
X0869002Y0190959D02*
X0866076Y0190959D01*
X0745076Y0247537D02*
X0745076Y0250463D01*
X0748002Y0250463D01*
X0748002Y0247537D01*
X0745076Y0247537D01*
X0745076Y0248511D02*
X0748002Y0248511D01*
X0748002Y0249485D02*
X0745076Y0249485D01*
X0745076Y0250459D02*
X0748002Y0250459D01*
X0745076Y0253537D02*
X0745076Y0256463D01*
X0748002Y0256463D01*
X0748002Y0253537D01*
X0745076Y0253537D01*
X0745076Y0254511D02*
X0748002Y0254511D01*
X0748002Y0255485D02*
X0745076Y0255485D01*
X0745076Y0256459D02*
X0748002Y0256459D01*
X0739002Y0256963D02*
X0739002Y0254037D01*
X0736076Y0254037D01*
X0736076Y0256963D01*
X0739002Y0256963D01*
X0739002Y0255011D02*
X0736076Y0255011D01*
X0736076Y0255985D02*
X0739002Y0255985D01*
X0739002Y0256959D02*
X0736076Y0256959D01*
X0739002Y0250963D02*
X0739002Y0248037D01*
X0736076Y0248037D01*
X0736076Y0250963D01*
X0739002Y0250963D01*
X0739002Y0249011D02*
X0736076Y0249011D01*
X0736076Y0249985D02*
X0739002Y0249985D01*
X0739002Y0250959D02*
X0736076Y0250959D01*
X0707002Y0250963D02*
X0707002Y0248037D01*
X0704076Y0248037D01*
X0704076Y0250963D01*
X0707002Y0250963D01*
X0707002Y0249011D02*
X0704076Y0249011D01*
X0704076Y0249985D02*
X0707002Y0249985D01*
X0707002Y0250959D02*
X0704076Y0250959D01*
X0707002Y0254037D02*
X0707002Y0256963D01*
X0707002Y0254037D02*
X0704076Y0254037D01*
X0704076Y0256963D01*
X0707002Y0256963D01*
X0707002Y0255011D02*
X0704076Y0255011D01*
X0704076Y0255985D02*
X0707002Y0255985D01*
X0707002Y0256959D02*
X0704076Y0256959D01*
X0699002Y0256963D02*
X0699002Y0254037D01*
X0696076Y0254037D01*
X0696076Y0256963D01*
X0699002Y0256963D01*
X0699002Y0255011D02*
X0696076Y0255011D01*
X0696076Y0255985D02*
X0699002Y0255985D01*
X0699002Y0256959D02*
X0696076Y0256959D01*
X0699002Y0250963D02*
X0699002Y0248037D01*
X0696076Y0248037D01*
X0696076Y0250963D01*
X0699002Y0250963D01*
X0699002Y0249011D02*
X0696076Y0249011D01*
X0696076Y0249985D02*
X0699002Y0249985D01*
X0699002Y0250959D02*
X0696076Y0250959D01*
X0629002Y0252963D02*
X0626076Y0252963D01*
X0629002Y0252963D02*
X0629002Y0250037D01*
X0626076Y0250037D01*
X0626076Y0252963D01*
X0626076Y0251011D02*
X0629002Y0251011D01*
X0629002Y0251985D02*
X0626076Y0251985D01*
X0626076Y0252959D02*
X0629002Y0252959D01*
X0623002Y0252963D02*
X0620076Y0252963D01*
X0623002Y0252963D02*
X0623002Y0250037D01*
X0620076Y0250037D01*
X0620076Y0252963D01*
X0620076Y0251011D02*
X0623002Y0251011D01*
X0623002Y0251985D02*
X0620076Y0251985D01*
X0620076Y0252959D02*
X0623002Y0252959D01*
X0610002Y0243963D02*
X0610002Y0241037D01*
X0607076Y0241037D01*
X0607076Y0243963D01*
X0610002Y0243963D01*
X0610002Y0242011D02*
X0607076Y0242011D01*
X0607076Y0242985D02*
X0610002Y0242985D01*
X0610002Y0243959D02*
X0607076Y0243959D01*
X0600002Y0243963D02*
X0600002Y0241037D01*
X0597076Y0241037D01*
X0597076Y0243963D01*
X0600002Y0243963D01*
X0600002Y0242011D02*
X0597076Y0242011D01*
X0597076Y0242985D02*
X0600002Y0242985D01*
X0600002Y0243959D02*
X0597076Y0243959D01*
X0600002Y0237963D02*
X0600002Y0235037D01*
X0597076Y0235037D01*
X0597076Y0237963D01*
X0600002Y0237963D01*
X0600002Y0236011D02*
X0597076Y0236011D01*
X0597076Y0236985D02*
X0600002Y0236985D01*
X0600002Y0237959D02*
X0597076Y0237959D01*
X0610002Y0237963D02*
X0610002Y0235037D01*
X0607076Y0235037D01*
X0607076Y0237963D01*
X0610002Y0237963D01*
X0610002Y0236011D02*
X0607076Y0236011D01*
X0607076Y0236985D02*
X0610002Y0236985D01*
X0610002Y0237959D02*
X0607076Y0237959D01*
X0563076Y0280037D02*
X0563076Y0282963D01*
X0566002Y0282963D01*
X0566002Y0280037D01*
X0563076Y0280037D01*
X0563076Y0281011D02*
X0566002Y0281011D01*
X0566002Y0281985D02*
X0563076Y0281985D01*
X0563076Y0282959D02*
X0566002Y0282959D01*
X0563076Y0286037D02*
X0563076Y0288963D01*
X0566002Y0288963D01*
X0566002Y0286037D01*
X0563076Y0286037D01*
X0563076Y0287011D02*
X0566002Y0287011D01*
X0566002Y0287985D02*
X0563076Y0287985D01*
X0563076Y0288959D02*
X0566002Y0288959D01*
X0548076Y0289037D02*
X0548076Y0291963D01*
X0551002Y0291963D01*
X0551002Y0289037D01*
X0548076Y0289037D01*
X0548076Y0290011D02*
X0551002Y0290011D01*
X0551002Y0290985D02*
X0548076Y0290985D01*
X0548076Y0291959D02*
X0551002Y0291959D01*
X0548076Y0285963D02*
X0548076Y0283037D01*
X0548076Y0285963D02*
X0551002Y0285963D01*
X0551002Y0283037D01*
X0548076Y0283037D01*
X0548076Y0284011D02*
X0551002Y0284011D01*
X0551002Y0284985D02*
X0548076Y0284985D01*
X0548076Y0285959D02*
X0551002Y0285959D01*
X0521076Y0285963D02*
X0521076Y0283037D01*
X0521076Y0285963D02*
X0524002Y0285963D01*
X0524002Y0283037D01*
X0521076Y0283037D01*
X0521076Y0284011D02*
X0524002Y0284011D01*
X0524002Y0284985D02*
X0521076Y0284985D01*
X0521076Y0285959D02*
X0524002Y0285959D01*
X0521076Y0289037D02*
X0521076Y0291963D01*
X0524002Y0291963D01*
X0524002Y0289037D01*
X0521076Y0289037D01*
X0521076Y0290011D02*
X0524002Y0290011D01*
X0524002Y0290985D02*
X0521076Y0290985D01*
X0521076Y0291959D02*
X0524002Y0291959D01*
X0483002Y0295037D02*
X0483002Y0297963D01*
X0483002Y0295037D02*
X0480076Y0295037D01*
X0480076Y0297963D01*
X0483002Y0297963D01*
X0483002Y0296011D02*
X0480076Y0296011D01*
X0480076Y0296985D02*
X0483002Y0296985D01*
X0483002Y0297959D02*
X0480076Y0297959D01*
X0483002Y0301037D02*
X0483002Y0303963D01*
X0483002Y0301037D02*
X0480076Y0301037D01*
X0480076Y0303963D01*
X0483002Y0303963D01*
X0483002Y0302011D02*
X0480076Y0302011D01*
X0480076Y0302985D02*
X0483002Y0302985D01*
X0483002Y0303959D02*
X0480076Y0303959D01*
X0591076Y0305037D02*
X0591076Y0307963D01*
X0594002Y0307963D01*
X0594002Y0305037D01*
X0591076Y0305037D01*
X0591076Y0306011D02*
X0594002Y0306011D01*
X0594002Y0306985D02*
X0591076Y0306985D01*
X0591076Y0307959D02*
X0594002Y0307959D01*
X0602002Y0307963D02*
X0602002Y0305037D01*
X0599076Y0305037D01*
X0599076Y0307963D01*
X0602002Y0307963D01*
X0602002Y0306011D02*
X0599076Y0306011D01*
X0599076Y0306985D02*
X0602002Y0306985D01*
X0602002Y0307959D02*
X0599076Y0307959D01*
X0602002Y0311037D02*
X0602002Y0313963D01*
X0602002Y0311037D02*
X0599076Y0311037D01*
X0599076Y0313963D01*
X0602002Y0313963D01*
X0602002Y0312011D02*
X0599076Y0312011D01*
X0599076Y0312985D02*
X0602002Y0312985D01*
X0602002Y0313959D02*
X0599076Y0313959D01*
X0591076Y0313963D02*
X0591076Y0311037D01*
X0591076Y0313963D02*
X0594002Y0313963D01*
X0594002Y0311037D01*
X0591076Y0311037D01*
X0591076Y0312011D02*
X0594002Y0312011D01*
X0594002Y0312985D02*
X0591076Y0312985D01*
X0591076Y0313959D02*
X0594002Y0313959D01*
X0485002Y0205963D02*
X0485002Y0203037D01*
X0482076Y0203037D01*
X0482076Y0205963D01*
X0485002Y0205963D01*
X0485002Y0204011D02*
X0482076Y0204011D01*
X0482076Y0204985D02*
X0485002Y0204985D01*
X0485002Y0205959D02*
X0482076Y0205959D01*
X0485002Y0199963D02*
X0485002Y0197037D01*
X0482076Y0197037D01*
X0482076Y0199963D01*
X0485002Y0199963D01*
X0485002Y0198011D02*
X0482076Y0198011D01*
X0482076Y0198985D02*
X0485002Y0198985D01*
X0485002Y0199959D02*
X0482076Y0199959D01*
X0503076Y0163963D02*
X0503076Y0161037D01*
X0503076Y0163963D02*
X0506002Y0163963D01*
X0506002Y0161037D01*
X0503076Y0161037D01*
X0503076Y0162011D02*
X0506002Y0162011D01*
X0506002Y0162985D02*
X0503076Y0162985D01*
X0503076Y0163959D02*
X0506002Y0163959D01*
X0503076Y0157963D02*
X0503076Y0155037D01*
X0503076Y0157963D02*
X0506002Y0157963D01*
X0506002Y0155037D01*
X0503076Y0155037D01*
X0503076Y0156011D02*
X0506002Y0156011D01*
X0506002Y0156985D02*
X0503076Y0156985D01*
X0503076Y0157959D02*
X0506002Y0157959D01*
X0453076Y0148963D02*
X0453076Y0146037D01*
X0453076Y0148963D02*
X0456002Y0148963D01*
X0456002Y0146037D01*
X0453076Y0146037D01*
X0453076Y0147011D02*
X0456002Y0147011D01*
X0456002Y0147985D02*
X0453076Y0147985D01*
X0453076Y0148959D02*
X0456002Y0148959D01*
X0453076Y0142963D02*
X0453076Y0140037D01*
X0453076Y0142963D02*
X0456002Y0142963D01*
X0456002Y0140037D01*
X0453076Y0140037D01*
X0453076Y0141011D02*
X0456002Y0141011D01*
X0456002Y0141985D02*
X0453076Y0141985D01*
X0453076Y0142959D02*
X0456002Y0142959D01*
X0463502Y0117463D02*
X0463502Y0114537D01*
X0460576Y0114537D01*
X0460576Y0117463D01*
X0463502Y0117463D01*
X0463502Y0115511D02*
X0460576Y0115511D01*
X0460576Y0116485D02*
X0463502Y0116485D01*
X0463502Y0117459D02*
X0460576Y0117459D01*
X0463502Y0111463D02*
X0463502Y0108537D01*
X0460576Y0108537D01*
X0460576Y0111463D01*
X0463502Y0111463D01*
X0463502Y0109511D02*
X0460576Y0109511D01*
X0460576Y0110485D02*
X0463502Y0110485D01*
X0463502Y0111459D02*
X0460576Y0111459D01*
X0474502Y0110963D02*
X0474502Y0108037D01*
X0471576Y0108037D01*
X0471576Y0110963D01*
X0474502Y0110963D01*
X0474502Y0109011D02*
X0471576Y0109011D01*
X0471576Y0109985D02*
X0474502Y0109985D01*
X0474502Y0110959D02*
X0471576Y0110959D01*
X0474502Y0114037D02*
X0474502Y0116963D01*
X0474502Y0114037D02*
X0471576Y0114037D01*
X0471576Y0116963D01*
X0474502Y0116963D01*
X0474502Y0115011D02*
X0471576Y0115011D01*
X0471576Y0115985D02*
X0474502Y0115985D01*
X0474502Y0116959D02*
X0471576Y0116959D01*
X0486002Y0116963D02*
X0486002Y0114037D01*
X0483076Y0114037D01*
X0483076Y0116963D01*
X0486002Y0116963D01*
X0486002Y0115011D02*
X0483076Y0115011D01*
X0483076Y0115985D02*
X0486002Y0115985D01*
X0486002Y0116959D02*
X0483076Y0116959D01*
X0486002Y0110963D02*
X0486002Y0108037D01*
X0483076Y0108037D01*
X0483076Y0110963D01*
X0486002Y0110963D01*
X0486002Y0109011D02*
X0483076Y0109011D01*
X0483076Y0109985D02*
X0486002Y0109985D01*
X0486002Y0110959D02*
X0483076Y0110959D01*
X0435702Y0113963D02*
X0432776Y0113963D01*
X0435702Y0113963D02*
X0435702Y0111037D01*
X0432776Y0111037D01*
X0432776Y0113963D01*
X0432776Y0112011D02*
X0435702Y0112011D01*
X0435702Y0112985D02*
X0432776Y0112985D01*
X0432776Y0113959D02*
X0435702Y0113959D01*
X0429702Y0113963D02*
X0426776Y0113963D01*
X0429702Y0113963D02*
X0429702Y0111037D01*
X0426776Y0111037D01*
X0426776Y0113963D01*
X0426776Y0112011D02*
X0429702Y0112011D01*
X0429702Y0112985D02*
X0426776Y0112985D01*
X0426776Y0113959D02*
X0429702Y0113959D01*
X0430002Y0105963D02*
X0427076Y0105963D01*
X0430002Y0105963D02*
X0430002Y0103037D01*
X0427076Y0103037D01*
X0427076Y0105963D01*
X0427076Y0104011D02*
X0430002Y0104011D01*
X0430002Y0104985D02*
X0427076Y0104985D01*
X0427076Y0105959D02*
X0430002Y0105959D01*
X0433076Y0105963D02*
X0436002Y0105963D01*
X0436002Y0103037D01*
X0433076Y0103037D01*
X0433076Y0105963D01*
X0433076Y0104011D02*
X0436002Y0104011D01*
X0436002Y0104985D02*
X0433076Y0104985D01*
X0433076Y0105959D02*
X0436002Y0105959D01*
X0395076Y0091463D02*
X0395076Y0088537D01*
X0395076Y0091463D02*
X0398002Y0091463D01*
X0398002Y0088537D01*
X0395076Y0088537D01*
X0395076Y0089511D02*
X0398002Y0089511D01*
X0398002Y0090485D02*
X0395076Y0090485D01*
X0395076Y0091459D02*
X0398002Y0091459D01*
X0395076Y0085463D02*
X0395076Y0082537D01*
X0395076Y0085463D02*
X0398002Y0085463D01*
X0398002Y0082537D01*
X0395076Y0082537D01*
X0395076Y0083511D02*
X0398002Y0083511D01*
X0398002Y0084485D02*
X0395076Y0084485D01*
X0395076Y0085459D02*
X0398002Y0085459D01*
X0384076Y0085463D02*
X0384076Y0082537D01*
X0384076Y0085463D02*
X0387002Y0085463D01*
X0387002Y0082537D01*
X0384076Y0082537D01*
X0384076Y0083511D02*
X0387002Y0083511D01*
X0387002Y0084485D02*
X0384076Y0084485D01*
X0384076Y0085459D02*
X0387002Y0085459D01*
X0384076Y0088537D02*
X0384076Y0091463D01*
X0387002Y0091463D01*
X0387002Y0088537D01*
X0384076Y0088537D01*
X0384076Y0089511D02*
X0387002Y0089511D01*
X0387002Y0090485D02*
X0384076Y0090485D01*
X0384076Y0091459D02*
X0387002Y0091459D01*
X0400002Y0063963D02*
X0400002Y0061037D01*
X0397076Y0061037D01*
X0397076Y0063963D01*
X0400002Y0063963D01*
X0400002Y0062011D02*
X0397076Y0062011D01*
X0397076Y0062985D02*
X0400002Y0062985D01*
X0400002Y0063959D02*
X0397076Y0063959D01*
X0385502Y0060963D02*
X0385502Y0058037D01*
X0382576Y0058037D01*
X0382576Y0060963D01*
X0385502Y0060963D01*
X0385502Y0059011D02*
X0382576Y0059011D01*
X0382576Y0059985D02*
X0385502Y0059985D01*
X0385502Y0060959D02*
X0382576Y0060959D01*
X0385502Y0054963D02*
X0385502Y0052037D01*
X0382576Y0052037D01*
X0382576Y0054963D01*
X0385502Y0054963D01*
X0385502Y0053011D02*
X0382576Y0053011D01*
X0382576Y0053985D02*
X0385502Y0053985D01*
X0385502Y0054959D02*
X0382576Y0054959D01*
X0379002Y0048463D02*
X0376076Y0048463D01*
X0379002Y0048463D02*
X0379002Y0045537D01*
X0376076Y0045537D01*
X0376076Y0048463D01*
X0376076Y0046511D02*
X0379002Y0046511D01*
X0379002Y0047485D02*
X0376076Y0047485D01*
X0376076Y0048459D02*
X0379002Y0048459D01*
X0373002Y0048463D02*
X0370076Y0048463D01*
X0373002Y0048463D02*
X0373002Y0045537D01*
X0370076Y0045537D01*
X0370076Y0048463D01*
X0370076Y0046511D02*
X0373002Y0046511D01*
X0373002Y0047485D02*
X0370076Y0047485D01*
X0370076Y0048459D02*
X0373002Y0048459D01*
X0400002Y0055037D02*
X0400002Y0057963D01*
X0400002Y0055037D02*
X0397076Y0055037D01*
X0397076Y0057963D01*
X0400002Y0057963D01*
X0400002Y0056011D02*
X0397076Y0056011D01*
X0397076Y0056985D02*
X0400002Y0056985D01*
X0400002Y0057959D02*
X0397076Y0057959D01*
X0404576Y0047963D02*
X0407502Y0047963D01*
X0407502Y0045037D01*
X0404576Y0045037D01*
X0404576Y0047963D01*
X0404576Y0046011D02*
X0407502Y0046011D01*
X0407502Y0046985D02*
X0404576Y0046985D01*
X0404576Y0047959D02*
X0407502Y0047959D01*
X0410576Y0047963D02*
X0413502Y0047963D01*
X0413502Y0045037D01*
X0410576Y0045037D01*
X0410576Y0047963D01*
X0410576Y0046011D02*
X0413502Y0046011D01*
X0413502Y0046985D02*
X0410576Y0046985D01*
X0410576Y0047959D02*
X0413502Y0047959D01*
X0419076Y0049963D02*
X0422002Y0049963D01*
X0422002Y0047037D01*
X0419076Y0047037D01*
X0419076Y0049963D01*
X0419076Y0048011D02*
X0422002Y0048011D01*
X0422002Y0048985D02*
X0419076Y0048985D01*
X0419076Y0049959D02*
X0422002Y0049959D01*
X0425076Y0049963D02*
X0428002Y0049963D01*
X0428002Y0047037D01*
X0425076Y0047037D01*
X0425076Y0049963D01*
X0425076Y0048011D02*
X0428002Y0048011D01*
X0428002Y0048985D02*
X0425076Y0048985D01*
X0425076Y0049959D02*
X0428002Y0049959D01*
X0450576Y0051537D02*
X0450576Y0054463D01*
X0453502Y0054463D01*
X0453502Y0051537D01*
X0450576Y0051537D01*
X0450576Y0052511D02*
X0453502Y0052511D01*
X0453502Y0053485D02*
X0450576Y0053485D01*
X0450576Y0054459D02*
X0453502Y0054459D01*
X0450576Y0057537D02*
X0450576Y0060463D01*
X0453502Y0060463D01*
X0453502Y0057537D01*
X0450576Y0057537D01*
X0450576Y0058511D02*
X0453502Y0058511D01*
X0453502Y0059485D02*
X0450576Y0059485D01*
X0450576Y0060459D02*
X0453502Y0060459D01*
X0453502Y0066037D02*
X0453502Y0068963D01*
X0453502Y0066037D02*
X0450576Y0066037D01*
X0450576Y0068963D01*
X0453502Y0068963D01*
X0453502Y0067011D02*
X0450576Y0067011D01*
X0450576Y0067985D02*
X0453502Y0067985D01*
X0453502Y0068959D02*
X0450576Y0068959D01*
X0453502Y0072037D02*
X0453502Y0074963D01*
X0453502Y0072037D02*
X0450576Y0072037D01*
X0450576Y0074963D01*
X0453502Y0074963D01*
X0453502Y0073011D02*
X0450576Y0073011D01*
X0450576Y0073985D02*
X0453502Y0073985D01*
X0453502Y0074959D02*
X0450576Y0074959D01*
X0468576Y0035463D02*
X0471502Y0035463D01*
X0471502Y0032537D01*
X0468576Y0032537D01*
X0468576Y0035463D01*
X0468576Y0033511D02*
X0471502Y0033511D01*
X0471502Y0034485D02*
X0468576Y0034485D01*
X0468576Y0035459D02*
X0471502Y0035459D01*
X0474576Y0035463D02*
X0477502Y0035463D01*
X0477502Y0032537D01*
X0474576Y0032537D01*
X0474576Y0035463D01*
X0474576Y0033511D02*
X0477502Y0033511D01*
X0477502Y0034485D02*
X0474576Y0034485D01*
X0474576Y0035459D02*
X0477502Y0035459D01*
X0582502Y0093537D02*
X0582502Y0096463D01*
X0582502Y0093537D02*
X0579576Y0093537D01*
X0579576Y0096463D01*
X0582502Y0096463D01*
X0582502Y0094511D02*
X0579576Y0094511D01*
X0579576Y0095485D02*
X0582502Y0095485D01*
X0582502Y0096459D02*
X0579576Y0096459D01*
X0582502Y0099537D02*
X0582502Y0102463D01*
X0582502Y0099537D02*
X0579576Y0099537D01*
X0579576Y0102463D01*
X0582502Y0102463D01*
X0582502Y0100511D02*
X0579576Y0100511D01*
X0579576Y0101485D02*
X0582502Y0101485D01*
X0582502Y0102459D02*
X0579576Y0102459D01*
X0621076Y0127963D02*
X0624002Y0127963D01*
X0624002Y0125037D01*
X0621076Y0125037D01*
X0621076Y0127963D01*
X0621076Y0126011D02*
X0624002Y0126011D01*
X0624002Y0126985D02*
X0621076Y0126985D01*
X0621076Y0127959D02*
X0624002Y0127959D01*
X0627076Y0127963D02*
X0630002Y0127963D01*
X0630002Y0125037D01*
X0627076Y0125037D01*
X0627076Y0127963D01*
X0627076Y0126011D02*
X0630002Y0126011D01*
X0630002Y0126985D02*
X0627076Y0126985D01*
X0627076Y0127959D02*
X0630002Y0127959D01*
X0343502Y0034463D02*
X0340576Y0034463D01*
X0343502Y0034463D02*
X0343502Y0031537D01*
X0340576Y0031537D01*
X0340576Y0034463D01*
X0340576Y0032511D02*
X0343502Y0032511D01*
X0343502Y0033485D02*
X0340576Y0033485D01*
X0340576Y0034459D02*
X0343502Y0034459D01*
X0337502Y0034463D02*
X0334576Y0034463D01*
X0337502Y0034463D02*
X0337502Y0031537D01*
X0334576Y0031537D01*
X0334576Y0034463D01*
X0334576Y0032511D02*
X0337502Y0032511D01*
X0337502Y0033485D02*
X0334576Y0033485D01*
X0334576Y0034459D02*
X0337502Y0034459D01*
X0335576Y0039037D02*
X0335576Y0041963D01*
X0338502Y0041963D01*
X0338502Y0039037D01*
X0335576Y0039037D01*
X0335576Y0040011D02*
X0338502Y0040011D01*
X0338502Y0040985D02*
X0335576Y0040985D01*
X0335576Y0041959D02*
X0338502Y0041959D01*
X0335576Y0045037D02*
X0335576Y0047963D01*
X0338502Y0047963D01*
X0338502Y0045037D01*
X0335576Y0045037D01*
X0335576Y0046011D02*
X0338502Y0046011D01*
X0338502Y0046985D02*
X0335576Y0046985D01*
X0335576Y0047959D02*
X0338502Y0047959D01*
X0317576Y0082537D02*
X0317576Y0085463D01*
X0320502Y0085463D01*
X0320502Y0082537D01*
X0317576Y0082537D01*
X0317576Y0083511D02*
X0320502Y0083511D01*
X0320502Y0084485D02*
X0317576Y0084485D01*
X0317576Y0085459D02*
X0320502Y0085459D01*
X0317576Y0088537D02*
X0317576Y0091463D01*
X0320502Y0091463D01*
X0320502Y0088537D01*
X0317576Y0088537D01*
X0317576Y0089511D02*
X0320502Y0089511D01*
X0320502Y0090485D02*
X0317576Y0090485D01*
X0317576Y0091459D02*
X0320502Y0091459D01*
X0330076Y0097037D02*
X0330076Y0099963D01*
X0333002Y0099963D01*
X0333002Y0097037D01*
X0330076Y0097037D01*
X0330076Y0098011D02*
X0333002Y0098011D01*
X0333002Y0098985D02*
X0330076Y0098985D01*
X0330076Y0099959D02*
X0333002Y0099959D01*
X0330076Y0103037D02*
X0330076Y0105963D01*
X0333002Y0105963D01*
X0333002Y0103037D01*
X0330076Y0103037D01*
X0330076Y0104011D02*
X0333002Y0104011D01*
X0333002Y0104985D02*
X0330076Y0104985D01*
X0330076Y0105959D02*
X0333002Y0105959D01*
X0305576Y0091463D02*
X0305576Y0088537D01*
X0305576Y0091463D02*
X0308502Y0091463D01*
X0308502Y0088537D01*
X0305576Y0088537D01*
X0305576Y0089511D02*
X0308502Y0089511D01*
X0308502Y0090485D02*
X0305576Y0090485D01*
X0305576Y0091459D02*
X0308502Y0091459D01*
X0305576Y0085463D02*
X0305576Y0082537D01*
X0305576Y0085463D02*
X0308502Y0085463D01*
X0308502Y0082537D01*
X0305576Y0082537D01*
X0305576Y0083511D02*
X0308502Y0083511D01*
X0308502Y0084485D02*
X0305576Y0084485D01*
X0305576Y0085459D02*
X0308502Y0085459D01*
X0286076Y0085463D02*
X0286076Y0082537D01*
X0286076Y0085463D02*
X0289002Y0085463D01*
X0289002Y0082537D01*
X0286076Y0082537D01*
X0286076Y0083511D02*
X0289002Y0083511D01*
X0289002Y0084485D02*
X0286076Y0084485D01*
X0286076Y0085459D02*
X0289002Y0085459D01*
X0286076Y0088537D02*
X0286076Y0091463D01*
X0289002Y0091463D01*
X0289002Y0088537D01*
X0286076Y0088537D01*
X0286076Y0089511D02*
X0289002Y0089511D01*
X0289002Y0090485D02*
X0286076Y0090485D01*
X0286076Y0091459D02*
X0289002Y0091459D01*
X0275076Y0091463D02*
X0275076Y0088537D01*
X0275076Y0091463D02*
X0278002Y0091463D01*
X0278002Y0088537D01*
X0275076Y0088537D01*
X0275076Y0089511D02*
X0278002Y0089511D01*
X0278002Y0090485D02*
X0275076Y0090485D01*
X0275076Y0091459D02*
X0278002Y0091459D01*
X0275076Y0085463D02*
X0275076Y0082537D01*
X0275076Y0085463D02*
X0278002Y0085463D01*
X0278002Y0082537D01*
X0275076Y0082537D01*
X0275076Y0083511D02*
X0278002Y0083511D01*
X0278002Y0084485D02*
X0275076Y0084485D01*
X0275076Y0085459D02*
X0278002Y0085459D01*
X0257002Y0085479D02*
X0257002Y0082553D01*
X0254076Y0082553D01*
X0254076Y0085479D01*
X0257002Y0085479D01*
X0257002Y0083527D02*
X0254076Y0083527D01*
X0254076Y0084501D02*
X0257002Y0084501D01*
X0257002Y0085475D02*
X0254076Y0085475D01*
X0257002Y0088553D02*
X0257002Y0091479D01*
X0257002Y0088553D02*
X0254076Y0088553D01*
X0254076Y0091479D01*
X0257002Y0091479D01*
X0257002Y0089527D02*
X0254076Y0089527D01*
X0254076Y0090501D02*
X0257002Y0090501D01*
X0257002Y0091475D02*
X0254076Y0091475D01*
X0239025Y0091479D02*
X0239025Y0088553D01*
X0239025Y0091479D02*
X0241951Y0091479D01*
X0241951Y0088553D01*
X0239025Y0088553D01*
X0239025Y0089527D02*
X0241951Y0089527D01*
X0241951Y0090501D02*
X0239025Y0090501D01*
X0239025Y0091475D02*
X0241951Y0091475D01*
X0239025Y0085479D02*
X0239025Y0082553D01*
X0239025Y0085479D02*
X0241951Y0085479D01*
X0241951Y0082553D01*
X0239025Y0082553D01*
X0239025Y0083527D02*
X0241951Y0083527D01*
X0241951Y0084501D02*
X0239025Y0084501D01*
X0239025Y0085475D02*
X0241951Y0085475D01*
X0231025Y0085479D02*
X0231025Y0082553D01*
X0231025Y0085479D02*
X0233951Y0085479D01*
X0233951Y0082553D01*
X0231025Y0082553D01*
X0231025Y0083527D02*
X0233951Y0083527D01*
X0233951Y0084501D02*
X0231025Y0084501D01*
X0231025Y0085475D02*
X0233951Y0085475D01*
X0231025Y0088553D02*
X0231025Y0091479D01*
X0233951Y0091479D01*
X0233951Y0088553D01*
X0231025Y0088553D01*
X0231025Y0089527D02*
X0233951Y0089527D01*
X0233951Y0090501D02*
X0231025Y0090501D01*
X0231025Y0091475D02*
X0233951Y0091475D01*
X0165002Y0069963D02*
X0162076Y0069963D01*
X0165002Y0069963D02*
X0165002Y0067037D01*
X0162076Y0067037D01*
X0162076Y0069963D01*
X0162076Y0068011D02*
X0165002Y0068011D01*
X0165002Y0068985D02*
X0162076Y0068985D01*
X0162076Y0069959D02*
X0165002Y0069959D01*
X0159002Y0069963D02*
X0156076Y0069963D01*
X0159002Y0069963D02*
X0159002Y0067037D01*
X0156076Y0067037D01*
X0156076Y0069963D01*
X0156076Y0068011D02*
X0159002Y0068011D01*
X0159002Y0068985D02*
X0156076Y0068985D01*
X0156076Y0069959D02*
X0159002Y0069959D01*
X0151002Y0070963D02*
X0151002Y0068037D01*
X0148076Y0068037D01*
X0148076Y0070963D01*
X0151002Y0070963D01*
X0151002Y0069011D02*
X0148076Y0069011D01*
X0148076Y0069985D02*
X0151002Y0069985D01*
X0151002Y0070959D02*
X0148076Y0070959D01*
X0151002Y0064963D02*
X0151002Y0062037D01*
X0148076Y0062037D01*
X0148076Y0064963D01*
X0151002Y0064963D01*
X0151002Y0063011D02*
X0148076Y0063011D01*
X0148076Y0063985D02*
X0151002Y0063985D01*
X0151002Y0064959D02*
X0148076Y0064959D01*
X0087502Y0102463D02*
X0084576Y0102463D01*
X0087502Y0102463D02*
X0087502Y0099537D01*
X0084576Y0099537D01*
X0084576Y0102463D01*
X0084576Y0100511D02*
X0087502Y0100511D01*
X0087502Y0101485D02*
X0084576Y0101485D01*
X0084576Y0102459D02*
X0087502Y0102459D01*
X0081502Y0102463D02*
X0078576Y0102463D01*
X0081502Y0102463D02*
X0081502Y0099537D01*
X0078576Y0099537D01*
X0078576Y0102463D01*
X0078576Y0100511D02*
X0081502Y0100511D01*
X0081502Y0101485D02*
X0078576Y0101485D01*
X0078576Y0102459D02*
X0081502Y0102459D01*
X0069576Y0102463D02*
X0069576Y0099537D01*
X0069576Y0102463D02*
X0072502Y0102463D01*
X0072502Y0099537D01*
X0069576Y0099537D01*
X0069576Y0100511D02*
X0072502Y0100511D01*
X0072502Y0101485D02*
X0069576Y0101485D01*
X0069576Y0102459D02*
X0072502Y0102459D01*
X0069576Y0096463D02*
X0069576Y0093537D01*
X0069576Y0096463D02*
X0072502Y0096463D01*
X0072502Y0093537D01*
X0069576Y0093537D01*
X0069576Y0094511D02*
X0072502Y0094511D01*
X0072502Y0095485D02*
X0069576Y0095485D01*
X0069576Y0096459D02*
X0072502Y0096459D01*
X0069576Y0111537D02*
X0069576Y0114463D01*
X0072502Y0114463D01*
X0072502Y0111537D01*
X0069576Y0111537D01*
X0069576Y0112511D02*
X0072502Y0112511D01*
X0072502Y0113485D02*
X0069576Y0113485D01*
X0069576Y0114459D02*
X0072502Y0114459D01*
X0069576Y0117537D02*
X0069576Y0120463D01*
X0072502Y0120463D01*
X0072502Y0117537D01*
X0069576Y0117537D01*
X0069576Y0118511D02*
X0072502Y0118511D01*
X0072502Y0119485D02*
X0069576Y0119485D01*
X0069576Y0120459D02*
X0072502Y0120459D01*
X0086502Y0165537D02*
X0086502Y0168463D01*
X0086502Y0165537D02*
X0083576Y0165537D01*
X0083576Y0168463D01*
X0086502Y0168463D01*
X0086502Y0166511D02*
X0083576Y0166511D01*
X0083576Y0167485D02*
X0086502Y0167485D01*
X0086502Y0168459D02*
X0083576Y0168459D01*
X0086502Y0171537D02*
X0086502Y0174463D01*
X0086502Y0171537D02*
X0083576Y0171537D01*
X0083576Y0174463D01*
X0086502Y0174463D01*
X0086502Y0172511D02*
X0083576Y0172511D01*
X0083576Y0173485D02*
X0086502Y0173485D01*
X0086502Y0174459D02*
X0083576Y0174459D01*
X0091576Y0193537D02*
X0091576Y0196463D01*
X0094502Y0196463D01*
X0094502Y0193537D01*
X0091576Y0193537D01*
X0091576Y0194511D02*
X0094502Y0194511D01*
X0094502Y0195485D02*
X0091576Y0195485D01*
X0091576Y0196459D02*
X0094502Y0196459D01*
X0091576Y0199537D02*
X0091576Y0202463D01*
X0094502Y0202463D01*
X0094502Y0199537D01*
X0091576Y0199537D01*
X0091576Y0200511D02*
X0094502Y0200511D01*
X0094502Y0201485D02*
X0091576Y0201485D01*
X0091576Y0202459D02*
X0094502Y0202459D01*
X0074576Y0218537D02*
X0074576Y0221463D01*
X0077502Y0221463D01*
X0077502Y0218537D01*
X0074576Y0218537D01*
X0074576Y0219511D02*
X0077502Y0219511D01*
X0077502Y0220485D02*
X0074576Y0220485D01*
X0074576Y0221459D02*
X0077502Y0221459D01*
X0074576Y0224537D02*
X0074576Y0227463D01*
X0077502Y0227463D01*
X0077502Y0224537D01*
X0074576Y0224537D01*
X0074576Y0225511D02*
X0077502Y0225511D01*
X0077502Y0226485D02*
X0074576Y0226485D01*
X0074576Y0227459D02*
X0077502Y0227459D01*
X0085576Y0228037D02*
X0085576Y0230963D01*
X0088502Y0230963D01*
X0088502Y0228037D01*
X0085576Y0228037D01*
X0085576Y0229011D02*
X0088502Y0229011D01*
X0088502Y0229985D02*
X0085576Y0229985D01*
X0085576Y0230959D02*
X0088502Y0230959D01*
X0085576Y0224963D02*
X0085576Y0222037D01*
X0085576Y0224963D02*
X0088502Y0224963D01*
X0088502Y0222037D01*
X0085576Y0222037D01*
X0085576Y0223011D02*
X0088502Y0223011D01*
X0088502Y0223985D02*
X0085576Y0223985D01*
X0085576Y0224959D02*
X0088502Y0224959D01*
X0055502Y0262537D02*
X0055502Y0265463D01*
X0055502Y0262537D02*
X0052576Y0262537D01*
X0052576Y0265463D01*
X0055502Y0265463D01*
X0055502Y0263511D02*
X0052576Y0263511D01*
X0052576Y0264485D02*
X0055502Y0264485D01*
X0055502Y0265459D02*
X0052576Y0265459D01*
X0055502Y0268537D02*
X0055502Y0271463D01*
X0055502Y0268537D02*
X0052576Y0268537D01*
X0052576Y0271463D01*
X0055502Y0271463D01*
X0055502Y0269511D02*
X0052576Y0269511D01*
X0052576Y0270485D02*
X0055502Y0270485D01*
X0055502Y0271459D02*
X0052576Y0271459D01*
X0060502Y0281537D02*
X0060502Y0284463D01*
X0060502Y0281537D02*
X0057576Y0281537D01*
X0057576Y0284463D01*
X0060502Y0284463D01*
X0060502Y0282511D02*
X0057576Y0282511D01*
X0057576Y0283485D02*
X0060502Y0283485D01*
X0060502Y0284459D02*
X0057576Y0284459D01*
X0060502Y0287537D02*
X0060502Y0290463D01*
X0060502Y0287537D02*
X0057576Y0287537D01*
X0057576Y0290463D01*
X0060502Y0290463D01*
X0060502Y0288511D02*
X0057576Y0288511D01*
X0057576Y0289485D02*
X0060502Y0289485D01*
X0060502Y0290459D02*
X0057576Y0290459D01*
X0145002Y0291037D02*
X0145002Y0293963D01*
X0145002Y0291037D02*
X0142076Y0291037D01*
X0142076Y0293963D01*
X0145002Y0293963D01*
X0145002Y0292011D02*
X0142076Y0292011D01*
X0142076Y0292985D02*
X0145002Y0292985D01*
X0145002Y0293959D02*
X0142076Y0293959D01*
X0145002Y0287963D02*
X0145002Y0285037D01*
X0142076Y0285037D01*
X0142076Y0287963D01*
X0145002Y0287963D01*
X0145002Y0286011D02*
X0142076Y0286011D01*
X0142076Y0286985D02*
X0145002Y0286985D01*
X0145002Y0287959D02*
X0142076Y0287959D01*
X0232076Y0326037D02*
X0232076Y0328963D01*
X0235002Y0328963D01*
X0235002Y0326037D01*
X0232076Y0326037D01*
X0232076Y0327011D02*
X0235002Y0327011D01*
X0235002Y0327985D02*
X0232076Y0327985D01*
X0232076Y0328959D02*
X0235002Y0328959D01*
X0232076Y0332037D02*
X0232076Y0334963D01*
X0235002Y0334963D01*
X0235002Y0332037D01*
X0232076Y0332037D01*
X0232076Y0333011D02*
X0235002Y0333011D01*
X0235002Y0333985D02*
X0232076Y0333985D01*
X0232076Y0334959D02*
X0235002Y0334959D01*
X0199902Y0136837D02*
X0196976Y0136837D01*
X0196976Y0139763D01*
X0199902Y0139763D01*
X0199902Y0136837D01*
X0199902Y0137811D02*
X0196976Y0137811D01*
X0196976Y0138785D02*
X0199902Y0138785D01*
X0199902Y0139759D02*
X0196976Y0139759D01*
X0193902Y0136837D02*
X0190976Y0136837D01*
X0190976Y0139763D01*
X0193902Y0139763D01*
X0193902Y0136837D01*
X0193902Y0137811D02*
X0190976Y0137811D01*
X0190976Y0138785D02*
X0193902Y0138785D01*
X0193902Y0139759D02*
X0190976Y0139759D01*
X0194576Y0130537D02*
X0197502Y0130537D01*
X0194576Y0130537D02*
X0194576Y0133463D01*
X0197502Y0133463D01*
X0197502Y0130537D01*
X0197502Y0131511D02*
X0194576Y0131511D01*
X0194576Y0132485D02*
X0197502Y0132485D01*
X0197502Y0133459D02*
X0194576Y0133459D01*
X0200576Y0130537D02*
X0203502Y0130537D01*
X0200576Y0130537D02*
X0200576Y0133463D01*
X0203502Y0133463D01*
X0203502Y0130537D01*
X0203502Y0131511D02*
X0200576Y0131511D01*
X0200576Y0132485D02*
X0203502Y0132485D01*
X0203502Y0133459D02*
X0200576Y0133459D01*
X0229776Y0057363D02*
X0229776Y0054437D01*
X0229776Y0057363D02*
X0232702Y0057363D01*
X0232702Y0054437D01*
X0229776Y0054437D01*
X0229776Y0055411D02*
X0232702Y0055411D01*
X0232702Y0056385D02*
X0229776Y0056385D01*
X0229776Y0057359D02*
X0232702Y0057359D01*
X0229776Y0051363D02*
X0229776Y0048437D01*
X0229776Y0051363D02*
X0232702Y0051363D01*
X0232702Y0048437D01*
X0229776Y0048437D01*
X0229776Y0049411D02*
X0232702Y0049411D01*
X0232702Y0050385D02*
X0229776Y0050385D01*
X0229776Y0051359D02*
X0232702Y0051359D01*
X0234576Y0029537D02*
X0237502Y0029537D01*
X0234576Y0029537D02*
X0234576Y0032463D01*
X0237502Y0032463D01*
X0237502Y0029537D01*
X0237502Y0030511D02*
X0234576Y0030511D01*
X0234576Y0031485D02*
X0237502Y0031485D01*
X0237502Y0032459D02*
X0234576Y0032459D01*
X0240576Y0029537D02*
X0243502Y0029537D01*
X0240576Y0029537D02*
X0240576Y0032463D01*
X0243502Y0032463D01*
X0243502Y0029537D01*
X0243502Y0030511D02*
X0240576Y0030511D01*
X0240576Y0031485D02*
X0243502Y0031485D01*
X0243502Y0032459D02*
X0240576Y0032459D01*
X0231002Y0024537D02*
X0228076Y0024537D01*
X0228076Y0027463D01*
X0231002Y0027463D01*
X0231002Y0024537D01*
X0231002Y0025511D02*
X0228076Y0025511D01*
X0228076Y0026485D02*
X0231002Y0026485D01*
X0231002Y0027459D02*
X0228076Y0027459D01*
X0225002Y0024537D02*
X0222076Y0024537D01*
X0222076Y0027463D01*
X0225002Y0027463D01*
X0225002Y0024537D01*
X0225002Y0025511D02*
X0222076Y0025511D01*
X0222076Y0026485D02*
X0225002Y0026485D01*
X0225002Y0027459D02*
X0222076Y0027459D01*
X0213502Y0024537D02*
X0210576Y0024537D01*
X0210576Y0027463D01*
X0213502Y0027463D01*
X0213502Y0024537D01*
X0213502Y0025511D02*
X0210576Y0025511D01*
X0210576Y0026485D02*
X0213502Y0026485D01*
X0213502Y0027459D02*
X0210576Y0027459D01*
X0207502Y0024537D02*
X0204576Y0024537D01*
X0204576Y0027463D01*
X0207502Y0027463D01*
X0207502Y0024537D01*
X0207502Y0025511D02*
X0204576Y0025511D01*
X0204576Y0026485D02*
X0207502Y0026485D01*
X0207502Y0027459D02*
X0204576Y0027459D01*
X0036002Y0062037D02*
X0036002Y0064963D01*
X0036002Y0062037D02*
X0033076Y0062037D01*
X0033076Y0064963D01*
X0036002Y0064963D01*
X0036002Y0063011D02*
X0033076Y0063011D01*
X0033076Y0063985D02*
X0036002Y0063985D01*
X0036002Y0064959D02*
X0033076Y0064959D01*
X0036002Y0068037D02*
X0036002Y0070963D01*
X0036002Y0068037D02*
X0033076Y0068037D01*
X0033076Y0070963D01*
X0036002Y0070963D01*
X0036002Y0069011D02*
X0033076Y0069011D01*
X0033076Y0069985D02*
X0036002Y0069985D01*
X0036002Y0070959D02*
X0033076Y0070959D01*
D16*
X0283889Y0015600D02*
X0287189Y0015600D01*
X0283889Y0015600D02*
X0283889Y0020400D01*
X0287189Y0020400D01*
X0287189Y0015600D01*
X0287189Y0016699D02*
X0283889Y0016699D01*
X0283889Y0017798D02*
X0287189Y0017798D01*
X0287189Y0018897D02*
X0283889Y0018897D01*
X0283889Y0019996D02*
X0287189Y0019996D01*
X0290889Y0015600D02*
X0294189Y0015600D01*
X0290889Y0015600D02*
X0290889Y0020400D01*
X0294189Y0020400D01*
X0294189Y0015600D01*
X0294189Y0016699D02*
X0290889Y0016699D01*
X0290889Y0017798D02*
X0294189Y0017798D01*
X0294189Y0018897D02*
X0290889Y0018897D01*
X0290889Y0019996D02*
X0294189Y0019996D01*
X0369889Y0036600D02*
X0373189Y0036600D01*
X0369889Y0036600D02*
X0369889Y0041400D01*
X0373189Y0041400D01*
X0373189Y0036600D01*
X0373189Y0037699D02*
X0369889Y0037699D01*
X0369889Y0038798D02*
X0373189Y0038798D01*
X0373189Y0039897D02*
X0369889Y0039897D01*
X0369889Y0040996D02*
X0373189Y0040996D01*
X0376889Y0036600D02*
X0380189Y0036600D01*
X0376889Y0036600D02*
X0376889Y0041400D01*
X0380189Y0041400D01*
X0380189Y0036600D01*
X0380189Y0037699D02*
X0376889Y0037699D01*
X0376889Y0038798D02*
X0380189Y0038798D01*
X0380189Y0039897D02*
X0376889Y0039897D01*
X0376889Y0040996D02*
X0380189Y0040996D01*
X0532389Y0284900D02*
X0535689Y0284900D01*
X0535689Y0280100D01*
X0532389Y0280100D01*
X0532389Y0284900D01*
X0532389Y0281199D02*
X0535689Y0281199D01*
X0535689Y0282298D02*
X0532389Y0282298D01*
X0532389Y0283397D02*
X0535689Y0283397D01*
X0535689Y0284496D02*
X0532389Y0284496D01*
X0539389Y0284900D02*
X0542689Y0284900D01*
X0542689Y0280100D01*
X0539389Y0280100D01*
X0539389Y0284900D01*
X0539389Y0281199D02*
X0542689Y0281199D01*
X0542689Y0282298D02*
X0539389Y0282298D01*
X0539389Y0283397D02*
X0542689Y0283397D01*
X0542689Y0284496D02*
X0539389Y0284496D01*
X0539389Y0293900D02*
X0542689Y0293900D01*
X0542689Y0289100D01*
X0539389Y0289100D01*
X0539389Y0293900D01*
X0539389Y0290199D02*
X0542689Y0290199D01*
X0542689Y0291298D02*
X0539389Y0291298D01*
X0539389Y0292397D02*
X0542689Y0292397D01*
X0542689Y0293496D02*
X0539389Y0293496D01*
X0535689Y0293900D02*
X0532389Y0293900D01*
X0535689Y0293900D02*
X0535689Y0289100D01*
X0532389Y0289100D01*
X0532389Y0293900D01*
X0532389Y0290199D02*
X0535689Y0290199D01*
X0535689Y0291298D02*
X0532389Y0291298D01*
X0532389Y0292397D02*
X0535689Y0292397D01*
X0535689Y0293496D02*
X0532389Y0293496D01*
D17*
X0846539Y0123201D03*
X0846539Y0105799D03*
D18*
X0816014Y0095775D02*
X0816014Y0093225D01*
X0816014Y0095775D02*
X0819064Y0095775D01*
X0819064Y0093225D01*
X0816014Y0093225D01*
X0816014Y0094074D02*
X0819064Y0094074D01*
X0819064Y0094923D02*
X0816014Y0094923D01*
X0816014Y0095772D02*
X0819064Y0095772D01*
X0816014Y0089775D02*
X0816014Y0087225D01*
X0816014Y0089775D02*
X0819064Y0089775D01*
X0819064Y0087225D01*
X0816014Y0087225D01*
X0816014Y0088074D02*
X0819064Y0088074D01*
X0819064Y0088923D02*
X0816014Y0088923D01*
X0816014Y0089772D02*
X0819064Y0089772D01*
X0845064Y0188225D02*
X0845064Y0190775D01*
X0845064Y0188225D02*
X0842014Y0188225D01*
X0842014Y0190775D01*
X0845064Y0190775D01*
X0845064Y0189074D02*
X0842014Y0189074D01*
X0842014Y0189923D02*
X0845064Y0189923D01*
X0845064Y0190772D02*
X0842014Y0190772D01*
X0845064Y0194225D02*
X0845064Y0196775D01*
X0845064Y0194225D02*
X0842014Y0194225D01*
X0842014Y0196775D01*
X0845064Y0196775D01*
X0845064Y0195074D02*
X0842014Y0195074D01*
X0842014Y0195923D02*
X0845064Y0195923D01*
X0845064Y0196772D02*
X0842014Y0196772D01*
X0855064Y0196775D02*
X0855064Y0194225D01*
X0852014Y0194225D01*
X0852014Y0196775D01*
X0855064Y0196775D01*
X0855064Y0195074D02*
X0852014Y0195074D01*
X0852014Y0195923D02*
X0855064Y0195923D01*
X0855064Y0196772D02*
X0852014Y0196772D01*
X0855064Y0190775D02*
X0855064Y0188225D01*
X0852014Y0188225D01*
X0852014Y0190775D01*
X0855064Y0190775D01*
X0855064Y0189074D02*
X0852014Y0189074D01*
X0852014Y0189923D02*
X0855064Y0189923D01*
X0855064Y0190772D02*
X0852014Y0190772D01*
X0483014Y0103775D02*
X0483014Y0101225D01*
X0483014Y0103775D02*
X0486064Y0103775D01*
X0486064Y0101225D01*
X0483014Y0101225D01*
X0483014Y0102074D02*
X0486064Y0102074D01*
X0486064Y0102923D02*
X0483014Y0102923D01*
X0483014Y0103772D02*
X0486064Y0103772D01*
X0471514Y0103775D02*
X0471514Y0101225D01*
X0471514Y0103775D02*
X0474564Y0103775D01*
X0474564Y0101225D01*
X0471514Y0101225D01*
X0471514Y0102074D02*
X0474564Y0102074D01*
X0474564Y0102923D02*
X0471514Y0102923D01*
X0471514Y0103772D02*
X0474564Y0103772D01*
X0460514Y0103775D02*
X0460514Y0101225D01*
X0460514Y0103775D02*
X0463564Y0103775D01*
X0463564Y0101225D01*
X0460514Y0101225D01*
X0460514Y0102074D02*
X0463564Y0102074D01*
X0463564Y0102923D02*
X0460514Y0102923D01*
X0460514Y0103772D02*
X0463564Y0103772D01*
X0460514Y0097775D02*
X0460514Y0095225D01*
X0460514Y0097775D02*
X0463564Y0097775D01*
X0463564Y0095225D01*
X0460514Y0095225D01*
X0460514Y0096074D02*
X0463564Y0096074D01*
X0463564Y0096923D02*
X0460514Y0096923D01*
X0460514Y0097772D02*
X0463564Y0097772D01*
X0471514Y0097775D02*
X0471514Y0095225D01*
X0471514Y0097775D02*
X0474564Y0097775D01*
X0474564Y0095225D01*
X0471514Y0095225D01*
X0471514Y0096074D02*
X0474564Y0096074D01*
X0474564Y0096923D02*
X0471514Y0096923D01*
X0471514Y0097772D02*
X0474564Y0097772D01*
X0483014Y0097775D02*
X0483014Y0095225D01*
X0483014Y0097775D02*
X0486064Y0097775D01*
X0486064Y0095225D01*
X0483014Y0095225D01*
X0483014Y0096074D02*
X0486064Y0096074D01*
X0486064Y0096923D02*
X0483014Y0096923D01*
X0483014Y0097772D02*
X0486064Y0097772D01*
X0395014Y0077275D02*
X0395014Y0074725D01*
X0395014Y0077275D02*
X0398064Y0077275D01*
X0398064Y0074725D01*
X0395014Y0074725D01*
X0395014Y0075574D02*
X0398064Y0075574D01*
X0398064Y0076423D02*
X0395014Y0076423D01*
X0395014Y0077272D02*
X0398064Y0077272D01*
X0384014Y0077275D02*
X0384014Y0074725D01*
X0384014Y0077275D02*
X0387064Y0077275D01*
X0387064Y0074725D01*
X0384014Y0074725D01*
X0384014Y0075574D02*
X0387064Y0075574D01*
X0387064Y0076423D02*
X0384014Y0076423D01*
X0384014Y0077272D02*
X0387064Y0077272D01*
X0384014Y0071275D02*
X0384014Y0068725D01*
X0384014Y0071275D02*
X0387064Y0071275D01*
X0387064Y0068725D01*
X0384014Y0068725D01*
X0384014Y0069574D02*
X0387064Y0069574D01*
X0387064Y0070423D02*
X0384014Y0070423D01*
X0384014Y0071272D02*
X0387064Y0071272D01*
X0395014Y0071275D02*
X0395014Y0068725D01*
X0395014Y0071275D02*
X0398064Y0071275D01*
X0398064Y0068725D01*
X0395014Y0068725D01*
X0395014Y0069574D02*
X0398064Y0069574D01*
X0398064Y0070423D02*
X0395014Y0070423D01*
X0395014Y0071272D02*
X0398064Y0071272D01*
X0468764Y0042525D02*
X0471314Y0042525D01*
X0471314Y0039475D01*
X0468764Y0039475D01*
X0468764Y0042525D01*
X0468764Y0040324D02*
X0471314Y0040324D01*
X0471314Y0041173D02*
X0468764Y0041173D01*
X0468764Y0042022D02*
X0471314Y0042022D01*
X0474764Y0042525D02*
X0477314Y0042525D01*
X0477314Y0039475D01*
X0474764Y0039475D01*
X0474764Y0042525D01*
X0474764Y0040324D02*
X0477314Y0040324D01*
X0477314Y0041173D02*
X0474764Y0041173D01*
X0474764Y0042022D02*
X0477314Y0042022D01*
X0317514Y0068725D02*
X0317514Y0071275D01*
X0320564Y0071275D01*
X0320564Y0068725D01*
X0317514Y0068725D01*
X0317514Y0069574D02*
X0320564Y0069574D01*
X0320564Y0070423D02*
X0317514Y0070423D01*
X0317514Y0071272D02*
X0320564Y0071272D01*
X0317514Y0074725D02*
X0317514Y0077275D01*
X0320564Y0077275D01*
X0320564Y0074725D01*
X0317514Y0074725D01*
X0317514Y0075574D02*
X0320564Y0075574D01*
X0320564Y0076423D02*
X0317514Y0076423D01*
X0317514Y0077272D02*
X0320564Y0077272D01*
X0305514Y0077275D02*
X0305514Y0074725D01*
X0305514Y0077275D02*
X0308564Y0077275D01*
X0308564Y0074725D01*
X0305514Y0074725D01*
X0305514Y0075574D02*
X0308564Y0075574D01*
X0308564Y0076423D02*
X0305514Y0076423D01*
X0305514Y0077272D02*
X0308564Y0077272D01*
X0305514Y0071275D02*
X0305514Y0068725D01*
X0305514Y0071275D02*
X0308564Y0071275D01*
X0308564Y0068725D01*
X0305514Y0068725D01*
X0305514Y0069574D02*
X0308564Y0069574D01*
X0308564Y0070423D02*
X0305514Y0070423D01*
X0305514Y0071272D02*
X0308564Y0071272D01*
X0286014Y0072275D02*
X0286014Y0069725D01*
X0286014Y0072275D02*
X0289064Y0072275D01*
X0289064Y0069725D01*
X0286014Y0069725D01*
X0286014Y0070574D02*
X0289064Y0070574D01*
X0289064Y0071423D02*
X0286014Y0071423D01*
X0286014Y0072272D02*
X0289064Y0072272D01*
X0286014Y0075725D02*
X0286014Y0078275D01*
X0289064Y0078275D01*
X0289064Y0075725D01*
X0286014Y0075725D01*
X0286014Y0076574D02*
X0289064Y0076574D01*
X0289064Y0077423D02*
X0286014Y0077423D01*
X0286014Y0078272D02*
X0289064Y0078272D01*
X0275014Y0078275D02*
X0275014Y0075725D01*
X0275014Y0078275D02*
X0278064Y0078275D01*
X0278064Y0075725D01*
X0275014Y0075725D01*
X0275014Y0076574D02*
X0278064Y0076574D01*
X0278064Y0077423D02*
X0275014Y0077423D01*
X0275014Y0078272D02*
X0278064Y0078272D01*
X0275014Y0072275D02*
X0275014Y0069725D01*
X0275014Y0072275D02*
X0278064Y0072275D01*
X0278064Y0069725D01*
X0275014Y0069725D01*
X0275014Y0070574D02*
X0278064Y0070574D01*
X0278064Y0071423D02*
X0275014Y0071423D01*
X0275014Y0072272D02*
X0278064Y0072272D01*
X0254014Y0071791D02*
X0254014Y0069241D01*
X0254014Y0071791D02*
X0257064Y0071791D01*
X0257064Y0069241D01*
X0254014Y0069241D01*
X0254014Y0070090D02*
X0257064Y0070090D01*
X0257064Y0070939D02*
X0254014Y0070939D01*
X0254014Y0071788D02*
X0257064Y0071788D01*
X0254014Y0075241D02*
X0254014Y0077791D01*
X0257064Y0077791D01*
X0257064Y0075241D01*
X0254014Y0075241D01*
X0254014Y0076090D02*
X0257064Y0076090D01*
X0257064Y0076939D02*
X0254014Y0076939D01*
X0254014Y0077788D02*
X0257064Y0077788D01*
X0238963Y0077791D02*
X0238963Y0075241D01*
X0238963Y0077791D02*
X0242013Y0077791D01*
X0242013Y0075241D01*
X0238963Y0075241D01*
X0238963Y0076090D02*
X0242013Y0076090D01*
X0242013Y0076939D02*
X0238963Y0076939D01*
X0238963Y0077788D02*
X0242013Y0077788D01*
X0238963Y0071791D02*
X0238963Y0069241D01*
X0238963Y0071791D02*
X0242013Y0071791D01*
X0242013Y0069241D01*
X0238963Y0069241D01*
X0238963Y0070090D02*
X0242013Y0070090D01*
X0242013Y0070939D02*
X0238963Y0070939D01*
X0238963Y0071788D02*
X0242013Y0071788D01*
X0230963Y0071791D02*
X0230963Y0069241D01*
X0230963Y0071791D02*
X0234013Y0071791D01*
X0234013Y0069241D01*
X0230963Y0069241D01*
X0230963Y0070090D02*
X0234013Y0070090D01*
X0234013Y0070939D02*
X0230963Y0070939D01*
X0230963Y0071788D02*
X0234013Y0071788D01*
X0230963Y0075241D02*
X0230963Y0077791D01*
X0234013Y0077791D01*
X0234013Y0075241D01*
X0230963Y0075241D01*
X0230963Y0076090D02*
X0234013Y0076090D01*
X0234013Y0076939D02*
X0230963Y0076939D01*
X0230963Y0077788D02*
X0234013Y0077788D01*
X0045064Y0070775D02*
X0045064Y0068225D01*
X0042014Y0068225D01*
X0042014Y0070775D01*
X0045064Y0070775D01*
X0045064Y0069074D02*
X0042014Y0069074D01*
X0042014Y0069923D02*
X0045064Y0069923D01*
X0045064Y0070772D02*
X0042014Y0070772D01*
X0045064Y0064775D02*
X0045064Y0062225D01*
X0042014Y0062225D01*
X0042014Y0064775D01*
X0045064Y0064775D01*
X0045064Y0063074D02*
X0042014Y0063074D01*
X0042014Y0063923D02*
X0045064Y0063923D01*
X0045064Y0064772D02*
X0042014Y0064772D01*
X0142014Y0269225D02*
X0142014Y0271775D01*
X0145064Y0271775D01*
X0145064Y0269225D01*
X0142014Y0269225D01*
X0142014Y0270074D02*
X0145064Y0270074D01*
X0145064Y0270923D02*
X0142014Y0270923D01*
X0142014Y0271772D02*
X0145064Y0271772D01*
X0142014Y0275225D02*
X0142014Y0277775D01*
X0145064Y0277775D01*
X0145064Y0275225D01*
X0142014Y0275225D01*
X0142014Y0276074D02*
X0145064Y0276074D01*
X0145064Y0276923D02*
X0142014Y0276923D01*
X0142014Y0277772D02*
X0145064Y0277772D01*
D19*
X0817113Y0169422D02*
X0837965Y0169422D01*
X0837965Y0161562D01*
X0817113Y0161562D01*
X0817113Y0169422D01*
X0817113Y0161975D02*
X0837965Y0161975D01*
X0837965Y0162388D02*
X0817113Y0162388D01*
X0817113Y0162801D02*
X0837965Y0162801D01*
X0837965Y0163214D02*
X0817113Y0163214D01*
X0817113Y0163627D02*
X0837965Y0163627D01*
X0837965Y0164040D02*
X0817113Y0164040D01*
X0817113Y0164453D02*
X0837965Y0164453D01*
X0837965Y0164866D02*
X0817113Y0164866D01*
X0817113Y0165279D02*
X0837965Y0165279D01*
X0837965Y0165692D02*
X0817113Y0165692D01*
X0817113Y0166105D02*
X0837965Y0166105D01*
X0837965Y0166518D02*
X0817113Y0166518D01*
X0817113Y0166931D02*
X0837965Y0166931D01*
X0837965Y0167344D02*
X0817113Y0167344D01*
X0817113Y0167757D02*
X0837965Y0167757D01*
X0837965Y0168170D02*
X0817113Y0168170D01*
X0817113Y0168583D02*
X0837965Y0168583D01*
X0837965Y0168996D02*
X0817113Y0168996D01*
X0817113Y0169409D02*
X0837965Y0169409D01*
X0837965Y0143438D02*
X0817113Y0143438D01*
X0837965Y0143438D02*
X0837965Y0135578D01*
X0817113Y0135578D01*
X0817113Y0143438D01*
X0817113Y0135991D02*
X0837965Y0135991D01*
X0837965Y0136404D02*
X0817113Y0136404D01*
X0817113Y0136817D02*
X0837965Y0136817D01*
X0837965Y0137230D02*
X0817113Y0137230D01*
X0817113Y0137643D02*
X0837965Y0137643D01*
X0837965Y0138056D02*
X0817113Y0138056D01*
X0817113Y0138469D02*
X0837965Y0138469D01*
X0837965Y0138882D02*
X0817113Y0138882D01*
X0817113Y0139295D02*
X0837965Y0139295D01*
X0837965Y0139708D02*
X0817113Y0139708D01*
X0817113Y0140121D02*
X0837965Y0140121D01*
X0837965Y0140534D02*
X0817113Y0140534D01*
X0817113Y0140947D02*
X0837965Y0140947D01*
X0837965Y0141360D02*
X0817113Y0141360D01*
X0817113Y0141773D02*
X0837965Y0141773D01*
X0837965Y0142186D02*
X0817113Y0142186D01*
X0817113Y0142599D02*
X0837965Y0142599D01*
X0837965Y0143012D02*
X0817113Y0143012D01*
X0817113Y0143425D02*
X0837965Y0143425D01*
D20*
X0575039Y0076500D03*
X0564539Y0076500D03*
X0564539Y0065500D03*
X0575039Y0065500D03*
X0432988Y0123516D03*
X0432988Y0134516D03*
X0432488Y0144516D03*
X0432488Y0155516D03*
X0334039Y0199500D03*
X0334039Y0210500D03*
X0334539Y0220500D03*
X0334539Y0231500D03*
X0259539Y0231500D03*
X0259539Y0220500D03*
X0259039Y0210000D03*
X0259039Y0199000D03*
X0259039Y0155516D03*
X0259039Y0144516D03*
X0259039Y0134516D03*
X0259039Y0123516D03*
X0103039Y0228500D03*
X0103039Y0239500D03*
X0161039Y0288500D03*
X0161039Y0299500D03*
X0259539Y0294500D03*
X0260039Y0284500D03*
X0260039Y0273500D03*
X0259539Y0305500D03*
X0334539Y0305500D03*
X0334539Y0294500D03*
X0334539Y0284500D03*
X0334539Y0273500D03*
X0485039Y0279000D03*
X0485039Y0290000D03*
X0501539Y0290500D03*
X0501539Y0279500D03*
X0335539Y0365500D03*
X0335539Y0376500D03*
X0335539Y0386500D03*
X0335539Y0397500D03*
X0260539Y0397500D03*
X0260539Y0386500D03*
X0260539Y0376500D03*
X0260539Y0365500D03*
X0163039Y0394500D03*
X0148039Y0394500D03*
X0148039Y0405500D03*
X0163039Y0405500D03*
X0126539Y0405000D03*
X0109539Y0405000D03*
X0109539Y0394000D03*
X0126539Y0394000D03*
X0454539Y0398000D03*
X0454539Y0409000D03*
X0467539Y0383000D03*
X0467539Y0372000D03*
D21*
X0466539Y0284500D03*
X0455539Y0284500D03*
X0566039Y0192500D03*
X0577039Y0192500D03*
X0596039Y0192500D03*
X0607039Y0192500D03*
X0260024Y0186949D03*
X0249024Y0186949D03*
X0248055Y0169551D03*
X0259055Y0169551D03*
X0234555Y0207000D03*
X0223555Y0207000D03*
X0223524Y0223000D03*
X0234524Y0223000D03*
D22*
X0875854Y0157037D02*
X0875854Y0151526D01*
X0875855Y0151526D02*
X0875857Y0151472D01*
X0875862Y0151419D01*
X0875871Y0151366D01*
X0875884Y0151314D01*
X0875900Y0151262D01*
X0875920Y0151212D01*
X0875943Y0151164D01*
X0875970Y0151117D01*
X0875999Y0151072D01*
X0876032Y0151029D01*
X0876067Y0150989D01*
X0876105Y0150951D01*
X0876145Y0150916D01*
X0876188Y0150883D01*
X0876233Y0150854D01*
X0876280Y0150827D01*
X0876328Y0150804D01*
X0876378Y0150784D01*
X0876430Y0150768D01*
X0876482Y0150755D01*
X0876535Y0150746D01*
X0876588Y0150741D01*
X0876642Y0150739D01*
X0876642Y0150738D02*
X0882154Y0150738D01*
X0882154Y0150739D02*
X0882208Y0150741D01*
X0882261Y0150746D01*
X0882314Y0150755D01*
X0882366Y0150768D01*
X0882418Y0150784D01*
X0882468Y0150804D01*
X0882516Y0150827D01*
X0882563Y0150854D01*
X0882608Y0150883D01*
X0882651Y0150916D01*
X0882691Y0150951D01*
X0882729Y0150989D01*
X0882764Y0151029D01*
X0882797Y0151072D01*
X0882826Y0151117D01*
X0882853Y0151164D01*
X0882876Y0151212D01*
X0882896Y0151262D01*
X0882912Y0151314D01*
X0882925Y0151366D01*
X0882934Y0151419D01*
X0882939Y0151472D01*
X0882941Y0151526D01*
X0882941Y0157037D01*
X0882939Y0157091D01*
X0882934Y0157144D01*
X0882925Y0157197D01*
X0882912Y0157249D01*
X0882896Y0157301D01*
X0882876Y0157351D01*
X0882853Y0157399D01*
X0882826Y0157446D01*
X0882797Y0157491D01*
X0882764Y0157534D01*
X0882729Y0157574D01*
X0882691Y0157612D01*
X0882651Y0157647D01*
X0882608Y0157680D01*
X0882563Y0157709D01*
X0882516Y0157736D01*
X0882468Y0157759D01*
X0882418Y0157779D01*
X0882366Y0157795D01*
X0882314Y0157808D01*
X0882261Y0157817D01*
X0882208Y0157822D01*
X0882154Y0157824D01*
X0882154Y0157825D02*
X0876642Y0157825D01*
X0876642Y0157824D02*
X0876588Y0157822D01*
X0876535Y0157817D01*
X0876482Y0157808D01*
X0876430Y0157795D01*
X0876378Y0157779D01*
X0876328Y0157759D01*
X0876280Y0157736D01*
X0876233Y0157709D01*
X0876188Y0157680D01*
X0876145Y0157647D01*
X0876105Y0157612D01*
X0876067Y0157574D01*
X0876032Y0157534D01*
X0875999Y0157491D01*
X0875970Y0157446D01*
X0875943Y0157399D01*
X0875920Y0157351D01*
X0875900Y0157301D01*
X0875884Y0157249D01*
X0875871Y0157197D01*
X0875862Y0157144D01*
X0875857Y0157091D01*
X0875855Y0157037D01*
D23*
X0118492Y0073311D03*
X0114161Y0073311D03*
X0109831Y0073311D03*
X0105500Y0073311D03*
X0101169Y0073311D03*
X0096839Y0073311D03*
X0092508Y0073311D03*
X0088177Y0073311D03*
X0083846Y0073311D03*
D24*
X0078728Y0070949D03*
D25*
X0078728Y0033547D03*
X0140539Y0033547D03*
D26*
X0136996Y0071343D03*
D27*
X0121642Y0031972D03*
X0090146Y0031972D03*
D28*
X0029539Y0122500D03*
X0019539Y0150500D03*
X0172939Y0298500D03*
X0205089Y0298400D03*
X0242039Y0397000D03*
X0566539Y0178500D03*
X0566539Y0157500D03*
X0564539Y0035500D03*
X0564539Y0022000D03*
D29*
X0574539Y0022000D03*
X0584539Y0022000D03*
X0594539Y0022000D03*
X0604539Y0022000D03*
X0614539Y0022000D03*
X0624539Y0022000D03*
X0634539Y0022000D03*
X0644539Y0022000D03*
X0654539Y0022000D03*
X0664539Y0022000D03*
X0674539Y0022000D03*
X0684539Y0022000D03*
X0694539Y0022000D03*
X0704539Y0022000D03*
X0714539Y0022000D03*
X0714539Y0035500D03*
X0704539Y0035500D03*
X0694539Y0035500D03*
X0684539Y0035500D03*
X0674539Y0035500D03*
X0664539Y0035500D03*
X0654539Y0035500D03*
X0644539Y0035500D03*
X0634539Y0035500D03*
X0624539Y0035500D03*
X0614539Y0035500D03*
X0604539Y0035500D03*
X0594539Y0035500D03*
X0584539Y0035500D03*
X0574539Y0035500D03*
X0576539Y0157500D03*
X0586539Y0157500D03*
X0596539Y0157500D03*
X0606539Y0157500D03*
X0616539Y0157500D03*
X0626539Y0157500D03*
X0636539Y0157500D03*
X0646539Y0157500D03*
X0656539Y0157500D03*
X0666539Y0157500D03*
X0676539Y0157500D03*
X0686539Y0157500D03*
X0696539Y0157500D03*
X0706539Y0157500D03*
X0716539Y0157500D03*
X0716539Y0178500D03*
X0706539Y0178500D03*
X0696539Y0178500D03*
X0686539Y0178500D03*
X0676539Y0178500D03*
X0666539Y0178500D03*
X0656539Y0178500D03*
X0646539Y0178500D03*
X0636539Y0178500D03*
X0626539Y0178500D03*
X0616539Y0178500D03*
X0606539Y0178500D03*
X0596539Y0178500D03*
X0586539Y0178500D03*
X0576539Y0178500D03*
X0205089Y0178400D03*
X0205089Y0168400D03*
X0205089Y0158400D03*
X0205089Y0148400D03*
X0172939Y0148500D03*
X0172939Y0158500D03*
X0172939Y0168500D03*
X0172939Y0178500D03*
X0172939Y0188500D03*
X0172939Y0198500D03*
X0172939Y0208500D03*
X0172939Y0218500D03*
X0172939Y0228500D03*
X0172939Y0238500D03*
X0172939Y0248500D03*
X0172939Y0258500D03*
X0172939Y0268500D03*
X0172939Y0278500D03*
X0172939Y0288500D03*
X0205089Y0288400D03*
X0205089Y0278400D03*
X0205089Y0268400D03*
X0205089Y0258400D03*
X0205089Y0248400D03*
X0205089Y0238400D03*
X0205089Y0228400D03*
X0205089Y0218400D03*
X0205089Y0208400D03*
X0205089Y0198400D03*
X0205089Y0188400D03*
X0029539Y0150500D03*
X0019539Y0122500D03*
X0242039Y0367000D03*
X0242039Y0377000D03*
X0242039Y0387000D03*
D30*
X0569437Y0407346D03*
X0569437Y0304984D03*
X0569437Y0214433D03*
X0797783Y0214433D03*
X0797783Y0304984D03*
X0797783Y0407346D03*
D31*
X0574555Y0258921D03*
X0588610Y0219433D03*
D32*
X0598557Y0219426D03*
X0608557Y0219426D03*
X0618557Y0219426D03*
X0628557Y0219426D03*
X0638557Y0219426D03*
X0648557Y0219426D03*
X0658557Y0219426D03*
X0668557Y0219426D03*
X0678557Y0219426D03*
X0678557Y0209426D03*
X0668557Y0209426D03*
X0658557Y0209426D03*
X0648557Y0209426D03*
X0638557Y0209426D03*
X0628557Y0209426D03*
X0618557Y0209426D03*
X0608557Y0209426D03*
X0598557Y0209426D03*
X0588557Y0209426D03*
X0519539Y0208500D03*
X0519539Y0218500D03*
X0519539Y0228500D03*
X0519539Y0238500D03*
X0519539Y0248500D03*
X0519539Y0258500D03*
X0519539Y0268500D03*
X0564555Y0258921D03*
X0519539Y0305500D03*
X0519539Y0315500D03*
X0519539Y0325500D03*
X0519539Y0335500D03*
X0519539Y0345500D03*
X0519539Y0355500D03*
X0519539Y0365500D03*
X0447539Y0365500D03*
X0447539Y0355500D03*
X0447539Y0345500D03*
X0447539Y0335500D03*
X0447539Y0325500D03*
X0447539Y0315500D03*
X0447539Y0305500D03*
X0390539Y0294500D03*
X0390539Y0284500D03*
X0390539Y0274500D03*
X0390539Y0264500D03*
X0390539Y0254500D03*
X0356539Y0254500D03*
X0356539Y0264500D03*
X0356539Y0274500D03*
X0356539Y0284500D03*
X0356539Y0294500D03*
X0311539Y0294500D03*
X0311539Y0284500D03*
X0311539Y0274500D03*
X0311539Y0264500D03*
X0311539Y0254500D03*
X0280539Y0254500D03*
X0280539Y0264500D03*
X0280539Y0274500D03*
X0280539Y0284500D03*
X0280539Y0294500D03*
X0227539Y0294500D03*
X0227539Y0284500D03*
X0227539Y0274500D03*
X0227539Y0264500D03*
X0227539Y0254500D03*
X0280539Y0220500D03*
X0280539Y0210500D03*
X0280539Y0200500D03*
X0280539Y0190500D03*
X0280539Y0180500D03*
X0311539Y0180500D03*
X0311539Y0190500D03*
X0311539Y0200500D03*
X0311539Y0210500D03*
X0311539Y0220500D03*
X0356539Y0220500D03*
X0356539Y0210500D03*
X0356539Y0200500D03*
X0356539Y0190500D03*
X0356539Y0180500D03*
X0390539Y0180500D03*
X0390539Y0190500D03*
X0390539Y0200500D03*
X0390539Y0210500D03*
X0390539Y0220500D03*
X0446539Y0218500D03*
X0446539Y0208500D03*
X0446539Y0228500D03*
X0446539Y0238500D03*
X0446539Y0248500D03*
X0446539Y0258500D03*
X0446539Y0268500D03*
X0390539Y0326500D03*
X0390539Y0336500D03*
X0390539Y0346500D03*
X0390539Y0356500D03*
X0390539Y0366500D03*
X0390539Y0376500D03*
X0390539Y0386500D03*
X0356539Y0386500D03*
X0356539Y0376500D03*
X0356539Y0366500D03*
X0356539Y0356500D03*
X0356539Y0346500D03*
X0356539Y0336500D03*
X0356539Y0326500D03*
X0311539Y0326500D03*
X0311539Y0336500D03*
X0311539Y0346500D03*
X0311539Y0356500D03*
X0311539Y0366500D03*
X0311539Y0376500D03*
X0311539Y0386500D03*
X0280539Y0386500D03*
X0280539Y0376500D03*
X0280539Y0366500D03*
X0280539Y0356500D03*
X0280539Y0346500D03*
X0280539Y0336500D03*
X0280539Y0326500D03*
X0208039Y0326500D03*
X0208039Y0336500D03*
X0208039Y0346500D03*
X0208039Y0356500D03*
X0208039Y0366500D03*
X0208039Y0376500D03*
X0208039Y0386500D03*
X0154039Y0366500D03*
X0154039Y0356500D03*
X0154039Y0346500D03*
X0154039Y0336500D03*
X0154039Y0326500D03*
X0103039Y0326500D03*
X0103039Y0336500D03*
X0103039Y0346500D03*
X0103039Y0356500D03*
X0103039Y0366500D03*
X0066039Y0366500D03*
X0066039Y0356500D03*
X0066039Y0346500D03*
X0066039Y0336500D03*
X0066039Y0326500D03*
X0233888Y0144517D03*
X0233888Y0134517D03*
X0233888Y0124517D03*
X0233888Y0114517D03*
X0233888Y0104517D03*
X0280539Y0104500D03*
X0280539Y0114500D03*
X0280539Y0124500D03*
X0280539Y0134500D03*
X0280539Y0144500D03*
X0311539Y0144500D03*
X0311539Y0134500D03*
X0311539Y0124500D03*
X0311539Y0114500D03*
X0311539Y0104500D03*
X0356539Y0104500D03*
X0356539Y0114500D03*
X0356539Y0124500D03*
X0356539Y0134500D03*
X0356539Y0144500D03*
X0390539Y0144500D03*
X0390539Y0134500D03*
X0390539Y0124500D03*
X0390539Y0114500D03*
X0390539Y0104500D03*
X0688557Y0209426D03*
X0698557Y0209426D03*
X0708557Y0209426D03*
X0718557Y0209426D03*
X0728557Y0209426D03*
X0738557Y0209426D03*
X0748557Y0209426D03*
X0758557Y0209426D03*
X0768557Y0209426D03*
X0778557Y0209426D03*
X0778557Y0219426D03*
X0768557Y0219426D03*
X0758557Y0219426D03*
X0748557Y0219426D03*
X0738557Y0219426D03*
X0728557Y0219426D03*
X0718557Y0219426D03*
X0708557Y0219426D03*
X0698557Y0219426D03*
X0688557Y0219426D03*
D33*
X0608539Y0261000D03*
X0608539Y0268000D03*
X0600539Y0264500D03*
X0591539Y0257500D03*
X0583539Y0254000D03*
X0583539Y0261000D03*
X0579539Y0271000D03*
X0571539Y0274500D03*
X0579539Y0278000D03*
X0592539Y0290000D03*
X0600539Y0293500D03*
X0592539Y0297000D03*
X0608539Y0283000D03*
X0600539Y0279500D03*
X0608539Y0276000D03*
X0085039Y0189500D03*
X0077039Y0186000D03*
X0085039Y0182500D03*
D34*
X0253127Y0017408D02*
X0254311Y0017408D01*
X0253127Y0017408D02*
X0253127Y0018592D01*
X0254311Y0018592D01*
X0254311Y0017408D01*
X0254311Y0018591D02*
X0253127Y0018591D01*
X0256768Y0017408D02*
X0257952Y0017408D01*
X0256768Y0017408D02*
X0256768Y0018592D01*
X0257952Y0018592D01*
X0257952Y0017408D01*
X0257952Y0018591D02*
X0256768Y0018591D01*
D35*
X0265039Y0066500D03*
X0265439Y0078100D03*
X0265539Y0089000D03*
X0487139Y0023000D03*
X0828539Y0122500D03*
X0858539Y0092500D03*
X0856539Y0179500D03*
X0843039Y0179500D03*
X0887039Y0180000D03*
X0886539Y0192500D03*
X0619539Y0263500D03*
X0590539Y0275500D03*
X0578039Y0332500D03*
X0495539Y0375500D03*
X0537539Y0395500D03*
X0231539Y0407500D03*
D36*
X0483239Y0340500D03*
X0483239Y0335500D03*
X0483239Y0330500D03*
X0483239Y0325500D03*
X0483239Y0320500D03*
X0483239Y0315500D03*
X0483239Y0310500D03*
X0501839Y0310500D03*
X0501839Y0315500D03*
X0501839Y0320500D03*
X0501839Y0325500D03*
X0501839Y0330500D03*
X0501839Y0335500D03*
X0501839Y0340500D03*
X0501989Y0243550D03*
X0501989Y0238550D03*
X0501989Y0233550D03*
X0501989Y0228550D03*
X0501989Y0223550D03*
X0501989Y0218550D03*
X0501989Y0213550D03*
X0483389Y0213550D03*
X0483389Y0218550D03*
X0483389Y0223550D03*
X0483389Y0228550D03*
X0483389Y0233550D03*
X0483389Y0238550D03*
X0483389Y0243550D03*
D37*
X0869164Y0118100D02*
X0869164Y0112900D01*
X0878539Y0112900D02*
X0878539Y0118100D01*
X0887915Y0118100D02*
X0887915Y0112900D01*
D38*
X0878539Y0070500D03*
D39*
X0835539Y0037500D03*
D40*
X0835539Y0070300D03*
X0825539Y0070300D03*
X0845539Y0070300D03*
D41*
X0278669Y0056378D03*
X0278669Y0053858D03*
X0278669Y0051339D03*
X0278669Y0048819D03*
X0278669Y0046299D03*
X0278669Y0043780D03*
X0278669Y0041181D03*
X0278669Y0038740D03*
X0278669Y0036220D03*
X0278669Y0033701D03*
X0278669Y0031181D03*
X0278669Y0028661D03*
X0278669Y0026142D03*
X0278669Y0023622D03*
X0257409Y0023622D03*
X0257409Y0026142D03*
X0257409Y0028661D03*
X0257409Y0031181D03*
X0257409Y0033701D03*
X0257409Y0036220D03*
X0257409Y0038740D03*
X0257409Y0041260D03*
X0257409Y0043780D03*
X0257409Y0046299D03*
X0257409Y0048819D03*
X0257409Y0051339D03*
X0257409Y0053858D03*
X0257409Y0056378D03*
D42*
X0596039Y0078700D03*
X0601039Y0078700D03*
X0606039Y0078700D03*
X0611039Y0078700D03*
X0616039Y0078700D03*
X0621039Y0078700D03*
X0626039Y0078700D03*
X0631039Y0078700D03*
X0636039Y0078700D03*
X0641039Y0078700D03*
X0646039Y0078700D03*
X0651039Y0078700D03*
X0656039Y0078700D03*
X0661039Y0078700D03*
X0661039Y0114300D03*
X0656039Y0114300D03*
X0651039Y0114300D03*
X0646039Y0114300D03*
X0641039Y0114300D03*
X0636039Y0114300D03*
X0631039Y0114300D03*
X0626039Y0114300D03*
X0621039Y0114300D03*
X0616039Y0114300D03*
X0611039Y0114300D03*
X0606039Y0114300D03*
X0601039Y0114300D03*
X0596039Y0114300D03*
D43*
X0262739Y0322000D03*
X0262739Y0327000D03*
X0262739Y0332000D03*
X0262739Y0337000D03*
X0262739Y0342000D03*
X0262739Y0347000D03*
X0262739Y0352000D03*
X0262739Y0357000D03*
X0242339Y0357000D03*
X0242339Y0352000D03*
X0242339Y0347000D03*
X0242339Y0342000D03*
X0242339Y0337000D03*
X0242339Y0332000D03*
X0242339Y0327000D03*
X0242339Y0322000D03*
D44*
X0825539Y0108500D03*
X0833539Y0104900D03*
X0833539Y0112100D03*
D45*
X0542039Y0110000D03*
X0542039Y0115000D03*
X0542039Y0120000D03*
X0542039Y0125000D03*
X0542039Y0130000D03*
X0542039Y0135000D03*
X0542039Y0140000D03*
X0542039Y0145000D03*
X0505039Y0145000D03*
X0505039Y0140000D03*
X0505039Y0135000D03*
X0505039Y0130000D03*
X0505039Y0125000D03*
X0505039Y0120000D03*
X0505039Y0115000D03*
X0505039Y0110000D03*
X0205188Y0111016D03*
X0205188Y0116016D03*
X0205188Y0121016D03*
X0205188Y0126016D03*
X0185788Y0126016D03*
X0185788Y0121016D03*
X0185788Y0116016D03*
X0185788Y0111016D03*
D46*
X0194717Y0076250D03*
X0194717Y0073691D03*
X0194717Y0071131D03*
X0194717Y0068572D03*
X0194717Y0066013D03*
X0194717Y0063454D03*
X0194717Y0060895D03*
X0194717Y0058336D03*
X0194717Y0055777D03*
X0194717Y0053218D03*
X0194717Y0050659D03*
X0194717Y0048100D03*
X0194717Y0045541D03*
X0194717Y0042982D03*
X0223260Y0042982D03*
X0223260Y0045541D03*
X0223260Y0048100D03*
X0223260Y0050659D03*
X0223260Y0053218D03*
X0223260Y0055777D03*
X0223260Y0058336D03*
X0223260Y0060895D03*
X0223260Y0063454D03*
X0223260Y0066013D03*
X0223260Y0068572D03*
X0223260Y0071131D03*
X0223260Y0073691D03*
X0223260Y0076250D03*
X0297717Y0061050D03*
X0297717Y0058491D03*
X0297717Y0055931D03*
X0297717Y0053372D03*
X0297717Y0050813D03*
X0297717Y0048254D03*
X0297717Y0045695D03*
X0297717Y0043136D03*
X0297717Y0040577D03*
X0297717Y0038018D03*
X0297717Y0035459D03*
X0297717Y0032900D03*
X0297717Y0030341D03*
X0297717Y0027782D03*
X0326260Y0027782D03*
X0326260Y0030341D03*
X0326260Y0032900D03*
X0326260Y0035459D03*
X0326260Y0038018D03*
X0326260Y0040577D03*
X0326260Y0043136D03*
X0326260Y0045695D03*
X0326260Y0048254D03*
X0326260Y0050813D03*
X0326260Y0053372D03*
X0326260Y0055931D03*
X0326260Y0058491D03*
X0326260Y0061050D03*
X0343117Y0061859D03*
X0343117Y0059300D03*
X0343117Y0056741D03*
X0343117Y0054182D03*
X0343117Y0064418D03*
X0343117Y0066977D03*
X0343117Y0069536D03*
X0343117Y0072095D03*
X0343117Y0074654D03*
X0343117Y0077213D03*
X0343117Y0079772D03*
X0343117Y0082331D03*
X0343117Y0084891D03*
X0343117Y0087450D03*
X0371660Y0087450D03*
X0371660Y0084891D03*
X0371660Y0082331D03*
X0371660Y0079772D03*
X0371660Y0077213D03*
X0371660Y0074654D03*
X0371660Y0072095D03*
X0371660Y0069536D03*
X0371660Y0066977D03*
X0371660Y0064418D03*
X0371660Y0061859D03*
X0371660Y0059300D03*
X0371660Y0056741D03*
X0371660Y0054182D03*
D47*
X0375687Y0030048D03*
X0356592Y0030048D03*
X0472039Y0147500D03*
X0472039Y0157500D03*
X0472039Y0167500D03*
X0116539Y0164500D03*
X0116539Y0154500D03*
X0116539Y0144500D03*
X0116539Y0134500D03*
X0116539Y0124500D03*
X0046539Y0124500D03*
X0046539Y0134500D03*
X0046539Y0144500D03*
X0046539Y0154500D03*
X0046539Y0164500D03*
X0046539Y0174500D03*
X0046539Y0184500D03*
X0046539Y0194500D03*
X0046539Y0204500D03*
X0046539Y0214500D03*
X0046539Y0224500D03*
X0046539Y0234500D03*
X0046539Y0244500D03*
X0046539Y0254500D03*
X0116539Y0254500D03*
X0116539Y0244500D03*
X0116539Y0234500D03*
X0116539Y0224500D03*
X0116539Y0214500D03*
X0116539Y0204500D03*
X0116539Y0194500D03*
X0116539Y0184500D03*
X0116539Y0174500D03*
D48*
X0144437Y0108331D03*
X0146996Y0108331D03*
X0149555Y0108331D03*
X0152114Y0108331D03*
X0154673Y0108331D03*
X0157232Y0108331D03*
X0159791Y0108331D03*
X0162350Y0108331D03*
X0164909Y0108331D03*
X0167469Y0108331D03*
X0170028Y0108331D03*
X0172587Y0108331D03*
X0175146Y0108331D03*
X0177705Y0108331D03*
X0177705Y0079787D03*
X0175146Y0079787D03*
X0172587Y0079787D03*
X0170028Y0079787D03*
X0167469Y0079787D03*
X0164909Y0079787D03*
X0162350Y0079787D03*
X0159791Y0079787D03*
X0157232Y0079787D03*
X0154673Y0079787D03*
X0152114Y0079787D03*
X0149555Y0079787D03*
X0146996Y0079787D03*
X0144437Y0079787D03*
D49*
X0713390Y0238843D02*
X0713390Y0243109D01*
X0715688Y0243109D01*
X0715688Y0238843D01*
X0713390Y0238843D01*
X0713390Y0238913D02*
X0715688Y0238913D01*
X0715688Y0238983D02*
X0713390Y0238983D01*
X0713390Y0239053D02*
X0715688Y0239053D01*
X0715688Y0239123D02*
X0713390Y0239123D01*
X0713390Y0239193D02*
X0715688Y0239193D01*
X0715688Y0239263D02*
X0713390Y0239263D01*
X0713390Y0239333D02*
X0715688Y0239333D01*
X0715688Y0239403D02*
X0713390Y0239403D01*
X0713390Y0239473D02*
X0715688Y0239473D01*
X0715688Y0239543D02*
X0713390Y0239543D01*
X0713390Y0239613D02*
X0715688Y0239613D01*
X0715688Y0239683D02*
X0713390Y0239683D01*
X0713390Y0239753D02*
X0715688Y0239753D01*
X0715688Y0239823D02*
X0713390Y0239823D01*
X0713390Y0239893D02*
X0715688Y0239893D01*
X0715688Y0239963D02*
X0713390Y0239963D01*
X0713390Y0240033D02*
X0715688Y0240033D01*
X0715688Y0240103D02*
X0713390Y0240103D01*
X0713390Y0240173D02*
X0715688Y0240173D01*
X0715688Y0240243D02*
X0713390Y0240243D01*
X0713390Y0240313D02*
X0715688Y0240313D01*
X0715688Y0240383D02*
X0713390Y0240383D01*
X0713390Y0240453D02*
X0715688Y0240453D01*
X0715688Y0240523D02*
X0713390Y0240523D01*
X0713390Y0240593D02*
X0715688Y0240593D01*
X0715688Y0240663D02*
X0713390Y0240663D01*
X0713390Y0240733D02*
X0715688Y0240733D01*
X0715688Y0240803D02*
X0713390Y0240803D01*
X0713390Y0240873D02*
X0715688Y0240873D01*
X0715688Y0240943D02*
X0713390Y0240943D01*
X0713390Y0241013D02*
X0715688Y0241013D01*
X0715688Y0241083D02*
X0713390Y0241083D01*
X0713390Y0241153D02*
X0715688Y0241153D01*
X0715688Y0241223D02*
X0713390Y0241223D01*
X0713390Y0241293D02*
X0715688Y0241293D01*
X0715688Y0241363D02*
X0713390Y0241363D01*
X0713390Y0241433D02*
X0715688Y0241433D01*
X0715688Y0241503D02*
X0713390Y0241503D01*
X0713390Y0241573D02*
X0715688Y0241573D01*
X0715688Y0241643D02*
X0713390Y0241643D01*
X0713390Y0241713D02*
X0715688Y0241713D01*
X0715688Y0241783D02*
X0713390Y0241783D01*
X0713390Y0241853D02*
X0715688Y0241853D01*
X0715688Y0241923D02*
X0713390Y0241923D01*
X0713390Y0241993D02*
X0715688Y0241993D01*
X0715688Y0242063D02*
X0713390Y0242063D01*
X0713390Y0242133D02*
X0715688Y0242133D01*
X0715688Y0242203D02*
X0713390Y0242203D01*
X0713390Y0242273D02*
X0715688Y0242273D01*
X0715688Y0242343D02*
X0713390Y0242343D01*
X0713390Y0242413D02*
X0715688Y0242413D01*
X0715688Y0242483D02*
X0713390Y0242483D01*
X0713390Y0242553D02*
X0715688Y0242553D01*
X0715688Y0242623D02*
X0713390Y0242623D01*
X0713390Y0242693D02*
X0715688Y0242693D01*
X0715688Y0242763D02*
X0713390Y0242763D01*
X0713390Y0242833D02*
X0715688Y0242833D01*
X0715688Y0242903D02*
X0713390Y0242903D01*
X0713390Y0242973D02*
X0715688Y0242973D01*
X0715688Y0243043D02*
X0713390Y0243043D01*
X0718390Y0243109D02*
X0718390Y0238843D01*
X0718390Y0243109D02*
X0720688Y0243109D01*
X0720688Y0238843D01*
X0718390Y0238843D01*
X0718390Y0238913D02*
X0720688Y0238913D01*
X0720688Y0238983D02*
X0718390Y0238983D01*
X0718390Y0239053D02*
X0720688Y0239053D01*
X0720688Y0239123D02*
X0718390Y0239123D01*
X0718390Y0239193D02*
X0720688Y0239193D01*
X0720688Y0239263D02*
X0718390Y0239263D01*
X0718390Y0239333D02*
X0720688Y0239333D01*
X0720688Y0239403D02*
X0718390Y0239403D01*
X0718390Y0239473D02*
X0720688Y0239473D01*
X0720688Y0239543D02*
X0718390Y0239543D01*
X0718390Y0239613D02*
X0720688Y0239613D01*
X0720688Y0239683D02*
X0718390Y0239683D01*
X0718390Y0239753D02*
X0720688Y0239753D01*
X0720688Y0239823D02*
X0718390Y0239823D01*
X0718390Y0239893D02*
X0720688Y0239893D01*
X0720688Y0239963D02*
X0718390Y0239963D01*
X0718390Y0240033D02*
X0720688Y0240033D01*
X0720688Y0240103D02*
X0718390Y0240103D01*
X0718390Y0240173D02*
X0720688Y0240173D01*
X0720688Y0240243D02*
X0718390Y0240243D01*
X0718390Y0240313D02*
X0720688Y0240313D01*
X0720688Y0240383D02*
X0718390Y0240383D01*
X0718390Y0240453D02*
X0720688Y0240453D01*
X0720688Y0240523D02*
X0718390Y0240523D01*
X0718390Y0240593D02*
X0720688Y0240593D01*
X0720688Y0240663D02*
X0718390Y0240663D01*
X0718390Y0240733D02*
X0720688Y0240733D01*
X0720688Y0240803D02*
X0718390Y0240803D01*
X0718390Y0240873D02*
X0720688Y0240873D01*
X0720688Y0240943D02*
X0718390Y0240943D01*
X0718390Y0241013D02*
X0720688Y0241013D01*
X0720688Y0241083D02*
X0718390Y0241083D01*
X0718390Y0241153D02*
X0720688Y0241153D01*
X0720688Y0241223D02*
X0718390Y0241223D01*
X0718390Y0241293D02*
X0720688Y0241293D01*
X0720688Y0241363D02*
X0718390Y0241363D01*
X0718390Y0241433D02*
X0720688Y0241433D01*
X0720688Y0241503D02*
X0718390Y0241503D01*
X0718390Y0241573D02*
X0720688Y0241573D01*
X0720688Y0241643D02*
X0718390Y0241643D01*
X0718390Y0241713D02*
X0720688Y0241713D01*
X0720688Y0241783D02*
X0718390Y0241783D01*
X0718390Y0241853D02*
X0720688Y0241853D01*
X0720688Y0241923D02*
X0718390Y0241923D01*
X0718390Y0241993D02*
X0720688Y0241993D01*
X0720688Y0242063D02*
X0718390Y0242063D01*
X0718390Y0242133D02*
X0720688Y0242133D01*
X0720688Y0242203D02*
X0718390Y0242203D01*
X0718390Y0242273D02*
X0720688Y0242273D01*
X0720688Y0242343D02*
X0718390Y0242343D01*
X0718390Y0242413D02*
X0720688Y0242413D01*
X0720688Y0242483D02*
X0718390Y0242483D01*
X0718390Y0242553D02*
X0720688Y0242553D01*
X0720688Y0242623D02*
X0718390Y0242623D01*
X0718390Y0242693D02*
X0720688Y0242693D01*
X0720688Y0242763D02*
X0718390Y0242763D01*
X0718390Y0242833D02*
X0720688Y0242833D01*
X0720688Y0242903D02*
X0718390Y0242903D01*
X0718390Y0242973D02*
X0720688Y0242973D01*
X0720688Y0243043D02*
X0718390Y0243043D01*
X0723390Y0243109D02*
X0723390Y0238843D01*
X0723390Y0243109D02*
X0725688Y0243109D01*
X0725688Y0238843D01*
X0723390Y0238843D01*
X0723390Y0238913D02*
X0725688Y0238913D01*
X0725688Y0238983D02*
X0723390Y0238983D01*
X0723390Y0239053D02*
X0725688Y0239053D01*
X0725688Y0239123D02*
X0723390Y0239123D01*
X0723390Y0239193D02*
X0725688Y0239193D01*
X0725688Y0239263D02*
X0723390Y0239263D01*
X0723390Y0239333D02*
X0725688Y0239333D01*
X0725688Y0239403D02*
X0723390Y0239403D01*
X0723390Y0239473D02*
X0725688Y0239473D01*
X0725688Y0239543D02*
X0723390Y0239543D01*
X0723390Y0239613D02*
X0725688Y0239613D01*
X0725688Y0239683D02*
X0723390Y0239683D01*
X0723390Y0239753D02*
X0725688Y0239753D01*
X0725688Y0239823D02*
X0723390Y0239823D01*
X0723390Y0239893D02*
X0725688Y0239893D01*
X0725688Y0239963D02*
X0723390Y0239963D01*
X0723390Y0240033D02*
X0725688Y0240033D01*
X0725688Y0240103D02*
X0723390Y0240103D01*
X0723390Y0240173D02*
X0725688Y0240173D01*
X0725688Y0240243D02*
X0723390Y0240243D01*
X0723390Y0240313D02*
X0725688Y0240313D01*
X0725688Y0240383D02*
X0723390Y0240383D01*
X0723390Y0240453D02*
X0725688Y0240453D01*
X0725688Y0240523D02*
X0723390Y0240523D01*
X0723390Y0240593D02*
X0725688Y0240593D01*
X0725688Y0240663D02*
X0723390Y0240663D01*
X0723390Y0240733D02*
X0725688Y0240733D01*
X0725688Y0240803D02*
X0723390Y0240803D01*
X0723390Y0240873D02*
X0725688Y0240873D01*
X0725688Y0240943D02*
X0723390Y0240943D01*
X0723390Y0241013D02*
X0725688Y0241013D01*
X0725688Y0241083D02*
X0723390Y0241083D01*
X0723390Y0241153D02*
X0725688Y0241153D01*
X0725688Y0241223D02*
X0723390Y0241223D01*
X0723390Y0241293D02*
X0725688Y0241293D01*
X0725688Y0241363D02*
X0723390Y0241363D01*
X0723390Y0241433D02*
X0725688Y0241433D01*
X0725688Y0241503D02*
X0723390Y0241503D01*
X0723390Y0241573D02*
X0725688Y0241573D01*
X0725688Y0241643D02*
X0723390Y0241643D01*
X0723390Y0241713D02*
X0725688Y0241713D01*
X0725688Y0241783D02*
X0723390Y0241783D01*
X0723390Y0241853D02*
X0725688Y0241853D01*
X0725688Y0241923D02*
X0723390Y0241923D01*
X0723390Y0241993D02*
X0725688Y0241993D01*
X0725688Y0242063D02*
X0723390Y0242063D01*
X0723390Y0242133D02*
X0725688Y0242133D01*
X0725688Y0242203D02*
X0723390Y0242203D01*
X0723390Y0242273D02*
X0725688Y0242273D01*
X0725688Y0242343D02*
X0723390Y0242343D01*
X0723390Y0242413D02*
X0725688Y0242413D01*
X0725688Y0242483D02*
X0723390Y0242483D01*
X0723390Y0242553D02*
X0725688Y0242553D01*
X0725688Y0242623D02*
X0723390Y0242623D01*
X0723390Y0242693D02*
X0725688Y0242693D01*
X0725688Y0242763D02*
X0723390Y0242763D01*
X0723390Y0242833D02*
X0725688Y0242833D01*
X0725688Y0242903D02*
X0723390Y0242903D01*
X0723390Y0242973D02*
X0725688Y0242973D01*
X0725688Y0243043D02*
X0723390Y0243043D01*
X0728390Y0243109D02*
X0728390Y0238843D01*
X0728390Y0243109D02*
X0730688Y0243109D01*
X0730688Y0238843D01*
X0728390Y0238843D01*
X0728390Y0238913D02*
X0730688Y0238913D01*
X0730688Y0238983D02*
X0728390Y0238983D01*
X0728390Y0239053D02*
X0730688Y0239053D01*
X0730688Y0239123D02*
X0728390Y0239123D01*
X0728390Y0239193D02*
X0730688Y0239193D01*
X0730688Y0239263D02*
X0728390Y0239263D01*
X0728390Y0239333D02*
X0730688Y0239333D01*
X0730688Y0239403D02*
X0728390Y0239403D01*
X0728390Y0239473D02*
X0730688Y0239473D01*
X0730688Y0239543D02*
X0728390Y0239543D01*
X0728390Y0239613D02*
X0730688Y0239613D01*
X0730688Y0239683D02*
X0728390Y0239683D01*
X0728390Y0239753D02*
X0730688Y0239753D01*
X0730688Y0239823D02*
X0728390Y0239823D01*
X0728390Y0239893D02*
X0730688Y0239893D01*
X0730688Y0239963D02*
X0728390Y0239963D01*
X0728390Y0240033D02*
X0730688Y0240033D01*
X0730688Y0240103D02*
X0728390Y0240103D01*
X0728390Y0240173D02*
X0730688Y0240173D01*
X0730688Y0240243D02*
X0728390Y0240243D01*
X0728390Y0240313D02*
X0730688Y0240313D01*
X0730688Y0240383D02*
X0728390Y0240383D01*
X0728390Y0240453D02*
X0730688Y0240453D01*
X0730688Y0240523D02*
X0728390Y0240523D01*
X0728390Y0240593D02*
X0730688Y0240593D01*
X0730688Y0240663D02*
X0728390Y0240663D01*
X0728390Y0240733D02*
X0730688Y0240733D01*
X0730688Y0240803D02*
X0728390Y0240803D01*
X0728390Y0240873D02*
X0730688Y0240873D01*
X0730688Y0240943D02*
X0728390Y0240943D01*
X0728390Y0241013D02*
X0730688Y0241013D01*
X0730688Y0241083D02*
X0728390Y0241083D01*
X0728390Y0241153D02*
X0730688Y0241153D01*
X0730688Y0241223D02*
X0728390Y0241223D01*
X0728390Y0241293D02*
X0730688Y0241293D01*
X0730688Y0241363D02*
X0728390Y0241363D01*
X0728390Y0241433D02*
X0730688Y0241433D01*
X0730688Y0241503D02*
X0728390Y0241503D01*
X0728390Y0241573D02*
X0730688Y0241573D01*
X0730688Y0241643D02*
X0728390Y0241643D01*
X0728390Y0241713D02*
X0730688Y0241713D01*
X0730688Y0241783D02*
X0728390Y0241783D01*
X0728390Y0241853D02*
X0730688Y0241853D01*
X0730688Y0241923D02*
X0728390Y0241923D01*
X0728390Y0241993D02*
X0730688Y0241993D01*
X0730688Y0242063D02*
X0728390Y0242063D01*
X0728390Y0242133D02*
X0730688Y0242133D01*
X0730688Y0242203D02*
X0728390Y0242203D01*
X0728390Y0242273D02*
X0730688Y0242273D01*
X0730688Y0242343D02*
X0728390Y0242343D01*
X0728390Y0242413D02*
X0730688Y0242413D01*
X0730688Y0242483D02*
X0728390Y0242483D01*
X0728390Y0242553D02*
X0730688Y0242553D01*
X0730688Y0242623D02*
X0728390Y0242623D01*
X0728390Y0242693D02*
X0730688Y0242693D01*
X0730688Y0242763D02*
X0728390Y0242763D01*
X0728390Y0242833D02*
X0730688Y0242833D01*
X0730688Y0242903D02*
X0728390Y0242903D01*
X0728390Y0242973D02*
X0730688Y0242973D01*
X0730688Y0243043D02*
X0728390Y0243043D01*
X0728390Y0260891D02*
X0728390Y0265157D01*
X0730688Y0265157D01*
X0730688Y0260891D01*
X0728390Y0260891D01*
X0728390Y0260961D02*
X0730688Y0260961D01*
X0730688Y0261031D02*
X0728390Y0261031D01*
X0728390Y0261101D02*
X0730688Y0261101D01*
X0730688Y0261171D02*
X0728390Y0261171D01*
X0728390Y0261241D02*
X0730688Y0261241D01*
X0730688Y0261311D02*
X0728390Y0261311D01*
X0728390Y0261381D02*
X0730688Y0261381D01*
X0730688Y0261451D02*
X0728390Y0261451D01*
X0728390Y0261521D02*
X0730688Y0261521D01*
X0730688Y0261591D02*
X0728390Y0261591D01*
X0728390Y0261661D02*
X0730688Y0261661D01*
X0730688Y0261731D02*
X0728390Y0261731D01*
X0728390Y0261801D02*
X0730688Y0261801D01*
X0730688Y0261871D02*
X0728390Y0261871D01*
X0728390Y0261941D02*
X0730688Y0261941D01*
X0730688Y0262011D02*
X0728390Y0262011D01*
X0728390Y0262081D02*
X0730688Y0262081D01*
X0730688Y0262151D02*
X0728390Y0262151D01*
X0728390Y0262221D02*
X0730688Y0262221D01*
X0730688Y0262291D02*
X0728390Y0262291D01*
X0728390Y0262361D02*
X0730688Y0262361D01*
X0730688Y0262431D02*
X0728390Y0262431D01*
X0728390Y0262501D02*
X0730688Y0262501D01*
X0730688Y0262571D02*
X0728390Y0262571D01*
X0728390Y0262641D02*
X0730688Y0262641D01*
X0730688Y0262711D02*
X0728390Y0262711D01*
X0728390Y0262781D02*
X0730688Y0262781D01*
X0730688Y0262851D02*
X0728390Y0262851D01*
X0728390Y0262921D02*
X0730688Y0262921D01*
X0730688Y0262991D02*
X0728390Y0262991D01*
X0728390Y0263061D02*
X0730688Y0263061D01*
X0730688Y0263131D02*
X0728390Y0263131D01*
X0728390Y0263201D02*
X0730688Y0263201D01*
X0730688Y0263271D02*
X0728390Y0263271D01*
X0728390Y0263341D02*
X0730688Y0263341D01*
X0730688Y0263411D02*
X0728390Y0263411D01*
X0728390Y0263481D02*
X0730688Y0263481D01*
X0730688Y0263551D02*
X0728390Y0263551D01*
X0728390Y0263621D02*
X0730688Y0263621D01*
X0730688Y0263691D02*
X0728390Y0263691D01*
X0728390Y0263761D02*
X0730688Y0263761D01*
X0730688Y0263831D02*
X0728390Y0263831D01*
X0728390Y0263901D02*
X0730688Y0263901D01*
X0730688Y0263971D02*
X0728390Y0263971D01*
X0728390Y0264041D02*
X0730688Y0264041D01*
X0730688Y0264111D02*
X0728390Y0264111D01*
X0728390Y0264181D02*
X0730688Y0264181D01*
X0730688Y0264251D02*
X0728390Y0264251D01*
X0728390Y0264321D02*
X0730688Y0264321D01*
X0730688Y0264391D02*
X0728390Y0264391D01*
X0728390Y0264461D02*
X0730688Y0264461D01*
X0730688Y0264531D02*
X0728390Y0264531D01*
X0728390Y0264601D02*
X0730688Y0264601D01*
X0730688Y0264671D02*
X0728390Y0264671D01*
X0728390Y0264741D02*
X0730688Y0264741D01*
X0730688Y0264811D02*
X0728390Y0264811D01*
X0728390Y0264881D02*
X0730688Y0264881D01*
X0730688Y0264951D02*
X0728390Y0264951D01*
X0728390Y0265021D02*
X0730688Y0265021D01*
X0730688Y0265091D02*
X0728390Y0265091D01*
X0723390Y0265157D02*
X0723390Y0260891D01*
X0723390Y0265157D02*
X0725688Y0265157D01*
X0725688Y0260891D01*
X0723390Y0260891D01*
X0723390Y0260961D02*
X0725688Y0260961D01*
X0725688Y0261031D02*
X0723390Y0261031D01*
X0723390Y0261101D02*
X0725688Y0261101D01*
X0725688Y0261171D02*
X0723390Y0261171D01*
X0723390Y0261241D02*
X0725688Y0261241D01*
X0725688Y0261311D02*
X0723390Y0261311D01*
X0723390Y0261381D02*
X0725688Y0261381D01*
X0725688Y0261451D02*
X0723390Y0261451D01*
X0723390Y0261521D02*
X0725688Y0261521D01*
X0725688Y0261591D02*
X0723390Y0261591D01*
X0723390Y0261661D02*
X0725688Y0261661D01*
X0725688Y0261731D02*
X0723390Y0261731D01*
X0723390Y0261801D02*
X0725688Y0261801D01*
X0725688Y0261871D02*
X0723390Y0261871D01*
X0723390Y0261941D02*
X0725688Y0261941D01*
X0725688Y0262011D02*
X0723390Y0262011D01*
X0723390Y0262081D02*
X0725688Y0262081D01*
X0725688Y0262151D02*
X0723390Y0262151D01*
X0723390Y0262221D02*
X0725688Y0262221D01*
X0725688Y0262291D02*
X0723390Y0262291D01*
X0723390Y0262361D02*
X0725688Y0262361D01*
X0725688Y0262431D02*
X0723390Y0262431D01*
X0723390Y0262501D02*
X0725688Y0262501D01*
X0725688Y0262571D02*
X0723390Y0262571D01*
X0723390Y0262641D02*
X0725688Y0262641D01*
X0725688Y0262711D02*
X0723390Y0262711D01*
X0723390Y0262781D02*
X0725688Y0262781D01*
X0725688Y0262851D02*
X0723390Y0262851D01*
X0723390Y0262921D02*
X0725688Y0262921D01*
X0725688Y0262991D02*
X0723390Y0262991D01*
X0723390Y0263061D02*
X0725688Y0263061D01*
X0725688Y0263131D02*
X0723390Y0263131D01*
X0723390Y0263201D02*
X0725688Y0263201D01*
X0725688Y0263271D02*
X0723390Y0263271D01*
X0723390Y0263341D02*
X0725688Y0263341D01*
X0725688Y0263411D02*
X0723390Y0263411D01*
X0723390Y0263481D02*
X0725688Y0263481D01*
X0725688Y0263551D02*
X0723390Y0263551D01*
X0723390Y0263621D02*
X0725688Y0263621D01*
X0725688Y0263691D02*
X0723390Y0263691D01*
X0723390Y0263761D02*
X0725688Y0263761D01*
X0725688Y0263831D02*
X0723390Y0263831D01*
X0723390Y0263901D02*
X0725688Y0263901D01*
X0725688Y0263971D02*
X0723390Y0263971D01*
X0723390Y0264041D02*
X0725688Y0264041D01*
X0725688Y0264111D02*
X0723390Y0264111D01*
X0723390Y0264181D02*
X0725688Y0264181D01*
X0725688Y0264251D02*
X0723390Y0264251D01*
X0723390Y0264321D02*
X0725688Y0264321D01*
X0725688Y0264391D02*
X0723390Y0264391D01*
X0723390Y0264461D02*
X0725688Y0264461D01*
X0725688Y0264531D02*
X0723390Y0264531D01*
X0723390Y0264601D02*
X0725688Y0264601D01*
X0725688Y0264671D02*
X0723390Y0264671D01*
X0723390Y0264741D02*
X0725688Y0264741D01*
X0725688Y0264811D02*
X0723390Y0264811D01*
X0723390Y0264881D02*
X0725688Y0264881D01*
X0725688Y0264951D02*
X0723390Y0264951D01*
X0723390Y0265021D02*
X0725688Y0265021D01*
X0725688Y0265091D02*
X0723390Y0265091D01*
X0718390Y0265157D02*
X0718390Y0260891D01*
X0718390Y0265157D02*
X0720688Y0265157D01*
X0720688Y0260891D01*
X0718390Y0260891D01*
X0718390Y0260961D02*
X0720688Y0260961D01*
X0720688Y0261031D02*
X0718390Y0261031D01*
X0718390Y0261101D02*
X0720688Y0261101D01*
X0720688Y0261171D02*
X0718390Y0261171D01*
X0718390Y0261241D02*
X0720688Y0261241D01*
X0720688Y0261311D02*
X0718390Y0261311D01*
X0718390Y0261381D02*
X0720688Y0261381D01*
X0720688Y0261451D02*
X0718390Y0261451D01*
X0718390Y0261521D02*
X0720688Y0261521D01*
X0720688Y0261591D02*
X0718390Y0261591D01*
X0718390Y0261661D02*
X0720688Y0261661D01*
X0720688Y0261731D02*
X0718390Y0261731D01*
X0718390Y0261801D02*
X0720688Y0261801D01*
X0720688Y0261871D02*
X0718390Y0261871D01*
X0718390Y0261941D02*
X0720688Y0261941D01*
X0720688Y0262011D02*
X0718390Y0262011D01*
X0718390Y0262081D02*
X0720688Y0262081D01*
X0720688Y0262151D02*
X0718390Y0262151D01*
X0718390Y0262221D02*
X0720688Y0262221D01*
X0720688Y0262291D02*
X0718390Y0262291D01*
X0718390Y0262361D02*
X0720688Y0262361D01*
X0720688Y0262431D02*
X0718390Y0262431D01*
X0718390Y0262501D02*
X0720688Y0262501D01*
X0720688Y0262571D02*
X0718390Y0262571D01*
X0718390Y0262641D02*
X0720688Y0262641D01*
X0720688Y0262711D02*
X0718390Y0262711D01*
X0718390Y0262781D02*
X0720688Y0262781D01*
X0720688Y0262851D02*
X0718390Y0262851D01*
X0718390Y0262921D02*
X0720688Y0262921D01*
X0720688Y0262991D02*
X0718390Y0262991D01*
X0718390Y0263061D02*
X0720688Y0263061D01*
X0720688Y0263131D02*
X0718390Y0263131D01*
X0718390Y0263201D02*
X0720688Y0263201D01*
X0720688Y0263271D02*
X0718390Y0263271D01*
X0718390Y0263341D02*
X0720688Y0263341D01*
X0720688Y0263411D02*
X0718390Y0263411D01*
X0718390Y0263481D02*
X0720688Y0263481D01*
X0720688Y0263551D02*
X0718390Y0263551D01*
X0718390Y0263621D02*
X0720688Y0263621D01*
X0720688Y0263691D02*
X0718390Y0263691D01*
X0718390Y0263761D02*
X0720688Y0263761D01*
X0720688Y0263831D02*
X0718390Y0263831D01*
X0718390Y0263901D02*
X0720688Y0263901D01*
X0720688Y0263971D02*
X0718390Y0263971D01*
X0718390Y0264041D02*
X0720688Y0264041D01*
X0720688Y0264111D02*
X0718390Y0264111D01*
X0718390Y0264181D02*
X0720688Y0264181D01*
X0720688Y0264251D02*
X0718390Y0264251D01*
X0718390Y0264321D02*
X0720688Y0264321D01*
X0720688Y0264391D02*
X0718390Y0264391D01*
X0718390Y0264461D02*
X0720688Y0264461D01*
X0720688Y0264531D02*
X0718390Y0264531D01*
X0718390Y0264601D02*
X0720688Y0264601D01*
X0720688Y0264671D02*
X0718390Y0264671D01*
X0718390Y0264741D02*
X0720688Y0264741D01*
X0720688Y0264811D02*
X0718390Y0264811D01*
X0718390Y0264881D02*
X0720688Y0264881D01*
X0720688Y0264951D02*
X0718390Y0264951D01*
X0718390Y0265021D02*
X0720688Y0265021D01*
X0720688Y0265091D02*
X0718390Y0265091D01*
X0713390Y0265157D02*
X0713390Y0260891D01*
X0713390Y0265157D02*
X0715688Y0265157D01*
X0715688Y0260891D01*
X0713390Y0260891D01*
X0713390Y0260961D02*
X0715688Y0260961D01*
X0715688Y0261031D02*
X0713390Y0261031D01*
X0713390Y0261101D02*
X0715688Y0261101D01*
X0715688Y0261171D02*
X0713390Y0261171D01*
X0713390Y0261241D02*
X0715688Y0261241D01*
X0715688Y0261311D02*
X0713390Y0261311D01*
X0713390Y0261381D02*
X0715688Y0261381D01*
X0715688Y0261451D02*
X0713390Y0261451D01*
X0713390Y0261521D02*
X0715688Y0261521D01*
X0715688Y0261591D02*
X0713390Y0261591D01*
X0713390Y0261661D02*
X0715688Y0261661D01*
X0715688Y0261731D02*
X0713390Y0261731D01*
X0713390Y0261801D02*
X0715688Y0261801D01*
X0715688Y0261871D02*
X0713390Y0261871D01*
X0713390Y0261941D02*
X0715688Y0261941D01*
X0715688Y0262011D02*
X0713390Y0262011D01*
X0713390Y0262081D02*
X0715688Y0262081D01*
X0715688Y0262151D02*
X0713390Y0262151D01*
X0713390Y0262221D02*
X0715688Y0262221D01*
X0715688Y0262291D02*
X0713390Y0262291D01*
X0713390Y0262361D02*
X0715688Y0262361D01*
X0715688Y0262431D02*
X0713390Y0262431D01*
X0713390Y0262501D02*
X0715688Y0262501D01*
X0715688Y0262571D02*
X0713390Y0262571D01*
X0713390Y0262641D02*
X0715688Y0262641D01*
X0715688Y0262711D02*
X0713390Y0262711D01*
X0713390Y0262781D02*
X0715688Y0262781D01*
X0715688Y0262851D02*
X0713390Y0262851D01*
X0713390Y0262921D02*
X0715688Y0262921D01*
X0715688Y0262991D02*
X0713390Y0262991D01*
X0713390Y0263061D02*
X0715688Y0263061D01*
X0715688Y0263131D02*
X0713390Y0263131D01*
X0713390Y0263201D02*
X0715688Y0263201D01*
X0715688Y0263271D02*
X0713390Y0263271D01*
X0713390Y0263341D02*
X0715688Y0263341D01*
X0715688Y0263411D02*
X0713390Y0263411D01*
X0713390Y0263481D02*
X0715688Y0263481D01*
X0715688Y0263551D02*
X0713390Y0263551D01*
X0713390Y0263621D02*
X0715688Y0263621D01*
X0715688Y0263691D02*
X0713390Y0263691D01*
X0713390Y0263761D02*
X0715688Y0263761D01*
X0715688Y0263831D02*
X0713390Y0263831D01*
X0713390Y0263901D02*
X0715688Y0263901D01*
X0715688Y0263971D02*
X0713390Y0263971D01*
X0713390Y0264041D02*
X0715688Y0264041D01*
X0715688Y0264111D02*
X0713390Y0264111D01*
X0713390Y0264181D02*
X0715688Y0264181D01*
X0715688Y0264251D02*
X0713390Y0264251D01*
X0713390Y0264321D02*
X0715688Y0264321D01*
X0715688Y0264391D02*
X0713390Y0264391D01*
X0713390Y0264461D02*
X0715688Y0264461D01*
X0715688Y0264531D02*
X0713390Y0264531D01*
X0713390Y0264601D02*
X0715688Y0264601D01*
X0715688Y0264671D02*
X0713390Y0264671D01*
X0713390Y0264741D02*
X0715688Y0264741D01*
X0715688Y0264811D02*
X0713390Y0264811D01*
X0713390Y0264881D02*
X0715688Y0264881D01*
X0715688Y0264951D02*
X0713390Y0264951D01*
X0713390Y0265021D02*
X0715688Y0265021D01*
X0715688Y0265091D02*
X0713390Y0265091D01*
D50*
X0372834Y0021270D02*
X0372834Y0017330D01*
X0368894Y0017330D01*
X0368894Y0021270D01*
X0372834Y0021270D01*
X0372834Y0021269D02*
X0368894Y0021269D01*
X0363385Y0021270D02*
X0363385Y0017330D01*
X0359445Y0017330D01*
X0359445Y0021270D01*
X0363385Y0021270D01*
X0363385Y0021269D02*
X0359445Y0021269D01*
D51*
X0361021Y0030619D03*
X0363580Y0030619D03*
X0366139Y0030619D03*
X0368698Y0030619D03*
X0371257Y0030619D03*
D52*
X0380411Y0021300D02*
X0380411Y0017300D01*
X0351868Y0017300D02*
X0351868Y0021300D01*
D53*
X0242655Y0044451D03*
X0242655Y0061451D03*
D54*
X0472039Y0137500D03*
D55*
X0736539Y0178500D03*
X0804539Y0178500D03*
X0804539Y0022500D03*
X0736539Y0022500D03*
D56*
X0740539Y0040500D03*
X0876256Y0033185D03*
X0800539Y0157500D03*
X0443185Y0033185D03*
X0029799Y0033185D03*
X0029799Y0407201D03*
X0423500Y0407201D03*
X0797516Y0407201D03*
D57*
X0437788Y0089616D03*
X0437788Y0087116D03*
X0437788Y0084516D03*
X0437788Y0082016D03*
X0437788Y0079416D03*
X0437788Y0076816D03*
X0437788Y0074316D03*
X0437788Y0071716D03*
X0437788Y0069216D03*
X0437788Y0066616D03*
X0437788Y0064016D03*
X0437788Y0061516D03*
X0437788Y0058916D03*
X0437788Y0056416D03*
X0409188Y0056416D03*
X0409188Y0058916D03*
X0409188Y0061516D03*
X0409188Y0064016D03*
X0409188Y0066616D03*
X0409188Y0069216D03*
X0409188Y0071716D03*
X0409188Y0074316D03*
X0409188Y0076816D03*
X0409188Y0079416D03*
X0409188Y0082016D03*
X0409188Y0084516D03*
X0409188Y0087116D03*
X0409188Y0089616D03*
D58*
X0086539Y0111000D03*
X0079539Y0111000D03*
X0083039Y0119000D03*
X0084539Y0130000D03*
X0077539Y0130000D03*
X0081039Y0138000D03*
X0047039Y0281000D03*
X0043539Y0289000D03*
X0050539Y0289000D03*
D59*
X0488539Y0411713D03*
X0494539Y0411713D03*
X0506539Y0411713D03*
X0415539Y0028287D03*
X0409539Y0028287D03*
X0397539Y0028287D03*
X0190439Y0028287D03*
X0184439Y0028287D03*
X0172439Y0028287D03*
D60*
X0166939Y0025028D03*
X0166939Y0015972D03*
X0195939Y0015972D03*
X0195939Y0025028D03*
X0392039Y0025028D03*
X0392039Y0015972D03*
X0421039Y0015972D03*
X0421039Y0025028D03*
X0483039Y0414972D03*
X0483039Y0424028D03*
X0512039Y0424028D03*
X0512039Y0414972D03*
D61*
X0503539Y0419500D03*
X0491539Y0419500D03*
X0018539Y0075500D03*
X0018539Y0063500D03*
X0175439Y0020500D03*
X0187439Y0020500D03*
X0400539Y0020500D03*
X0412539Y0020500D03*
D62*
X0026327Y0060500D03*
X0026327Y0066500D03*
X0026327Y0078500D03*
D63*
X0023067Y0084000D03*
X0014012Y0084000D03*
X0014012Y0055000D03*
X0023067Y0055000D03*
D64*
X0204039Y0091154D03*
X0204039Y0097846D03*
D65*
X0064339Y0049500D02*
X0058739Y0049500D01*
X0058739Y0039500D02*
X0064339Y0039500D01*
X0454539Y0416700D02*
X0454539Y0422300D01*
X0464539Y0422300D02*
X0464539Y0416700D01*
D66*
X0440886Y0112500D03*
X0434193Y0112500D03*
X0434393Y0104500D03*
X0441086Y0104500D03*
M02*
