G75*
%MOIN*%
%OFA0B0*%
%FSLAX25Y25*%
%IPPOS*%
%LPD*%
%AMOC8*
5,1,8,0,0,1.08239X$1,22.5*
%
%ADD10C,0.00000*%
%ADD11C,0.06400*%
%ADD12C,0.30400*%
%ADD13C,0.00975*%
%ADD14R,0.05400X0.05400*%
%ADD15C,0.01100*%
%ADD16R,0.11199X0.08900*%
%ADD17C,0.00850*%
%ADD18C,0.04762*%
%ADD19R,0.07400X0.05400*%
%ADD20C,0.00100*%
%ADD21R,0.03156X0.06699*%
%ADD22R,0.05912X0.06699*%
%ADD23R,0.05912X0.09061*%
%ADD24R,0.07487X0.05912*%
%ADD25C,0.03943*%
%ADD26R,0.06900X0.06900*%
%ADD27C,0.06900*%
%ADD28C,0.11227*%
%ADD29R,0.06400X0.06400*%
%ADD30C,0.06400*%
%ADD31R,0.04900X0.04400*%
%ADD32C,0.01184*%
%ADD33C,0.10400*%
%ADD34R,0.08200X0.02600*%
%ADD35C,0.05600*%
%ADD36C,0.13400*%
%ADD37R,0.42920X0.41384*%
%ADD38R,0.04600X0.08900*%
%ADD39R,0.06306X0.01778*%
%ADD40R,0.02600X0.09400*%
%ADD41R,0.02500X0.07100*%
%ADD42R,0.05600X0.02600*%
%ADD43R,0.08200X0.02500*%
%ADD44R,0.06306X0.01975*%
%ADD45R,0.02600X0.09000*%
%ADD46C,0.00071*%
%ADD47C,0.03940*%
%ADD48R,0.01975X0.05715*%
%ADD49C,0.04400*%
%ADD50C,0.05550*%
%ADD51R,0.05715X0.01975*%
%ADD52R,0.08400X0.07400*%
%ADD53R,0.05550X0.05550*%
%ADD54R,0.10243X0.10243*%
%ADD55C,0.12211*%
%ADD56R,0.06900X0.02100*%
%ADD57R,0.05400X0.07400*%
%ADD58C,0.00145*%
%ADD59R,0.04400X0.04900*%
%ADD60R,0.03156X0.07487*%
%ADD61R,0.04400X0.03156*%
%ADD62C,0.03600*%
%ADD63R,0.07487X0.03156*%
%ADD64R,0.03156X0.04400*%
%ADD65R,0.04731X0.04337*%
D10*
X0011835Y0013500D02*
X0011835Y0426886D01*
X0893724Y0426886D01*
X0893724Y0344209D01*
X0909472Y0344209D01*
X0909472Y0206413D01*
X0975921Y0206413D01*
X0976402Y0013500D01*
X0011835Y0013500D01*
X0025614Y0033185D02*
X0025616Y0033338D01*
X0025622Y0033492D01*
X0025632Y0033645D01*
X0025646Y0033797D01*
X0025664Y0033950D01*
X0025686Y0034101D01*
X0025711Y0034252D01*
X0025741Y0034403D01*
X0025775Y0034553D01*
X0025812Y0034701D01*
X0025853Y0034849D01*
X0025898Y0034995D01*
X0025947Y0035141D01*
X0026000Y0035285D01*
X0026056Y0035427D01*
X0026116Y0035568D01*
X0026180Y0035708D01*
X0026247Y0035846D01*
X0026318Y0035982D01*
X0026393Y0036116D01*
X0026470Y0036248D01*
X0026552Y0036378D01*
X0026636Y0036506D01*
X0026724Y0036632D01*
X0026815Y0036755D01*
X0026909Y0036876D01*
X0027007Y0036994D01*
X0027107Y0037110D01*
X0027211Y0037223D01*
X0027317Y0037334D01*
X0027426Y0037442D01*
X0027538Y0037547D01*
X0027652Y0037648D01*
X0027770Y0037747D01*
X0027889Y0037843D01*
X0028011Y0037936D01*
X0028136Y0038025D01*
X0028263Y0038112D01*
X0028392Y0038194D01*
X0028523Y0038274D01*
X0028656Y0038350D01*
X0028791Y0038423D01*
X0028928Y0038492D01*
X0029067Y0038557D01*
X0029207Y0038619D01*
X0029349Y0038677D01*
X0029492Y0038732D01*
X0029637Y0038783D01*
X0029783Y0038830D01*
X0029930Y0038873D01*
X0030078Y0038912D01*
X0030227Y0038948D01*
X0030377Y0038979D01*
X0030528Y0039007D01*
X0030679Y0039031D01*
X0030832Y0039051D01*
X0030984Y0039067D01*
X0031137Y0039079D01*
X0031290Y0039087D01*
X0031443Y0039091D01*
X0031597Y0039091D01*
X0031750Y0039087D01*
X0031903Y0039079D01*
X0032056Y0039067D01*
X0032208Y0039051D01*
X0032361Y0039031D01*
X0032512Y0039007D01*
X0032663Y0038979D01*
X0032813Y0038948D01*
X0032962Y0038912D01*
X0033110Y0038873D01*
X0033257Y0038830D01*
X0033403Y0038783D01*
X0033548Y0038732D01*
X0033691Y0038677D01*
X0033833Y0038619D01*
X0033973Y0038557D01*
X0034112Y0038492D01*
X0034249Y0038423D01*
X0034384Y0038350D01*
X0034517Y0038274D01*
X0034648Y0038194D01*
X0034777Y0038112D01*
X0034904Y0038025D01*
X0035029Y0037936D01*
X0035151Y0037843D01*
X0035270Y0037747D01*
X0035388Y0037648D01*
X0035502Y0037547D01*
X0035614Y0037442D01*
X0035723Y0037334D01*
X0035829Y0037223D01*
X0035933Y0037110D01*
X0036033Y0036994D01*
X0036131Y0036876D01*
X0036225Y0036755D01*
X0036316Y0036632D01*
X0036404Y0036506D01*
X0036488Y0036378D01*
X0036570Y0036248D01*
X0036647Y0036116D01*
X0036722Y0035982D01*
X0036793Y0035846D01*
X0036860Y0035708D01*
X0036924Y0035568D01*
X0036984Y0035427D01*
X0037040Y0035285D01*
X0037093Y0035141D01*
X0037142Y0034995D01*
X0037187Y0034849D01*
X0037228Y0034701D01*
X0037265Y0034553D01*
X0037299Y0034403D01*
X0037329Y0034252D01*
X0037354Y0034101D01*
X0037376Y0033950D01*
X0037394Y0033797D01*
X0037408Y0033645D01*
X0037418Y0033492D01*
X0037424Y0033338D01*
X0037426Y0033185D01*
X0037424Y0033032D01*
X0037418Y0032878D01*
X0037408Y0032725D01*
X0037394Y0032573D01*
X0037376Y0032420D01*
X0037354Y0032269D01*
X0037329Y0032118D01*
X0037299Y0031967D01*
X0037265Y0031817D01*
X0037228Y0031669D01*
X0037187Y0031521D01*
X0037142Y0031375D01*
X0037093Y0031229D01*
X0037040Y0031085D01*
X0036984Y0030943D01*
X0036924Y0030802D01*
X0036860Y0030662D01*
X0036793Y0030524D01*
X0036722Y0030388D01*
X0036647Y0030254D01*
X0036570Y0030122D01*
X0036488Y0029992D01*
X0036404Y0029864D01*
X0036316Y0029738D01*
X0036225Y0029615D01*
X0036131Y0029494D01*
X0036033Y0029376D01*
X0035933Y0029260D01*
X0035829Y0029147D01*
X0035723Y0029036D01*
X0035614Y0028928D01*
X0035502Y0028823D01*
X0035388Y0028722D01*
X0035270Y0028623D01*
X0035151Y0028527D01*
X0035029Y0028434D01*
X0034904Y0028345D01*
X0034777Y0028258D01*
X0034648Y0028176D01*
X0034517Y0028096D01*
X0034384Y0028020D01*
X0034249Y0027947D01*
X0034112Y0027878D01*
X0033973Y0027813D01*
X0033833Y0027751D01*
X0033691Y0027693D01*
X0033548Y0027638D01*
X0033403Y0027587D01*
X0033257Y0027540D01*
X0033110Y0027497D01*
X0032962Y0027458D01*
X0032813Y0027422D01*
X0032663Y0027391D01*
X0032512Y0027363D01*
X0032361Y0027339D01*
X0032208Y0027319D01*
X0032056Y0027303D01*
X0031903Y0027291D01*
X0031750Y0027283D01*
X0031597Y0027279D01*
X0031443Y0027279D01*
X0031290Y0027283D01*
X0031137Y0027291D01*
X0030984Y0027303D01*
X0030832Y0027319D01*
X0030679Y0027339D01*
X0030528Y0027363D01*
X0030377Y0027391D01*
X0030227Y0027422D01*
X0030078Y0027458D01*
X0029930Y0027497D01*
X0029783Y0027540D01*
X0029637Y0027587D01*
X0029492Y0027638D01*
X0029349Y0027693D01*
X0029207Y0027751D01*
X0029067Y0027813D01*
X0028928Y0027878D01*
X0028791Y0027947D01*
X0028656Y0028020D01*
X0028523Y0028096D01*
X0028392Y0028176D01*
X0028263Y0028258D01*
X0028136Y0028345D01*
X0028011Y0028434D01*
X0027889Y0028527D01*
X0027770Y0028623D01*
X0027652Y0028722D01*
X0027538Y0028823D01*
X0027426Y0028928D01*
X0027317Y0029036D01*
X0027211Y0029147D01*
X0027107Y0029260D01*
X0027007Y0029376D01*
X0026909Y0029494D01*
X0026815Y0029615D01*
X0026724Y0029738D01*
X0026636Y0029864D01*
X0026552Y0029992D01*
X0026470Y0030122D01*
X0026393Y0030254D01*
X0026318Y0030388D01*
X0026247Y0030524D01*
X0026180Y0030662D01*
X0026116Y0030802D01*
X0026056Y0030943D01*
X0026000Y0031085D01*
X0025947Y0031229D01*
X0025898Y0031375D01*
X0025853Y0031521D01*
X0025812Y0031669D01*
X0025775Y0031817D01*
X0025741Y0031967D01*
X0025711Y0032118D01*
X0025686Y0032269D01*
X0025664Y0032420D01*
X0025646Y0032573D01*
X0025632Y0032725D01*
X0025622Y0032878D01*
X0025616Y0033032D01*
X0025614Y0033185D01*
X0065334Y0034472D02*
X0065336Y0034556D01*
X0065342Y0034639D01*
X0065352Y0034722D01*
X0065366Y0034805D01*
X0065383Y0034887D01*
X0065405Y0034968D01*
X0065430Y0035047D01*
X0065459Y0035126D01*
X0065492Y0035203D01*
X0065528Y0035278D01*
X0065568Y0035352D01*
X0065611Y0035424D01*
X0065658Y0035493D01*
X0065708Y0035560D01*
X0065761Y0035625D01*
X0065817Y0035687D01*
X0065875Y0035747D01*
X0065937Y0035804D01*
X0066001Y0035857D01*
X0066068Y0035908D01*
X0066137Y0035955D01*
X0066208Y0036000D01*
X0066281Y0036040D01*
X0066356Y0036077D01*
X0066433Y0036111D01*
X0066511Y0036141D01*
X0066590Y0036167D01*
X0066671Y0036190D01*
X0066753Y0036208D01*
X0066835Y0036223D01*
X0066918Y0036234D01*
X0067001Y0036241D01*
X0067085Y0036244D01*
X0067169Y0036243D01*
X0067252Y0036238D01*
X0067336Y0036229D01*
X0067418Y0036216D01*
X0067500Y0036200D01*
X0067581Y0036179D01*
X0067662Y0036155D01*
X0067740Y0036127D01*
X0067818Y0036095D01*
X0067894Y0036059D01*
X0067968Y0036020D01*
X0068040Y0035978D01*
X0068110Y0035932D01*
X0068178Y0035883D01*
X0068243Y0035831D01*
X0068306Y0035776D01*
X0068366Y0035718D01*
X0068424Y0035657D01*
X0068478Y0035593D01*
X0068530Y0035527D01*
X0068578Y0035459D01*
X0068623Y0035388D01*
X0068664Y0035315D01*
X0068703Y0035241D01*
X0068737Y0035165D01*
X0068768Y0035087D01*
X0068795Y0035008D01*
X0068819Y0034927D01*
X0068838Y0034846D01*
X0068854Y0034764D01*
X0068866Y0034681D01*
X0068874Y0034597D01*
X0068878Y0034514D01*
X0068878Y0034430D01*
X0068874Y0034347D01*
X0068866Y0034263D01*
X0068854Y0034180D01*
X0068838Y0034098D01*
X0068819Y0034017D01*
X0068795Y0033936D01*
X0068768Y0033857D01*
X0068737Y0033779D01*
X0068703Y0033703D01*
X0068664Y0033629D01*
X0068623Y0033556D01*
X0068578Y0033485D01*
X0068530Y0033417D01*
X0068478Y0033351D01*
X0068424Y0033287D01*
X0068366Y0033226D01*
X0068306Y0033168D01*
X0068243Y0033113D01*
X0068178Y0033061D01*
X0068110Y0033012D01*
X0068040Y0032966D01*
X0067968Y0032924D01*
X0067894Y0032885D01*
X0067818Y0032849D01*
X0067740Y0032817D01*
X0067662Y0032789D01*
X0067581Y0032765D01*
X0067500Y0032744D01*
X0067418Y0032728D01*
X0067336Y0032715D01*
X0067252Y0032706D01*
X0067169Y0032701D01*
X0067085Y0032700D01*
X0067001Y0032703D01*
X0066918Y0032710D01*
X0066835Y0032721D01*
X0066753Y0032736D01*
X0066671Y0032754D01*
X0066590Y0032777D01*
X0066511Y0032803D01*
X0066433Y0032833D01*
X0066356Y0032867D01*
X0066281Y0032904D01*
X0066208Y0032944D01*
X0066137Y0032989D01*
X0066068Y0033036D01*
X0066001Y0033087D01*
X0065937Y0033140D01*
X0065875Y0033197D01*
X0065817Y0033257D01*
X0065761Y0033319D01*
X0065708Y0033384D01*
X0065658Y0033451D01*
X0065611Y0033520D01*
X0065568Y0033592D01*
X0065528Y0033666D01*
X0065492Y0033741D01*
X0065459Y0033818D01*
X0065430Y0033897D01*
X0065405Y0033976D01*
X0065383Y0034057D01*
X0065366Y0034139D01*
X0065352Y0034222D01*
X0065342Y0034305D01*
X0065336Y0034388D01*
X0065334Y0034472D01*
X0096830Y0034472D02*
X0096832Y0034556D01*
X0096838Y0034639D01*
X0096848Y0034722D01*
X0096862Y0034805D01*
X0096879Y0034887D01*
X0096901Y0034968D01*
X0096926Y0035047D01*
X0096955Y0035126D01*
X0096988Y0035203D01*
X0097024Y0035278D01*
X0097064Y0035352D01*
X0097107Y0035424D01*
X0097154Y0035493D01*
X0097204Y0035560D01*
X0097257Y0035625D01*
X0097313Y0035687D01*
X0097371Y0035747D01*
X0097433Y0035804D01*
X0097497Y0035857D01*
X0097564Y0035908D01*
X0097633Y0035955D01*
X0097704Y0036000D01*
X0097777Y0036040D01*
X0097852Y0036077D01*
X0097929Y0036111D01*
X0098007Y0036141D01*
X0098086Y0036167D01*
X0098167Y0036190D01*
X0098249Y0036208D01*
X0098331Y0036223D01*
X0098414Y0036234D01*
X0098497Y0036241D01*
X0098581Y0036244D01*
X0098665Y0036243D01*
X0098748Y0036238D01*
X0098832Y0036229D01*
X0098914Y0036216D01*
X0098996Y0036200D01*
X0099077Y0036179D01*
X0099158Y0036155D01*
X0099236Y0036127D01*
X0099314Y0036095D01*
X0099390Y0036059D01*
X0099464Y0036020D01*
X0099536Y0035978D01*
X0099606Y0035932D01*
X0099674Y0035883D01*
X0099739Y0035831D01*
X0099802Y0035776D01*
X0099862Y0035718D01*
X0099920Y0035657D01*
X0099974Y0035593D01*
X0100026Y0035527D01*
X0100074Y0035459D01*
X0100119Y0035388D01*
X0100160Y0035315D01*
X0100199Y0035241D01*
X0100233Y0035165D01*
X0100264Y0035087D01*
X0100291Y0035008D01*
X0100315Y0034927D01*
X0100334Y0034846D01*
X0100350Y0034764D01*
X0100362Y0034681D01*
X0100370Y0034597D01*
X0100374Y0034514D01*
X0100374Y0034430D01*
X0100370Y0034347D01*
X0100362Y0034263D01*
X0100350Y0034180D01*
X0100334Y0034098D01*
X0100315Y0034017D01*
X0100291Y0033936D01*
X0100264Y0033857D01*
X0100233Y0033779D01*
X0100199Y0033703D01*
X0100160Y0033629D01*
X0100119Y0033556D01*
X0100074Y0033485D01*
X0100026Y0033417D01*
X0099974Y0033351D01*
X0099920Y0033287D01*
X0099862Y0033226D01*
X0099802Y0033168D01*
X0099739Y0033113D01*
X0099674Y0033061D01*
X0099606Y0033012D01*
X0099536Y0032966D01*
X0099464Y0032924D01*
X0099390Y0032885D01*
X0099314Y0032849D01*
X0099236Y0032817D01*
X0099158Y0032789D01*
X0099077Y0032765D01*
X0098996Y0032744D01*
X0098914Y0032728D01*
X0098832Y0032715D01*
X0098748Y0032706D01*
X0098665Y0032701D01*
X0098581Y0032700D01*
X0098497Y0032703D01*
X0098414Y0032710D01*
X0098331Y0032721D01*
X0098249Y0032736D01*
X0098167Y0032754D01*
X0098086Y0032777D01*
X0098007Y0032803D01*
X0097929Y0032833D01*
X0097852Y0032867D01*
X0097777Y0032904D01*
X0097704Y0032944D01*
X0097633Y0032989D01*
X0097564Y0033036D01*
X0097497Y0033087D01*
X0097433Y0033140D01*
X0097371Y0033197D01*
X0097313Y0033257D01*
X0097257Y0033319D01*
X0097204Y0033384D01*
X0097154Y0033451D01*
X0097107Y0033520D01*
X0097064Y0033592D01*
X0097024Y0033666D01*
X0096988Y0033741D01*
X0096955Y0033818D01*
X0096926Y0033897D01*
X0096901Y0033976D01*
X0096879Y0034057D01*
X0096862Y0034139D01*
X0096848Y0034222D01*
X0096838Y0034305D01*
X0096832Y0034388D01*
X0096830Y0034472D01*
X0017400Y0058500D02*
X0017402Y0058580D01*
X0017408Y0058659D01*
X0017418Y0058738D01*
X0017432Y0058817D01*
X0017449Y0058895D01*
X0017471Y0058972D01*
X0017496Y0059047D01*
X0017526Y0059121D01*
X0017558Y0059194D01*
X0017595Y0059265D01*
X0017635Y0059334D01*
X0017678Y0059401D01*
X0017725Y0059466D01*
X0017774Y0059528D01*
X0017827Y0059588D01*
X0017883Y0059645D01*
X0017941Y0059700D01*
X0018002Y0059751D01*
X0018066Y0059799D01*
X0018132Y0059844D01*
X0018200Y0059886D01*
X0018270Y0059924D01*
X0018342Y0059958D01*
X0018415Y0059989D01*
X0018490Y0060017D01*
X0018567Y0060040D01*
X0018644Y0060060D01*
X0018722Y0060076D01*
X0018801Y0060088D01*
X0018880Y0060096D01*
X0018960Y0060100D01*
X0019040Y0060100D01*
X0019120Y0060096D01*
X0019199Y0060088D01*
X0019278Y0060076D01*
X0019356Y0060060D01*
X0019433Y0060040D01*
X0019510Y0060017D01*
X0019585Y0059989D01*
X0019658Y0059958D01*
X0019730Y0059924D01*
X0019800Y0059886D01*
X0019868Y0059844D01*
X0019934Y0059799D01*
X0019998Y0059751D01*
X0020059Y0059700D01*
X0020117Y0059645D01*
X0020173Y0059588D01*
X0020226Y0059528D01*
X0020275Y0059466D01*
X0020322Y0059401D01*
X0020365Y0059334D01*
X0020405Y0059265D01*
X0020442Y0059194D01*
X0020474Y0059121D01*
X0020504Y0059047D01*
X0020529Y0058972D01*
X0020551Y0058895D01*
X0020568Y0058817D01*
X0020582Y0058738D01*
X0020592Y0058659D01*
X0020598Y0058580D01*
X0020600Y0058500D01*
X0020598Y0058420D01*
X0020592Y0058341D01*
X0020582Y0058262D01*
X0020568Y0058183D01*
X0020551Y0058105D01*
X0020529Y0058028D01*
X0020504Y0057953D01*
X0020474Y0057879D01*
X0020442Y0057806D01*
X0020405Y0057735D01*
X0020365Y0057666D01*
X0020322Y0057599D01*
X0020275Y0057534D01*
X0020226Y0057472D01*
X0020173Y0057412D01*
X0020117Y0057355D01*
X0020059Y0057300D01*
X0019998Y0057249D01*
X0019934Y0057201D01*
X0019868Y0057156D01*
X0019800Y0057114D01*
X0019730Y0057076D01*
X0019658Y0057042D01*
X0019585Y0057011D01*
X0019510Y0056983D01*
X0019433Y0056960D01*
X0019356Y0056940D01*
X0019278Y0056924D01*
X0019199Y0056912D01*
X0019120Y0056904D01*
X0019040Y0056900D01*
X0018960Y0056900D01*
X0018880Y0056904D01*
X0018801Y0056912D01*
X0018722Y0056924D01*
X0018644Y0056940D01*
X0018567Y0056960D01*
X0018490Y0056983D01*
X0018415Y0057011D01*
X0018342Y0057042D01*
X0018270Y0057076D01*
X0018200Y0057114D01*
X0018132Y0057156D01*
X0018066Y0057201D01*
X0018002Y0057249D01*
X0017941Y0057300D01*
X0017883Y0057355D01*
X0017827Y0057412D01*
X0017774Y0057472D01*
X0017725Y0057534D01*
X0017678Y0057599D01*
X0017635Y0057666D01*
X0017595Y0057735D01*
X0017558Y0057806D01*
X0017526Y0057879D01*
X0017496Y0057953D01*
X0017471Y0058028D01*
X0017449Y0058105D01*
X0017432Y0058183D01*
X0017418Y0058262D01*
X0017408Y0058341D01*
X0017402Y0058420D01*
X0017400Y0058500D01*
X0017400Y0070500D02*
X0017402Y0070580D01*
X0017408Y0070659D01*
X0017418Y0070738D01*
X0017432Y0070817D01*
X0017449Y0070895D01*
X0017471Y0070972D01*
X0017496Y0071047D01*
X0017526Y0071121D01*
X0017558Y0071194D01*
X0017595Y0071265D01*
X0017635Y0071334D01*
X0017678Y0071401D01*
X0017725Y0071466D01*
X0017774Y0071528D01*
X0017827Y0071588D01*
X0017883Y0071645D01*
X0017941Y0071700D01*
X0018002Y0071751D01*
X0018066Y0071799D01*
X0018132Y0071844D01*
X0018200Y0071886D01*
X0018270Y0071924D01*
X0018342Y0071958D01*
X0018415Y0071989D01*
X0018490Y0072017D01*
X0018567Y0072040D01*
X0018644Y0072060D01*
X0018722Y0072076D01*
X0018801Y0072088D01*
X0018880Y0072096D01*
X0018960Y0072100D01*
X0019040Y0072100D01*
X0019120Y0072096D01*
X0019199Y0072088D01*
X0019278Y0072076D01*
X0019356Y0072060D01*
X0019433Y0072040D01*
X0019510Y0072017D01*
X0019585Y0071989D01*
X0019658Y0071958D01*
X0019730Y0071924D01*
X0019800Y0071886D01*
X0019868Y0071844D01*
X0019934Y0071799D01*
X0019998Y0071751D01*
X0020059Y0071700D01*
X0020117Y0071645D01*
X0020173Y0071588D01*
X0020226Y0071528D01*
X0020275Y0071466D01*
X0020322Y0071401D01*
X0020365Y0071334D01*
X0020405Y0071265D01*
X0020442Y0071194D01*
X0020474Y0071121D01*
X0020504Y0071047D01*
X0020529Y0070972D01*
X0020551Y0070895D01*
X0020568Y0070817D01*
X0020582Y0070738D01*
X0020592Y0070659D01*
X0020598Y0070580D01*
X0020600Y0070500D01*
X0020598Y0070420D01*
X0020592Y0070341D01*
X0020582Y0070262D01*
X0020568Y0070183D01*
X0020551Y0070105D01*
X0020529Y0070028D01*
X0020504Y0069953D01*
X0020474Y0069879D01*
X0020442Y0069806D01*
X0020405Y0069735D01*
X0020365Y0069666D01*
X0020322Y0069599D01*
X0020275Y0069534D01*
X0020226Y0069472D01*
X0020173Y0069412D01*
X0020117Y0069355D01*
X0020059Y0069300D01*
X0019998Y0069249D01*
X0019934Y0069201D01*
X0019868Y0069156D01*
X0019800Y0069114D01*
X0019730Y0069076D01*
X0019658Y0069042D01*
X0019585Y0069011D01*
X0019510Y0068983D01*
X0019433Y0068960D01*
X0019356Y0068940D01*
X0019278Y0068924D01*
X0019199Y0068912D01*
X0019120Y0068904D01*
X0019040Y0068900D01*
X0018960Y0068900D01*
X0018880Y0068904D01*
X0018801Y0068912D01*
X0018722Y0068924D01*
X0018644Y0068940D01*
X0018567Y0068960D01*
X0018490Y0068983D01*
X0018415Y0069011D01*
X0018342Y0069042D01*
X0018270Y0069076D01*
X0018200Y0069114D01*
X0018132Y0069156D01*
X0018066Y0069201D01*
X0018002Y0069249D01*
X0017941Y0069300D01*
X0017883Y0069355D01*
X0017827Y0069412D01*
X0017774Y0069472D01*
X0017725Y0069534D01*
X0017678Y0069599D01*
X0017635Y0069666D01*
X0017595Y0069735D01*
X0017558Y0069806D01*
X0017526Y0069879D01*
X0017496Y0069953D01*
X0017471Y0070028D01*
X0017449Y0070105D01*
X0017432Y0070183D01*
X0017418Y0070262D01*
X0017408Y0070341D01*
X0017402Y0070420D01*
X0017400Y0070500D01*
X0279800Y0020500D02*
X0279802Y0020580D01*
X0279808Y0020659D01*
X0279818Y0020738D01*
X0279832Y0020817D01*
X0279849Y0020895D01*
X0279871Y0020972D01*
X0279896Y0021047D01*
X0279926Y0021121D01*
X0279958Y0021194D01*
X0279995Y0021265D01*
X0280035Y0021334D01*
X0280078Y0021401D01*
X0280125Y0021466D01*
X0280174Y0021528D01*
X0280227Y0021588D01*
X0280283Y0021645D01*
X0280341Y0021700D01*
X0280402Y0021751D01*
X0280466Y0021799D01*
X0280532Y0021844D01*
X0280600Y0021886D01*
X0280670Y0021924D01*
X0280742Y0021958D01*
X0280815Y0021989D01*
X0280890Y0022017D01*
X0280967Y0022040D01*
X0281044Y0022060D01*
X0281122Y0022076D01*
X0281201Y0022088D01*
X0281280Y0022096D01*
X0281360Y0022100D01*
X0281440Y0022100D01*
X0281520Y0022096D01*
X0281599Y0022088D01*
X0281678Y0022076D01*
X0281756Y0022060D01*
X0281833Y0022040D01*
X0281910Y0022017D01*
X0281985Y0021989D01*
X0282058Y0021958D01*
X0282130Y0021924D01*
X0282200Y0021886D01*
X0282268Y0021844D01*
X0282334Y0021799D01*
X0282398Y0021751D01*
X0282459Y0021700D01*
X0282517Y0021645D01*
X0282573Y0021588D01*
X0282626Y0021528D01*
X0282675Y0021466D01*
X0282722Y0021401D01*
X0282765Y0021334D01*
X0282805Y0021265D01*
X0282842Y0021194D01*
X0282874Y0021121D01*
X0282904Y0021047D01*
X0282929Y0020972D01*
X0282951Y0020895D01*
X0282968Y0020817D01*
X0282982Y0020738D01*
X0282992Y0020659D01*
X0282998Y0020580D01*
X0283000Y0020500D01*
X0282998Y0020420D01*
X0282992Y0020341D01*
X0282982Y0020262D01*
X0282968Y0020183D01*
X0282951Y0020105D01*
X0282929Y0020028D01*
X0282904Y0019953D01*
X0282874Y0019879D01*
X0282842Y0019806D01*
X0282805Y0019735D01*
X0282765Y0019666D01*
X0282722Y0019599D01*
X0282675Y0019534D01*
X0282626Y0019472D01*
X0282573Y0019412D01*
X0282517Y0019355D01*
X0282459Y0019300D01*
X0282398Y0019249D01*
X0282334Y0019201D01*
X0282268Y0019156D01*
X0282200Y0019114D01*
X0282130Y0019076D01*
X0282058Y0019042D01*
X0281985Y0019011D01*
X0281910Y0018983D01*
X0281833Y0018960D01*
X0281756Y0018940D01*
X0281678Y0018924D01*
X0281599Y0018912D01*
X0281520Y0018904D01*
X0281440Y0018900D01*
X0281360Y0018900D01*
X0281280Y0018904D01*
X0281201Y0018912D01*
X0281122Y0018924D01*
X0281044Y0018940D01*
X0280967Y0018960D01*
X0280890Y0018983D01*
X0280815Y0019011D01*
X0280742Y0019042D01*
X0280670Y0019076D01*
X0280600Y0019114D01*
X0280532Y0019156D01*
X0280466Y0019201D01*
X0280402Y0019249D01*
X0280341Y0019300D01*
X0280283Y0019355D01*
X0280227Y0019412D01*
X0280174Y0019472D01*
X0280125Y0019534D01*
X0280078Y0019599D01*
X0280035Y0019666D01*
X0279995Y0019735D01*
X0279958Y0019806D01*
X0279926Y0019879D01*
X0279896Y0019953D01*
X0279871Y0020028D01*
X0279849Y0020105D01*
X0279832Y0020183D01*
X0279818Y0020262D01*
X0279808Y0020341D01*
X0279802Y0020420D01*
X0279800Y0020500D01*
X0291800Y0020500D02*
X0291802Y0020580D01*
X0291808Y0020659D01*
X0291818Y0020738D01*
X0291832Y0020817D01*
X0291849Y0020895D01*
X0291871Y0020972D01*
X0291896Y0021047D01*
X0291926Y0021121D01*
X0291958Y0021194D01*
X0291995Y0021265D01*
X0292035Y0021334D01*
X0292078Y0021401D01*
X0292125Y0021466D01*
X0292174Y0021528D01*
X0292227Y0021588D01*
X0292283Y0021645D01*
X0292341Y0021700D01*
X0292402Y0021751D01*
X0292466Y0021799D01*
X0292532Y0021844D01*
X0292600Y0021886D01*
X0292670Y0021924D01*
X0292742Y0021958D01*
X0292815Y0021989D01*
X0292890Y0022017D01*
X0292967Y0022040D01*
X0293044Y0022060D01*
X0293122Y0022076D01*
X0293201Y0022088D01*
X0293280Y0022096D01*
X0293360Y0022100D01*
X0293440Y0022100D01*
X0293520Y0022096D01*
X0293599Y0022088D01*
X0293678Y0022076D01*
X0293756Y0022060D01*
X0293833Y0022040D01*
X0293910Y0022017D01*
X0293985Y0021989D01*
X0294058Y0021958D01*
X0294130Y0021924D01*
X0294200Y0021886D01*
X0294268Y0021844D01*
X0294334Y0021799D01*
X0294398Y0021751D01*
X0294459Y0021700D01*
X0294517Y0021645D01*
X0294573Y0021588D01*
X0294626Y0021528D01*
X0294675Y0021466D01*
X0294722Y0021401D01*
X0294765Y0021334D01*
X0294805Y0021265D01*
X0294842Y0021194D01*
X0294874Y0021121D01*
X0294904Y0021047D01*
X0294929Y0020972D01*
X0294951Y0020895D01*
X0294968Y0020817D01*
X0294982Y0020738D01*
X0294992Y0020659D01*
X0294998Y0020580D01*
X0295000Y0020500D01*
X0294998Y0020420D01*
X0294992Y0020341D01*
X0294982Y0020262D01*
X0294968Y0020183D01*
X0294951Y0020105D01*
X0294929Y0020028D01*
X0294904Y0019953D01*
X0294874Y0019879D01*
X0294842Y0019806D01*
X0294805Y0019735D01*
X0294765Y0019666D01*
X0294722Y0019599D01*
X0294675Y0019534D01*
X0294626Y0019472D01*
X0294573Y0019412D01*
X0294517Y0019355D01*
X0294459Y0019300D01*
X0294398Y0019249D01*
X0294334Y0019201D01*
X0294268Y0019156D01*
X0294200Y0019114D01*
X0294130Y0019076D01*
X0294058Y0019042D01*
X0293985Y0019011D01*
X0293910Y0018983D01*
X0293833Y0018960D01*
X0293756Y0018940D01*
X0293678Y0018924D01*
X0293599Y0018912D01*
X0293520Y0018904D01*
X0293440Y0018900D01*
X0293360Y0018900D01*
X0293280Y0018904D01*
X0293201Y0018912D01*
X0293122Y0018924D01*
X0293044Y0018940D01*
X0292967Y0018960D01*
X0292890Y0018983D01*
X0292815Y0019011D01*
X0292742Y0019042D01*
X0292670Y0019076D01*
X0292600Y0019114D01*
X0292532Y0019156D01*
X0292466Y0019201D01*
X0292402Y0019249D01*
X0292341Y0019300D01*
X0292283Y0019355D01*
X0292227Y0019412D01*
X0292174Y0019472D01*
X0292125Y0019534D01*
X0292078Y0019599D01*
X0292035Y0019666D01*
X0291995Y0019735D01*
X0291958Y0019806D01*
X0291926Y0019879D01*
X0291896Y0019953D01*
X0291871Y0020028D01*
X0291849Y0020105D01*
X0291832Y0020183D01*
X0291818Y0020262D01*
X0291808Y0020341D01*
X0291802Y0020420D01*
X0291800Y0020500D01*
X0517740Y0033185D02*
X0517742Y0033338D01*
X0517748Y0033492D01*
X0517758Y0033645D01*
X0517772Y0033797D01*
X0517790Y0033950D01*
X0517812Y0034101D01*
X0517837Y0034252D01*
X0517867Y0034403D01*
X0517901Y0034553D01*
X0517938Y0034701D01*
X0517979Y0034849D01*
X0518024Y0034995D01*
X0518073Y0035141D01*
X0518126Y0035285D01*
X0518182Y0035427D01*
X0518242Y0035568D01*
X0518306Y0035708D01*
X0518373Y0035846D01*
X0518444Y0035982D01*
X0518519Y0036116D01*
X0518596Y0036248D01*
X0518678Y0036378D01*
X0518762Y0036506D01*
X0518850Y0036632D01*
X0518941Y0036755D01*
X0519035Y0036876D01*
X0519133Y0036994D01*
X0519233Y0037110D01*
X0519337Y0037223D01*
X0519443Y0037334D01*
X0519552Y0037442D01*
X0519664Y0037547D01*
X0519778Y0037648D01*
X0519896Y0037747D01*
X0520015Y0037843D01*
X0520137Y0037936D01*
X0520262Y0038025D01*
X0520389Y0038112D01*
X0520518Y0038194D01*
X0520649Y0038274D01*
X0520782Y0038350D01*
X0520917Y0038423D01*
X0521054Y0038492D01*
X0521193Y0038557D01*
X0521333Y0038619D01*
X0521475Y0038677D01*
X0521618Y0038732D01*
X0521763Y0038783D01*
X0521909Y0038830D01*
X0522056Y0038873D01*
X0522204Y0038912D01*
X0522353Y0038948D01*
X0522503Y0038979D01*
X0522654Y0039007D01*
X0522805Y0039031D01*
X0522958Y0039051D01*
X0523110Y0039067D01*
X0523263Y0039079D01*
X0523416Y0039087D01*
X0523569Y0039091D01*
X0523723Y0039091D01*
X0523876Y0039087D01*
X0524029Y0039079D01*
X0524182Y0039067D01*
X0524334Y0039051D01*
X0524487Y0039031D01*
X0524638Y0039007D01*
X0524789Y0038979D01*
X0524939Y0038948D01*
X0525088Y0038912D01*
X0525236Y0038873D01*
X0525383Y0038830D01*
X0525529Y0038783D01*
X0525674Y0038732D01*
X0525817Y0038677D01*
X0525959Y0038619D01*
X0526099Y0038557D01*
X0526238Y0038492D01*
X0526375Y0038423D01*
X0526510Y0038350D01*
X0526643Y0038274D01*
X0526774Y0038194D01*
X0526903Y0038112D01*
X0527030Y0038025D01*
X0527155Y0037936D01*
X0527277Y0037843D01*
X0527396Y0037747D01*
X0527514Y0037648D01*
X0527628Y0037547D01*
X0527740Y0037442D01*
X0527849Y0037334D01*
X0527955Y0037223D01*
X0528059Y0037110D01*
X0528159Y0036994D01*
X0528257Y0036876D01*
X0528351Y0036755D01*
X0528442Y0036632D01*
X0528530Y0036506D01*
X0528614Y0036378D01*
X0528696Y0036248D01*
X0528773Y0036116D01*
X0528848Y0035982D01*
X0528919Y0035846D01*
X0528986Y0035708D01*
X0529050Y0035568D01*
X0529110Y0035427D01*
X0529166Y0035285D01*
X0529219Y0035141D01*
X0529268Y0034995D01*
X0529313Y0034849D01*
X0529354Y0034701D01*
X0529391Y0034553D01*
X0529425Y0034403D01*
X0529455Y0034252D01*
X0529480Y0034101D01*
X0529502Y0033950D01*
X0529520Y0033797D01*
X0529534Y0033645D01*
X0529544Y0033492D01*
X0529550Y0033338D01*
X0529552Y0033185D01*
X0529550Y0033032D01*
X0529544Y0032878D01*
X0529534Y0032725D01*
X0529520Y0032573D01*
X0529502Y0032420D01*
X0529480Y0032269D01*
X0529455Y0032118D01*
X0529425Y0031967D01*
X0529391Y0031817D01*
X0529354Y0031669D01*
X0529313Y0031521D01*
X0529268Y0031375D01*
X0529219Y0031229D01*
X0529166Y0031085D01*
X0529110Y0030943D01*
X0529050Y0030802D01*
X0528986Y0030662D01*
X0528919Y0030524D01*
X0528848Y0030388D01*
X0528773Y0030254D01*
X0528696Y0030122D01*
X0528614Y0029992D01*
X0528530Y0029864D01*
X0528442Y0029738D01*
X0528351Y0029615D01*
X0528257Y0029494D01*
X0528159Y0029376D01*
X0528059Y0029260D01*
X0527955Y0029147D01*
X0527849Y0029036D01*
X0527740Y0028928D01*
X0527628Y0028823D01*
X0527514Y0028722D01*
X0527396Y0028623D01*
X0527277Y0028527D01*
X0527155Y0028434D01*
X0527030Y0028345D01*
X0526903Y0028258D01*
X0526774Y0028176D01*
X0526643Y0028096D01*
X0526510Y0028020D01*
X0526375Y0027947D01*
X0526238Y0027878D01*
X0526099Y0027813D01*
X0525959Y0027751D01*
X0525817Y0027693D01*
X0525674Y0027638D01*
X0525529Y0027587D01*
X0525383Y0027540D01*
X0525236Y0027497D01*
X0525088Y0027458D01*
X0524939Y0027422D01*
X0524789Y0027391D01*
X0524638Y0027363D01*
X0524487Y0027339D01*
X0524334Y0027319D01*
X0524182Y0027303D01*
X0524029Y0027291D01*
X0523876Y0027283D01*
X0523723Y0027279D01*
X0523569Y0027279D01*
X0523416Y0027283D01*
X0523263Y0027291D01*
X0523110Y0027303D01*
X0522958Y0027319D01*
X0522805Y0027339D01*
X0522654Y0027363D01*
X0522503Y0027391D01*
X0522353Y0027422D01*
X0522204Y0027458D01*
X0522056Y0027497D01*
X0521909Y0027540D01*
X0521763Y0027587D01*
X0521618Y0027638D01*
X0521475Y0027693D01*
X0521333Y0027751D01*
X0521193Y0027813D01*
X0521054Y0027878D01*
X0520917Y0027947D01*
X0520782Y0028020D01*
X0520649Y0028096D01*
X0520518Y0028176D01*
X0520389Y0028258D01*
X0520262Y0028345D01*
X0520137Y0028434D01*
X0520015Y0028527D01*
X0519896Y0028623D01*
X0519778Y0028722D01*
X0519664Y0028823D01*
X0519552Y0028928D01*
X0519443Y0029036D01*
X0519337Y0029147D01*
X0519233Y0029260D01*
X0519133Y0029376D01*
X0519035Y0029494D01*
X0518941Y0029615D01*
X0518850Y0029738D01*
X0518762Y0029864D01*
X0518678Y0029992D01*
X0518596Y0030122D01*
X0518519Y0030254D01*
X0518444Y0030388D01*
X0518373Y0030524D01*
X0518306Y0030662D01*
X0518242Y0030802D01*
X0518182Y0030943D01*
X0518126Y0031085D01*
X0518073Y0031229D01*
X0518024Y0031375D01*
X0517979Y0031521D01*
X0517938Y0031669D01*
X0517901Y0031817D01*
X0517867Y0031967D01*
X0517837Y0032118D01*
X0517812Y0032269D01*
X0517790Y0032420D01*
X0517772Y0032573D01*
X0517758Y0032725D01*
X0517748Y0032878D01*
X0517742Y0033032D01*
X0517740Y0033185D01*
X0815094Y0040500D02*
X0815096Y0040653D01*
X0815102Y0040807D01*
X0815112Y0040960D01*
X0815126Y0041112D01*
X0815144Y0041265D01*
X0815166Y0041416D01*
X0815191Y0041567D01*
X0815221Y0041718D01*
X0815255Y0041868D01*
X0815292Y0042016D01*
X0815333Y0042164D01*
X0815378Y0042310D01*
X0815427Y0042456D01*
X0815480Y0042600D01*
X0815536Y0042742D01*
X0815596Y0042883D01*
X0815660Y0043023D01*
X0815727Y0043161D01*
X0815798Y0043297D01*
X0815873Y0043431D01*
X0815950Y0043563D01*
X0816032Y0043693D01*
X0816116Y0043821D01*
X0816204Y0043947D01*
X0816295Y0044070D01*
X0816389Y0044191D01*
X0816487Y0044309D01*
X0816587Y0044425D01*
X0816691Y0044538D01*
X0816797Y0044649D01*
X0816906Y0044757D01*
X0817018Y0044862D01*
X0817132Y0044963D01*
X0817250Y0045062D01*
X0817369Y0045158D01*
X0817491Y0045251D01*
X0817616Y0045340D01*
X0817743Y0045427D01*
X0817872Y0045509D01*
X0818003Y0045589D01*
X0818136Y0045665D01*
X0818271Y0045738D01*
X0818408Y0045807D01*
X0818547Y0045872D01*
X0818687Y0045934D01*
X0818829Y0045992D01*
X0818972Y0046047D01*
X0819117Y0046098D01*
X0819263Y0046145D01*
X0819410Y0046188D01*
X0819558Y0046227D01*
X0819707Y0046263D01*
X0819857Y0046294D01*
X0820008Y0046322D01*
X0820159Y0046346D01*
X0820312Y0046366D01*
X0820464Y0046382D01*
X0820617Y0046394D01*
X0820770Y0046402D01*
X0820923Y0046406D01*
X0821077Y0046406D01*
X0821230Y0046402D01*
X0821383Y0046394D01*
X0821536Y0046382D01*
X0821688Y0046366D01*
X0821841Y0046346D01*
X0821992Y0046322D01*
X0822143Y0046294D01*
X0822293Y0046263D01*
X0822442Y0046227D01*
X0822590Y0046188D01*
X0822737Y0046145D01*
X0822883Y0046098D01*
X0823028Y0046047D01*
X0823171Y0045992D01*
X0823313Y0045934D01*
X0823453Y0045872D01*
X0823592Y0045807D01*
X0823729Y0045738D01*
X0823864Y0045665D01*
X0823997Y0045589D01*
X0824128Y0045509D01*
X0824257Y0045427D01*
X0824384Y0045340D01*
X0824509Y0045251D01*
X0824631Y0045158D01*
X0824750Y0045062D01*
X0824868Y0044963D01*
X0824982Y0044862D01*
X0825094Y0044757D01*
X0825203Y0044649D01*
X0825309Y0044538D01*
X0825413Y0044425D01*
X0825513Y0044309D01*
X0825611Y0044191D01*
X0825705Y0044070D01*
X0825796Y0043947D01*
X0825884Y0043821D01*
X0825968Y0043693D01*
X0826050Y0043563D01*
X0826127Y0043431D01*
X0826202Y0043297D01*
X0826273Y0043161D01*
X0826340Y0043023D01*
X0826404Y0042883D01*
X0826464Y0042742D01*
X0826520Y0042600D01*
X0826573Y0042456D01*
X0826622Y0042310D01*
X0826667Y0042164D01*
X0826708Y0042016D01*
X0826745Y0041868D01*
X0826779Y0041718D01*
X0826809Y0041567D01*
X0826834Y0041416D01*
X0826856Y0041265D01*
X0826874Y0041112D01*
X0826888Y0040960D01*
X0826898Y0040807D01*
X0826904Y0040653D01*
X0826906Y0040500D01*
X0826904Y0040347D01*
X0826898Y0040193D01*
X0826888Y0040040D01*
X0826874Y0039888D01*
X0826856Y0039735D01*
X0826834Y0039584D01*
X0826809Y0039433D01*
X0826779Y0039282D01*
X0826745Y0039132D01*
X0826708Y0038984D01*
X0826667Y0038836D01*
X0826622Y0038690D01*
X0826573Y0038544D01*
X0826520Y0038400D01*
X0826464Y0038258D01*
X0826404Y0038117D01*
X0826340Y0037977D01*
X0826273Y0037839D01*
X0826202Y0037703D01*
X0826127Y0037569D01*
X0826050Y0037437D01*
X0825968Y0037307D01*
X0825884Y0037179D01*
X0825796Y0037053D01*
X0825705Y0036930D01*
X0825611Y0036809D01*
X0825513Y0036691D01*
X0825413Y0036575D01*
X0825309Y0036462D01*
X0825203Y0036351D01*
X0825094Y0036243D01*
X0824982Y0036138D01*
X0824868Y0036037D01*
X0824750Y0035938D01*
X0824631Y0035842D01*
X0824509Y0035749D01*
X0824384Y0035660D01*
X0824257Y0035573D01*
X0824128Y0035491D01*
X0823997Y0035411D01*
X0823864Y0035335D01*
X0823729Y0035262D01*
X0823592Y0035193D01*
X0823453Y0035128D01*
X0823313Y0035066D01*
X0823171Y0035008D01*
X0823028Y0034953D01*
X0822883Y0034902D01*
X0822737Y0034855D01*
X0822590Y0034812D01*
X0822442Y0034773D01*
X0822293Y0034737D01*
X0822143Y0034706D01*
X0821992Y0034678D01*
X0821841Y0034654D01*
X0821688Y0034634D01*
X0821536Y0034618D01*
X0821383Y0034606D01*
X0821230Y0034598D01*
X0821077Y0034594D01*
X0820923Y0034594D01*
X0820770Y0034598D01*
X0820617Y0034606D01*
X0820464Y0034618D01*
X0820312Y0034634D01*
X0820159Y0034654D01*
X0820008Y0034678D01*
X0819857Y0034706D01*
X0819707Y0034737D01*
X0819558Y0034773D01*
X0819410Y0034812D01*
X0819263Y0034855D01*
X0819117Y0034902D01*
X0818972Y0034953D01*
X0818829Y0035008D01*
X0818687Y0035066D01*
X0818547Y0035128D01*
X0818408Y0035193D01*
X0818271Y0035262D01*
X0818136Y0035335D01*
X0818003Y0035411D01*
X0817872Y0035491D01*
X0817743Y0035573D01*
X0817616Y0035660D01*
X0817491Y0035749D01*
X0817369Y0035842D01*
X0817250Y0035938D01*
X0817132Y0036037D01*
X0817018Y0036138D01*
X0816906Y0036243D01*
X0816797Y0036351D01*
X0816691Y0036462D01*
X0816587Y0036575D01*
X0816487Y0036691D01*
X0816389Y0036809D01*
X0816295Y0036930D01*
X0816204Y0037053D01*
X0816116Y0037179D01*
X0816032Y0037307D01*
X0815950Y0037437D01*
X0815873Y0037569D01*
X0815798Y0037703D01*
X0815727Y0037839D01*
X0815660Y0037977D01*
X0815596Y0038117D01*
X0815536Y0038258D01*
X0815480Y0038400D01*
X0815427Y0038544D01*
X0815378Y0038690D01*
X0815333Y0038836D01*
X0815292Y0038984D01*
X0815255Y0039132D01*
X0815221Y0039282D01*
X0815191Y0039433D01*
X0815166Y0039584D01*
X0815144Y0039735D01*
X0815126Y0039888D01*
X0815112Y0040040D01*
X0815102Y0040193D01*
X0815096Y0040347D01*
X0815094Y0040500D01*
X0950811Y0033185D02*
X0950813Y0033338D01*
X0950819Y0033492D01*
X0950829Y0033645D01*
X0950843Y0033797D01*
X0950861Y0033950D01*
X0950883Y0034101D01*
X0950908Y0034252D01*
X0950938Y0034403D01*
X0950972Y0034553D01*
X0951009Y0034701D01*
X0951050Y0034849D01*
X0951095Y0034995D01*
X0951144Y0035141D01*
X0951197Y0035285D01*
X0951253Y0035427D01*
X0951313Y0035568D01*
X0951377Y0035708D01*
X0951444Y0035846D01*
X0951515Y0035982D01*
X0951590Y0036116D01*
X0951667Y0036248D01*
X0951749Y0036378D01*
X0951833Y0036506D01*
X0951921Y0036632D01*
X0952012Y0036755D01*
X0952106Y0036876D01*
X0952204Y0036994D01*
X0952304Y0037110D01*
X0952408Y0037223D01*
X0952514Y0037334D01*
X0952623Y0037442D01*
X0952735Y0037547D01*
X0952849Y0037648D01*
X0952967Y0037747D01*
X0953086Y0037843D01*
X0953208Y0037936D01*
X0953333Y0038025D01*
X0953460Y0038112D01*
X0953589Y0038194D01*
X0953720Y0038274D01*
X0953853Y0038350D01*
X0953988Y0038423D01*
X0954125Y0038492D01*
X0954264Y0038557D01*
X0954404Y0038619D01*
X0954546Y0038677D01*
X0954689Y0038732D01*
X0954834Y0038783D01*
X0954980Y0038830D01*
X0955127Y0038873D01*
X0955275Y0038912D01*
X0955424Y0038948D01*
X0955574Y0038979D01*
X0955725Y0039007D01*
X0955876Y0039031D01*
X0956029Y0039051D01*
X0956181Y0039067D01*
X0956334Y0039079D01*
X0956487Y0039087D01*
X0956640Y0039091D01*
X0956794Y0039091D01*
X0956947Y0039087D01*
X0957100Y0039079D01*
X0957253Y0039067D01*
X0957405Y0039051D01*
X0957558Y0039031D01*
X0957709Y0039007D01*
X0957860Y0038979D01*
X0958010Y0038948D01*
X0958159Y0038912D01*
X0958307Y0038873D01*
X0958454Y0038830D01*
X0958600Y0038783D01*
X0958745Y0038732D01*
X0958888Y0038677D01*
X0959030Y0038619D01*
X0959170Y0038557D01*
X0959309Y0038492D01*
X0959446Y0038423D01*
X0959581Y0038350D01*
X0959714Y0038274D01*
X0959845Y0038194D01*
X0959974Y0038112D01*
X0960101Y0038025D01*
X0960226Y0037936D01*
X0960348Y0037843D01*
X0960467Y0037747D01*
X0960585Y0037648D01*
X0960699Y0037547D01*
X0960811Y0037442D01*
X0960920Y0037334D01*
X0961026Y0037223D01*
X0961130Y0037110D01*
X0961230Y0036994D01*
X0961328Y0036876D01*
X0961422Y0036755D01*
X0961513Y0036632D01*
X0961601Y0036506D01*
X0961685Y0036378D01*
X0961767Y0036248D01*
X0961844Y0036116D01*
X0961919Y0035982D01*
X0961990Y0035846D01*
X0962057Y0035708D01*
X0962121Y0035568D01*
X0962181Y0035427D01*
X0962237Y0035285D01*
X0962290Y0035141D01*
X0962339Y0034995D01*
X0962384Y0034849D01*
X0962425Y0034701D01*
X0962462Y0034553D01*
X0962496Y0034403D01*
X0962526Y0034252D01*
X0962551Y0034101D01*
X0962573Y0033950D01*
X0962591Y0033797D01*
X0962605Y0033645D01*
X0962615Y0033492D01*
X0962621Y0033338D01*
X0962623Y0033185D01*
X0962621Y0033032D01*
X0962615Y0032878D01*
X0962605Y0032725D01*
X0962591Y0032573D01*
X0962573Y0032420D01*
X0962551Y0032269D01*
X0962526Y0032118D01*
X0962496Y0031967D01*
X0962462Y0031817D01*
X0962425Y0031669D01*
X0962384Y0031521D01*
X0962339Y0031375D01*
X0962290Y0031229D01*
X0962237Y0031085D01*
X0962181Y0030943D01*
X0962121Y0030802D01*
X0962057Y0030662D01*
X0961990Y0030524D01*
X0961919Y0030388D01*
X0961844Y0030254D01*
X0961767Y0030122D01*
X0961685Y0029992D01*
X0961601Y0029864D01*
X0961513Y0029738D01*
X0961422Y0029615D01*
X0961328Y0029494D01*
X0961230Y0029376D01*
X0961130Y0029260D01*
X0961026Y0029147D01*
X0960920Y0029036D01*
X0960811Y0028928D01*
X0960699Y0028823D01*
X0960585Y0028722D01*
X0960467Y0028623D01*
X0960348Y0028527D01*
X0960226Y0028434D01*
X0960101Y0028345D01*
X0959974Y0028258D01*
X0959845Y0028176D01*
X0959714Y0028096D01*
X0959581Y0028020D01*
X0959446Y0027947D01*
X0959309Y0027878D01*
X0959170Y0027813D01*
X0959030Y0027751D01*
X0958888Y0027693D01*
X0958745Y0027638D01*
X0958600Y0027587D01*
X0958454Y0027540D01*
X0958307Y0027497D01*
X0958159Y0027458D01*
X0958010Y0027422D01*
X0957860Y0027391D01*
X0957709Y0027363D01*
X0957558Y0027339D01*
X0957405Y0027319D01*
X0957253Y0027303D01*
X0957100Y0027291D01*
X0956947Y0027283D01*
X0956794Y0027279D01*
X0956640Y0027279D01*
X0956487Y0027283D01*
X0956334Y0027291D01*
X0956181Y0027303D01*
X0956029Y0027319D01*
X0955876Y0027339D01*
X0955725Y0027363D01*
X0955574Y0027391D01*
X0955424Y0027422D01*
X0955275Y0027458D01*
X0955127Y0027497D01*
X0954980Y0027540D01*
X0954834Y0027587D01*
X0954689Y0027638D01*
X0954546Y0027693D01*
X0954404Y0027751D01*
X0954264Y0027813D01*
X0954125Y0027878D01*
X0953988Y0027947D01*
X0953853Y0028020D01*
X0953720Y0028096D01*
X0953589Y0028176D01*
X0953460Y0028258D01*
X0953333Y0028345D01*
X0953208Y0028434D01*
X0953086Y0028527D01*
X0952967Y0028623D01*
X0952849Y0028722D01*
X0952735Y0028823D01*
X0952623Y0028928D01*
X0952514Y0029036D01*
X0952408Y0029147D01*
X0952304Y0029260D01*
X0952204Y0029376D01*
X0952106Y0029494D01*
X0952012Y0029615D01*
X0951921Y0029738D01*
X0951833Y0029864D01*
X0951749Y0029992D01*
X0951667Y0030122D01*
X0951590Y0030254D01*
X0951515Y0030388D01*
X0951444Y0030524D01*
X0951377Y0030662D01*
X0951313Y0030802D01*
X0951253Y0030943D01*
X0951197Y0031085D01*
X0951144Y0031229D01*
X0951095Y0031375D01*
X0951050Y0031521D01*
X0951009Y0031669D01*
X0950972Y0031817D01*
X0950938Y0031967D01*
X0950908Y0032118D01*
X0950883Y0032269D01*
X0950861Y0032420D01*
X0950843Y0032573D01*
X0950829Y0032725D01*
X0950819Y0032878D01*
X0950813Y0033032D01*
X0950811Y0033185D01*
X0952500Y0070500D02*
X0952502Y0070661D01*
X0952508Y0070821D01*
X0952518Y0070982D01*
X0952532Y0071142D01*
X0952550Y0071302D01*
X0952571Y0071461D01*
X0952597Y0071620D01*
X0952627Y0071778D01*
X0952660Y0071935D01*
X0952698Y0072092D01*
X0952739Y0072247D01*
X0952784Y0072401D01*
X0952833Y0072554D01*
X0952886Y0072706D01*
X0952942Y0072857D01*
X0953003Y0073006D01*
X0953066Y0073154D01*
X0953134Y0073300D01*
X0953205Y0073444D01*
X0953279Y0073586D01*
X0953357Y0073727D01*
X0953439Y0073865D01*
X0953524Y0074002D01*
X0953612Y0074136D01*
X0953704Y0074268D01*
X0953799Y0074398D01*
X0953897Y0074526D01*
X0953998Y0074651D01*
X0954102Y0074773D01*
X0954209Y0074893D01*
X0954319Y0075010D01*
X0954432Y0075125D01*
X0954548Y0075236D01*
X0954667Y0075345D01*
X0954788Y0075450D01*
X0954912Y0075553D01*
X0955038Y0075653D01*
X0955166Y0075749D01*
X0955297Y0075842D01*
X0955431Y0075932D01*
X0955566Y0076019D01*
X0955704Y0076102D01*
X0955843Y0076182D01*
X0955985Y0076258D01*
X0956128Y0076331D01*
X0956273Y0076400D01*
X0956420Y0076466D01*
X0956568Y0076528D01*
X0956718Y0076586D01*
X0956869Y0076641D01*
X0957022Y0076692D01*
X0957176Y0076739D01*
X0957331Y0076782D01*
X0957487Y0076821D01*
X0957643Y0076857D01*
X0957801Y0076888D01*
X0957959Y0076916D01*
X0958118Y0076940D01*
X0958278Y0076960D01*
X0958438Y0076976D01*
X0958598Y0076988D01*
X0958759Y0076996D01*
X0958920Y0077000D01*
X0959080Y0077000D01*
X0959241Y0076996D01*
X0959402Y0076988D01*
X0959562Y0076976D01*
X0959722Y0076960D01*
X0959882Y0076940D01*
X0960041Y0076916D01*
X0960199Y0076888D01*
X0960357Y0076857D01*
X0960513Y0076821D01*
X0960669Y0076782D01*
X0960824Y0076739D01*
X0960978Y0076692D01*
X0961131Y0076641D01*
X0961282Y0076586D01*
X0961432Y0076528D01*
X0961580Y0076466D01*
X0961727Y0076400D01*
X0961872Y0076331D01*
X0962015Y0076258D01*
X0962157Y0076182D01*
X0962296Y0076102D01*
X0962434Y0076019D01*
X0962569Y0075932D01*
X0962703Y0075842D01*
X0962834Y0075749D01*
X0962962Y0075653D01*
X0963088Y0075553D01*
X0963212Y0075450D01*
X0963333Y0075345D01*
X0963452Y0075236D01*
X0963568Y0075125D01*
X0963681Y0075010D01*
X0963791Y0074893D01*
X0963898Y0074773D01*
X0964002Y0074651D01*
X0964103Y0074526D01*
X0964201Y0074398D01*
X0964296Y0074268D01*
X0964388Y0074136D01*
X0964476Y0074002D01*
X0964561Y0073865D01*
X0964643Y0073727D01*
X0964721Y0073586D01*
X0964795Y0073444D01*
X0964866Y0073300D01*
X0964934Y0073154D01*
X0964997Y0073006D01*
X0965058Y0072857D01*
X0965114Y0072706D01*
X0965167Y0072554D01*
X0965216Y0072401D01*
X0965261Y0072247D01*
X0965302Y0072092D01*
X0965340Y0071935D01*
X0965373Y0071778D01*
X0965403Y0071620D01*
X0965429Y0071461D01*
X0965450Y0071302D01*
X0965468Y0071142D01*
X0965482Y0070982D01*
X0965492Y0070821D01*
X0965498Y0070661D01*
X0965500Y0070500D01*
X0965498Y0070339D01*
X0965492Y0070179D01*
X0965482Y0070018D01*
X0965468Y0069858D01*
X0965450Y0069698D01*
X0965429Y0069539D01*
X0965403Y0069380D01*
X0965373Y0069222D01*
X0965340Y0069065D01*
X0965302Y0068908D01*
X0965261Y0068753D01*
X0965216Y0068599D01*
X0965167Y0068446D01*
X0965114Y0068294D01*
X0965058Y0068143D01*
X0964997Y0067994D01*
X0964934Y0067846D01*
X0964866Y0067700D01*
X0964795Y0067556D01*
X0964721Y0067414D01*
X0964643Y0067273D01*
X0964561Y0067135D01*
X0964476Y0066998D01*
X0964388Y0066864D01*
X0964296Y0066732D01*
X0964201Y0066602D01*
X0964103Y0066474D01*
X0964002Y0066349D01*
X0963898Y0066227D01*
X0963791Y0066107D01*
X0963681Y0065990D01*
X0963568Y0065875D01*
X0963452Y0065764D01*
X0963333Y0065655D01*
X0963212Y0065550D01*
X0963088Y0065447D01*
X0962962Y0065347D01*
X0962834Y0065251D01*
X0962703Y0065158D01*
X0962569Y0065068D01*
X0962434Y0064981D01*
X0962296Y0064898D01*
X0962157Y0064818D01*
X0962015Y0064742D01*
X0961872Y0064669D01*
X0961727Y0064600D01*
X0961580Y0064534D01*
X0961432Y0064472D01*
X0961282Y0064414D01*
X0961131Y0064359D01*
X0960978Y0064308D01*
X0960824Y0064261D01*
X0960669Y0064218D01*
X0960513Y0064179D01*
X0960357Y0064143D01*
X0960199Y0064112D01*
X0960041Y0064084D01*
X0959882Y0064060D01*
X0959722Y0064040D01*
X0959562Y0064024D01*
X0959402Y0064012D01*
X0959241Y0064004D01*
X0959080Y0064000D01*
X0958920Y0064000D01*
X0958759Y0064004D01*
X0958598Y0064012D01*
X0958438Y0064024D01*
X0958278Y0064040D01*
X0958118Y0064060D01*
X0957959Y0064084D01*
X0957801Y0064112D01*
X0957643Y0064143D01*
X0957487Y0064179D01*
X0957331Y0064218D01*
X0957176Y0064261D01*
X0957022Y0064308D01*
X0956869Y0064359D01*
X0956718Y0064414D01*
X0956568Y0064472D01*
X0956420Y0064534D01*
X0956273Y0064600D01*
X0956128Y0064669D01*
X0955985Y0064742D01*
X0955843Y0064818D01*
X0955704Y0064898D01*
X0955566Y0064981D01*
X0955431Y0065068D01*
X0955297Y0065158D01*
X0955166Y0065251D01*
X0955038Y0065347D01*
X0954912Y0065447D01*
X0954788Y0065550D01*
X0954667Y0065655D01*
X0954548Y0065764D01*
X0954432Y0065875D01*
X0954319Y0065990D01*
X0954209Y0066107D01*
X0954102Y0066227D01*
X0953998Y0066349D01*
X0953897Y0066474D01*
X0953799Y0066602D01*
X0953704Y0066732D01*
X0953612Y0066864D01*
X0953524Y0066998D01*
X0953439Y0067135D01*
X0953357Y0067273D01*
X0953279Y0067414D01*
X0953205Y0067556D01*
X0953134Y0067700D01*
X0953066Y0067846D01*
X0953003Y0067994D01*
X0952942Y0068143D01*
X0952886Y0068294D01*
X0952833Y0068446D01*
X0952784Y0068599D01*
X0952739Y0068753D01*
X0952698Y0068908D01*
X0952660Y0069065D01*
X0952627Y0069222D01*
X0952597Y0069380D01*
X0952571Y0069539D01*
X0952550Y0069698D01*
X0952532Y0069858D01*
X0952518Y0070018D01*
X0952508Y0070179D01*
X0952502Y0070339D01*
X0952500Y0070500D01*
X0875094Y0157500D02*
X0875096Y0157653D01*
X0875102Y0157807D01*
X0875112Y0157960D01*
X0875126Y0158112D01*
X0875144Y0158265D01*
X0875166Y0158416D01*
X0875191Y0158567D01*
X0875221Y0158718D01*
X0875255Y0158868D01*
X0875292Y0159016D01*
X0875333Y0159164D01*
X0875378Y0159310D01*
X0875427Y0159456D01*
X0875480Y0159600D01*
X0875536Y0159742D01*
X0875596Y0159883D01*
X0875660Y0160023D01*
X0875727Y0160161D01*
X0875798Y0160297D01*
X0875873Y0160431D01*
X0875950Y0160563D01*
X0876032Y0160693D01*
X0876116Y0160821D01*
X0876204Y0160947D01*
X0876295Y0161070D01*
X0876389Y0161191D01*
X0876487Y0161309D01*
X0876587Y0161425D01*
X0876691Y0161538D01*
X0876797Y0161649D01*
X0876906Y0161757D01*
X0877018Y0161862D01*
X0877132Y0161963D01*
X0877250Y0162062D01*
X0877369Y0162158D01*
X0877491Y0162251D01*
X0877616Y0162340D01*
X0877743Y0162427D01*
X0877872Y0162509D01*
X0878003Y0162589D01*
X0878136Y0162665D01*
X0878271Y0162738D01*
X0878408Y0162807D01*
X0878547Y0162872D01*
X0878687Y0162934D01*
X0878829Y0162992D01*
X0878972Y0163047D01*
X0879117Y0163098D01*
X0879263Y0163145D01*
X0879410Y0163188D01*
X0879558Y0163227D01*
X0879707Y0163263D01*
X0879857Y0163294D01*
X0880008Y0163322D01*
X0880159Y0163346D01*
X0880312Y0163366D01*
X0880464Y0163382D01*
X0880617Y0163394D01*
X0880770Y0163402D01*
X0880923Y0163406D01*
X0881077Y0163406D01*
X0881230Y0163402D01*
X0881383Y0163394D01*
X0881536Y0163382D01*
X0881688Y0163366D01*
X0881841Y0163346D01*
X0881992Y0163322D01*
X0882143Y0163294D01*
X0882293Y0163263D01*
X0882442Y0163227D01*
X0882590Y0163188D01*
X0882737Y0163145D01*
X0882883Y0163098D01*
X0883028Y0163047D01*
X0883171Y0162992D01*
X0883313Y0162934D01*
X0883453Y0162872D01*
X0883592Y0162807D01*
X0883729Y0162738D01*
X0883864Y0162665D01*
X0883997Y0162589D01*
X0884128Y0162509D01*
X0884257Y0162427D01*
X0884384Y0162340D01*
X0884509Y0162251D01*
X0884631Y0162158D01*
X0884750Y0162062D01*
X0884868Y0161963D01*
X0884982Y0161862D01*
X0885094Y0161757D01*
X0885203Y0161649D01*
X0885309Y0161538D01*
X0885413Y0161425D01*
X0885513Y0161309D01*
X0885611Y0161191D01*
X0885705Y0161070D01*
X0885796Y0160947D01*
X0885884Y0160821D01*
X0885968Y0160693D01*
X0886050Y0160563D01*
X0886127Y0160431D01*
X0886202Y0160297D01*
X0886273Y0160161D01*
X0886340Y0160023D01*
X0886404Y0159883D01*
X0886464Y0159742D01*
X0886520Y0159600D01*
X0886573Y0159456D01*
X0886622Y0159310D01*
X0886667Y0159164D01*
X0886708Y0159016D01*
X0886745Y0158868D01*
X0886779Y0158718D01*
X0886809Y0158567D01*
X0886834Y0158416D01*
X0886856Y0158265D01*
X0886874Y0158112D01*
X0886888Y0157960D01*
X0886898Y0157807D01*
X0886904Y0157653D01*
X0886906Y0157500D01*
X0886904Y0157347D01*
X0886898Y0157193D01*
X0886888Y0157040D01*
X0886874Y0156888D01*
X0886856Y0156735D01*
X0886834Y0156584D01*
X0886809Y0156433D01*
X0886779Y0156282D01*
X0886745Y0156132D01*
X0886708Y0155984D01*
X0886667Y0155836D01*
X0886622Y0155690D01*
X0886573Y0155544D01*
X0886520Y0155400D01*
X0886464Y0155258D01*
X0886404Y0155117D01*
X0886340Y0154977D01*
X0886273Y0154839D01*
X0886202Y0154703D01*
X0886127Y0154569D01*
X0886050Y0154437D01*
X0885968Y0154307D01*
X0885884Y0154179D01*
X0885796Y0154053D01*
X0885705Y0153930D01*
X0885611Y0153809D01*
X0885513Y0153691D01*
X0885413Y0153575D01*
X0885309Y0153462D01*
X0885203Y0153351D01*
X0885094Y0153243D01*
X0884982Y0153138D01*
X0884868Y0153037D01*
X0884750Y0152938D01*
X0884631Y0152842D01*
X0884509Y0152749D01*
X0884384Y0152660D01*
X0884257Y0152573D01*
X0884128Y0152491D01*
X0883997Y0152411D01*
X0883864Y0152335D01*
X0883729Y0152262D01*
X0883592Y0152193D01*
X0883453Y0152128D01*
X0883313Y0152066D01*
X0883171Y0152008D01*
X0883028Y0151953D01*
X0882883Y0151902D01*
X0882737Y0151855D01*
X0882590Y0151812D01*
X0882442Y0151773D01*
X0882293Y0151737D01*
X0882143Y0151706D01*
X0881992Y0151678D01*
X0881841Y0151654D01*
X0881688Y0151634D01*
X0881536Y0151618D01*
X0881383Y0151606D01*
X0881230Y0151598D01*
X0881077Y0151594D01*
X0880923Y0151594D01*
X0880770Y0151598D01*
X0880617Y0151606D01*
X0880464Y0151618D01*
X0880312Y0151634D01*
X0880159Y0151654D01*
X0880008Y0151678D01*
X0879857Y0151706D01*
X0879707Y0151737D01*
X0879558Y0151773D01*
X0879410Y0151812D01*
X0879263Y0151855D01*
X0879117Y0151902D01*
X0878972Y0151953D01*
X0878829Y0152008D01*
X0878687Y0152066D01*
X0878547Y0152128D01*
X0878408Y0152193D01*
X0878271Y0152262D01*
X0878136Y0152335D01*
X0878003Y0152411D01*
X0877872Y0152491D01*
X0877743Y0152573D01*
X0877616Y0152660D01*
X0877491Y0152749D01*
X0877369Y0152842D01*
X0877250Y0152938D01*
X0877132Y0153037D01*
X0877018Y0153138D01*
X0876906Y0153243D01*
X0876797Y0153351D01*
X0876691Y0153462D01*
X0876587Y0153575D01*
X0876487Y0153691D01*
X0876389Y0153809D01*
X0876295Y0153930D01*
X0876204Y0154053D01*
X0876116Y0154179D01*
X0876032Y0154307D01*
X0875950Y0154437D01*
X0875873Y0154569D01*
X0875798Y0154703D01*
X0875727Y0154839D01*
X0875660Y0154977D01*
X0875596Y0155117D01*
X0875536Y0155258D01*
X0875480Y0155400D01*
X0875427Y0155544D01*
X0875378Y0155690D01*
X0875333Y0155836D01*
X0875292Y0155984D01*
X0875255Y0156132D01*
X0875221Y0156282D01*
X0875191Y0156433D01*
X0875166Y0156584D01*
X0875144Y0156735D01*
X0875126Y0156888D01*
X0875112Y0157040D01*
X0875102Y0157193D01*
X0875096Y0157347D01*
X0875094Y0157500D01*
X0872831Y0214433D02*
X0872833Y0214580D01*
X0872839Y0214726D01*
X0872849Y0214872D01*
X0872863Y0215018D01*
X0872881Y0215164D01*
X0872902Y0215309D01*
X0872928Y0215453D01*
X0872958Y0215597D01*
X0872991Y0215739D01*
X0873028Y0215881D01*
X0873069Y0216022D01*
X0873114Y0216161D01*
X0873163Y0216300D01*
X0873215Y0216437D01*
X0873272Y0216572D01*
X0873331Y0216706D01*
X0873395Y0216838D01*
X0873462Y0216968D01*
X0873532Y0217097D01*
X0873606Y0217224D01*
X0873683Y0217348D01*
X0873764Y0217471D01*
X0873848Y0217591D01*
X0873935Y0217709D01*
X0874025Y0217824D01*
X0874118Y0217937D01*
X0874215Y0218048D01*
X0874314Y0218156D01*
X0874416Y0218261D01*
X0874521Y0218363D01*
X0874629Y0218462D01*
X0874740Y0218559D01*
X0874853Y0218652D01*
X0874968Y0218742D01*
X0875086Y0218829D01*
X0875206Y0218913D01*
X0875329Y0218994D01*
X0875453Y0219071D01*
X0875580Y0219145D01*
X0875709Y0219215D01*
X0875839Y0219282D01*
X0875971Y0219346D01*
X0876105Y0219405D01*
X0876240Y0219462D01*
X0876377Y0219514D01*
X0876516Y0219563D01*
X0876655Y0219608D01*
X0876796Y0219649D01*
X0876938Y0219686D01*
X0877080Y0219719D01*
X0877224Y0219749D01*
X0877368Y0219775D01*
X0877513Y0219796D01*
X0877659Y0219814D01*
X0877805Y0219828D01*
X0877951Y0219838D01*
X0878097Y0219844D01*
X0878244Y0219846D01*
X0878391Y0219844D01*
X0878537Y0219838D01*
X0878683Y0219828D01*
X0878829Y0219814D01*
X0878975Y0219796D01*
X0879120Y0219775D01*
X0879264Y0219749D01*
X0879408Y0219719D01*
X0879550Y0219686D01*
X0879692Y0219649D01*
X0879833Y0219608D01*
X0879972Y0219563D01*
X0880111Y0219514D01*
X0880248Y0219462D01*
X0880383Y0219405D01*
X0880517Y0219346D01*
X0880649Y0219282D01*
X0880779Y0219215D01*
X0880908Y0219145D01*
X0881035Y0219071D01*
X0881159Y0218994D01*
X0881282Y0218913D01*
X0881402Y0218829D01*
X0881520Y0218742D01*
X0881635Y0218652D01*
X0881748Y0218559D01*
X0881859Y0218462D01*
X0881967Y0218363D01*
X0882072Y0218261D01*
X0882174Y0218156D01*
X0882273Y0218048D01*
X0882370Y0217937D01*
X0882463Y0217824D01*
X0882553Y0217709D01*
X0882640Y0217591D01*
X0882724Y0217471D01*
X0882805Y0217348D01*
X0882882Y0217224D01*
X0882956Y0217097D01*
X0883026Y0216968D01*
X0883093Y0216838D01*
X0883157Y0216706D01*
X0883216Y0216572D01*
X0883273Y0216437D01*
X0883325Y0216300D01*
X0883374Y0216161D01*
X0883419Y0216022D01*
X0883460Y0215881D01*
X0883497Y0215739D01*
X0883530Y0215597D01*
X0883560Y0215453D01*
X0883586Y0215309D01*
X0883607Y0215164D01*
X0883625Y0215018D01*
X0883639Y0214872D01*
X0883649Y0214726D01*
X0883655Y0214580D01*
X0883657Y0214433D01*
X0883655Y0214286D01*
X0883649Y0214140D01*
X0883639Y0213994D01*
X0883625Y0213848D01*
X0883607Y0213702D01*
X0883586Y0213557D01*
X0883560Y0213413D01*
X0883530Y0213269D01*
X0883497Y0213127D01*
X0883460Y0212985D01*
X0883419Y0212844D01*
X0883374Y0212705D01*
X0883325Y0212566D01*
X0883273Y0212429D01*
X0883216Y0212294D01*
X0883157Y0212160D01*
X0883093Y0212028D01*
X0883026Y0211898D01*
X0882956Y0211769D01*
X0882882Y0211642D01*
X0882805Y0211518D01*
X0882724Y0211395D01*
X0882640Y0211275D01*
X0882553Y0211157D01*
X0882463Y0211042D01*
X0882370Y0210929D01*
X0882273Y0210818D01*
X0882174Y0210710D01*
X0882072Y0210605D01*
X0881967Y0210503D01*
X0881859Y0210404D01*
X0881748Y0210307D01*
X0881635Y0210214D01*
X0881520Y0210124D01*
X0881402Y0210037D01*
X0881282Y0209953D01*
X0881159Y0209872D01*
X0881035Y0209795D01*
X0880908Y0209721D01*
X0880779Y0209651D01*
X0880649Y0209584D01*
X0880517Y0209520D01*
X0880383Y0209461D01*
X0880248Y0209404D01*
X0880111Y0209352D01*
X0879972Y0209303D01*
X0879833Y0209258D01*
X0879692Y0209217D01*
X0879550Y0209180D01*
X0879408Y0209147D01*
X0879264Y0209117D01*
X0879120Y0209091D01*
X0878975Y0209070D01*
X0878829Y0209052D01*
X0878683Y0209038D01*
X0878537Y0209028D01*
X0878391Y0209022D01*
X0878244Y0209020D01*
X0878097Y0209022D01*
X0877951Y0209028D01*
X0877805Y0209038D01*
X0877659Y0209052D01*
X0877513Y0209070D01*
X0877368Y0209091D01*
X0877224Y0209117D01*
X0877080Y0209147D01*
X0876938Y0209180D01*
X0876796Y0209217D01*
X0876655Y0209258D01*
X0876516Y0209303D01*
X0876377Y0209352D01*
X0876240Y0209404D01*
X0876105Y0209461D01*
X0875971Y0209520D01*
X0875839Y0209584D01*
X0875709Y0209651D01*
X0875580Y0209721D01*
X0875453Y0209795D01*
X0875329Y0209872D01*
X0875206Y0209953D01*
X0875086Y0210037D01*
X0874968Y0210124D01*
X0874853Y0210214D01*
X0874740Y0210307D01*
X0874629Y0210404D01*
X0874521Y0210503D01*
X0874416Y0210605D01*
X0874314Y0210710D01*
X0874215Y0210818D01*
X0874118Y0210929D01*
X0874025Y0211042D01*
X0873935Y0211157D01*
X0873848Y0211275D01*
X0873764Y0211395D01*
X0873683Y0211518D01*
X0873606Y0211642D01*
X0873532Y0211769D01*
X0873462Y0211898D01*
X0873395Y0212028D01*
X0873331Y0212160D01*
X0873272Y0212294D01*
X0873215Y0212429D01*
X0873163Y0212566D01*
X0873114Y0212705D01*
X0873069Y0212844D01*
X0873028Y0212985D01*
X0872991Y0213127D01*
X0872958Y0213269D01*
X0872928Y0213413D01*
X0872902Y0213557D01*
X0872881Y0213702D01*
X0872863Y0213848D01*
X0872849Y0213994D01*
X0872839Y0214140D01*
X0872833Y0214286D01*
X0872831Y0214433D01*
X0872831Y0304984D02*
X0872833Y0305131D01*
X0872839Y0305277D01*
X0872849Y0305423D01*
X0872863Y0305569D01*
X0872881Y0305715D01*
X0872902Y0305860D01*
X0872928Y0306004D01*
X0872958Y0306148D01*
X0872991Y0306290D01*
X0873028Y0306432D01*
X0873069Y0306573D01*
X0873114Y0306712D01*
X0873163Y0306851D01*
X0873215Y0306988D01*
X0873272Y0307123D01*
X0873331Y0307257D01*
X0873395Y0307389D01*
X0873462Y0307519D01*
X0873532Y0307648D01*
X0873606Y0307775D01*
X0873683Y0307899D01*
X0873764Y0308022D01*
X0873848Y0308142D01*
X0873935Y0308260D01*
X0874025Y0308375D01*
X0874118Y0308488D01*
X0874215Y0308599D01*
X0874314Y0308707D01*
X0874416Y0308812D01*
X0874521Y0308914D01*
X0874629Y0309013D01*
X0874740Y0309110D01*
X0874853Y0309203D01*
X0874968Y0309293D01*
X0875086Y0309380D01*
X0875206Y0309464D01*
X0875329Y0309545D01*
X0875453Y0309622D01*
X0875580Y0309696D01*
X0875709Y0309766D01*
X0875839Y0309833D01*
X0875971Y0309897D01*
X0876105Y0309956D01*
X0876240Y0310013D01*
X0876377Y0310065D01*
X0876516Y0310114D01*
X0876655Y0310159D01*
X0876796Y0310200D01*
X0876938Y0310237D01*
X0877080Y0310270D01*
X0877224Y0310300D01*
X0877368Y0310326D01*
X0877513Y0310347D01*
X0877659Y0310365D01*
X0877805Y0310379D01*
X0877951Y0310389D01*
X0878097Y0310395D01*
X0878244Y0310397D01*
X0878391Y0310395D01*
X0878537Y0310389D01*
X0878683Y0310379D01*
X0878829Y0310365D01*
X0878975Y0310347D01*
X0879120Y0310326D01*
X0879264Y0310300D01*
X0879408Y0310270D01*
X0879550Y0310237D01*
X0879692Y0310200D01*
X0879833Y0310159D01*
X0879972Y0310114D01*
X0880111Y0310065D01*
X0880248Y0310013D01*
X0880383Y0309956D01*
X0880517Y0309897D01*
X0880649Y0309833D01*
X0880779Y0309766D01*
X0880908Y0309696D01*
X0881035Y0309622D01*
X0881159Y0309545D01*
X0881282Y0309464D01*
X0881402Y0309380D01*
X0881520Y0309293D01*
X0881635Y0309203D01*
X0881748Y0309110D01*
X0881859Y0309013D01*
X0881967Y0308914D01*
X0882072Y0308812D01*
X0882174Y0308707D01*
X0882273Y0308599D01*
X0882370Y0308488D01*
X0882463Y0308375D01*
X0882553Y0308260D01*
X0882640Y0308142D01*
X0882724Y0308022D01*
X0882805Y0307899D01*
X0882882Y0307775D01*
X0882956Y0307648D01*
X0883026Y0307519D01*
X0883093Y0307389D01*
X0883157Y0307257D01*
X0883216Y0307123D01*
X0883273Y0306988D01*
X0883325Y0306851D01*
X0883374Y0306712D01*
X0883419Y0306573D01*
X0883460Y0306432D01*
X0883497Y0306290D01*
X0883530Y0306148D01*
X0883560Y0306004D01*
X0883586Y0305860D01*
X0883607Y0305715D01*
X0883625Y0305569D01*
X0883639Y0305423D01*
X0883649Y0305277D01*
X0883655Y0305131D01*
X0883657Y0304984D01*
X0883655Y0304837D01*
X0883649Y0304691D01*
X0883639Y0304545D01*
X0883625Y0304399D01*
X0883607Y0304253D01*
X0883586Y0304108D01*
X0883560Y0303964D01*
X0883530Y0303820D01*
X0883497Y0303678D01*
X0883460Y0303536D01*
X0883419Y0303395D01*
X0883374Y0303256D01*
X0883325Y0303117D01*
X0883273Y0302980D01*
X0883216Y0302845D01*
X0883157Y0302711D01*
X0883093Y0302579D01*
X0883026Y0302449D01*
X0882956Y0302320D01*
X0882882Y0302193D01*
X0882805Y0302069D01*
X0882724Y0301946D01*
X0882640Y0301826D01*
X0882553Y0301708D01*
X0882463Y0301593D01*
X0882370Y0301480D01*
X0882273Y0301369D01*
X0882174Y0301261D01*
X0882072Y0301156D01*
X0881967Y0301054D01*
X0881859Y0300955D01*
X0881748Y0300858D01*
X0881635Y0300765D01*
X0881520Y0300675D01*
X0881402Y0300588D01*
X0881282Y0300504D01*
X0881159Y0300423D01*
X0881035Y0300346D01*
X0880908Y0300272D01*
X0880779Y0300202D01*
X0880649Y0300135D01*
X0880517Y0300071D01*
X0880383Y0300012D01*
X0880248Y0299955D01*
X0880111Y0299903D01*
X0879972Y0299854D01*
X0879833Y0299809D01*
X0879692Y0299768D01*
X0879550Y0299731D01*
X0879408Y0299698D01*
X0879264Y0299668D01*
X0879120Y0299642D01*
X0878975Y0299621D01*
X0878829Y0299603D01*
X0878683Y0299589D01*
X0878537Y0299579D01*
X0878391Y0299573D01*
X0878244Y0299571D01*
X0878097Y0299573D01*
X0877951Y0299579D01*
X0877805Y0299589D01*
X0877659Y0299603D01*
X0877513Y0299621D01*
X0877368Y0299642D01*
X0877224Y0299668D01*
X0877080Y0299698D01*
X0876938Y0299731D01*
X0876796Y0299768D01*
X0876655Y0299809D01*
X0876516Y0299854D01*
X0876377Y0299903D01*
X0876240Y0299955D01*
X0876105Y0300012D01*
X0875971Y0300071D01*
X0875839Y0300135D01*
X0875709Y0300202D01*
X0875580Y0300272D01*
X0875453Y0300346D01*
X0875329Y0300423D01*
X0875206Y0300504D01*
X0875086Y0300588D01*
X0874968Y0300675D01*
X0874853Y0300765D01*
X0874740Y0300858D01*
X0874629Y0300955D01*
X0874521Y0301054D01*
X0874416Y0301156D01*
X0874314Y0301261D01*
X0874215Y0301369D01*
X0874118Y0301480D01*
X0874025Y0301593D01*
X0873935Y0301708D01*
X0873848Y0301826D01*
X0873764Y0301946D01*
X0873683Y0302069D01*
X0873606Y0302193D01*
X0873532Y0302320D01*
X0873462Y0302449D01*
X0873395Y0302579D01*
X0873331Y0302711D01*
X0873272Y0302845D01*
X0873215Y0302980D01*
X0873163Y0303117D01*
X0873114Y0303256D01*
X0873069Y0303395D01*
X0873028Y0303536D01*
X0872991Y0303678D01*
X0872958Y0303820D01*
X0872928Y0303964D01*
X0872902Y0304108D01*
X0872881Y0304253D01*
X0872863Y0304399D01*
X0872849Y0304545D01*
X0872839Y0304691D01*
X0872833Y0304837D01*
X0872831Y0304984D01*
X0644485Y0304984D02*
X0644487Y0305131D01*
X0644493Y0305277D01*
X0644503Y0305423D01*
X0644517Y0305569D01*
X0644535Y0305715D01*
X0644556Y0305860D01*
X0644582Y0306004D01*
X0644612Y0306148D01*
X0644645Y0306290D01*
X0644682Y0306432D01*
X0644723Y0306573D01*
X0644768Y0306712D01*
X0644817Y0306851D01*
X0644869Y0306988D01*
X0644926Y0307123D01*
X0644985Y0307257D01*
X0645049Y0307389D01*
X0645116Y0307519D01*
X0645186Y0307648D01*
X0645260Y0307775D01*
X0645337Y0307899D01*
X0645418Y0308022D01*
X0645502Y0308142D01*
X0645589Y0308260D01*
X0645679Y0308375D01*
X0645772Y0308488D01*
X0645869Y0308599D01*
X0645968Y0308707D01*
X0646070Y0308812D01*
X0646175Y0308914D01*
X0646283Y0309013D01*
X0646394Y0309110D01*
X0646507Y0309203D01*
X0646622Y0309293D01*
X0646740Y0309380D01*
X0646860Y0309464D01*
X0646983Y0309545D01*
X0647107Y0309622D01*
X0647234Y0309696D01*
X0647363Y0309766D01*
X0647493Y0309833D01*
X0647625Y0309897D01*
X0647759Y0309956D01*
X0647894Y0310013D01*
X0648031Y0310065D01*
X0648170Y0310114D01*
X0648309Y0310159D01*
X0648450Y0310200D01*
X0648592Y0310237D01*
X0648734Y0310270D01*
X0648878Y0310300D01*
X0649022Y0310326D01*
X0649167Y0310347D01*
X0649313Y0310365D01*
X0649459Y0310379D01*
X0649605Y0310389D01*
X0649751Y0310395D01*
X0649898Y0310397D01*
X0650045Y0310395D01*
X0650191Y0310389D01*
X0650337Y0310379D01*
X0650483Y0310365D01*
X0650629Y0310347D01*
X0650774Y0310326D01*
X0650918Y0310300D01*
X0651062Y0310270D01*
X0651204Y0310237D01*
X0651346Y0310200D01*
X0651487Y0310159D01*
X0651626Y0310114D01*
X0651765Y0310065D01*
X0651902Y0310013D01*
X0652037Y0309956D01*
X0652171Y0309897D01*
X0652303Y0309833D01*
X0652433Y0309766D01*
X0652562Y0309696D01*
X0652689Y0309622D01*
X0652813Y0309545D01*
X0652936Y0309464D01*
X0653056Y0309380D01*
X0653174Y0309293D01*
X0653289Y0309203D01*
X0653402Y0309110D01*
X0653513Y0309013D01*
X0653621Y0308914D01*
X0653726Y0308812D01*
X0653828Y0308707D01*
X0653927Y0308599D01*
X0654024Y0308488D01*
X0654117Y0308375D01*
X0654207Y0308260D01*
X0654294Y0308142D01*
X0654378Y0308022D01*
X0654459Y0307899D01*
X0654536Y0307775D01*
X0654610Y0307648D01*
X0654680Y0307519D01*
X0654747Y0307389D01*
X0654811Y0307257D01*
X0654870Y0307123D01*
X0654927Y0306988D01*
X0654979Y0306851D01*
X0655028Y0306712D01*
X0655073Y0306573D01*
X0655114Y0306432D01*
X0655151Y0306290D01*
X0655184Y0306148D01*
X0655214Y0306004D01*
X0655240Y0305860D01*
X0655261Y0305715D01*
X0655279Y0305569D01*
X0655293Y0305423D01*
X0655303Y0305277D01*
X0655309Y0305131D01*
X0655311Y0304984D01*
X0655309Y0304837D01*
X0655303Y0304691D01*
X0655293Y0304545D01*
X0655279Y0304399D01*
X0655261Y0304253D01*
X0655240Y0304108D01*
X0655214Y0303964D01*
X0655184Y0303820D01*
X0655151Y0303678D01*
X0655114Y0303536D01*
X0655073Y0303395D01*
X0655028Y0303256D01*
X0654979Y0303117D01*
X0654927Y0302980D01*
X0654870Y0302845D01*
X0654811Y0302711D01*
X0654747Y0302579D01*
X0654680Y0302449D01*
X0654610Y0302320D01*
X0654536Y0302193D01*
X0654459Y0302069D01*
X0654378Y0301946D01*
X0654294Y0301826D01*
X0654207Y0301708D01*
X0654117Y0301593D01*
X0654024Y0301480D01*
X0653927Y0301369D01*
X0653828Y0301261D01*
X0653726Y0301156D01*
X0653621Y0301054D01*
X0653513Y0300955D01*
X0653402Y0300858D01*
X0653289Y0300765D01*
X0653174Y0300675D01*
X0653056Y0300588D01*
X0652936Y0300504D01*
X0652813Y0300423D01*
X0652689Y0300346D01*
X0652562Y0300272D01*
X0652433Y0300202D01*
X0652303Y0300135D01*
X0652171Y0300071D01*
X0652037Y0300012D01*
X0651902Y0299955D01*
X0651765Y0299903D01*
X0651626Y0299854D01*
X0651487Y0299809D01*
X0651346Y0299768D01*
X0651204Y0299731D01*
X0651062Y0299698D01*
X0650918Y0299668D01*
X0650774Y0299642D01*
X0650629Y0299621D01*
X0650483Y0299603D01*
X0650337Y0299589D01*
X0650191Y0299579D01*
X0650045Y0299573D01*
X0649898Y0299571D01*
X0649751Y0299573D01*
X0649605Y0299579D01*
X0649459Y0299589D01*
X0649313Y0299603D01*
X0649167Y0299621D01*
X0649022Y0299642D01*
X0648878Y0299668D01*
X0648734Y0299698D01*
X0648592Y0299731D01*
X0648450Y0299768D01*
X0648309Y0299809D01*
X0648170Y0299854D01*
X0648031Y0299903D01*
X0647894Y0299955D01*
X0647759Y0300012D01*
X0647625Y0300071D01*
X0647493Y0300135D01*
X0647363Y0300202D01*
X0647234Y0300272D01*
X0647107Y0300346D01*
X0646983Y0300423D01*
X0646860Y0300504D01*
X0646740Y0300588D01*
X0646622Y0300675D01*
X0646507Y0300765D01*
X0646394Y0300858D01*
X0646283Y0300955D01*
X0646175Y0301054D01*
X0646070Y0301156D01*
X0645968Y0301261D01*
X0645869Y0301369D01*
X0645772Y0301480D01*
X0645679Y0301593D01*
X0645589Y0301708D01*
X0645502Y0301826D01*
X0645418Y0301946D01*
X0645337Y0302069D01*
X0645260Y0302193D01*
X0645186Y0302320D01*
X0645116Y0302449D01*
X0645049Y0302579D01*
X0644985Y0302711D01*
X0644926Y0302845D01*
X0644869Y0302980D01*
X0644817Y0303117D01*
X0644768Y0303256D01*
X0644723Y0303395D01*
X0644682Y0303536D01*
X0644645Y0303678D01*
X0644612Y0303820D01*
X0644582Y0303964D01*
X0644556Y0304108D01*
X0644535Y0304253D01*
X0644517Y0304399D01*
X0644503Y0304545D01*
X0644493Y0304691D01*
X0644487Y0304837D01*
X0644485Y0304984D01*
X0644485Y0214433D02*
X0644487Y0214580D01*
X0644493Y0214726D01*
X0644503Y0214872D01*
X0644517Y0215018D01*
X0644535Y0215164D01*
X0644556Y0215309D01*
X0644582Y0215453D01*
X0644612Y0215597D01*
X0644645Y0215739D01*
X0644682Y0215881D01*
X0644723Y0216022D01*
X0644768Y0216161D01*
X0644817Y0216300D01*
X0644869Y0216437D01*
X0644926Y0216572D01*
X0644985Y0216706D01*
X0645049Y0216838D01*
X0645116Y0216968D01*
X0645186Y0217097D01*
X0645260Y0217224D01*
X0645337Y0217348D01*
X0645418Y0217471D01*
X0645502Y0217591D01*
X0645589Y0217709D01*
X0645679Y0217824D01*
X0645772Y0217937D01*
X0645869Y0218048D01*
X0645968Y0218156D01*
X0646070Y0218261D01*
X0646175Y0218363D01*
X0646283Y0218462D01*
X0646394Y0218559D01*
X0646507Y0218652D01*
X0646622Y0218742D01*
X0646740Y0218829D01*
X0646860Y0218913D01*
X0646983Y0218994D01*
X0647107Y0219071D01*
X0647234Y0219145D01*
X0647363Y0219215D01*
X0647493Y0219282D01*
X0647625Y0219346D01*
X0647759Y0219405D01*
X0647894Y0219462D01*
X0648031Y0219514D01*
X0648170Y0219563D01*
X0648309Y0219608D01*
X0648450Y0219649D01*
X0648592Y0219686D01*
X0648734Y0219719D01*
X0648878Y0219749D01*
X0649022Y0219775D01*
X0649167Y0219796D01*
X0649313Y0219814D01*
X0649459Y0219828D01*
X0649605Y0219838D01*
X0649751Y0219844D01*
X0649898Y0219846D01*
X0650045Y0219844D01*
X0650191Y0219838D01*
X0650337Y0219828D01*
X0650483Y0219814D01*
X0650629Y0219796D01*
X0650774Y0219775D01*
X0650918Y0219749D01*
X0651062Y0219719D01*
X0651204Y0219686D01*
X0651346Y0219649D01*
X0651487Y0219608D01*
X0651626Y0219563D01*
X0651765Y0219514D01*
X0651902Y0219462D01*
X0652037Y0219405D01*
X0652171Y0219346D01*
X0652303Y0219282D01*
X0652433Y0219215D01*
X0652562Y0219145D01*
X0652689Y0219071D01*
X0652813Y0218994D01*
X0652936Y0218913D01*
X0653056Y0218829D01*
X0653174Y0218742D01*
X0653289Y0218652D01*
X0653402Y0218559D01*
X0653513Y0218462D01*
X0653621Y0218363D01*
X0653726Y0218261D01*
X0653828Y0218156D01*
X0653927Y0218048D01*
X0654024Y0217937D01*
X0654117Y0217824D01*
X0654207Y0217709D01*
X0654294Y0217591D01*
X0654378Y0217471D01*
X0654459Y0217348D01*
X0654536Y0217224D01*
X0654610Y0217097D01*
X0654680Y0216968D01*
X0654747Y0216838D01*
X0654811Y0216706D01*
X0654870Y0216572D01*
X0654927Y0216437D01*
X0654979Y0216300D01*
X0655028Y0216161D01*
X0655073Y0216022D01*
X0655114Y0215881D01*
X0655151Y0215739D01*
X0655184Y0215597D01*
X0655214Y0215453D01*
X0655240Y0215309D01*
X0655261Y0215164D01*
X0655279Y0215018D01*
X0655293Y0214872D01*
X0655303Y0214726D01*
X0655309Y0214580D01*
X0655311Y0214433D01*
X0655309Y0214286D01*
X0655303Y0214140D01*
X0655293Y0213994D01*
X0655279Y0213848D01*
X0655261Y0213702D01*
X0655240Y0213557D01*
X0655214Y0213413D01*
X0655184Y0213269D01*
X0655151Y0213127D01*
X0655114Y0212985D01*
X0655073Y0212844D01*
X0655028Y0212705D01*
X0654979Y0212566D01*
X0654927Y0212429D01*
X0654870Y0212294D01*
X0654811Y0212160D01*
X0654747Y0212028D01*
X0654680Y0211898D01*
X0654610Y0211769D01*
X0654536Y0211642D01*
X0654459Y0211518D01*
X0654378Y0211395D01*
X0654294Y0211275D01*
X0654207Y0211157D01*
X0654117Y0211042D01*
X0654024Y0210929D01*
X0653927Y0210818D01*
X0653828Y0210710D01*
X0653726Y0210605D01*
X0653621Y0210503D01*
X0653513Y0210404D01*
X0653402Y0210307D01*
X0653289Y0210214D01*
X0653174Y0210124D01*
X0653056Y0210037D01*
X0652936Y0209953D01*
X0652813Y0209872D01*
X0652689Y0209795D01*
X0652562Y0209721D01*
X0652433Y0209651D01*
X0652303Y0209584D01*
X0652171Y0209520D01*
X0652037Y0209461D01*
X0651902Y0209404D01*
X0651765Y0209352D01*
X0651626Y0209303D01*
X0651487Y0209258D01*
X0651346Y0209217D01*
X0651204Y0209180D01*
X0651062Y0209147D01*
X0650918Y0209117D01*
X0650774Y0209091D01*
X0650629Y0209070D01*
X0650483Y0209052D01*
X0650337Y0209038D01*
X0650191Y0209028D01*
X0650045Y0209022D01*
X0649898Y0209020D01*
X0649751Y0209022D01*
X0649605Y0209028D01*
X0649459Y0209038D01*
X0649313Y0209052D01*
X0649167Y0209070D01*
X0649022Y0209091D01*
X0648878Y0209117D01*
X0648734Y0209147D01*
X0648592Y0209180D01*
X0648450Y0209217D01*
X0648309Y0209258D01*
X0648170Y0209303D01*
X0648031Y0209352D01*
X0647894Y0209404D01*
X0647759Y0209461D01*
X0647625Y0209520D01*
X0647493Y0209584D01*
X0647363Y0209651D01*
X0647234Y0209721D01*
X0647107Y0209795D01*
X0646983Y0209872D01*
X0646860Y0209953D01*
X0646740Y0210037D01*
X0646622Y0210124D01*
X0646507Y0210214D01*
X0646394Y0210307D01*
X0646283Y0210404D01*
X0646175Y0210503D01*
X0646070Y0210605D01*
X0645968Y0210710D01*
X0645869Y0210818D01*
X0645772Y0210929D01*
X0645679Y0211042D01*
X0645589Y0211157D01*
X0645502Y0211275D01*
X0645418Y0211395D01*
X0645337Y0211518D01*
X0645260Y0211642D01*
X0645186Y0211769D01*
X0645116Y0211898D01*
X0645049Y0212028D01*
X0644985Y0212160D01*
X0644926Y0212294D01*
X0644869Y0212429D01*
X0644817Y0212566D01*
X0644768Y0212705D01*
X0644723Y0212844D01*
X0644682Y0212985D01*
X0644645Y0213127D01*
X0644612Y0213269D01*
X0644582Y0213413D01*
X0644556Y0213557D01*
X0644535Y0213702D01*
X0644517Y0213848D01*
X0644503Y0213994D01*
X0644493Y0214140D01*
X0644487Y0214286D01*
X0644485Y0214433D01*
X0644485Y0407346D02*
X0644487Y0407493D01*
X0644493Y0407639D01*
X0644503Y0407785D01*
X0644517Y0407931D01*
X0644535Y0408077D01*
X0644556Y0408222D01*
X0644582Y0408366D01*
X0644612Y0408510D01*
X0644645Y0408652D01*
X0644682Y0408794D01*
X0644723Y0408935D01*
X0644768Y0409074D01*
X0644817Y0409213D01*
X0644869Y0409350D01*
X0644926Y0409485D01*
X0644985Y0409619D01*
X0645049Y0409751D01*
X0645116Y0409881D01*
X0645186Y0410010D01*
X0645260Y0410137D01*
X0645337Y0410261D01*
X0645418Y0410384D01*
X0645502Y0410504D01*
X0645589Y0410622D01*
X0645679Y0410737D01*
X0645772Y0410850D01*
X0645869Y0410961D01*
X0645968Y0411069D01*
X0646070Y0411174D01*
X0646175Y0411276D01*
X0646283Y0411375D01*
X0646394Y0411472D01*
X0646507Y0411565D01*
X0646622Y0411655D01*
X0646740Y0411742D01*
X0646860Y0411826D01*
X0646983Y0411907D01*
X0647107Y0411984D01*
X0647234Y0412058D01*
X0647363Y0412128D01*
X0647493Y0412195D01*
X0647625Y0412259D01*
X0647759Y0412318D01*
X0647894Y0412375D01*
X0648031Y0412427D01*
X0648170Y0412476D01*
X0648309Y0412521D01*
X0648450Y0412562D01*
X0648592Y0412599D01*
X0648734Y0412632D01*
X0648878Y0412662D01*
X0649022Y0412688D01*
X0649167Y0412709D01*
X0649313Y0412727D01*
X0649459Y0412741D01*
X0649605Y0412751D01*
X0649751Y0412757D01*
X0649898Y0412759D01*
X0650045Y0412757D01*
X0650191Y0412751D01*
X0650337Y0412741D01*
X0650483Y0412727D01*
X0650629Y0412709D01*
X0650774Y0412688D01*
X0650918Y0412662D01*
X0651062Y0412632D01*
X0651204Y0412599D01*
X0651346Y0412562D01*
X0651487Y0412521D01*
X0651626Y0412476D01*
X0651765Y0412427D01*
X0651902Y0412375D01*
X0652037Y0412318D01*
X0652171Y0412259D01*
X0652303Y0412195D01*
X0652433Y0412128D01*
X0652562Y0412058D01*
X0652689Y0411984D01*
X0652813Y0411907D01*
X0652936Y0411826D01*
X0653056Y0411742D01*
X0653174Y0411655D01*
X0653289Y0411565D01*
X0653402Y0411472D01*
X0653513Y0411375D01*
X0653621Y0411276D01*
X0653726Y0411174D01*
X0653828Y0411069D01*
X0653927Y0410961D01*
X0654024Y0410850D01*
X0654117Y0410737D01*
X0654207Y0410622D01*
X0654294Y0410504D01*
X0654378Y0410384D01*
X0654459Y0410261D01*
X0654536Y0410137D01*
X0654610Y0410010D01*
X0654680Y0409881D01*
X0654747Y0409751D01*
X0654811Y0409619D01*
X0654870Y0409485D01*
X0654927Y0409350D01*
X0654979Y0409213D01*
X0655028Y0409074D01*
X0655073Y0408935D01*
X0655114Y0408794D01*
X0655151Y0408652D01*
X0655184Y0408510D01*
X0655214Y0408366D01*
X0655240Y0408222D01*
X0655261Y0408077D01*
X0655279Y0407931D01*
X0655293Y0407785D01*
X0655303Y0407639D01*
X0655309Y0407493D01*
X0655311Y0407346D01*
X0655309Y0407199D01*
X0655303Y0407053D01*
X0655293Y0406907D01*
X0655279Y0406761D01*
X0655261Y0406615D01*
X0655240Y0406470D01*
X0655214Y0406326D01*
X0655184Y0406182D01*
X0655151Y0406040D01*
X0655114Y0405898D01*
X0655073Y0405757D01*
X0655028Y0405618D01*
X0654979Y0405479D01*
X0654927Y0405342D01*
X0654870Y0405207D01*
X0654811Y0405073D01*
X0654747Y0404941D01*
X0654680Y0404811D01*
X0654610Y0404682D01*
X0654536Y0404555D01*
X0654459Y0404431D01*
X0654378Y0404308D01*
X0654294Y0404188D01*
X0654207Y0404070D01*
X0654117Y0403955D01*
X0654024Y0403842D01*
X0653927Y0403731D01*
X0653828Y0403623D01*
X0653726Y0403518D01*
X0653621Y0403416D01*
X0653513Y0403317D01*
X0653402Y0403220D01*
X0653289Y0403127D01*
X0653174Y0403037D01*
X0653056Y0402950D01*
X0652936Y0402866D01*
X0652813Y0402785D01*
X0652689Y0402708D01*
X0652562Y0402634D01*
X0652433Y0402564D01*
X0652303Y0402497D01*
X0652171Y0402433D01*
X0652037Y0402374D01*
X0651902Y0402317D01*
X0651765Y0402265D01*
X0651626Y0402216D01*
X0651487Y0402171D01*
X0651346Y0402130D01*
X0651204Y0402093D01*
X0651062Y0402060D01*
X0650918Y0402030D01*
X0650774Y0402004D01*
X0650629Y0401983D01*
X0650483Y0401965D01*
X0650337Y0401951D01*
X0650191Y0401941D01*
X0650045Y0401935D01*
X0649898Y0401933D01*
X0649751Y0401935D01*
X0649605Y0401941D01*
X0649459Y0401951D01*
X0649313Y0401965D01*
X0649167Y0401983D01*
X0649022Y0402004D01*
X0648878Y0402030D01*
X0648734Y0402060D01*
X0648592Y0402093D01*
X0648450Y0402130D01*
X0648309Y0402171D01*
X0648170Y0402216D01*
X0648031Y0402265D01*
X0647894Y0402317D01*
X0647759Y0402374D01*
X0647625Y0402433D01*
X0647493Y0402497D01*
X0647363Y0402564D01*
X0647234Y0402634D01*
X0647107Y0402708D01*
X0646983Y0402785D01*
X0646860Y0402866D01*
X0646740Y0402950D01*
X0646622Y0403037D01*
X0646507Y0403127D01*
X0646394Y0403220D01*
X0646283Y0403317D01*
X0646175Y0403416D01*
X0646070Y0403518D01*
X0645968Y0403623D01*
X0645869Y0403731D01*
X0645772Y0403842D01*
X0645679Y0403955D01*
X0645589Y0404070D01*
X0645502Y0404188D01*
X0645418Y0404308D01*
X0645337Y0404431D01*
X0645260Y0404555D01*
X0645186Y0404682D01*
X0645116Y0404811D01*
X0645049Y0404941D01*
X0644985Y0405073D01*
X0644926Y0405207D01*
X0644869Y0405342D01*
X0644817Y0405479D01*
X0644768Y0405618D01*
X0644723Y0405757D01*
X0644682Y0405898D01*
X0644645Y0406040D01*
X0644612Y0406182D01*
X0644582Y0406326D01*
X0644556Y0406470D01*
X0644535Y0406615D01*
X0644517Y0406761D01*
X0644503Y0406907D01*
X0644493Y0407053D01*
X0644487Y0407199D01*
X0644485Y0407346D01*
X0582400Y0419500D02*
X0582402Y0419580D01*
X0582408Y0419659D01*
X0582418Y0419738D01*
X0582432Y0419817D01*
X0582449Y0419895D01*
X0582471Y0419972D01*
X0582496Y0420047D01*
X0582526Y0420121D01*
X0582558Y0420194D01*
X0582595Y0420265D01*
X0582635Y0420334D01*
X0582678Y0420401D01*
X0582725Y0420466D01*
X0582774Y0420528D01*
X0582827Y0420588D01*
X0582883Y0420645D01*
X0582941Y0420700D01*
X0583002Y0420751D01*
X0583066Y0420799D01*
X0583132Y0420844D01*
X0583200Y0420886D01*
X0583270Y0420924D01*
X0583342Y0420958D01*
X0583415Y0420989D01*
X0583490Y0421017D01*
X0583567Y0421040D01*
X0583644Y0421060D01*
X0583722Y0421076D01*
X0583801Y0421088D01*
X0583880Y0421096D01*
X0583960Y0421100D01*
X0584040Y0421100D01*
X0584120Y0421096D01*
X0584199Y0421088D01*
X0584278Y0421076D01*
X0584356Y0421060D01*
X0584433Y0421040D01*
X0584510Y0421017D01*
X0584585Y0420989D01*
X0584658Y0420958D01*
X0584730Y0420924D01*
X0584800Y0420886D01*
X0584868Y0420844D01*
X0584934Y0420799D01*
X0584998Y0420751D01*
X0585059Y0420700D01*
X0585117Y0420645D01*
X0585173Y0420588D01*
X0585226Y0420528D01*
X0585275Y0420466D01*
X0585322Y0420401D01*
X0585365Y0420334D01*
X0585405Y0420265D01*
X0585442Y0420194D01*
X0585474Y0420121D01*
X0585504Y0420047D01*
X0585529Y0419972D01*
X0585551Y0419895D01*
X0585568Y0419817D01*
X0585582Y0419738D01*
X0585592Y0419659D01*
X0585598Y0419580D01*
X0585600Y0419500D01*
X0585598Y0419420D01*
X0585592Y0419341D01*
X0585582Y0419262D01*
X0585568Y0419183D01*
X0585551Y0419105D01*
X0585529Y0419028D01*
X0585504Y0418953D01*
X0585474Y0418879D01*
X0585442Y0418806D01*
X0585405Y0418735D01*
X0585365Y0418666D01*
X0585322Y0418599D01*
X0585275Y0418534D01*
X0585226Y0418472D01*
X0585173Y0418412D01*
X0585117Y0418355D01*
X0585059Y0418300D01*
X0584998Y0418249D01*
X0584934Y0418201D01*
X0584868Y0418156D01*
X0584800Y0418114D01*
X0584730Y0418076D01*
X0584658Y0418042D01*
X0584585Y0418011D01*
X0584510Y0417983D01*
X0584433Y0417960D01*
X0584356Y0417940D01*
X0584278Y0417924D01*
X0584199Y0417912D01*
X0584120Y0417904D01*
X0584040Y0417900D01*
X0583960Y0417900D01*
X0583880Y0417904D01*
X0583801Y0417912D01*
X0583722Y0417924D01*
X0583644Y0417940D01*
X0583567Y0417960D01*
X0583490Y0417983D01*
X0583415Y0418011D01*
X0583342Y0418042D01*
X0583270Y0418076D01*
X0583200Y0418114D01*
X0583132Y0418156D01*
X0583066Y0418201D01*
X0583002Y0418249D01*
X0582941Y0418300D01*
X0582883Y0418355D01*
X0582827Y0418412D01*
X0582774Y0418472D01*
X0582725Y0418534D01*
X0582678Y0418599D01*
X0582635Y0418666D01*
X0582595Y0418735D01*
X0582558Y0418806D01*
X0582526Y0418879D01*
X0582496Y0418953D01*
X0582471Y0419028D01*
X0582449Y0419105D01*
X0582432Y0419183D01*
X0582418Y0419262D01*
X0582408Y0419341D01*
X0582402Y0419420D01*
X0582400Y0419500D01*
X0570400Y0419500D02*
X0570402Y0419580D01*
X0570408Y0419659D01*
X0570418Y0419738D01*
X0570432Y0419817D01*
X0570449Y0419895D01*
X0570471Y0419972D01*
X0570496Y0420047D01*
X0570526Y0420121D01*
X0570558Y0420194D01*
X0570595Y0420265D01*
X0570635Y0420334D01*
X0570678Y0420401D01*
X0570725Y0420466D01*
X0570774Y0420528D01*
X0570827Y0420588D01*
X0570883Y0420645D01*
X0570941Y0420700D01*
X0571002Y0420751D01*
X0571066Y0420799D01*
X0571132Y0420844D01*
X0571200Y0420886D01*
X0571270Y0420924D01*
X0571342Y0420958D01*
X0571415Y0420989D01*
X0571490Y0421017D01*
X0571567Y0421040D01*
X0571644Y0421060D01*
X0571722Y0421076D01*
X0571801Y0421088D01*
X0571880Y0421096D01*
X0571960Y0421100D01*
X0572040Y0421100D01*
X0572120Y0421096D01*
X0572199Y0421088D01*
X0572278Y0421076D01*
X0572356Y0421060D01*
X0572433Y0421040D01*
X0572510Y0421017D01*
X0572585Y0420989D01*
X0572658Y0420958D01*
X0572730Y0420924D01*
X0572800Y0420886D01*
X0572868Y0420844D01*
X0572934Y0420799D01*
X0572998Y0420751D01*
X0573059Y0420700D01*
X0573117Y0420645D01*
X0573173Y0420588D01*
X0573226Y0420528D01*
X0573275Y0420466D01*
X0573322Y0420401D01*
X0573365Y0420334D01*
X0573405Y0420265D01*
X0573442Y0420194D01*
X0573474Y0420121D01*
X0573504Y0420047D01*
X0573529Y0419972D01*
X0573551Y0419895D01*
X0573568Y0419817D01*
X0573582Y0419738D01*
X0573592Y0419659D01*
X0573598Y0419580D01*
X0573600Y0419500D01*
X0573598Y0419420D01*
X0573592Y0419341D01*
X0573582Y0419262D01*
X0573568Y0419183D01*
X0573551Y0419105D01*
X0573529Y0419028D01*
X0573504Y0418953D01*
X0573474Y0418879D01*
X0573442Y0418806D01*
X0573405Y0418735D01*
X0573365Y0418666D01*
X0573322Y0418599D01*
X0573275Y0418534D01*
X0573226Y0418472D01*
X0573173Y0418412D01*
X0573117Y0418355D01*
X0573059Y0418300D01*
X0572998Y0418249D01*
X0572934Y0418201D01*
X0572868Y0418156D01*
X0572800Y0418114D01*
X0572730Y0418076D01*
X0572658Y0418042D01*
X0572585Y0418011D01*
X0572510Y0417983D01*
X0572433Y0417960D01*
X0572356Y0417940D01*
X0572278Y0417924D01*
X0572199Y0417912D01*
X0572120Y0417904D01*
X0572040Y0417900D01*
X0571960Y0417900D01*
X0571880Y0417904D01*
X0571801Y0417912D01*
X0571722Y0417924D01*
X0571644Y0417940D01*
X0571567Y0417960D01*
X0571490Y0417983D01*
X0571415Y0418011D01*
X0571342Y0418042D01*
X0571270Y0418076D01*
X0571200Y0418114D01*
X0571132Y0418156D01*
X0571066Y0418201D01*
X0571002Y0418249D01*
X0570941Y0418300D01*
X0570883Y0418355D01*
X0570827Y0418412D01*
X0570774Y0418472D01*
X0570725Y0418534D01*
X0570678Y0418599D01*
X0570635Y0418666D01*
X0570595Y0418735D01*
X0570558Y0418806D01*
X0570526Y0418879D01*
X0570496Y0418953D01*
X0570471Y0419028D01*
X0570449Y0419105D01*
X0570432Y0419183D01*
X0570418Y0419262D01*
X0570408Y0419341D01*
X0570402Y0419420D01*
X0570400Y0419500D01*
X0498055Y0407201D02*
X0498057Y0407354D01*
X0498063Y0407508D01*
X0498073Y0407661D01*
X0498087Y0407813D01*
X0498105Y0407966D01*
X0498127Y0408117D01*
X0498152Y0408268D01*
X0498182Y0408419D01*
X0498216Y0408569D01*
X0498253Y0408717D01*
X0498294Y0408865D01*
X0498339Y0409011D01*
X0498388Y0409157D01*
X0498441Y0409301D01*
X0498497Y0409443D01*
X0498557Y0409584D01*
X0498621Y0409724D01*
X0498688Y0409862D01*
X0498759Y0409998D01*
X0498834Y0410132D01*
X0498911Y0410264D01*
X0498993Y0410394D01*
X0499077Y0410522D01*
X0499165Y0410648D01*
X0499256Y0410771D01*
X0499350Y0410892D01*
X0499448Y0411010D01*
X0499548Y0411126D01*
X0499652Y0411239D01*
X0499758Y0411350D01*
X0499867Y0411458D01*
X0499979Y0411563D01*
X0500093Y0411664D01*
X0500211Y0411763D01*
X0500330Y0411859D01*
X0500452Y0411952D01*
X0500577Y0412041D01*
X0500704Y0412128D01*
X0500833Y0412210D01*
X0500964Y0412290D01*
X0501097Y0412366D01*
X0501232Y0412439D01*
X0501369Y0412508D01*
X0501508Y0412573D01*
X0501648Y0412635D01*
X0501790Y0412693D01*
X0501933Y0412748D01*
X0502078Y0412799D01*
X0502224Y0412846D01*
X0502371Y0412889D01*
X0502519Y0412928D01*
X0502668Y0412964D01*
X0502818Y0412995D01*
X0502969Y0413023D01*
X0503120Y0413047D01*
X0503273Y0413067D01*
X0503425Y0413083D01*
X0503578Y0413095D01*
X0503731Y0413103D01*
X0503884Y0413107D01*
X0504038Y0413107D01*
X0504191Y0413103D01*
X0504344Y0413095D01*
X0504497Y0413083D01*
X0504649Y0413067D01*
X0504802Y0413047D01*
X0504953Y0413023D01*
X0505104Y0412995D01*
X0505254Y0412964D01*
X0505403Y0412928D01*
X0505551Y0412889D01*
X0505698Y0412846D01*
X0505844Y0412799D01*
X0505989Y0412748D01*
X0506132Y0412693D01*
X0506274Y0412635D01*
X0506414Y0412573D01*
X0506553Y0412508D01*
X0506690Y0412439D01*
X0506825Y0412366D01*
X0506958Y0412290D01*
X0507089Y0412210D01*
X0507218Y0412128D01*
X0507345Y0412041D01*
X0507470Y0411952D01*
X0507592Y0411859D01*
X0507711Y0411763D01*
X0507829Y0411664D01*
X0507943Y0411563D01*
X0508055Y0411458D01*
X0508164Y0411350D01*
X0508270Y0411239D01*
X0508374Y0411126D01*
X0508474Y0411010D01*
X0508572Y0410892D01*
X0508666Y0410771D01*
X0508757Y0410648D01*
X0508845Y0410522D01*
X0508929Y0410394D01*
X0509011Y0410264D01*
X0509088Y0410132D01*
X0509163Y0409998D01*
X0509234Y0409862D01*
X0509301Y0409724D01*
X0509365Y0409584D01*
X0509425Y0409443D01*
X0509481Y0409301D01*
X0509534Y0409157D01*
X0509583Y0409011D01*
X0509628Y0408865D01*
X0509669Y0408717D01*
X0509706Y0408569D01*
X0509740Y0408419D01*
X0509770Y0408268D01*
X0509795Y0408117D01*
X0509817Y0407966D01*
X0509835Y0407813D01*
X0509849Y0407661D01*
X0509859Y0407508D01*
X0509865Y0407354D01*
X0509867Y0407201D01*
X0509865Y0407048D01*
X0509859Y0406894D01*
X0509849Y0406741D01*
X0509835Y0406589D01*
X0509817Y0406436D01*
X0509795Y0406285D01*
X0509770Y0406134D01*
X0509740Y0405983D01*
X0509706Y0405833D01*
X0509669Y0405685D01*
X0509628Y0405537D01*
X0509583Y0405391D01*
X0509534Y0405245D01*
X0509481Y0405101D01*
X0509425Y0404959D01*
X0509365Y0404818D01*
X0509301Y0404678D01*
X0509234Y0404540D01*
X0509163Y0404404D01*
X0509088Y0404270D01*
X0509011Y0404138D01*
X0508929Y0404008D01*
X0508845Y0403880D01*
X0508757Y0403754D01*
X0508666Y0403631D01*
X0508572Y0403510D01*
X0508474Y0403392D01*
X0508374Y0403276D01*
X0508270Y0403163D01*
X0508164Y0403052D01*
X0508055Y0402944D01*
X0507943Y0402839D01*
X0507829Y0402738D01*
X0507711Y0402639D01*
X0507592Y0402543D01*
X0507470Y0402450D01*
X0507345Y0402361D01*
X0507218Y0402274D01*
X0507089Y0402192D01*
X0506958Y0402112D01*
X0506825Y0402036D01*
X0506690Y0401963D01*
X0506553Y0401894D01*
X0506414Y0401829D01*
X0506274Y0401767D01*
X0506132Y0401709D01*
X0505989Y0401654D01*
X0505844Y0401603D01*
X0505698Y0401556D01*
X0505551Y0401513D01*
X0505403Y0401474D01*
X0505254Y0401438D01*
X0505104Y0401407D01*
X0504953Y0401379D01*
X0504802Y0401355D01*
X0504649Y0401335D01*
X0504497Y0401319D01*
X0504344Y0401307D01*
X0504191Y0401299D01*
X0504038Y0401295D01*
X0503884Y0401295D01*
X0503731Y0401299D01*
X0503578Y0401307D01*
X0503425Y0401319D01*
X0503273Y0401335D01*
X0503120Y0401355D01*
X0502969Y0401379D01*
X0502818Y0401407D01*
X0502668Y0401438D01*
X0502519Y0401474D01*
X0502371Y0401513D01*
X0502224Y0401556D01*
X0502078Y0401603D01*
X0501933Y0401654D01*
X0501790Y0401709D01*
X0501648Y0401767D01*
X0501508Y0401829D01*
X0501369Y0401894D01*
X0501232Y0401963D01*
X0501097Y0402036D01*
X0500964Y0402112D01*
X0500833Y0402192D01*
X0500704Y0402274D01*
X0500577Y0402361D01*
X0500452Y0402450D01*
X0500330Y0402543D01*
X0500211Y0402639D01*
X0500093Y0402738D01*
X0499979Y0402839D01*
X0499867Y0402944D01*
X0499758Y0403052D01*
X0499652Y0403163D01*
X0499548Y0403276D01*
X0499448Y0403392D01*
X0499350Y0403510D01*
X0499256Y0403631D01*
X0499165Y0403754D01*
X0499077Y0403880D01*
X0498993Y0404008D01*
X0498911Y0404138D01*
X0498834Y0404270D01*
X0498759Y0404404D01*
X0498688Y0404540D01*
X0498621Y0404678D01*
X0498557Y0404818D01*
X0498497Y0404959D01*
X0498441Y0405101D01*
X0498388Y0405245D01*
X0498339Y0405391D01*
X0498294Y0405537D01*
X0498253Y0405685D01*
X0498216Y0405833D01*
X0498182Y0405983D01*
X0498152Y0406134D01*
X0498127Y0406285D01*
X0498105Y0406436D01*
X0498087Y0406589D01*
X0498073Y0406741D01*
X0498063Y0406894D01*
X0498057Y0407048D01*
X0498055Y0407201D01*
X0872070Y0407201D02*
X0872072Y0407354D01*
X0872078Y0407508D01*
X0872088Y0407661D01*
X0872102Y0407813D01*
X0872120Y0407966D01*
X0872142Y0408117D01*
X0872167Y0408268D01*
X0872197Y0408419D01*
X0872231Y0408569D01*
X0872268Y0408717D01*
X0872309Y0408865D01*
X0872354Y0409011D01*
X0872403Y0409157D01*
X0872456Y0409301D01*
X0872512Y0409443D01*
X0872572Y0409584D01*
X0872636Y0409724D01*
X0872703Y0409862D01*
X0872774Y0409998D01*
X0872849Y0410132D01*
X0872926Y0410264D01*
X0873008Y0410394D01*
X0873092Y0410522D01*
X0873180Y0410648D01*
X0873271Y0410771D01*
X0873365Y0410892D01*
X0873463Y0411010D01*
X0873563Y0411126D01*
X0873667Y0411239D01*
X0873773Y0411350D01*
X0873882Y0411458D01*
X0873994Y0411563D01*
X0874108Y0411664D01*
X0874226Y0411763D01*
X0874345Y0411859D01*
X0874467Y0411952D01*
X0874592Y0412041D01*
X0874719Y0412128D01*
X0874848Y0412210D01*
X0874979Y0412290D01*
X0875112Y0412366D01*
X0875247Y0412439D01*
X0875384Y0412508D01*
X0875523Y0412573D01*
X0875663Y0412635D01*
X0875805Y0412693D01*
X0875948Y0412748D01*
X0876093Y0412799D01*
X0876239Y0412846D01*
X0876386Y0412889D01*
X0876534Y0412928D01*
X0876683Y0412964D01*
X0876833Y0412995D01*
X0876984Y0413023D01*
X0877135Y0413047D01*
X0877288Y0413067D01*
X0877440Y0413083D01*
X0877593Y0413095D01*
X0877746Y0413103D01*
X0877899Y0413107D01*
X0878053Y0413107D01*
X0878206Y0413103D01*
X0878359Y0413095D01*
X0878512Y0413083D01*
X0878664Y0413067D01*
X0878817Y0413047D01*
X0878968Y0413023D01*
X0879119Y0412995D01*
X0879269Y0412964D01*
X0879418Y0412928D01*
X0879566Y0412889D01*
X0879713Y0412846D01*
X0879859Y0412799D01*
X0880004Y0412748D01*
X0880147Y0412693D01*
X0880289Y0412635D01*
X0880429Y0412573D01*
X0880568Y0412508D01*
X0880705Y0412439D01*
X0880840Y0412366D01*
X0880973Y0412290D01*
X0881104Y0412210D01*
X0881233Y0412128D01*
X0881360Y0412041D01*
X0881485Y0411952D01*
X0881607Y0411859D01*
X0881726Y0411763D01*
X0881844Y0411664D01*
X0881958Y0411563D01*
X0882070Y0411458D01*
X0882179Y0411350D01*
X0882285Y0411239D01*
X0882389Y0411126D01*
X0882489Y0411010D01*
X0882587Y0410892D01*
X0882681Y0410771D01*
X0882772Y0410648D01*
X0882860Y0410522D01*
X0882944Y0410394D01*
X0883026Y0410264D01*
X0883103Y0410132D01*
X0883178Y0409998D01*
X0883249Y0409862D01*
X0883316Y0409724D01*
X0883380Y0409584D01*
X0883440Y0409443D01*
X0883496Y0409301D01*
X0883549Y0409157D01*
X0883598Y0409011D01*
X0883643Y0408865D01*
X0883684Y0408717D01*
X0883721Y0408569D01*
X0883755Y0408419D01*
X0883785Y0408268D01*
X0883810Y0408117D01*
X0883832Y0407966D01*
X0883850Y0407813D01*
X0883864Y0407661D01*
X0883874Y0407508D01*
X0883880Y0407354D01*
X0883882Y0407201D01*
X0883880Y0407048D01*
X0883874Y0406894D01*
X0883864Y0406741D01*
X0883850Y0406589D01*
X0883832Y0406436D01*
X0883810Y0406285D01*
X0883785Y0406134D01*
X0883755Y0405983D01*
X0883721Y0405833D01*
X0883684Y0405685D01*
X0883643Y0405537D01*
X0883598Y0405391D01*
X0883549Y0405245D01*
X0883496Y0405101D01*
X0883440Y0404959D01*
X0883380Y0404818D01*
X0883316Y0404678D01*
X0883249Y0404540D01*
X0883178Y0404404D01*
X0883103Y0404270D01*
X0883026Y0404138D01*
X0882944Y0404008D01*
X0882860Y0403880D01*
X0882772Y0403754D01*
X0882681Y0403631D01*
X0882587Y0403510D01*
X0882489Y0403392D01*
X0882389Y0403276D01*
X0882285Y0403163D01*
X0882179Y0403052D01*
X0882070Y0402944D01*
X0881958Y0402839D01*
X0881844Y0402738D01*
X0881726Y0402639D01*
X0881607Y0402543D01*
X0881485Y0402450D01*
X0881360Y0402361D01*
X0881233Y0402274D01*
X0881104Y0402192D01*
X0880973Y0402112D01*
X0880840Y0402036D01*
X0880705Y0401963D01*
X0880568Y0401894D01*
X0880429Y0401829D01*
X0880289Y0401767D01*
X0880147Y0401709D01*
X0880004Y0401654D01*
X0879859Y0401603D01*
X0879713Y0401556D01*
X0879566Y0401513D01*
X0879418Y0401474D01*
X0879269Y0401438D01*
X0879119Y0401407D01*
X0878968Y0401379D01*
X0878817Y0401355D01*
X0878664Y0401335D01*
X0878512Y0401319D01*
X0878359Y0401307D01*
X0878206Y0401299D01*
X0878053Y0401295D01*
X0877899Y0401295D01*
X0877746Y0401299D01*
X0877593Y0401307D01*
X0877440Y0401319D01*
X0877288Y0401335D01*
X0877135Y0401355D01*
X0876984Y0401379D01*
X0876833Y0401407D01*
X0876683Y0401438D01*
X0876534Y0401474D01*
X0876386Y0401513D01*
X0876239Y0401556D01*
X0876093Y0401603D01*
X0875948Y0401654D01*
X0875805Y0401709D01*
X0875663Y0401767D01*
X0875523Y0401829D01*
X0875384Y0401894D01*
X0875247Y0401963D01*
X0875112Y0402036D01*
X0874979Y0402112D01*
X0874848Y0402192D01*
X0874719Y0402274D01*
X0874592Y0402361D01*
X0874467Y0402450D01*
X0874345Y0402543D01*
X0874226Y0402639D01*
X0874108Y0402738D01*
X0873994Y0402839D01*
X0873882Y0402944D01*
X0873773Y0403052D01*
X0873667Y0403163D01*
X0873563Y0403276D01*
X0873463Y0403392D01*
X0873365Y0403510D01*
X0873271Y0403631D01*
X0873180Y0403754D01*
X0873092Y0403880D01*
X0873008Y0404008D01*
X0872926Y0404138D01*
X0872849Y0404270D01*
X0872774Y0404404D01*
X0872703Y0404540D01*
X0872636Y0404678D01*
X0872572Y0404818D01*
X0872512Y0404959D01*
X0872456Y0405101D01*
X0872403Y0405245D01*
X0872354Y0405391D01*
X0872309Y0405537D01*
X0872268Y0405685D01*
X0872231Y0405833D01*
X0872197Y0405983D01*
X0872167Y0406134D01*
X0872142Y0406285D01*
X0872120Y0406436D01*
X0872102Y0406589D01*
X0872088Y0406741D01*
X0872078Y0406894D01*
X0872072Y0407048D01*
X0872070Y0407201D01*
X0872831Y0407346D02*
X0872833Y0407493D01*
X0872839Y0407639D01*
X0872849Y0407785D01*
X0872863Y0407931D01*
X0872881Y0408077D01*
X0872902Y0408222D01*
X0872928Y0408366D01*
X0872958Y0408510D01*
X0872991Y0408652D01*
X0873028Y0408794D01*
X0873069Y0408935D01*
X0873114Y0409074D01*
X0873163Y0409213D01*
X0873215Y0409350D01*
X0873272Y0409485D01*
X0873331Y0409619D01*
X0873395Y0409751D01*
X0873462Y0409881D01*
X0873532Y0410010D01*
X0873606Y0410137D01*
X0873683Y0410261D01*
X0873764Y0410384D01*
X0873848Y0410504D01*
X0873935Y0410622D01*
X0874025Y0410737D01*
X0874118Y0410850D01*
X0874215Y0410961D01*
X0874314Y0411069D01*
X0874416Y0411174D01*
X0874521Y0411276D01*
X0874629Y0411375D01*
X0874740Y0411472D01*
X0874853Y0411565D01*
X0874968Y0411655D01*
X0875086Y0411742D01*
X0875206Y0411826D01*
X0875329Y0411907D01*
X0875453Y0411984D01*
X0875580Y0412058D01*
X0875709Y0412128D01*
X0875839Y0412195D01*
X0875971Y0412259D01*
X0876105Y0412318D01*
X0876240Y0412375D01*
X0876377Y0412427D01*
X0876516Y0412476D01*
X0876655Y0412521D01*
X0876796Y0412562D01*
X0876938Y0412599D01*
X0877080Y0412632D01*
X0877224Y0412662D01*
X0877368Y0412688D01*
X0877513Y0412709D01*
X0877659Y0412727D01*
X0877805Y0412741D01*
X0877951Y0412751D01*
X0878097Y0412757D01*
X0878244Y0412759D01*
X0878391Y0412757D01*
X0878537Y0412751D01*
X0878683Y0412741D01*
X0878829Y0412727D01*
X0878975Y0412709D01*
X0879120Y0412688D01*
X0879264Y0412662D01*
X0879408Y0412632D01*
X0879550Y0412599D01*
X0879692Y0412562D01*
X0879833Y0412521D01*
X0879972Y0412476D01*
X0880111Y0412427D01*
X0880248Y0412375D01*
X0880383Y0412318D01*
X0880517Y0412259D01*
X0880649Y0412195D01*
X0880779Y0412128D01*
X0880908Y0412058D01*
X0881035Y0411984D01*
X0881159Y0411907D01*
X0881282Y0411826D01*
X0881402Y0411742D01*
X0881520Y0411655D01*
X0881635Y0411565D01*
X0881748Y0411472D01*
X0881859Y0411375D01*
X0881967Y0411276D01*
X0882072Y0411174D01*
X0882174Y0411069D01*
X0882273Y0410961D01*
X0882370Y0410850D01*
X0882463Y0410737D01*
X0882553Y0410622D01*
X0882640Y0410504D01*
X0882724Y0410384D01*
X0882805Y0410261D01*
X0882882Y0410137D01*
X0882956Y0410010D01*
X0883026Y0409881D01*
X0883093Y0409751D01*
X0883157Y0409619D01*
X0883216Y0409485D01*
X0883273Y0409350D01*
X0883325Y0409213D01*
X0883374Y0409074D01*
X0883419Y0408935D01*
X0883460Y0408794D01*
X0883497Y0408652D01*
X0883530Y0408510D01*
X0883560Y0408366D01*
X0883586Y0408222D01*
X0883607Y0408077D01*
X0883625Y0407931D01*
X0883639Y0407785D01*
X0883649Y0407639D01*
X0883655Y0407493D01*
X0883657Y0407346D01*
X0883655Y0407199D01*
X0883649Y0407053D01*
X0883639Y0406907D01*
X0883625Y0406761D01*
X0883607Y0406615D01*
X0883586Y0406470D01*
X0883560Y0406326D01*
X0883530Y0406182D01*
X0883497Y0406040D01*
X0883460Y0405898D01*
X0883419Y0405757D01*
X0883374Y0405618D01*
X0883325Y0405479D01*
X0883273Y0405342D01*
X0883216Y0405207D01*
X0883157Y0405073D01*
X0883093Y0404941D01*
X0883026Y0404811D01*
X0882956Y0404682D01*
X0882882Y0404555D01*
X0882805Y0404431D01*
X0882724Y0404308D01*
X0882640Y0404188D01*
X0882553Y0404070D01*
X0882463Y0403955D01*
X0882370Y0403842D01*
X0882273Y0403731D01*
X0882174Y0403623D01*
X0882072Y0403518D01*
X0881967Y0403416D01*
X0881859Y0403317D01*
X0881748Y0403220D01*
X0881635Y0403127D01*
X0881520Y0403037D01*
X0881402Y0402950D01*
X0881282Y0402866D01*
X0881159Y0402785D01*
X0881035Y0402708D01*
X0880908Y0402634D01*
X0880779Y0402564D01*
X0880649Y0402497D01*
X0880517Y0402433D01*
X0880383Y0402374D01*
X0880248Y0402317D01*
X0880111Y0402265D01*
X0879972Y0402216D01*
X0879833Y0402171D01*
X0879692Y0402130D01*
X0879550Y0402093D01*
X0879408Y0402060D01*
X0879264Y0402030D01*
X0879120Y0402004D01*
X0878975Y0401983D01*
X0878829Y0401965D01*
X0878683Y0401951D01*
X0878537Y0401941D01*
X0878391Y0401935D01*
X0878244Y0401933D01*
X0878097Y0401935D01*
X0877951Y0401941D01*
X0877805Y0401951D01*
X0877659Y0401965D01*
X0877513Y0401983D01*
X0877368Y0402004D01*
X0877224Y0402030D01*
X0877080Y0402060D01*
X0876938Y0402093D01*
X0876796Y0402130D01*
X0876655Y0402171D01*
X0876516Y0402216D01*
X0876377Y0402265D01*
X0876240Y0402317D01*
X0876105Y0402374D01*
X0875971Y0402433D01*
X0875839Y0402497D01*
X0875709Y0402564D01*
X0875580Y0402634D01*
X0875453Y0402708D01*
X0875329Y0402785D01*
X0875206Y0402866D01*
X0875086Y0402950D01*
X0874968Y0403037D01*
X0874853Y0403127D01*
X0874740Y0403220D01*
X0874629Y0403317D01*
X0874521Y0403416D01*
X0874416Y0403518D01*
X0874314Y0403623D01*
X0874215Y0403731D01*
X0874118Y0403842D01*
X0874025Y0403955D01*
X0873935Y0404070D01*
X0873848Y0404188D01*
X0873764Y0404308D01*
X0873683Y0404431D01*
X0873606Y0404555D01*
X0873532Y0404682D01*
X0873462Y0404811D01*
X0873395Y0404941D01*
X0873331Y0405073D01*
X0873272Y0405207D01*
X0873215Y0405342D01*
X0873163Y0405479D01*
X0873114Y0405618D01*
X0873069Y0405757D01*
X0873028Y0405898D01*
X0872991Y0406040D01*
X0872958Y0406182D01*
X0872928Y0406326D01*
X0872902Y0406470D01*
X0872881Y0406615D01*
X0872863Y0406761D01*
X0872849Y0406907D01*
X0872839Y0407053D01*
X0872833Y0407199D01*
X0872831Y0407346D01*
X0025614Y0407201D02*
X0025616Y0407354D01*
X0025622Y0407508D01*
X0025632Y0407661D01*
X0025646Y0407813D01*
X0025664Y0407966D01*
X0025686Y0408117D01*
X0025711Y0408268D01*
X0025741Y0408419D01*
X0025775Y0408569D01*
X0025812Y0408717D01*
X0025853Y0408865D01*
X0025898Y0409011D01*
X0025947Y0409157D01*
X0026000Y0409301D01*
X0026056Y0409443D01*
X0026116Y0409584D01*
X0026180Y0409724D01*
X0026247Y0409862D01*
X0026318Y0409998D01*
X0026393Y0410132D01*
X0026470Y0410264D01*
X0026552Y0410394D01*
X0026636Y0410522D01*
X0026724Y0410648D01*
X0026815Y0410771D01*
X0026909Y0410892D01*
X0027007Y0411010D01*
X0027107Y0411126D01*
X0027211Y0411239D01*
X0027317Y0411350D01*
X0027426Y0411458D01*
X0027538Y0411563D01*
X0027652Y0411664D01*
X0027770Y0411763D01*
X0027889Y0411859D01*
X0028011Y0411952D01*
X0028136Y0412041D01*
X0028263Y0412128D01*
X0028392Y0412210D01*
X0028523Y0412290D01*
X0028656Y0412366D01*
X0028791Y0412439D01*
X0028928Y0412508D01*
X0029067Y0412573D01*
X0029207Y0412635D01*
X0029349Y0412693D01*
X0029492Y0412748D01*
X0029637Y0412799D01*
X0029783Y0412846D01*
X0029930Y0412889D01*
X0030078Y0412928D01*
X0030227Y0412964D01*
X0030377Y0412995D01*
X0030528Y0413023D01*
X0030679Y0413047D01*
X0030832Y0413067D01*
X0030984Y0413083D01*
X0031137Y0413095D01*
X0031290Y0413103D01*
X0031443Y0413107D01*
X0031597Y0413107D01*
X0031750Y0413103D01*
X0031903Y0413095D01*
X0032056Y0413083D01*
X0032208Y0413067D01*
X0032361Y0413047D01*
X0032512Y0413023D01*
X0032663Y0412995D01*
X0032813Y0412964D01*
X0032962Y0412928D01*
X0033110Y0412889D01*
X0033257Y0412846D01*
X0033403Y0412799D01*
X0033548Y0412748D01*
X0033691Y0412693D01*
X0033833Y0412635D01*
X0033973Y0412573D01*
X0034112Y0412508D01*
X0034249Y0412439D01*
X0034384Y0412366D01*
X0034517Y0412290D01*
X0034648Y0412210D01*
X0034777Y0412128D01*
X0034904Y0412041D01*
X0035029Y0411952D01*
X0035151Y0411859D01*
X0035270Y0411763D01*
X0035388Y0411664D01*
X0035502Y0411563D01*
X0035614Y0411458D01*
X0035723Y0411350D01*
X0035829Y0411239D01*
X0035933Y0411126D01*
X0036033Y0411010D01*
X0036131Y0410892D01*
X0036225Y0410771D01*
X0036316Y0410648D01*
X0036404Y0410522D01*
X0036488Y0410394D01*
X0036570Y0410264D01*
X0036647Y0410132D01*
X0036722Y0409998D01*
X0036793Y0409862D01*
X0036860Y0409724D01*
X0036924Y0409584D01*
X0036984Y0409443D01*
X0037040Y0409301D01*
X0037093Y0409157D01*
X0037142Y0409011D01*
X0037187Y0408865D01*
X0037228Y0408717D01*
X0037265Y0408569D01*
X0037299Y0408419D01*
X0037329Y0408268D01*
X0037354Y0408117D01*
X0037376Y0407966D01*
X0037394Y0407813D01*
X0037408Y0407661D01*
X0037418Y0407508D01*
X0037424Y0407354D01*
X0037426Y0407201D01*
X0037424Y0407048D01*
X0037418Y0406894D01*
X0037408Y0406741D01*
X0037394Y0406589D01*
X0037376Y0406436D01*
X0037354Y0406285D01*
X0037329Y0406134D01*
X0037299Y0405983D01*
X0037265Y0405833D01*
X0037228Y0405685D01*
X0037187Y0405537D01*
X0037142Y0405391D01*
X0037093Y0405245D01*
X0037040Y0405101D01*
X0036984Y0404959D01*
X0036924Y0404818D01*
X0036860Y0404678D01*
X0036793Y0404540D01*
X0036722Y0404404D01*
X0036647Y0404270D01*
X0036570Y0404138D01*
X0036488Y0404008D01*
X0036404Y0403880D01*
X0036316Y0403754D01*
X0036225Y0403631D01*
X0036131Y0403510D01*
X0036033Y0403392D01*
X0035933Y0403276D01*
X0035829Y0403163D01*
X0035723Y0403052D01*
X0035614Y0402944D01*
X0035502Y0402839D01*
X0035388Y0402738D01*
X0035270Y0402639D01*
X0035151Y0402543D01*
X0035029Y0402450D01*
X0034904Y0402361D01*
X0034777Y0402274D01*
X0034648Y0402192D01*
X0034517Y0402112D01*
X0034384Y0402036D01*
X0034249Y0401963D01*
X0034112Y0401894D01*
X0033973Y0401829D01*
X0033833Y0401767D01*
X0033691Y0401709D01*
X0033548Y0401654D01*
X0033403Y0401603D01*
X0033257Y0401556D01*
X0033110Y0401513D01*
X0032962Y0401474D01*
X0032813Y0401438D01*
X0032663Y0401407D01*
X0032512Y0401379D01*
X0032361Y0401355D01*
X0032208Y0401335D01*
X0032056Y0401319D01*
X0031903Y0401307D01*
X0031750Y0401299D01*
X0031597Y0401295D01*
X0031443Y0401295D01*
X0031290Y0401299D01*
X0031137Y0401307D01*
X0030984Y0401319D01*
X0030832Y0401335D01*
X0030679Y0401355D01*
X0030528Y0401379D01*
X0030377Y0401407D01*
X0030227Y0401438D01*
X0030078Y0401474D01*
X0029930Y0401513D01*
X0029783Y0401556D01*
X0029637Y0401603D01*
X0029492Y0401654D01*
X0029349Y0401709D01*
X0029207Y0401767D01*
X0029067Y0401829D01*
X0028928Y0401894D01*
X0028791Y0401963D01*
X0028656Y0402036D01*
X0028523Y0402112D01*
X0028392Y0402192D01*
X0028263Y0402274D01*
X0028136Y0402361D01*
X0028011Y0402450D01*
X0027889Y0402543D01*
X0027770Y0402639D01*
X0027652Y0402738D01*
X0027538Y0402839D01*
X0027426Y0402944D01*
X0027317Y0403052D01*
X0027211Y0403163D01*
X0027107Y0403276D01*
X0027007Y0403392D01*
X0026909Y0403510D01*
X0026815Y0403631D01*
X0026724Y0403754D01*
X0026636Y0403880D01*
X0026552Y0404008D01*
X0026470Y0404138D01*
X0026393Y0404270D01*
X0026318Y0404404D01*
X0026247Y0404540D01*
X0026180Y0404678D01*
X0026116Y0404818D01*
X0026056Y0404959D01*
X0026000Y0405101D01*
X0025947Y0405245D01*
X0025898Y0405391D01*
X0025853Y0405537D01*
X0025812Y0405685D01*
X0025775Y0405833D01*
X0025741Y0405983D01*
X0025711Y0406134D01*
X0025686Y0406285D01*
X0025664Y0406436D01*
X0025646Y0406589D01*
X0025632Y0406741D01*
X0025622Y0406894D01*
X0025616Y0407048D01*
X0025614Y0407201D01*
D11*
X0567500Y0046500D02*
X0567500Y0040500D01*
X0620500Y0040500D02*
X0620500Y0046500D01*
X0933000Y0135250D02*
X0939000Y0135250D01*
X0939000Y0156250D02*
X0933000Y0156250D01*
X0933000Y0168750D02*
X0939000Y0168750D01*
D12*
X0594000Y0043500D03*
D13*
X0495537Y0040963D02*
X0495537Y0038037D01*
X0495537Y0040963D02*
X0498463Y0040963D01*
X0498463Y0038037D01*
X0495537Y0038037D01*
X0495537Y0039011D02*
X0498463Y0039011D01*
X0498463Y0039985D02*
X0495537Y0039985D01*
X0495537Y0040959D02*
X0498463Y0040959D01*
X0484537Y0040963D02*
X0484537Y0038037D01*
X0484537Y0040963D02*
X0487463Y0040963D01*
X0487463Y0038037D01*
X0484537Y0038037D01*
X0484537Y0039011D02*
X0487463Y0039011D01*
X0487463Y0039985D02*
X0484537Y0039985D01*
X0484537Y0040959D02*
X0487463Y0040959D01*
X0484537Y0034963D02*
X0484537Y0032037D01*
X0484537Y0034963D02*
X0487463Y0034963D01*
X0487463Y0032037D01*
X0484537Y0032037D01*
X0484537Y0033011D02*
X0487463Y0033011D01*
X0487463Y0033985D02*
X0484537Y0033985D01*
X0484537Y0034959D02*
X0487463Y0034959D01*
X0495537Y0034963D02*
X0495537Y0032037D01*
X0495537Y0034963D02*
X0498463Y0034963D01*
X0498463Y0032037D01*
X0495537Y0032037D01*
X0495537Y0033011D02*
X0498463Y0033011D01*
X0498463Y0033985D02*
X0495537Y0033985D01*
X0495537Y0034959D02*
X0498463Y0034959D01*
X0452537Y0034963D02*
X0452537Y0032037D01*
X0452537Y0034963D02*
X0455463Y0034963D01*
X0455463Y0032037D01*
X0452537Y0032037D01*
X0452537Y0033011D02*
X0455463Y0033011D01*
X0455463Y0033985D02*
X0452537Y0033985D01*
X0452537Y0034959D02*
X0455463Y0034959D01*
X0452537Y0038037D02*
X0452537Y0040963D01*
X0455463Y0040963D01*
X0455463Y0038037D01*
X0452537Y0038037D01*
X0452537Y0039011D02*
X0455463Y0039011D01*
X0455463Y0039985D02*
X0452537Y0039985D01*
X0452537Y0040959D02*
X0455463Y0040959D01*
X0440537Y0040963D02*
X0440537Y0038037D01*
X0440537Y0040963D02*
X0443463Y0040963D01*
X0443463Y0038037D01*
X0440537Y0038037D01*
X0440537Y0039011D02*
X0443463Y0039011D01*
X0443463Y0039985D02*
X0440537Y0039985D01*
X0440537Y0040959D02*
X0443463Y0040959D01*
X0440537Y0034963D02*
X0440537Y0032037D01*
X0440537Y0034963D02*
X0443463Y0034963D01*
X0443463Y0032037D01*
X0440537Y0032037D01*
X0440537Y0033011D02*
X0443463Y0033011D01*
X0443463Y0033985D02*
X0440537Y0033985D01*
X0440537Y0034959D02*
X0443463Y0034959D01*
X0411537Y0034963D02*
X0411537Y0032037D01*
X0411537Y0034963D02*
X0414463Y0034963D01*
X0414463Y0032037D01*
X0411537Y0032037D01*
X0411537Y0033011D02*
X0414463Y0033011D01*
X0414463Y0033985D02*
X0411537Y0033985D01*
X0411537Y0034959D02*
X0414463Y0034959D01*
X0411537Y0038037D02*
X0411537Y0040963D01*
X0414463Y0040963D01*
X0414463Y0038037D01*
X0411537Y0038037D01*
X0411537Y0039011D02*
X0414463Y0039011D01*
X0414463Y0039985D02*
X0411537Y0039985D01*
X0411537Y0040959D02*
X0414463Y0040959D01*
X0400537Y0040963D02*
X0400537Y0038037D01*
X0400537Y0040963D02*
X0403463Y0040963D01*
X0403463Y0038037D01*
X0400537Y0038037D01*
X0400537Y0039011D02*
X0403463Y0039011D01*
X0403463Y0039985D02*
X0400537Y0039985D01*
X0400537Y0040959D02*
X0403463Y0040959D01*
X0400537Y0034963D02*
X0400537Y0032037D01*
X0400537Y0034963D02*
X0403463Y0034963D01*
X0403463Y0032037D01*
X0400537Y0032037D01*
X0400537Y0033011D02*
X0403463Y0033011D01*
X0403463Y0033985D02*
X0400537Y0033985D01*
X0400537Y0034959D02*
X0403463Y0034959D01*
X0346063Y0024163D02*
X0343137Y0024163D01*
X0346063Y0024163D02*
X0346063Y0021237D01*
X0343137Y0021237D01*
X0343137Y0024163D01*
X0343137Y0022211D02*
X0346063Y0022211D01*
X0346063Y0023185D02*
X0343137Y0023185D01*
X0343137Y0024159D02*
X0346063Y0024159D01*
X0340063Y0024163D02*
X0337137Y0024163D01*
X0340063Y0024163D02*
X0340063Y0021237D01*
X0337137Y0021237D01*
X0337137Y0024163D01*
X0337137Y0022211D02*
X0340063Y0022211D01*
X0340063Y0023185D02*
X0337137Y0023185D01*
X0337137Y0024159D02*
X0340063Y0024159D01*
X0319986Y0032553D02*
X0319986Y0035479D01*
X0322912Y0035479D01*
X0322912Y0032553D01*
X0319986Y0032553D01*
X0319986Y0033527D02*
X0322912Y0033527D01*
X0322912Y0034501D02*
X0319986Y0034501D01*
X0319986Y0035475D02*
X0322912Y0035475D01*
X0319986Y0038553D02*
X0319986Y0041479D01*
X0322912Y0041479D01*
X0322912Y0038553D01*
X0319986Y0038553D01*
X0319986Y0039527D02*
X0322912Y0039527D01*
X0322912Y0040501D02*
X0319986Y0040501D01*
X0319986Y0041475D02*
X0322912Y0041475D01*
X0311986Y0041479D02*
X0311986Y0038553D01*
X0311986Y0041479D02*
X0314912Y0041479D01*
X0314912Y0038553D01*
X0311986Y0038553D01*
X0311986Y0039527D02*
X0314912Y0039527D01*
X0314912Y0040501D02*
X0311986Y0040501D01*
X0311986Y0041475D02*
X0314912Y0041475D01*
X0311986Y0035479D02*
X0311986Y0032553D01*
X0311986Y0035479D02*
X0314912Y0035479D01*
X0314912Y0032553D01*
X0311986Y0032553D01*
X0311986Y0033527D02*
X0314912Y0033527D01*
X0314912Y0034501D02*
X0311986Y0034501D01*
X0311986Y0035475D02*
X0314912Y0035475D01*
X0268463Y0025963D02*
X0268463Y0023037D01*
X0265537Y0023037D01*
X0265537Y0025963D01*
X0268463Y0025963D01*
X0268463Y0024011D02*
X0265537Y0024011D01*
X0265537Y0024985D02*
X0268463Y0024985D01*
X0268463Y0025959D02*
X0265537Y0025959D01*
X0268463Y0019963D02*
X0268463Y0017037D01*
X0265537Y0017037D01*
X0265537Y0019963D01*
X0268463Y0019963D01*
X0268463Y0018011D02*
X0265537Y0018011D01*
X0265537Y0018985D02*
X0268463Y0018985D01*
X0268463Y0019959D02*
X0265537Y0019959D01*
X0192463Y0029963D02*
X0189537Y0029963D01*
X0192463Y0029963D02*
X0192463Y0027037D01*
X0189537Y0027037D01*
X0189537Y0029963D01*
X0189537Y0028011D02*
X0192463Y0028011D01*
X0192463Y0028985D02*
X0189537Y0028985D01*
X0189537Y0029959D02*
X0192463Y0029959D01*
X0186463Y0029963D02*
X0183537Y0029963D01*
X0186463Y0029963D02*
X0186463Y0027037D01*
X0183537Y0027037D01*
X0183537Y0029963D01*
X0183537Y0028011D02*
X0186463Y0028011D01*
X0186463Y0028985D02*
X0183537Y0028985D01*
X0183537Y0029959D02*
X0186463Y0029959D01*
X0186463Y0036963D02*
X0183537Y0036963D01*
X0186463Y0036963D02*
X0186463Y0034037D01*
X0183537Y0034037D01*
X0183537Y0036963D01*
X0183537Y0035011D02*
X0186463Y0035011D01*
X0186463Y0035985D02*
X0183537Y0035985D01*
X0183537Y0036959D02*
X0186463Y0036959D01*
X0189537Y0036963D02*
X0192463Y0036963D01*
X0192463Y0034037D01*
X0189537Y0034037D01*
X0189537Y0036963D01*
X0189537Y0035011D02*
X0192463Y0035011D01*
X0192463Y0035985D02*
X0189537Y0035985D01*
X0189537Y0036959D02*
X0192463Y0036959D01*
X0225763Y0058637D02*
X0225763Y0061563D01*
X0225763Y0058637D02*
X0222837Y0058637D01*
X0222837Y0061563D01*
X0225763Y0061563D01*
X0225763Y0059611D02*
X0222837Y0059611D01*
X0222837Y0060585D02*
X0225763Y0060585D01*
X0225763Y0061559D02*
X0222837Y0061559D01*
X0225763Y0064637D02*
X0225763Y0067563D01*
X0225763Y0064637D02*
X0222837Y0064637D01*
X0222837Y0067563D01*
X0225763Y0067563D01*
X0225763Y0065611D02*
X0222837Y0065611D01*
X0222837Y0066585D02*
X0225763Y0066585D01*
X0225763Y0067559D02*
X0222837Y0067559D01*
X0238537Y0067037D02*
X0238537Y0069963D01*
X0241463Y0069963D01*
X0241463Y0067037D01*
X0238537Y0067037D01*
X0238537Y0068011D02*
X0241463Y0068011D01*
X0241463Y0068985D02*
X0238537Y0068985D01*
X0238537Y0069959D02*
X0241463Y0069959D01*
X0238537Y0063963D02*
X0238537Y0061037D01*
X0238537Y0063963D02*
X0241463Y0063963D01*
X0241463Y0061037D01*
X0238537Y0061037D01*
X0238537Y0062011D02*
X0241463Y0062011D01*
X0241463Y0062985D02*
X0238537Y0062985D01*
X0238537Y0063959D02*
X0241463Y0063959D01*
X0238537Y0081037D02*
X0238537Y0083963D01*
X0241463Y0083963D01*
X0241463Y0081037D01*
X0238537Y0081037D01*
X0238537Y0082011D02*
X0241463Y0082011D01*
X0241463Y0082985D02*
X0238537Y0082985D01*
X0238537Y0083959D02*
X0241463Y0083959D01*
X0238537Y0087037D02*
X0238537Y0089963D01*
X0241463Y0089963D01*
X0241463Y0087037D01*
X0238537Y0087037D01*
X0238537Y0088011D02*
X0241463Y0088011D01*
X0241463Y0088985D02*
X0238537Y0088985D01*
X0238537Y0089959D02*
X0241463Y0089959D01*
X0241514Y0102447D02*
X0238588Y0102447D01*
X0241514Y0102447D02*
X0241514Y0099521D01*
X0238588Y0099521D01*
X0238588Y0102447D01*
X0238588Y0100495D02*
X0241514Y0100495D01*
X0241514Y0101469D02*
X0238588Y0101469D01*
X0238588Y0102443D02*
X0241514Y0102443D01*
X0245121Y0104086D02*
X0248047Y0104086D01*
X0245121Y0104086D02*
X0245121Y0107012D01*
X0248047Y0107012D01*
X0248047Y0104086D01*
X0248047Y0105060D02*
X0245121Y0105060D01*
X0245121Y0106034D02*
X0248047Y0106034D01*
X0248047Y0107008D02*
X0245121Y0107008D01*
X0251121Y0104086D02*
X0254047Y0104086D01*
X0251121Y0104086D02*
X0251121Y0107012D01*
X0254047Y0107012D01*
X0254047Y0104086D01*
X0254047Y0105060D02*
X0251121Y0105060D01*
X0251121Y0106034D02*
X0254047Y0106034D01*
X0254047Y0107008D02*
X0251121Y0107008D01*
X0235514Y0102447D02*
X0232588Y0102447D01*
X0235514Y0102447D02*
X0235514Y0099521D01*
X0232588Y0099521D01*
X0232588Y0102447D01*
X0232588Y0100495D02*
X0235514Y0100495D01*
X0235514Y0101469D02*
X0232588Y0101469D01*
X0232588Y0102443D02*
X0235514Y0102443D01*
X0276537Y0104037D02*
X0279463Y0104037D01*
X0276537Y0104037D02*
X0276537Y0106963D01*
X0279463Y0106963D01*
X0279463Y0104037D01*
X0279463Y0105011D02*
X0276537Y0105011D01*
X0276537Y0105985D02*
X0279463Y0105985D01*
X0279463Y0106959D02*
X0276537Y0106959D01*
X0282537Y0104037D02*
X0285463Y0104037D01*
X0282537Y0104037D02*
X0282537Y0106963D01*
X0285463Y0106963D01*
X0285463Y0104037D01*
X0285463Y0105011D02*
X0282537Y0105011D01*
X0282537Y0105985D02*
X0285463Y0105985D01*
X0285463Y0106959D02*
X0282537Y0106959D01*
X0282537Y0113037D02*
X0285463Y0113037D01*
X0282537Y0113037D02*
X0282537Y0115963D01*
X0285463Y0115963D01*
X0285463Y0113037D01*
X0285463Y0114011D02*
X0282537Y0114011D01*
X0282537Y0114985D02*
X0285463Y0114985D01*
X0285463Y0115959D02*
X0282537Y0115959D01*
X0279463Y0113037D02*
X0276537Y0113037D01*
X0276537Y0115963D01*
X0279463Y0115963D01*
X0279463Y0113037D01*
X0279463Y0114011D02*
X0276537Y0114011D01*
X0276537Y0114985D02*
X0279463Y0114985D01*
X0279463Y0115959D02*
X0276537Y0115959D01*
X0290014Y0099447D02*
X0290014Y0096521D01*
X0287088Y0096521D01*
X0287088Y0099447D01*
X0290014Y0099447D01*
X0290014Y0097495D02*
X0287088Y0097495D01*
X0287088Y0098469D02*
X0290014Y0098469D01*
X0290014Y0099443D02*
X0287088Y0099443D01*
X0290014Y0093447D02*
X0290014Y0090521D01*
X0287088Y0090521D01*
X0287088Y0093447D01*
X0290014Y0093447D01*
X0290014Y0091495D02*
X0287088Y0091495D01*
X0287088Y0092469D02*
X0290014Y0092469D01*
X0290014Y0093443D02*
X0287088Y0093443D01*
X0185463Y0140037D02*
X0185463Y0142963D01*
X0185463Y0140037D02*
X0182537Y0140037D01*
X0182537Y0142963D01*
X0185463Y0142963D01*
X0185463Y0141011D02*
X0182537Y0141011D01*
X0182537Y0141985D02*
X0185463Y0141985D01*
X0185463Y0142959D02*
X0182537Y0142959D01*
X0185463Y0146037D02*
X0185463Y0148963D01*
X0185463Y0146037D02*
X0182537Y0146037D01*
X0182537Y0148963D01*
X0185463Y0148963D01*
X0185463Y0147011D02*
X0182537Y0147011D01*
X0182537Y0147985D02*
X0185463Y0147985D01*
X0185463Y0148959D02*
X0182537Y0148959D01*
X0201537Y0171963D02*
X0204463Y0171963D01*
X0204463Y0169037D01*
X0201537Y0169037D01*
X0201537Y0171963D01*
X0201537Y0170011D02*
X0204463Y0170011D01*
X0204463Y0170985D02*
X0201537Y0170985D01*
X0201537Y0171959D02*
X0204463Y0171959D01*
X0207537Y0171963D02*
X0210463Y0171963D01*
X0210463Y0169037D01*
X0207537Y0169037D01*
X0207537Y0171963D01*
X0207537Y0170011D02*
X0210463Y0170011D01*
X0210463Y0170985D02*
X0207537Y0170985D01*
X0207537Y0171959D02*
X0210463Y0171959D01*
X0255537Y0173963D02*
X0258463Y0173963D01*
X0258463Y0171037D01*
X0255537Y0171037D01*
X0255537Y0173963D01*
X0255537Y0172011D02*
X0258463Y0172011D01*
X0258463Y0172985D02*
X0255537Y0172985D01*
X0255537Y0173959D02*
X0258463Y0173959D01*
X0261537Y0173963D02*
X0264463Y0173963D01*
X0264463Y0171037D01*
X0261537Y0171037D01*
X0261537Y0173963D01*
X0261537Y0172011D02*
X0264463Y0172011D01*
X0264463Y0172985D02*
X0261537Y0172985D01*
X0261537Y0173959D02*
X0264463Y0173959D01*
X0240463Y0144037D02*
X0237537Y0144037D01*
X0237537Y0146963D01*
X0240463Y0146963D01*
X0240463Y0144037D01*
X0240463Y0145011D02*
X0237537Y0145011D01*
X0237537Y0145985D02*
X0240463Y0145985D01*
X0240463Y0146959D02*
X0237537Y0146959D01*
X0234463Y0144037D02*
X0231537Y0144037D01*
X0231537Y0146963D01*
X0234463Y0146963D01*
X0234463Y0144037D01*
X0234463Y0145011D02*
X0231537Y0145011D01*
X0231537Y0145985D02*
X0234463Y0145985D01*
X0234463Y0146959D02*
X0231537Y0146959D01*
X0170463Y0125963D02*
X0167537Y0125963D01*
X0170463Y0125963D02*
X0170463Y0123037D01*
X0167537Y0123037D01*
X0167537Y0125963D01*
X0167537Y0124011D02*
X0170463Y0124011D01*
X0170463Y0124985D02*
X0167537Y0124985D01*
X0167537Y0125959D02*
X0170463Y0125959D01*
X0164463Y0125963D02*
X0161537Y0125963D01*
X0164463Y0125963D02*
X0164463Y0123037D01*
X0161537Y0123037D01*
X0161537Y0125963D01*
X0161537Y0124011D02*
X0164463Y0124011D01*
X0164463Y0124985D02*
X0161537Y0124985D01*
X0161537Y0125959D02*
X0164463Y0125959D01*
X0064463Y0109963D02*
X0061537Y0109963D01*
X0064463Y0109963D02*
X0064463Y0107037D01*
X0061537Y0107037D01*
X0061537Y0109963D01*
X0061537Y0108011D02*
X0064463Y0108011D01*
X0064463Y0108985D02*
X0061537Y0108985D01*
X0061537Y0109959D02*
X0064463Y0109959D01*
X0058463Y0109963D02*
X0055537Y0109963D01*
X0058463Y0109963D02*
X0058463Y0107037D01*
X0055537Y0107037D01*
X0055537Y0109963D01*
X0055537Y0108011D02*
X0058463Y0108011D01*
X0058463Y0108985D02*
X0055537Y0108985D01*
X0055537Y0109959D02*
X0058463Y0109959D01*
X0046537Y0109963D02*
X0046537Y0107037D01*
X0046537Y0109963D02*
X0049463Y0109963D01*
X0049463Y0107037D01*
X0046537Y0107037D01*
X0046537Y0108011D02*
X0049463Y0108011D01*
X0049463Y0108985D02*
X0046537Y0108985D01*
X0046537Y0109959D02*
X0049463Y0109959D01*
X0046537Y0103963D02*
X0046537Y0101037D01*
X0046537Y0103963D02*
X0049463Y0103963D01*
X0049463Y0101037D01*
X0046537Y0101037D01*
X0046537Y0102011D02*
X0049463Y0102011D01*
X0049463Y0102985D02*
X0046537Y0102985D01*
X0046537Y0103959D02*
X0049463Y0103959D01*
X0046537Y0119037D02*
X0046537Y0121963D01*
X0049463Y0121963D01*
X0049463Y0119037D01*
X0046537Y0119037D01*
X0046537Y0120011D02*
X0049463Y0120011D01*
X0049463Y0120985D02*
X0046537Y0120985D01*
X0046537Y0121959D02*
X0049463Y0121959D01*
X0046537Y0125037D02*
X0046537Y0127963D01*
X0049463Y0127963D01*
X0049463Y0125037D01*
X0046537Y0125037D01*
X0046537Y0126011D02*
X0049463Y0126011D01*
X0049463Y0126985D02*
X0046537Y0126985D01*
X0046537Y0127959D02*
X0049463Y0127959D01*
X0063463Y0173037D02*
X0063463Y0175963D01*
X0063463Y0173037D02*
X0060537Y0173037D01*
X0060537Y0175963D01*
X0063463Y0175963D01*
X0063463Y0174011D02*
X0060537Y0174011D01*
X0060537Y0174985D02*
X0063463Y0174985D01*
X0063463Y0175959D02*
X0060537Y0175959D01*
X0063463Y0179037D02*
X0063463Y0181963D01*
X0063463Y0179037D02*
X0060537Y0179037D01*
X0060537Y0181963D01*
X0063463Y0181963D01*
X0063463Y0180011D02*
X0060537Y0180011D01*
X0060537Y0180985D02*
X0063463Y0180985D01*
X0063463Y0181959D02*
X0060537Y0181959D01*
X0071463Y0200037D02*
X0071463Y0202963D01*
X0071463Y0200037D02*
X0068537Y0200037D01*
X0068537Y0202963D01*
X0071463Y0202963D01*
X0071463Y0201011D02*
X0068537Y0201011D01*
X0068537Y0201985D02*
X0071463Y0201985D01*
X0071463Y0202959D02*
X0068537Y0202959D01*
X0071463Y0206037D02*
X0071463Y0208963D01*
X0071463Y0206037D02*
X0068537Y0206037D01*
X0068537Y0208963D01*
X0071463Y0208963D01*
X0071463Y0207011D02*
X0068537Y0207011D01*
X0068537Y0207985D02*
X0071463Y0207985D01*
X0071463Y0208959D02*
X0068537Y0208959D01*
X0062537Y0226037D02*
X0062537Y0228963D01*
X0065463Y0228963D01*
X0065463Y0226037D01*
X0062537Y0226037D01*
X0062537Y0227011D02*
X0065463Y0227011D01*
X0065463Y0227985D02*
X0062537Y0227985D01*
X0062537Y0228959D02*
X0065463Y0228959D01*
X0062537Y0232037D02*
X0062537Y0234963D01*
X0065463Y0234963D01*
X0065463Y0232037D01*
X0062537Y0232037D01*
X0062537Y0233011D02*
X0065463Y0233011D01*
X0065463Y0233985D02*
X0062537Y0233985D01*
X0062537Y0234959D02*
X0065463Y0234959D01*
X0051537Y0234963D02*
X0051537Y0232037D01*
X0051537Y0234963D02*
X0054463Y0234963D01*
X0054463Y0232037D01*
X0051537Y0232037D01*
X0051537Y0233011D02*
X0054463Y0233011D01*
X0054463Y0233985D02*
X0051537Y0233985D01*
X0051537Y0234959D02*
X0054463Y0234959D01*
X0051537Y0228963D02*
X0051537Y0226037D01*
X0051537Y0228963D02*
X0054463Y0228963D01*
X0054463Y0226037D01*
X0051537Y0226037D01*
X0051537Y0227011D02*
X0054463Y0227011D01*
X0054463Y0227985D02*
X0051537Y0227985D01*
X0051537Y0228959D02*
X0054463Y0228959D01*
X0032463Y0270037D02*
X0032463Y0272963D01*
X0032463Y0270037D02*
X0029537Y0270037D01*
X0029537Y0272963D01*
X0032463Y0272963D01*
X0032463Y0271011D02*
X0029537Y0271011D01*
X0029537Y0271985D02*
X0032463Y0271985D01*
X0032463Y0272959D02*
X0029537Y0272959D01*
X0032463Y0276037D02*
X0032463Y0278963D01*
X0032463Y0276037D02*
X0029537Y0276037D01*
X0029537Y0278963D01*
X0032463Y0278963D01*
X0032463Y0277011D02*
X0029537Y0277011D01*
X0029537Y0277985D02*
X0032463Y0277985D01*
X0032463Y0278959D02*
X0029537Y0278959D01*
X0037463Y0289037D02*
X0037463Y0291963D01*
X0037463Y0289037D02*
X0034537Y0289037D01*
X0034537Y0291963D01*
X0037463Y0291963D01*
X0037463Y0290011D02*
X0034537Y0290011D01*
X0034537Y0290985D02*
X0037463Y0290985D01*
X0037463Y0291959D02*
X0034537Y0291959D01*
X0037463Y0295037D02*
X0037463Y0297963D01*
X0037463Y0295037D02*
X0034537Y0295037D01*
X0034537Y0297963D01*
X0037463Y0297963D01*
X0037463Y0296011D02*
X0034537Y0296011D01*
X0034537Y0296985D02*
X0037463Y0296985D01*
X0037463Y0297959D02*
X0034537Y0297959D01*
X0039463Y0316037D02*
X0039463Y0318963D01*
X0039463Y0316037D02*
X0036537Y0316037D01*
X0036537Y0318963D01*
X0039463Y0318963D01*
X0039463Y0317011D02*
X0036537Y0317011D01*
X0036537Y0317985D02*
X0039463Y0317985D01*
X0039463Y0318959D02*
X0036537Y0318959D01*
X0039463Y0322037D02*
X0039463Y0324963D01*
X0039463Y0322037D02*
X0036537Y0322037D01*
X0036537Y0324963D01*
X0039463Y0324963D01*
X0039463Y0323011D02*
X0036537Y0323011D01*
X0036537Y0323985D02*
X0039463Y0323985D01*
X0039463Y0324959D02*
X0036537Y0324959D01*
X0047463Y0324963D02*
X0047463Y0322037D01*
X0044537Y0322037D01*
X0044537Y0324963D01*
X0047463Y0324963D01*
X0047463Y0323011D02*
X0044537Y0323011D01*
X0044537Y0323985D02*
X0047463Y0323985D01*
X0047463Y0324959D02*
X0044537Y0324959D01*
X0055537Y0324963D02*
X0055537Y0322037D01*
X0055537Y0324963D02*
X0058463Y0324963D01*
X0058463Y0322037D01*
X0055537Y0322037D01*
X0055537Y0323011D02*
X0058463Y0323011D01*
X0058463Y0323985D02*
X0055537Y0323985D01*
X0055537Y0324959D02*
X0058463Y0324959D01*
X0063537Y0324963D02*
X0063537Y0322037D01*
X0063537Y0324963D02*
X0066463Y0324963D01*
X0066463Y0322037D01*
X0063537Y0322037D01*
X0063537Y0323011D02*
X0066463Y0323011D01*
X0066463Y0323985D02*
X0063537Y0323985D01*
X0063537Y0324959D02*
X0066463Y0324959D01*
X0063537Y0318963D02*
X0063537Y0316037D01*
X0063537Y0318963D02*
X0066463Y0318963D01*
X0066463Y0316037D01*
X0063537Y0316037D01*
X0063537Y0317011D02*
X0066463Y0317011D01*
X0066463Y0317985D02*
X0063537Y0317985D01*
X0063537Y0318959D02*
X0066463Y0318959D01*
X0055537Y0318963D02*
X0055537Y0316037D01*
X0055537Y0318963D02*
X0058463Y0318963D01*
X0058463Y0316037D01*
X0055537Y0316037D01*
X0055537Y0317011D02*
X0058463Y0317011D01*
X0058463Y0317985D02*
X0055537Y0317985D01*
X0055537Y0318959D02*
X0058463Y0318959D01*
X0047463Y0318963D02*
X0047463Y0316037D01*
X0044537Y0316037D01*
X0044537Y0318963D01*
X0047463Y0318963D01*
X0047463Y0317011D02*
X0044537Y0317011D01*
X0044537Y0317985D02*
X0047463Y0317985D01*
X0047463Y0318959D02*
X0044537Y0318959D01*
X0071537Y0333037D02*
X0071537Y0335963D01*
X0074463Y0335963D01*
X0074463Y0333037D01*
X0071537Y0333037D01*
X0071537Y0334011D02*
X0074463Y0334011D01*
X0074463Y0334985D02*
X0071537Y0334985D01*
X0071537Y0335959D02*
X0074463Y0335959D01*
X0071537Y0339037D02*
X0071537Y0341963D01*
X0074463Y0341963D01*
X0074463Y0339037D01*
X0071537Y0339037D01*
X0071537Y0340011D02*
X0074463Y0340011D01*
X0074463Y0340985D02*
X0071537Y0340985D01*
X0071537Y0341959D02*
X0074463Y0341959D01*
X0108537Y0351037D02*
X0108537Y0353963D01*
X0111463Y0353963D01*
X0111463Y0351037D01*
X0108537Y0351037D01*
X0108537Y0352011D02*
X0111463Y0352011D01*
X0111463Y0352985D02*
X0108537Y0352985D01*
X0108537Y0353959D02*
X0111463Y0353959D01*
X0108537Y0357037D02*
X0108537Y0359963D01*
X0111463Y0359963D01*
X0111463Y0357037D01*
X0108537Y0357037D01*
X0108537Y0358011D02*
X0111463Y0358011D01*
X0111463Y0358985D02*
X0108537Y0358985D01*
X0108537Y0359959D02*
X0111463Y0359959D01*
X0055537Y0395037D02*
X0055537Y0397963D01*
X0058463Y0397963D01*
X0058463Y0395037D01*
X0055537Y0395037D01*
X0055537Y0396011D02*
X0058463Y0396011D01*
X0058463Y0396985D02*
X0055537Y0396985D01*
X0055537Y0397959D02*
X0058463Y0397959D01*
X0055537Y0401037D02*
X0055537Y0403963D01*
X0058463Y0403963D01*
X0058463Y0401037D01*
X0055537Y0401037D01*
X0055537Y0402011D02*
X0058463Y0402011D01*
X0058463Y0402985D02*
X0055537Y0402985D01*
X0055537Y0403959D02*
X0058463Y0403959D01*
X0027463Y0379037D02*
X0024537Y0379037D01*
X0024537Y0381963D01*
X0027463Y0381963D01*
X0027463Y0379037D01*
X0027463Y0380011D02*
X0024537Y0380011D01*
X0024537Y0380985D02*
X0027463Y0380985D01*
X0027463Y0381959D02*
X0024537Y0381959D01*
X0021463Y0379037D02*
X0018537Y0379037D01*
X0018537Y0381963D01*
X0021463Y0381963D01*
X0021463Y0379037D01*
X0021463Y0380011D02*
X0018537Y0380011D01*
X0018537Y0380985D02*
X0021463Y0380985D01*
X0021463Y0381959D02*
X0018537Y0381959D01*
X0366463Y0295963D02*
X0366463Y0293037D01*
X0363537Y0293037D01*
X0363537Y0295963D01*
X0366463Y0295963D01*
X0366463Y0294011D02*
X0363537Y0294011D01*
X0363537Y0294985D02*
X0366463Y0294985D01*
X0366463Y0295959D02*
X0363537Y0295959D01*
X0366463Y0289963D02*
X0366463Y0287037D01*
X0363537Y0287037D01*
X0363537Y0289963D01*
X0366463Y0289963D01*
X0366463Y0288011D02*
X0363537Y0288011D01*
X0363537Y0288985D02*
X0366463Y0288985D01*
X0366463Y0289959D02*
X0363537Y0289959D01*
X0563463Y0295037D02*
X0563463Y0297963D01*
X0563463Y0295037D02*
X0560537Y0295037D01*
X0560537Y0297963D01*
X0563463Y0297963D01*
X0563463Y0296011D02*
X0560537Y0296011D01*
X0560537Y0296985D02*
X0563463Y0296985D01*
X0563463Y0297959D02*
X0560537Y0297959D01*
X0563463Y0301037D02*
X0563463Y0303963D01*
X0563463Y0301037D02*
X0560537Y0301037D01*
X0560537Y0303963D01*
X0563463Y0303963D01*
X0563463Y0302011D02*
X0560537Y0302011D01*
X0560537Y0302985D02*
X0563463Y0302985D01*
X0563463Y0303959D02*
X0560537Y0303959D01*
X0601537Y0291963D02*
X0601537Y0289037D01*
X0601537Y0291963D02*
X0604463Y0291963D01*
X0604463Y0289037D01*
X0601537Y0289037D01*
X0601537Y0290011D02*
X0604463Y0290011D01*
X0604463Y0290985D02*
X0601537Y0290985D01*
X0601537Y0291959D02*
X0604463Y0291959D01*
X0601537Y0285963D02*
X0601537Y0283037D01*
X0601537Y0285963D02*
X0604463Y0285963D01*
X0604463Y0283037D01*
X0601537Y0283037D01*
X0601537Y0284011D02*
X0604463Y0284011D01*
X0604463Y0284985D02*
X0601537Y0284985D01*
X0601537Y0285959D02*
X0604463Y0285959D01*
X0628537Y0285963D02*
X0628537Y0283037D01*
X0628537Y0285963D02*
X0631463Y0285963D01*
X0631463Y0283037D01*
X0628537Y0283037D01*
X0628537Y0284011D02*
X0631463Y0284011D01*
X0631463Y0284985D02*
X0628537Y0284985D01*
X0628537Y0285959D02*
X0631463Y0285959D01*
X0628537Y0289037D02*
X0628537Y0291963D01*
X0631463Y0291963D01*
X0631463Y0289037D01*
X0628537Y0289037D01*
X0628537Y0290011D02*
X0631463Y0290011D01*
X0631463Y0290985D02*
X0628537Y0290985D01*
X0628537Y0291959D02*
X0631463Y0291959D01*
X0671537Y0305037D02*
X0671537Y0307963D01*
X0674463Y0307963D01*
X0674463Y0305037D01*
X0671537Y0305037D01*
X0671537Y0306011D02*
X0674463Y0306011D01*
X0674463Y0306985D02*
X0671537Y0306985D01*
X0671537Y0307959D02*
X0674463Y0307959D01*
X0671537Y0311037D02*
X0671537Y0313963D01*
X0674463Y0313963D01*
X0674463Y0311037D01*
X0671537Y0311037D01*
X0671537Y0312011D02*
X0674463Y0312011D01*
X0674463Y0312985D02*
X0671537Y0312985D01*
X0671537Y0313959D02*
X0674463Y0313959D01*
X0682463Y0313963D02*
X0682463Y0311037D01*
X0679537Y0311037D01*
X0679537Y0313963D01*
X0682463Y0313963D01*
X0682463Y0312011D02*
X0679537Y0312011D01*
X0679537Y0312985D02*
X0682463Y0312985D01*
X0682463Y0313959D02*
X0679537Y0313959D01*
X0682463Y0307963D02*
X0682463Y0305037D01*
X0679537Y0305037D01*
X0679537Y0307963D01*
X0682463Y0307963D01*
X0682463Y0306011D02*
X0679537Y0306011D01*
X0679537Y0306985D02*
X0682463Y0306985D01*
X0682463Y0307959D02*
X0679537Y0307959D01*
X0779463Y0256963D02*
X0779463Y0254037D01*
X0776537Y0254037D01*
X0776537Y0256963D01*
X0779463Y0256963D01*
X0779463Y0255011D02*
X0776537Y0255011D01*
X0776537Y0255985D02*
X0779463Y0255985D01*
X0779463Y0256959D02*
X0776537Y0256959D01*
X0779463Y0250963D02*
X0779463Y0248037D01*
X0776537Y0248037D01*
X0776537Y0250963D01*
X0779463Y0250963D01*
X0779463Y0249011D02*
X0776537Y0249011D01*
X0776537Y0249985D02*
X0779463Y0249985D01*
X0779463Y0250959D02*
X0776537Y0250959D01*
X0787463Y0250963D02*
X0787463Y0248037D01*
X0784537Y0248037D01*
X0784537Y0250963D01*
X0787463Y0250963D01*
X0787463Y0249011D02*
X0784537Y0249011D01*
X0784537Y0249985D02*
X0787463Y0249985D01*
X0787463Y0250959D02*
X0784537Y0250959D01*
X0787463Y0254037D02*
X0787463Y0256963D01*
X0787463Y0254037D02*
X0784537Y0254037D01*
X0784537Y0256963D01*
X0787463Y0256963D01*
X0787463Y0255011D02*
X0784537Y0255011D01*
X0784537Y0255985D02*
X0787463Y0255985D01*
X0787463Y0256959D02*
X0784537Y0256959D01*
X0819463Y0256963D02*
X0819463Y0254037D01*
X0816537Y0254037D01*
X0816537Y0256963D01*
X0819463Y0256963D01*
X0819463Y0255011D02*
X0816537Y0255011D01*
X0816537Y0255985D02*
X0819463Y0255985D01*
X0819463Y0256959D02*
X0816537Y0256959D01*
X0819463Y0250963D02*
X0819463Y0248037D01*
X0816537Y0248037D01*
X0816537Y0250963D01*
X0819463Y0250963D01*
X0819463Y0249011D02*
X0816537Y0249011D01*
X0816537Y0249985D02*
X0819463Y0249985D01*
X0819463Y0250959D02*
X0816537Y0250959D01*
X0825537Y0250463D02*
X0825537Y0247537D01*
X0825537Y0250463D02*
X0828463Y0250463D01*
X0828463Y0247537D01*
X0825537Y0247537D01*
X0825537Y0248511D02*
X0828463Y0248511D01*
X0828463Y0249485D02*
X0825537Y0249485D01*
X0825537Y0250459D02*
X0828463Y0250459D01*
X0825537Y0253537D02*
X0825537Y0256463D01*
X0828463Y0256463D01*
X0828463Y0253537D01*
X0825537Y0253537D01*
X0825537Y0254511D02*
X0828463Y0254511D01*
X0828463Y0255485D02*
X0825537Y0255485D01*
X0825537Y0256459D02*
X0828463Y0256459D01*
X0908537Y0190963D02*
X0911463Y0190963D01*
X0911463Y0188037D01*
X0908537Y0188037D01*
X0908537Y0190963D01*
X0908537Y0189011D02*
X0911463Y0189011D01*
X0911463Y0189985D02*
X0908537Y0189985D01*
X0908537Y0190959D02*
X0911463Y0190959D01*
X0914537Y0190963D02*
X0917463Y0190963D01*
X0917463Y0188037D01*
X0914537Y0188037D01*
X0914537Y0190963D01*
X0914537Y0189011D02*
X0917463Y0189011D01*
X0917463Y0189985D02*
X0914537Y0189985D01*
X0914537Y0190959D02*
X0917463Y0190959D01*
X0940537Y0188037D02*
X0943463Y0188037D01*
X0940537Y0188037D02*
X0940537Y0190963D01*
X0943463Y0190963D01*
X0943463Y0188037D01*
X0943463Y0189011D02*
X0940537Y0189011D01*
X0940537Y0189985D02*
X0943463Y0189985D01*
X0943463Y0190959D02*
X0940537Y0190959D01*
X0946537Y0188037D02*
X0949463Y0188037D01*
X0946537Y0188037D02*
X0946537Y0190963D01*
X0949463Y0190963D01*
X0949463Y0188037D01*
X0949463Y0189011D02*
X0946537Y0189011D01*
X0946537Y0189985D02*
X0949463Y0189985D01*
X0949463Y0190959D02*
X0946537Y0190959D01*
X0899463Y0113963D02*
X0899463Y0111037D01*
X0896537Y0111037D01*
X0896537Y0113963D01*
X0899463Y0113963D01*
X0899463Y0112011D02*
X0896537Y0112011D01*
X0896537Y0112985D02*
X0899463Y0112985D01*
X0899463Y0113959D02*
X0896537Y0113959D01*
X0899463Y0107963D02*
X0899463Y0105037D01*
X0896537Y0105037D01*
X0896537Y0107963D01*
X0899463Y0107963D01*
X0899463Y0106011D02*
X0896537Y0106011D01*
X0896537Y0106985D02*
X0899463Y0106985D01*
X0899463Y0107959D02*
X0896537Y0107959D01*
X0905537Y0091037D02*
X0908463Y0091037D01*
X0905537Y0091037D02*
X0905537Y0093963D01*
X0908463Y0093963D01*
X0908463Y0091037D01*
X0908463Y0092011D02*
X0905537Y0092011D01*
X0905537Y0092985D02*
X0908463Y0092985D01*
X0908463Y0093959D02*
X0905537Y0093959D01*
X0911537Y0091037D02*
X0914463Y0091037D01*
X0911537Y0091037D02*
X0911537Y0093963D01*
X0914463Y0093963D01*
X0914463Y0091037D01*
X0914463Y0092011D02*
X0911537Y0092011D01*
X0911537Y0092985D02*
X0914463Y0092985D01*
X0914463Y0093959D02*
X0911537Y0093959D01*
X0911537Y0081037D02*
X0914463Y0081037D01*
X0911537Y0081037D02*
X0911537Y0083963D01*
X0914463Y0083963D01*
X0914463Y0081037D01*
X0914463Y0082011D02*
X0911537Y0082011D01*
X0911537Y0082985D02*
X0914463Y0082985D01*
X0914463Y0083959D02*
X0911537Y0083959D01*
X0908463Y0081037D02*
X0905537Y0081037D01*
X0905537Y0083963D01*
X0908463Y0083963D01*
X0908463Y0081037D01*
X0908463Y0082011D02*
X0905537Y0082011D01*
X0905537Y0082985D02*
X0908463Y0082985D01*
X0908463Y0083959D02*
X0905537Y0083959D01*
X0755463Y0109037D02*
X0755463Y0111963D01*
X0755463Y0109037D02*
X0752537Y0109037D01*
X0752537Y0111963D01*
X0755463Y0111963D01*
X0755463Y0110011D02*
X0752537Y0110011D01*
X0752537Y0110985D02*
X0755463Y0110985D01*
X0755463Y0111959D02*
X0752537Y0111959D01*
X0755463Y0115037D02*
X0755463Y0117963D01*
X0755463Y0115037D02*
X0752537Y0115037D01*
X0752537Y0117963D01*
X0755463Y0117963D01*
X0755463Y0116011D02*
X0752537Y0116011D01*
X0752537Y0116985D02*
X0755463Y0116985D01*
X0755463Y0117959D02*
X0752537Y0117959D01*
X0710463Y0127963D02*
X0707537Y0127963D01*
X0710463Y0127963D02*
X0710463Y0125037D01*
X0707537Y0125037D01*
X0707537Y0127963D01*
X0707537Y0126011D02*
X0710463Y0126011D01*
X0710463Y0126985D02*
X0707537Y0126985D01*
X0707537Y0127959D02*
X0710463Y0127959D01*
X0704463Y0127963D02*
X0701537Y0127963D01*
X0704463Y0127963D02*
X0704463Y0125037D01*
X0701537Y0125037D01*
X0701537Y0127963D01*
X0701537Y0126011D02*
X0704463Y0126011D01*
X0704463Y0126985D02*
X0701537Y0126985D01*
X0701537Y0127959D02*
X0704463Y0127959D01*
X0613537Y0127037D02*
X0613537Y0129963D01*
X0616463Y0129963D01*
X0616463Y0127037D01*
X0613537Y0127037D01*
X0613537Y0128011D02*
X0616463Y0128011D01*
X0616463Y0128985D02*
X0613537Y0128985D01*
X0613537Y0129959D02*
X0616463Y0129959D01*
X0613537Y0123963D02*
X0613537Y0121037D01*
X0613537Y0123963D02*
X0616463Y0123963D01*
X0616463Y0121037D01*
X0613537Y0121037D01*
X0613537Y0122011D02*
X0616463Y0122011D01*
X0616463Y0122985D02*
X0613537Y0122985D01*
X0613537Y0123959D02*
X0616463Y0123959D01*
X0586537Y0123963D02*
X0586537Y0121037D01*
X0586537Y0123963D02*
X0589463Y0123963D01*
X0589463Y0121037D01*
X0586537Y0121037D01*
X0586537Y0122011D02*
X0589463Y0122011D01*
X0589463Y0122985D02*
X0586537Y0122985D01*
X0586537Y0123959D02*
X0589463Y0123959D01*
X0586537Y0127037D02*
X0586537Y0129963D01*
X0589463Y0129963D01*
X0589463Y0127037D01*
X0586537Y0127037D01*
X0586537Y0128011D02*
X0589463Y0128011D01*
X0589463Y0128985D02*
X0586537Y0128985D01*
X0586537Y0129959D02*
X0589463Y0129959D01*
X0545463Y0117963D02*
X0545463Y0115037D01*
X0542537Y0115037D01*
X0542537Y0117963D01*
X0545463Y0117963D01*
X0545463Y0116011D02*
X0542537Y0116011D01*
X0542537Y0116985D02*
X0545463Y0116985D01*
X0545463Y0117959D02*
X0542537Y0117959D01*
X0536463Y0117963D02*
X0536463Y0115037D01*
X0533537Y0115037D01*
X0533537Y0117963D01*
X0536463Y0117963D01*
X0536463Y0116011D02*
X0533537Y0116011D01*
X0533537Y0116985D02*
X0536463Y0116985D01*
X0536463Y0117959D02*
X0533537Y0117959D01*
X0527463Y0117963D02*
X0527463Y0115037D01*
X0524537Y0115037D01*
X0524537Y0117963D01*
X0527463Y0117963D01*
X0527463Y0116011D02*
X0524537Y0116011D01*
X0524537Y0116985D02*
X0527463Y0116985D01*
X0527463Y0117959D02*
X0524537Y0117959D01*
X0527463Y0111963D02*
X0527463Y0109037D01*
X0524537Y0109037D01*
X0524537Y0111963D01*
X0527463Y0111963D01*
X0527463Y0110011D02*
X0524537Y0110011D01*
X0524537Y0110985D02*
X0527463Y0110985D01*
X0527463Y0111959D02*
X0524537Y0111959D01*
X0536463Y0111963D02*
X0536463Y0109037D01*
X0533537Y0109037D01*
X0533537Y0111963D01*
X0536463Y0111963D01*
X0536463Y0110011D02*
X0533537Y0110011D01*
X0533537Y0110985D02*
X0536463Y0110985D01*
X0536463Y0111959D02*
X0533537Y0111959D01*
X0545463Y0111963D02*
X0545463Y0109037D01*
X0542537Y0109037D01*
X0542537Y0111963D01*
X0545463Y0111963D01*
X0545463Y0110011D02*
X0542537Y0110011D01*
X0542537Y0110985D02*
X0545463Y0110985D01*
X0545463Y0111959D02*
X0542537Y0111959D01*
X0523537Y0140037D02*
X0523537Y0142963D01*
X0526463Y0142963D01*
X0526463Y0140037D01*
X0523537Y0140037D01*
X0523537Y0141011D02*
X0526463Y0141011D01*
X0526463Y0141985D02*
X0523537Y0141985D01*
X0523537Y0142959D02*
X0526463Y0142959D01*
X0523537Y0146037D02*
X0523537Y0148963D01*
X0526463Y0148963D01*
X0526463Y0146037D01*
X0523537Y0146037D01*
X0523537Y0147011D02*
X0526463Y0147011D01*
X0526463Y0147985D02*
X0523537Y0147985D01*
X0523537Y0148959D02*
X0526463Y0148959D01*
X0593463Y0152037D02*
X0593463Y0154963D01*
X0593463Y0152037D02*
X0590537Y0152037D01*
X0590537Y0154963D01*
X0593463Y0154963D01*
X0593463Y0153011D02*
X0590537Y0153011D01*
X0590537Y0153985D02*
X0593463Y0153985D01*
X0593463Y0154959D02*
X0590537Y0154959D01*
X0593463Y0158037D02*
X0593463Y0160963D01*
X0593463Y0158037D02*
X0590537Y0158037D01*
X0590537Y0160963D01*
X0593463Y0160963D01*
X0593463Y0159011D02*
X0590537Y0159011D01*
X0590537Y0159985D02*
X0593463Y0159985D01*
X0593463Y0160959D02*
X0590537Y0160959D01*
X0565463Y0197037D02*
X0565463Y0199963D01*
X0565463Y0197037D02*
X0562537Y0197037D01*
X0562537Y0199963D01*
X0565463Y0199963D01*
X0565463Y0198011D02*
X0562537Y0198011D01*
X0562537Y0198985D02*
X0565463Y0198985D01*
X0565463Y0199959D02*
X0562537Y0199959D01*
X0565463Y0203037D02*
X0565463Y0205963D01*
X0565463Y0203037D02*
X0562537Y0203037D01*
X0562537Y0205963D01*
X0565463Y0205963D01*
X0565463Y0204011D02*
X0562537Y0204011D01*
X0562537Y0204985D02*
X0565463Y0204985D01*
X0565463Y0205959D02*
X0562537Y0205959D01*
X0680463Y0235037D02*
X0680463Y0237963D01*
X0680463Y0235037D02*
X0677537Y0235037D01*
X0677537Y0237963D01*
X0680463Y0237963D01*
X0680463Y0236011D02*
X0677537Y0236011D01*
X0677537Y0236985D02*
X0680463Y0236985D01*
X0680463Y0237959D02*
X0677537Y0237959D01*
X0680463Y0241037D02*
X0680463Y0243963D01*
X0680463Y0241037D02*
X0677537Y0241037D01*
X0677537Y0243963D01*
X0680463Y0243963D01*
X0680463Y0242011D02*
X0677537Y0242011D01*
X0677537Y0242985D02*
X0680463Y0242985D01*
X0680463Y0243959D02*
X0677537Y0243959D01*
X0690463Y0243963D02*
X0690463Y0241037D01*
X0687537Y0241037D01*
X0687537Y0243963D01*
X0690463Y0243963D01*
X0690463Y0242011D02*
X0687537Y0242011D01*
X0687537Y0242985D02*
X0690463Y0242985D01*
X0690463Y0243959D02*
X0687537Y0243959D01*
X0690463Y0237963D02*
X0690463Y0235037D01*
X0687537Y0235037D01*
X0687537Y0237963D01*
X0690463Y0237963D01*
X0690463Y0236011D02*
X0687537Y0236011D01*
X0687537Y0236985D02*
X0690463Y0236985D01*
X0690463Y0237959D02*
X0687537Y0237959D01*
X0138586Y0053879D02*
X0138586Y0050953D01*
X0138586Y0053879D02*
X0141512Y0053879D01*
X0141512Y0050953D01*
X0138586Y0050953D01*
X0138586Y0051927D02*
X0141512Y0051927D01*
X0141512Y0052901D02*
X0138586Y0052901D01*
X0138586Y0053875D02*
X0141512Y0053875D01*
X0138586Y0047879D02*
X0138586Y0044953D01*
X0138586Y0047879D02*
X0141512Y0047879D01*
X0141512Y0044953D01*
X0138586Y0044953D01*
X0138586Y0045927D02*
X0141512Y0045927D01*
X0141512Y0046901D02*
X0138586Y0046901D01*
X0138586Y0047875D02*
X0141512Y0047875D01*
X0141547Y0037012D02*
X0141547Y0034086D01*
X0138621Y0034086D01*
X0138621Y0037012D01*
X0141547Y0037012D01*
X0141547Y0035060D02*
X0138621Y0035060D01*
X0138621Y0036034D02*
X0141547Y0036034D01*
X0141547Y0037008D02*
X0138621Y0037008D01*
X0141547Y0031012D02*
X0141547Y0028086D01*
X0138621Y0028086D01*
X0138621Y0031012D01*
X0141547Y0031012D01*
X0141547Y0029060D02*
X0138621Y0029060D01*
X0138621Y0030034D02*
X0141547Y0030034D01*
X0141547Y0031008D02*
X0138621Y0031008D01*
X0036463Y0057037D02*
X0036463Y0059963D01*
X0036463Y0057037D02*
X0033537Y0057037D01*
X0033537Y0059963D01*
X0036463Y0059963D01*
X0036463Y0058011D02*
X0033537Y0058011D01*
X0033537Y0058985D02*
X0036463Y0058985D01*
X0036463Y0059959D02*
X0033537Y0059959D01*
X0036463Y0063037D02*
X0036463Y0065963D01*
X0036463Y0063037D02*
X0033537Y0063037D01*
X0033537Y0065963D01*
X0036463Y0065963D01*
X0036463Y0064011D02*
X0033537Y0064011D01*
X0033537Y0064985D02*
X0036463Y0064985D01*
X0036463Y0065959D02*
X0033537Y0065959D01*
D14*
X0129084Y0055549D03*
X0129084Y0045549D03*
X0128916Y0035451D03*
X0128916Y0025451D03*
X0232000Y0062500D03*
X0232000Y0072500D03*
X0232000Y0082500D03*
X0232000Y0092500D03*
X0211000Y0162500D03*
X0201000Y0162500D03*
X0255000Y0164500D03*
X0265000Y0164500D03*
X0573000Y0204500D03*
X0583000Y0204500D03*
X0582000Y0301500D03*
X0572000Y0301500D03*
X0898000Y0080500D03*
X0898000Y0070500D03*
X0921000Y0082500D03*
X0931000Y0082500D03*
X0066000Y0396500D03*
X0066000Y0406500D03*
D15*
X0023600Y0373650D02*
X0023600Y0370350D01*
X0023600Y0373650D02*
X0028400Y0373650D01*
X0028400Y0370350D01*
X0023600Y0370350D01*
X0023600Y0371449D02*
X0028400Y0371449D01*
X0028400Y0372548D02*
X0023600Y0372548D01*
X0023600Y0373647D02*
X0028400Y0373647D01*
X0019400Y0373650D02*
X0019400Y0370350D01*
X0014600Y0370350D01*
X0014600Y0373650D01*
X0019400Y0373650D01*
X0019400Y0371449D02*
X0014600Y0371449D01*
X0014600Y0372548D02*
X0019400Y0372548D01*
X0019400Y0373647D02*
X0014600Y0373647D01*
X0019400Y0366650D02*
X0019400Y0363350D01*
X0014600Y0363350D01*
X0014600Y0366650D01*
X0019400Y0366650D01*
X0019400Y0364449D02*
X0014600Y0364449D01*
X0014600Y0365548D02*
X0019400Y0365548D01*
X0019400Y0366647D02*
X0014600Y0366647D01*
X0023600Y0366650D02*
X0023600Y0363350D01*
X0023600Y0366650D02*
X0028400Y0366650D01*
X0028400Y0363350D01*
X0023600Y0363350D01*
X0023600Y0364449D02*
X0028400Y0364449D01*
X0028400Y0365548D02*
X0023600Y0365548D01*
X0023600Y0366647D02*
X0028400Y0366647D01*
X0612850Y0293900D02*
X0616150Y0293900D01*
X0616150Y0289100D01*
X0612850Y0289100D01*
X0612850Y0293900D01*
X0612850Y0290199D02*
X0616150Y0290199D01*
X0616150Y0291298D02*
X0612850Y0291298D01*
X0612850Y0292397D02*
X0616150Y0292397D01*
X0616150Y0293496D02*
X0612850Y0293496D01*
X0619850Y0293900D02*
X0623150Y0293900D01*
X0623150Y0289100D01*
X0619850Y0289100D01*
X0619850Y0293900D01*
X0619850Y0290199D02*
X0623150Y0290199D01*
X0623150Y0291298D02*
X0619850Y0291298D01*
X0619850Y0292397D02*
X0623150Y0292397D01*
X0623150Y0293496D02*
X0619850Y0293496D01*
X0619850Y0284900D02*
X0623150Y0284900D01*
X0623150Y0280100D01*
X0619850Y0280100D01*
X0619850Y0284900D01*
X0619850Y0281199D02*
X0623150Y0281199D01*
X0623150Y0282298D02*
X0619850Y0282298D01*
X0619850Y0283397D02*
X0623150Y0283397D01*
X0623150Y0284496D02*
X0619850Y0284496D01*
X0616150Y0284900D02*
X0612850Y0284900D01*
X0616150Y0284900D02*
X0616150Y0280100D01*
X0612850Y0280100D01*
X0612850Y0284900D01*
X0612850Y0281199D02*
X0616150Y0281199D01*
X0616150Y0282298D02*
X0612850Y0282298D01*
X0612850Y0283397D02*
X0616150Y0283397D01*
X0616150Y0284496D02*
X0612850Y0284496D01*
X0212150Y0049100D02*
X0208850Y0049100D01*
X0208850Y0053900D01*
X0212150Y0053900D01*
X0212150Y0049100D01*
X0212150Y0050199D02*
X0208850Y0050199D01*
X0208850Y0051298D02*
X0212150Y0051298D01*
X0212150Y0052397D02*
X0208850Y0052397D01*
X0208850Y0053496D02*
X0212150Y0053496D01*
X0205150Y0049100D02*
X0201850Y0049100D01*
X0201850Y0053900D01*
X0205150Y0053900D01*
X0205150Y0049100D01*
X0205150Y0050199D02*
X0201850Y0050199D01*
X0201850Y0051298D02*
X0205150Y0051298D01*
X0205150Y0052397D02*
X0201850Y0052397D01*
X0201850Y0053496D02*
X0205150Y0053496D01*
X0193150Y0017100D02*
X0189850Y0017100D01*
X0189850Y0021900D01*
X0193150Y0021900D01*
X0193150Y0017100D01*
X0193150Y0018199D02*
X0189850Y0018199D01*
X0189850Y0019298D02*
X0193150Y0019298D01*
X0193150Y0020397D02*
X0189850Y0020397D01*
X0189850Y0021496D02*
X0193150Y0021496D01*
X0186150Y0017100D02*
X0182850Y0017100D01*
X0182850Y0021900D01*
X0186150Y0021900D01*
X0186150Y0017100D01*
X0186150Y0018199D02*
X0182850Y0018199D01*
X0182850Y0019298D02*
X0186150Y0019298D01*
X0186150Y0020397D02*
X0182850Y0020397D01*
X0182850Y0021496D02*
X0186150Y0021496D01*
X0351201Y0024884D02*
X0354501Y0024884D01*
X0354501Y0020084D01*
X0351201Y0020084D01*
X0351201Y0024884D01*
X0351201Y0021183D02*
X0354501Y0021183D01*
X0354501Y0022282D02*
X0351201Y0022282D01*
X0351201Y0023381D02*
X0354501Y0023381D01*
X0354501Y0024480D02*
X0351201Y0024480D01*
X0358201Y0024884D02*
X0361501Y0024884D01*
X0361501Y0020084D01*
X0358201Y0020084D01*
X0358201Y0024884D01*
X0358201Y0021183D02*
X0361501Y0021183D01*
X0361501Y0022282D02*
X0358201Y0022282D01*
X0358201Y0023381D02*
X0361501Y0023381D01*
X0361501Y0024480D02*
X0358201Y0024480D01*
D16*
X0927000Y0105799D03*
X0927000Y0123201D03*
D17*
X0896475Y0095775D02*
X0896475Y0093225D01*
X0896475Y0095775D02*
X0899525Y0095775D01*
X0899525Y0093225D01*
X0896475Y0093225D01*
X0896475Y0094074D02*
X0899525Y0094074D01*
X0899525Y0094923D02*
X0896475Y0094923D01*
X0896475Y0095772D02*
X0899525Y0095772D01*
X0896475Y0089775D02*
X0896475Y0087225D01*
X0896475Y0089775D02*
X0899525Y0089775D01*
X0899525Y0087225D01*
X0896475Y0087225D01*
X0896475Y0088074D02*
X0899525Y0088074D01*
X0899525Y0088923D02*
X0896475Y0088923D01*
X0896475Y0089772D02*
X0899525Y0089772D01*
X0925525Y0188225D02*
X0925525Y0190775D01*
X0925525Y0188225D02*
X0922475Y0188225D01*
X0922475Y0190775D01*
X0925525Y0190775D01*
X0925525Y0189074D02*
X0922475Y0189074D01*
X0922475Y0189923D02*
X0925525Y0189923D01*
X0925525Y0190772D02*
X0922475Y0190772D01*
X0925525Y0194225D02*
X0925525Y0196775D01*
X0925525Y0194225D02*
X0922475Y0194225D01*
X0922475Y0196775D01*
X0925525Y0196775D01*
X0925525Y0195074D02*
X0922475Y0195074D01*
X0922475Y0195923D02*
X0925525Y0195923D01*
X0925525Y0196772D02*
X0922475Y0196772D01*
X0935525Y0196775D02*
X0935525Y0194225D01*
X0932475Y0194225D01*
X0932475Y0196775D01*
X0935525Y0196775D01*
X0935525Y0195074D02*
X0932475Y0195074D01*
X0932475Y0195923D02*
X0935525Y0195923D01*
X0935525Y0196772D02*
X0932475Y0196772D01*
X0935525Y0190775D02*
X0935525Y0188225D01*
X0932475Y0188225D01*
X0932475Y0190775D01*
X0935525Y0190775D01*
X0935525Y0189074D02*
X0932475Y0189074D01*
X0932475Y0189923D02*
X0935525Y0189923D01*
X0935525Y0190772D02*
X0932475Y0190772D01*
X0542475Y0103775D02*
X0542475Y0101225D01*
X0542475Y0103775D02*
X0545525Y0103775D01*
X0545525Y0101225D01*
X0542475Y0101225D01*
X0542475Y0102074D02*
X0545525Y0102074D01*
X0545525Y0102923D02*
X0542475Y0102923D01*
X0542475Y0103772D02*
X0545525Y0103772D01*
X0542475Y0097775D02*
X0542475Y0095225D01*
X0542475Y0097775D02*
X0545525Y0097775D01*
X0545525Y0095225D01*
X0542475Y0095225D01*
X0542475Y0096074D02*
X0545525Y0096074D01*
X0545525Y0096923D02*
X0542475Y0096923D01*
X0542475Y0097772D02*
X0545525Y0097772D01*
X0533475Y0097775D02*
X0533475Y0095225D01*
X0533475Y0097775D02*
X0536525Y0097775D01*
X0536525Y0095225D01*
X0533475Y0095225D01*
X0533475Y0096074D02*
X0536525Y0096074D01*
X0536525Y0096923D02*
X0533475Y0096923D01*
X0533475Y0097772D02*
X0536525Y0097772D01*
X0533475Y0101225D02*
X0533475Y0103775D01*
X0536525Y0103775D01*
X0536525Y0101225D01*
X0533475Y0101225D01*
X0533475Y0102074D02*
X0536525Y0102074D01*
X0536525Y0102923D02*
X0533475Y0102923D01*
X0533475Y0103772D02*
X0536525Y0103772D01*
X0524475Y0103775D02*
X0524475Y0101225D01*
X0524475Y0103775D02*
X0527525Y0103775D01*
X0527525Y0101225D01*
X0524475Y0101225D01*
X0524475Y0102074D02*
X0527525Y0102074D01*
X0527525Y0102923D02*
X0524475Y0102923D01*
X0524475Y0103772D02*
X0527525Y0103772D01*
X0524475Y0097775D02*
X0524475Y0095225D01*
X0524475Y0097775D02*
X0527525Y0097775D01*
X0527525Y0095225D01*
X0524475Y0095225D01*
X0524475Y0096074D02*
X0527525Y0096074D01*
X0527525Y0096923D02*
X0524475Y0096923D01*
X0524475Y0097772D02*
X0527525Y0097772D01*
X0411475Y0027775D02*
X0411475Y0025225D01*
X0411475Y0027775D02*
X0414525Y0027775D01*
X0414525Y0025225D01*
X0411475Y0025225D01*
X0411475Y0026074D02*
X0414525Y0026074D01*
X0414525Y0026923D02*
X0411475Y0026923D01*
X0411475Y0027772D02*
X0414525Y0027772D01*
X0411475Y0021775D02*
X0411475Y0019225D01*
X0411475Y0021775D02*
X0414525Y0021775D01*
X0414525Y0019225D01*
X0411475Y0019225D01*
X0411475Y0020074D02*
X0414525Y0020074D01*
X0414525Y0020923D02*
X0411475Y0020923D01*
X0411475Y0021772D02*
X0414525Y0021772D01*
X0400475Y0021775D02*
X0400475Y0019225D01*
X0400475Y0021775D02*
X0403525Y0021775D01*
X0403525Y0019225D01*
X0400475Y0019225D01*
X0400475Y0020074D02*
X0403525Y0020074D01*
X0403525Y0020923D02*
X0400475Y0020923D01*
X0400475Y0021772D02*
X0403525Y0021772D01*
X0400475Y0025225D02*
X0400475Y0027775D01*
X0403525Y0027775D01*
X0403525Y0025225D01*
X0400475Y0025225D01*
X0400475Y0026074D02*
X0403525Y0026074D01*
X0403525Y0026923D02*
X0400475Y0026923D01*
X0400475Y0027772D02*
X0403525Y0027772D01*
X0440475Y0026775D02*
X0440475Y0024225D01*
X0440475Y0026775D02*
X0443525Y0026775D01*
X0443525Y0024225D01*
X0440475Y0024225D01*
X0440475Y0025074D02*
X0443525Y0025074D01*
X0443525Y0025923D02*
X0440475Y0025923D01*
X0440475Y0026772D02*
X0443525Y0026772D01*
X0440475Y0020775D02*
X0440475Y0018225D01*
X0440475Y0020775D02*
X0443525Y0020775D01*
X0443525Y0018225D01*
X0440475Y0018225D01*
X0440475Y0019074D02*
X0443525Y0019074D01*
X0443525Y0019923D02*
X0440475Y0019923D01*
X0440475Y0020772D02*
X0443525Y0020772D01*
X0452475Y0020775D02*
X0452475Y0018225D01*
X0452475Y0020775D02*
X0455525Y0020775D01*
X0455525Y0018225D01*
X0452475Y0018225D01*
X0452475Y0019074D02*
X0455525Y0019074D01*
X0455525Y0019923D02*
X0452475Y0019923D01*
X0452475Y0020772D02*
X0455525Y0020772D01*
X0452475Y0024225D02*
X0452475Y0026775D01*
X0455525Y0026775D01*
X0455525Y0024225D01*
X0452475Y0024225D01*
X0452475Y0025074D02*
X0455525Y0025074D01*
X0455525Y0025923D02*
X0452475Y0025923D01*
X0452475Y0026772D02*
X0455525Y0026772D01*
X0484475Y0026775D02*
X0484475Y0024225D01*
X0484475Y0026775D02*
X0487525Y0026775D01*
X0487525Y0024225D01*
X0484475Y0024225D01*
X0484475Y0025074D02*
X0487525Y0025074D01*
X0487525Y0025923D02*
X0484475Y0025923D01*
X0484475Y0026772D02*
X0487525Y0026772D01*
X0495475Y0026775D02*
X0495475Y0024225D01*
X0495475Y0026775D02*
X0498525Y0026775D01*
X0498525Y0024225D01*
X0495475Y0024225D01*
X0495475Y0025074D02*
X0498525Y0025074D01*
X0498525Y0025923D02*
X0495475Y0025923D01*
X0495475Y0026772D02*
X0498525Y0026772D01*
X0495475Y0020775D02*
X0495475Y0018225D01*
X0495475Y0020775D02*
X0498525Y0020775D01*
X0498525Y0018225D01*
X0495475Y0018225D01*
X0495475Y0019074D02*
X0498525Y0019074D01*
X0498525Y0019923D02*
X0495475Y0019923D01*
X0495475Y0020772D02*
X0498525Y0020772D01*
X0484475Y0020775D02*
X0484475Y0018225D01*
X0484475Y0020775D02*
X0487525Y0020775D01*
X0487525Y0018225D01*
X0484475Y0018225D01*
X0484475Y0019074D02*
X0487525Y0019074D01*
X0487525Y0019923D02*
X0484475Y0019923D01*
X0484475Y0020772D02*
X0487525Y0020772D01*
X0319924Y0021791D02*
X0319924Y0019241D01*
X0319924Y0021791D02*
X0322974Y0021791D01*
X0322974Y0019241D01*
X0319924Y0019241D01*
X0319924Y0020090D02*
X0322974Y0020090D01*
X0322974Y0020939D02*
X0319924Y0020939D01*
X0319924Y0021788D02*
X0322974Y0021788D01*
X0311924Y0021791D02*
X0311924Y0019241D01*
X0311924Y0021791D02*
X0314974Y0021791D01*
X0314974Y0019241D01*
X0311924Y0019241D01*
X0311924Y0020090D02*
X0314974Y0020090D01*
X0314974Y0020939D02*
X0311924Y0020939D01*
X0311924Y0021788D02*
X0314974Y0021788D01*
X0311924Y0025241D02*
X0311924Y0027791D01*
X0314974Y0027791D01*
X0314974Y0025241D01*
X0311924Y0025241D01*
X0311924Y0026090D02*
X0314974Y0026090D01*
X0314974Y0026939D02*
X0311924Y0026939D01*
X0311924Y0027788D02*
X0314974Y0027788D01*
X0319924Y0027791D02*
X0319924Y0025241D01*
X0319924Y0027791D02*
X0322974Y0027791D01*
X0322974Y0025241D01*
X0319924Y0025241D01*
X0319924Y0026090D02*
X0322974Y0026090D01*
X0322974Y0026939D02*
X0319924Y0026939D01*
X0319924Y0027788D02*
X0322974Y0027788D01*
X0192275Y0044025D02*
X0189725Y0044025D01*
X0192275Y0044025D02*
X0192275Y0040975D01*
X0189725Y0040975D01*
X0189725Y0044025D01*
X0189725Y0041824D02*
X0192275Y0041824D01*
X0192275Y0042673D02*
X0189725Y0042673D01*
X0189725Y0043522D02*
X0192275Y0043522D01*
X0186275Y0044025D02*
X0183725Y0044025D01*
X0186275Y0044025D02*
X0186275Y0040975D01*
X0183725Y0040975D01*
X0183725Y0044025D01*
X0183725Y0041824D02*
X0186275Y0041824D01*
X0186275Y0042673D02*
X0183725Y0042673D01*
X0183725Y0043522D02*
X0186275Y0043522D01*
X0045525Y0057225D02*
X0045525Y0059775D01*
X0045525Y0057225D02*
X0042475Y0057225D01*
X0042475Y0059775D01*
X0045525Y0059775D01*
X0045525Y0058074D02*
X0042475Y0058074D01*
X0042475Y0058923D02*
X0045525Y0058923D01*
X0045525Y0059772D02*
X0042475Y0059772D01*
X0045525Y0063225D02*
X0045525Y0065775D01*
X0045525Y0063225D02*
X0042475Y0063225D01*
X0042475Y0065775D01*
X0045525Y0065775D01*
X0045525Y0064074D02*
X0042475Y0064074D01*
X0042475Y0064923D02*
X0045525Y0064923D01*
X0045525Y0065772D02*
X0042475Y0065772D01*
X0174725Y0122975D02*
X0177275Y0122975D01*
X0174725Y0122975D02*
X0174725Y0126025D01*
X0177275Y0126025D01*
X0177275Y0122975D01*
X0177275Y0123824D02*
X0174725Y0123824D01*
X0174725Y0124673D02*
X0177275Y0124673D01*
X0177275Y0125522D02*
X0174725Y0125522D01*
X0180725Y0122975D02*
X0183275Y0122975D01*
X0180725Y0122975D02*
X0180725Y0126025D01*
X0183275Y0126025D01*
X0183275Y0122975D01*
X0183275Y0123824D02*
X0180725Y0123824D01*
X0180725Y0124673D02*
X0183275Y0124673D01*
X0183275Y0125522D02*
X0180725Y0125522D01*
X0066525Y0330225D02*
X0066525Y0332775D01*
X0066525Y0330225D02*
X0063475Y0330225D01*
X0063475Y0332775D01*
X0066525Y0332775D01*
X0066525Y0331074D02*
X0063475Y0331074D01*
X0063475Y0331923D02*
X0066525Y0331923D01*
X0066525Y0332772D02*
X0063475Y0332772D01*
X0066525Y0336225D02*
X0066525Y0338775D01*
X0066525Y0336225D02*
X0063475Y0336225D01*
X0063475Y0338775D01*
X0066525Y0338775D01*
X0066525Y0337074D02*
X0063475Y0337074D01*
X0063475Y0337923D02*
X0066525Y0337923D01*
X0066525Y0338772D02*
X0063475Y0338772D01*
X0058525Y0338775D02*
X0058525Y0336225D01*
X0055475Y0336225D01*
X0055475Y0338775D01*
X0058525Y0338775D01*
X0058525Y0337074D02*
X0055475Y0337074D01*
X0055475Y0337923D02*
X0058525Y0337923D01*
X0058525Y0338772D02*
X0055475Y0338772D01*
X0047525Y0338775D02*
X0047525Y0336225D01*
X0044475Y0336225D01*
X0044475Y0338775D01*
X0047525Y0338775D01*
X0047525Y0337074D02*
X0044475Y0337074D01*
X0044475Y0337923D02*
X0047525Y0337923D01*
X0047525Y0338772D02*
X0044475Y0338772D01*
X0039525Y0338775D02*
X0039525Y0336225D01*
X0036475Y0336225D01*
X0036475Y0338775D01*
X0039525Y0338775D01*
X0039525Y0337074D02*
X0036475Y0337074D01*
X0036475Y0337923D02*
X0039525Y0337923D01*
X0039525Y0338772D02*
X0036475Y0338772D01*
X0039525Y0332775D02*
X0039525Y0330225D01*
X0036475Y0330225D01*
X0036475Y0332775D01*
X0039525Y0332775D01*
X0039525Y0331074D02*
X0036475Y0331074D01*
X0036475Y0331923D02*
X0039525Y0331923D01*
X0039525Y0332772D02*
X0036475Y0332772D01*
X0047525Y0332775D02*
X0047525Y0330225D01*
X0044475Y0330225D01*
X0044475Y0332775D01*
X0047525Y0332775D01*
X0047525Y0331074D02*
X0044475Y0331074D01*
X0044475Y0331923D02*
X0047525Y0331923D01*
X0047525Y0332772D02*
X0044475Y0332772D01*
X0058525Y0332775D02*
X0058525Y0330225D01*
X0055475Y0330225D01*
X0055475Y0332775D01*
X0058525Y0332775D01*
X0058525Y0331074D02*
X0055475Y0331074D01*
X0055475Y0331923D02*
X0058525Y0331923D01*
X0058525Y0332772D02*
X0055475Y0332772D01*
D18*
X0023500Y0262000D03*
X0023500Y0252000D03*
X0023500Y0242000D03*
X0023500Y0232000D03*
X0023500Y0222000D03*
X0023500Y0212000D03*
X0023500Y0202000D03*
X0023500Y0192000D03*
X0023500Y0182000D03*
X0023500Y0172000D03*
X0023500Y0162000D03*
X0023500Y0152000D03*
X0023500Y0142000D03*
X0023500Y0132000D03*
X0093500Y0132000D03*
X0093500Y0142000D03*
X0093500Y0152000D03*
X0093500Y0162000D03*
X0093500Y0172000D03*
X0093500Y0182000D03*
X0093500Y0192000D03*
X0093500Y0202000D03*
X0093500Y0212000D03*
X0093500Y0222000D03*
X0093500Y0232000D03*
X0093500Y0242000D03*
X0093500Y0252000D03*
X0093500Y0262000D03*
X0908000Y0162500D03*
X0908000Y0142500D03*
D19*
X0582000Y0277000D03*
X0570000Y0277000D03*
X0558000Y0277000D03*
X0547000Y0277000D03*
X0547000Y0288000D03*
X0558000Y0288000D03*
X0570000Y0288000D03*
X0582000Y0288000D03*
X0469000Y0261000D03*
X0469000Y0250000D03*
X0469000Y0239000D03*
X0469000Y0228000D03*
X0425000Y0228000D03*
X0425000Y0239000D03*
X0425000Y0250000D03*
X0425000Y0261000D03*
X0381000Y0261000D03*
X0381000Y0250000D03*
X0381000Y0239000D03*
X0381000Y0228000D03*
X0337000Y0228000D03*
X0337000Y0239000D03*
X0337000Y0250000D03*
X0337000Y0261000D03*
X0293000Y0261000D03*
X0277000Y0260000D03*
X0277000Y0251000D03*
X0293000Y0250000D03*
X0277000Y0240000D03*
X0293000Y0239000D03*
X0293000Y0228000D03*
X0211000Y0258000D03*
X0211000Y0269000D03*
X0196000Y0269000D03*
X0196000Y0258000D03*
X0277000Y0271000D03*
X0187000Y0323000D03*
X0187000Y0334000D03*
X0187000Y0343000D03*
X0187000Y0354000D03*
X0187000Y0365000D03*
X0187000Y0376000D03*
X0187000Y0386000D03*
X0187000Y0397000D03*
X0232000Y0397000D03*
X0232000Y0386000D03*
X0232000Y0376000D03*
X0232000Y0365000D03*
X0275000Y0365000D03*
X0275000Y0376000D03*
X0275000Y0386000D03*
X0275000Y0397000D03*
X0319000Y0397000D03*
X0319000Y0386000D03*
X0319000Y0376000D03*
X0319000Y0365000D03*
X0363000Y0365000D03*
X0363000Y0376000D03*
X0363000Y0386000D03*
X0363000Y0397000D03*
X0407000Y0397000D03*
X0407000Y0386000D03*
X0407000Y0376000D03*
X0407000Y0365000D03*
X0452000Y0365000D03*
X0452000Y0376000D03*
X0452000Y0386000D03*
X0452000Y0397000D03*
X0548000Y0384000D03*
X0558000Y0384000D03*
X0570000Y0384000D03*
X0581000Y0384000D03*
X0581000Y0373000D03*
X0570000Y0373000D03*
X0558000Y0373000D03*
X0548000Y0373000D03*
X0135000Y0404000D03*
X0123000Y0404000D03*
X0123000Y0415000D03*
X0135000Y0415000D03*
X0097000Y0415000D03*
X0084000Y0415000D03*
X0084000Y0404000D03*
X0097000Y0404000D03*
X0094000Y0290000D03*
X0094000Y0279000D03*
X0080000Y0247000D03*
X0080000Y0236000D03*
X0293000Y0184000D03*
X0293000Y0173000D03*
X0293000Y0162000D03*
X0293000Y0151000D03*
X0337000Y0151000D03*
X0337000Y0162000D03*
X0337000Y0173000D03*
X0337000Y0184000D03*
X0381000Y0184000D03*
X0381000Y0173000D03*
X0381000Y0162000D03*
X0381000Y0151000D03*
X0425000Y0151000D03*
X0425000Y0162000D03*
X0425000Y0173000D03*
X0425000Y0184000D03*
X0469000Y0184000D03*
X0469000Y0173000D03*
X0469000Y0162000D03*
X0469000Y0151000D03*
X0468949Y0109516D03*
X0468949Y0098516D03*
X0468949Y0087516D03*
X0468949Y0076516D03*
X0428449Y0076516D03*
X0428449Y0087516D03*
X0428449Y0098516D03*
X0428449Y0109516D03*
X0387949Y0109516D03*
X0387949Y0098516D03*
X0387449Y0087516D03*
X0387449Y0076516D03*
X0348949Y0076516D03*
X0348949Y0087516D03*
X0348449Y0099016D03*
X0348449Y0110016D03*
X0297949Y0109516D03*
X0297949Y0098516D03*
X0297449Y0088016D03*
X0297449Y0077016D03*
D20*
X0956315Y0151526D02*
X0956315Y0157037D01*
X0956317Y0157091D01*
X0956322Y0157144D01*
X0956331Y0157197D01*
X0956344Y0157249D01*
X0956360Y0157301D01*
X0956380Y0157351D01*
X0956403Y0157399D01*
X0956430Y0157446D01*
X0956459Y0157491D01*
X0956492Y0157534D01*
X0956527Y0157574D01*
X0956565Y0157612D01*
X0956605Y0157647D01*
X0956648Y0157680D01*
X0956693Y0157709D01*
X0956740Y0157736D01*
X0956788Y0157759D01*
X0956838Y0157779D01*
X0956890Y0157795D01*
X0956942Y0157808D01*
X0956995Y0157817D01*
X0957048Y0157822D01*
X0957102Y0157824D01*
X0957102Y0157825D02*
X0962614Y0157825D01*
X0962614Y0157824D02*
X0962668Y0157822D01*
X0962721Y0157817D01*
X0962774Y0157808D01*
X0962826Y0157795D01*
X0962878Y0157779D01*
X0962928Y0157759D01*
X0962976Y0157736D01*
X0963023Y0157709D01*
X0963068Y0157680D01*
X0963111Y0157647D01*
X0963151Y0157612D01*
X0963189Y0157574D01*
X0963224Y0157534D01*
X0963257Y0157491D01*
X0963286Y0157446D01*
X0963313Y0157399D01*
X0963336Y0157351D01*
X0963356Y0157301D01*
X0963372Y0157249D01*
X0963385Y0157197D01*
X0963394Y0157144D01*
X0963399Y0157091D01*
X0963401Y0157037D01*
X0963402Y0157037D02*
X0963402Y0151526D01*
X0963401Y0151526D02*
X0963399Y0151472D01*
X0963394Y0151419D01*
X0963385Y0151366D01*
X0963372Y0151314D01*
X0963356Y0151262D01*
X0963336Y0151212D01*
X0963313Y0151164D01*
X0963286Y0151117D01*
X0963257Y0151072D01*
X0963224Y0151029D01*
X0963189Y0150989D01*
X0963151Y0150951D01*
X0963111Y0150916D01*
X0963068Y0150883D01*
X0963023Y0150854D01*
X0962976Y0150827D01*
X0962928Y0150804D01*
X0962878Y0150784D01*
X0962826Y0150768D01*
X0962774Y0150755D01*
X0962721Y0150746D01*
X0962668Y0150741D01*
X0962614Y0150739D01*
X0962614Y0150738D02*
X0957102Y0150738D01*
X0957102Y0150739D02*
X0957048Y0150741D01*
X0956995Y0150746D01*
X0956942Y0150755D01*
X0956890Y0150768D01*
X0956838Y0150784D01*
X0956788Y0150804D01*
X0956740Y0150827D01*
X0956693Y0150854D01*
X0956648Y0150883D01*
X0956605Y0150916D01*
X0956565Y0150951D01*
X0956527Y0150989D01*
X0956492Y0151029D01*
X0956459Y0151072D01*
X0956430Y0151117D01*
X0956403Y0151164D01*
X0956380Y0151212D01*
X0956360Y0151262D01*
X0956344Y0151314D01*
X0956331Y0151366D01*
X0956322Y0151419D01*
X0956317Y0151472D01*
X0956315Y0151526D01*
D21*
X0095453Y0075811D03*
X0091122Y0075811D03*
X0086791Y0075811D03*
X0082461Y0075811D03*
X0078130Y0075811D03*
X0073799Y0075811D03*
X0069469Y0075811D03*
X0065138Y0075811D03*
X0060807Y0075811D03*
D22*
X0055689Y0073449D03*
D23*
X0055689Y0036047D03*
X0117500Y0036047D03*
D24*
X0113957Y0073843D03*
D25*
X0098602Y0034472D03*
X0067106Y0034472D03*
D26*
X0115000Y0103500D03*
X0148000Y0113500D03*
X0147550Y0281900D03*
X0115400Y0282000D03*
X0647000Y0178500D03*
X0647000Y0157500D03*
X0795000Y0054500D03*
X0795000Y0034500D03*
X0957000Y0192500D03*
D27*
X0967000Y0192500D03*
X0797000Y0178500D03*
X0787000Y0178500D03*
X0777000Y0178500D03*
X0767000Y0178500D03*
X0757000Y0178500D03*
X0747000Y0178500D03*
X0737000Y0178500D03*
X0727000Y0178500D03*
X0717000Y0178500D03*
X0707000Y0178500D03*
X0697000Y0178500D03*
X0687000Y0178500D03*
X0677000Y0178500D03*
X0667000Y0178500D03*
X0657000Y0178500D03*
X0657000Y0157500D03*
X0667000Y0157500D03*
X0677000Y0157500D03*
X0687000Y0157500D03*
X0697000Y0157500D03*
X0707000Y0157500D03*
X0717000Y0157500D03*
X0727000Y0157500D03*
X0737000Y0157500D03*
X0747000Y0157500D03*
X0757000Y0157500D03*
X0767000Y0157500D03*
X0777000Y0157500D03*
X0787000Y0157500D03*
X0797000Y0157500D03*
X0785000Y0054500D03*
X0775000Y0054500D03*
X0765000Y0054500D03*
X0755000Y0054500D03*
X0745000Y0054500D03*
X0735000Y0054500D03*
X0725000Y0054500D03*
X0715000Y0054500D03*
X0705000Y0054500D03*
X0695000Y0054500D03*
X0685000Y0054500D03*
X0675000Y0054500D03*
X0665000Y0054500D03*
X0655000Y0054500D03*
X0645000Y0054500D03*
X0645000Y0034500D03*
X0655000Y0034500D03*
X0665000Y0034500D03*
X0675000Y0034500D03*
X0685000Y0034500D03*
X0695000Y0034500D03*
X0705000Y0034500D03*
X0715000Y0034500D03*
X0725000Y0034500D03*
X0735000Y0034500D03*
X0745000Y0034500D03*
X0755000Y0034500D03*
X0765000Y0034500D03*
X0775000Y0034500D03*
X0785000Y0034500D03*
X0148000Y0103500D03*
X0115000Y0113500D03*
X0115400Y0132000D03*
X0115400Y0142000D03*
X0115400Y0152000D03*
X0115400Y0162000D03*
X0115400Y0172000D03*
X0115400Y0182000D03*
X0115400Y0192000D03*
X0115400Y0202000D03*
X0115400Y0212000D03*
X0115400Y0222000D03*
X0115400Y0232000D03*
X0115400Y0242000D03*
X0115400Y0252000D03*
X0115400Y0262000D03*
X0115400Y0272000D03*
X0147550Y0271900D03*
X0147550Y0261900D03*
X0147550Y0251900D03*
X0147550Y0241900D03*
X0147550Y0231900D03*
X0147550Y0221900D03*
X0147550Y0211900D03*
X0147550Y0201900D03*
X0147550Y0191900D03*
X0147550Y0181900D03*
X0147550Y0171900D03*
X0147550Y0161900D03*
X0147550Y0151900D03*
X0147550Y0141900D03*
X0147550Y0131900D03*
D28*
X0649898Y0214433D03*
X0649898Y0304984D03*
X0649898Y0407346D03*
X0878244Y0407346D03*
X0878244Y0304984D03*
X0878244Y0214433D03*
D29*
X0669071Y0219433D03*
X0655016Y0258921D03*
D30*
X0645016Y0258921D03*
X0600000Y0258500D03*
X0600000Y0268500D03*
X0600000Y0248500D03*
X0600000Y0238500D03*
X0600000Y0228500D03*
X0600000Y0218500D03*
X0600000Y0208500D03*
X0669018Y0209426D03*
X0679018Y0209426D03*
X0689018Y0209426D03*
X0699018Y0209426D03*
X0709018Y0209426D03*
X0719018Y0209426D03*
X0729018Y0209426D03*
X0739018Y0209426D03*
X0749018Y0209426D03*
X0759018Y0209426D03*
X0759018Y0219426D03*
X0749018Y0219426D03*
X0739018Y0219426D03*
X0729018Y0219426D03*
X0719018Y0219426D03*
X0709018Y0219426D03*
X0699018Y0219426D03*
X0689018Y0219426D03*
X0679018Y0219426D03*
X0769018Y0219426D03*
X0779018Y0219426D03*
X0789018Y0219426D03*
X0799018Y0219426D03*
X0809018Y0219426D03*
X0819018Y0219426D03*
X0829018Y0219426D03*
X0839018Y0219426D03*
X0849018Y0219426D03*
X0859018Y0219426D03*
X0859018Y0209426D03*
X0849018Y0209426D03*
X0839018Y0209426D03*
X0829018Y0209426D03*
X0819018Y0209426D03*
X0809018Y0209426D03*
X0799018Y0209426D03*
X0789018Y0209426D03*
X0779018Y0209426D03*
X0769018Y0209426D03*
X0600000Y0305500D03*
X0600000Y0315500D03*
X0600000Y0325500D03*
X0600000Y0335500D03*
X0600000Y0345500D03*
X0600000Y0355500D03*
X0600000Y0365500D03*
X0528000Y0365500D03*
X0528000Y0355500D03*
X0528000Y0345500D03*
X0528000Y0335500D03*
X0528000Y0325500D03*
X0528000Y0315500D03*
X0528000Y0305500D03*
X0471000Y0326500D03*
X0471000Y0336500D03*
X0471000Y0346500D03*
X0471000Y0356500D03*
X0471000Y0366500D03*
X0471000Y0376500D03*
X0471000Y0386500D03*
X0430000Y0386500D03*
X0430000Y0376500D03*
X0430000Y0366500D03*
X0430000Y0356500D03*
X0430000Y0346500D03*
X0430000Y0336500D03*
X0430000Y0326500D03*
X0383000Y0326500D03*
X0383000Y0336500D03*
X0383000Y0346500D03*
X0383000Y0356500D03*
X0383000Y0366500D03*
X0383000Y0376500D03*
X0383000Y0386500D03*
X0339000Y0386500D03*
X0339000Y0376500D03*
X0339000Y0366500D03*
X0339000Y0356500D03*
X0339000Y0346500D03*
X0339000Y0336500D03*
X0339000Y0326500D03*
X0295000Y0326500D03*
X0295000Y0336500D03*
X0295000Y0346500D03*
X0295000Y0356500D03*
X0295000Y0366500D03*
X0295000Y0376500D03*
X0295000Y0386500D03*
X0251000Y0386500D03*
X0251000Y0376500D03*
X0251000Y0366500D03*
X0251000Y0356500D03*
X0251000Y0346500D03*
X0251000Y0336500D03*
X0251000Y0326500D03*
X0207000Y0326500D03*
X0207000Y0336500D03*
X0207000Y0346500D03*
X0207000Y0356500D03*
X0207000Y0366500D03*
X0207000Y0376500D03*
X0207000Y0386500D03*
X0164000Y0386500D03*
X0164000Y0376500D03*
X0164000Y0366500D03*
X0164000Y0356500D03*
X0164000Y0346500D03*
X0164000Y0336500D03*
X0164000Y0326500D03*
X0126000Y0326500D03*
X0126000Y0336500D03*
X0126000Y0346500D03*
X0126000Y0356500D03*
X0126000Y0366500D03*
X0088000Y0366500D03*
X0088000Y0356500D03*
X0088000Y0346500D03*
X0088000Y0336500D03*
X0088000Y0326500D03*
X0256000Y0249500D03*
X0256000Y0239500D03*
X0256000Y0229500D03*
X0256000Y0219500D03*
X0256000Y0209500D03*
X0256000Y0199500D03*
X0256000Y0189500D03*
X0202000Y0189500D03*
X0202000Y0199500D03*
X0202000Y0209500D03*
X0202000Y0219500D03*
X0202000Y0229500D03*
X0313000Y0229500D03*
X0313000Y0219500D03*
X0313000Y0209500D03*
X0357000Y0209500D03*
X0357000Y0219500D03*
X0357000Y0229500D03*
X0357000Y0239500D03*
X0357000Y0249500D03*
X0401000Y0249500D03*
X0401000Y0239500D03*
X0401000Y0229500D03*
X0401000Y0219500D03*
X0401000Y0209500D03*
X0445000Y0209500D03*
X0445000Y0219500D03*
X0445000Y0229500D03*
X0445000Y0239500D03*
X0445000Y0249500D03*
X0489000Y0249500D03*
X0489000Y0239500D03*
X0489000Y0229500D03*
X0489000Y0219500D03*
X0489000Y0209500D03*
X0527000Y0208500D03*
X0527000Y0218500D03*
X0527000Y0228500D03*
X0527000Y0238500D03*
X0527000Y0248500D03*
X0527000Y0258500D03*
X0527000Y0268500D03*
X0489000Y0172500D03*
X0489000Y0162500D03*
X0489000Y0152500D03*
X0489000Y0142500D03*
X0489000Y0132500D03*
X0445000Y0132500D03*
X0445000Y0142500D03*
X0445000Y0152500D03*
X0445000Y0162500D03*
X0445000Y0172500D03*
X0401000Y0172500D03*
X0401000Y0162500D03*
X0401000Y0152500D03*
X0401000Y0142500D03*
X0401000Y0132500D03*
X0357000Y0132500D03*
X0357000Y0142500D03*
X0357000Y0152500D03*
X0357000Y0162500D03*
X0357000Y0172500D03*
X0313000Y0172500D03*
X0313000Y0162500D03*
X0313000Y0152500D03*
X0313000Y0142500D03*
X0313000Y0132500D03*
X0313949Y0097817D03*
X0313949Y0087817D03*
X0313949Y0077817D03*
X0313949Y0067817D03*
X0313949Y0057817D03*
X0366449Y0057742D03*
X0366449Y0067742D03*
X0366449Y0077742D03*
X0366449Y0087742D03*
X0366449Y0097742D03*
X0406449Y0097666D03*
X0406449Y0087666D03*
X0406449Y0077666D03*
X0406449Y0067666D03*
X0406449Y0057666D03*
X0446949Y0057591D03*
X0446949Y0067591D03*
X0446949Y0077591D03*
X0446949Y0087591D03*
X0446949Y0097591D03*
X0488449Y0098016D03*
X0488449Y0088016D03*
X0488449Y0078016D03*
X0488449Y0068016D03*
X0488449Y0058016D03*
X0313000Y0239500D03*
X0313000Y0249500D03*
D31*
X0062000Y0197000D03*
X0054000Y0193500D03*
X0062000Y0190000D03*
X0673000Y0290000D03*
X0681000Y0293500D03*
X0673000Y0297000D03*
X0681000Y0283000D03*
X0681000Y0276000D03*
X0689000Y0279500D03*
X0689000Y0268000D03*
X0681000Y0264500D03*
X0689000Y0261000D03*
D32*
X0147543Y0040997D02*
X0147543Y0039813D01*
X0146359Y0039813D01*
X0146359Y0040997D01*
X0147543Y0040997D01*
X0147543Y0040996D02*
X0146359Y0040996D01*
X0147543Y0037355D02*
X0147543Y0036171D01*
X0146359Y0036171D01*
X0146359Y0037355D01*
X0147543Y0037355D01*
X0147543Y0037354D02*
X0146359Y0037354D01*
D33*
X0173000Y0089500D03*
X0172400Y0102100D03*
X0172000Y0114500D03*
X0552000Y0201000D03*
X0700000Y0263500D03*
X0671000Y0275500D03*
X0660000Y0282500D03*
X0644500Y0286500D03*
X0923500Y0179500D03*
X0937000Y0179500D03*
X0956000Y0179500D03*
X0967500Y0180000D03*
X0909000Y0122500D03*
X0939000Y0092500D03*
X0567600Y0021000D03*
X0028000Y0309500D03*
X0232000Y0353500D03*
D34*
X0563700Y0340500D03*
X0563700Y0335500D03*
X0563700Y0330500D03*
X0563700Y0325500D03*
X0563700Y0320500D03*
X0563700Y0315500D03*
X0563700Y0310500D03*
X0582300Y0310500D03*
X0582300Y0315500D03*
X0582300Y0320500D03*
X0582300Y0325500D03*
X0582300Y0330500D03*
X0582300Y0335500D03*
X0582300Y0340500D03*
X0582450Y0243550D03*
X0582450Y0238550D03*
X0582450Y0233550D03*
X0582450Y0228550D03*
X0582450Y0223550D03*
X0582450Y0218550D03*
X0582450Y0213550D03*
X0563850Y0213550D03*
X0563850Y0218550D03*
X0563850Y0223550D03*
X0563850Y0228550D03*
X0563850Y0233550D03*
X0563850Y0238550D03*
X0563850Y0243550D03*
D35*
X0949625Y0118100D02*
X0949625Y0112900D01*
X0959000Y0112900D02*
X0959000Y0118100D01*
X0968375Y0118100D02*
X0968375Y0112900D01*
D36*
X0959000Y0070500D03*
D37*
X0916000Y0037500D03*
D38*
X0916000Y0070300D03*
X0906000Y0070300D03*
X0926000Y0070300D03*
D39*
X0172630Y0069319D03*
X0172630Y0071839D03*
X0172630Y0074358D03*
X0172630Y0076878D03*
X0172630Y0066799D03*
X0172630Y0064280D03*
X0172630Y0061681D03*
X0172630Y0059240D03*
X0172630Y0056720D03*
X0172630Y0054201D03*
X0172630Y0051681D03*
X0172630Y0049161D03*
X0172630Y0046642D03*
X0172630Y0044122D03*
X0151370Y0044122D03*
X0151370Y0046642D03*
X0151370Y0049161D03*
X0151370Y0051681D03*
X0151370Y0054201D03*
X0151370Y0056720D03*
X0151370Y0059240D03*
X0151370Y0061760D03*
X0151370Y0064280D03*
X0151370Y0066799D03*
X0151370Y0069319D03*
X0151370Y0071839D03*
X0151370Y0074358D03*
X0151370Y0076878D03*
D40*
X0676500Y0078700D03*
X0681500Y0078700D03*
X0686500Y0078700D03*
X0691500Y0078700D03*
X0696500Y0078700D03*
X0701500Y0078700D03*
X0706500Y0078700D03*
X0711500Y0078700D03*
X0716500Y0078700D03*
X0721500Y0078700D03*
X0726500Y0078700D03*
X0731500Y0078700D03*
X0736500Y0078700D03*
X0741500Y0078700D03*
X0741500Y0114300D03*
X0736500Y0114300D03*
X0731500Y0114300D03*
X0726500Y0114300D03*
X0721500Y0114300D03*
X0716500Y0114300D03*
X0711500Y0114300D03*
X0706500Y0114300D03*
X0701500Y0114300D03*
X0696500Y0114300D03*
X0691500Y0114300D03*
X0686500Y0114300D03*
X0681500Y0114300D03*
X0676500Y0114300D03*
D41*
X0357500Y0280300D03*
X0352500Y0280300D03*
X0347500Y0280300D03*
X0342500Y0280300D03*
X0337500Y0280300D03*
X0332500Y0280300D03*
X0327500Y0280300D03*
X0322500Y0280300D03*
X0322500Y0300700D03*
X0327500Y0300700D03*
X0332500Y0300700D03*
X0337500Y0300700D03*
X0342500Y0300700D03*
X0347500Y0300700D03*
X0352500Y0300700D03*
X0357500Y0300700D03*
D42*
X0906000Y0108500D03*
X0914000Y0112100D03*
X0914000Y0104900D03*
D43*
X0352751Y0046484D03*
X0352751Y0041484D03*
X0352751Y0036484D03*
X0352751Y0031484D03*
X0333351Y0031484D03*
X0333351Y0036484D03*
X0333351Y0041484D03*
X0333351Y0046484D03*
D44*
X0259713Y0047047D03*
X0259713Y0044488D03*
X0259713Y0041929D03*
X0259713Y0039370D03*
X0259713Y0036811D03*
X0259713Y0034252D03*
X0259713Y0031693D03*
X0259713Y0029134D03*
X0259713Y0026575D03*
X0259713Y0024016D03*
X0259713Y0021457D03*
X0259713Y0018898D03*
X0231169Y0018898D03*
X0231169Y0021457D03*
X0231169Y0024016D03*
X0231169Y0026575D03*
X0231169Y0029134D03*
X0231169Y0031693D03*
X0231169Y0034252D03*
X0231169Y0036811D03*
X0231169Y0039370D03*
X0231169Y0041929D03*
X0231169Y0044488D03*
X0231169Y0047047D03*
X0231169Y0049606D03*
X0231169Y0052165D03*
X0217220Y0060982D03*
X0217220Y0063541D03*
X0217220Y0066100D03*
X0217220Y0068659D03*
X0217220Y0071218D03*
X0217220Y0073777D03*
X0217220Y0076336D03*
X0217220Y0078895D03*
X0217220Y0081454D03*
X0217220Y0084013D03*
X0217220Y0086572D03*
X0217220Y0089131D03*
X0217220Y0091691D03*
X0217220Y0094250D03*
X0188677Y0094250D03*
X0188677Y0091691D03*
X0188677Y0089131D03*
X0188677Y0086572D03*
X0188677Y0084013D03*
X0188677Y0081454D03*
X0188677Y0078895D03*
X0188677Y0076336D03*
X0188677Y0073777D03*
X0188677Y0071218D03*
X0188677Y0068659D03*
X0188677Y0066100D03*
X0188677Y0063541D03*
X0188677Y0060982D03*
X0259713Y0052165D03*
X0259713Y0049606D03*
X0220823Y0119950D03*
X0220823Y0122509D03*
X0220823Y0125069D03*
X0220823Y0127628D03*
X0220823Y0130187D03*
X0220823Y0132746D03*
X0220823Y0135305D03*
X0220823Y0137864D03*
X0220823Y0140423D03*
X0220823Y0142982D03*
X0220823Y0145541D03*
X0220823Y0148100D03*
X0220823Y0150659D03*
X0220823Y0153218D03*
X0246380Y0153759D03*
X0246380Y0151200D03*
X0246380Y0148641D03*
X0246380Y0146082D03*
X0246380Y0143523D03*
X0246380Y0140964D03*
X0246380Y0138405D03*
X0246380Y0135846D03*
X0246380Y0133287D03*
X0246380Y0130728D03*
X0246380Y0128169D03*
X0246380Y0125609D03*
X0246380Y0123050D03*
X0274923Y0123050D03*
X0274923Y0125609D03*
X0274923Y0128169D03*
X0274923Y0130728D03*
X0274923Y0133287D03*
X0274923Y0135846D03*
X0274923Y0138405D03*
X0274923Y0140964D03*
X0274923Y0143523D03*
X0274923Y0146082D03*
X0274923Y0148641D03*
X0274923Y0151200D03*
X0274923Y0153759D03*
X0274923Y0156318D03*
X0246380Y0156318D03*
X0192280Y0153218D03*
X0192280Y0150659D03*
X0192280Y0148100D03*
X0192280Y0145541D03*
X0192280Y0142982D03*
X0192280Y0140423D03*
X0192280Y0137864D03*
X0192280Y0135305D03*
X0192280Y0132746D03*
X0192280Y0130187D03*
X0192280Y0127628D03*
X0192280Y0125069D03*
X0192280Y0122509D03*
X0192280Y0119950D03*
X0071272Y0349866D03*
X0071272Y0352425D03*
X0071272Y0354984D03*
X0071272Y0357543D03*
X0071272Y0360102D03*
X0071272Y0362661D03*
X0071272Y0365220D03*
X0071272Y0367780D03*
X0071272Y0370339D03*
X0071272Y0372898D03*
X0071272Y0375457D03*
X0071272Y0378016D03*
X0071272Y0380575D03*
X0071272Y0383134D03*
X0042728Y0383134D03*
X0042728Y0380575D03*
X0042728Y0378016D03*
X0042728Y0375457D03*
X0042728Y0372898D03*
X0042728Y0370339D03*
X0042728Y0367780D03*
X0042728Y0365220D03*
X0042728Y0362661D03*
X0042728Y0360102D03*
X0042728Y0357543D03*
X0042728Y0354984D03*
X0042728Y0352425D03*
X0042728Y0349866D03*
D45*
X0599500Y0165800D03*
X0604500Y0165800D03*
X0609500Y0165800D03*
X0614500Y0165800D03*
X0614500Y0147200D03*
X0609500Y0147200D03*
X0604500Y0147200D03*
X0599500Y0147200D03*
D46*
X0793851Y0238843D02*
X0793851Y0243109D01*
X0796149Y0243109D01*
X0796149Y0238843D01*
X0793851Y0238843D01*
X0793851Y0238913D02*
X0796149Y0238913D01*
X0796149Y0238983D02*
X0793851Y0238983D01*
X0793851Y0239053D02*
X0796149Y0239053D01*
X0796149Y0239123D02*
X0793851Y0239123D01*
X0793851Y0239193D02*
X0796149Y0239193D01*
X0796149Y0239263D02*
X0793851Y0239263D01*
X0793851Y0239333D02*
X0796149Y0239333D01*
X0796149Y0239403D02*
X0793851Y0239403D01*
X0793851Y0239473D02*
X0796149Y0239473D01*
X0796149Y0239543D02*
X0793851Y0239543D01*
X0793851Y0239613D02*
X0796149Y0239613D01*
X0796149Y0239683D02*
X0793851Y0239683D01*
X0793851Y0239753D02*
X0796149Y0239753D01*
X0796149Y0239823D02*
X0793851Y0239823D01*
X0793851Y0239893D02*
X0796149Y0239893D01*
X0796149Y0239963D02*
X0793851Y0239963D01*
X0793851Y0240033D02*
X0796149Y0240033D01*
X0796149Y0240103D02*
X0793851Y0240103D01*
X0793851Y0240173D02*
X0796149Y0240173D01*
X0796149Y0240243D02*
X0793851Y0240243D01*
X0793851Y0240313D02*
X0796149Y0240313D01*
X0796149Y0240383D02*
X0793851Y0240383D01*
X0793851Y0240453D02*
X0796149Y0240453D01*
X0796149Y0240523D02*
X0793851Y0240523D01*
X0793851Y0240593D02*
X0796149Y0240593D01*
X0796149Y0240663D02*
X0793851Y0240663D01*
X0793851Y0240733D02*
X0796149Y0240733D01*
X0796149Y0240803D02*
X0793851Y0240803D01*
X0793851Y0240873D02*
X0796149Y0240873D01*
X0796149Y0240943D02*
X0793851Y0240943D01*
X0793851Y0241013D02*
X0796149Y0241013D01*
X0796149Y0241083D02*
X0793851Y0241083D01*
X0793851Y0241153D02*
X0796149Y0241153D01*
X0796149Y0241223D02*
X0793851Y0241223D01*
X0793851Y0241293D02*
X0796149Y0241293D01*
X0796149Y0241363D02*
X0793851Y0241363D01*
X0793851Y0241433D02*
X0796149Y0241433D01*
X0796149Y0241503D02*
X0793851Y0241503D01*
X0793851Y0241573D02*
X0796149Y0241573D01*
X0796149Y0241643D02*
X0793851Y0241643D01*
X0793851Y0241713D02*
X0796149Y0241713D01*
X0796149Y0241783D02*
X0793851Y0241783D01*
X0793851Y0241853D02*
X0796149Y0241853D01*
X0796149Y0241923D02*
X0793851Y0241923D01*
X0793851Y0241993D02*
X0796149Y0241993D01*
X0796149Y0242063D02*
X0793851Y0242063D01*
X0793851Y0242133D02*
X0796149Y0242133D01*
X0796149Y0242203D02*
X0793851Y0242203D01*
X0793851Y0242273D02*
X0796149Y0242273D01*
X0796149Y0242343D02*
X0793851Y0242343D01*
X0793851Y0242413D02*
X0796149Y0242413D01*
X0796149Y0242483D02*
X0793851Y0242483D01*
X0793851Y0242553D02*
X0796149Y0242553D01*
X0796149Y0242623D02*
X0793851Y0242623D01*
X0793851Y0242693D02*
X0796149Y0242693D01*
X0796149Y0242763D02*
X0793851Y0242763D01*
X0793851Y0242833D02*
X0796149Y0242833D01*
X0796149Y0242903D02*
X0793851Y0242903D01*
X0793851Y0242973D02*
X0796149Y0242973D01*
X0796149Y0243043D02*
X0793851Y0243043D01*
X0798851Y0243109D02*
X0798851Y0238843D01*
X0798851Y0243109D02*
X0801149Y0243109D01*
X0801149Y0238843D01*
X0798851Y0238843D01*
X0798851Y0238913D02*
X0801149Y0238913D01*
X0801149Y0238983D02*
X0798851Y0238983D01*
X0798851Y0239053D02*
X0801149Y0239053D01*
X0801149Y0239123D02*
X0798851Y0239123D01*
X0798851Y0239193D02*
X0801149Y0239193D01*
X0801149Y0239263D02*
X0798851Y0239263D01*
X0798851Y0239333D02*
X0801149Y0239333D01*
X0801149Y0239403D02*
X0798851Y0239403D01*
X0798851Y0239473D02*
X0801149Y0239473D01*
X0801149Y0239543D02*
X0798851Y0239543D01*
X0798851Y0239613D02*
X0801149Y0239613D01*
X0801149Y0239683D02*
X0798851Y0239683D01*
X0798851Y0239753D02*
X0801149Y0239753D01*
X0801149Y0239823D02*
X0798851Y0239823D01*
X0798851Y0239893D02*
X0801149Y0239893D01*
X0801149Y0239963D02*
X0798851Y0239963D01*
X0798851Y0240033D02*
X0801149Y0240033D01*
X0801149Y0240103D02*
X0798851Y0240103D01*
X0798851Y0240173D02*
X0801149Y0240173D01*
X0801149Y0240243D02*
X0798851Y0240243D01*
X0798851Y0240313D02*
X0801149Y0240313D01*
X0801149Y0240383D02*
X0798851Y0240383D01*
X0798851Y0240453D02*
X0801149Y0240453D01*
X0801149Y0240523D02*
X0798851Y0240523D01*
X0798851Y0240593D02*
X0801149Y0240593D01*
X0801149Y0240663D02*
X0798851Y0240663D01*
X0798851Y0240733D02*
X0801149Y0240733D01*
X0801149Y0240803D02*
X0798851Y0240803D01*
X0798851Y0240873D02*
X0801149Y0240873D01*
X0801149Y0240943D02*
X0798851Y0240943D01*
X0798851Y0241013D02*
X0801149Y0241013D01*
X0801149Y0241083D02*
X0798851Y0241083D01*
X0798851Y0241153D02*
X0801149Y0241153D01*
X0801149Y0241223D02*
X0798851Y0241223D01*
X0798851Y0241293D02*
X0801149Y0241293D01*
X0801149Y0241363D02*
X0798851Y0241363D01*
X0798851Y0241433D02*
X0801149Y0241433D01*
X0801149Y0241503D02*
X0798851Y0241503D01*
X0798851Y0241573D02*
X0801149Y0241573D01*
X0801149Y0241643D02*
X0798851Y0241643D01*
X0798851Y0241713D02*
X0801149Y0241713D01*
X0801149Y0241783D02*
X0798851Y0241783D01*
X0798851Y0241853D02*
X0801149Y0241853D01*
X0801149Y0241923D02*
X0798851Y0241923D01*
X0798851Y0241993D02*
X0801149Y0241993D01*
X0801149Y0242063D02*
X0798851Y0242063D01*
X0798851Y0242133D02*
X0801149Y0242133D01*
X0801149Y0242203D02*
X0798851Y0242203D01*
X0798851Y0242273D02*
X0801149Y0242273D01*
X0801149Y0242343D02*
X0798851Y0242343D01*
X0798851Y0242413D02*
X0801149Y0242413D01*
X0801149Y0242483D02*
X0798851Y0242483D01*
X0798851Y0242553D02*
X0801149Y0242553D01*
X0801149Y0242623D02*
X0798851Y0242623D01*
X0798851Y0242693D02*
X0801149Y0242693D01*
X0801149Y0242763D02*
X0798851Y0242763D01*
X0798851Y0242833D02*
X0801149Y0242833D01*
X0801149Y0242903D02*
X0798851Y0242903D01*
X0798851Y0242973D02*
X0801149Y0242973D01*
X0801149Y0243043D02*
X0798851Y0243043D01*
X0803851Y0243109D02*
X0803851Y0238843D01*
X0803851Y0243109D02*
X0806149Y0243109D01*
X0806149Y0238843D01*
X0803851Y0238843D01*
X0803851Y0238913D02*
X0806149Y0238913D01*
X0806149Y0238983D02*
X0803851Y0238983D01*
X0803851Y0239053D02*
X0806149Y0239053D01*
X0806149Y0239123D02*
X0803851Y0239123D01*
X0803851Y0239193D02*
X0806149Y0239193D01*
X0806149Y0239263D02*
X0803851Y0239263D01*
X0803851Y0239333D02*
X0806149Y0239333D01*
X0806149Y0239403D02*
X0803851Y0239403D01*
X0803851Y0239473D02*
X0806149Y0239473D01*
X0806149Y0239543D02*
X0803851Y0239543D01*
X0803851Y0239613D02*
X0806149Y0239613D01*
X0806149Y0239683D02*
X0803851Y0239683D01*
X0803851Y0239753D02*
X0806149Y0239753D01*
X0806149Y0239823D02*
X0803851Y0239823D01*
X0803851Y0239893D02*
X0806149Y0239893D01*
X0806149Y0239963D02*
X0803851Y0239963D01*
X0803851Y0240033D02*
X0806149Y0240033D01*
X0806149Y0240103D02*
X0803851Y0240103D01*
X0803851Y0240173D02*
X0806149Y0240173D01*
X0806149Y0240243D02*
X0803851Y0240243D01*
X0803851Y0240313D02*
X0806149Y0240313D01*
X0806149Y0240383D02*
X0803851Y0240383D01*
X0803851Y0240453D02*
X0806149Y0240453D01*
X0806149Y0240523D02*
X0803851Y0240523D01*
X0803851Y0240593D02*
X0806149Y0240593D01*
X0806149Y0240663D02*
X0803851Y0240663D01*
X0803851Y0240733D02*
X0806149Y0240733D01*
X0806149Y0240803D02*
X0803851Y0240803D01*
X0803851Y0240873D02*
X0806149Y0240873D01*
X0806149Y0240943D02*
X0803851Y0240943D01*
X0803851Y0241013D02*
X0806149Y0241013D01*
X0806149Y0241083D02*
X0803851Y0241083D01*
X0803851Y0241153D02*
X0806149Y0241153D01*
X0806149Y0241223D02*
X0803851Y0241223D01*
X0803851Y0241293D02*
X0806149Y0241293D01*
X0806149Y0241363D02*
X0803851Y0241363D01*
X0803851Y0241433D02*
X0806149Y0241433D01*
X0806149Y0241503D02*
X0803851Y0241503D01*
X0803851Y0241573D02*
X0806149Y0241573D01*
X0806149Y0241643D02*
X0803851Y0241643D01*
X0803851Y0241713D02*
X0806149Y0241713D01*
X0806149Y0241783D02*
X0803851Y0241783D01*
X0803851Y0241853D02*
X0806149Y0241853D01*
X0806149Y0241923D02*
X0803851Y0241923D01*
X0803851Y0241993D02*
X0806149Y0241993D01*
X0806149Y0242063D02*
X0803851Y0242063D01*
X0803851Y0242133D02*
X0806149Y0242133D01*
X0806149Y0242203D02*
X0803851Y0242203D01*
X0803851Y0242273D02*
X0806149Y0242273D01*
X0806149Y0242343D02*
X0803851Y0242343D01*
X0803851Y0242413D02*
X0806149Y0242413D01*
X0806149Y0242483D02*
X0803851Y0242483D01*
X0803851Y0242553D02*
X0806149Y0242553D01*
X0806149Y0242623D02*
X0803851Y0242623D01*
X0803851Y0242693D02*
X0806149Y0242693D01*
X0806149Y0242763D02*
X0803851Y0242763D01*
X0803851Y0242833D02*
X0806149Y0242833D01*
X0806149Y0242903D02*
X0803851Y0242903D01*
X0803851Y0242973D02*
X0806149Y0242973D01*
X0806149Y0243043D02*
X0803851Y0243043D01*
X0808851Y0243109D02*
X0808851Y0238843D01*
X0808851Y0243109D02*
X0811149Y0243109D01*
X0811149Y0238843D01*
X0808851Y0238843D01*
X0808851Y0238913D02*
X0811149Y0238913D01*
X0811149Y0238983D02*
X0808851Y0238983D01*
X0808851Y0239053D02*
X0811149Y0239053D01*
X0811149Y0239123D02*
X0808851Y0239123D01*
X0808851Y0239193D02*
X0811149Y0239193D01*
X0811149Y0239263D02*
X0808851Y0239263D01*
X0808851Y0239333D02*
X0811149Y0239333D01*
X0811149Y0239403D02*
X0808851Y0239403D01*
X0808851Y0239473D02*
X0811149Y0239473D01*
X0811149Y0239543D02*
X0808851Y0239543D01*
X0808851Y0239613D02*
X0811149Y0239613D01*
X0811149Y0239683D02*
X0808851Y0239683D01*
X0808851Y0239753D02*
X0811149Y0239753D01*
X0811149Y0239823D02*
X0808851Y0239823D01*
X0808851Y0239893D02*
X0811149Y0239893D01*
X0811149Y0239963D02*
X0808851Y0239963D01*
X0808851Y0240033D02*
X0811149Y0240033D01*
X0811149Y0240103D02*
X0808851Y0240103D01*
X0808851Y0240173D02*
X0811149Y0240173D01*
X0811149Y0240243D02*
X0808851Y0240243D01*
X0808851Y0240313D02*
X0811149Y0240313D01*
X0811149Y0240383D02*
X0808851Y0240383D01*
X0808851Y0240453D02*
X0811149Y0240453D01*
X0811149Y0240523D02*
X0808851Y0240523D01*
X0808851Y0240593D02*
X0811149Y0240593D01*
X0811149Y0240663D02*
X0808851Y0240663D01*
X0808851Y0240733D02*
X0811149Y0240733D01*
X0811149Y0240803D02*
X0808851Y0240803D01*
X0808851Y0240873D02*
X0811149Y0240873D01*
X0811149Y0240943D02*
X0808851Y0240943D01*
X0808851Y0241013D02*
X0811149Y0241013D01*
X0811149Y0241083D02*
X0808851Y0241083D01*
X0808851Y0241153D02*
X0811149Y0241153D01*
X0811149Y0241223D02*
X0808851Y0241223D01*
X0808851Y0241293D02*
X0811149Y0241293D01*
X0811149Y0241363D02*
X0808851Y0241363D01*
X0808851Y0241433D02*
X0811149Y0241433D01*
X0811149Y0241503D02*
X0808851Y0241503D01*
X0808851Y0241573D02*
X0811149Y0241573D01*
X0811149Y0241643D02*
X0808851Y0241643D01*
X0808851Y0241713D02*
X0811149Y0241713D01*
X0811149Y0241783D02*
X0808851Y0241783D01*
X0808851Y0241853D02*
X0811149Y0241853D01*
X0811149Y0241923D02*
X0808851Y0241923D01*
X0808851Y0241993D02*
X0811149Y0241993D01*
X0811149Y0242063D02*
X0808851Y0242063D01*
X0808851Y0242133D02*
X0811149Y0242133D01*
X0811149Y0242203D02*
X0808851Y0242203D01*
X0808851Y0242273D02*
X0811149Y0242273D01*
X0811149Y0242343D02*
X0808851Y0242343D01*
X0808851Y0242413D02*
X0811149Y0242413D01*
X0811149Y0242483D02*
X0808851Y0242483D01*
X0808851Y0242553D02*
X0811149Y0242553D01*
X0811149Y0242623D02*
X0808851Y0242623D01*
X0808851Y0242693D02*
X0811149Y0242693D01*
X0811149Y0242763D02*
X0808851Y0242763D01*
X0808851Y0242833D02*
X0811149Y0242833D01*
X0811149Y0242903D02*
X0808851Y0242903D01*
X0808851Y0242973D02*
X0811149Y0242973D01*
X0811149Y0243043D02*
X0808851Y0243043D01*
X0808851Y0260891D02*
X0808851Y0265157D01*
X0811149Y0265157D01*
X0811149Y0260891D01*
X0808851Y0260891D01*
X0808851Y0260961D02*
X0811149Y0260961D01*
X0811149Y0261031D02*
X0808851Y0261031D01*
X0808851Y0261101D02*
X0811149Y0261101D01*
X0811149Y0261171D02*
X0808851Y0261171D01*
X0808851Y0261241D02*
X0811149Y0261241D01*
X0811149Y0261311D02*
X0808851Y0261311D01*
X0808851Y0261381D02*
X0811149Y0261381D01*
X0811149Y0261451D02*
X0808851Y0261451D01*
X0808851Y0261521D02*
X0811149Y0261521D01*
X0811149Y0261591D02*
X0808851Y0261591D01*
X0808851Y0261661D02*
X0811149Y0261661D01*
X0811149Y0261731D02*
X0808851Y0261731D01*
X0808851Y0261801D02*
X0811149Y0261801D01*
X0811149Y0261871D02*
X0808851Y0261871D01*
X0808851Y0261941D02*
X0811149Y0261941D01*
X0811149Y0262011D02*
X0808851Y0262011D01*
X0808851Y0262081D02*
X0811149Y0262081D01*
X0811149Y0262151D02*
X0808851Y0262151D01*
X0808851Y0262221D02*
X0811149Y0262221D01*
X0811149Y0262291D02*
X0808851Y0262291D01*
X0808851Y0262361D02*
X0811149Y0262361D01*
X0811149Y0262431D02*
X0808851Y0262431D01*
X0808851Y0262501D02*
X0811149Y0262501D01*
X0811149Y0262571D02*
X0808851Y0262571D01*
X0808851Y0262641D02*
X0811149Y0262641D01*
X0811149Y0262711D02*
X0808851Y0262711D01*
X0808851Y0262781D02*
X0811149Y0262781D01*
X0811149Y0262851D02*
X0808851Y0262851D01*
X0808851Y0262921D02*
X0811149Y0262921D01*
X0811149Y0262991D02*
X0808851Y0262991D01*
X0808851Y0263061D02*
X0811149Y0263061D01*
X0811149Y0263131D02*
X0808851Y0263131D01*
X0808851Y0263201D02*
X0811149Y0263201D01*
X0811149Y0263271D02*
X0808851Y0263271D01*
X0808851Y0263341D02*
X0811149Y0263341D01*
X0811149Y0263411D02*
X0808851Y0263411D01*
X0808851Y0263481D02*
X0811149Y0263481D01*
X0811149Y0263551D02*
X0808851Y0263551D01*
X0808851Y0263621D02*
X0811149Y0263621D01*
X0811149Y0263691D02*
X0808851Y0263691D01*
X0808851Y0263761D02*
X0811149Y0263761D01*
X0811149Y0263831D02*
X0808851Y0263831D01*
X0808851Y0263901D02*
X0811149Y0263901D01*
X0811149Y0263971D02*
X0808851Y0263971D01*
X0808851Y0264041D02*
X0811149Y0264041D01*
X0811149Y0264111D02*
X0808851Y0264111D01*
X0808851Y0264181D02*
X0811149Y0264181D01*
X0811149Y0264251D02*
X0808851Y0264251D01*
X0808851Y0264321D02*
X0811149Y0264321D01*
X0811149Y0264391D02*
X0808851Y0264391D01*
X0808851Y0264461D02*
X0811149Y0264461D01*
X0811149Y0264531D02*
X0808851Y0264531D01*
X0808851Y0264601D02*
X0811149Y0264601D01*
X0811149Y0264671D02*
X0808851Y0264671D01*
X0808851Y0264741D02*
X0811149Y0264741D01*
X0811149Y0264811D02*
X0808851Y0264811D01*
X0808851Y0264881D02*
X0811149Y0264881D01*
X0811149Y0264951D02*
X0808851Y0264951D01*
X0808851Y0265021D02*
X0811149Y0265021D01*
X0811149Y0265091D02*
X0808851Y0265091D01*
X0803851Y0265157D02*
X0803851Y0260891D01*
X0803851Y0265157D02*
X0806149Y0265157D01*
X0806149Y0260891D01*
X0803851Y0260891D01*
X0803851Y0260961D02*
X0806149Y0260961D01*
X0806149Y0261031D02*
X0803851Y0261031D01*
X0803851Y0261101D02*
X0806149Y0261101D01*
X0806149Y0261171D02*
X0803851Y0261171D01*
X0803851Y0261241D02*
X0806149Y0261241D01*
X0806149Y0261311D02*
X0803851Y0261311D01*
X0803851Y0261381D02*
X0806149Y0261381D01*
X0806149Y0261451D02*
X0803851Y0261451D01*
X0803851Y0261521D02*
X0806149Y0261521D01*
X0806149Y0261591D02*
X0803851Y0261591D01*
X0803851Y0261661D02*
X0806149Y0261661D01*
X0806149Y0261731D02*
X0803851Y0261731D01*
X0803851Y0261801D02*
X0806149Y0261801D01*
X0806149Y0261871D02*
X0803851Y0261871D01*
X0803851Y0261941D02*
X0806149Y0261941D01*
X0806149Y0262011D02*
X0803851Y0262011D01*
X0803851Y0262081D02*
X0806149Y0262081D01*
X0806149Y0262151D02*
X0803851Y0262151D01*
X0803851Y0262221D02*
X0806149Y0262221D01*
X0806149Y0262291D02*
X0803851Y0262291D01*
X0803851Y0262361D02*
X0806149Y0262361D01*
X0806149Y0262431D02*
X0803851Y0262431D01*
X0803851Y0262501D02*
X0806149Y0262501D01*
X0806149Y0262571D02*
X0803851Y0262571D01*
X0803851Y0262641D02*
X0806149Y0262641D01*
X0806149Y0262711D02*
X0803851Y0262711D01*
X0803851Y0262781D02*
X0806149Y0262781D01*
X0806149Y0262851D02*
X0803851Y0262851D01*
X0803851Y0262921D02*
X0806149Y0262921D01*
X0806149Y0262991D02*
X0803851Y0262991D01*
X0803851Y0263061D02*
X0806149Y0263061D01*
X0806149Y0263131D02*
X0803851Y0263131D01*
X0803851Y0263201D02*
X0806149Y0263201D01*
X0806149Y0263271D02*
X0803851Y0263271D01*
X0803851Y0263341D02*
X0806149Y0263341D01*
X0806149Y0263411D02*
X0803851Y0263411D01*
X0803851Y0263481D02*
X0806149Y0263481D01*
X0806149Y0263551D02*
X0803851Y0263551D01*
X0803851Y0263621D02*
X0806149Y0263621D01*
X0806149Y0263691D02*
X0803851Y0263691D01*
X0803851Y0263761D02*
X0806149Y0263761D01*
X0806149Y0263831D02*
X0803851Y0263831D01*
X0803851Y0263901D02*
X0806149Y0263901D01*
X0806149Y0263971D02*
X0803851Y0263971D01*
X0803851Y0264041D02*
X0806149Y0264041D01*
X0806149Y0264111D02*
X0803851Y0264111D01*
X0803851Y0264181D02*
X0806149Y0264181D01*
X0806149Y0264251D02*
X0803851Y0264251D01*
X0803851Y0264321D02*
X0806149Y0264321D01*
X0806149Y0264391D02*
X0803851Y0264391D01*
X0803851Y0264461D02*
X0806149Y0264461D01*
X0806149Y0264531D02*
X0803851Y0264531D01*
X0803851Y0264601D02*
X0806149Y0264601D01*
X0806149Y0264671D02*
X0803851Y0264671D01*
X0803851Y0264741D02*
X0806149Y0264741D01*
X0806149Y0264811D02*
X0803851Y0264811D01*
X0803851Y0264881D02*
X0806149Y0264881D01*
X0806149Y0264951D02*
X0803851Y0264951D01*
X0803851Y0265021D02*
X0806149Y0265021D01*
X0806149Y0265091D02*
X0803851Y0265091D01*
X0798851Y0265157D02*
X0798851Y0260891D01*
X0798851Y0265157D02*
X0801149Y0265157D01*
X0801149Y0260891D01*
X0798851Y0260891D01*
X0798851Y0260961D02*
X0801149Y0260961D01*
X0801149Y0261031D02*
X0798851Y0261031D01*
X0798851Y0261101D02*
X0801149Y0261101D01*
X0801149Y0261171D02*
X0798851Y0261171D01*
X0798851Y0261241D02*
X0801149Y0261241D01*
X0801149Y0261311D02*
X0798851Y0261311D01*
X0798851Y0261381D02*
X0801149Y0261381D01*
X0801149Y0261451D02*
X0798851Y0261451D01*
X0798851Y0261521D02*
X0801149Y0261521D01*
X0801149Y0261591D02*
X0798851Y0261591D01*
X0798851Y0261661D02*
X0801149Y0261661D01*
X0801149Y0261731D02*
X0798851Y0261731D01*
X0798851Y0261801D02*
X0801149Y0261801D01*
X0801149Y0261871D02*
X0798851Y0261871D01*
X0798851Y0261941D02*
X0801149Y0261941D01*
X0801149Y0262011D02*
X0798851Y0262011D01*
X0798851Y0262081D02*
X0801149Y0262081D01*
X0801149Y0262151D02*
X0798851Y0262151D01*
X0798851Y0262221D02*
X0801149Y0262221D01*
X0801149Y0262291D02*
X0798851Y0262291D01*
X0798851Y0262361D02*
X0801149Y0262361D01*
X0801149Y0262431D02*
X0798851Y0262431D01*
X0798851Y0262501D02*
X0801149Y0262501D01*
X0801149Y0262571D02*
X0798851Y0262571D01*
X0798851Y0262641D02*
X0801149Y0262641D01*
X0801149Y0262711D02*
X0798851Y0262711D01*
X0798851Y0262781D02*
X0801149Y0262781D01*
X0801149Y0262851D02*
X0798851Y0262851D01*
X0798851Y0262921D02*
X0801149Y0262921D01*
X0801149Y0262991D02*
X0798851Y0262991D01*
X0798851Y0263061D02*
X0801149Y0263061D01*
X0801149Y0263131D02*
X0798851Y0263131D01*
X0798851Y0263201D02*
X0801149Y0263201D01*
X0801149Y0263271D02*
X0798851Y0263271D01*
X0798851Y0263341D02*
X0801149Y0263341D01*
X0801149Y0263411D02*
X0798851Y0263411D01*
X0798851Y0263481D02*
X0801149Y0263481D01*
X0801149Y0263551D02*
X0798851Y0263551D01*
X0798851Y0263621D02*
X0801149Y0263621D01*
X0801149Y0263691D02*
X0798851Y0263691D01*
X0798851Y0263761D02*
X0801149Y0263761D01*
X0801149Y0263831D02*
X0798851Y0263831D01*
X0798851Y0263901D02*
X0801149Y0263901D01*
X0801149Y0263971D02*
X0798851Y0263971D01*
X0798851Y0264041D02*
X0801149Y0264041D01*
X0801149Y0264111D02*
X0798851Y0264111D01*
X0798851Y0264181D02*
X0801149Y0264181D01*
X0801149Y0264251D02*
X0798851Y0264251D01*
X0798851Y0264321D02*
X0801149Y0264321D01*
X0801149Y0264391D02*
X0798851Y0264391D01*
X0798851Y0264461D02*
X0801149Y0264461D01*
X0801149Y0264531D02*
X0798851Y0264531D01*
X0798851Y0264601D02*
X0801149Y0264601D01*
X0801149Y0264671D02*
X0798851Y0264671D01*
X0798851Y0264741D02*
X0801149Y0264741D01*
X0801149Y0264811D02*
X0798851Y0264811D01*
X0798851Y0264881D02*
X0801149Y0264881D01*
X0801149Y0264951D02*
X0798851Y0264951D01*
X0798851Y0265021D02*
X0801149Y0265021D01*
X0801149Y0265091D02*
X0798851Y0265091D01*
X0793851Y0265157D02*
X0793851Y0260891D01*
X0793851Y0265157D02*
X0796149Y0265157D01*
X0796149Y0260891D01*
X0793851Y0260891D01*
X0793851Y0260961D02*
X0796149Y0260961D01*
X0796149Y0261031D02*
X0793851Y0261031D01*
X0793851Y0261101D02*
X0796149Y0261101D01*
X0796149Y0261171D02*
X0793851Y0261171D01*
X0793851Y0261241D02*
X0796149Y0261241D01*
X0796149Y0261311D02*
X0793851Y0261311D01*
X0793851Y0261381D02*
X0796149Y0261381D01*
X0796149Y0261451D02*
X0793851Y0261451D01*
X0793851Y0261521D02*
X0796149Y0261521D01*
X0796149Y0261591D02*
X0793851Y0261591D01*
X0793851Y0261661D02*
X0796149Y0261661D01*
X0796149Y0261731D02*
X0793851Y0261731D01*
X0793851Y0261801D02*
X0796149Y0261801D01*
X0796149Y0261871D02*
X0793851Y0261871D01*
X0793851Y0261941D02*
X0796149Y0261941D01*
X0796149Y0262011D02*
X0793851Y0262011D01*
X0793851Y0262081D02*
X0796149Y0262081D01*
X0796149Y0262151D02*
X0793851Y0262151D01*
X0793851Y0262221D02*
X0796149Y0262221D01*
X0796149Y0262291D02*
X0793851Y0262291D01*
X0793851Y0262361D02*
X0796149Y0262361D01*
X0796149Y0262431D02*
X0793851Y0262431D01*
X0793851Y0262501D02*
X0796149Y0262501D01*
X0796149Y0262571D02*
X0793851Y0262571D01*
X0793851Y0262641D02*
X0796149Y0262641D01*
X0796149Y0262711D02*
X0793851Y0262711D01*
X0793851Y0262781D02*
X0796149Y0262781D01*
X0796149Y0262851D02*
X0793851Y0262851D01*
X0793851Y0262921D02*
X0796149Y0262921D01*
X0796149Y0262991D02*
X0793851Y0262991D01*
X0793851Y0263061D02*
X0796149Y0263061D01*
X0796149Y0263131D02*
X0793851Y0263131D01*
X0793851Y0263201D02*
X0796149Y0263201D01*
X0796149Y0263271D02*
X0793851Y0263271D01*
X0793851Y0263341D02*
X0796149Y0263341D01*
X0796149Y0263411D02*
X0793851Y0263411D01*
X0793851Y0263481D02*
X0796149Y0263481D01*
X0796149Y0263551D02*
X0793851Y0263551D01*
X0793851Y0263621D02*
X0796149Y0263621D01*
X0796149Y0263691D02*
X0793851Y0263691D01*
X0793851Y0263761D02*
X0796149Y0263761D01*
X0796149Y0263831D02*
X0793851Y0263831D01*
X0793851Y0263901D02*
X0796149Y0263901D01*
X0796149Y0263971D02*
X0793851Y0263971D01*
X0793851Y0264041D02*
X0796149Y0264041D01*
X0796149Y0264111D02*
X0793851Y0264111D01*
X0793851Y0264181D02*
X0796149Y0264181D01*
X0796149Y0264251D02*
X0793851Y0264251D01*
X0793851Y0264321D02*
X0796149Y0264321D01*
X0796149Y0264391D02*
X0793851Y0264391D01*
X0793851Y0264461D02*
X0796149Y0264461D01*
X0796149Y0264531D02*
X0793851Y0264531D01*
X0793851Y0264601D02*
X0796149Y0264601D01*
X0796149Y0264671D02*
X0793851Y0264671D01*
X0793851Y0264741D02*
X0796149Y0264741D01*
X0796149Y0264811D02*
X0793851Y0264811D01*
X0793851Y0264881D02*
X0796149Y0264881D01*
X0796149Y0264951D02*
X0793851Y0264951D01*
X0793851Y0265021D02*
X0796149Y0265021D01*
X0796149Y0265091D02*
X0793851Y0265091D01*
D47*
X0167794Y0024270D02*
X0167794Y0020330D01*
X0163854Y0020330D01*
X0163854Y0024270D01*
X0167794Y0024270D01*
X0167794Y0024269D02*
X0163854Y0024269D01*
X0158346Y0024270D02*
X0158346Y0020330D01*
X0154406Y0020330D01*
X0154406Y0024270D01*
X0158346Y0024270D01*
X0158346Y0024269D02*
X0154406Y0024269D01*
X0019970Y0335806D02*
X0016030Y0335806D01*
X0016030Y0339746D01*
X0019970Y0339746D01*
X0019970Y0335806D01*
X0019970Y0339745D02*
X0016030Y0339745D01*
X0016030Y0345254D02*
X0019970Y0345254D01*
X0016030Y0345254D02*
X0016030Y0349194D01*
X0019970Y0349194D01*
X0019970Y0345254D01*
X0019970Y0349193D02*
X0016030Y0349193D01*
D48*
X0155982Y0033619D03*
X0158541Y0033619D03*
X0161100Y0033619D03*
X0163659Y0033619D03*
X0166218Y0033619D03*
D49*
X0175372Y0024300D02*
X0175372Y0020300D01*
X0146828Y0020300D02*
X0146828Y0024300D01*
X0020000Y0328228D02*
X0016000Y0328228D01*
X0016000Y0356772D02*
X0020000Y0356772D01*
D50*
X0028748Y0352047D03*
X0028748Y0332953D03*
X0552500Y0167500D03*
X0552500Y0157500D03*
X0552500Y0147500D03*
X0391843Y0023500D03*
X0372157Y0023500D03*
X0170647Y0033048D03*
X0151553Y0033048D03*
D51*
X0029319Y0337382D03*
X0029319Y0339941D03*
X0029319Y0342500D03*
X0029319Y0345059D03*
X0029319Y0347618D03*
D52*
X0136116Y0081451D03*
X0136116Y0064451D03*
D53*
X0552500Y0137500D03*
D54*
X0817000Y0178500D03*
X0885000Y0178500D03*
X0885000Y0022500D03*
X0817000Y0022500D03*
D55*
X0821000Y0040500D03*
X0956717Y0033185D03*
X0881000Y0157500D03*
X0523646Y0033185D03*
X0031520Y0033185D03*
X0031520Y0407201D03*
X0503961Y0407201D03*
X0877976Y0407201D03*
D56*
X0277351Y0097584D03*
X0277351Y0095084D03*
X0277351Y0092484D03*
X0277351Y0089984D03*
X0277351Y0087384D03*
X0277351Y0084784D03*
X0277351Y0082284D03*
X0277351Y0079684D03*
X0277351Y0077184D03*
X0277351Y0074584D03*
X0277351Y0071984D03*
X0277351Y0069484D03*
X0277351Y0066884D03*
X0277351Y0064384D03*
X0248751Y0064384D03*
X0248751Y0066884D03*
X0248751Y0069484D03*
X0248751Y0071984D03*
X0248751Y0074584D03*
X0248751Y0077184D03*
X0248751Y0079684D03*
X0248751Y0082284D03*
X0248751Y0084784D03*
X0248751Y0087384D03*
X0248751Y0089984D03*
X0248751Y0092484D03*
X0248751Y0095084D03*
X0248751Y0097584D03*
D57*
X0646500Y0192500D03*
X0657500Y0192500D03*
X0676500Y0192500D03*
X0687500Y0192500D03*
D58*
X0608683Y0131122D02*
X0603427Y0131122D01*
X0603427Y0133878D01*
X0608683Y0133878D01*
X0608683Y0131122D01*
X0608683Y0131266D02*
X0603427Y0131266D01*
X0603427Y0131410D02*
X0608683Y0131410D01*
X0608683Y0131554D02*
X0603427Y0131554D01*
X0603427Y0131698D02*
X0608683Y0131698D01*
X0608683Y0131842D02*
X0603427Y0131842D01*
X0603427Y0131986D02*
X0608683Y0131986D01*
X0608683Y0132130D02*
X0603427Y0132130D01*
X0603427Y0132274D02*
X0608683Y0132274D01*
X0608683Y0132418D02*
X0603427Y0132418D01*
X0603427Y0132562D02*
X0608683Y0132562D01*
X0608683Y0132706D02*
X0603427Y0132706D01*
X0603427Y0132850D02*
X0608683Y0132850D01*
X0608683Y0132994D02*
X0603427Y0132994D01*
X0603427Y0133138D02*
X0608683Y0133138D01*
X0608683Y0133282D02*
X0603427Y0133282D01*
X0603427Y0133426D02*
X0608683Y0133426D01*
X0608683Y0133570D02*
X0603427Y0133570D01*
X0603427Y0133714D02*
X0608683Y0133714D01*
X0608683Y0133858D02*
X0603427Y0133858D01*
X0599628Y0131122D02*
X0594372Y0131122D01*
X0594372Y0133878D01*
X0599628Y0133878D01*
X0599628Y0131122D01*
X0599628Y0131266D02*
X0594372Y0131266D01*
X0594372Y0131410D02*
X0599628Y0131410D01*
X0599628Y0131554D02*
X0594372Y0131554D01*
X0594372Y0131698D02*
X0599628Y0131698D01*
X0599628Y0131842D02*
X0594372Y0131842D01*
X0594372Y0131986D02*
X0599628Y0131986D01*
X0599628Y0132130D02*
X0594372Y0132130D01*
X0594372Y0132274D02*
X0599628Y0132274D01*
X0599628Y0132418D02*
X0594372Y0132418D01*
X0594372Y0132562D02*
X0599628Y0132562D01*
X0599628Y0132706D02*
X0594372Y0132706D01*
X0594372Y0132850D02*
X0599628Y0132850D01*
X0599628Y0132994D02*
X0594372Y0132994D01*
X0594372Y0133138D02*
X0599628Y0133138D01*
X0599628Y0133282D02*
X0594372Y0133282D01*
X0594372Y0133426D02*
X0599628Y0133426D01*
X0599628Y0133570D02*
X0594372Y0133570D01*
X0594372Y0133714D02*
X0599628Y0133714D01*
X0599628Y0133858D02*
X0594372Y0133858D01*
X0594372Y0109468D02*
X0599628Y0109468D01*
X0594372Y0109468D02*
X0594372Y0112224D01*
X0599628Y0112224D01*
X0599628Y0109468D01*
X0599628Y0109612D02*
X0594372Y0109612D01*
X0594372Y0109756D02*
X0599628Y0109756D01*
X0599628Y0109900D02*
X0594372Y0109900D01*
X0594372Y0110044D02*
X0599628Y0110044D01*
X0599628Y0110188D02*
X0594372Y0110188D01*
X0594372Y0110332D02*
X0599628Y0110332D01*
X0599628Y0110476D02*
X0594372Y0110476D01*
X0594372Y0110620D02*
X0599628Y0110620D01*
X0599628Y0110764D02*
X0594372Y0110764D01*
X0594372Y0110908D02*
X0599628Y0110908D01*
X0599628Y0111052D02*
X0594372Y0111052D01*
X0594372Y0111196D02*
X0599628Y0111196D01*
X0599628Y0111340D02*
X0594372Y0111340D01*
X0594372Y0111484D02*
X0599628Y0111484D01*
X0599628Y0111628D02*
X0594372Y0111628D01*
X0594372Y0111772D02*
X0599628Y0111772D01*
X0599628Y0111916D02*
X0594372Y0111916D01*
X0594372Y0112060D02*
X0599628Y0112060D01*
X0599628Y0112204D02*
X0594372Y0112204D01*
X0603427Y0109468D02*
X0608683Y0109468D01*
X0603427Y0109468D02*
X0603427Y0112224D01*
X0608683Y0112224D01*
X0608683Y0109468D01*
X0608683Y0109612D02*
X0603427Y0109612D01*
X0603427Y0109756D02*
X0608683Y0109756D01*
X0608683Y0109900D02*
X0603427Y0109900D01*
X0603427Y0110044D02*
X0608683Y0110044D01*
X0608683Y0110188D02*
X0603427Y0110188D01*
X0603427Y0110332D02*
X0608683Y0110332D01*
X0608683Y0110476D02*
X0603427Y0110476D01*
X0603427Y0110620D02*
X0608683Y0110620D01*
X0608683Y0110764D02*
X0603427Y0110764D01*
X0603427Y0110908D02*
X0608683Y0110908D01*
X0608683Y0111052D02*
X0603427Y0111052D01*
X0603427Y0111196D02*
X0608683Y0111196D01*
X0608683Y0111340D02*
X0603427Y0111340D01*
X0603427Y0111484D02*
X0608683Y0111484D01*
X0608683Y0111628D02*
X0603427Y0111628D01*
X0603427Y0111772D02*
X0608683Y0111772D01*
X0608683Y0111916D02*
X0603427Y0111916D01*
X0603427Y0112060D02*
X0608683Y0112060D01*
X0608683Y0112204D02*
X0603427Y0112204D01*
D59*
X0063500Y0118500D03*
X0056500Y0118500D03*
X0060000Y0126500D03*
X0056500Y0137500D03*
X0063500Y0137500D03*
X0060000Y0145500D03*
X0024000Y0288500D03*
X0027500Y0296500D03*
X0020500Y0296500D03*
D60*
X0569000Y0411713D03*
X0575000Y0411713D03*
X0587000Y0411713D03*
X0296400Y0028287D03*
X0290400Y0028287D03*
X0278400Y0028287D03*
D61*
X0272900Y0025028D03*
X0272900Y0015972D03*
X0301900Y0015972D03*
X0301900Y0025028D03*
X0563500Y0414972D03*
X0563500Y0424028D03*
X0592500Y0424028D03*
X0592500Y0414972D03*
D62*
X0584000Y0419500D03*
X0572000Y0419500D03*
X0019000Y0070500D03*
X0019000Y0058500D03*
X0281400Y0020500D03*
X0293400Y0020500D03*
D63*
X0026787Y0055500D03*
X0026787Y0061500D03*
X0026787Y0073500D03*
D64*
X0023528Y0079000D03*
X0014472Y0079000D03*
X0014472Y0050000D03*
X0023528Y0050000D03*
D65*
X0299000Y0051154D03*
X0299000Y0057846D03*
M02*
