G75*
%MOIN*%
%OFA0B0*%
%FSLAX25Y25*%
%IPPOS*%
%LPD*%
%AMOC8*
5,1,8,0,0,1.08239X$1,22.5*
%
%ADD10C,0.00000*%
%ADD11C,0.00100*%
D10*
X0011835Y0013500D02*
X0011835Y0426886D01*
X0893724Y0426886D01*
X0893724Y0344209D01*
X0909472Y0344209D01*
X0909472Y0206413D01*
X0975921Y0206413D01*
X0976402Y0013500D01*
X0011835Y0013500D01*
X0025614Y0033185D02*
X0025616Y0033338D01*
X0025622Y0033492D01*
X0025632Y0033645D01*
X0025646Y0033797D01*
X0025664Y0033950D01*
X0025686Y0034101D01*
X0025711Y0034252D01*
X0025741Y0034403D01*
X0025775Y0034553D01*
X0025812Y0034701D01*
X0025853Y0034849D01*
X0025898Y0034995D01*
X0025947Y0035141D01*
X0026000Y0035285D01*
X0026056Y0035427D01*
X0026116Y0035568D01*
X0026180Y0035708D01*
X0026247Y0035846D01*
X0026318Y0035982D01*
X0026393Y0036116D01*
X0026470Y0036248D01*
X0026552Y0036378D01*
X0026636Y0036506D01*
X0026724Y0036632D01*
X0026815Y0036755D01*
X0026909Y0036876D01*
X0027007Y0036994D01*
X0027107Y0037110D01*
X0027211Y0037223D01*
X0027317Y0037334D01*
X0027426Y0037442D01*
X0027538Y0037547D01*
X0027652Y0037648D01*
X0027770Y0037747D01*
X0027889Y0037843D01*
X0028011Y0037936D01*
X0028136Y0038025D01*
X0028263Y0038112D01*
X0028392Y0038194D01*
X0028523Y0038274D01*
X0028656Y0038350D01*
X0028791Y0038423D01*
X0028928Y0038492D01*
X0029067Y0038557D01*
X0029207Y0038619D01*
X0029349Y0038677D01*
X0029492Y0038732D01*
X0029637Y0038783D01*
X0029783Y0038830D01*
X0029930Y0038873D01*
X0030078Y0038912D01*
X0030227Y0038948D01*
X0030377Y0038979D01*
X0030528Y0039007D01*
X0030679Y0039031D01*
X0030832Y0039051D01*
X0030984Y0039067D01*
X0031137Y0039079D01*
X0031290Y0039087D01*
X0031443Y0039091D01*
X0031597Y0039091D01*
X0031750Y0039087D01*
X0031903Y0039079D01*
X0032056Y0039067D01*
X0032208Y0039051D01*
X0032361Y0039031D01*
X0032512Y0039007D01*
X0032663Y0038979D01*
X0032813Y0038948D01*
X0032962Y0038912D01*
X0033110Y0038873D01*
X0033257Y0038830D01*
X0033403Y0038783D01*
X0033548Y0038732D01*
X0033691Y0038677D01*
X0033833Y0038619D01*
X0033973Y0038557D01*
X0034112Y0038492D01*
X0034249Y0038423D01*
X0034384Y0038350D01*
X0034517Y0038274D01*
X0034648Y0038194D01*
X0034777Y0038112D01*
X0034904Y0038025D01*
X0035029Y0037936D01*
X0035151Y0037843D01*
X0035270Y0037747D01*
X0035388Y0037648D01*
X0035502Y0037547D01*
X0035614Y0037442D01*
X0035723Y0037334D01*
X0035829Y0037223D01*
X0035933Y0037110D01*
X0036033Y0036994D01*
X0036131Y0036876D01*
X0036225Y0036755D01*
X0036316Y0036632D01*
X0036404Y0036506D01*
X0036488Y0036378D01*
X0036570Y0036248D01*
X0036647Y0036116D01*
X0036722Y0035982D01*
X0036793Y0035846D01*
X0036860Y0035708D01*
X0036924Y0035568D01*
X0036984Y0035427D01*
X0037040Y0035285D01*
X0037093Y0035141D01*
X0037142Y0034995D01*
X0037187Y0034849D01*
X0037228Y0034701D01*
X0037265Y0034553D01*
X0037299Y0034403D01*
X0037329Y0034252D01*
X0037354Y0034101D01*
X0037376Y0033950D01*
X0037394Y0033797D01*
X0037408Y0033645D01*
X0037418Y0033492D01*
X0037424Y0033338D01*
X0037426Y0033185D01*
X0037424Y0033032D01*
X0037418Y0032878D01*
X0037408Y0032725D01*
X0037394Y0032573D01*
X0037376Y0032420D01*
X0037354Y0032269D01*
X0037329Y0032118D01*
X0037299Y0031967D01*
X0037265Y0031817D01*
X0037228Y0031669D01*
X0037187Y0031521D01*
X0037142Y0031375D01*
X0037093Y0031229D01*
X0037040Y0031085D01*
X0036984Y0030943D01*
X0036924Y0030802D01*
X0036860Y0030662D01*
X0036793Y0030524D01*
X0036722Y0030388D01*
X0036647Y0030254D01*
X0036570Y0030122D01*
X0036488Y0029992D01*
X0036404Y0029864D01*
X0036316Y0029738D01*
X0036225Y0029615D01*
X0036131Y0029494D01*
X0036033Y0029376D01*
X0035933Y0029260D01*
X0035829Y0029147D01*
X0035723Y0029036D01*
X0035614Y0028928D01*
X0035502Y0028823D01*
X0035388Y0028722D01*
X0035270Y0028623D01*
X0035151Y0028527D01*
X0035029Y0028434D01*
X0034904Y0028345D01*
X0034777Y0028258D01*
X0034648Y0028176D01*
X0034517Y0028096D01*
X0034384Y0028020D01*
X0034249Y0027947D01*
X0034112Y0027878D01*
X0033973Y0027813D01*
X0033833Y0027751D01*
X0033691Y0027693D01*
X0033548Y0027638D01*
X0033403Y0027587D01*
X0033257Y0027540D01*
X0033110Y0027497D01*
X0032962Y0027458D01*
X0032813Y0027422D01*
X0032663Y0027391D01*
X0032512Y0027363D01*
X0032361Y0027339D01*
X0032208Y0027319D01*
X0032056Y0027303D01*
X0031903Y0027291D01*
X0031750Y0027283D01*
X0031597Y0027279D01*
X0031443Y0027279D01*
X0031290Y0027283D01*
X0031137Y0027291D01*
X0030984Y0027303D01*
X0030832Y0027319D01*
X0030679Y0027339D01*
X0030528Y0027363D01*
X0030377Y0027391D01*
X0030227Y0027422D01*
X0030078Y0027458D01*
X0029930Y0027497D01*
X0029783Y0027540D01*
X0029637Y0027587D01*
X0029492Y0027638D01*
X0029349Y0027693D01*
X0029207Y0027751D01*
X0029067Y0027813D01*
X0028928Y0027878D01*
X0028791Y0027947D01*
X0028656Y0028020D01*
X0028523Y0028096D01*
X0028392Y0028176D01*
X0028263Y0028258D01*
X0028136Y0028345D01*
X0028011Y0028434D01*
X0027889Y0028527D01*
X0027770Y0028623D01*
X0027652Y0028722D01*
X0027538Y0028823D01*
X0027426Y0028928D01*
X0027317Y0029036D01*
X0027211Y0029147D01*
X0027107Y0029260D01*
X0027007Y0029376D01*
X0026909Y0029494D01*
X0026815Y0029615D01*
X0026724Y0029738D01*
X0026636Y0029864D01*
X0026552Y0029992D01*
X0026470Y0030122D01*
X0026393Y0030254D01*
X0026318Y0030388D01*
X0026247Y0030524D01*
X0026180Y0030662D01*
X0026116Y0030802D01*
X0026056Y0030943D01*
X0026000Y0031085D01*
X0025947Y0031229D01*
X0025898Y0031375D01*
X0025853Y0031521D01*
X0025812Y0031669D01*
X0025775Y0031817D01*
X0025741Y0031967D01*
X0025711Y0032118D01*
X0025686Y0032269D01*
X0025664Y0032420D01*
X0025646Y0032573D01*
X0025632Y0032725D01*
X0025622Y0032878D01*
X0025616Y0033032D01*
X0025614Y0033185D01*
X0065334Y0034472D02*
X0065336Y0034556D01*
X0065342Y0034639D01*
X0065352Y0034722D01*
X0065366Y0034805D01*
X0065383Y0034887D01*
X0065405Y0034968D01*
X0065430Y0035047D01*
X0065459Y0035126D01*
X0065492Y0035203D01*
X0065528Y0035278D01*
X0065568Y0035352D01*
X0065611Y0035424D01*
X0065658Y0035493D01*
X0065708Y0035560D01*
X0065761Y0035625D01*
X0065817Y0035687D01*
X0065875Y0035747D01*
X0065937Y0035804D01*
X0066001Y0035857D01*
X0066068Y0035908D01*
X0066137Y0035955D01*
X0066208Y0036000D01*
X0066281Y0036040D01*
X0066356Y0036077D01*
X0066433Y0036111D01*
X0066511Y0036141D01*
X0066590Y0036167D01*
X0066671Y0036190D01*
X0066753Y0036208D01*
X0066835Y0036223D01*
X0066918Y0036234D01*
X0067001Y0036241D01*
X0067085Y0036244D01*
X0067169Y0036243D01*
X0067252Y0036238D01*
X0067336Y0036229D01*
X0067418Y0036216D01*
X0067500Y0036200D01*
X0067581Y0036179D01*
X0067662Y0036155D01*
X0067740Y0036127D01*
X0067818Y0036095D01*
X0067894Y0036059D01*
X0067968Y0036020D01*
X0068040Y0035978D01*
X0068110Y0035932D01*
X0068178Y0035883D01*
X0068243Y0035831D01*
X0068306Y0035776D01*
X0068366Y0035718D01*
X0068424Y0035657D01*
X0068478Y0035593D01*
X0068530Y0035527D01*
X0068578Y0035459D01*
X0068623Y0035388D01*
X0068664Y0035315D01*
X0068703Y0035241D01*
X0068737Y0035165D01*
X0068768Y0035087D01*
X0068795Y0035008D01*
X0068819Y0034927D01*
X0068838Y0034846D01*
X0068854Y0034764D01*
X0068866Y0034681D01*
X0068874Y0034597D01*
X0068878Y0034514D01*
X0068878Y0034430D01*
X0068874Y0034347D01*
X0068866Y0034263D01*
X0068854Y0034180D01*
X0068838Y0034098D01*
X0068819Y0034017D01*
X0068795Y0033936D01*
X0068768Y0033857D01*
X0068737Y0033779D01*
X0068703Y0033703D01*
X0068664Y0033629D01*
X0068623Y0033556D01*
X0068578Y0033485D01*
X0068530Y0033417D01*
X0068478Y0033351D01*
X0068424Y0033287D01*
X0068366Y0033226D01*
X0068306Y0033168D01*
X0068243Y0033113D01*
X0068178Y0033061D01*
X0068110Y0033012D01*
X0068040Y0032966D01*
X0067968Y0032924D01*
X0067894Y0032885D01*
X0067818Y0032849D01*
X0067740Y0032817D01*
X0067662Y0032789D01*
X0067581Y0032765D01*
X0067500Y0032744D01*
X0067418Y0032728D01*
X0067336Y0032715D01*
X0067252Y0032706D01*
X0067169Y0032701D01*
X0067085Y0032700D01*
X0067001Y0032703D01*
X0066918Y0032710D01*
X0066835Y0032721D01*
X0066753Y0032736D01*
X0066671Y0032754D01*
X0066590Y0032777D01*
X0066511Y0032803D01*
X0066433Y0032833D01*
X0066356Y0032867D01*
X0066281Y0032904D01*
X0066208Y0032944D01*
X0066137Y0032989D01*
X0066068Y0033036D01*
X0066001Y0033087D01*
X0065937Y0033140D01*
X0065875Y0033197D01*
X0065817Y0033257D01*
X0065761Y0033319D01*
X0065708Y0033384D01*
X0065658Y0033451D01*
X0065611Y0033520D01*
X0065568Y0033592D01*
X0065528Y0033666D01*
X0065492Y0033741D01*
X0065459Y0033818D01*
X0065430Y0033897D01*
X0065405Y0033976D01*
X0065383Y0034057D01*
X0065366Y0034139D01*
X0065352Y0034222D01*
X0065342Y0034305D01*
X0065336Y0034388D01*
X0065334Y0034472D01*
X0096830Y0034472D02*
X0096832Y0034556D01*
X0096838Y0034639D01*
X0096848Y0034722D01*
X0096862Y0034805D01*
X0096879Y0034887D01*
X0096901Y0034968D01*
X0096926Y0035047D01*
X0096955Y0035126D01*
X0096988Y0035203D01*
X0097024Y0035278D01*
X0097064Y0035352D01*
X0097107Y0035424D01*
X0097154Y0035493D01*
X0097204Y0035560D01*
X0097257Y0035625D01*
X0097313Y0035687D01*
X0097371Y0035747D01*
X0097433Y0035804D01*
X0097497Y0035857D01*
X0097564Y0035908D01*
X0097633Y0035955D01*
X0097704Y0036000D01*
X0097777Y0036040D01*
X0097852Y0036077D01*
X0097929Y0036111D01*
X0098007Y0036141D01*
X0098086Y0036167D01*
X0098167Y0036190D01*
X0098249Y0036208D01*
X0098331Y0036223D01*
X0098414Y0036234D01*
X0098497Y0036241D01*
X0098581Y0036244D01*
X0098665Y0036243D01*
X0098748Y0036238D01*
X0098832Y0036229D01*
X0098914Y0036216D01*
X0098996Y0036200D01*
X0099077Y0036179D01*
X0099158Y0036155D01*
X0099236Y0036127D01*
X0099314Y0036095D01*
X0099390Y0036059D01*
X0099464Y0036020D01*
X0099536Y0035978D01*
X0099606Y0035932D01*
X0099674Y0035883D01*
X0099739Y0035831D01*
X0099802Y0035776D01*
X0099862Y0035718D01*
X0099920Y0035657D01*
X0099974Y0035593D01*
X0100026Y0035527D01*
X0100074Y0035459D01*
X0100119Y0035388D01*
X0100160Y0035315D01*
X0100199Y0035241D01*
X0100233Y0035165D01*
X0100264Y0035087D01*
X0100291Y0035008D01*
X0100315Y0034927D01*
X0100334Y0034846D01*
X0100350Y0034764D01*
X0100362Y0034681D01*
X0100370Y0034597D01*
X0100374Y0034514D01*
X0100374Y0034430D01*
X0100370Y0034347D01*
X0100362Y0034263D01*
X0100350Y0034180D01*
X0100334Y0034098D01*
X0100315Y0034017D01*
X0100291Y0033936D01*
X0100264Y0033857D01*
X0100233Y0033779D01*
X0100199Y0033703D01*
X0100160Y0033629D01*
X0100119Y0033556D01*
X0100074Y0033485D01*
X0100026Y0033417D01*
X0099974Y0033351D01*
X0099920Y0033287D01*
X0099862Y0033226D01*
X0099802Y0033168D01*
X0099739Y0033113D01*
X0099674Y0033061D01*
X0099606Y0033012D01*
X0099536Y0032966D01*
X0099464Y0032924D01*
X0099390Y0032885D01*
X0099314Y0032849D01*
X0099236Y0032817D01*
X0099158Y0032789D01*
X0099077Y0032765D01*
X0098996Y0032744D01*
X0098914Y0032728D01*
X0098832Y0032715D01*
X0098748Y0032706D01*
X0098665Y0032701D01*
X0098581Y0032700D01*
X0098497Y0032703D01*
X0098414Y0032710D01*
X0098331Y0032721D01*
X0098249Y0032736D01*
X0098167Y0032754D01*
X0098086Y0032777D01*
X0098007Y0032803D01*
X0097929Y0032833D01*
X0097852Y0032867D01*
X0097777Y0032904D01*
X0097704Y0032944D01*
X0097633Y0032989D01*
X0097564Y0033036D01*
X0097497Y0033087D01*
X0097433Y0033140D01*
X0097371Y0033197D01*
X0097313Y0033257D01*
X0097257Y0033319D01*
X0097204Y0033384D01*
X0097154Y0033451D01*
X0097107Y0033520D01*
X0097064Y0033592D01*
X0097024Y0033666D01*
X0096988Y0033741D01*
X0096955Y0033818D01*
X0096926Y0033897D01*
X0096901Y0033976D01*
X0096879Y0034057D01*
X0096862Y0034139D01*
X0096848Y0034222D01*
X0096838Y0034305D01*
X0096832Y0034388D01*
X0096830Y0034472D01*
X0017400Y0058500D02*
X0017402Y0058580D01*
X0017408Y0058659D01*
X0017418Y0058738D01*
X0017432Y0058817D01*
X0017449Y0058895D01*
X0017471Y0058972D01*
X0017496Y0059047D01*
X0017526Y0059121D01*
X0017558Y0059194D01*
X0017595Y0059265D01*
X0017635Y0059334D01*
X0017678Y0059401D01*
X0017725Y0059466D01*
X0017774Y0059528D01*
X0017827Y0059588D01*
X0017883Y0059645D01*
X0017941Y0059700D01*
X0018002Y0059751D01*
X0018066Y0059799D01*
X0018132Y0059844D01*
X0018200Y0059886D01*
X0018270Y0059924D01*
X0018342Y0059958D01*
X0018415Y0059989D01*
X0018490Y0060017D01*
X0018567Y0060040D01*
X0018644Y0060060D01*
X0018722Y0060076D01*
X0018801Y0060088D01*
X0018880Y0060096D01*
X0018960Y0060100D01*
X0019040Y0060100D01*
X0019120Y0060096D01*
X0019199Y0060088D01*
X0019278Y0060076D01*
X0019356Y0060060D01*
X0019433Y0060040D01*
X0019510Y0060017D01*
X0019585Y0059989D01*
X0019658Y0059958D01*
X0019730Y0059924D01*
X0019800Y0059886D01*
X0019868Y0059844D01*
X0019934Y0059799D01*
X0019998Y0059751D01*
X0020059Y0059700D01*
X0020117Y0059645D01*
X0020173Y0059588D01*
X0020226Y0059528D01*
X0020275Y0059466D01*
X0020322Y0059401D01*
X0020365Y0059334D01*
X0020405Y0059265D01*
X0020442Y0059194D01*
X0020474Y0059121D01*
X0020504Y0059047D01*
X0020529Y0058972D01*
X0020551Y0058895D01*
X0020568Y0058817D01*
X0020582Y0058738D01*
X0020592Y0058659D01*
X0020598Y0058580D01*
X0020600Y0058500D01*
X0020598Y0058420D01*
X0020592Y0058341D01*
X0020582Y0058262D01*
X0020568Y0058183D01*
X0020551Y0058105D01*
X0020529Y0058028D01*
X0020504Y0057953D01*
X0020474Y0057879D01*
X0020442Y0057806D01*
X0020405Y0057735D01*
X0020365Y0057666D01*
X0020322Y0057599D01*
X0020275Y0057534D01*
X0020226Y0057472D01*
X0020173Y0057412D01*
X0020117Y0057355D01*
X0020059Y0057300D01*
X0019998Y0057249D01*
X0019934Y0057201D01*
X0019868Y0057156D01*
X0019800Y0057114D01*
X0019730Y0057076D01*
X0019658Y0057042D01*
X0019585Y0057011D01*
X0019510Y0056983D01*
X0019433Y0056960D01*
X0019356Y0056940D01*
X0019278Y0056924D01*
X0019199Y0056912D01*
X0019120Y0056904D01*
X0019040Y0056900D01*
X0018960Y0056900D01*
X0018880Y0056904D01*
X0018801Y0056912D01*
X0018722Y0056924D01*
X0018644Y0056940D01*
X0018567Y0056960D01*
X0018490Y0056983D01*
X0018415Y0057011D01*
X0018342Y0057042D01*
X0018270Y0057076D01*
X0018200Y0057114D01*
X0018132Y0057156D01*
X0018066Y0057201D01*
X0018002Y0057249D01*
X0017941Y0057300D01*
X0017883Y0057355D01*
X0017827Y0057412D01*
X0017774Y0057472D01*
X0017725Y0057534D01*
X0017678Y0057599D01*
X0017635Y0057666D01*
X0017595Y0057735D01*
X0017558Y0057806D01*
X0017526Y0057879D01*
X0017496Y0057953D01*
X0017471Y0058028D01*
X0017449Y0058105D01*
X0017432Y0058183D01*
X0017418Y0058262D01*
X0017408Y0058341D01*
X0017402Y0058420D01*
X0017400Y0058500D01*
X0017400Y0070500D02*
X0017402Y0070580D01*
X0017408Y0070659D01*
X0017418Y0070738D01*
X0017432Y0070817D01*
X0017449Y0070895D01*
X0017471Y0070972D01*
X0017496Y0071047D01*
X0017526Y0071121D01*
X0017558Y0071194D01*
X0017595Y0071265D01*
X0017635Y0071334D01*
X0017678Y0071401D01*
X0017725Y0071466D01*
X0017774Y0071528D01*
X0017827Y0071588D01*
X0017883Y0071645D01*
X0017941Y0071700D01*
X0018002Y0071751D01*
X0018066Y0071799D01*
X0018132Y0071844D01*
X0018200Y0071886D01*
X0018270Y0071924D01*
X0018342Y0071958D01*
X0018415Y0071989D01*
X0018490Y0072017D01*
X0018567Y0072040D01*
X0018644Y0072060D01*
X0018722Y0072076D01*
X0018801Y0072088D01*
X0018880Y0072096D01*
X0018960Y0072100D01*
X0019040Y0072100D01*
X0019120Y0072096D01*
X0019199Y0072088D01*
X0019278Y0072076D01*
X0019356Y0072060D01*
X0019433Y0072040D01*
X0019510Y0072017D01*
X0019585Y0071989D01*
X0019658Y0071958D01*
X0019730Y0071924D01*
X0019800Y0071886D01*
X0019868Y0071844D01*
X0019934Y0071799D01*
X0019998Y0071751D01*
X0020059Y0071700D01*
X0020117Y0071645D01*
X0020173Y0071588D01*
X0020226Y0071528D01*
X0020275Y0071466D01*
X0020322Y0071401D01*
X0020365Y0071334D01*
X0020405Y0071265D01*
X0020442Y0071194D01*
X0020474Y0071121D01*
X0020504Y0071047D01*
X0020529Y0070972D01*
X0020551Y0070895D01*
X0020568Y0070817D01*
X0020582Y0070738D01*
X0020592Y0070659D01*
X0020598Y0070580D01*
X0020600Y0070500D01*
X0020598Y0070420D01*
X0020592Y0070341D01*
X0020582Y0070262D01*
X0020568Y0070183D01*
X0020551Y0070105D01*
X0020529Y0070028D01*
X0020504Y0069953D01*
X0020474Y0069879D01*
X0020442Y0069806D01*
X0020405Y0069735D01*
X0020365Y0069666D01*
X0020322Y0069599D01*
X0020275Y0069534D01*
X0020226Y0069472D01*
X0020173Y0069412D01*
X0020117Y0069355D01*
X0020059Y0069300D01*
X0019998Y0069249D01*
X0019934Y0069201D01*
X0019868Y0069156D01*
X0019800Y0069114D01*
X0019730Y0069076D01*
X0019658Y0069042D01*
X0019585Y0069011D01*
X0019510Y0068983D01*
X0019433Y0068960D01*
X0019356Y0068940D01*
X0019278Y0068924D01*
X0019199Y0068912D01*
X0019120Y0068904D01*
X0019040Y0068900D01*
X0018960Y0068900D01*
X0018880Y0068904D01*
X0018801Y0068912D01*
X0018722Y0068924D01*
X0018644Y0068940D01*
X0018567Y0068960D01*
X0018490Y0068983D01*
X0018415Y0069011D01*
X0018342Y0069042D01*
X0018270Y0069076D01*
X0018200Y0069114D01*
X0018132Y0069156D01*
X0018066Y0069201D01*
X0018002Y0069249D01*
X0017941Y0069300D01*
X0017883Y0069355D01*
X0017827Y0069412D01*
X0017774Y0069472D01*
X0017725Y0069534D01*
X0017678Y0069599D01*
X0017635Y0069666D01*
X0017595Y0069735D01*
X0017558Y0069806D01*
X0017526Y0069879D01*
X0017496Y0069953D01*
X0017471Y0070028D01*
X0017449Y0070105D01*
X0017432Y0070183D01*
X0017418Y0070262D01*
X0017408Y0070341D01*
X0017402Y0070420D01*
X0017400Y0070500D01*
X0279800Y0020500D02*
X0279802Y0020580D01*
X0279808Y0020659D01*
X0279818Y0020738D01*
X0279832Y0020817D01*
X0279849Y0020895D01*
X0279871Y0020972D01*
X0279896Y0021047D01*
X0279926Y0021121D01*
X0279958Y0021194D01*
X0279995Y0021265D01*
X0280035Y0021334D01*
X0280078Y0021401D01*
X0280125Y0021466D01*
X0280174Y0021528D01*
X0280227Y0021588D01*
X0280283Y0021645D01*
X0280341Y0021700D01*
X0280402Y0021751D01*
X0280466Y0021799D01*
X0280532Y0021844D01*
X0280600Y0021886D01*
X0280670Y0021924D01*
X0280742Y0021958D01*
X0280815Y0021989D01*
X0280890Y0022017D01*
X0280967Y0022040D01*
X0281044Y0022060D01*
X0281122Y0022076D01*
X0281201Y0022088D01*
X0281280Y0022096D01*
X0281360Y0022100D01*
X0281440Y0022100D01*
X0281520Y0022096D01*
X0281599Y0022088D01*
X0281678Y0022076D01*
X0281756Y0022060D01*
X0281833Y0022040D01*
X0281910Y0022017D01*
X0281985Y0021989D01*
X0282058Y0021958D01*
X0282130Y0021924D01*
X0282200Y0021886D01*
X0282268Y0021844D01*
X0282334Y0021799D01*
X0282398Y0021751D01*
X0282459Y0021700D01*
X0282517Y0021645D01*
X0282573Y0021588D01*
X0282626Y0021528D01*
X0282675Y0021466D01*
X0282722Y0021401D01*
X0282765Y0021334D01*
X0282805Y0021265D01*
X0282842Y0021194D01*
X0282874Y0021121D01*
X0282904Y0021047D01*
X0282929Y0020972D01*
X0282951Y0020895D01*
X0282968Y0020817D01*
X0282982Y0020738D01*
X0282992Y0020659D01*
X0282998Y0020580D01*
X0283000Y0020500D01*
X0282998Y0020420D01*
X0282992Y0020341D01*
X0282982Y0020262D01*
X0282968Y0020183D01*
X0282951Y0020105D01*
X0282929Y0020028D01*
X0282904Y0019953D01*
X0282874Y0019879D01*
X0282842Y0019806D01*
X0282805Y0019735D01*
X0282765Y0019666D01*
X0282722Y0019599D01*
X0282675Y0019534D01*
X0282626Y0019472D01*
X0282573Y0019412D01*
X0282517Y0019355D01*
X0282459Y0019300D01*
X0282398Y0019249D01*
X0282334Y0019201D01*
X0282268Y0019156D01*
X0282200Y0019114D01*
X0282130Y0019076D01*
X0282058Y0019042D01*
X0281985Y0019011D01*
X0281910Y0018983D01*
X0281833Y0018960D01*
X0281756Y0018940D01*
X0281678Y0018924D01*
X0281599Y0018912D01*
X0281520Y0018904D01*
X0281440Y0018900D01*
X0281360Y0018900D01*
X0281280Y0018904D01*
X0281201Y0018912D01*
X0281122Y0018924D01*
X0281044Y0018940D01*
X0280967Y0018960D01*
X0280890Y0018983D01*
X0280815Y0019011D01*
X0280742Y0019042D01*
X0280670Y0019076D01*
X0280600Y0019114D01*
X0280532Y0019156D01*
X0280466Y0019201D01*
X0280402Y0019249D01*
X0280341Y0019300D01*
X0280283Y0019355D01*
X0280227Y0019412D01*
X0280174Y0019472D01*
X0280125Y0019534D01*
X0280078Y0019599D01*
X0280035Y0019666D01*
X0279995Y0019735D01*
X0279958Y0019806D01*
X0279926Y0019879D01*
X0279896Y0019953D01*
X0279871Y0020028D01*
X0279849Y0020105D01*
X0279832Y0020183D01*
X0279818Y0020262D01*
X0279808Y0020341D01*
X0279802Y0020420D01*
X0279800Y0020500D01*
X0291800Y0020500D02*
X0291802Y0020580D01*
X0291808Y0020659D01*
X0291818Y0020738D01*
X0291832Y0020817D01*
X0291849Y0020895D01*
X0291871Y0020972D01*
X0291896Y0021047D01*
X0291926Y0021121D01*
X0291958Y0021194D01*
X0291995Y0021265D01*
X0292035Y0021334D01*
X0292078Y0021401D01*
X0292125Y0021466D01*
X0292174Y0021528D01*
X0292227Y0021588D01*
X0292283Y0021645D01*
X0292341Y0021700D01*
X0292402Y0021751D01*
X0292466Y0021799D01*
X0292532Y0021844D01*
X0292600Y0021886D01*
X0292670Y0021924D01*
X0292742Y0021958D01*
X0292815Y0021989D01*
X0292890Y0022017D01*
X0292967Y0022040D01*
X0293044Y0022060D01*
X0293122Y0022076D01*
X0293201Y0022088D01*
X0293280Y0022096D01*
X0293360Y0022100D01*
X0293440Y0022100D01*
X0293520Y0022096D01*
X0293599Y0022088D01*
X0293678Y0022076D01*
X0293756Y0022060D01*
X0293833Y0022040D01*
X0293910Y0022017D01*
X0293985Y0021989D01*
X0294058Y0021958D01*
X0294130Y0021924D01*
X0294200Y0021886D01*
X0294268Y0021844D01*
X0294334Y0021799D01*
X0294398Y0021751D01*
X0294459Y0021700D01*
X0294517Y0021645D01*
X0294573Y0021588D01*
X0294626Y0021528D01*
X0294675Y0021466D01*
X0294722Y0021401D01*
X0294765Y0021334D01*
X0294805Y0021265D01*
X0294842Y0021194D01*
X0294874Y0021121D01*
X0294904Y0021047D01*
X0294929Y0020972D01*
X0294951Y0020895D01*
X0294968Y0020817D01*
X0294982Y0020738D01*
X0294992Y0020659D01*
X0294998Y0020580D01*
X0295000Y0020500D01*
X0294998Y0020420D01*
X0294992Y0020341D01*
X0294982Y0020262D01*
X0294968Y0020183D01*
X0294951Y0020105D01*
X0294929Y0020028D01*
X0294904Y0019953D01*
X0294874Y0019879D01*
X0294842Y0019806D01*
X0294805Y0019735D01*
X0294765Y0019666D01*
X0294722Y0019599D01*
X0294675Y0019534D01*
X0294626Y0019472D01*
X0294573Y0019412D01*
X0294517Y0019355D01*
X0294459Y0019300D01*
X0294398Y0019249D01*
X0294334Y0019201D01*
X0294268Y0019156D01*
X0294200Y0019114D01*
X0294130Y0019076D01*
X0294058Y0019042D01*
X0293985Y0019011D01*
X0293910Y0018983D01*
X0293833Y0018960D01*
X0293756Y0018940D01*
X0293678Y0018924D01*
X0293599Y0018912D01*
X0293520Y0018904D01*
X0293440Y0018900D01*
X0293360Y0018900D01*
X0293280Y0018904D01*
X0293201Y0018912D01*
X0293122Y0018924D01*
X0293044Y0018940D01*
X0292967Y0018960D01*
X0292890Y0018983D01*
X0292815Y0019011D01*
X0292742Y0019042D01*
X0292670Y0019076D01*
X0292600Y0019114D01*
X0292532Y0019156D01*
X0292466Y0019201D01*
X0292402Y0019249D01*
X0292341Y0019300D01*
X0292283Y0019355D01*
X0292227Y0019412D01*
X0292174Y0019472D01*
X0292125Y0019534D01*
X0292078Y0019599D01*
X0292035Y0019666D01*
X0291995Y0019735D01*
X0291958Y0019806D01*
X0291926Y0019879D01*
X0291896Y0019953D01*
X0291871Y0020028D01*
X0291849Y0020105D01*
X0291832Y0020183D01*
X0291818Y0020262D01*
X0291808Y0020341D01*
X0291802Y0020420D01*
X0291800Y0020500D01*
X0517740Y0033185D02*
X0517742Y0033338D01*
X0517748Y0033492D01*
X0517758Y0033645D01*
X0517772Y0033797D01*
X0517790Y0033950D01*
X0517812Y0034101D01*
X0517837Y0034252D01*
X0517867Y0034403D01*
X0517901Y0034553D01*
X0517938Y0034701D01*
X0517979Y0034849D01*
X0518024Y0034995D01*
X0518073Y0035141D01*
X0518126Y0035285D01*
X0518182Y0035427D01*
X0518242Y0035568D01*
X0518306Y0035708D01*
X0518373Y0035846D01*
X0518444Y0035982D01*
X0518519Y0036116D01*
X0518596Y0036248D01*
X0518678Y0036378D01*
X0518762Y0036506D01*
X0518850Y0036632D01*
X0518941Y0036755D01*
X0519035Y0036876D01*
X0519133Y0036994D01*
X0519233Y0037110D01*
X0519337Y0037223D01*
X0519443Y0037334D01*
X0519552Y0037442D01*
X0519664Y0037547D01*
X0519778Y0037648D01*
X0519896Y0037747D01*
X0520015Y0037843D01*
X0520137Y0037936D01*
X0520262Y0038025D01*
X0520389Y0038112D01*
X0520518Y0038194D01*
X0520649Y0038274D01*
X0520782Y0038350D01*
X0520917Y0038423D01*
X0521054Y0038492D01*
X0521193Y0038557D01*
X0521333Y0038619D01*
X0521475Y0038677D01*
X0521618Y0038732D01*
X0521763Y0038783D01*
X0521909Y0038830D01*
X0522056Y0038873D01*
X0522204Y0038912D01*
X0522353Y0038948D01*
X0522503Y0038979D01*
X0522654Y0039007D01*
X0522805Y0039031D01*
X0522958Y0039051D01*
X0523110Y0039067D01*
X0523263Y0039079D01*
X0523416Y0039087D01*
X0523569Y0039091D01*
X0523723Y0039091D01*
X0523876Y0039087D01*
X0524029Y0039079D01*
X0524182Y0039067D01*
X0524334Y0039051D01*
X0524487Y0039031D01*
X0524638Y0039007D01*
X0524789Y0038979D01*
X0524939Y0038948D01*
X0525088Y0038912D01*
X0525236Y0038873D01*
X0525383Y0038830D01*
X0525529Y0038783D01*
X0525674Y0038732D01*
X0525817Y0038677D01*
X0525959Y0038619D01*
X0526099Y0038557D01*
X0526238Y0038492D01*
X0526375Y0038423D01*
X0526510Y0038350D01*
X0526643Y0038274D01*
X0526774Y0038194D01*
X0526903Y0038112D01*
X0527030Y0038025D01*
X0527155Y0037936D01*
X0527277Y0037843D01*
X0527396Y0037747D01*
X0527514Y0037648D01*
X0527628Y0037547D01*
X0527740Y0037442D01*
X0527849Y0037334D01*
X0527955Y0037223D01*
X0528059Y0037110D01*
X0528159Y0036994D01*
X0528257Y0036876D01*
X0528351Y0036755D01*
X0528442Y0036632D01*
X0528530Y0036506D01*
X0528614Y0036378D01*
X0528696Y0036248D01*
X0528773Y0036116D01*
X0528848Y0035982D01*
X0528919Y0035846D01*
X0528986Y0035708D01*
X0529050Y0035568D01*
X0529110Y0035427D01*
X0529166Y0035285D01*
X0529219Y0035141D01*
X0529268Y0034995D01*
X0529313Y0034849D01*
X0529354Y0034701D01*
X0529391Y0034553D01*
X0529425Y0034403D01*
X0529455Y0034252D01*
X0529480Y0034101D01*
X0529502Y0033950D01*
X0529520Y0033797D01*
X0529534Y0033645D01*
X0529544Y0033492D01*
X0529550Y0033338D01*
X0529552Y0033185D01*
X0529550Y0033032D01*
X0529544Y0032878D01*
X0529534Y0032725D01*
X0529520Y0032573D01*
X0529502Y0032420D01*
X0529480Y0032269D01*
X0529455Y0032118D01*
X0529425Y0031967D01*
X0529391Y0031817D01*
X0529354Y0031669D01*
X0529313Y0031521D01*
X0529268Y0031375D01*
X0529219Y0031229D01*
X0529166Y0031085D01*
X0529110Y0030943D01*
X0529050Y0030802D01*
X0528986Y0030662D01*
X0528919Y0030524D01*
X0528848Y0030388D01*
X0528773Y0030254D01*
X0528696Y0030122D01*
X0528614Y0029992D01*
X0528530Y0029864D01*
X0528442Y0029738D01*
X0528351Y0029615D01*
X0528257Y0029494D01*
X0528159Y0029376D01*
X0528059Y0029260D01*
X0527955Y0029147D01*
X0527849Y0029036D01*
X0527740Y0028928D01*
X0527628Y0028823D01*
X0527514Y0028722D01*
X0527396Y0028623D01*
X0527277Y0028527D01*
X0527155Y0028434D01*
X0527030Y0028345D01*
X0526903Y0028258D01*
X0526774Y0028176D01*
X0526643Y0028096D01*
X0526510Y0028020D01*
X0526375Y0027947D01*
X0526238Y0027878D01*
X0526099Y0027813D01*
X0525959Y0027751D01*
X0525817Y0027693D01*
X0525674Y0027638D01*
X0525529Y0027587D01*
X0525383Y0027540D01*
X0525236Y0027497D01*
X0525088Y0027458D01*
X0524939Y0027422D01*
X0524789Y0027391D01*
X0524638Y0027363D01*
X0524487Y0027339D01*
X0524334Y0027319D01*
X0524182Y0027303D01*
X0524029Y0027291D01*
X0523876Y0027283D01*
X0523723Y0027279D01*
X0523569Y0027279D01*
X0523416Y0027283D01*
X0523263Y0027291D01*
X0523110Y0027303D01*
X0522958Y0027319D01*
X0522805Y0027339D01*
X0522654Y0027363D01*
X0522503Y0027391D01*
X0522353Y0027422D01*
X0522204Y0027458D01*
X0522056Y0027497D01*
X0521909Y0027540D01*
X0521763Y0027587D01*
X0521618Y0027638D01*
X0521475Y0027693D01*
X0521333Y0027751D01*
X0521193Y0027813D01*
X0521054Y0027878D01*
X0520917Y0027947D01*
X0520782Y0028020D01*
X0520649Y0028096D01*
X0520518Y0028176D01*
X0520389Y0028258D01*
X0520262Y0028345D01*
X0520137Y0028434D01*
X0520015Y0028527D01*
X0519896Y0028623D01*
X0519778Y0028722D01*
X0519664Y0028823D01*
X0519552Y0028928D01*
X0519443Y0029036D01*
X0519337Y0029147D01*
X0519233Y0029260D01*
X0519133Y0029376D01*
X0519035Y0029494D01*
X0518941Y0029615D01*
X0518850Y0029738D01*
X0518762Y0029864D01*
X0518678Y0029992D01*
X0518596Y0030122D01*
X0518519Y0030254D01*
X0518444Y0030388D01*
X0518373Y0030524D01*
X0518306Y0030662D01*
X0518242Y0030802D01*
X0518182Y0030943D01*
X0518126Y0031085D01*
X0518073Y0031229D01*
X0518024Y0031375D01*
X0517979Y0031521D01*
X0517938Y0031669D01*
X0517901Y0031817D01*
X0517867Y0031967D01*
X0517837Y0032118D01*
X0517812Y0032269D01*
X0517790Y0032420D01*
X0517772Y0032573D01*
X0517758Y0032725D01*
X0517748Y0032878D01*
X0517742Y0033032D01*
X0517740Y0033185D01*
X0815094Y0040500D02*
X0815096Y0040653D01*
X0815102Y0040807D01*
X0815112Y0040960D01*
X0815126Y0041112D01*
X0815144Y0041265D01*
X0815166Y0041416D01*
X0815191Y0041567D01*
X0815221Y0041718D01*
X0815255Y0041868D01*
X0815292Y0042016D01*
X0815333Y0042164D01*
X0815378Y0042310D01*
X0815427Y0042456D01*
X0815480Y0042600D01*
X0815536Y0042742D01*
X0815596Y0042883D01*
X0815660Y0043023D01*
X0815727Y0043161D01*
X0815798Y0043297D01*
X0815873Y0043431D01*
X0815950Y0043563D01*
X0816032Y0043693D01*
X0816116Y0043821D01*
X0816204Y0043947D01*
X0816295Y0044070D01*
X0816389Y0044191D01*
X0816487Y0044309D01*
X0816587Y0044425D01*
X0816691Y0044538D01*
X0816797Y0044649D01*
X0816906Y0044757D01*
X0817018Y0044862D01*
X0817132Y0044963D01*
X0817250Y0045062D01*
X0817369Y0045158D01*
X0817491Y0045251D01*
X0817616Y0045340D01*
X0817743Y0045427D01*
X0817872Y0045509D01*
X0818003Y0045589D01*
X0818136Y0045665D01*
X0818271Y0045738D01*
X0818408Y0045807D01*
X0818547Y0045872D01*
X0818687Y0045934D01*
X0818829Y0045992D01*
X0818972Y0046047D01*
X0819117Y0046098D01*
X0819263Y0046145D01*
X0819410Y0046188D01*
X0819558Y0046227D01*
X0819707Y0046263D01*
X0819857Y0046294D01*
X0820008Y0046322D01*
X0820159Y0046346D01*
X0820312Y0046366D01*
X0820464Y0046382D01*
X0820617Y0046394D01*
X0820770Y0046402D01*
X0820923Y0046406D01*
X0821077Y0046406D01*
X0821230Y0046402D01*
X0821383Y0046394D01*
X0821536Y0046382D01*
X0821688Y0046366D01*
X0821841Y0046346D01*
X0821992Y0046322D01*
X0822143Y0046294D01*
X0822293Y0046263D01*
X0822442Y0046227D01*
X0822590Y0046188D01*
X0822737Y0046145D01*
X0822883Y0046098D01*
X0823028Y0046047D01*
X0823171Y0045992D01*
X0823313Y0045934D01*
X0823453Y0045872D01*
X0823592Y0045807D01*
X0823729Y0045738D01*
X0823864Y0045665D01*
X0823997Y0045589D01*
X0824128Y0045509D01*
X0824257Y0045427D01*
X0824384Y0045340D01*
X0824509Y0045251D01*
X0824631Y0045158D01*
X0824750Y0045062D01*
X0824868Y0044963D01*
X0824982Y0044862D01*
X0825094Y0044757D01*
X0825203Y0044649D01*
X0825309Y0044538D01*
X0825413Y0044425D01*
X0825513Y0044309D01*
X0825611Y0044191D01*
X0825705Y0044070D01*
X0825796Y0043947D01*
X0825884Y0043821D01*
X0825968Y0043693D01*
X0826050Y0043563D01*
X0826127Y0043431D01*
X0826202Y0043297D01*
X0826273Y0043161D01*
X0826340Y0043023D01*
X0826404Y0042883D01*
X0826464Y0042742D01*
X0826520Y0042600D01*
X0826573Y0042456D01*
X0826622Y0042310D01*
X0826667Y0042164D01*
X0826708Y0042016D01*
X0826745Y0041868D01*
X0826779Y0041718D01*
X0826809Y0041567D01*
X0826834Y0041416D01*
X0826856Y0041265D01*
X0826874Y0041112D01*
X0826888Y0040960D01*
X0826898Y0040807D01*
X0826904Y0040653D01*
X0826906Y0040500D01*
X0826904Y0040347D01*
X0826898Y0040193D01*
X0826888Y0040040D01*
X0826874Y0039888D01*
X0826856Y0039735D01*
X0826834Y0039584D01*
X0826809Y0039433D01*
X0826779Y0039282D01*
X0826745Y0039132D01*
X0826708Y0038984D01*
X0826667Y0038836D01*
X0826622Y0038690D01*
X0826573Y0038544D01*
X0826520Y0038400D01*
X0826464Y0038258D01*
X0826404Y0038117D01*
X0826340Y0037977D01*
X0826273Y0037839D01*
X0826202Y0037703D01*
X0826127Y0037569D01*
X0826050Y0037437D01*
X0825968Y0037307D01*
X0825884Y0037179D01*
X0825796Y0037053D01*
X0825705Y0036930D01*
X0825611Y0036809D01*
X0825513Y0036691D01*
X0825413Y0036575D01*
X0825309Y0036462D01*
X0825203Y0036351D01*
X0825094Y0036243D01*
X0824982Y0036138D01*
X0824868Y0036037D01*
X0824750Y0035938D01*
X0824631Y0035842D01*
X0824509Y0035749D01*
X0824384Y0035660D01*
X0824257Y0035573D01*
X0824128Y0035491D01*
X0823997Y0035411D01*
X0823864Y0035335D01*
X0823729Y0035262D01*
X0823592Y0035193D01*
X0823453Y0035128D01*
X0823313Y0035066D01*
X0823171Y0035008D01*
X0823028Y0034953D01*
X0822883Y0034902D01*
X0822737Y0034855D01*
X0822590Y0034812D01*
X0822442Y0034773D01*
X0822293Y0034737D01*
X0822143Y0034706D01*
X0821992Y0034678D01*
X0821841Y0034654D01*
X0821688Y0034634D01*
X0821536Y0034618D01*
X0821383Y0034606D01*
X0821230Y0034598D01*
X0821077Y0034594D01*
X0820923Y0034594D01*
X0820770Y0034598D01*
X0820617Y0034606D01*
X0820464Y0034618D01*
X0820312Y0034634D01*
X0820159Y0034654D01*
X0820008Y0034678D01*
X0819857Y0034706D01*
X0819707Y0034737D01*
X0819558Y0034773D01*
X0819410Y0034812D01*
X0819263Y0034855D01*
X0819117Y0034902D01*
X0818972Y0034953D01*
X0818829Y0035008D01*
X0818687Y0035066D01*
X0818547Y0035128D01*
X0818408Y0035193D01*
X0818271Y0035262D01*
X0818136Y0035335D01*
X0818003Y0035411D01*
X0817872Y0035491D01*
X0817743Y0035573D01*
X0817616Y0035660D01*
X0817491Y0035749D01*
X0817369Y0035842D01*
X0817250Y0035938D01*
X0817132Y0036037D01*
X0817018Y0036138D01*
X0816906Y0036243D01*
X0816797Y0036351D01*
X0816691Y0036462D01*
X0816587Y0036575D01*
X0816487Y0036691D01*
X0816389Y0036809D01*
X0816295Y0036930D01*
X0816204Y0037053D01*
X0816116Y0037179D01*
X0816032Y0037307D01*
X0815950Y0037437D01*
X0815873Y0037569D01*
X0815798Y0037703D01*
X0815727Y0037839D01*
X0815660Y0037977D01*
X0815596Y0038117D01*
X0815536Y0038258D01*
X0815480Y0038400D01*
X0815427Y0038544D01*
X0815378Y0038690D01*
X0815333Y0038836D01*
X0815292Y0038984D01*
X0815255Y0039132D01*
X0815221Y0039282D01*
X0815191Y0039433D01*
X0815166Y0039584D01*
X0815144Y0039735D01*
X0815126Y0039888D01*
X0815112Y0040040D01*
X0815102Y0040193D01*
X0815096Y0040347D01*
X0815094Y0040500D01*
X0950811Y0033185D02*
X0950813Y0033338D01*
X0950819Y0033492D01*
X0950829Y0033645D01*
X0950843Y0033797D01*
X0950861Y0033950D01*
X0950883Y0034101D01*
X0950908Y0034252D01*
X0950938Y0034403D01*
X0950972Y0034553D01*
X0951009Y0034701D01*
X0951050Y0034849D01*
X0951095Y0034995D01*
X0951144Y0035141D01*
X0951197Y0035285D01*
X0951253Y0035427D01*
X0951313Y0035568D01*
X0951377Y0035708D01*
X0951444Y0035846D01*
X0951515Y0035982D01*
X0951590Y0036116D01*
X0951667Y0036248D01*
X0951749Y0036378D01*
X0951833Y0036506D01*
X0951921Y0036632D01*
X0952012Y0036755D01*
X0952106Y0036876D01*
X0952204Y0036994D01*
X0952304Y0037110D01*
X0952408Y0037223D01*
X0952514Y0037334D01*
X0952623Y0037442D01*
X0952735Y0037547D01*
X0952849Y0037648D01*
X0952967Y0037747D01*
X0953086Y0037843D01*
X0953208Y0037936D01*
X0953333Y0038025D01*
X0953460Y0038112D01*
X0953589Y0038194D01*
X0953720Y0038274D01*
X0953853Y0038350D01*
X0953988Y0038423D01*
X0954125Y0038492D01*
X0954264Y0038557D01*
X0954404Y0038619D01*
X0954546Y0038677D01*
X0954689Y0038732D01*
X0954834Y0038783D01*
X0954980Y0038830D01*
X0955127Y0038873D01*
X0955275Y0038912D01*
X0955424Y0038948D01*
X0955574Y0038979D01*
X0955725Y0039007D01*
X0955876Y0039031D01*
X0956029Y0039051D01*
X0956181Y0039067D01*
X0956334Y0039079D01*
X0956487Y0039087D01*
X0956640Y0039091D01*
X0956794Y0039091D01*
X0956947Y0039087D01*
X0957100Y0039079D01*
X0957253Y0039067D01*
X0957405Y0039051D01*
X0957558Y0039031D01*
X0957709Y0039007D01*
X0957860Y0038979D01*
X0958010Y0038948D01*
X0958159Y0038912D01*
X0958307Y0038873D01*
X0958454Y0038830D01*
X0958600Y0038783D01*
X0958745Y0038732D01*
X0958888Y0038677D01*
X0959030Y0038619D01*
X0959170Y0038557D01*
X0959309Y0038492D01*
X0959446Y0038423D01*
X0959581Y0038350D01*
X0959714Y0038274D01*
X0959845Y0038194D01*
X0959974Y0038112D01*
X0960101Y0038025D01*
X0960226Y0037936D01*
X0960348Y0037843D01*
X0960467Y0037747D01*
X0960585Y0037648D01*
X0960699Y0037547D01*
X0960811Y0037442D01*
X0960920Y0037334D01*
X0961026Y0037223D01*
X0961130Y0037110D01*
X0961230Y0036994D01*
X0961328Y0036876D01*
X0961422Y0036755D01*
X0961513Y0036632D01*
X0961601Y0036506D01*
X0961685Y0036378D01*
X0961767Y0036248D01*
X0961844Y0036116D01*
X0961919Y0035982D01*
X0961990Y0035846D01*
X0962057Y0035708D01*
X0962121Y0035568D01*
X0962181Y0035427D01*
X0962237Y0035285D01*
X0962290Y0035141D01*
X0962339Y0034995D01*
X0962384Y0034849D01*
X0962425Y0034701D01*
X0962462Y0034553D01*
X0962496Y0034403D01*
X0962526Y0034252D01*
X0962551Y0034101D01*
X0962573Y0033950D01*
X0962591Y0033797D01*
X0962605Y0033645D01*
X0962615Y0033492D01*
X0962621Y0033338D01*
X0962623Y0033185D01*
X0962621Y0033032D01*
X0962615Y0032878D01*
X0962605Y0032725D01*
X0962591Y0032573D01*
X0962573Y0032420D01*
X0962551Y0032269D01*
X0962526Y0032118D01*
X0962496Y0031967D01*
X0962462Y0031817D01*
X0962425Y0031669D01*
X0962384Y0031521D01*
X0962339Y0031375D01*
X0962290Y0031229D01*
X0962237Y0031085D01*
X0962181Y0030943D01*
X0962121Y0030802D01*
X0962057Y0030662D01*
X0961990Y0030524D01*
X0961919Y0030388D01*
X0961844Y0030254D01*
X0961767Y0030122D01*
X0961685Y0029992D01*
X0961601Y0029864D01*
X0961513Y0029738D01*
X0961422Y0029615D01*
X0961328Y0029494D01*
X0961230Y0029376D01*
X0961130Y0029260D01*
X0961026Y0029147D01*
X0960920Y0029036D01*
X0960811Y0028928D01*
X0960699Y0028823D01*
X0960585Y0028722D01*
X0960467Y0028623D01*
X0960348Y0028527D01*
X0960226Y0028434D01*
X0960101Y0028345D01*
X0959974Y0028258D01*
X0959845Y0028176D01*
X0959714Y0028096D01*
X0959581Y0028020D01*
X0959446Y0027947D01*
X0959309Y0027878D01*
X0959170Y0027813D01*
X0959030Y0027751D01*
X0958888Y0027693D01*
X0958745Y0027638D01*
X0958600Y0027587D01*
X0958454Y0027540D01*
X0958307Y0027497D01*
X0958159Y0027458D01*
X0958010Y0027422D01*
X0957860Y0027391D01*
X0957709Y0027363D01*
X0957558Y0027339D01*
X0957405Y0027319D01*
X0957253Y0027303D01*
X0957100Y0027291D01*
X0956947Y0027283D01*
X0956794Y0027279D01*
X0956640Y0027279D01*
X0956487Y0027283D01*
X0956334Y0027291D01*
X0956181Y0027303D01*
X0956029Y0027319D01*
X0955876Y0027339D01*
X0955725Y0027363D01*
X0955574Y0027391D01*
X0955424Y0027422D01*
X0955275Y0027458D01*
X0955127Y0027497D01*
X0954980Y0027540D01*
X0954834Y0027587D01*
X0954689Y0027638D01*
X0954546Y0027693D01*
X0954404Y0027751D01*
X0954264Y0027813D01*
X0954125Y0027878D01*
X0953988Y0027947D01*
X0953853Y0028020D01*
X0953720Y0028096D01*
X0953589Y0028176D01*
X0953460Y0028258D01*
X0953333Y0028345D01*
X0953208Y0028434D01*
X0953086Y0028527D01*
X0952967Y0028623D01*
X0952849Y0028722D01*
X0952735Y0028823D01*
X0952623Y0028928D01*
X0952514Y0029036D01*
X0952408Y0029147D01*
X0952304Y0029260D01*
X0952204Y0029376D01*
X0952106Y0029494D01*
X0952012Y0029615D01*
X0951921Y0029738D01*
X0951833Y0029864D01*
X0951749Y0029992D01*
X0951667Y0030122D01*
X0951590Y0030254D01*
X0951515Y0030388D01*
X0951444Y0030524D01*
X0951377Y0030662D01*
X0951313Y0030802D01*
X0951253Y0030943D01*
X0951197Y0031085D01*
X0951144Y0031229D01*
X0951095Y0031375D01*
X0951050Y0031521D01*
X0951009Y0031669D01*
X0950972Y0031817D01*
X0950938Y0031967D01*
X0950908Y0032118D01*
X0950883Y0032269D01*
X0950861Y0032420D01*
X0950843Y0032573D01*
X0950829Y0032725D01*
X0950819Y0032878D01*
X0950813Y0033032D01*
X0950811Y0033185D01*
X0952500Y0070500D02*
X0952502Y0070661D01*
X0952508Y0070821D01*
X0952518Y0070982D01*
X0952532Y0071142D01*
X0952550Y0071302D01*
X0952571Y0071461D01*
X0952597Y0071620D01*
X0952627Y0071778D01*
X0952660Y0071935D01*
X0952698Y0072092D01*
X0952739Y0072247D01*
X0952784Y0072401D01*
X0952833Y0072554D01*
X0952886Y0072706D01*
X0952942Y0072857D01*
X0953003Y0073006D01*
X0953066Y0073154D01*
X0953134Y0073300D01*
X0953205Y0073444D01*
X0953279Y0073586D01*
X0953357Y0073727D01*
X0953439Y0073865D01*
X0953524Y0074002D01*
X0953612Y0074136D01*
X0953704Y0074268D01*
X0953799Y0074398D01*
X0953897Y0074526D01*
X0953998Y0074651D01*
X0954102Y0074773D01*
X0954209Y0074893D01*
X0954319Y0075010D01*
X0954432Y0075125D01*
X0954548Y0075236D01*
X0954667Y0075345D01*
X0954788Y0075450D01*
X0954912Y0075553D01*
X0955038Y0075653D01*
X0955166Y0075749D01*
X0955297Y0075842D01*
X0955431Y0075932D01*
X0955566Y0076019D01*
X0955704Y0076102D01*
X0955843Y0076182D01*
X0955985Y0076258D01*
X0956128Y0076331D01*
X0956273Y0076400D01*
X0956420Y0076466D01*
X0956568Y0076528D01*
X0956718Y0076586D01*
X0956869Y0076641D01*
X0957022Y0076692D01*
X0957176Y0076739D01*
X0957331Y0076782D01*
X0957487Y0076821D01*
X0957643Y0076857D01*
X0957801Y0076888D01*
X0957959Y0076916D01*
X0958118Y0076940D01*
X0958278Y0076960D01*
X0958438Y0076976D01*
X0958598Y0076988D01*
X0958759Y0076996D01*
X0958920Y0077000D01*
X0959080Y0077000D01*
X0959241Y0076996D01*
X0959402Y0076988D01*
X0959562Y0076976D01*
X0959722Y0076960D01*
X0959882Y0076940D01*
X0960041Y0076916D01*
X0960199Y0076888D01*
X0960357Y0076857D01*
X0960513Y0076821D01*
X0960669Y0076782D01*
X0960824Y0076739D01*
X0960978Y0076692D01*
X0961131Y0076641D01*
X0961282Y0076586D01*
X0961432Y0076528D01*
X0961580Y0076466D01*
X0961727Y0076400D01*
X0961872Y0076331D01*
X0962015Y0076258D01*
X0962157Y0076182D01*
X0962296Y0076102D01*
X0962434Y0076019D01*
X0962569Y0075932D01*
X0962703Y0075842D01*
X0962834Y0075749D01*
X0962962Y0075653D01*
X0963088Y0075553D01*
X0963212Y0075450D01*
X0963333Y0075345D01*
X0963452Y0075236D01*
X0963568Y0075125D01*
X0963681Y0075010D01*
X0963791Y0074893D01*
X0963898Y0074773D01*
X0964002Y0074651D01*
X0964103Y0074526D01*
X0964201Y0074398D01*
X0964296Y0074268D01*
X0964388Y0074136D01*
X0964476Y0074002D01*
X0964561Y0073865D01*
X0964643Y0073727D01*
X0964721Y0073586D01*
X0964795Y0073444D01*
X0964866Y0073300D01*
X0964934Y0073154D01*
X0964997Y0073006D01*
X0965058Y0072857D01*
X0965114Y0072706D01*
X0965167Y0072554D01*
X0965216Y0072401D01*
X0965261Y0072247D01*
X0965302Y0072092D01*
X0965340Y0071935D01*
X0965373Y0071778D01*
X0965403Y0071620D01*
X0965429Y0071461D01*
X0965450Y0071302D01*
X0965468Y0071142D01*
X0965482Y0070982D01*
X0965492Y0070821D01*
X0965498Y0070661D01*
X0965500Y0070500D01*
X0965498Y0070339D01*
X0965492Y0070179D01*
X0965482Y0070018D01*
X0965468Y0069858D01*
X0965450Y0069698D01*
X0965429Y0069539D01*
X0965403Y0069380D01*
X0965373Y0069222D01*
X0965340Y0069065D01*
X0965302Y0068908D01*
X0965261Y0068753D01*
X0965216Y0068599D01*
X0965167Y0068446D01*
X0965114Y0068294D01*
X0965058Y0068143D01*
X0964997Y0067994D01*
X0964934Y0067846D01*
X0964866Y0067700D01*
X0964795Y0067556D01*
X0964721Y0067414D01*
X0964643Y0067273D01*
X0964561Y0067135D01*
X0964476Y0066998D01*
X0964388Y0066864D01*
X0964296Y0066732D01*
X0964201Y0066602D01*
X0964103Y0066474D01*
X0964002Y0066349D01*
X0963898Y0066227D01*
X0963791Y0066107D01*
X0963681Y0065990D01*
X0963568Y0065875D01*
X0963452Y0065764D01*
X0963333Y0065655D01*
X0963212Y0065550D01*
X0963088Y0065447D01*
X0962962Y0065347D01*
X0962834Y0065251D01*
X0962703Y0065158D01*
X0962569Y0065068D01*
X0962434Y0064981D01*
X0962296Y0064898D01*
X0962157Y0064818D01*
X0962015Y0064742D01*
X0961872Y0064669D01*
X0961727Y0064600D01*
X0961580Y0064534D01*
X0961432Y0064472D01*
X0961282Y0064414D01*
X0961131Y0064359D01*
X0960978Y0064308D01*
X0960824Y0064261D01*
X0960669Y0064218D01*
X0960513Y0064179D01*
X0960357Y0064143D01*
X0960199Y0064112D01*
X0960041Y0064084D01*
X0959882Y0064060D01*
X0959722Y0064040D01*
X0959562Y0064024D01*
X0959402Y0064012D01*
X0959241Y0064004D01*
X0959080Y0064000D01*
X0958920Y0064000D01*
X0958759Y0064004D01*
X0958598Y0064012D01*
X0958438Y0064024D01*
X0958278Y0064040D01*
X0958118Y0064060D01*
X0957959Y0064084D01*
X0957801Y0064112D01*
X0957643Y0064143D01*
X0957487Y0064179D01*
X0957331Y0064218D01*
X0957176Y0064261D01*
X0957022Y0064308D01*
X0956869Y0064359D01*
X0956718Y0064414D01*
X0956568Y0064472D01*
X0956420Y0064534D01*
X0956273Y0064600D01*
X0956128Y0064669D01*
X0955985Y0064742D01*
X0955843Y0064818D01*
X0955704Y0064898D01*
X0955566Y0064981D01*
X0955431Y0065068D01*
X0955297Y0065158D01*
X0955166Y0065251D01*
X0955038Y0065347D01*
X0954912Y0065447D01*
X0954788Y0065550D01*
X0954667Y0065655D01*
X0954548Y0065764D01*
X0954432Y0065875D01*
X0954319Y0065990D01*
X0954209Y0066107D01*
X0954102Y0066227D01*
X0953998Y0066349D01*
X0953897Y0066474D01*
X0953799Y0066602D01*
X0953704Y0066732D01*
X0953612Y0066864D01*
X0953524Y0066998D01*
X0953439Y0067135D01*
X0953357Y0067273D01*
X0953279Y0067414D01*
X0953205Y0067556D01*
X0953134Y0067700D01*
X0953066Y0067846D01*
X0953003Y0067994D01*
X0952942Y0068143D01*
X0952886Y0068294D01*
X0952833Y0068446D01*
X0952784Y0068599D01*
X0952739Y0068753D01*
X0952698Y0068908D01*
X0952660Y0069065D01*
X0952627Y0069222D01*
X0952597Y0069380D01*
X0952571Y0069539D01*
X0952550Y0069698D01*
X0952532Y0069858D01*
X0952518Y0070018D01*
X0952508Y0070179D01*
X0952502Y0070339D01*
X0952500Y0070500D01*
X0875094Y0157500D02*
X0875096Y0157653D01*
X0875102Y0157807D01*
X0875112Y0157960D01*
X0875126Y0158112D01*
X0875144Y0158265D01*
X0875166Y0158416D01*
X0875191Y0158567D01*
X0875221Y0158718D01*
X0875255Y0158868D01*
X0875292Y0159016D01*
X0875333Y0159164D01*
X0875378Y0159310D01*
X0875427Y0159456D01*
X0875480Y0159600D01*
X0875536Y0159742D01*
X0875596Y0159883D01*
X0875660Y0160023D01*
X0875727Y0160161D01*
X0875798Y0160297D01*
X0875873Y0160431D01*
X0875950Y0160563D01*
X0876032Y0160693D01*
X0876116Y0160821D01*
X0876204Y0160947D01*
X0876295Y0161070D01*
X0876389Y0161191D01*
X0876487Y0161309D01*
X0876587Y0161425D01*
X0876691Y0161538D01*
X0876797Y0161649D01*
X0876906Y0161757D01*
X0877018Y0161862D01*
X0877132Y0161963D01*
X0877250Y0162062D01*
X0877369Y0162158D01*
X0877491Y0162251D01*
X0877616Y0162340D01*
X0877743Y0162427D01*
X0877872Y0162509D01*
X0878003Y0162589D01*
X0878136Y0162665D01*
X0878271Y0162738D01*
X0878408Y0162807D01*
X0878547Y0162872D01*
X0878687Y0162934D01*
X0878829Y0162992D01*
X0878972Y0163047D01*
X0879117Y0163098D01*
X0879263Y0163145D01*
X0879410Y0163188D01*
X0879558Y0163227D01*
X0879707Y0163263D01*
X0879857Y0163294D01*
X0880008Y0163322D01*
X0880159Y0163346D01*
X0880312Y0163366D01*
X0880464Y0163382D01*
X0880617Y0163394D01*
X0880770Y0163402D01*
X0880923Y0163406D01*
X0881077Y0163406D01*
X0881230Y0163402D01*
X0881383Y0163394D01*
X0881536Y0163382D01*
X0881688Y0163366D01*
X0881841Y0163346D01*
X0881992Y0163322D01*
X0882143Y0163294D01*
X0882293Y0163263D01*
X0882442Y0163227D01*
X0882590Y0163188D01*
X0882737Y0163145D01*
X0882883Y0163098D01*
X0883028Y0163047D01*
X0883171Y0162992D01*
X0883313Y0162934D01*
X0883453Y0162872D01*
X0883592Y0162807D01*
X0883729Y0162738D01*
X0883864Y0162665D01*
X0883997Y0162589D01*
X0884128Y0162509D01*
X0884257Y0162427D01*
X0884384Y0162340D01*
X0884509Y0162251D01*
X0884631Y0162158D01*
X0884750Y0162062D01*
X0884868Y0161963D01*
X0884982Y0161862D01*
X0885094Y0161757D01*
X0885203Y0161649D01*
X0885309Y0161538D01*
X0885413Y0161425D01*
X0885513Y0161309D01*
X0885611Y0161191D01*
X0885705Y0161070D01*
X0885796Y0160947D01*
X0885884Y0160821D01*
X0885968Y0160693D01*
X0886050Y0160563D01*
X0886127Y0160431D01*
X0886202Y0160297D01*
X0886273Y0160161D01*
X0886340Y0160023D01*
X0886404Y0159883D01*
X0886464Y0159742D01*
X0886520Y0159600D01*
X0886573Y0159456D01*
X0886622Y0159310D01*
X0886667Y0159164D01*
X0886708Y0159016D01*
X0886745Y0158868D01*
X0886779Y0158718D01*
X0886809Y0158567D01*
X0886834Y0158416D01*
X0886856Y0158265D01*
X0886874Y0158112D01*
X0886888Y0157960D01*
X0886898Y0157807D01*
X0886904Y0157653D01*
X0886906Y0157500D01*
X0886904Y0157347D01*
X0886898Y0157193D01*
X0886888Y0157040D01*
X0886874Y0156888D01*
X0886856Y0156735D01*
X0886834Y0156584D01*
X0886809Y0156433D01*
X0886779Y0156282D01*
X0886745Y0156132D01*
X0886708Y0155984D01*
X0886667Y0155836D01*
X0886622Y0155690D01*
X0886573Y0155544D01*
X0886520Y0155400D01*
X0886464Y0155258D01*
X0886404Y0155117D01*
X0886340Y0154977D01*
X0886273Y0154839D01*
X0886202Y0154703D01*
X0886127Y0154569D01*
X0886050Y0154437D01*
X0885968Y0154307D01*
X0885884Y0154179D01*
X0885796Y0154053D01*
X0885705Y0153930D01*
X0885611Y0153809D01*
X0885513Y0153691D01*
X0885413Y0153575D01*
X0885309Y0153462D01*
X0885203Y0153351D01*
X0885094Y0153243D01*
X0884982Y0153138D01*
X0884868Y0153037D01*
X0884750Y0152938D01*
X0884631Y0152842D01*
X0884509Y0152749D01*
X0884384Y0152660D01*
X0884257Y0152573D01*
X0884128Y0152491D01*
X0883997Y0152411D01*
X0883864Y0152335D01*
X0883729Y0152262D01*
X0883592Y0152193D01*
X0883453Y0152128D01*
X0883313Y0152066D01*
X0883171Y0152008D01*
X0883028Y0151953D01*
X0882883Y0151902D01*
X0882737Y0151855D01*
X0882590Y0151812D01*
X0882442Y0151773D01*
X0882293Y0151737D01*
X0882143Y0151706D01*
X0881992Y0151678D01*
X0881841Y0151654D01*
X0881688Y0151634D01*
X0881536Y0151618D01*
X0881383Y0151606D01*
X0881230Y0151598D01*
X0881077Y0151594D01*
X0880923Y0151594D01*
X0880770Y0151598D01*
X0880617Y0151606D01*
X0880464Y0151618D01*
X0880312Y0151634D01*
X0880159Y0151654D01*
X0880008Y0151678D01*
X0879857Y0151706D01*
X0879707Y0151737D01*
X0879558Y0151773D01*
X0879410Y0151812D01*
X0879263Y0151855D01*
X0879117Y0151902D01*
X0878972Y0151953D01*
X0878829Y0152008D01*
X0878687Y0152066D01*
X0878547Y0152128D01*
X0878408Y0152193D01*
X0878271Y0152262D01*
X0878136Y0152335D01*
X0878003Y0152411D01*
X0877872Y0152491D01*
X0877743Y0152573D01*
X0877616Y0152660D01*
X0877491Y0152749D01*
X0877369Y0152842D01*
X0877250Y0152938D01*
X0877132Y0153037D01*
X0877018Y0153138D01*
X0876906Y0153243D01*
X0876797Y0153351D01*
X0876691Y0153462D01*
X0876587Y0153575D01*
X0876487Y0153691D01*
X0876389Y0153809D01*
X0876295Y0153930D01*
X0876204Y0154053D01*
X0876116Y0154179D01*
X0876032Y0154307D01*
X0875950Y0154437D01*
X0875873Y0154569D01*
X0875798Y0154703D01*
X0875727Y0154839D01*
X0875660Y0154977D01*
X0875596Y0155117D01*
X0875536Y0155258D01*
X0875480Y0155400D01*
X0875427Y0155544D01*
X0875378Y0155690D01*
X0875333Y0155836D01*
X0875292Y0155984D01*
X0875255Y0156132D01*
X0875221Y0156282D01*
X0875191Y0156433D01*
X0875166Y0156584D01*
X0875144Y0156735D01*
X0875126Y0156888D01*
X0875112Y0157040D01*
X0875102Y0157193D01*
X0875096Y0157347D01*
X0875094Y0157500D01*
X0872831Y0214433D02*
X0872833Y0214580D01*
X0872839Y0214726D01*
X0872849Y0214872D01*
X0872863Y0215018D01*
X0872881Y0215164D01*
X0872902Y0215309D01*
X0872928Y0215453D01*
X0872958Y0215597D01*
X0872991Y0215739D01*
X0873028Y0215881D01*
X0873069Y0216022D01*
X0873114Y0216161D01*
X0873163Y0216300D01*
X0873215Y0216437D01*
X0873272Y0216572D01*
X0873331Y0216706D01*
X0873395Y0216838D01*
X0873462Y0216968D01*
X0873532Y0217097D01*
X0873606Y0217224D01*
X0873683Y0217348D01*
X0873764Y0217471D01*
X0873848Y0217591D01*
X0873935Y0217709D01*
X0874025Y0217824D01*
X0874118Y0217937D01*
X0874215Y0218048D01*
X0874314Y0218156D01*
X0874416Y0218261D01*
X0874521Y0218363D01*
X0874629Y0218462D01*
X0874740Y0218559D01*
X0874853Y0218652D01*
X0874968Y0218742D01*
X0875086Y0218829D01*
X0875206Y0218913D01*
X0875329Y0218994D01*
X0875453Y0219071D01*
X0875580Y0219145D01*
X0875709Y0219215D01*
X0875839Y0219282D01*
X0875971Y0219346D01*
X0876105Y0219405D01*
X0876240Y0219462D01*
X0876377Y0219514D01*
X0876516Y0219563D01*
X0876655Y0219608D01*
X0876796Y0219649D01*
X0876938Y0219686D01*
X0877080Y0219719D01*
X0877224Y0219749D01*
X0877368Y0219775D01*
X0877513Y0219796D01*
X0877659Y0219814D01*
X0877805Y0219828D01*
X0877951Y0219838D01*
X0878097Y0219844D01*
X0878244Y0219846D01*
X0878391Y0219844D01*
X0878537Y0219838D01*
X0878683Y0219828D01*
X0878829Y0219814D01*
X0878975Y0219796D01*
X0879120Y0219775D01*
X0879264Y0219749D01*
X0879408Y0219719D01*
X0879550Y0219686D01*
X0879692Y0219649D01*
X0879833Y0219608D01*
X0879972Y0219563D01*
X0880111Y0219514D01*
X0880248Y0219462D01*
X0880383Y0219405D01*
X0880517Y0219346D01*
X0880649Y0219282D01*
X0880779Y0219215D01*
X0880908Y0219145D01*
X0881035Y0219071D01*
X0881159Y0218994D01*
X0881282Y0218913D01*
X0881402Y0218829D01*
X0881520Y0218742D01*
X0881635Y0218652D01*
X0881748Y0218559D01*
X0881859Y0218462D01*
X0881967Y0218363D01*
X0882072Y0218261D01*
X0882174Y0218156D01*
X0882273Y0218048D01*
X0882370Y0217937D01*
X0882463Y0217824D01*
X0882553Y0217709D01*
X0882640Y0217591D01*
X0882724Y0217471D01*
X0882805Y0217348D01*
X0882882Y0217224D01*
X0882956Y0217097D01*
X0883026Y0216968D01*
X0883093Y0216838D01*
X0883157Y0216706D01*
X0883216Y0216572D01*
X0883273Y0216437D01*
X0883325Y0216300D01*
X0883374Y0216161D01*
X0883419Y0216022D01*
X0883460Y0215881D01*
X0883497Y0215739D01*
X0883530Y0215597D01*
X0883560Y0215453D01*
X0883586Y0215309D01*
X0883607Y0215164D01*
X0883625Y0215018D01*
X0883639Y0214872D01*
X0883649Y0214726D01*
X0883655Y0214580D01*
X0883657Y0214433D01*
X0883655Y0214286D01*
X0883649Y0214140D01*
X0883639Y0213994D01*
X0883625Y0213848D01*
X0883607Y0213702D01*
X0883586Y0213557D01*
X0883560Y0213413D01*
X0883530Y0213269D01*
X0883497Y0213127D01*
X0883460Y0212985D01*
X0883419Y0212844D01*
X0883374Y0212705D01*
X0883325Y0212566D01*
X0883273Y0212429D01*
X0883216Y0212294D01*
X0883157Y0212160D01*
X0883093Y0212028D01*
X0883026Y0211898D01*
X0882956Y0211769D01*
X0882882Y0211642D01*
X0882805Y0211518D01*
X0882724Y0211395D01*
X0882640Y0211275D01*
X0882553Y0211157D01*
X0882463Y0211042D01*
X0882370Y0210929D01*
X0882273Y0210818D01*
X0882174Y0210710D01*
X0882072Y0210605D01*
X0881967Y0210503D01*
X0881859Y0210404D01*
X0881748Y0210307D01*
X0881635Y0210214D01*
X0881520Y0210124D01*
X0881402Y0210037D01*
X0881282Y0209953D01*
X0881159Y0209872D01*
X0881035Y0209795D01*
X0880908Y0209721D01*
X0880779Y0209651D01*
X0880649Y0209584D01*
X0880517Y0209520D01*
X0880383Y0209461D01*
X0880248Y0209404D01*
X0880111Y0209352D01*
X0879972Y0209303D01*
X0879833Y0209258D01*
X0879692Y0209217D01*
X0879550Y0209180D01*
X0879408Y0209147D01*
X0879264Y0209117D01*
X0879120Y0209091D01*
X0878975Y0209070D01*
X0878829Y0209052D01*
X0878683Y0209038D01*
X0878537Y0209028D01*
X0878391Y0209022D01*
X0878244Y0209020D01*
X0878097Y0209022D01*
X0877951Y0209028D01*
X0877805Y0209038D01*
X0877659Y0209052D01*
X0877513Y0209070D01*
X0877368Y0209091D01*
X0877224Y0209117D01*
X0877080Y0209147D01*
X0876938Y0209180D01*
X0876796Y0209217D01*
X0876655Y0209258D01*
X0876516Y0209303D01*
X0876377Y0209352D01*
X0876240Y0209404D01*
X0876105Y0209461D01*
X0875971Y0209520D01*
X0875839Y0209584D01*
X0875709Y0209651D01*
X0875580Y0209721D01*
X0875453Y0209795D01*
X0875329Y0209872D01*
X0875206Y0209953D01*
X0875086Y0210037D01*
X0874968Y0210124D01*
X0874853Y0210214D01*
X0874740Y0210307D01*
X0874629Y0210404D01*
X0874521Y0210503D01*
X0874416Y0210605D01*
X0874314Y0210710D01*
X0874215Y0210818D01*
X0874118Y0210929D01*
X0874025Y0211042D01*
X0873935Y0211157D01*
X0873848Y0211275D01*
X0873764Y0211395D01*
X0873683Y0211518D01*
X0873606Y0211642D01*
X0873532Y0211769D01*
X0873462Y0211898D01*
X0873395Y0212028D01*
X0873331Y0212160D01*
X0873272Y0212294D01*
X0873215Y0212429D01*
X0873163Y0212566D01*
X0873114Y0212705D01*
X0873069Y0212844D01*
X0873028Y0212985D01*
X0872991Y0213127D01*
X0872958Y0213269D01*
X0872928Y0213413D01*
X0872902Y0213557D01*
X0872881Y0213702D01*
X0872863Y0213848D01*
X0872849Y0213994D01*
X0872839Y0214140D01*
X0872833Y0214286D01*
X0872831Y0214433D01*
X0872831Y0304984D02*
X0872833Y0305131D01*
X0872839Y0305277D01*
X0872849Y0305423D01*
X0872863Y0305569D01*
X0872881Y0305715D01*
X0872902Y0305860D01*
X0872928Y0306004D01*
X0872958Y0306148D01*
X0872991Y0306290D01*
X0873028Y0306432D01*
X0873069Y0306573D01*
X0873114Y0306712D01*
X0873163Y0306851D01*
X0873215Y0306988D01*
X0873272Y0307123D01*
X0873331Y0307257D01*
X0873395Y0307389D01*
X0873462Y0307519D01*
X0873532Y0307648D01*
X0873606Y0307775D01*
X0873683Y0307899D01*
X0873764Y0308022D01*
X0873848Y0308142D01*
X0873935Y0308260D01*
X0874025Y0308375D01*
X0874118Y0308488D01*
X0874215Y0308599D01*
X0874314Y0308707D01*
X0874416Y0308812D01*
X0874521Y0308914D01*
X0874629Y0309013D01*
X0874740Y0309110D01*
X0874853Y0309203D01*
X0874968Y0309293D01*
X0875086Y0309380D01*
X0875206Y0309464D01*
X0875329Y0309545D01*
X0875453Y0309622D01*
X0875580Y0309696D01*
X0875709Y0309766D01*
X0875839Y0309833D01*
X0875971Y0309897D01*
X0876105Y0309956D01*
X0876240Y0310013D01*
X0876377Y0310065D01*
X0876516Y0310114D01*
X0876655Y0310159D01*
X0876796Y0310200D01*
X0876938Y0310237D01*
X0877080Y0310270D01*
X0877224Y0310300D01*
X0877368Y0310326D01*
X0877513Y0310347D01*
X0877659Y0310365D01*
X0877805Y0310379D01*
X0877951Y0310389D01*
X0878097Y0310395D01*
X0878244Y0310397D01*
X0878391Y0310395D01*
X0878537Y0310389D01*
X0878683Y0310379D01*
X0878829Y0310365D01*
X0878975Y0310347D01*
X0879120Y0310326D01*
X0879264Y0310300D01*
X0879408Y0310270D01*
X0879550Y0310237D01*
X0879692Y0310200D01*
X0879833Y0310159D01*
X0879972Y0310114D01*
X0880111Y0310065D01*
X0880248Y0310013D01*
X0880383Y0309956D01*
X0880517Y0309897D01*
X0880649Y0309833D01*
X0880779Y0309766D01*
X0880908Y0309696D01*
X0881035Y0309622D01*
X0881159Y0309545D01*
X0881282Y0309464D01*
X0881402Y0309380D01*
X0881520Y0309293D01*
X0881635Y0309203D01*
X0881748Y0309110D01*
X0881859Y0309013D01*
X0881967Y0308914D01*
X0882072Y0308812D01*
X0882174Y0308707D01*
X0882273Y0308599D01*
X0882370Y0308488D01*
X0882463Y0308375D01*
X0882553Y0308260D01*
X0882640Y0308142D01*
X0882724Y0308022D01*
X0882805Y0307899D01*
X0882882Y0307775D01*
X0882956Y0307648D01*
X0883026Y0307519D01*
X0883093Y0307389D01*
X0883157Y0307257D01*
X0883216Y0307123D01*
X0883273Y0306988D01*
X0883325Y0306851D01*
X0883374Y0306712D01*
X0883419Y0306573D01*
X0883460Y0306432D01*
X0883497Y0306290D01*
X0883530Y0306148D01*
X0883560Y0306004D01*
X0883586Y0305860D01*
X0883607Y0305715D01*
X0883625Y0305569D01*
X0883639Y0305423D01*
X0883649Y0305277D01*
X0883655Y0305131D01*
X0883657Y0304984D01*
X0883655Y0304837D01*
X0883649Y0304691D01*
X0883639Y0304545D01*
X0883625Y0304399D01*
X0883607Y0304253D01*
X0883586Y0304108D01*
X0883560Y0303964D01*
X0883530Y0303820D01*
X0883497Y0303678D01*
X0883460Y0303536D01*
X0883419Y0303395D01*
X0883374Y0303256D01*
X0883325Y0303117D01*
X0883273Y0302980D01*
X0883216Y0302845D01*
X0883157Y0302711D01*
X0883093Y0302579D01*
X0883026Y0302449D01*
X0882956Y0302320D01*
X0882882Y0302193D01*
X0882805Y0302069D01*
X0882724Y0301946D01*
X0882640Y0301826D01*
X0882553Y0301708D01*
X0882463Y0301593D01*
X0882370Y0301480D01*
X0882273Y0301369D01*
X0882174Y0301261D01*
X0882072Y0301156D01*
X0881967Y0301054D01*
X0881859Y0300955D01*
X0881748Y0300858D01*
X0881635Y0300765D01*
X0881520Y0300675D01*
X0881402Y0300588D01*
X0881282Y0300504D01*
X0881159Y0300423D01*
X0881035Y0300346D01*
X0880908Y0300272D01*
X0880779Y0300202D01*
X0880649Y0300135D01*
X0880517Y0300071D01*
X0880383Y0300012D01*
X0880248Y0299955D01*
X0880111Y0299903D01*
X0879972Y0299854D01*
X0879833Y0299809D01*
X0879692Y0299768D01*
X0879550Y0299731D01*
X0879408Y0299698D01*
X0879264Y0299668D01*
X0879120Y0299642D01*
X0878975Y0299621D01*
X0878829Y0299603D01*
X0878683Y0299589D01*
X0878537Y0299579D01*
X0878391Y0299573D01*
X0878244Y0299571D01*
X0878097Y0299573D01*
X0877951Y0299579D01*
X0877805Y0299589D01*
X0877659Y0299603D01*
X0877513Y0299621D01*
X0877368Y0299642D01*
X0877224Y0299668D01*
X0877080Y0299698D01*
X0876938Y0299731D01*
X0876796Y0299768D01*
X0876655Y0299809D01*
X0876516Y0299854D01*
X0876377Y0299903D01*
X0876240Y0299955D01*
X0876105Y0300012D01*
X0875971Y0300071D01*
X0875839Y0300135D01*
X0875709Y0300202D01*
X0875580Y0300272D01*
X0875453Y0300346D01*
X0875329Y0300423D01*
X0875206Y0300504D01*
X0875086Y0300588D01*
X0874968Y0300675D01*
X0874853Y0300765D01*
X0874740Y0300858D01*
X0874629Y0300955D01*
X0874521Y0301054D01*
X0874416Y0301156D01*
X0874314Y0301261D01*
X0874215Y0301369D01*
X0874118Y0301480D01*
X0874025Y0301593D01*
X0873935Y0301708D01*
X0873848Y0301826D01*
X0873764Y0301946D01*
X0873683Y0302069D01*
X0873606Y0302193D01*
X0873532Y0302320D01*
X0873462Y0302449D01*
X0873395Y0302579D01*
X0873331Y0302711D01*
X0873272Y0302845D01*
X0873215Y0302980D01*
X0873163Y0303117D01*
X0873114Y0303256D01*
X0873069Y0303395D01*
X0873028Y0303536D01*
X0872991Y0303678D01*
X0872958Y0303820D01*
X0872928Y0303964D01*
X0872902Y0304108D01*
X0872881Y0304253D01*
X0872863Y0304399D01*
X0872849Y0304545D01*
X0872839Y0304691D01*
X0872833Y0304837D01*
X0872831Y0304984D01*
X0644485Y0304984D02*
X0644487Y0305131D01*
X0644493Y0305277D01*
X0644503Y0305423D01*
X0644517Y0305569D01*
X0644535Y0305715D01*
X0644556Y0305860D01*
X0644582Y0306004D01*
X0644612Y0306148D01*
X0644645Y0306290D01*
X0644682Y0306432D01*
X0644723Y0306573D01*
X0644768Y0306712D01*
X0644817Y0306851D01*
X0644869Y0306988D01*
X0644926Y0307123D01*
X0644985Y0307257D01*
X0645049Y0307389D01*
X0645116Y0307519D01*
X0645186Y0307648D01*
X0645260Y0307775D01*
X0645337Y0307899D01*
X0645418Y0308022D01*
X0645502Y0308142D01*
X0645589Y0308260D01*
X0645679Y0308375D01*
X0645772Y0308488D01*
X0645869Y0308599D01*
X0645968Y0308707D01*
X0646070Y0308812D01*
X0646175Y0308914D01*
X0646283Y0309013D01*
X0646394Y0309110D01*
X0646507Y0309203D01*
X0646622Y0309293D01*
X0646740Y0309380D01*
X0646860Y0309464D01*
X0646983Y0309545D01*
X0647107Y0309622D01*
X0647234Y0309696D01*
X0647363Y0309766D01*
X0647493Y0309833D01*
X0647625Y0309897D01*
X0647759Y0309956D01*
X0647894Y0310013D01*
X0648031Y0310065D01*
X0648170Y0310114D01*
X0648309Y0310159D01*
X0648450Y0310200D01*
X0648592Y0310237D01*
X0648734Y0310270D01*
X0648878Y0310300D01*
X0649022Y0310326D01*
X0649167Y0310347D01*
X0649313Y0310365D01*
X0649459Y0310379D01*
X0649605Y0310389D01*
X0649751Y0310395D01*
X0649898Y0310397D01*
X0650045Y0310395D01*
X0650191Y0310389D01*
X0650337Y0310379D01*
X0650483Y0310365D01*
X0650629Y0310347D01*
X0650774Y0310326D01*
X0650918Y0310300D01*
X0651062Y0310270D01*
X0651204Y0310237D01*
X0651346Y0310200D01*
X0651487Y0310159D01*
X0651626Y0310114D01*
X0651765Y0310065D01*
X0651902Y0310013D01*
X0652037Y0309956D01*
X0652171Y0309897D01*
X0652303Y0309833D01*
X0652433Y0309766D01*
X0652562Y0309696D01*
X0652689Y0309622D01*
X0652813Y0309545D01*
X0652936Y0309464D01*
X0653056Y0309380D01*
X0653174Y0309293D01*
X0653289Y0309203D01*
X0653402Y0309110D01*
X0653513Y0309013D01*
X0653621Y0308914D01*
X0653726Y0308812D01*
X0653828Y0308707D01*
X0653927Y0308599D01*
X0654024Y0308488D01*
X0654117Y0308375D01*
X0654207Y0308260D01*
X0654294Y0308142D01*
X0654378Y0308022D01*
X0654459Y0307899D01*
X0654536Y0307775D01*
X0654610Y0307648D01*
X0654680Y0307519D01*
X0654747Y0307389D01*
X0654811Y0307257D01*
X0654870Y0307123D01*
X0654927Y0306988D01*
X0654979Y0306851D01*
X0655028Y0306712D01*
X0655073Y0306573D01*
X0655114Y0306432D01*
X0655151Y0306290D01*
X0655184Y0306148D01*
X0655214Y0306004D01*
X0655240Y0305860D01*
X0655261Y0305715D01*
X0655279Y0305569D01*
X0655293Y0305423D01*
X0655303Y0305277D01*
X0655309Y0305131D01*
X0655311Y0304984D01*
X0655309Y0304837D01*
X0655303Y0304691D01*
X0655293Y0304545D01*
X0655279Y0304399D01*
X0655261Y0304253D01*
X0655240Y0304108D01*
X0655214Y0303964D01*
X0655184Y0303820D01*
X0655151Y0303678D01*
X0655114Y0303536D01*
X0655073Y0303395D01*
X0655028Y0303256D01*
X0654979Y0303117D01*
X0654927Y0302980D01*
X0654870Y0302845D01*
X0654811Y0302711D01*
X0654747Y0302579D01*
X0654680Y0302449D01*
X0654610Y0302320D01*
X0654536Y0302193D01*
X0654459Y0302069D01*
X0654378Y0301946D01*
X0654294Y0301826D01*
X0654207Y0301708D01*
X0654117Y0301593D01*
X0654024Y0301480D01*
X0653927Y0301369D01*
X0653828Y0301261D01*
X0653726Y0301156D01*
X0653621Y0301054D01*
X0653513Y0300955D01*
X0653402Y0300858D01*
X0653289Y0300765D01*
X0653174Y0300675D01*
X0653056Y0300588D01*
X0652936Y0300504D01*
X0652813Y0300423D01*
X0652689Y0300346D01*
X0652562Y0300272D01*
X0652433Y0300202D01*
X0652303Y0300135D01*
X0652171Y0300071D01*
X0652037Y0300012D01*
X0651902Y0299955D01*
X0651765Y0299903D01*
X0651626Y0299854D01*
X0651487Y0299809D01*
X0651346Y0299768D01*
X0651204Y0299731D01*
X0651062Y0299698D01*
X0650918Y0299668D01*
X0650774Y0299642D01*
X0650629Y0299621D01*
X0650483Y0299603D01*
X0650337Y0299589D01*
X0650191Y0299579D01*
X0650045Y0299573D01*
X0649898Y0299571D01*
X0649751Y0299573D01*
X0649605Y0299579D01*
X0649459Y0299589D01*
X0649313Y0299603D01*
X0649167Y0299621D01*
X0649022Y0299642D01*
X0648878Y0299668D01*
X0648734Y0299698D01*
X0648592Y0299731D01*
X0648450Y0299768D01*
X0648309Y0299809D01*
X0648170Y0299854D01*
X0648031Y0299903D01*
X0647894Y0299955D01*
X0647759Y0300012D01*
X0647625Y0300071D01*
X0647493Y0300135D01*
X0647363Y0300202D01*
X0647234Y0300272D01*
X0647107Y0300346D01*
X0646983Y0300423D01*
X0646860Y0300504D01*
X0646740Y0300588D01*
X0646622Y0300675D01*
X0646507Y0300765D01*
X0646394Y0300858D01*
X0646283Y0300955D01*
X0646175Y0301054D01*
X0646070Y0301156D01*
X0645968Y0301261D01*
X0645869Y0301369D01*
X0645772Y0301480D01*
X0645679Y0301593D01*
X0645589Y0301708D01*
X0645502Y0301826D01*
X0645418Y0301946D01*
X0645337Y0302069D01*
X0645260Y0302193D01*
X0645186Y0302320D01*
X0645116Y0302449D01*
X0645049Y0302579D01*
X0644985Y0302711D01*
X0644926Y0302845D01*
X0644869Y0302980D01*
X0644817Y0303117D01*
X0644768Y0303256D01*
X0644723Y0303395D01*
X0644682Y0303536D01*
X0644645Y0303678D01*
X0644612Y0303820D01*
X0644582Y0303964D01*
X0644556Y0304108D01*
X0644535Y0304253D01*
X0644517Y0304399D01*
X0644503Y0304545D01*
X0644493Y0304691D01*
X0644487Y0304837D01*
X0644485Y0304984D01*
X0644485Y0214433D02*
X0644487Y0214580D01*
X0644493Y0214726D01*
X0644503Y0214872D01*
X0644517Y0215018D01*
X0644535Y0215164D01*
X0644556Y0215309D01*
X0644582Y0215453D01*
X0644612Y0215597D01*
X0644645Y0215739D01*
X0644682Y0215881D01*
X0644723Y0216022D01*
X0644768Y0216161D01*
X0644817Y0216300D01*
X0644869Y0216437D01*
X0644926Y0216572D01*
X0644985Y0216706D01*
X0645049Y0216838D01*
X0645116Y0216968D01*
X0645186Y0217097D01*
X0645260Y0217224D01*
X0645337Y0217348D01*
X0645418Y0217471D01*
X0645502Y0217591D01*
X0645589Y0217709D01*
X0645679Y0217824D01*
X0645772Y0217937D01*
X0645869Y0218048D01*
X0645968Y0218156D01*
X0646070Y0218261D01*
X0646175Y0218363D01*
X0646283Y0218462D01*
X0646394Y0218559D01*
X0646507Y0218652D01*
X0646622Y0218742D01*
X0646740Y0218829D01*
X0646860Y0218913D01*
X0646983Y0218994D01*
X0647107Y0219071D01*
X0647234Y0219145D01*
X0647363Y0219215D01*
X0647493Y0219282D01*
X0647625Y0219346D01*
X0647759Y0219405D01*
X0647894Y0219462D01*
X0648031Y0219514D01*
X0648170Y0219563D01*
X0648309Y0219608D01*
X0648450Y0219649D01*
X0648592Y0219686D01*
X0648734Y0219719D01*
X0648878Y0219749D01*
X0649022Y0219775D01*
X0649167Y0219796D01*
X0649313Y0219814D01*
X0649459Y0219828D01*
X0649605Y0219838D01*
X0649751Y0219844D01*
X0649898Y0219846D01*
X0650045Y0219844D01*
X0650191Y0219838D01*
X0650337Y0219828D01*
X0650483Y0219814D01*
X0650629Y0219796D01*
X0650774Y0219775D01*
X0650918Y0219749D01*
X0651062Y0219719D01*
X0651204Y0219686D01*
X0651346Y0219649D01*
X0651487Y0219608D01*
X0651626Y0219563D01*
X0651765Y0219514D01*
X0651902Y0219462D01*
X0652037Y0219405D01*
X0652171Y0219346D01*
X0652303Y0219282D01*
X0652433Y0219215D01*
X0652562Y0219145D01*
X0652689Y0219071D01*
X0652813Y0218994D01*
X0652936Y0218913D01*
X0653056Y0218829D01*
X0653174Y0218742D01*
X0653289Y0218652D01*
X0653402Y0218559D01*
X0653513Y0218462D01*
X0653621Y0218363D01*
X0653726Y0218261D01*
X0653828Y0218156D01*
X0653927Y0218048D01*
X0654024Y0217937D01*
X0654117Y0217824D01*
X0654207Y0217709D01*
X0654294Y0217591D01*
X0654378Y0217471D01*
X0654459Y0217348D01*
X0654536Y0217224D01*
X0654610Y0217097D01*
X0654680Y0216968D01*
X0654747Y0216838D01*
X0654811Y0216706D01*
X0654870Y0216572D01*
X0654927Y0216437D01*
X0654979Y0216300D01*
X0655028Y0216161D01*
X0655073Y0216022D01*
X0655114Y0215881D01*
X0655151Y0215739D01*
X0655184Y0215597D01*
X0655214Y0215453D01*
X0655240Y0215309D01*
X0655261Y0215164D01*
X0655279Y0215018D01*
X0655293Y0214872D01*
X0655303Y0214726D01*
X0655309Y0214580D01*
X0655311Y0214433D01*
X0655309Y0214286D01*
X0655303Y0214140D01*
X0655293Y0213994D01*
X0655279Y0213848D01*
X0655261Y0213702D01*
X0655240Y0213557D01*
X0655214Y0213413D01*
X0655184Y0213269D01*
X0655151Y0213127D01*
X0655114Y0212985D01*
X0655073Y0212844D01*
X0655028Y0212705D01*
X0654979Y0212566D01*
X0654927Y0212429D01*
X0654870Y0212294D01*
X0654811Y0212160D01*
X0654747Y0212028D01*
X0654680Y0211898D01*
X0654610Y0211769D01*
X0654536Y0211642D01*
X0654459Y0211518D01*
X0654378Y0211395D01*
X0654294Y0211275D01*
X0654207Y0211157D01*
X0654117Y0211042D01*
X0654024Y0210929D01*
X0653927Y0210818D01*
X0653828Y0210710D01*
X0653726Y0210605D01*
X0653621Y0210503D01*
X0653513Y0210404D01*
X0653402Y0210307D01*
X0653289Y0210214D01*
X0653174Y0210124D01*
X0653056Y0210037D01*
X0652936Y0209953D01*
X0652813Y0209872D01*
X0652689Y0209795D01*
X0652562Y0209721D01*
X0652433Y0209651D01*
X0652303Y0209584D01*
X0652171Y0209520D01*
X0652037Y0209461D01*
X0651902Y0209404D01*
X0651765Y0209352D01*
X0651626Y0209303D01*
X0651487Y0209258D01*
X0651346Y0209217D01*
X0651204Y0209180D01*
X0651062Y0209147D01*
X0650918Y0209117D01*
X0650774Y0209091D01*
X0650629Y0209070D01*
X0650483Y0209052D01*
X0650337Y0209038D01*
X0650191Y0209028D01*
X0650045Y0209022D01*
X0649898Y0209020D01*
X0649751Y0209022D01*
X0649605Y0209028D01*
X0649459Y0209038D01*
X0649313Y0209052D01*
X0649167Y0209070D01*
X0649022Y0209091D01*
X0648878Y0209117D01*
X0648734Y0209147D01*
X0648592Y0209180D01*
X0648450Y0209217D01*
X0648309Y0209258D01*
X0648170Y0209303D01*
X0648031Y0209352D01*
X0647894Y0209404D01*
X0647759Y0209461D01*
X0647625Y0209520D01*
X0647493Y0209584D01*
X0647363Y0209651D01*
X0647234Y0209721D01*
X0647107Y0209795D01*
X0646983Y0209872D01*
X0646860Y0209953D01*
X0646740Y0210037D01*
X0646622Y0210124D01*
X0646507Y0210214D01*
X0646394Y0210307D01*
X0646283Y0210404D01*
X0646175Y0210503D01*
X0646070Y0210605D01*
X0645968Y0210710D01*
X0645869Y0210818D01*
X0645772Y0210929D01*
X0645679Y0211042D01*
X0645589Y0211157D01*
X0645502Y0211275D01*
X0645418Y0211395D01*
X0645337Y0211518D01*
X0645260Y0211642D01*
X0645186Y0211769D01*
X0645116Y0211898D01*
X0645049Y0212028D01*
X0644985Y0212160D01*
X0644926Y0212294D01*
X0644869Y0212429D01*
X0644817Y0212566D01*
X0644768Y0212705D01*
X0644723Y0212844D01*
X0644682Y0212985D01*
X0644645Y0213127D01*
X0644612Y0213269D01*
X0644582Y0213413D01*
X0644556Y0213557D01*
X0644535Y0213702D01*
X0644517Y0213848D01*
X0644503Y0213994D01*
X0644493Y0214140D01*
X0644487Y0214286D01*
X0644485Y0214433D01*
X0644485Y0407346D02*
X0644487Y0407493D01*
X0644493Y0407639D01*
X0644503Y0407785D01*
X0644517Y0407931D01*
X0644535Y0408077D01*
X0644556Y0408222D01*
X0644582Y0408366D01*
X0644612Y0408510D01*
X0644645Y0408652D01*
X0644682Y0408794D01*
X0644723Y0408935D01*
X0644768Y0409074D01*
X0644817Y0409213D01*
X0644869Y0409350D01*
X0644926Y0409485D01*
X0644985Y0409619D01*
X0645049Y0409751D01*
X0645116Y0409881D01*
X0645186Y0410010D01*
X0645260Y0410137D01*
X0645337Y0410261D01*
X0645418Y0410384D01*
X0645502Y0410504D01*
X0645589Y0410622D01*
X0645679Y0410737D01*
X0645772Y0410850D01*
X0645869Y0410961D01*
X0645968Y0411069D01*
X0646070Y0411174D01*
X0646175Y0411276D01*
X0646283Y0411375D01*
X0646394Y0411472D01*
X0646507Y0411565D01*
X0646622Y0411655D01*
X0646740Y0411742D01*
X0646860Y0411826D01*
X0646983Y0411907D01*
X0647107Y0411984D01*
X0647234Y0412058D01*
X0647363Y0412128D01*
X0647493Y0412195D01*
X0647625Y0412259D01*
X0647759Y0412318D01*
X0647894Y0412375D01*
X0648031Y0412427D01*
X0648170Y0412476D01*
X0648309Y0412521D01*
X0648450Y0412562D01*
X0648592Y0412599D01*
X0648734Y0412632D01*
X0648878Y0412662D01*
X0649022Y0412688D01*
X0649167Y0412709D01*
X0649313Y0412727D01*
X0649459Y0412741D01*
X0649605Y0412751D01*
X0649751Y0412757D01*
X0649898Y0412759D01*
X0650045Y0412757D01*
X0650191Y0412751D01*
X0650337Y0412741D01*
X0650483Y0412727D01*
X0650629Y0412709D01*
X0650774Y0412688D01*
X0650918Y0412662D01*
X0651062Y0412632D01*
X0651204Y0412599D01*
X0651346Y0412562D01*
X0651487Y0412521D01*
X0651626Y0412476D01*
X0651765Y0412427D01*
X0651902Y0412375D01*
X0652037Y0412318D01*
X0652171Y0412259D01*
X0652303Y0412195D01*
X0652433Y0412128D01*
X0652562Y0412058D01*
X0652689Y0411984D01*
X0652813Y0411907D01*
X0652936Y0411826D01*
X0653056Y0411742D01*
X0653174Y0411655D01*
X0653289Y0411565D01*
X0653402Y0411472D01*
X0653513Y0411375D01*
X0653621Y0411276D01*
X0653726Y0411174D01*
X0653828Y0411069D01*
X0653927Y0410961D01*
X0654024Y0410850D01*
X0654117Y0410737D01*
X0654207Y0410622D01*
X0654294Y0410504D01*
X0654378Y0410384D01*
X0654459Y0410261D01*
X0654536Y0410137D01*
X0654610Y0410010D01*
X0654680Y0409881D01*
X0654747Y0409751D01*
X0654811Y0409619D01*
X0654870Y0409485D01*
X0654927Y0409350D01*
X0654979Y0409213D01*
X0655028Y0409074D01*
X0655073Y0408935D01*
X0655114Y0408794D01*
X0655151Y0408652D01*
X0655184Y0408510D01*
X0655214Y0408366D01*
X0655240Y0408222D01*
X0655261Y0408077D01*
X0655279Y0407931D01*
X0655293Y0407785D01*
X0655303Y0407639D01*
X0655309Y0407493D01*
X0655311Y0407346D01*
X0655309Y0407199D01*
X0655303Y0407053D01*
X0655293Y0406907D01*
X0655279Y0406761D01*
X0655261Y0406615D01*
X0655240Y0406470D01*
X0655214Y0406326D01*
X0655184Y0406182D01*
X0655151Y0406040D01*
X0655114Y0405898D01*
X0655073Y0405757D01*
X0655028Y0405618D01*
X0654979Y0405479D01*
X0654927Y0405342D01*
X0654870Y0405207D01*
X0654811Y0405073D01*
X0654747Y0404941D01*
X0654680Y0404811D01*
X0654610Y0404682D01*
X0654536Y0404555D01*
X0654459Y0404431D01*
X0654378Y0404308D01*
X0654294Y0404188D01*
X0654207Y0404070D01*
X0654117Y0403955D01*
X0654024Y0403842D01*
X0653927Y0403731D01*
X0653828Y0403623D01*
X0653726Y0403518D01*
X0653621Y0403416D01*
X0653513Y0403317D01*
X0653402Y0403220D01*
X0653289Y0403127D01*
X0653174Y0403037D01*
X0653056Y0402950D01*
X0652936Y0402866D01*
X0652813Y0402785D01*
X0652689Y0402708D01*
X0652562Y0402634D01*
X0652433Y0402564D01*
X0652303Y0402497D01*
X0652171Y0402433D01*
X0652037Y0402374D01*
X0651902Y0402317D01*
X0651765Y0402265D01*
X0651626Y0402216D01*
X0651487Y0402171D01*
X0651346Y0402130D01*
X0651204Y0402093D01*
X0651062Y0402060D01*
X0650918Y0402030D01*
X0650774Y0402004D01*
X0650629Y0401983D01*
X0650483Y0401965D01*
X0650337Y0401951D01*
X0650191Y0401941D01*
X0650045Y0401935D01*
X0649898Y0401933D01*
X0649751Y0401935D01*
X0649605Y0401941D01*
X0649459Y0401951D01*
X0649313Y0401965D01*
X0649167Y0401983D01*
X0649022Y0402004D01*
X0648878Y0402030D01*
X0648734Y0402060D01*
X0648592Y0402093D01*
X0648450Y0402130D01*
X0648309Y0402171D01*
X0648170Y0402216D01*
X0648031Y0402265D01*
X0647894Y0402317D01*
X0647759Y0402374D01*
X0647625Y0402433D01*
X0647493Y0402497D01*
X0647363Y0402564D01*
X0647234Y0402634D01*
X0647107Y0402708D01*
X0646983Y0402785D01*
X0646860Y0402866D01*
X0646740Y0402950D01*
X0646622Y0403037D01*
X0646507Y0403127D01*
X0646394Y0403220D01*
X0646283Y0403317D01*
X0646175Y0403416D01*
X0646070Y0403518D01*
X0645968Y0403623D01*
X0645869Y0403731D01*
X0645772Y0403842D01*
X0645679Y0403955D01*
X0645589Y0404070D01*
X0645502Y0404188D01*
X0645418Y0404308D01*
X0645337Y0404431D01*
X0645260Y0404555D01*
X0645186Y0404682D01*
X0645116Y0404811D01*
X0645049Y0404941D01*
X0644985Y0405073D01*
X0644926Y0405207D01*
X0644869Y0405342D01*
X0644817Y0405479D01*
X0644768Y0405618D01*
X0644723Y0405757D01*
X0644682Y0405898D01*
X0644645Y0406040D01*
X0644612Y0406182D01*
X0644582Y0406326D01*
X0644556Y0406470D01*
X0644535Y0406615D01*
X0644517Y0406761D01*
X0644503Y0406907D01*
X0644493Y0407053D01*
X0644487Y0407199D01*
X0644485Y0407346D01*
X0582400Y0419500D02*
X0582402Y0419580D01*
X0582408Y0419659D01*
X0582418Y0419738D01*
X0582432Y0419817D01*
X0582449Y0419895D01*
X0582471Y0419972D01*
X0582496Y0420047D01*
X0582526Y0420121D01*
X0582558Y0420194D01*
X0582595Y0420265D01*
X0582635Y0420334D01*
X0582678Y0420401D01*
X0582725Y0420466D01*
X0582774Y0420528D01*
X0582827Y0420588D01*
X0582883Y0420645D01*
X0582941Y0420700D01*
X0583002Y0420751D01*
X0583066Y0420799D01*
X0583132Y0420844D01*
X0583200Y0420886D01*
X0583270Y0420924D01*
X0583342Y0420958D01*
X0583415Y0420989D01*
X0583490Y0421017D01*
X0583567Y0421040D01*
X0583644Y0421060D01*
X0583722Y0421076D01*
X0583801Y0421088D01*
X0583880Y0421096D01*
X0583960Y0421100D01*
X0584040Y0421100D01*
X0584120Y0421096D01*
X0584199Y0421088D01*
X0584278Y0421076D01*
X0584356Y0421060D01*
X0584433Y0421040D01*
X0584510Y0421017D01*
X0584585Y0420989D01*
X0584658Y0420958D01*
X0584730Y0420924D01*
X0584800Y0420886D01*
X0584868Y0420844D01*
X0584934Y0420799D01*
X0584998Y0420751D01*
X0585059Y0420700D01*
X0585117Y0420645D01*
X0585173Y0420588D01*
X0585226Y0420528D01*
X0585275Y0420466D01*
X0585322Y0420401D01*
X0585365Y0420334D01*
X0585405Y0420265D01*
X0585442Y0420194D01*
X0585474Y0420121D01*
X0585504Y0420047D01*
X0585529Y0419972D01*
X0585551Y0419895D01*
X0585568Y0419817D01*
X0585582Y0419738D01*
X0585592Y0419659D01*
X0585598Y0419580D01*
X0585600Y0419500D01*
X0585598Y0419420D01*
X0585592Y0419341D01*
X0585582Y0419262D01*
X0585568Y0419183D01*
X0585551Y0419105D01*
X0585529Y0419028D01*
X0585504Y0418953D01*
X0585474Y0418879D01*
X0585442Y0418806D01*
X0585405Y0418735D01*
X0585365Y0418666D01*
X0585322Y0418599D01*
X0585275Y0418534D01*
X0585226Y0418472D01*
X0585173Y0418412D01*
X0585117Y0418355D01*
X0585059Y0418300D01*
X0584998Y0418249D01*
X0584934Y0418201D01*
X0584868Y0418156D01*
X0584800Y0418114D01*
X0584730Y0418076D01*
X0584658Y0418042D01*
X0584585Y0418011D01*
X0584510Y0417983D01*
X0584433Y0417960D01*
X0584356Y0417940D01*
X0584278Y0417924D01*
X0584199Y0417912D01*
X0584120Y0417904D01*
X0584040Y0417900D01*
X0583960Y0417900D01*
X0583880Y0417904D01*
X0583801Y0417912D01*
X0583722Y0417924D01*
X0583644Y0417940D01*
X0583567Y0417960D01*
X0583490Y0417983D01*
X0583415Y0418011D01*
X0583342Y0418042D01*
X0583270Y0418076D01*
X0583200Y0418114D01*
X0583132Y0418156D01*
X0583066Y0418201D01*
X0583002Y0418249D01*
X0582941Y0418300D01*
X0582883Y0418355D01*
X0582827Y0418412D01*
X0582774Y0418472D01*
X0582725Y0418534D01*
X0582678Y0418599D01*
X0582635Y0418666D01*
X0582595Y0418735D01*
X0582558Y0418806D01*
X0582526Y0418879D01*
X0582496Y0418953D01*
X0582471Y0419028D01*
X0582449Y0419105D01*
X0582432Y0419183D01*
X0582418Y0419262D01*
X0582408Y0419341D01*
X0582402Y0419420D01*
X0582400Y0419500D01*
X0570400Y0419500D02*
X0570402Y0419580D01*
X0570408Y0419659D01*
X0570418Y0419738D01*
X0570432Y0419817D01*
X0570449Y0419895D01*
X0570471Y0419972D01*
X0570496Y0420047D01*
X0570526Y0420121D01*
X0570558Y0420194D01*
X0570595Y0420265D01*
X0570635Y0420334D01*
X0570678Y0420401D01*
X0570725Y0420466D01*
X0570774Y0420528D01*
X0570827Y0420588D01*
X0570883Y0420645D01*
X0570941Y0420700D01*
X0571002Y0420751D01*
X0571066Y0420799D01*
X0571132Y0420844D01*
X0571200Y0420886D01*
X0571270Y0420924D01*
X0571342Y0420958D01*
X0571415Y0420989D01*
X0571490Y0421017D01*
X0571567Y0421040D01*
X0571644Y0421060D01*
X0571722Y0421076D01*
X0571801Y0421088D01*
X0571880Y0421096D01*
X0571960Y0421100D01*
X0572040Y0421100D01*
X0572120Y0421096D01*
X0572199Y0421088D01*
X0572278Y0421076D01*
X0572356Y0421060D01*
X0572433Y0421040D01*
X0572510Y0421017D01*
X0572585Y0420989D01*
X0572658Y0420958D01*
X0572730Y0420924D01*
X0572800Y0420886D01*
X0572868Y0420844D01*
X0572934Y0420799D01*
X0572998Y0420751D01*
X0573059Y0420700D01*
X0573117Y0420645D01*
X0573173Y0420588D01*
X0573226Y0420528D01*
X0573275Y0420466D01*
X0573322Y0420401D01*
X0573365Y0420334D01*
X0573405Y0420265D01*
X0573442Y0420194D01*
X0573474Y0420121D01*
X0573504Y0420047D01*
X0573529Y0419972D01*
X0573551Y0419895D01*
X0573568Y0419817D01*
X0573582Y0419738D01*
X0573592Y0419659D01*
X0573598Y0419580D01*
X0573600Y0419500D01*
X0573598Y0419420D01*
X0573592Y0419341D01*
X0573582Y0419262D01*
X0573568Y0419183D01*
X0573551Y0419105D01*
X0573529Y0419028D01*
X0573504Y0418953D01*
X0573474Y0418879D01*
X0573442Y0418806D01*
X0573405Y0418735D01*
X0573365Y0418666D01*
X0573322Y0418599D01*
X0573275Y0418534D01*
X0573226Y0418472D01*
X0573173Y0418412D01*
X0573117Y0418355D01*
X0573059Y0418300D01*
X0572998Y0418249D01*
X0572934Y0418201D01*
X0572868Y0418156D01*
X0572800Y0418114D01*
X0572730Y0418076D01*
X0572658Y0418042D01*
X0572585Y0418011D01*
X0572510Y0417983D01*
X0572433Y0417960D01*
X0572356Y0417940D01*
X0572278Y0417924D01*
X0572199Y0417912D01*
X0572120Y0417904D01*
X0572040Y0417900D01*
X0571960Y0417900D01*
X0571880Y0417904D01*
X0571801Y0417912D01*
X0571722Y0417924D01*
X0571644Y0417940D01*
X0571567Y0417960D01*
X0571490Y0417983D01*
X0571415Y0418011D01*
X0571342Y0418042D01*
X0571270Y0418076D01*
X0571200Y0418114D01*
X0571132Y0418156D01*
X0571066Y0418201D01*
X0571002Y0418249D01*
X0570941Y0418300D01*
X0570883Y0418355D01*
X0570827Y0418412D01*
X0570774Y0418472D01*
X0570725Y0418534D01*
X0570678Y0418599D01*
X0570635Y0418666D01*
X0570595Y0418735D01*
X0570558Y0418806D01*
X0570526Y0418879D01*
X0570496Y0418953D01*
X0570471Y0419028D01*
X0570449Y0419105D01*
X0570432Y0419183D01*
X0570418Y0419262D01*
X0570408Y0419341D01*
X0570402Y0419420D01*
X0570400Y0419500D01*
X0498055Y0407201D02*
X0498057Y0407354D01*
X0498063Y0407508D01*
X0498073Y0407661D01*
X0498087Y0407813D01*
X0498105Y0407966D01*
X0498127Y0408117D01*
X0498152Y0408268D01*
X0498182Y0408419D01*
X0498216Y0408569D01*
X0498253Y0408717D01*
X0498294Y0408865D01*
X0498339Y0409011D01*
X0498388Y0409157D01*
X0498441Y0409301D01*
X0498497Y0409443D01*
X0498557Y0409584D01*
X0498621Y0409724D01*
X0498688Y0409862D01*
X0498759Y0409998D01*
X0498834Y0410132D01*
X0498911Y0410264D01*
X0498993Y0410394D01*
X0499077Y0410522D01*
X0499165Y0410648D01*
X0499256Y0410771D01*
X0499350Y0410892D01*
X0499448Y0411010D01*
X0499548Y0411126D01*
X0499652Y0411239D01*
X0499758Y0411350D01*
X0499867Y0411458D01*
X0499979Y0411563D01*
X0500093Y0411664D01*
X0500211Y0411763D01*
X0500330Y0411859D01*
X0500452Y0411952D01*
X0500577Y0412041D01*
X0500704Y0412128D01*
X0500833Y0412210D01*
X0500964Y0412290D01*
X0501097Y0412366D01*
X0501232Y0412439D01*
X0501369Y0412508D01*
X0501508Y0412573D01*
X0501648Y0412635D01*
X0501790Y0412693D01*
X0501933Y0412748D01*
X0502078Y0412799D01*
X0502224Y0412846D01*
X0502371Y0412889D01*
X0502519Y0412928D01*
X0502668Y0412964D01*
X0502818Y0412995D01*
X0502969Y0413023D01*
X0503120Y0413047D01*
X0503273Y0413067D01*
X0503425Y0413083D01*
X0503578Y0413095D01*
X0503731Y0413103D01*
X0503884Y0413107D01*
X0504038Y0413107D01*
X0504191Y0413103D01*
X0504344Y0413095D01*
X0504497Y0413083D01*
X0504649Y0413067D01*
X0504802Y0413047D01*
X0504953Y0413023D01*
X0505104Y0412995D01*
X0505254Y0412964D01*
X0505403Y0412928D01*
X0505551Y0412889D01*
X0505698Y0412846D01*
X0505844Y0412799D01*
X0505989Y0412748D01*
X0506132Y0412693D01*
X0506274Y0412635D01*
X0506414Y0412573D01*
X0506553Y0412508D01*
X0506690Y0412439D01*
X0506825Y0412366D01*
X0506958Y0412290D01*
X0507089Y0412210D01*
X0507218Y0412128D01*
X0507345Y0412041D01*
X0507470Y0411952D01*
X0507592Y0411859D01*
X0507711Y0411763D01*
X0507829Y0411664D01*
X0507943Y0411563D01*
X0508055Y0411458D01*
X0508164Y0411350D01*
X0508270Y0411239D01*
X0508374Y0411126D01*
X0508474Y0411010D01*
X0508572Y0410892D01*
X0508666Y0410771D01*
X0508757Y0410648D01*
X0508845Y0410522D01*
X0508929Y0410394D01*
X0509011Y0410264D01*
X0509088Y0410132D01*
X0509163Y0409998D01*
X0509234Y0409862D01*
X0509301Y0409724D01*
X0509365Y0409584D01*
X0509425Y0409443D01*
X0509481Y0409301D01*
X0509534Y0409157D01*
X0509583Y0409011D01*
X0509628Y0408865D01*
X0509669Y0408717D01*
X0509706Y0408569D01*
X0509740Y0408419D01*
X0509770Y0408268D01*
X0509795Y0408117D01*
X0509817Y0407966D01*
X0509835Y0407813D01*
X0509849Y0407661D01*
X0509859Y0407508D01*
X0509865Y0407354D01*
X0509867Y0407201D01*
X0509865Y0407048D01*
X0509859Y0406894D01*
X0509849Y0406741D01*
X0509835Y0406589D01*
X0509817Y0406436D01*
X0509795Y0406285D01*
X0509770Y0406134D01*
X0509740Y0405983D01*
X0509706Y0405833D01*
X0509669Y0405685D01*
X0509628Y0405537D01*
X0509583Y0405391D01*
X0509534Y0405245D01*
X0509481Y0405101D01*
X0509425Y0404959D01*
X0509365Y0404818D01*
X0509301Y0404678D01*
X0509234Y0404540D01*
X0509163Y0404404D01*
X0509088Y0404270D01*
X0509011Y0404138D01*
X0508929Y0404008D01*
X0508845Y0403880D01*
X0508757Y0403754D01*
X0508666Y0403631D01*
X0508572Y0403510D01*
X0508474Y0403392D01*
X0508374Y0403276D01*
X0508270Y0403163D01*
X0508164Y0403052D01*
X0508055Y0402944D01*
X0507943Y0402839D01*
X0507829Y0402738D01*
X0507711Y0402639D01*
X0507592Y0402543D01*
X0507470Y0402450D01*
X0507345Y0402361D01*
X0507218Y0402274D01*
X0507089Y0402192D01*
X0506958Y0402112D01*
X0506825Y0402036D01*
X0506690Y0401963D01*
X0506553Y0401894D01*
X0506414Y0401829D01*
X0506274Y0401767D01*
X0506132Y0401709D01*
X0505989Y0401654D01*
X0505844Y0401603D01*
X0505698Y0401556D01*
X0505551Y0401513D01*
X0505403Y0401474D01*
X0505254Y0401438D01*
X0505104Y0401407D01*
X0504953Y0401379D01*
X0504802Y0401355D01*
X0504649Y0401335D01*
X0504497Y0401319D01*
X0504344Y0401307D01*
X0504191Y0401299D01*
X0504038Y0401295D01*
X0503884Y0401295D01*
X0503731Y0401299D01*
X0503578Y0401307D01*
X0503425Y0401319D01*
X0503273Y0401335D01*
X0503120Y0401355D01*
X0502969Y0401379D01*
X0502818Y0401407D01*
X0502668Y0401438D01*
X0502519Y0401474D01*
X0502371Y0401513D01*
X0502224Y0401556D01*
X0502078Y0401603D01*
X0501933Y0401654D01*
X0501790Y0401709D01*
X0501648Y0401767D01*
X0501508Y0401829D01*
X0501369Y0401894D01*
X0501232Y0401963D01*
X0501097Y0402036D01*
X0500964Y0402112D01*
X0500833Y0402192D01*
X0500704Y0402274D01*
X0500577Y0402361D01*
X0500452Y0402450D01*
X0500330Y0402543D01*
X0500211Y0402639D01*
X0500093Y0402738D01*
X0499979Y0402839D01*
X0499867Y0402944D01*
X0499758Y0403052D01*
X0499652Y0403163D01*
X0499548Y0403276D01*
X0499448Y0403392D01*
X0499350Y0403510D01*
X0499256Y0403631D01*
X0499165Y0403754D01*
X0499077Y0403880D01*
X0498993Y0404008D01*
X0498911Y0404138D01*
X0498834Y0404270D01*
X0498759Y0404404D01*
X0498688Y0404540D01*
X0498621Y0404678D01*
X0498557Y0404818D01*
X0498497Y0404959D01*
X0498441Y0405101D01*
X0498388Y0405245D01*
X0498339Y0405391D01*
X0498294Y0405537D01*
X0498253Y0405685D01*
X0498216Y0405833D01*
X0498182Y0405983D01*
X0498152Y0406134D01*
X0498127Y0406285D01*
X0498105Y0406436D01*
X0498087Y0406589D01*
X0498073Y0406741D01*
X0498063Y0406894D01*
X0498057Y0407048D01*
X0498055Y0407201D01*
X0872070Y0407201D02*
X0872072Y0407354D01*
X0872078Y0407508D01*
X0872088Y0407661D01*
X0872102Y0407813D01*
X0872120Y0407966D01*
X0872142Y0408117D01*
X0872167Y0408268D01*
X0872197Y0408419D01*
X0872231Y0408569D01*
X0872268Y0408717D01*
X0872309Y0408865D01*
X0872354Y0409011D01*
X0872403Y0409157D01*
X0872456Y0409301D01*
X0872512Y0409443D01*
X0872572Y0409584D01*
X0872636Y0409724D01*
X0872703Y0409862D01*
X0872774Y0409998D01*
X0872849Y0410132D01*
X0872926Y0410264D01*
X0873008Y0410394D01*
X0873092Y0410522D01*
X0873180Y0410648D01*
X0873271Y0410771D01*
X0873365Y0410892D01*
X0873463Y0411010D01*
X0873563Y0411126D01*
X0873667Y0411239D01*
X0873773Y0411350D01*
X0873882Y0411458D01*
X0873994Y0411563D01*
X0874108Y0411664D01*
X0874226Y0411763D01*
X0874345Y0411859D01*
X0874467Y0411952D01*
X0874592Y0412041D01*
X0874719Y0412128D01*
X0874848Y0412210D01*
X0874979Y0412290D01*
X0875112Y0412366D01*
X0875247Y0412439D01*
X0875384Y0412508D01*
X0875523Y0412573D01*
X0875663Y0412635D01*
X0875805Y0412693D01*
X0875948Y0412748D01*
X0876093Y0412799D01*
X0876239Y0412846D01*
X0876386Y0412889D01*
X0876534Y0412928D01*
X0876683Y0412964D01*
X0876833Y0412995D01*
X0876984Y0413023D01*
X0877135Y0413047D01*
X0877288Y0413067D01*
X0877440Y0413083D01*
X0877593Y0413095D01*
X0877746Y0413103D01*
X0877899Y0413107D01*
X0878053Y0413107D01*
X0878206Y0413103D01*
X0878359Y0413095D01*
X0878512Y0413083D01*
X0878664Y0413067D01*
X0878817Y0413047D01*
X0878968Y0413023D01*
X0879119Y0412995D01*
X0879269Y0412964D01*
X0879418Y0412928D01*
X0879566Y0412889D01*
X0879713Y0412846D01*
X0879859Y0412799D01*
X0880004Y0412748D01*
X0880147Y0412693D01*
X0880289Y0412635D01*
X0880429Y0412573D01*
X0880568Y0412508D01*
X0880705Y0412439D01*
X0880840Y0412366D01*
X0880973Y0412290D01*
X0881104Y0412210D01*
X0881233Y0412128D01*
X0881360Y0412041D01*
X0881485Y0411952D01*
X0881607Y0411859D01*
X0881726Y0411763D01*
X0881844Y0411664D01*
X0881958Y0411563D01*
X0882070Y0411458D01*
X0882179Y0411350D01*
X0882285Y0411239D01*
X0882389Y0411126D01*
X0882489Y0411010D01*
X0882587Y0410892D01*
X0882681Y0410771D01*
X0882772Y0410648D01*
X0882860Y0410522D01*
X0882944Y0410394D01*
X0883026Y0410264D01*
X0883103Y0410132D01*
X0883178Y0409998D01*
X0883249Y0409862D01*
X0883316Y0409724D01*
X0883380Y0409584D01*
X0883440Y0409443D01*
X0883496Y0409301D01*
X0883549Y0409157D01*
X0883598Y0409011D01*
X0883643Y0408865D01*
X0883684Y0408717D01*
X0883721Y0408569D01*
X0883755Y0408419D01*
X0883785Y0408268D01*
X0883810Y0408117D01*
X0883832Y0407966D01*
X0883850Y0407813D01*
X0883864Y0407661D01*
X0883874Y0407508D01*
X0883880Y0407354D01*
X0883882Y0407201D01*
X0883880Y0407048D01*
X0883874Y0406894D01*
X0883864Y0406741D01*
X0883850Y0406589D01*
X0883832Y0406436D01*
X0883810Y0406285D01*
X0883785Y0406134D01*
X0883755Y0405983D01*
X0883721Y0405833D01*
X0883684Y0405685D01*
X0883643Y0405537D01*
X0883598Y0405391D01*
X0883549Y0405245D01*
X0883496Y0405101D01*
X0883440Y0404959D01*
X0883380Y0404818D01*
X0883316Y0404678D01*
X0883249Y0404540D01*
X0883178Y0404404D01*
X0883103Y0404270D01*
X0883026Y0404138D01*
X0882944Y0404008D01*
X0882860Y0403880D01*
X0882772Y0403754D01*
X0882681Y0403631D01*
X0882587Y0403510D01*
X0882489Y0403392D01*
X0882389Y0403276D01*
X0882285Y0403163D01*
X0882179Y0403052D01*
X0882070Y0402944D01*
X0881958Y0402839D01*
X0881844Y0402738D01*
X0881726Y0402639D01*
X0881607Y0402543D01*
X0881485Y0402450D01*
X0881360Y0402361D01*
X0881233Y0402274D01*
X0881104Y0402192D01*
X0880973Y0402112D01*
X0880840Y0402036D01*
X0880705Y0401963D01*
X0880568Y0401894D01*
X0880429Y0401829D01*
X0880289Y0401767D01*
X0880147Y0401709D01*
X0880004Y0401654D01*
X0879859Y0401603D01*
X0879713Y0401556D01*
X0879566Y0401513D01*
X0879418Y0401474D01*
X0879269Y0401438D01*
X0879119Y0401407D01*
X0878968Y0401379D01*
X0878817Y0401355D01*
X0878664Y0401335D01*
X0878512Y0401319D01*
X0878359Y0401307D01*
X0878206Y0401299D01*
X0878053Y0401295D01*
X0877899Y0401295D01*
X0877746Y0401299D01*
X0877593Y0401307D01*
X0877440Y0401319D01*
X0877288Y0401335D01*
X0877135Y0401355D01*
X0876984Y0401379D01*
X0876833Y0401407D01*
X0876683Y0401438D01*
X0876534Y0401474D01*
X0876386Y0401513D01*
X0876239Y0401556D01*
X0876093Y0401603D01*
X0875948Y0401654D01*
X0875805Y0401709D01*
X0875663Y0401767D01*
X0875523Y0401829D01*
X0875384Y0401894D01*
X0875247Y0401963D01*
X0875112Y0402036D01*
X0874979Y0402112D01*
X0874848Y0402192D01*
X0874719Y0402274D01*
X0874592Y0402361D01*
X0874467Y0402450D01*
X0874345Y0402543D01*
X0874226Y0402639D01*
X0874108Y0402738D01*
X0873994Y0402839D01*
X0873882Y0402944D01*
X0873773Y0403052D01*
X0873667Y0403163D01*
X0873563Y0403276D01*
X0873463Y0403392D01*
X0873365Y0403510D01*
X0873271Y0403631D01*
X0873180Y0403754D01*
X0873092Y0403880D01*
X0873008Y0404008D01*
X0872926Y0404138D01*
X0872849Y0404270D01*
X0872774Y0404404D01*
X0872703Y0404540D01*
X0872636Y0404678D01*
X0872572Y0404818D01*
X0872512Y0404959D01*
X0872456Y0405101D01*
X0872403Y0405245D01*
X0872354Y0405391D01*
X0872309Y0405537D01*
X0872268Y0405685D01*
X0872231Y0405833D01*
X0872197Y0405983D01*
X0872167Y0406134D01*
X0872142Y0406285D01*
X0872120Y0406436D01*
X0872102Y0406589D01*
X0872088Y0406741D01*
X0872078Y0406894D01*
X0872072Y0407048D01*
X0872070Y0407201D01*
X0872831Y0407346D02*
X0872833Y0407493D01*
X0872839Y0407639D01*
X0872849Y0407785D01*
X0872863Y0407931D01*
X0872881Y0408077D01*
X0872902Y0408222D01*
X0872928Y0408366D01*
X0872958Y0408510D01*
X0872991Y0408652D01*
X0873028Y0408794D01*
X0873069Y0408935D01*
X0873114Y0409074D01*
X0873163Y0409213D01*
X0873215Y0409350D01*
X0873272Y0409485D01*
X0873331Y0409619D01*
X0873395Y0409751D01*
X0873462Y0409881D01*
X0873532Y0410010D01*
X0873606Y0410137D01*
X0873683Y0410261D01*
X0873764Y0410384D01*
X0873848Y0410504D01*
X0873935Y0410622D01*
X0874025Y0410737D01*
X0874118Y0410850D01*
X0874215Y0410961D01*
X0874314Y0411069D01*
X0874416Y0411174D01*
X0874521Y0411276D01*
X0874629Y0411375D01*
X0874740Y0411472D01*
X0874853Y0411565D01*
X0874968Y0411655D01*
X0875086Y0411742D01*
X0875206Y0411826D01*
X0875329Y0411907D01*
X0875453Y0411984D01*
X0875580Y0412058D01*
X0875709Y0412128D01*
X0875839Y0412195D01*
X0875971Y0412259D01*
X0876105Y0412318D01*
X0876240Y0412375D01*
X0876377Y0412427D01*
X0876516Y0412476D01*
X0876655Y0412521D01*
X0876796Y0412562D01*
X0876938Y0412599D01*
X0877080Y0412632D01*
X0877224Y0412662D01*
X0877368Y0412688D01*
X0877513Y0412709D01*
X0877659Y0412727D01*
X0877805Y0412741D01*
X0877951Y0412751D01*
X0878097Y0412757D01*
X0878244Y0412759D01*
X0878391Y0412757D01*
X0878537Y0412751D01*
X0878683Y0412741D01*
X0878829Y0412727D01*
X0878975Y0412709D01*
X0879120Y0412688D01*
X0879264Y0412662D01*
X0879408Y0412632D01*
X0879550Y0412599D01*
X0879692Y0412562D01*
X0879833Y0412521D01*
X0879972Y0412476D01*
X0880111Y0412427D01*
X0880248Y0412375D01*
X0880383Y0412318D01*
X0880517Y0412259D01*
X0880649Y0412195D01*
X0880779Y0412128D01*
X0880908Y0412058D01*
X0881035Y0411984D01*
X0881159Y0411907D01*
X0881282Y0411826D01*
X0881402Y0411742D01*
X0881520Y0411655D01*
X0881635Y0411565D01*
X0881748Y0411472D01*
X0881859Y0411375D01*
X0881967Y0411276D01*
X0882072Y0411174D01*
X0882174Y0411069D01*
X0882273Y0410961D01*
X0882370Y0410850D01*
X0882463Y0410737D01*
X0882553Y0410622D01*
X0882640Y0410504D01*
X0882724Y0410384D01*
X0882805Y0410261D01*
X0882882Y0410137D01*
X0882956Y0410010D01*
X0883026Y0409881D01*
X0883093Y0409751D01*
X0883157Y0409619D01*
X0883216Y0409485D01*
X0883273Y0409350D01*
X0883325Y0409213D01*
X0883374Y0409074D01*
X0883419Y0408935D01*
X0883460Y0408794D01*
X0883497Y0408652D01*
X0883530Y0408510D01*
X0883560Y0408366D01*
X0883586Y0408222D01*
X0883607Y0408077D01*
X0883625Y0407931D01*
X0883639Y0407785D01*
X0883649Y0407639D01*
X0883655Y0407493D01*
X0883657Y0407346D01*
X0883655Y0407199D01*
X0883649Y0407053D01*
X0883639Y0406907D01*
X0883625Y0406761D01*
X0883607Y0406615D01*
X0883586Y0406470D01*
X0883560Y0406326D01*
X0883530Y0406182D01*
X0883497Y0406040D01*
X0883460Y0405898D01*
X0883419Y0405757D01*
X0883374Y0405618D01*
X0883325Y0405479D01*
X0883273Y0405342D01*
X0883216Y0405207D01*
X0883157Y0405073D01*
X0883093Y0404941D01*
X0883026Y0404811D01*
X0882956Y0404682D01*
X0882882Y0404555D01*
X0882805Y0404431D01*
X0882724Y0404308D01*
X0882640Y0404188D01*
X0882553Y0404070D01*
X0882463Y0403955D01*
X0882370Y0403842D01*
X0882273Y0403731D01*
X0882174Y0403623D01*
X0882072Y0403518D01*
X0881967Y0403416D01*
X0881859Y0403317D01*
X0881748Y0403220D01*
X0881635Y0403127D01*
X0881520Y0403037D01*
X0881402Y0402950D01*
X0881282Y0402866D01*
X0881159Y0402785D01*
X0881035Y0402708D01*
X0880908Y0402634D01*
X0880779Y0402564D01*
X0880649Y0402497D01*
X0880517Y0402433D01*
X0880383Y0402374D01*
X0880248Y0402317D01*
X0880111Y0402265D01*
X0879972Y0402216D01*
X0879833Y0402171D01*
X0879692Y0402130D01*
X0879550Y0402093D01*
X0879408Y0402060D01*
X0879264Y0402030D01*
X0879120Y0402004D01*
X0878975Y0401983D01*
X0878829Y0401965D01*
X0878683Y0401951D01*
X0878537Y0401941D01*
X0878391Y0401935D01*
X0878244Y0401933D01*
X0878097Y0401935D01*
X0877951Y0401941D01*
X0877805Y0401951D01*
X0877659Y0401965D01*
X0877513Y0401983D01*
X0877368Y0402004D01*
X0877224Y0402030D01*
X0877080Y0402060D01*
X0876938Y0402093D01*
X0876796Y0402130D01*
X0876655Y0402171D01*
X0876516Y0402216D01*
X0876377Y0402265D01*
X0876240Y0402317D01*
X0876105Y0402374D01*
X0875971Y0402433D01*
X0875839Y0402497D01*
X0875709Y0402564D01*
X0875580Y0402634D01*
X0875453Y0402708D01*
X0875329Y0402785D01*
X0875206Y0402866D01*
X0875086Y0402950D01*
X0874968Y0403037D01*
X0874853Y0403127D01*
X0874740Y0403220D01*
X0874629Y0403317D01*
X0874521Y0403416D01*
X0874416Y0403518D01*
X0874314Y0403623D01*
X0874215Y0403731D01*
X0874118Y0403842D01*
X0874025Y0403955D01*
X0873935Y0404070D01*
X0873848Y0404188D01*
X0873764Y0404308D01*
X0873683Y0404431D01*
X0873606Y0404555D01*
X0873532Y0404682D01*
X0873462Y0404811D01*
X0873395Y0404941D01*
X0873331Y0405073D01*
X0873272Y0405207D01*
X0873215Y0405342D01*
X0873163Y0405479D01*
X0873114Y0405618D01*
X0873069Y0405757D01*
X0873028Y0405898D01*
X0872991Y0406040D01*
X0872958Y0406182D01*
X0872928Y0406326D01*
X0872902Y0406470D01*
X0872881Y0406615D01*
X0872863Y0406761D01*
X0872849Y0406907D01*
X0872839Y0407053D01*
X0872833Y0407199D01*
X0872831Y0407346D01*
X0025614Y0407201D02*
X0025616Y0407354D01*
X0025622Y0407508D01*
X0025632Y0407661D01*
X0025646Y0407813D01*
X0025664Y0407966D01*
X0025686Y0408117D01*
X0025711Y0408268D01*
X0025741Y0408419D01*
X0025775Y0408569D01*
X0025812Y0408717D01*
X0025853Y0408865D01*
X0025898Y0409011D01*
X0025947Y0409157D01*
X0026000Y0409301D01*
X0026056Y0409443D01*
X0026116Y0409584D01*
X0026180Y0409724D01*
X0026247Y0409862D01*
X0026318Y0409998D01*
X0026393Y0410132D01*
X0026470Y0410264D01*
X0026552Y0410394D01*
X0026636Y0410522D01*
X0026724Y0410648D01*
X0026815Y0410771D01*
X0026909Y0410892D01*
X0027007Y0411010D01*
X0027107Y0411126D01*
X0027211Y0411239D01*
X0027317Y0411350D01*
X0027426Y0411458D01*
X0027538Y0411563D01*
X0027652Y0411664D01*
X0027770Y0411763D01*
X0027889Y0411859D01*
X0028011Y0411952D01*
X0028136Y0412041D01*
X0028263Y0412128D01*
X0028392Y0412210D01*
X0028523Y0412290D01*
X0028656Y0412366D01*
X0028791Y0412439D01*
X0028928Y0412508D01*
X0029067Y0412573D01*
X0029207Y0412635D01*
X0029349Y0412693D01*
X0029492Y0412748D01*
X0029637Y0412799D01*
X0029783Y0412846D01*
X0029930Y0412889D01*
X0030078Y0412928D01*
X0030227Y0412964D01*
X0030377Y0412995D01*
X0030528Y0413023D01*
X0030679Y0413047D01*
X0030832Y0413067D01*
X0030984Y0413083D01*
X0031137Y0413095D01*
X0031290Y0413103D01*
X0031443Y0413107D01*
X0031597Y0413107D01*
X0031750Y0413103D01*
X0031903Y0413095D01*
X0032056Y0413083D01*
X0032208Y0413067D01*
X0032361Y0413047D01*
X0032512Y0413023D01*
X0032663Y0412995D01*
X0032813Y0412964D01*
X0032962Y0412928D01*
X0033110Y0412889D01*
X0033257Y0412846D01*
X0033403Y0412799D01*
X0033548Y0412748D01*
X0033691Y0412693D01*
X0033833Y0412635D01*
X0033973Y0412573D01*
X0034112Y0412508D01*
X0034249Y0412439D01*
X0034384Y0412366D01*
X0034517Y0412290D01*
X0034648Y0412210D01*
X0034777Y0412128D01*
X0034904Y0412041D01*
X0035029Y0411952D01*
X0035151Y0411859D01*
X0035270Y0411763D01*
X0035388Y0411664D01*
X0035502Y0411563D01*
X0035614Y0411458D01*
X0035723Y0411350D01*
X0035829Y0411239D01*
X0035933Y0411126D01*
X0036033Y0411010D01*
X0036131Y0410892D01*
X0036225Y0410771D01*
X0036316Y0410648D01*
X0036404Y0410522D01*
X0036488Y0410394D01*
X0036570Y0410264D01*
X0036647Y0410132D01*
X0036722Y0409998D01*
X0036793Y0409862D01*
X0036860Y0409724D01*
X0036924Y0409584D01*
X0036984Y0409443D01*
X0037040Y0409301D01*
X0037093Y0409157D01*
X0037142Y0409011D01*
X0037187Y0408865D01*
X0037228Y0408717D01*
X0037265Y0408569D01*
X0037299Y0408419D01*
X0037329Y0408268D01*
X0037354Y0408117D01*
X0037376Y0407966D01*
X0037394Y0407813D01*
X0037408Y0407661D01*
X0037418Y0407508D01*
X0037424Y0407354D01*
X0037426Y0407201D01*
X0037424Y0407048D01*
X0037418Y0406894D01*
X0037408Y0406741D01*
X0037394Y0406589D01*
X0037376Y0406436D01*
X0037354Y0406285D01*
X0037329Y0406134D01*
X0037299Y0405983D01*
X0037265Y0405833D01*
X0037228Y0405685D01*
X0037187Y0405537D01*
X0037142Y0405391D01*
X0037093Y0405245D01*
X0037040Y0405101D01*
X0036984Y0404959D01*
X0036924Y0404818D01*
X0036860Y0404678D01*
X0036793Y0404540D01*
X0036722Y0404404D01*
X0036647Y0404270D01*
X0036570Y0404138D01*
X0036488Y0404008D01*
X0036404Y0403880D01*
X0036316Y0403754D01*
X0036225Y0403631D01*
X0036131Y0403510D01*
X0036033Y0403392D01*
X0035933Y0403276D01*
X0035829Y0403163D01*
X0035723Y0403052D01*
X0035614Y0402944D01*
X0035502Y0402839D01*
X0035388Y0402738D01*
X0035270Y0402639D01*
X0035151Y0402543D01*
X0035029Y0402450D01*
X0034904Y0402361D01*
X0034777Y0402274D01*
X0034648Y0402192D01*
X0034517Y0402112D01*
X0034384Y0402036D01*
X0034249Y0401963D01*
X0034112Y0401894D01*
X0033973Y0401829D01*
X0033833Y0401767D01*
X0033691Y0401709D01*
X0033548Y0401654D01*
X0033403Y0401603D01*
X0033257Y0401556D01*
X0033110Y0401513D01*
X0032962Y0401474D01*
X0032813Y0401438D01*
X0032663Y0401407D01*
X0032512Y0401379D01*
X0032361Y0401355D01*
X0032208Y0401335D01*
X0032056Y0401319D01*
X0031903Y0401307D01*
X0031750Y0401299D01*
X0031597Y0401295D01*
X0031443Y0401295D01*
X0031290Y0401299D01*
X0031137Y0401307D01*
X0030984Y0401319D01*
X0030832Y0401335D01*
X0030679Y0401355D01*
X0030528Y0401379D01*
X0030377Y0401407D01*
X0030227Y0401438D01*
X0030078Y0401474D01*
X0029930Y0401513D01*
X0029783Y0401556D01*
X0029637Y0401603D01*
X0029492Y0401654D01*
X0029349Y0401709D01*
X0029207Y0401767D01*
X0029067Y0401829D01*
X0028928Y0401894D01*
X0028791Y0401963D01*
X0028656Y0402036D01*
X0028523Y0402112D01*
X0028392Y0402192D01*
X0028263Y0402274D01*
X0028136Y0402361D01*
X0028011Y0402450D01*
X0027889Y0402543D01*
X0027770Y0402639D01*
X0027652Y0402738D01*
X0027538Y0402839D01*
X0027426Y0402944D01*
X0027317Y0403052D01*
X0027211Y0403163D01*
X0027107Y0403276D01*
X0027007Y0403392D01*
X0026909Y0403510D01*
X0026815Y0403631D01*
X0026724Y0403754D01*
X0026636Y0403880D01*
X0026552Y0404008D01*
X0026470Y0404138D01*
X0026393Y0404270D01*
X0026318Y0404404D01*
X0026247Y0404540D01*
X0026180Y0404678D01*
X0026116Y0404818D01*
X0026056Y0404959D01*
X0026000Y0405101D01*
X0025947Y0405245D01*
X0025898Y0405391D01*
X0025853Y0405537D01*
X0025812Y0405685D01*
X0025775Y0405833D01*
X0025741Y0405983D01*
X0025711Y0406134D01*
X0025686Y0406285D01*
X0025664Y0406436D01*
X0025646Y0406589D01*
X0025632Y0406741D01*
X0025622Y0406894D01*
X0025616Y0407048D01*
X0025614Y0407201D01*
D11*
X0956315Y0157037D02*
X0956315Y0151526D01*
X0956317Y0151472D01*
X0956322Y0151419D01*
X0956331Y0151366D01*
X0956344Y0151314D01*
X0956360Y0151262D01*
X0956380Y0151212D01*
X0956403Y0151164D01*
X0956430Y0151117D01*
X0956459Y0151072D01*
X0956492Y0151029D01*
X0956527Y0150989D01*
X0956565Y0150951D01*
X0956605Y0150916D01*
X0956648Y0150883D01*
X0956693Y0150854D01*
X0956740Y0150827D01*
X0956788Y0150804D01*
X0956838Y0150784D01*
X0956890Y0150768D01*
X0956942Y0150755D01*
X0956995Y0150746D01*
X0957048Y0150741D01*
X0957102Y0150739D01*
X0957102Y0150738D02*
X0962614Y0150738D01*
X0962614Y0150739D02*
X0962668Y0150741D01*
X0962721Y0150746D01*
X0962774Y0150755D01*
X0962826Y0150768D01*
X0962878Y0150784D01*
X0962928Y0150804D01*
X0962976Y0150827D01*
X0963023Y0150854D01*
X0963068Y0150883D01*
X0963111Y0150916D01*
X0963151Y0150951D01*
X0963189Y0150989D01*
X0963224Y0151029D01*
X0963257Y0151072D01*
X0963286Y0151117D01*
X0963313Y0151164D01*
X0963336Y0151212D01*
X0963356Y0151262D01*
X0963372Y0151314D01*
X0963385Y0151366D01*
X0963394Y0151419D01*
X0963399Y0151472D01*
X0963401Y0151526D01*
X0963402Y0151526D02*
X0963402Y0157037D01*
X0963401Y0157037D02*
X0963399Y0157091D01*
X0963394Y0157144D01*
X0963385Y0157197D01*
X0963372Y0157249D01*
X0963356Y0157301D01*
X0963336Y0157351D01*
X0963313Y0157399D01*
X0963286Y0157446D01*
X0963257Y0157491D01*
X0963224Y0157534D01*
X0963189Y0157574D01*
X0963151Y0157612D01*
X0963111Y0157647D01*
X0963068Y0157680D01*
X0963023Y0157709D01*
X0962976Y0157736D01*
X0962928Y0157759D01*
X0962878Y0157779D01*
X0962826Y0157795D01*
X0962774Y0157808D01*
X0962721Y0157817D01*
X0962668Y0157822D01*
X0962614Y0157824D01*
X0962614Y0157825D02*
X0957102Y0157825D01*
X0957102Y0157824D02*
X0957048Y0157822D01*
X0956995Y0157817D01*
X0956942Y0157808D01*
X0956890Y0157795D01*
X0956838Y0157779D01*
X0956788Y0157759D01*
X0956740Y0157736D01*
X0956693Y0157709D01*
X0956648Y0157680D01*
X0956605Y0157647D01*
X0956565Y0157612D01*
X0956527Y0157574D01*
X0956492Y0157534D01*
X0956459Y0157491D01*
X0956430Y0157446D01*
X0956403Y0157399D01*
X0956380Y0157351D01*
X0956360Y0157301D01*
X0956344Y0157249D01*
X0956331Y0157197D01*
X0956322Y0157144D01*
X0956317Y0157091D01*
X0956315Y0157037D01*
M02*
