%
M48
M72
T01C0.01378
T02C0.02000
T03C0.02362
T04C0.02500
T05C0.03150
T06C0.03200
T07C0.03500
T08C0.03543
T09C0.04000
T10C0.05906
T11C0.10827
T12C0.11811
T13C0.13000
%
T01
X53000Y58500
X83000Y103500
X78000Y110500
X38500Y132000
X64000Y151500
X77000Y151500
X106000Y157500
X103000Y166500
X122000Y166500
X80000Y176500
X73900Y186500
X42000Y190500
X42000Y180500
X42000Y170500
X48000Y161500
X69500Y166500
X42000Y201500
X45000Y215500
X60000Y217500
X71000Y226500
X50400Y242700
X59400Y251700
X50400Y283500
X36000Y285300
X61000Y295500
X105000Y313500
X109800Y320100
X120000Y306500
X125000Y306500
X78000Y317500
X61000Y343500
X157000Y368800
X178900Y359000
X190600Y359000
X197500Y367300
X216000Y366800
X215800Y359000
X216000Y376800
X196000Y379500
X179000Y389500
X222000Y389500
X261000Y376800
X261000Y366800
X261300Y359000
X285300Y359000
X285000Y366800
X312000Y376800
X328000Y366800
X327800Y359000
X355000Y375800
X370000Y366800
X370000Y359000
X391000Y359000
X391000Y365800
X391000Y375800
X395400Y388500
X439000Y376800
X439000Y367800
X438900Y359000
X480900Y359000
X481000Y366800
X481000Y376800
X442800Y388500
X466000Y410500
X539450Y384000
X588000Y384000
X607000Y382500
X562000Y419500
X554000Y417500
X666000Y332700
X612000Y299500
X589750Y288000
X539400Y288100
X507000Y283500
X507000Y270500
X487000Y288100
X555000Y318500
X575000Y316500
X564000Y264500
X629000Y227500
X672000Y200500
X610000Y181500
X605000Y178500
X600000Y188100
X556000Y221500
X574000Y223500
X512000Y213550
X496000Y213500
X500000Y222500
X469000Y192500
X496000Y181500
X525000Y184500
X457000Y163500
X460300Y115500
X418000Y115500
X378000Y115500
X336000Y115500
X299000Y115500
X266000Y114500
X262300Y117300
X261200Y123100
X258000Y131500
X266000Y133500
X239000Y138500
X229000Y135500
X212400Y132800
X209000Y135500
X234000Y124500
X234000Y115500
X213000Y102500
X254000Y94500
X254284Y84784
X270000Y85500
X272000Y76500
X258600Y73177
X260000Y57500
X249000Y59500
X245000Y48500
X240600Y44100
X250400Y40900
X252000Y47500
X232000Y56500
X210000Y60500
X208000Y63500
X206000Y69500
X207000Y78500
X201000Y78500
X178000Y79500
X160000Y67500
X160900Y63500
X162000Y60500
X165000Y57500
X162000Y54500
X164000Y49500
X179000Y54500
X197000Y51500
X178000Y36500
X145000Y60500
X226000Y16500
X241000Y16500
X250000Y20500
X252000Y23500
X329000Y16500
X346000Y36500
X362900Y36200
X363000Y39500
X369000Y41500
X389000Y58500
X378000Y81500
X418000Y81500
X460000Y81500
X492000Y19500
X480000Y19500
X448000Y19500
X437000Y19500
X419000Y20500
X407000Y20500
X322000Y57500
X299000Y69500
X277300Y50600
X336000Y81500
X239000Y153500
X232000Y155500
X232000Y167500
X270600Y176700
X277000Y169500
X293000Y216500
X268000Y251500
X290400Y267300
X325000Y269500
X330000Y271500
X335000Y274500
X341000Y308500
X336000Y311500
X330000Y314500
X275000Y313500
X194000Y278500
X159000Y226500
X158000Y216500
X167800Y162900
X167000Y159500
X170000Y153500
X177000Y156500
X164000Y147500
X177000Y143500
X665000Y249500
X700000Y263500
X751000Y244500
X769000Y236500
X771000Y244500
X820000Y241500
X860000Y236500
X900000Y197500
X918600Y195300
X934000Y70500
X703000Y68500
X699000Y65500
X681000Y69500
X693000Y126500
X672000Y132500
X350000Y388500
X308000Y389500
X265000Y389500
X105000Y415000
X99000Y421500
X20000Y385500
T02
X18000Y356772
X18000Y328228
X175372Y22300
X146828Y22300
T03
X23500Y262000
X23500Y252000
X23500Y242000
X23500Y232000
X23500Y222000
X23500Y212000
X23500Y202000
X23500Y192000
X23500Y182000
X23500Y172000
X23500Y162000
X23500Y152000
X23500Y142000
X23500Y132000
X93500Y132000
X93500Y142000
X93500Y152000
X93500Y162000
X93500Y172000
X93500Y182000
X93500Y192000
X93500Y202000
X93500Y212000
X93500Y222000
X93500Y232000
X93500Y242000
X93500Y252000
X93500Y262000
X908000Y162500
X908000Y142500
T04
X620500Y43500
X567500Y43500
T05
X28748Y352047
X28748Y332953
X552500Y167500
X552500Y157500
X552500Y147500
X552500Y137500
X391843Y23500
X372157Y23500
X170647Y33048
X151553Y33048
T06
X572000Y419500
X584000Y419500
X936000Y168750
X936000Y156250
X936000Y135250
X949625Y115500
X959000Y115500
X968375Y115500
X293400Y20500
X281400Y20500
X19000Y58500
X19000Y70500
T07
X115000Y103500
X115000Y113500
X115400Y132000
X115400Y142000
X115400Y152000
X115400Y162000
X115400Y172000
X115400Y182000
X115400Y192000
X115400Y202000
X115400Y212000
X115400Y222000
X115400Y232000
X115400Y242000
X115400Y252000
X115400Y262000
X115400Y272000
X115400Y282000
X147550Y281900
X147550Y271900
X147550Y261900
X147550Y251900
X147550Y241900
X147550Y231900
X147550Y221900
X147550Y211900
X147550Y201900
X147550Y191900
X147550Y181900
X147550Y171900
X147550Y161900
X147550Y151900
X147550Y141900
X147550Y131900
X148000Y113500
X148000Y103500
X645000Y34500
X655000Y34500
X665000Y34500
X675000Y34500
X685000Y34500
X695000Y34500
X705000Y34500
X715000Y34500
X725000Y34500
X735000Y34500
X745000Y34500
X755000Y34500
X765000Y34500
X775000Y34500
X785000Y34500
X795000Y34500
X795000Y54500
X785000Y54500
X775000Y54500
X765000Y54500
X755000Y54500
X745000Y54500
X735000Y54500
X725000Y54500
X715000Y54500
X705000Y54500
X695000Y54500
X685000Y54500
X675000Y54500
X665000Y54500
X655000Y54500
X645000Y54500
X647000Y157500
X657000Y157500
X667000Y157500
X677000Y157500
X687000Y157500
X697000Y157500
X707000Y157500
X717000Y157500
X727000Y157500
X737000Y157500
X747000Y157500
X757000Y157500
X767000Y157500
X777000Y157500
X787000Y157500
X797000Y157500
X797000Y178500
X787000Y178500
X777000Y178500
X767000Y178500
X757000Y178500
X747000Y178500
X737000Y178500
X727000Y178500
X717000Y178500
X707000Y178500
X697000Y178500
X687000Y178500
X677000Y178500
X667000Y178500
X657000Y178500
X647000Y178500
X957000Y192500
X967000Y192500
T08
X98602Y34472
X67106Y34472
T09
X88000Y366500
X88000Y356500
X88000Y346500
X88000Y336500
X88000Y326500
X126000Y326500
X126000Y336500
X126000Y346500
X126000Y356500
X126000Y366500
X164000Y366500
X164000Y376500
X164000Y386500
X207000Y386500
X207000Y376500
X207000Y366500
X207000Y356500
X207000Y346500
X207000Y336500
X207000Y326500
X164000Y326500
X164000Y336500
X164000Y346500
X164000Y356500
X251000Y356500
X251000Y346500
X251000Y336500
X251000Y326500
X295000Y326500
X295000Y336500
X295000Y346500
X295000Y356500
X295000Y366500
X295000Y376500
X295000Y386500
X251000Y386500
X251000Y376500
X251000Y366500
X339000Y366500
X339000Y376500
X339000Y386500
X383000Y386500
X383000Y376500
X383000Y366500
X383000Y356500
X383000Y346500
X383000Y336500
X383000Y326500
X339000Y326500
X339000Y336500
X339000Y346500
X339000Y356500
X430000Y356500
X430000Y346500
X430000Y336500
X430000Y326500
X471000Y326500
X471000Y336500
X471000Y346500
X471000Y356500
X471000Y366500
X471000Y376500
X471000Y386500
X430000Y386500
X430000Y376500
X430000Y366500
X600000Y365500
X600000Y355500
X600000Y345500
X600000Y335500
X600000Y325500
X600000Y315500
X600000Y305500
X600000Y268500
X600000Y258500
X600000Y248500
X600000Y238500
X600000Y228500
X600000Y218500
X600000Y208500
X669018Y209426
X679018Y209426
X689018Y209426
X699018Y209426
X709018Y209426
X719018Y209426
X729018Y209426
X739018Y209426
X749018Y209426
X759018Y209426
X759018Y219426
X749018Y219426
X739018Y219426
X729018Y219426
X719018Y219426
X709018Y219426
X699018Y219426
X689018Y219426
X679018Y219426
X669071Y219433
X655016Y258921
X645016Y258921
X527000Y258500
X527000Y268500
X489000Y249500
X489000Y239500
X489000Y229500
X489000Y219500
X489000Y209500
X527000Y208500
X527000Y218500
X527000Y228500
X527000Y238500
X527000Y248500
X445000Y249500
X445000Y239500
X445000Y229500
X445000Y219500
X445000Y209500
X401000Y209500
X401000Y219500
X401000Y229500
X401000Y239500
X401000Y249500
X357000Y249500
X357000Y239500
X357000Y229500
X357000Y219500
X357000Y209500
X313000Y209500
X313000Y219500
X313000Y229500
X313000Y239500
X313000Y249500
X256000Y249500
X256000Y239500
X256000Y229500
X256000Y219500
X256000Y209500
X256000Y199500
X256000Y189500
X202000Y189500
X202000Y199500
X202000Y209500
X202000Y219500
X202000Y229500
X313000Y172500
X313000Y162500
X313000Y152500
X313000Y142500
X313000Y132500
X357000Y132500
X357000Y142500
X357000Y152500
X357000Y162500
X357000Y172500
X401000Y172500
X401000Y162500
X401000Y152500
X401000Y142500
X401000Y132500
X445000Y132500
X445000Y142500
X445000Y152500
X445000Y162500
X445000Y172500
X489000Y172500
X489000Y162500
X489000Y152500
X489000Y142500
X489000Y132500
X488449Y98016
X488449Y88016
X488449Y78016
X488449Y68016
X488449Y58016
X446949Y57591
X446949Y67591
X446949Y77591
X446949Y87591
X446949Y97591
X406449Y97666
X406449Y87666
X406449Y77666
X406449Y67666
X406449Y57666
X366449Y57742
X366449Y67742
X366449Y77742
X366449Y87742
X366449Y97742
X313949Y97817
X313949Y87817
X313949Y77817
X313949Y67817
X313949Y57817
X859018Y209426
X849018Y209426
X839018Y209426
X829018Y209426
X819018Y209426
X809018Y209426
X799018Y209426
X789018Y209426
X779018Y209426
X769018Y209426
X769018Y219426
X779018Y219426
X789018Y219426
X799018Y219426
X809018Y219426
X819018Y219426
X829018Y219426
X839018Y219426
X849018Y219426
X859018Y219426
X528000Y365500
X528000Y355500
X528000Y345500
X528000Y335500
X528000Y325500
X528000Y315500
X528000Y305500
T10
X817000Y178500
X885000Y178500
X885000Y22500
X817000Y22500
T11
X878244Y214433
X878244Y304984
X649898Y304984
X649898Y214433
X649898Y407346
X878244Y407346
T12
X31520Y407201
X503961Y407201
X881000Y157500
X956717Y33185
X821000Y40500
X523646Y33185
X31520Y33185
X877976Y407201
T13
X959000Y70500
M30
